<?xml version="1.0"?><!DOCTYPE svg PUBLIC "-//W3C//DTD SVG 1.1//EN" "http://www.w3.org/Graphics/SVG/1.1/DTD/svg11.dtd"><svg xmlns="http://www.w3.org/2000/svg" width="950" height="950">
<title>PatternFour</title>
<desc>
Generated using the following configuration:

@implementation NewPattern : PatternFour
+ (CPDict) defaultConfig
{
 return [CPDictionary dictionaryWithObjectsAndKeys:[[GRColor alloc] initWithGradientColors:[[CPColor colorWith8BitRed:85 green:85 blue:85 alpha:1],[CPColor colorWith8BitRed:0 green:0 blue:0 alpha:1],[CPColor colorWith8BitRed:0 green:0 blue:255 alpha:1]] baseColor:[CPColor colorWith8BitRed:255 green:255 blue:255 alpha:1]], "background_color", 0, "background_color_direction", 6, "number_of_points", 0, "rotation", 0, "recurse_depth", 1.22, "factor_larger", [GRPoint pointWithX:475 Y:475], "center_point", 118, "radius", NO, "show_shapes", [[CPColor colorWith8BitRed:0 green:0 blue:255 alpha:0.2636363636363636],[CPColor colorWith8BitRed:31 green:255 blue:211 alpha:0],[CPColor colorWith8BitRed:85 green:85 blue:85 alpha:0.4909090909090909],[CPColor colorWith8BitRed:190 green:73 blue:12 alpha:1],[CPColor colorWith8BitRed:0 green:0 blue:255 alpha:0.6909090909090909],[CPColor colorWith8BitRed:0 green:0 blue:255 alpha:0.6909090909090909]], "stroke_colors", [[CPColor colorWith8BitRed:0 green:0 blue:0 alpha:0],[CPColor colorWith8BitRed:255 green:0 blue:0 alpha:0],[CPColor colorWith8BitRed:0 green:0 blue:255 alpha:0],[CPColor colorWith8BitRed:255 green:33 blue:50 alpha:0.2545454545454545],[CPColor colorWith8BitRed:130 green:18 blue:120 alpha:0],[CPColor colorWith8BitRed:76 green:156 blue:180 alpha:0]], "fill_colors"];
}
@end

</desc>
  <defs>
    <linearGradient id="grad1" x1="0%" y1="0%" x2="100%" y2="0%">
<stop offset="0%" style="stop-color:#555555;stop-opacity:1;" />
<stop offset="50%" style="stop-color:#000000;stop-opacity:1;" />
<stop offset="100%" style="stop-color:#0000FF;stop-opacity:1;" />
    </linearGradient>
  </defs>
<rect id="background" width="100%" height="100%" fill="url(#grad1)"/>
<g id="rotatelayer" transform="rotate(0, 475, 475)">
<path d="M 475 475 L 546.98 599.6730171288078 L 403.02 599.6730171288078 Z" style="stroke:#0000FF; stroke-opacity: 0.6909090909090909;fill:#821278; fill-opacity: 0;"/>
<path d="M 475 475 L 403.02 599.6730171288078 L 331.03999999999996 475 Z" style="stroke:#0000FF; stroke-opacity: 0.6909090909090909;fill:#4C9CB4; fill-opacity: 0;"/>
<path d="M 475 475 L 331.03999999999996 475 L 403.0199999999999 350.32698287119223 Z" style="stroke:#0000FF; stroke-opacity: 0.6909090909090909;fill:#821278; fill-opacity: 0;"/>
<path d="M 475 475 L 403.0199999999999 350.32698287119223 L 546.9799999999999 350.3269828711922 Z" style="stroke:#0000FF; stroke-opacity: 0.6909090909090909;fill:#4C9CB4; fill-opacity: 0;"/>
<path d="M 475 475 L 546.9799999999999 350.3269828711922 L 618.96 474.99999999999994 Z" style="stroke:#0000FF; stroke-opacity: 0.6909090909090909;fill:#821278; fill-opacity: 0;"/>
<path d="M 475 475 L 618.96 474.99999999999994 L 546.98 599.6730171288078 Z" style="stroke:#0000FF; stroke-opacity: 0.6909090909090909;fill:#4C9CB4; fill-opacity: 0;"/>
<path d="M 403.02 599.6730171288078 C 439.01 619.2566088644447 439.01 619.2566088644447 475 599.6730171288078 Z" style="stroke:#0000FF; stroke-opacity: 0.6909090909090909;fill:#821278; fill-opacity: 0;"/>
<path d="M 546.98 599.6730171288078 C 546.2633856278112 558.5290822532268 546.2633856278112 558.5290822532268 510.99 537.3365085644039 Z" style="stroke:#0000FF; stroke-opacity: 0.6909090909090909;fill:#821278; fill-opacity: 0;"/>
<path d="M 546.98 599.6730171288078 L 510.99 537.3365085644039 Z" style="stroke:#0000FF; stroke-opacity: 0.2636363636363636;fill:#000000; fill-opacity: 0;"/>
<path d="M 403.02 599.6730171288078 L 475 599.6730171288078 Z" style="stroke:#0000FF; stroke-opacity: 0.2636363636363636;fill:#000000; fill-opacity: 0;"/>
<path d="M 475 475 C 475.71661437218876 516.143934875581 475.71661437218876 516.143934875581 510.99 537.3365085644039 Z" style="stroke:#0000FF; stroke-opacity: 0.6909090909090909;fill:#4C9CB4; fill-opacity: 0;"/>
<path d="M 546.98 599.6730171288078 C 510.99 580.0894253931709 510.99 580.0894253931709 475 599.6730171288078 Z" style="stroke:#0000FF; stroke-opacity: 0.6909090909090909;fill:#4C9CB4; fill-opacity: 0;"/>
<path d="M 475 475 L 510.99 537.3365085644039 Z" style="stroke:#1FFFD3; stroke-opacity: 0;fill:#FF0000; fill-opacity: 0;"/>
<path d="M 546.98 599.6730171288078 L 475 599.6730171288078 Z" style="stroke:#1FFFD3; stroke-opacity: 0;fill:#FF0000; fill-opacity: 0;"/>
<path d="M 331.03999999999996 475 C 332.0751120595955 515.9600501500203 332.0751120595955 515.9600501500203 367.03 537.3365085644039 Z" style="stroke:#0000FF; stroke-opacity: 0.6909090909090909;fill:#4C9CB4; fill-opacity: 0;"/>
<path d="M 403.02 599.6730171288078 C 438.29338562781123 578.4804434399848 438.29338562781123 578.4804434399848 439.01 537.3365085644039 Z" style="stroke:#0000FF; stroke-opacity: 0.6909090909090909;fill:#4C9CB4; fill-opacity: 0;"/>
<path d="M 403.02 599.6730171288078 L 439.01 537.3365085644039 Z" style="stroke:#1FFFD3; stroke-opacity: 0;fill:#FF0000; fill-opacity: 0;"/>
<path d="M 331.03999999999996 475 L 367.03 537.3365085644039 Z" style="stroke:#1FFFD3; stroke-opacity: 0;fill:#FF0000; fill-opacity: 0;"/>
<path d="M 475 475 C 439.72661437218875 496.19257368882296 439.72661437218875 496.19257368882296 439.01 537.3365085644039 Z" style="stroke:#0000FF; stroke-opacity: 0.6909090909090909;fill:#821278; fill-opacity: 0;"/>
<path d="M 403.02 599.6730171288078 C 401.98488794040446 558.7129669787874 401.98488794040446 558.7129669787874 367.03 537.3365085644039 Z" style="stroke:#0000FF; stroke-opacity: 0.6909090909090909;fill:#821278; fill-opacity: 0;"/>
<path d="M 475 475 L 439.01 537.3365085644039 Z" style="stroke:#0000FF; stroke-opacity: 0.2636363636363636;fill:#000000; fill-opacity: 0;"/>
<path d="M 403.02 599.6730171288078 L 367.03 537.3365085644039 Z" style="stroke:#0000FF; stroke-opacity: 0.2636363636363636;fill:#000000; fill-opacity: 0;"/>
<path d="M 403.0199999999999 350.32698287119223 C 368.0651120595955 371.7034412855758 368.0651120595955 371.7034412855758 367.03 412.66349143559614 Z" style="stroke:#0000FF; stroke-opacity: 0.6909090909090909;fill:#821278; fill-opacity: 0;"/>
<path d="M 331.03999999999996 475 C 367.03 494.951361186758 367.03 494.951361186758 403.02 475 Z" style="stroke:#0000FF; stroke-opacity: 0.6909090909090909;fill:#821278; fill-opacity: 0;"/>
<path d="M 331.03999999999996 475 L 403.02 475 Z" style="stroke:#0000FF; stroke-opacity: 0.2636363636363636;fill:#000000; fill-opacity: 0;"/>
<path d="M 403.0199999999999 350.32698287119223 L 367.03 412.66349143559614 Z" style="stroke:#0000FF; stroke-opacity: 0.2636363636363636;fill:#000000; fill-opacity: 0;"/>
<path d="M 475 475 C 439.01 455.048638813242 439.01 455.048638813242 403.02 475 Z" style="stroke:#0000FF; stroke-opacity: 0.6909090909090909;fill:#4C9CB4; fill-opacity: 0;"/>
<path d="M 331.03999999999996 475 C 365.99488794040445 453.62354158561646 365.99488794040445 453.62354158561646 367.03 412.66349143559614 Z" style="stroke:#0000FF; stroke-opacity: 0.6909090909090909;fill:#4C9CB4; fill-opacity: 0;"/>
<path d="M 475 475 L 403.02 475 Z" style="stroke:#1FFFD3; stroke-opacity: 0;fill:#FF0000; fill-opacity: 0;"/>
<path d="M 331.03999999999996 475 L 367.03 412.66349143559614 Z" style="stroke:#1FFFD3; stroke-opacity: 0;fill:#FF0000; fill-opacity: 0;"/>
<path d="M 546.9799999999999 350.3269828711922 C 510.98999999999984 330.74339113555527 510.98999999999984 330.74339113555527 474.9999999999999 350.3269828711922 Z" style="stroke:#0000FF; stroke-opacity: 0.6909090909090909;fill:#4C9CB4; fill-opacity: 0;"/>
<path d="M 403.0199999999999 350.32698287119223 C 403.73661437218874 391.4709177467732 403.73661437218874 391.4709177467732 439.01 412.66349143559614 Z" style="stroke:#0000FF; stroke-opacity: 0.6909090909090909;fill:#4C9CB4; fill-opacity: 0;"/>
<path d="M 403.0199999999999 350.32698287119223 L 439.01 412.66349143559614 Z" style="stroke:#1FFFD3; stroke-opacity: 0;fill:#FF0000; fill-opacity: 0;"/>
<path d="M 546.9799999999999 350.3269828711922 L 474.9999999999999 350.3269828711922 Z" style="stroke:#1FFFD3; stroke-opacity: 0;fill:#FF0000; fill-opacity: 0;"/>
<path d="M 475 475 C 474.28338562781124 433.8560651244191 474.28338562781124 433.8560651244191 439.01 412.66349143559614 Z" style="stroke:#0000FF; stroke-opacity: 0.6909090909090909;fill:#821278; fill-opacity: 0;"/>
<path d="M 403.0199999999999 350.32698287119223 C 439.00999999999993 369.9105746068291 439.00999999999993 369.9105746068291 474.9999999999999 350.3269828711922 Z" style="stroke:#0000FF; stroke-opacity: 0.6909090909090909;fill:#821278; fill-opacity: 0;"/>
<path d="M 475 475 L 439.01 412.66349143559614 Z" style="stroke:#0000FF; stroke-opacity: 0.2636363636363636;fill:#000000; fill-opacity: 0;"/>
<path d="M 403.0199999999999 350.32698287119223 L 474.9999999999999 350.3269828711922 Z" style="stroke:#0000FF; stroke-opacity: 0.2636363636363636;fill:#000000; fill-opacity: 0;"/>
<path d="M 618.96 474.99999999999994 C 617.9248879404047 434.0399498499795 617.9248879404047 434.0399498499795 582.97 412.66349143559603 Z" style="stroke:#0000FF; stroke-opacity: 0.6909090909090909;fill:#821278; fill-opacity: 0;"/>
<path d="M 546.9799999999999 350.3269828711922 C 511.70661437218865 371.51955656001513 511.70661437218865 371.51955656001513 510.98999999999995 412.6634914355961 Z" style="stroke:#0000FF; stroke-opacity: 0.6909090909090909;fill:#821278; fill-opacity: 0;"/>
<path d="M 546.9799999999999 350.3269828711922 L 510.98999999999995 412.6634914355961 Z" style="stroke:#0000FF; stroke-opacity: 0.2636363636363636;fill:#000000; fill-opacity: 0;"/>
<path d="M 618.96 474.99999999999994 L 582.97 412.66349143559603 Z" style="stroke:#0000FF; stroke-opacity: 0.2636363636363636;fill:#000000; fill-opacity: 0;"/>
<path d="M 475 475 C 510.27338562781125 453.80742631117704 510.27338562781125 453.80742631117704 510.98999999999995 412.6634914355961 Z" style="stroke:#0000FF; stroke-opacity: 0.6909090909090909;fill:#4C9CB4; fill-opacity: 0;"/>
<path d="M 546.9799999999999 350.3269828711922 C 548.0151120595954 391.28703302121255 548.0151120595954 391.28703302121255 582.97 412.66349143559603 Z" style="stroke:#0000FF; stroke-opacity: 0.6909090909090909;fill:#4C9CB4; fill-opacity: 0;"/>
<path d="M 475 475 L 510.98999999999995 412.6634914355961 Z" style="stroke:#1FFFD3; stroke-opacity: 0;fill:#FF0000; fill-opacity: 0;"/>
<path d="M 546.9799999999999 350.3269828711922 L 582.97 412.66349143559603 Z" style="stroke:#1FFFD3; stroke-opacity: 0;fill:#FF0000; fill-opacity: 0;"/>
<path d="M 546.98 599.6730171288078 C 581.9348879404046 578.2965587144242 581.9348879404046 578.2965587144242 582.97 537.3365085644039 Z" style="stroke:#0000FF; stroke-opacity: 0.6909090909090909;fill:#4C9CB4; fill-opacity: 0;"/>
<path d="M 618.96 474.99999999999994 C 582.97 455.04863881324206 582.97 455.04863881324206 546.98 475 Z" style="stroke:#0000FF; stroke-opacity: 0.6909090909090909;fill:#4C9CB4; fill-opacity: 0;"/>
<path d="M 618.96 474.99999999999994 L 546.98 475 Z" style="stroke:#1FFFD3; stroke-opacity: 0;fill:#FF0000; fill-opacity: 0;"/>
<path d="M 546.98 599.6730171288078 L 582.97 537.3365085644039 Z" style="stroke:#1FFFD3; stroke-opacity: 0;fill:#FF0000; fill-opacity: 0;"/>
<path d="M 475 475 C 510.99 494.95136118675794 510.99 494.95136118675794 546.98 475 Z" style="stroke:#0000FF; stroke-opacity: 0.6909090909090909;fill:#821278; fill-opacity: 0;"/>
<path d="M 618.96 474.99999999999994 C 584.0051120595955 496.37645841438354 584.0051120595955 496.37645841438354 582.97 537.3365085644039 Z" style="stroke:#0000FF; stroke-opacity: 0.6909090909090909;fill:#821278; fill-opacity: 0;"/>
<path d="M 475 475 L 546.98 475 Z" style="stroke:#0000FF; stroke-opacity: 0.2636363636363636;fill:#000000; fill-opacity: 0;"/>
<path d="M 618.96 474.99999999999994 L 582.97 537.3365085644039 Z" style="stroke:#0000FF; stroke-opacity: 0.2636363636363636;fill:#000000; fill-opacity: 0;"/>
<path d="M 457.005 568.5047628466059 L 457.005 589.2835990347407 L 475 578.8941809406733 L 492.995 589.2835990347407 L 492.995 568.5047628466059 L 510.99 558.1153447525385 L 492.995 547.7259266584713 L 492.995 526.9470904703367 L 475 537.3365085644039 L 457.005 526.9470904703364 L 457.005 547.7259266584713 L 439.01 558.1153447525387 Z" style="stroke:#BE490C; stroke-opacity: 1;fill:#FF2132; fill-opacity: 0.2545454545454545;"/>
<path d="M 385.025 506.16825428220193 L 367.03 516.5576723762691 L 385.025 526.9470904703365 L 385.025 547.7259266584712 L 403.02 537.336508564404 L 421.015 547.7259266584714 L 421.015 526.9470904703365 L 439.01 516.5576723762691 L 421.015 506.16825428220193 L 421.015 485.3894180940673 L 403.02 495.7788361881345 L 385.025 485.3894180940671 Z" style="stroke:#BE490C; stroke-opacity: 1;fill:#FF2132; fill-opacity: 0.2545454545454545;"/>
<path d="M 403.0199999999999 412.6634914355961 L 385.02499999999975 402.2740733415286 L 385.02499999999986 423.05290952966334 L 367.0299999999998 433.4423276237306 L 385.025 443.83174571779807 L 385.0250000000001 464.6105819059328 L 403.0199999999999 454.2211638118653 L 421.0149999999999 464.6105819059326 L 421.015 443.83174571779807 L 439.01000000000005 433.4423276237308 L 421.0149999999999 423.05290952966334 L 421.01499999999976 402.2740733415286 Z" style="stroke:#BE490C; stroke-opacity: 1;fill:#FF2132; fill-opacity: 0.2545454545454545;"/>
<path d="M 492.99499999999995 381.4952371533941 L 492.99499999999995 360.7164009652593 L 474.99999999999994 371.10581905932673 L 457.00499999999994 360.71640096525937 L 457.00499999999994 381.49523715339416 L 439.00999999999993 391.8846552474616 L 457.00499999999994 402.2740733415287 L 457.00499999999994 423.0529095296633 L 474.99999999999994 412.6634914355961 L 492.99499999999995 423.05290952966345 L 492.99499999999995 402.27407334152866 L 510.98999999999995 391.88465524746124 Z" style="stroke:#BE490C; stroke-opacity: 1;fill:#FF2132; fill-opacity: 0.2545454545454545;"/>
<path d="M 564.975 443.831745717798 L 582.9700000000001 433.4423276237306 L 564.975 423.05290952966334 L 564.975 402.27407334152866 L 546.9799999999999 412.6634914355961 L 528.9849999999998 402.27407334152883 L 528.985 423.0529095296634 L 510.9900000000001 433.4423276237307 L 528.985 443.83174571779807 L 528.985 464.61058190593275 L 546.9800000000001 454.2211638118653 L 564.9750000000003 464.6105819059326 Z" style="stroke:#BE490C; stroke-opacity: 1;fill:#FF2132; fill-opacity: 0.2545454545454545;"/>
<path d="M 546.98 537.336508564404 L 564.975 547.7259266584712 L 564.975 526.9470904703365 L 582.97 516.5576723762691 L 564.975 506.16825428220193 L 564.975 485.3894180940673 L 546.98 495.7788361881345 L 528.985 485.3894180940671 L 528.985 506.16825428220193 L 510.99 516.5576723762694 L 528.985 526.9470904703365 L 528.985 547.7259266584712 Z" style="stroke:#BE490C; stroke-opacity: 1;fill:#FF2132; fill-opacity: 0.2545454545454545;"/>
<path d="M 492.995 506.16825428220193 L 439.01 599.6730171288078 Z" style="stroke:#1FFFD3; stroke-opacity: 0;fill:#FF0000; fill-opacity: 0;"/>
<path d="M 510.99 599.6730171288078 L 457.005 506.16825428220193 Z" style="stroke:#1FFFD3; stroke-opacity: 0;fill:#FF0000; fill-opacity: 0;"/>
<path d="M 421.015 568.5047628466059 L 528.985 568.5047628466059 Z" style="stroke:#1FFFD3; stroke-opacity: 0;fill:#FF0000; fill-opacity: 0;"/>
<path d="M 457.005 506.16825428220193 L 349.03499999999997 506.16825428220193 Z" style="stroke:#1FFFD3; stroke-opacity: 0;fill:#FF0000; fill-opacity: 0;"/>
<path d="M 385.025 568.5047628466059 L 439.01 475 Z" style="stroke:#1FFFD3; stroke-opacity: 0;fill:#FF0000; fill-opacity: 0;"/>
<path d="M 367.03 475 L 421.015 568.5047628466059 Z" style="stroke:#1FFFD3; stroke-opacity: 0;fill:#FF0000; fill-opacity: 0;"/>
<path d="M 439.01 475 L 385.0249999999999 381.49523715339416 Z" style="stroke:#1FFFD3; stroke-opacity: 0;fill:#FF0000; fill-opacity: 0;"/>
<path d="M 349.03499999999997 443.83174571779807 L 457.005 443.83174571779807 Z" style="stroke:#1FFFD3; stroke-opacity: 0;fill:#FF0000; fill-opacity: 0;"/>
<path d="M 421.01499999999993 381.49523715339416 L 367.03 475 Z" style="stroke:#1FFFD3; stroke-opacity: 0;fill:#FF0000; fill-opacity: 0;"/>
<path d="M 457.005 443.83174571779807 L 510.9899999999999 350.3269828711922 Z" style="stroke:#1FFFD3; stroke-opacity: 0;fill:#FF0000; fill-opacity: 0;"/>
<path d="M 439.00999999999993 350.32698287119223 L 492.995 443.83174571779807 Z" style="stroke:#1FFFD3; stroke-opacity: 0;fill:#FF0000; fill-opacity: 0;"/>
<path d="M 528.9849999999999 381.4952371533941 L 421.01499999999993 381.49523715339416 Z" style="stroke:#1FFFD3; stroke-opacity: 0;fill:#FF0000; fill-opacity: 0;"/>
<path d="M 492.995 443.83174571779807 L 600.965 443.831745717798 Z" style="stroke:#1FFFD3; stroke-opacity: 0;fill:#FF0000; fill-opacity: 0;"/>
<path d="M 564.9749999999999 381.4952371533941 L 510.99 475 Z" style="stroke:#1FFFD3; stroke-opacity: 0;fill:#FF0000; fill-opacity: 0;"/>
<path d="M 582.97 474.99999999999994 L 528.9849999999999 381.4952371533941 Z" style="stroke:#1FFFD3; stroke-opacity: 0;fill:#FF0000; fill-opacity: 0;"/>
<path d="M 510.99 475 L 564.975 568.5047628466059 Z" style="stroke:#1FFFD3; stroke-opacity: 0;fill:#FF0000; fill-opacity: 0;"/>
<path d="M 600.965 506.16825428220193 L 492.995 506.16825428220193 Z" style="stroke:#1FFFD3; stroke-opacity: 0;fill:#FF0000; fill-opacity: 0;"/>
<path d="M 528.985 568.5047628466059 L 582.97 474.99999999999994 Z" style="stroke:#1FFFD3; stroke-opacity: 0;fill:#FF0000; fill-opacity: 0;"/>
<path d="M 593 474.99999999999994 Z" style="stroke:#0000FF; stroke-opacity: 0.2636363636363636;fill:#000000; fill-opacity: 0;"/>
<circle cx="475" cy="475" r="118" style="stroke:#0000FF; stroke-opacity: 0.2636363636363636;fill:#000000; fill-opacity: 0;"/>
<path d="M 736.96 474.9999999999999 Z" style="stroke:#0000FF; stroke-opacity: 0.2636363636363636;fill:#000000; fill-opacity: 0;"/>
<circle cx="618.96" cy="474.99999999999994" r="118" style="stroke:#0000FF; stroke-opacity: 0.2636363636363636;fill:#000000; fill-opacity: 0;"/>
<path d="M 664.9799999999999 350.3269828711921 Z" style="stroke:#0000FF; stroke-opacity: 0.2636363636363636;fill:#000000; fill-opacity: 0;"/>
<circle cx="546.9799999999999" cy="350.3269828711922" r="118" style="stroke:#0000FF; stroke-opacity: 0.2636363636363636;fill:#000000; fill-opacity: 0;"/>
<path d="M 521.02 350.3269828711922 Z" style="stroke:#0000FF; stroke-opacity: 0.2636363636363636;fill:#000000; fill-opacity: 0;"/>
<circle cx="403.0199999999999" cy="350.32698287119223" r="118" style="stroke:#0000FF; stroke-opacity: 0.2636363636363636;fill:#000000; fill-opacity: 0;"/>
<path d="M 449.03999999999996 474.99999999999994 Z" style="stroke:#0000FF; stroke-opacity: 0.2636363636363636;fill:#000000; fill-opacity: 0;"/>
<circle cx="331.03999999999996" cy="475" r="118" style="stroke:#0000FF; stroke-opacity: 0.2636363636363636;fill:#000000; fill-opacity: 0;"/>
<path d="M 521.02 599.6730171288078 Z" style="stroke:#0000FF; stroke-opacity: 0.2636363636363636;fill:#000000; fill-opacity: 0;"/>
<circle cx="403.02" cy="599.6730171288078" r="118" style="stroke:#0000FF; stroke-opacity: 0.2636363636363636;fill:#000000; fill-opacity: 0;"/>
<path d="M 664.98 599.6730171288078 Z" style="stroke:#0000FF; stroke-opacity: 0.2636363636363636;fill:#000000; fill-opacity: 0;"/>
<circle cx="546.98" cy="599.6730171288078" r="118" style="stroke:#0000FF; stroke-opacity: 0.2636363636363636;fill:#000000; fill-opacity: 0;"/>
</g>
</svg>