<?xml version="1.0"?><!DOCTYPE svg PUBLIC "-//W3C//DTD SVG 1.1//EN" "http://www.w3.org/Graphics/SVG/1.1/DTD/svg11.dtd"><svg xmlns="http://www.w3.org/2000/svg" width="950" height="950">
<title>PatternTwelve</title>
<desc>
Generated using the following configuration:

@implementation NewPattern : PatternTwelve
+ (CPDict) defaultConfig
{
 return [CPDictionary dictionaryWithObjectsAndKeys:[[GRColor alloc] initWithGradientColors:[] baseColor:[CPColor colorWith8BitRed:255 green:255 blue:255 alpha:1]], "background_color", 0, "background_color_direction", 12, "number_of_points", 0, "rotation", 0, "recurse_depth", 1.14, "factor_larger", [GRPoint pointWithX:475 Y:475], "center_point", 146, "radius", YES, "show_shapes", [[CPColor colorWith8BitRed:174 green:174 blue:174 alpha:0.07727272727272727],[CPColor colorWith8BitRed:0 green:0 blue:0 alpha:0.15454545454545454],[CPColor colorWith8BitRed:0 green:0 blue:0 alpha:0.2727272727272727],[CPColor colorWith8BitRed:85 green:85 blue:85 alpha:1],[CPColor colorWith8BitRed:255 green:2 blue:10 alpha:1],[CPColor colorWith8BitRed:255 green:23 blue:10 alpha:1]], "stroke_colors", [[CPColor colorWith8BitRed:255 green:255 blue:0 alpha:0],[CPColor colorWith8BitRed:255 green:255 blue:0 alpha:0],[CPColor colorWith8BitRed:255 green:255 blue:0 alpha:0],[CPColor colorWith8BitRed:200 green:96 blue:175 alpha:0],[CPColor colorWith8BitRed:23 green:200 blue:10 alpha:0],[CPColor colorWith8BitRed:200 green:23 blue:10 alpha:0]], "fill_colors"];
}
@end

</desc>
  <defs>
    <linearGradient id="grad1" x1="0%" y1="0%" x2="100%" y2="0%">
<stop offset="100%" style="stop-color:#FFFFFF;stop-opacity:1;" />
    </linearGradient>
  </defs>
<rect id="background" width="100%" height="100%" fill="url(#grad1)"/>
<g id="rotatelayer" transform="rotate(0, 475, 475)">
<path d="M 621 474.99999999999994 Z" style="stroke:#AEAEAE; stroke-opacity: 0.07727272727272727;fill:#FFFF00; fill-opacity: 0;"/>
<circle cx="475" cy="475" r="146" style="stroke:#AEAEAE; stroke-opacity: 0.07727272727272727;fill:#FFFF00; fill-opacity: 0;"/>
<path d="M 787.44 474.9999999999999 Z" style="stroke:#000000; stroke-opacity: 0.2727272727272727;fill:#FFFF00; fill-opacity: 0;"/>
<circle cx="641.44" cy="474.99999999999994" r="146" style="stroke:#000000; stroke-opacity: 0.2727272727272727;fill:#FFFF00; fill-opacity: 0;"/>
<path d="M 765.1412682058819 391.7799999999999 Z" style="stroke:#000000; stroke-opacity: 0.15454545454545454;fill:#FFFF00; fill-opacity: 0;"/>
<circle cx="619.1412682058819" cy="391.78" r="146" style="stroke:#000000; stroke-opacity: 0.15454545454545454;fill:#FFFF00; fill-opacity: 0;"/>
<path d="M 704.2199999999998 330.8587317941179 Z" style="stroke:#000000; stroke-opacity: 0.2727272727272727;fill:#FFFF00; fill-opacity: 0;"/>
<circle cx="558.2199999999998" cy="330.85873179411794" r="146" style="stroke:#000000; stroke-opacity: 0.2727272727272727;fill:#FFFF00; fill-opacity: 0;"/>
<path d="M 621 308.55999999999995 Z" style="stroke:#000000; stroke-opacity: 0.15454545454545454;fill:#FFFF00; fill-opacity: 0;"/>
<circle cx="475" cy="308.56" r="146" style="stroke:#000000; stroke-opacity: 0.15454545454545454;fill:#FFFF00; fill-opacity: 0;"/>
<path d="M 537.78 330.858731794118 Z" style="stroke:#000000; stroke-opacity: 0.2727272727272727;fill:#FFFF00; fill-opacity: 0;"/>
<circle cx="391.78" cy="330.85873179411806" r="146" style="stroke:#000000; stroke-opacity: 0.2727272727272727;fill:#FFFF00; fill-opacity: 0;"/>
<path d="M 476.85873179411806 391.7799999999999 Z" style="stroke:#000000; stroke-opacity: 0.15454545454545454;fill:#FFFF00; fill-opacity: 0;"/>
<circle cx="330.85873179411806" cy="391.78" r="146" style="stroke:#000000; stroke-opacity: 0.15454545454545454;fill:#FFFF00; fill-opacity: 0;"/>
<path d="M 454.56 474.99999999999994 Z" style="stroke:#000000; stroke-opacity: 0.2727272727272727;fill:#FFFF00; fill-opacity: 0;"/>
<circle cx="308.56" cy="475" r="146" style="stroke:#000000; stroke-opacity: 0.2727272727272727;fill:#FFFF00; fill-opacity: 0;"/>
<path d="M 476.85873179411806 558.22 Z" style="stroke:#000000; stroke-opacity: 0.15454545454545454;fill:#FFFF00; fill-opacity: 0;"/>
<circle cx="330.85873179411806" cy="558.22" r="146" style="stroke:#000000; stroke-opacity: 0.15454545454545454;fill:#FFFF00; fill-opacity: 0;"/>
<path d="M 537.78 619.1412682058819 Z" style="stroke:#000000; stroke-opacity: 0.2727272727272727;fill:#FFFF00; fill-opacity: 0;"/>
<circle cx="391.78" cy="619.1412682058819" r="146" style="stroke:#000000; stroke-opacity: 0.2727272727272727;fill:#FFFF00; fill-opacity: 0;"/>
<path d="M 621 641.44 Z" style="stroke:#000000; stroke-opacity: 0.15454545454545454;fill:#FFFF00; fill-opacity: 0;"/>
<circle cx="475" cy="641.44" r="146" style="stroke:#000000; stroke-opacity: 0.15454545454545454;fill:#FFFF00; fill-opacity: 0;"/>
<path d="M 704.22 619.1412682058819 Z" style="stroke:#000000; stroke-opacity: 0.2727272727272727;fill:#FFFF00; fill-opacity: 0;"/>
<circle cx="558.22" cy="619.1412682058819" r="146" style="stroke:#000000; stroke-opacity: 0.2727272727272727;fill:#FFFF00; fill-opacity: 0;"/>
<path d="M 765.1412682058819 558.22 Z" style="stroke:#000000; stroke-opacity: 0.15454545454545454;fill:#FFFF00; fill-opacity: 0;"/>
<circle cx="619.1412682058819" cy="558.22" r="146" style="stroke:#000000; stroke-opacity: 0.15454545454545454;fill:#FFFF00; fill-opacity: 0;"/>
<path d="M 619.1412682058819 558.22 L 558.22 558.22 L 558.22 619.1412682058819 L 619.1412682058819 619.1412682058819 Z" style="stroke:#555555; stroke-opacity: 1;fill:#C860AF; fill-opacity: 0;"/>
<path d="M 558.22 619.1412682058819 L 505.46063410294096 588.680634102941 L 475 641.44 L 527.7593658970591 671.900634102941 Z" style="stroke:#555555; stroke-opacity: 1;fill:#C860AF; fill-opacity: 0;"/>
<path d="M 475 641.44 L 444.53936589705904 588.680634102941 L 391.78 619.1412682058819 L 422.24063410294093 671.900634102941 Z" style="stroke:#555555; stroke-opacity: 1;fill:#C860AF; fill-opacity: 0;"/>
<path d="M 391.78 619.1412682058819 L 391.78 558.22 L 330.85873179411806 558.22 L 330.85873179411806 619.1412682058819 Z" style="stroke:#555555; stroke-opacity: 1;fill:#C860AF; fill-opacity: 0;"/>
<path d="M 330.85873179411806 558.22 L 361.319365897059 505.46063410294096 L 308.56 475 L 278.099365897059 527.7593658970591 Z" style="stroke:#555555; stroke-opacity: 1;fill:#C860AF; fill-opacity: 0;"/>
<path d="M 308.56 475 L 361.319365897059 444.53936589705904 L 330.85873179411806 391.78 L 278.099365897059 422.24063410294093 Z" style="stroke:#555555; stroke-opacity: 1;fill:#C860AF; fill-opacity: 0;"/>
<path d="M 330.85873179411806 391.78 L 391.78 391.78 L 391.78 330.85873179411806 L 330.85873179411806 330.85873179411806 Z" style="stroke:#555555; stroke-opacity: 1;fill:#C860AF; fill-opacity: 0;"/>
<path d="M 391.78 330.85873179411806 L 444.53936589705904 361.319365897059 L 475 308.56 L 422.24063410294093 278.099365897059 Z" style="stroke:#555555; stroke-opacity: 1;fill:#C860AF; fill-opacity: 0;"/>
<path d="M 475 308.56 L 505.46063410294096 361.3193658970589 L 558.2199999999998 330.85873179411794 L 527.7593658970588 278.0993658970591 Z" style="stroke:#555555; stroke-opacity: 1;fill:#C860AF; fill-opacity: 0;"/>
<path d="M 558.2199999999998 330.85873179411794 L 558.2199999999998 391.78000000000003 L 619.1412682058819 391.78 L 619.1412682058819 330.8587317941179 Z" style="stroke:#555555; stroke-opacity: 1;fill:#C860AF; fill-opacity: 0;"/>
<path d="M 619.1412682058819 391.78 L 588.680634102941 444.53936589705904 L 641.44 474.99999999999994 L 671.900634102941 422.24063410294093 Z" style="stroke:#555555; stroke-opacity: 1;fill:#C860AF; fill-opacity: 0;"/>
<path d="M 641.44 474.99999999999994 L 588.680634102941 505.46063410294096 L 619.1412682058819 558.22 L 671.900634102941 527.7593658970591 Z" style="stroke:#555555; stroke-opacity: 1;fill:#C860AF; fill-opacity: 0;"/>
<path d="M 558.22 558.22 L 516.61 547.070634102941 L 505.46063410294096 588.680634102941 L 547.070634102941 599.83 Z" style="stroke:#555569; stroke-opacity: 1;fill:#C860C3; fill-opacity: 0;"/>
<path d="M 505.46063410294096 588.680634102941 L 475 558.22 L 444.53936589705904 588.680634102941 L 475 619.1412682058819 Z" style="stroke:#555569; stroke-opacity: 1;fill:#C860C3; fill-opacity: 0;"/>
<path d="M 444.53936589705904 588.680634102941 L 433.39 547.070634102941 L 391.78 558.22 L 402.92936589705903 599.83 Z" style="stroke:#555569; stroke-opacity: 1;fill:#C860C3; fill-opacity: 0;"/>
<path d="M 391.78 558.22 L 402.92936589705903 516.61 L 361.319365897059 505.46063410294096 L 350.16999999999996 547.070634102941 Z" style="stroke:#555569; stroke-opacity: 1;fill:#C860C3; fill-opacity: 0;"/>
<path d="M 361.319365897059 505.46063410294096 L 391.78 475 L 361.319365897059 444.53936589705904 L 330.85873179411806 475 Z" style="stroke:#555569; stroke-opacity: 1;fill:#C860C3; fill-opacity: 0;"/>
<path d="M 361.319365897059 444.53936589705904 L 402.92936589705903 433.39 L 391.78 391.78 L 350.16999999999996 402.92936589705903 Z" style="stroke:#555569; stroke-opacity: 1;fill:#C860C3; fill-opacity: 0;"/>
<path d="M 391.78 391.78 L 433.39 402.92936589705903 L 444.53936589705904 361.319365897059 L 402.92936589705903 350.16999999999996 Z" style="stroke:#555569; stroke-opacity: 1;fill:#C860C3; fill-opacity: 0;"/>
<path d="M 444.53936589705904 361.319365897059 L 475.00000000000006 391.7799999999999 L 505.46063410294096 361.3193658970589 L 474.99999999999994 330.858731794118 Z" style="stroke:#555569; stroke-opacity: 1;fill:#C860C3; fill-opacity: 0;"/>
<path d="M 505.46063410294096 361.3193658970589 L 516.6099999999998 402.9293658970589 L 558.2199999999998 391.78000000000003 L 547.070634102941 350.1700000000001 Z" style="stroke:#555569; stroke-opacity: 1;fill:#C860C3; fill-opacity: 0;"/>
<path d="M 558.2199999999998 391.78000000000003 L 547.0706341029409 433.3900000000001 L 588.680634102941 444.53936589705904 L 599.8299999999999 402.9293658970589 Z" style="stroke:#555569; stroke-opacity: 1;fill:#C860C3; fill-opacity: 0;"/>
<path d="M 588.680634102941 444.53936589705904 L 558.22 475 L 588.680634102941 505.46063410294096 L 619.1412682058819 475 Z" style="stroke:#555569; stroke-opacity: 1;fill:#C860C3; fill-opacity: 0;"/>
<path d="M 588.680634102941 505.46063410294096 L 547.070634102941 516.61 L 558.22 558.22 L 599.83 547.070634102941 Z" style="stroke:#555569; stroke-opacity: 1;fill:#C860C3; fill-opacity: 0;"/>
<path d="M 516.61 547.070634102941 L 490.2303170514705 531.8403170514705 L 475 558.22 L 501.37968294852953 573.4503170514706 Z" style="stroke:#55557D; stroke-opacity: 1;fill:#C860D7; fill-opacity: 0;"/>
<path d="M 475 558.22 L 459.7696829485295 531.8403170514705 L 433.39 547.070634102941 L 448.62031705147047 573.4503170514706 Z" style="stroke:#55557D; stroke-opacity: 1;fill:#C860D7; fill-opacity: 0;"/>
<path d="M 433.39 547.070634102941 L 433.39 516.61 L 402.92936589705903 516.61 L 402.92936589705903 547.070634102941 Z" style="stroke:#55557D; stroke-opacity: 1;fill:#C860D7; fill-opacity: 0;"/>
<path d="M 402.92936589705903 516.61 L 418.1596829485295 490.2303170514705 L 391.78 475 L 376.5496829485295 501.37968294852953 Z" style="stroke:#55557D; stroke-opacity: 1;fill:#C860D7; fill-opacity: 0;"/>
<path d="M 391.78 475 L 418.1596829485295 459.7696829485295 L 402.92936589705903 433.39 L 376.5496829485295 448.62031705147047 Z" style="stroke:#55557D; stroke-opacity: 1;fill:#C860D7; fill-opacity: 0;"/>
<path d="M 402.92936589705903 433.39 L 433.39 433.39 L 433.39 402.92936589705903 L 402.92936589705903 402.92936589705903 Z" style="stroke:#55557D; stroke-opacity: 1;fill:#C860D7; fill-opacity: 0;"/>
<path d="M 433.39 402.92936589705903 L 459.7696829485296 418.15968294852945 L 475.00000000000006 391.7799999999999 L 448.6203170514705 376.54968294852944 Z" style="stroke:#55557D; stroke-opacity: 1;fill:#C860D7; fill-opacity: 0;"/>
<path d="M 475.00000000000006 391.7799999999999 L 490.2303170514705 418.1596829485293 L 516.6099999999998 402.9293658970589 L 501.3796829485294 376.5496829485296 Z" style="stroke:#55557D; stroke-opacity: 1;fill:#C860D7; fill-opacity: 0;"/>
<path d="M 516.6099999999998 402.9293658970589 L 516.6099999999997 433.39000000000004 L 547.0706341029409 433.3900000000001 L 547.0706341029409 402.929365897059 Z" style="stroke:#55557D; stroke-opacity: 1;fill:#C860D7; fill-opacity: 0;"/>
<path d="M 547.0706341029409 433.3900000000001 L 531.8403170514705 459.76968294852963 L 558.22 475 L 573.4503170514704 448.62031705147047 Z" style="stroke:#55557D; stroke-opacity: 1;fill:#C860D7; fill-opacity: 0;"/>
<path d="M 558.22 475 L 531.8403170514705 490.2303170514705 L 547.070634102941 516.61 L 573.4503170514706 501.37968294852953 Z" style="stroke:#55557D; stroke-opacity: 1;fill:#C860D7; fill-opacity: 0;"/>
<path d="M 547.070634102941 516.61 L 516.61 516.61 L 516.61 547.070634102941 L 547.070634102941 547.070634102941 Z" style="stroke:#55557D; stroke-opacity: 1;fill:#C860D7; fill-opacity: 0;"/>
<path d="M 490.2303170514705 531.8403170514705 L 475 516.61 L 459.7696829485295 531.8403170514705 L 475 547.070634102941 Z" style="stroke:#555591; stroke-opacity: 1;fill:#C860EB; fill-opacity: 0;"/>
<path d="M 459.7696829485295 531.8403170514705 L 454.195 511.03531705147043 L 433.39 516.61 L 438.9646829485295 537.415 Z" style="stroke:#555591; stroke-opacity: 1;fill:#C860EB; fill-opacity: 0;"/>
<path d="M 433.39 516.61 L 438.9646829485295 495.805 L 418.1596829485295 490.2303170514705 L 412.585 511.0353170514705 Z" style="stroke:#555591; stroke-opacity: 1;fill:#C860EB; fill-opacity: 0;"/>
<path d="M 418.1596829485295 490.2303170514705 L 433.39 475 L 418.1596829485295 459.7696829485295 L 402.92936589705903 475 Z" style="stroke:#555591; stroke-opacity: 1;fill:#C860EB; fill-opacity: 0;"/>
<path d="M 418.1596829485295 459.7696829485295 L 438.9646829485295 454.195 L 433.39 433.39 L 412.585 438.9646829485295 Z" style="stroke:#555591; stroke-opacity: 1;fill:#C860EB; fill-opacity: 0;"/>
<path d="M 433.39 433.39 L 454.1950000000001 438.9646829485295 L 459.7696829485296 418.15968294852945 L 438.9646829485295 412.58499999999987 Z" style="stroke:#555591; stroke-opacity: 1;fill:#C860EB; fill-opacity: 0;"/>
<path d="M 459.7696829485296 418.15968294852945 L 475.0000000000001 433.3899999999999 L 490.2303170514705 418.1596829485293 L 474.9999999999999 402.9293658970589 Z" style="stroke:#555591; stroke-opacity: 1;fill:#C860EB; fill-opacity: 0;"/>
<path d="M 490.2303170514705 418.1596829485293 L 495.80499999999967 438.9646829485293 L 516.6099999999997 433.39000000000004 L 511.0353170514705 412.5850000000001 Z" style="stroke:#555591; stroke-opacity: 1;fill:#C860EB; fill-opacity: 0;"/>
<path d="M 516.6099999999997 433.39000000000004 L 511.0353170514703 454.1950000000003 L 531.8403170514705 459.76968294852963 L 537.4149999999998 438.96468294852946 Z" style="stroke:#555591; stroke-opacity: 1;fill:#C860EB; fill-opacity: 0;"/>
<path d="M 531.8403170514705 459.76968294852963 L 516.6100000000001 475.00000000000006 L 531.8403170514705 490.2303170514705 L 547.0706341029409 475.00000000000006 Z" style="stroke:#555591; stroke-opacity: 1;fill:#C860EB; fill-opacity: 0;"/>
<path d="M 531.8403170514705 490.2303170514705 L 511.03531705147043 495.805 L 516.61 516.61 L 537.415 511.0353170514705 Z" style="stroke:#555591; stroke-opacity: 1;fill:#C860EB; fill-opacity: 0;"/>
<path d="M 516.61 516.61 L 495.805 511.03531705147043 L 490.2303170514705 531.8403170514705 L 511.0353170514705 537.415 Z" style="stroke:#555591; stroke-opacity: 1;fill:#C860EB; fill-opacity: 0;"/>
<path d="M 475 516.61 L 467.38484147426476 503.42015852573525 L 454.195 511.03531705147043 L 461.8101585257352 524.2251585257353 Z" style="stroke:#5555A4; stroke-opacity: 1;fill:#C860FF; fill-opacity: 0;"/>
<path d="M 454.195 511.03531705147043 L 454.19499999999994 495.805 L 438.9646829485295 495.805 L 438.96468294852957 511.0353170514705 Z" style="stroke:#5555A4; stroke-opacity: 1;fill:#C860FF; fill-opacity: 0;"/>
<path d="M 438.9646829485295 495.805 L 446.57984147426475 482.6151585257353 L 433.39 475 L 425.7748414742647 488.18984147426477 Z" style="stroke:#5555A4; stroke-opacity: 1;fill:#C860FF; fill-opacity: 0;"/>
<path d="M 433.39 475 L 446.57984147426475 467.3848414742647 L 438.9646829485295 454.195 L 425.7748414742647 461.81015852573523 Z" style="stroke:#5555A4; stroke-opacity: 1;fill:#C860FF; fill-opacity: 0;"/>
<path d="M 438.9646829485295 454.195 L 454.19500000000005 454.19500000000005 L 454.1950000000001 438.9646829485295 L 438.96468294852957 438.96468294852946 Z" style="stroke:#5555A4; stroke-opacity: 1;fill:#C860FF; fill-opacity: 0;"/>
<path d="M 454.1950000000001 438.9646829485295 L 467.38484147426493 446.57984147426475 L 475.0000000000001 433.3899999999999 L 461.81015852573523 425.7748414742647 Z" style="stroke:#5555A4; stroke-opacity: 1;fill:#C860FF; fill-opacity: 0;"/>
<path d="M 475.0000000000001 433.3899999999999 L 482.6151585257352 446.5798414742644 L 495.80499999999967 438.9646829485293 L 488.18984147426465 425.7748414742648 Z" style="stroke:#5555A4; stroke-opacity: 1;fill:#C860FF; fill-opacity: 0;"/>
<path d="M 495.80499999999967 438.9646829485293 L 495.8049999999995 454.19500000000016 L 511.0353170514703 454.1950000000003 L 511.03531705147043 438.96468294852946 Z" style="stroke:#5555A4; stroke-opacity: 1;fill:#C860FF; fill-opacity: 0;"/>
<path d="M 511.0353170514703 454.1950000000003 L 503.4201585257354 467.3848414742651 L 516.6100000000001 475.00000000000006 L 524.2251585257352 461.8101585257353 Z" style="stroke:#5555A4; stroke-opacity: 1;fill:#C860FF; fill-opacity: 0;"/>
<path d="M 516.6100000000001 475.00000000000006 L 503.4201585257353 482.6151585257352 L 511.03531705147043 495.805 L 524.2251585257352 488.1898414742649 Z" style="stroke:#5555A4; stroke-opacity: 1;fill:#C860FF; fill-opacity: 0;"/>
<path d="M 511.03531705147043 495.805 L 495.80500000000006 495.80500000000006 L 495.805 511.03531705147043 L 511.03531705147043 511.03531705147043 Z" style="stroke:#5555A4; stroke-opacity: 1;fill:#C860FF; fill-opacity: 0;"/>
<path d="M 495.805 511.03531705147043 L 482.61515852573524 503.42015852573525 L 475 516.61 L 488.1898414742648 524.2251585257353 Z" style="stroke:#5555A4; stroke-opacity: 1;fill:#C860FF; fill-opacity: 0;"/>
<path d="M 467.38484147426476 503.42015852573525 L 464.59749999999997 493.01765852573516 L 454.19499999999994 495.805 L 456.9823414742647 506.20750000000004 Z" style="stroke:#5555B9; stroke-opacity: 1;fill:#C860FF; fill-opacity: 0;"/>
<path d="M 454.19499999999994 495.805 L 456.98234147426473 485.4025000000001 L 446.57984147426475 482.6151585257353 L 443.79249999999996 493.01765852573527 Z" style="stroke:#5555B9; stroke-opacity: 1;fill:#C860FF; fill-opacity: 0;"/>
<path d="M 446.57984147426475 482.6151585257353 L 454.19500000000005 475 L 446.57984147426475 467.3848414742647 L 438.96468294852946 475 Z" style="stroke:#5555B9; stroke-opacity: 1;fill:#C860FF; fill-opacity: 0;"/>
<path d="M 446.57984147426475 467.3848414742647 L 456.98234147426473 464.5975 L 454.19500000000005 454.19500000000005 L 443.7925000000001 456.98234147426473 Z" style="stroke:#5555B9; stroke-opacity: 1;fill:#C860FF; fill-opacity: 0;"/>
<path d="M 454.19500000000005 454.19500000000005 L 464.59750000000014 456.98234147426484 L 467.38484147426493 446.57984147426475 L 456.98234147426484 443.79249999999996 Z" style="stroke:#5555B9; stroke-opacity: 1;fill:#C860FF; fill-opacity: 0;"/>
<path d="M 467.38484147426493 446.57984147426475 L 475.0000000000002 454.1949999999997 L 482.6151585257352 446.5798414742644 L 474.9999999999999 438.96468294852946 Z" style="stroke:#5555B9; stroke-opacity: 1;fill:#C860FF; fill-opacity: 0;"/>
<path d="M 482.6151585257352 446.5798414742644 L 485.40249999999946 456.98234147426444 L 495.8049999999995 454.19500000000016 L 493.0176585257352 443.79250000000013 Z" style="stroke:#5555B9; stroke-opacity: 1;fill:#C860FF; fill-opacity: 0;"/>
<path d="M 495.8049999999995 454.19500000000016 L 493.01765852573504 464.5975000000006 L 503.4201585257354 467.3848414742651 L 506.2074999999999 456.98234147426473 Z" style="stroke:#5555B9; stroke-opacity: 1;fill:#C860FF; fill-opacity: 0;"/>
<path d="M 503.4201585257354 467.3848414742651 L 495.8050000000003 475.00000000000006 L 503.4201585257353 482.6151585257352 L 511.03531705147043 475.00000000000017 Z" style="stroke:#5555B9; stroke-opacity: 1;fill:#C860FF; fill-opacity: 0;"/>
<path d="M 503.4201585257353 482.6151585257352 L 493.01765852573527 485.4025 L 495.80500000000006 495.80500000000006 L 506.20750000000015 493.01765852573527 Z" style="stroke:#5555B9; stroke-opacity: 1;fill:#C860FF; fill-opacity: 0;"/>
<path d="M 495.80500000000006 495.80500000000006 L 485.4025000000001 493.01765852573527 L 482.61515852573524 503.42015852573525 L 493.01765852573527 506.20750000000004 Z" style="stroke:#5555B9; stroke-opacity: 1;fill:#C860FF; fill-opacity: 0;"/>
<path d="M 482.61515852573524 503.42015852573525 L 475 495.805 L 467.38484147426476 503.42015852573525 L 475 511.0353170514705 Z" style="stroke:#5555B9; stroke-opacity: 1;fill:#C860FF; fill-opacity: 0;"/>
<path d="M 464.59749999999997 493.01765852573516 L 464.59749999999985 485.4025 L 456.98234147426473 485.4025000000001 L 456.9823414742648 493.01765852573527 Z" style="stroke:#5555CD; stroke-opacity: 1;fill:#C860FF; fill-opacity: 0;"/>
<path d="M 456.98234147426473 485.4025000000001 L 460.78992073713243 478.80757926286776 L 454.19500000000005 475 L 450.3874207371323 481.5949207371324 Z" style="stroke:#5555CD; stroke-opacity: 1;fill:#C860FF; fill-opacity: 0;"/>
<path d="M 454.19500000000005 475 L 460.7899207371323 471.19242073713235 L 456.98234147426473 464.5975 L 450.3874207371324 468.40507926286773 Z" style="stroke:#5555CD; stroke-opacity: 1;fill:#C860FF; fill-opacity: 0;"/>
<path d="M 456.98234147426473 464.5975 L 464.5975 464.59750000000014 L 464.59750000000014 456.98234147426484 L 456.98234147426484 456.98234147426473 Z" style="stroke:#5555CD; stroke-opacity: 1;fill:#C860FF; fill-opacity: 0;"/>
<path d="M 464.59750000000014 456.98234147426484 L 471.1924207371327 460.78992073713226 L 475.0000000000002 454.1949999999997 L 468.4050792628676 450.38742073713223 Z" style="stroke:#5555CD; stroke-opacity: 1;fill:#C860FF; fill-opacity: 0;"/>
<path d="M 475.0000000000002 454.1949999999997 L 478.8075792628675 460.7899207371317 L 485.40249999999946 456.98234147426444 L 481.5949207371322 450.38742073713246 Z" style="stroke:#5555CD; stroke-opacity: 1;fill:#C860FF; fill-opacity: 0;"/>
<path d="M 485.40249999999946 456.98234147426444 L 485.4024999999991 464.5975000000003 L 493.01765852573504 464.5975000000006 L 493.0176585257353 456.9823414742648 Z" style="stroke:#5555CD; stroke-opacity: 1;fill:#C860FF; fill-opacity: 0;"/>
<path d="M 493.01765852573504 464.5975000000006 L 489.2100792628679 471.1924207371329 L 495.8050000000003 475.00000000000006 L 499.61257926286737 468.40507926286773 Z" style="stroke:#5555CD; stroke-opacity: 1;fill:#C860FF; fill-opacity: 0;"/>
<path d="M 495.8050000000003 475.00000000000006 L 489.2100792628678 478.8075792628675 L 493.01765852573527 485.4025 L 499.6125792628677 481.59492073713255 Z" style="stroke:#5555CD; stroke-opacity: 1;fill:#C860FF; fill-opacity: 0;"/>
<path d="M 493.01765852573527 485.4025 L 485.40250000000003 485.40250000000003 L 485.4025000000001 493.01765852573527 L 493.0176585257353 493.0176585257352 Z" style="stroke:#5555CD; stroke-opacity: 1;fill:#C860FF; fill-opacity: 0;"/>
<path d="M 485.4025000000001 493.01765852573527 L 478.8075792628677 489.21007926286757 L 475 495.805 L 481.59492073713244 499.6125792628677 Z" style="stroke:#5555CD; stroke-opacity: 1;fill:#C860FF; fill-opacity: 0;"/>
<path d="M 475 495.805 L 471.1924207371324 489.21007926286757 L 464.59749999999997 493.01765852573516 L 468.40507926286756 499.6125792628676 Z" style="stroke:#5555CD; stroke-opacity: 1;fill:#C860FF; fill-opacity: 0;"/>
<path d="M 464.59749999999985 485.4025 L 465.9911707371323 480.2012500000002 L 460.78992073713243 478.80757926286776 L 459.39625 484.0088292628676 Z" style="stroke:#5555E1; stroke-opacity: 1;fill:#C860FF; fill-opacity: 0;"/>
<path d="M 460.78992073713243 478.80757926286776 L 464.5975000000001 475 L 460.7899207371323 471.19242073713235 L 456.9823414742647 475.0000000000001 Z" style="stroke:#5555E1; stroke-opacity: 1;fill:#C860FF; fill-opacity: 0;"/>
<path d="M 460.7899207371323 471.19242073713235 L 465.9911707371323 469.7987500000001 L 464.5975 464.59750000000014 L 459.39625 465.99117073713234 Z" style="stroke:#5555E1; stroke-opacity: 1;fill:#C860FF; fill-opacity: 0;"/>
<path d="M 464.5975 464.59750000000014 L 469.79875000000027 465.99117073713256 L 471.1924207371327 460.78992073713226 L 465.9911707371324 459.39624999999984 Z" style="stroke:#5555E1; stroke-opacity: 1;fill:#C860FF; fill-opacity: 0;"/>
<path d="M 471.1924207371327 460.78992073713226 L 475.0000000000004 464.59749999999934 L 478.8075792628675 460.7899207371317 L 474.99999999999983 456.9823414742646 Z" style="stroke:#5555E1; stroke-opacity: 1;fill:#C860FF; fill-opacity: 0;"/>
<path d="M 478.8075792628675 460.7899207371317 L 480.20124999999905 465.9911707371318 L 485.4024999999991 464.5975000000003 L 484.0088292628676 459.39625000000024 Z" style="stroke:#5555E1; stroke-opacity: 1;fill:#C860FF; fill-opacity: 0;"/>
<path d="M 485.4024999999991 464.5975000000003 L 484.0088292628672 469.798750000001 L 489.2100792628679 471.1924207371329 L 490.6037499999998 465.9911707371322 Z" style="stroke:#5555E1; stroke-opacity: 1;fill:#C860FF; fill-opacity: 0;"/>
<path d="M 489.2100792628679 471.1924207371329 L 485.4025000000006 475.00000000000017 L 489.2100792628678 478.8075792628675 L 493.0176585257351 475.0000000000003 Z" style="stroke:#5555E1; stroke-opacity: 1;fill:#C860FF; fill-opacity: 0;"/>
<path d="M 489.2100792628678 478.8075792628675 L 484.0088292628676 480.2012499999999 L 485.40250000000003 485.40250000000003 L 490.6037500000002 484.00882926286766 Z" style="stroke:#5555E1; stroke-opacity: 1;fill:#C860FF; fill-opacity: 0;"/>
<path d="M 485.40250000000003 485.40250000000003 L 480.20125000000013 484.00882926286766 L 478.8075792628677 489.21007926286757 L 484.00882926286766 490.60374999999993 Z" style="stroke:#5555E1; stroke-opacity: 1;fill:#C860FF; fill-opacity: 0;"/>
<path d="M 478.8075792628677 489.21007926286757 L 475.00000000000006 485.4024999999999 L 471.1924207371324 489.21007926286757 L 475.00000000000006 493.0176585257352 Z" style="stroke:#5555E1; stroke-opacity: 1;fill:#C860FF; fill-opacity: 0;"/>
<path d="M 471.1924207371324 489.21007926286757 L 469.7987499999999 484.0088292628675 L 464.59749999999985 485.4025 L 465.9911707371323 490.60375 Z" style="stroke:#5555E1; stroke-opacity: 1;fill:#C860FF; fill-opacity: 0;"/>
</g>
</svg>