<?xml version="1.0"?><!DOCTYPE svg PUBLIC "-//W3C//DTD SVG 1.1//EN" "http://www.w3.org/Graphics/SVG/1.1/DTD/svg11.dtd"><svg xmlns="http://www.w3.org/2000/svg" width="950" height="950">
<title>PatternSeventeen</title>
<desc>
Generated using the following configuration:

@implementation NewPattern : PatternSeventeen
+ (CPDict) defaultConfig
{
 return [CPDictionary dictionaryWithObjectsAndKeys:[[GRColor alloc] initWithGradientColors:[] baseColor:[CPColor colorWith8BitRed:31 green:255 blue:7 alpha:1]], "background_color", 0, "background_color_direction", 40, "number_of_points", 220, "rotation", 0, "recurse_depth", 1.26, "factor_larger", [GRPoint pointWithX:475 Y:475], "center_point", 149, "radius", YES, "show_shapes", [[CPColor colorWith8BitRed:0 green:255 blue:100 alpha:1],[CPColor colorWith8BitRed:0 green:0 blue:0 alpha:0.33636363636363636],[CPColor colorWith8BitRed:0 green:0 blue:0 alpha:0.3],[CPColor colorWith8BitRed:0 green:0 blue:0 alpha:0.3],[CPColor colorWith8BitRed:255 green:2 blue:10 alpha:1],[CPColor colorWith8BitRed:255 green:23 blue:10 alpha:1]], "stroke_colors", [[CPColor colorWith8BitRed:51 green:32 blue:255 alpha:0.5363636363636364],[CPColor colorWith8BitRed:255 green:255 blue:0 alpha:0.16363636363636364],[CPColor colorWith8BitRed:255 green:255 blue:0 alpha:0.16363636363636364],[CPColor colorWith8BitRed:200 green:96 blue:175 alpha:0.6454545454545455],[CPColor colorWith8BitRed:23 green:200 blue:10 alpha:0],[CPColor colorWith8BitRed:200 green:23 blue:10 alpha:0]], "fill_colors"];
}
@end

</desc>
  <defs>
    <linearGradient id="grad1" x1="0%" y1="0%" x2="100%" y2="0%">
<stop offset="100%" style="stop-color:#1FFF07;stop-opacity:1;" />
    </linearGradient>
  </defs>
<rect id="background" width="100%" height="100%" fill="url(#grad1)"/>
<g id="rotatelayer" transform="rotate(220, 475, 475)">
<path d="M 624 474.99999999999994 Z" style="stroke:#00FF64; stroke-opacity: 1;fill:#3320FF; fill-opacity: 0.5363636363636364;"/>
<circle cx="475" cy="475" r="149" style="stroke:#00FF64; stroke-opacity: 1;fill:#3320FF; fill-opacity: 0.5363636363636364;"/>
<path d="M 811.74 474.9999999999999 Z" style="stroke:#000000; stroke-opacity: 0.3;fill:#FFFF00; fill-opacity: 0.16363636363636364;"/>
<circle cx="662.74" cy="474.99999999999994" r="149" style="stroke:#000000; stroke-opacity: 0.3;fill:#FFFF00; fill-opacity: 0.16363636363636364;"/>
<path d="M 809.4286090633311 445.63099353334695 Z" style="stroke:#000000; stroke-opacity: 0.33636363636363636;fill:#FFFF00; fill-opacity: 0.16363636363636364;"/>
<circle cx="660.4286090633311" cy="445.630993533347" r="149" style="stroke:#000000; stroke-opacity: 0.33636363636363636;fill:#FFFF00; fill-opacity: 0.16363636363636364;"/>
<path d="M 802.5513503692521 416.9851494760473 Z" style="stroke:#000000; stroke-opacity: 0.3;fill:#FFFF00; fill-opacity: 0.16363636363636364;"/>
<circle cx="653.5513503692521" cy="416.98514947604735" r="149" style="stroke:#000000; stroke-opacity: 0.3;fill:#FFFF00; fill-opacity: 0.16363636363636364;"/>
<path d="M 791.2775648511242 389.76782357889743 Z" style="stroke:#000000; stroke-opacity: 0.33636363636363636;fill:#FFFF00; fill-opacity: 0.16363636363636364;"/>
<circle cx="642.2775648511242" cy="389.7678235788975" r="149" style="stroke:#000000; stroke-opacity: 0.33636363636363636;fill:#FFFF00; fill-opacity: 0.16363636363636364;"/>
<path d="M 775.8848505239525 364.649196734611 Z" style="stroke:#000000; stroke-opacity: 0.3;fill:#FFFF00; fill-opacity: 0.16363636363636364;"/>
<circle cx="626.8848505239525" cy="364.64919673461105" r="149" style="stroke:#000000; stroke-opacity: 0.3;fill:#FFFF00; fill-opacity: 0.16363636363636364;"/>
<path d="M 756.7522270999624 342.24777290003743 Z" style="stroke:#000000; stroke-opacity: 0.33636363636363636;fill:#FFFF00; fill-opacity: 0.16363636363636364;"/>
<circle cx="607.7522270999624" cy="342.2477729000375" r="149" style="stroke:#000000; stroke-opacity: 0.33636363636363636;fill:#FFFF00; fill-opacity: 0.16363636363636364;"/>
<path d="M 734.3508032653889 323.1151494760473 Z" style="stroke:#000000; stroke-opacity: 0.3;fill:#FFFF00; fill-opacity: 0.16363636363636364;"/>
<circle cx="585.3508032653889" cy="323.11514947604735" r="149" style="stroke:#000000; stroke-opacity: 0.3;fill:#FFFF00; fill-opacity: 0.16363636363636364;"/>
<path d="M 709.2321764211025 307.7224351488757 Z" style="stroke:#000000; stroke-opacity: 0.33636363636363636;fill:#FFFF00; fill-opacity: 0.16363636363636364;"/>
<circle cx="560.2321764211025" cy="307.7224351488758" r="149" style="stroke:#000000; stroke-opacity: 0.33636363636363636;fill:#FFFF00; fill-opacity: 0.16363636363636364;"/>
<path d="M 682.0148505239525 296.44864963074787 Z" style="stroke:#000000; stroke-opacity: 0.3;fill:#FFFF00; fill-opacity: 0.16363636363636364;"/>
<circle cx="533.0148505239525" cy="296.4486496307479" r="149" style="stroke:#000000; stroke-opacity: 0.3;fill:#FFFF00; fill-opacity: 0.16363636363636364;"/>
<path d="M 653.369006466653 289.57139093666876 Z" style="stroke:#000000; stroke-opacity: 0.33636363636363636;fill:#FFFF00; fill-opacity: 0.16363636363636364;"/>
<circle cx="504.36900646665293" cy="289.5713909366688" r="149" style="stroke:#000000; stroke-opacity: 0.33636363636363636;fill:#FFFF00; fill-opacity: 0.16363636363636364;"/>
<path d="M 624 287.25999999999993 Z" style="stroke:#000000; stroke-opacity: 0.3;fill:#FFFF00; fill-opacity: 0.16363636363636364;"/>
<circle cx="475" cy="287.26" r="149" style="stroke:#000000; stroke-opacity: 0.3;fill:#FFFF00; fill-opacity: 0.16363636363636364;"/>
<path d="M 594.630993533347 289.5713909366688 Z" style="stroke:#000000; stroke-opacity: 0.33636363636363636;fill:#FFFF00; fill-opacity: 0.16363636363636364;"/>
<circle cx="445.630993533347" cy="289.5713909366689" r="149" style="stroke:#000000; stroke-opacity: 0.33636363636363636;fill:#FFFF00; fill-opacity: 0.16363636363636364;"/>
<path d="M 565.9851494760474 296.44864963074787 Z" style="stroke:#000000; stroke-opacity: 0.3;fill:#FFFF00; fill-opacity: 0.16363636363636364;"/>
<circle cx="416.98514947604735" cy="296.4486496307479" r="149" style="stroke:#000000; stroke-opacity: 0.3;fill:#FFFF00; fill-opacity: 0.16363636363636364;"/>
<path d="M 538.7678235788975 307.7224351488757 Z" style="stroke:#000000; stroke-opacity: 0.33636363636363636;fill:#FFFF00; fill-opacity: 0.16363636363636364;"/>
<circle cx="389.7678235788975" cy="307.7224351488758" r="149" style="stroke:#000000; stroke-opacity: 0.33636363636363636;fill:#FFFF00; fill-opacity: 0.16363636363636364;"/>
<path d="M 513.649196734611 323.1151494760474 Z" style="stroke:#000000; stroke-opacity: 0.3;fill:#FFFF00; fill-opacity: 0.16363636363636364;"/>
<circle cx="364.64919673461105" cy="323.11514947604746" r="149" style="stroke:#000000; stroke-opacity: 0.3;fill:#FFFF00; fill-opacity: 0.16363636363636364;"/>
<path d="M 491.2477729000375 342.24777290003755 Z" style="stroke:#000000; stroke-opacity: 0.33636363636363636;fill:#FFFF00; fill-opacity: 0.16363636363636364;"/>
<circle cx="342.2477729000375" cy="342.2477729000376" r="149" style="stroke:#000000; stroke-opacity: 0.33636363636363636;fill:#FFFF00; fill-opacity: 0.16363636363636364;"/>
<path d="M 472.11514947604735 364.64919673461105 Z" style="stroke:#000000; stroke-opacity: 0.3;fill:#FFFF00; fill-opacity: 0.16363636363636364;"/>
<circle cx="323.11514947604735" cy="364.6491967346111" r="149" style="stroke:#000000; stroke-opacity: 0.3;fill:#FFFF00; fill-opacity: 0.16363636363636364;"/>
<path d="M 456.7224351488758 389.7678235788975 Z" style="stroke:#000000; stroke-opacity: 0.33636363636363636;fill:#FFFF00; fill-opacity: 0.16363636363636364;"/>
<circle cx="307.7224351488758" cy="389.76782357889755" r="149" style="stroke:#000000; stroke-opacity: 0.33636363636363636;fill:#FFFF00; fill-opacity: 0.16363636363636364;"/>
<path d="M 445.4486496307479 416.98514947604735 Z" style="stroke:#000000; stroke-opacity: 0.3;fill:#FFFF00; fill-opacity: 0.16363636363636364;"/>
<circle cx="296.4486496307479" cy="416.9851494760474" r="149" style="stroke:#000000; stroke-opacity: 0.3;fill:#FFFF00; fill-opacity: 0.16363636363636364;"/>
<path d="M 438.5713909366688 445.630993533347 Z" style="stroke:#000000; stroke-opacity: 0.33636363636363636;fill:#FFFF00; fill-opacity: 0.16363636363636364;"/>
<circle cx="289.5713909366688" cy="445.63099353334707" r="149" style="stroke:#000000; stroke-opacity: 0.33636363636363636;fill:#FFFF00; fill-opacity: 0.16363636363636364;"/>
<path d="M 436.26 474.99999999999994 Z" style="stroke:#000000; stroke-opacity: 0.3;fill:#FFFF00; fill-opacity: 0.16363636363636364;"/>
<circle cx="287.26" cy="475" r="149" style="stroke:#000000; stroke-opacity: 0.3;fill:#FFFF00; fill-opacity: 0.16363636363636364;"/>
<path d="M 438.5713909366689 504.36900646665293 Z" style="stroke:#000000; stroke-opacity: 0.33636363636363636;fill:#FFFF00; fill-opacity: 0.16363636363636364;"/>
<circle cx="289.5713909366689" cy="504.369006466653" r="149" style="stroke:#000000; stroke-opacity: 0.33636363636363636;fill:#FFFF00; fill-opacity: 0.16363636363636364;"/>
<path d="M 445.4486496307479 533.0148505239528 Z" style="stroke:#000000; stroke-opacity: 0.3;fill:#FFFF00; fill-opacity: 0.16363636363636364;"/>
<circle cx="296.4486496307479" cy="533.0148505239528" r="149" style="stroke:#000000; stroke-opacity: 0.3;fill:#FFFF00; fill-opacity: 0.16363636363636364;"/>
<path d="M 456.7224351488758 560.2321764211025 Z" style="stroke:#000000; stroke-opacity: 0.33636363636363636;fill:#FFFF00; fill-opacity: 0.16363636363636364;"/>
<circle cx="307.7224351488758" cy="560.2321764211025" r="149" style="stroke:#000000; stroke-opacity: 0.33636363636363636;fill:#FFFF00; fill-opacity: 0.16363636363636364;"/>
<path d="M 472.11514947604746 585.3508032653889 Z" style="stroke:#000000; stroke-opacity: 0.3;fill:#FFFF00; fill-opacity: 0.16363636363636364;"/>
<circle cx="323.11514947604746" cy="585.3508032653889" r="149" style="stroke:#000000; stroke-opacity: 0.3;fill:#FFFF00; fill-opacity: 0.16363636363636364;"/>
<path d="M 491.2477729000376 607.7522270999625 Z" style="stroke:#000000; stroke-opacity: 0.33636363636363636;fill:#FFFF00; fill-opacity: 0.16363636363636364;"/>
<circle cx="342.2477729000376" cy="607.7522270999625" r="149" style="stroke:#000000; stroke-opacity: 0.33636363636363636;fill:#FFFF00; fill-opacity: 0.16363636363636364;"/>
<path d="M 513.6491967346111 626.8848505239528 Z" style="stroke:#000000; stroke-opacity: 0.3;fill:#FFFF00; fill-opacity: 0.16363636363636364;"/>
<circle cx="364.6491967346111" cy="626.8848505239528" r="149" style="stroke:#000000; stroke-opacity: 0.3;fill:#FFFF00; fill-opacity: 0.16363636363636364;"/>
<path d="M 538.7678235788975 642.2775648511242 Z" style="stroke:#000000; stroke-opacity: 0.33636363636363636;fill:#FFFF00; fill-opacity: 0.16363636363636364;"/>
<circle cx="389.7678235788975" cy="642.2775648511242" r="149" style="stroke:#000000; stroke-opacity: 0.33636363636363636;fill:#FFFF00; fill-opacity: 0.16363636363636364;"/>
<path d="M 565.9851494760474 653.5513503692521 Z" style="stroke:#000000; stroke-opacity: 0.3;fill:#FFFF00; fill-opacity: 0.16363636363636364;"/>
<circle cx="416.98514947604735" cy="653.5513503692521" r="149" style="stroke:#000000; stroke-opacity: 0.3;fill:#FFFF00; fill-opacity: 0.16363636363636364;"/>
<path d="M 594.630993533347 660.4286090633311 Z" style="stroke:#000000; stroke-opacity: 0.33636363636363636;fill:#FFFF00; fill-opacity: 0.16363636363636364;"/>
<circle cx="445.63099353334707" cy="660.4286090633311" r="149" style="stroke:#000000; stroke-opacity: 0.33636363636363636;fill:#FFFF00; fill-opacity: 0.16363636363636364;"/>
<path d="M 624 662.74 Z" style="stroke:#000000; stroke-opacity: 0.3;fill:#FFFF00; fill-opacity: 0.16363636363636364;"/>
<circle cx="475" cy="662.74" r="149" style="stroke:#000000; stroke-opacity: 0.3;fill:#FFFF00; fill-opacity: 0.16363636363636364;"/>
<path d="M 653.369006466653 660.4286090633311 Z" style="stroke:#000000; stroke-opacity: 0.33636363636363636;fill:#FFFF00; fill-opacity: 0.16363636363636364;"/>
<circle cx="504.369006466653" cy="660.4286090633311" r="149" style="stroke:#000000; stroke-opacity: 0.33636363636363636;fill:#FFFF00; fill-opacity: 0.16363636363636364;"/>
<path d="M 682.0148505239525 653.5513503692521 Z" style="stroke:#000000; stroke-opacity: 0.3;fill:#FFFF00; fill-opacity: 0.16363636363636364;"/>
<circle cx="533.0148505239525" cy="653.5513503692521" r="149" style="stroke:#000000; stroke-opacity: 0.3;fill:#FFFF00; fill-opacity: 0.16363636363636364;"/>
<path d="M 709.2321764211025 642.2775648511242 Z" style="stroke:#000000; stroke-opacity: 0.33636363636363636;fill:#FFFF00; fill-opacity: 0.16363636363636364;"/>
<circle cx="560.2321764211025" cy="642.2775648511242" r="149" style="stroke:#000000; stroke-opacity: 0.33636363636363636;fill:#FFFF00; fill-opacity: 0.16363636363636364;"/>
<path d="M 734.3508032653889 626.8848505239525 Z" style="stroke:#000000; stroke-opacity: 0.3;fill:#FFFF00; fill-opacity: 0.16363636363636364;"/>
<circle cx="585.3508032653889" cy="626.8848505239525" r="149" style="stroke:#000000; stroke-opacity: 0.3;fill:#FFFF00; fill-opacity: 0.16363636363636364;"/>
<path d="M 756.7522270999625 607.7522270999624 Z" style="stroke:#000000; stroke-opacity: 0.33636363636363636;fill:#FFFF00; fill-opacity: 0.16363636363636364;"/>
<circle cx="607.7522270999625" cy="607.7522270999624" r="149" style="stroke:#000000; stroke-opacity: 0.33636363636363636;fill:#FFFF00; fill-opacity: 0.16363636363636364;"/>
<path d="M 775.8848505239528 585.3508032653889 Z" style="stroke:#000000; stroke-opacity: 0.3;fill:#FFFF00; fill-opacity: 0.16363636363636364;"/>
<circle cx="626.8848505239528" cy="585.3508032653889" r="149" style="stroke:#000000; stroke-opacity: 0.3;fill:#FFFF00; fill-opacity: 0.16363636363636364;"/>
<path d="M 791.2775648511242 560.2321764211025 Z" style="stroke:#000000; stroke-opacity: 0.33636363636363636;fill:#FFFF00; fill-opacity: 0.16363636363636364;"/>
<circle cx="642.2775648511242" cy="560.2321764211025" r="149" style="stroke:#000000; stroke-opacity: 0.33636363636363636;fill:#FFFF00; fill-opacity: 0.16363636363636364;"/>
<path d="M 802.5513503692521 533.0148505239525 Z" style="stroke:#000000; stroke-opacity: 0.3;fill:#FFFF00; fill-opacity: 0.16363636363636364;"/>
<circle cx="653.5513503692521" cy="533.0148505239525" r="149" style="stroke:#000000; stroke-opacity: 0.3;fill:#FFFF00; fill-opacity: 0.16363636363636364;"/>
<path d="M 809.4286090633311 504.3690064666529 Z" style="stroke:#000000; stroke-opacity: 0.33636363636363636;fill:#FFFF00; fill-opacity: 0.16363636363636364;"/>
<circle cx="660.4286090633311" cy="504.36900646665293" r="149" style="stroke:#000000; stroke-opacity: 0.33636363636363636;fill:#FFFF00; fill-opacity: 0.16363636363636364;"/>
<path d="M 660.4286090633311 504.36900646665293 L 642.6670576876418 515.2532991482632 L 653.5513503692521 533.0148505239525 L 671.3129017449414 522.1305578423422 Z" style="stroke:#000000; stroke-opacity: 0.3;fill:#C860AF; fill-opacity: 0.6454545454545455;"/>
<path d="M 653.5513503692521 533.0148505239525 L 634.3057946616132 540.9866207134636 L 642.2775648511242 560.2321764211025 L 661.5231205587631 552.2604062315914 Z" style="stroke:#000000; stroke-opacity: 0.3;fill:#C860AF; fill-opacity: 0.6454545454545455;"/>
<path d="M 642.2775648511242 560.2321764211025 L 622.0218942653953 565.09513267966 L 626.8848505239528 585.3508032653889 L 647.1405211096817 580.4878470068314 Z" style="stroke:#000000; stroke-opacity: 0.3;fill:#C860AF; fill-opacity: 0.6454545454545455;"/>
<path d="M 626.8848505239528 585.3508032653889 L 606.1178268946709 586.9852034706805 L 607.7522270999625 607.7522270999624 L 628.5192507292444 606.1178268946708 Z" style="stroke:#000000; stroke-opacity: 0.3;fill:#C860AF; fill-opacity: 0.6454545454545455;"/>
<path d="M 607.7522270999625 607.7522270999624 L 586.9852034706807 606.1178268946708 L 585.3508032653889 626.8848505239525 L 606.1178268946708 628.5192507292443 Z" style="stroke:#000000; stroke-opacity: 0.3;fill:#C860AF; fill-opacity: 0.6454545454545455;"/>
<path d="M 585.3508032653889 626.8848505239525 L 565.0951326796599 622.0218942653952 L 560.2321764211025 642.2775648511242 L 580.4878470068315 647.1405211096816 Z" style="stroke:#000000; stroke-opacity: 0.3;fill:#C860AF; fill-opacity: 0.6454545454545455;"/>
<path d="M 560.2321764211025 642.2775648511242 L 540.9866207134636 634.3057946616132 L 533.0148505239525 653.5513503692521 L 552.2604062315914 661.5231205587631 Z" style="stroke:#000000; stroke-opacity: 0.3;fill:#C860AF; fill-opacity: 0.6454545454545455;"/>
<path d="M 533.0148505239525 653.5513503692521 L 515.2532991482633 642.6670576876419 L 504.369006466653 660.4286090633311 L 522.1305578423423 671.3129017449413 Z" style="stroke:#000000; stroke-opacity: 0.3;fill:#C860AF; fill-opacity: 0.6454545454545455;"/>
<path d="M 504.369006466653 660.4286090633311 L 488.52880776499205 646.8998012983391 L 475 662.74 L 490.84019870166094 676.2688077649921 Z" style="stroke:#000000; stroke-opacity: 0.3;fill:#C860AF; fill-opacity: 0.6454545454545455;"/>
<path d="M 475 662.74 L 461.47119223500795 646.8998012983391 L 445.63099353334707 660.4286090633311 L 459.15980129833906 676.2688077649921 Z" style="stroke:#000000; stroke-opacity: 0.3;fill:#C860AF; fill-opacity: 0.6454545454545455;"/>
<path d="M 445.63099353334707 660.4286090633311 L 434.7467008517367 642.6670576876418 L 416.98514947604735 653.5513503692521 L 427.86944215765766 671.3129017449414 Z" style="stroke:#000000; stroke-opacity: 0.3;fill:#C860AF; fill-opacity: 0.6454545454545455;"/>
<path d="M 416.98514947604735 653.5513503692521 L 409.01337928653635 634.3057946616132 L 389.7678235788975 642.2775648511242 L 397.7395937684085 661.5231205587631 Z" style="stroke:#000000; stroke-opacity: 0.3;fill:#C860AF; fill-opacity: 0.6454545454545455;"/>
<path d="M 389.7678235788975 642.2775648511242 L 384.90486732034003 622.0218942653953 L 364.6491967346111 626.8848505239528 L 369.51215299316857 647.1405211096817 Z" style="stroke:#000000; stroke-opacity: 0.3;fill:#C860AF; fill-opacity: 0.6454545454545455;"/>
<path d="M 364.6491967346111 626.8848505239528 L 363.0147965293195 606.1178268946709 L 342.2477729000376 607.7522270999625 L 343.88217310532923 628.5192507292444 Z" style="stroke:#000000; stroke-opacity: 0.3;fill:#C860AF; fill-opacity: 0.6454545454545455;"/>
<path d="M 342.2477729000376 607.7522270999625 L 343.88217310532934 586.9852034706807 L 323.11514947604746 585.3508032653889 L 321.4807492707557 606.1178268946708 Z" style="stroke:#000000; stroke-opacity: 0.3;fill:#C860AF; fill-opacity: 0.6454545454545455;"/>
<path d="M 323.11514947604746 585.3508032653889 L 327.9781057346048 565.0951326796599 L 307.7224351488758 560.2321764211025 L 302.8594788903184 580.4878470068315 Z" style="stroke:#000000; stroke-opacity: 0.3;fill:#C860AF; fill-opacity: 0.6454545454545455;"/>
<path d="M 307.7224351488758 560.2321764211025 L 315.6942053383867 540.9866207134637 L 296.4486496307479 533.0148505239528 L 288.476879441237 552.2604062315916 Z" style="stroke:#000000; stroke-opacity: 0.3;fill:#C860AF; fill-opacity: 0.6454545454545455;"/>
<path d="M 296.4486496307479 533.0148505239528 L 307.3329423123583 515.2532991482633 L 289.5713909366689 504.369006466653 L 278.6870982550585 522.1305578423423 Z" style="stroke:#000000; stroke-opacity: 0.3;fill:#C860AF; fill-opacity: 0.6454545454545455;"/>
<path d="M 289.5713909366689 504.369006466653 L 303.10019870166093 488.52880776499205 L 287.26 475 L 273.73119223500794 490.84019870166094 Z" style="stroke:#000000; stroke-opacity: 0.3;fill:#C860AF; fill-opacity: 0.6454545454545455;"/>
<path d="M 287.26 475 L 303.10019870166093 461.47119223500795 L 289.5713909366688 445.63099353334707 L 273.73119223500794 459.15980129833906 Z" style="stroke:#000000; stroke-opacity: 0.3;fill:#C860AF; fill-opacity: 0.6454545454545455;"/>
<path d="M 289.5713909366688 445.63099353334707 L 307.33294231235817 434.7467008517368 L 296.4486496307479 416.9851494760474 L 278.6870982550585 427.86944215765766 Z" style="stroke:#000000; stroke-opacity: 0.3;fill:#C860AF; fill-opacity: 0.6454545454545455;"/>
<path d="M 296.4486496307479 416.9851494760474 L 315.6942053383868 409.0133792865364 L 307.7224351488758 389.76782357889755 L 288.4768794412369 397.73959376840855 Z" style="stroke:#000000; stroke-opacity: 0.3;fill:#C860AF; fill-opacity: 0.6454545454545455;"/>
<path d="M 307.7224351488758 389.76782357889755 L 327.9781057346048 384.90486732034014 L 323.11514947604735 364.6491967346111 L 302.8594788903183 369.51215299316857 Z" style="stroke:#000000; stroke-opacity: 0.3;fill:#C860AF; fill-opacity: 0.6454545454545455;"/>
<path d="M 323.11514947604735 364.6491967346111 L 343.8821731053292 363.0147965293194 L 342.2477729000375 342.2477729000376 L 321.48074927075567 343.8821731053293 Z" style="stroke:#000000; stroke-opacity: 0.3;fill:#C860AF; fill-opacity: 0.6454545454545455;"/>
<path d="M 342.2477729000375 342.2477729000376 L 363.01479652931937 343.88217310532934 L 364.64919673461105 323.11514947604746 L 343.88217310532923 321.4807492707557 Z" style="stroke:#000000; stroke-opacity: 0.3;fill:#C860AF; fill-opacity: 0.6454545454545455;"/>
<path d="M 364.64919673461105 323.11514947604746 L 384.90486732034014 327.9781057346048 L 389.7678235788975 307.7224351488758 L 369.51215299316846 302.8594788903184 Z" style="stroke:#000000; stroke-opacity: 0.3;fill:#C860AF; fill-opacity: 0.6454545454545455;"/>
<path d="M 389.7678235788975 307.7224351488758 L 409.01337928653635 315.6942053383868 L 416.98514947604735 296.4486496307479 L 397.7395937684085 288.4768794412369 Z" style="stroke:#000000; stroke-opacity: 0.3;fill:#C860AF; fill-opacity: 0.6454545454545455;"/>
<path d="M 416.98514947604735 296.4486496307479 L 434.7467008517367 307.3329423123582 L 445.630993533347 289.5713909366689 L 427.86944215765766 278.6870982550586 Z" style="stroke:#000000; stroke-opacity: 0.3;fill:#C860AF; fill-opacity: 0.6454545454545455;"/>
<path d="M 445.630993533347 289.5713909366689 L 461.47119223500795 303.10019870166093 L 475 287.26 L 459.15980129833906 273.73119223500794 Z" style="stroke:#000000; stroke-opacity: 0.3;fill:#C860AF; fill-opacity: 0.6454545454545455;"/>
<path d="M 475 287.26 L 488.52880776499205 303.10019870166093 L 504.36900646665293 289.5713909366688 L 490.84019870166094 273.73119223500794 Z" style="stroke:#000000; stroke-opacity: 0.3;fill:#C860AF; fill-opacity: 0.6454545454545455;"/>
<path d="M 504.36900646665293 289.5713909366688 L 515.2532991482632 307.3329423123582 L 533.0148505239525 296.4486496307479 L 522.1305578423422 278.6870982550586 Z" style="stroke:#000000; stroke-opacity: 0.3;fill:#C860AF; fill-opacity: 0.6454545454545455;"/>
<path d="M 533.0148505239525 296.4486496307479 L 540.9866207134636 315.69420533838684 L 560.2321764211025 307.7224351488758 L 552.2604062315914 288.47687944123686 Z" style="stroke:#000000; stroke-opacity: 0.3;fill:#C860AF; fill-opacity: 0.6454545454545455;"/>
<path d="M 560.2321764211025 307.7224351488758 L 565.0951326796599 327.97810573460475 L 585.3508032653889 323.11514947604735 L 580.4878470068315 302.85947889031837 Z" style="stroke:#000000; stroke-opacity: 0.3;fill:#C860AF; fill-opacity: 0.6454545454545455;"/>
<path d="M 585.3508032653889 323.11514947604735 L 586.9852034706806 343.8821731053292 L 607.7522270999624 342.2477729000375 L 606.1178268946707 321.48074927075567 Z" style="stroke:#000000; stroke-opacity: 0.3;fill:#C860AF; fill-opacity: 0.6454545454545455;"/>
<path d="M 607.7522270999624 342.2477729000375 L 606.1178268946708 363.01479652931937 L 626.8848505239525 364.64919673461105 L 628.5192507292443 343.88217310532923 Z" style="stroke:#000000; stroke-opacity: 0.3;fill:#C860AF; fill-opacity: 0.6454545454545455;"/>
<path d="M 626.8848505239525 364.64919673461105 L 622.0218942653952 384.90486732034014 L 642.2775648511242 389.7678235788975 L 647.1405211096816 369.51215299316846 Z" style="stroke:#000000; stroke-opacity: 0.3;fill:#C860AF; fill-opacity: 0.6454545454545455;"/>
<path d="M 642.2775648511242 389.7678235788975 L 634.3057946616132 409.01337928653635 L 653.5513503692521 416.98514947604735 L 661.5231205587631 397.7395937684085 Z" style="stroke:#000000; stroke-opacity: 0.3;fill:#C860AF; fill-opacity: 0.6454545454545455;"/>
<path d="M 653.5513503692521 416.98514947604735 L 642.6670576876418 434.7467008517367 L 660.4286090633311 445.630993533347 L 671.3129017449414 427.86944215765766 Z" style="stroke:#000000; stroke-opacity: 0.3;fill:#C860AF; fill-opacity: 0.6454545454545455;"/>
<path d="M 660.4286090633311 445.630993533347 L 646.8998012983391 461.47119223500795 L 662.74 474.99999999999994 L 676.2688077649921 459.15980129833906 Z" style="stroke:#000000; stroke-opacity: 0.3;fill:#C860AF; fill-opacity: 0.6454545454545455;"/>
<path d="M 662.74 474.99999999999994 L 646.8998012983391 488.528807764992 L 660.4286090633311 504.36900646665293 L 676.2688077649921 490.8401987016609 Z" style="stroke:#000000; stroke-opacity: 0.3;fill:#C860AF; fill-opacity: 0.6454545454545455;"/>
<path d="M 642.6670576876418 515.2532991482632 L 625.6197653920273 523.9393284178491 L 634.3057946616132 540.9866207134636 L 651.3530869572277 532.3005914438777 Z" style="stroke:#000014; stroke-opacity: 0.3;fill:#C860C3; fill-opacity: 0.6454545454545455;"/>
<path d="M 634.3057946616132 540.9866207134636 L 616.109588480406 546.8989264984529 L 622.0218942653953 565.09513267966 L 640.2181004466024 559.1828268946707 Z" style="stroke:#000014; stroke-opacity: 0.3;fill:#C860C3; fill-opacity: 0.6454545454545455;"/>
<path d="M 622.0218942653953 565.09513267966 L 603.1248251845228 568.088134389808 L 606.1178268946709 586.9852034706805 L 625.0148959755433 583.9922017605323 Z" style="stroke:#000014; stroke-opacity: 0.3;fill:#C860C3; fill-opacity: 0.6454545454545455;"/>
<path d="M 606.1178268946709 586.9852034706805 L 586.9852034706806 586.9852034706805 L 586.9852034706807 606.1178268946708 L 606.1178268946709 606.1178268946708 Z" style="stroke:#000014; stroke-opacity: 0.3;fill:#C860C3; fill-opacity: 0.6454545454545455;"/>
<path d="M 586.9852034706807 606.1178268946708 L 568.0881343898081 603.1248251845226 L 565.0951326796599 622.0218942653952 L 583.9922017605325 625.0148959755435 Z" style="stroke:#000014; stroke-opacity: 0.3;fill:#C860C3; fill-opacity: 0.6454545454545455;"/>
<path d="M 565.0951326796599 622.0218942653952 L 546.8989264984529 616.109588480406 L 540.9866207134636 634.3057946616132 L 559.1828268946707 640.2181004466022 Z" style="stroke:#000014; stroke-opacity: 0.3;fill:#C860C3; fill-opacity: 0.6454545454545455;"/>
<path d="M 540.9866207134636 634.3057946616132 L 523.9393284178491 625.6197653920273 L 515.2532991482633 642.6670576876419 L 532.3005914438779 651.3530869572277 Z" style="stroke:#000014; stroke-opacity: 0.3;fill:#C860C3; fill-opacity: 0.6454545454545455;"/>
<path d="M 515.2532991482633 642.6670576876419 L 499.7746816512791 631.4211838013549 L 488.52880776499205 646.8998012983391 L 504.00742526197627 658.1456751846262 Z" style="stroke:#000014; stroke-opacity: 0.3;fill:#C860C3; fill-opacity: 0.6454545454545455;"/>
<path d="M 488.52880776499205 646.8998012983391 L 475 633.370993533347 L 461.47119223500795 646.8998012983391 L 475 660.4286090633311 Z" style="stroke:#000014; stroke-opacity: 0.3;fill:#C860C3; fill-opacity: 0.6454545454545455;"/>
<path d="M 461.47119223500795 646.8998012983391 L 450.225318348721 631.4211838013548 L 434.7467008517367 642.6670576876418 L 445.9925747380237 658.145675184626 Z" style="stroke:#000014; stroke-opacity: 0.3;fill:#C860C3; fill-opacity: 0.6454545454545455;"/>
<path d="M 434.7467008517367 642.6670576876418 L 426.0606715821508 625.6197653920273 L 409.01337928653635 634.3057946616132 L 417.6994085561222 651.3530869572277 Z" style="stroke:#000014; stroke-opacity: 0.3;fill:#C860C3; fill-opacity: 0.6454545454545455;"/>
<path d="M 409.01337928653635 634.3057946616132 L 403.10107350154715 616.109588480406 L 384.90486732034003 622.0218942653953 L 390.8171731053293 640.2181004466024 Z" style="stroke:#000014; stroke-opacity: 0.3;fill:#C860C3; fill-opacity: 0.6454545454545455;"/>
<path d="M 384.90486732034003 622.0218942653953 L 381.91186561019197 603.1248251845228 L 363.0147965293195 606.1178268946709 L 366.00779823946755 625.0148959755433 Z" style="stroke:#000014; stroke-opacity: 0.3;fill:#C860C3; fill-opacity: 0.6454545454545455;"/>
<path d="M 363.0147965293195 606.1178268946709 L 363.0147965293195 586.9852034706807 L 343.88217310532934 586.9852034706807 L 343.88217310532934 606.1178268946708 Z" style="stroke:#000014; stroke-opacity: 0.3;fill:#C860C3; fill-opacity: 0.6454545454545455;"/>
<path d="M 343.88217310532934 586.9852034706807 L 346.8751748154775 568.088134389808 L 327.9781057346048 565.0951326796599 L 324.98510402445663 583.9922017605326 Z" style="stroke:#000014; stroke-opacity: 0.3;fill:#C860C3; fill-opacity: 0.6454545454545455;"/>
<path d="M 327.9781057346048 565.0951326796599 L 333.89041151959384 546.8989264984527 L 315.6942053383867 540.9866207134637 L 309.7818995533977 559.1828268946708 Z" style="stroke:#000014; stroke-opacity: 0.3;fill:#C860C3; fill-opacity: 0.6454545454545455;"/>
<path d="M 315.6942053383867 540.9866207134637 L 324.38023460797274 523.9393284178493 L 307.3329423123583 515.2532991482633 L 298.6469130427723 532.3005914438777 Z" style="stroke:#000014; stroke-opacity: 0.3;fill:#C860C3; fill-opacity: 0.6454545454545455;"/>
<path d="M 307.3329423123583 515.2532991482633 L 318.5788161986452 499.774681651279 L 303.10019870166093 488.52880776499205 L 291.85432481537396 504.0074252619763 Z" style="stroke:#000014; stroke-opacity: 0.3;fill:#C860C3; fill-opacity: 0.6454545454545455;"/>
<path d="M 303.10019870166093 488.52880776499205 L 316.629006466653 475 L 303.10019870166093 461.47119223500795 L 289.5713909366689 475 Z" style="stroke:#000014; stroke-opacity: 0.3;fill:#C860C3; fill-opacity: 0.6454545454545455;"/>
<path d="M 303.10019870166093 461.47119223500795 L 318.57881619864514 450.225318348721 L 307.33294231235817 434.7467008517368 L 291.854324815374 445.9925747380238 Z" style="stroke:#000014; stroke-opacity: 0.3;fill:#C860C3; fill-opacity: 0.6454545454545455;"/>
<path d="M 307.33294231235817 434.7467008517368 L 324.3802346079727 426.0606715821509 L 315.6942053383868 409.0133792865364 L 298.64691304277227 417.6994085561223 Z" style="stroke:#000014; stroke-opacity: 0.3;fill:#C860C3; fill-opacity: 0.6454545454545455;"/>
<path d="M 315.6942053383868 409.0133792865364 L 333.89041151959395 403.10107350154726 L 327.9781057346048 384.90486732034014 L 309.7818995533977 390.8171731053293 Z" style="stroke:#000014; stroke-opacity: 0.3;fill:#C860C3; fill-opacity: 0.6454545454545455;"/>
<path d="M 327.9781057346048 384.90486732034014 L 346.87517481547735 381.911865610192 L 343.8821731053292 363.0147965293194 L 324.9851040244566 366.0077982394676 Z" style="stroke:#000014; stroke-opacity: 0.3;fill:#C860C3; fill-opacity: 0.6454545454545455;"/>
<path d="M 343.8821731053292 363.0147965293194 L 363.01479652931926 363.0147965293194 L 363.01479652931937 343.88217310532934 L 343.88217310532923 343.8821731053293 Z" style="stroke:#000014; stroke-opacity: 0.3;fill:#C860C3; fill-opacity: 0.6454545454545455;"/>
<path d="M 363.01479652931937 343.88217310532934 L 381.911865610192 346.87517481547746 L 384.90486732034014 327.9781057346048 L 366.0077982394675 324.9851040244567 Z" style="stroke:#000014; stroke-opacity: 0.3;fill:#C860C3; fill-opacity: 0.6454545454545455;"/>
<path d="M 384.90486732034014 327.9781057346048 L 403.10107350154726 333.89041151959384 L 409.01337928653635 315.6942053383868 L 390.8171731053293 309.7818995533977 Z" style="stroke:#000014; stroke-opacity: 0.3;fill:#C860C3; fill-opacity: 0.6454545454545455;"/>
<path d="M 409.01337928653635 315.6942053383868 L 426.0606715821508 324.38023460797274 L 434.7467008517367 307.3329423123582 L 417.6994085561222 298.6469130427723 Z" style="stroke:#000014; stroke-opacity: 0.3;fill:#C860C3; fill-opacity: 0.6454545454545455;"/>
<path d="M 434.7467008517367 307.3329423123582 L 450.225318348721 318.5788161986452 L 461.47119223500795 303.10019870166093 L 445.9925747380237 291.85432481537396 Z" style="stroke:#000014; stroke-opacity: 0.3;fill:#C860C3; fill-opacity: 0.6454545454545455;"/>
<path d="M 461.47119223500795 303.10019870166093 L 475 316.629006466653 L 488.52880776499205 303.10019870166093 L 475 289.5713909366689 Z" style="stroke:#000014; stroke-opacity: 0.3;fill:#C860C3; fill-opacity: 0.6454545454545455;"/>
<path d="M 488.52880776499205 303.10019870166093 L 499.77468165127897 318.57881619864514 L 515.2532991482632 307.3329423123582 L 504.00742526197627 291.854324815374 Z" style="stroke:#000014; stroke-opacity: 0.3;fill:#C860C3; fill-opacity: 0.6454545454545455;"/>
<path d="M 515.2532991482632 307.3329423123582 L 523.9393284178491 324.38023460797274 L 540.9866207134636 315.69420533838684 L 532.3005914438777 298.6469130427723 Z" style="stroke:#000014; stroke-opacity: 0.3;fill:#C860C3; fill-opacity: 0.6454545454545455;"/>
<path d="M 540.9866207134636 315.69420533838684 L 546.8989264984529 333.8904115195939 L 565.0951326796599 327.97810573460475 L 559.1828268946707 309.78189955339764 Z" style="stroke:#000014; stroke-opacity: 0.3;fill:#C860C3; fill-opacity: 0.6454545454545455;"/>
<path d="M 565.0951326796599 327.97810573460475 L 568.0881343898079 346.87517481547735 L 586.9852034706806 343.8821731053292 L 583.9922017605325 324.9851040244566 Z" style="stroke:#000014; stroke-opacity: 0.3;fill:#C860C3; fill-opacity: 0.6454545454545455;"/>
<path d="M 586.9852034706806 343.8821731053292 L 586.9852034706806 363.0147965293193 L 606.1178268946708 363.01479652931937 L 606.1178268946709 343.8821731053292 Z" style="stroke:#000014; stroke-opacity: 0.3;fill:#C860C3; fill-opacity: 0.6454545454545455;"/>
<path d="M 606.1178268946708 363.01479652931937 L 603.1248251845226 381.91186561019197 L 622.0218942653952 384.90486732034014 L 625.0148959755435 366.00779823946755 Z" style="stroke:#000014; stroke-opacity: 0.3;fill:#C860C3; fill-opacity: 0.6454545454545455;"/>
<path d="M 622.0218942653952 384.90486732034014 L 616.109588480406 403.10107350154726 L 634.3057946616132 409.01337928653635 L 640.2181004466022 390.8171731053293 Z" style="stroke:#000014; stroke-opacity: 0.3;fill:#C860C3; fill-opacity: 0.6454545454545455;"/>
<path d="M 634.3057946616132 409.01337928653635 L 625.6197653920273 426.0606715821508 L 642.6670576876418 434.7467008517367 L 651.3530869572277 417.6994085561222 Z" style="stroke:#000014; stroke-opacity: 0.3;fill:#C860C3; fill-opacity: 0.6454545454545455;"/>
<path d="M 642.6670576876418 434.7467008517367 L 631.4211838013548 450.225318348721 L 646.8998012983391 461.47119223500795 L 658.145675184626 445.9925747380237 Z" style="stroke:#000014; stroke-opacity: 0.3;fill:#C860C3; fill-opacity: 0.6454545454545455;"/>
<path d="M 646.8998012983391 461.47119223500795 L 633.370993533347 475 L 646.8998012983391 488.528807764992 L 660.4286090633311 475 Z" style="stroke:#000014; stroke-opacity: 0.3;fill:#C860C3; fill-opacity: 0.6454545454545455;"/>
<path d="M 646.8998012983391 488.528807764992 L 631.4211838013548 499.7746816512789 L 642.6670576876418 515.2532991482632 L 658.145675184626 504.0074252619762 Z" style="stroke:#000014; stroke-opacity: 0.3;fill:#C860C3; fill-opacity: 0.6454545454545455;"/>
<path d="M 625.6197653920273 523.9393284178491 L 609.3848778959148 530.6640390023404 L 616.109588480406 546.8989264984529 L 632.3444759765187 540.1742159139617 Z" style="stroke:#000028; stroke-opacity: 0.3;fill:#C860D7; fill-opacity: 0.6454545454545455;"/>
<path d="M 616.109588480406 546.8989264984529 L 599.0226028867869 551.0011487961888 L 603.1248251845228 568.088134389808 L 620.2118107781421 563.9859120920721 Z" style="stroke:#000028; stroke-opacity: 0.3;fill:#C860D7; fill-opacity: 0.6454545454545455;"/>
<path d="M 603.1248251845228 568.088134389808 L 585.6064797871654 569.4668580733232 L 586.9852034706806 586.9852034706805 L 604.503548868038 585.6064797871654 Z" style="stroke:#000028; stroke-opacity: 0.3;fill:#C860D7; fill-opacity: 0.6454545454545455;"/>
<path d="M 586.9852034706806 586.9852034706805 L 569.4668580733232 585.6064797871654 L 568.0881343898081 603.1248251845226 L 585.6064797871654 604.5035488680378 Z" style="stroke:#000028; stroke-opacity: 0.3;fill:#C860D7; fill-opacity: 0.6454545454545455;"/>
<path d="M 568.0881343898081 603.1248251845226 L 551.0011487961888 599.0226028867867 L 546.8989264984529 616.109588480406 L 563.9859120920721 620.2118107781419 Z" style="stroke:#000028; stroke-opacity: 0.3;fill:#C860D7; fill-opacity: 0.6454545454545455;"/>
<path d="M 546.8989264984529 616.109588480406 L 530.6640390023404 609.3848778959148 L 523.9393284178491 625.6197653920273 L 540.1742159139617 632.3444759765187 Z" style="stroke:#000028; stroke-opacity: 0.3;fill:#C860D7; fill-opacity: 0.6454545454545455;"/>
<path d="M 523.9393284178491 625.6197653920273 L 508.9562958299002 616.4381512134061 L 499.7746816512791 631.4211838013549 L 514.7577142392279 640.6027979799761 Z" style="stroke:#000028; stroke-opacity: 0.3;fill:#C860D7; fill-opacity: 0.6454545454545455;"/>
<path d="M 499.7746816512791 631.4211838013549 L 486.41243595964346 620.0087478417115 L 475 633.370993533347 L 488.36224569163556 644.7834294929905 Z" style="stroke:#000028; stroke-opacity: 0.3;fill:#C860D7; fill-opacity: 0.6454545454545455;"/>
<path d="M 475 633.370993533347 L 463.5875640403566 620.0087478417114 L 450.225318348721 631.4211838013548 L 461.6377543083644 644.7834294929904 Z" style="stroke:#000028; stroke-opacity: 0.3;fill:#C860D7; fill-opacity: 0.6454545454545455;"/>
<path d="M 450.225318348721 631.4211838013548 L 441.04370417009966 616.438151213406 L 426.0606715821508 625.6197653920273 L 435.2422857607721 640.602797979976 Z" style="stroke:#000028; stroke-opacity: 0.3;fill:#C860D7; fill-opacity: 0.6454545454545455;"/>
<path d="M 426.0606715821508 625.6197653920273 L 419.3359609976596 609.3848778959148 L 403.10107350154715 616.109588480406 L 409.82578408603837 632.3444759765184 Z" style="stroke:#000028; stroke-opacity: 0.3;fill:#C860D7; fill-opacity: 0.6454545454545455;"/>
<path d="M 403.10107350154715 616.109588480406 L 398.99885120381117 599.0226028867869 L 381.91186561019197 603.1248251845228 L 386.01408790792794 620.2118107781421 Z" style="stroke:#000028; stroke-opacity: 0.3;fill:#C860D7; fill-opacity: 0.6454545454545455;"/>
<path d="M 381.91186561019197 603.1248251845228 L 380.53314192667676 585.6064797871657 L 363.0147965293195 586.9852034706807 L 364.3935202128347 604.503548868038 Z" style="stroke:#000028; stroke-opacity: 0.3;fill:#C860D7; fill-opacity: 0.6454545454545455;"/>
<path d="M 363.0147965293195 586.9852034706807 L 364.39352021283486 569.4668580733234 L 346.8751748154775 568.088134389808 L 345.49645113196215 585.6064797871653 Z" style="stroke:#000028; stroke-opacity: 0.3;fill:#C860D7; fill-opacity: 0.6454545454545455;"/>
<path d="M 346.8751748154775 568.088134389808 L 350.9773971132133 551.0011487961885 L 333.89041151959384 546.8989264984527 L 329.78818922185803 563.9859120920723 Z" style="stroke:#000028; stroke-opacity: 0.3;fill:#C860D7; fill-opacity: 0.6454545454545455;"/>
<path d="M 333.89041151959384 546.8989264984527 L 340.615122104085 530.6640390023405 L 324.38023460797274 523.9393284178493 L 317.6555240234816 540.1742159139616 Z" style="stroke:#000028; stroke-opacity: 0.3;fill:#C860D7; fill-opacity: 0.6454545454545455;"/>
<path d="M 324.38023460797274 523.9393284178493 L 333.5618487865941 508.9562958299004 L 318.5788161986452 499.774681651279 L 309.3972020200238 514.7577142392279 Z" style="stroke:#000028; stroke-opacity: 0.3;fill:#C860D7; fill-opacity: 0.6454545454545455;"/>
<path d="M 318.5788161986452 499.774681651279 L 329.9912521582886 486.4124359596434 L 316.629006466653 475 L 305.2165705070096 488.3622456916356 Z" style="stroke:#000028; stroke-opacity: 0.3;fill:#C860D7; fill-opacity: 0.6454545454545455;"/>
<path d="M 316.629006466653 475 L 329.9912521582886 463.5875640403566 L 318.57881619864514 450.225318348721 L 305.2165705070096 461.6377543083644 Z" style="stroke:#000028; stroke-opacity: 0.3;fill:#C860D7; fill-opacity: 0.6454545454545455;"/>
<path d="M 318.57881619864514 450.225318348721 L 333.56184878659394 441.0437041700997 L 324.3802346079727 426.0606715821509 L 309.3972020200239 435.2422857607722 Z" style="stroke:#000028; stroke-opacity: 0.3;fill:#C860D7; fill-opacity: 0.6454545454545455;"/>
<path d="M 324.3802346079727 426.0606715821509 L 340.6151221040851 419.3359609976597 L 333.89041151959395 403.10107350154726 L 317.65552402348146 409.8257840860385 Z" style="stroke:#000028; stroke-opacity: 0.3;fill:#C860D7; fill-opacity: 0.6454545454545455;"/>
<path d="M 333.89041151959395 403.10107350154726 L 350.9773971132132 398.99885120381134 L 346.87517481547735 381.911865610192 L 329.78818922185803 386.014087907928 Z" style="stroke:#000028; stroke-opacity: 0.3;fill:#C860D7; fill-opacity: 0.6454545454545455;"/>
<path d="M 346.87517481547735 381.911865610192 L 364.3935202128346 380.53314192667665 L 363.01479652931926 363.0147965293194 L 345.496451131962 364.3935202128348 Z" style="stroke:#000028; stroke-opacity: 0.3;fill:#C860D7; fill-opacity: 0.6454545454545455;"/>
<path d="M 363.01479652931926 363.0147965293194 L 380.53314192667665 364.39352021283486 L 381.911865610192 346.87517481547746 L 364.3935202128347 345.49645113196203 Z" style="stroke:#000028; stroke-opacity: 0.3;fill:#C860D7; fill-opacity: 0.6454545454545455;"/>
<path d="M 381.911865610192 346.87517481547746 L 398.99885120381145 350.97739711321327 L 403.10107350154726 333.89041151959384 L 386.0140879079278 329.788189221858 Z" style="stroke:#000028; stroke-opacity: 0.3;fill:#C860D7; fill-opacity: 0.6454545454545455;"/>
<path d="M 403.10107350154726 333.89041151959384 L 419.3359609976596 340.61512210408506 L 426.0606715821508 324.38023460797274 L 409.8257840860385 317.6555240234815 Z" style="stroke:#000028; stroke-opacity: 0.3;fill:#C860D7; fill-opacity: 0.6454545454545455;"/>
<path d="M 426.0606715821508 324.38023460797274 L 441.04370417009966 333.56184878659406 L 450.225318348721 318.5788161986452 L 435.2422857607721 309.3972020200239 Z" style="stroke:#000028; stroke-opacity: 0.3;fill:#C860D7; fill-opacity: 0.6454545454545455;"/>
<path d="M 450.225318348721 318.5788161986452 L 463.5875640403566 329.9912521582886 L 475 316.629006466653 L 461.6377543083644 305.2165705070096 Z" style="stroke:#000028; stroke-opacity: 0.3;fill:#C860D7; fill-opacity: 0.6454545454545455;"/>
<path d="M 475 316.629006466653 L 486.41243595964335 329.99125215828855 L 499.77468165127897 318.57881619864514 L 488.36224569163556 305.2165705070095 Z" style="stroke:#000028; stroke-opacity: 0.3;fill:#C860D7; fill-opacity: 0.6454545454545455;"/>
<path d="M 499.77468165127897 318.57881619864514 L 508.9562958299003 333.56184878659394 L 523.9393284178491 324.38023460797274 L 514.7577142392279 309.3972020200239 Z" style="stroke:#000028; stroke-opacity: 0.3;fill:#C860D7; fill-opacity: 0.6454545454545455;"/>
<path d="M 523.9393284178491 324.38023460797274 L 530.6640390023405 340.6151221040852 L 546.8989264984529 333.8904115195939 L 540.1742159139616 317.6555240234814 Z" style="stroke:#000028; stroke-opacity: 0.3;fill:#C860D7; fill-opacity: 0.6454545454545455;"/>
<path d="M 546.8989264984529 333.8904115195939 L 551.0011487961885 350.97739711321316 L 568.0881343898079 346.87517481547735 L 563.9859120920721 329.7881892218581 Z" style="stroke:#000028; stroke-opacity: 0.3;fill:#C860D7; fill-opacity: 0.6454545454545455;"/>
<path d="M 568.0881343898079 346.87517481547735 L 569.4668580733234 364.3935202128347 L 586.9852034706806 363.0147965293193 L 585.6064797871653 345.496451131962 Z" style="stroke:#000028; stroke-opacity: 0.3;fill:#C860D7; fill-opacity: 0.6454545454545455;"/>
<path d="M 586.9852034706806 363.0147965293193 L 585.6064797871653 380.53314192667665 L 603.1248251845226 381.91186561019197 L 604.5035488680379 364.3935202128347 Z" style="stroke:#000028; stroke-opacity: 0.3;fill:#C860D7; fill-opacity: 0.6454545454545455;"/>
<path d="M 603.1248251845226 381.91186561019197 L 599.0226028867867 398.99885120381134 L 616.109588480406 403.10107350154726 L 620.2118107781419 386.0140879079279 Z" style="stroke:#000028; stroke-opacity: 0.3;fill:#C860D7; fill-opacity: 0.6454545454545455;"/>
<path d="M 616.109588480406 403.10107350154726 L 609.384877895915 419.33596099765964 L 625.6197653920273 426.0606715821508 L 632.3444759765184 409.8257840860384 Z" style="stroke:#000028; stroke-opacity: 0.3;fill:#C860D7; fill-opacity: 0.6454545454545455;"/>
<path d="M 625.6197653920273 426.0606715821508 L 616.438151213406 441.04370417009966 L 631.4211838013548 450.225318348721 L 640.602797979976 435.2422857607721 Z" style="stroke:#000028; stroke-opacity: 0.3;fill:#C860D7; fill-opacity: 0.6454545454545455;"/>
<path d="M 631.4211838013548 450.225318348721 L 620.0087478417114 463.5875640403566 L 633.370993533347 475 L 644.7834294929904 461.6377543083644 Z" style="stroke:#000028; stroke-opacity: 0.3;fill:#C860D7; fill-opacity: 0.6454545454545455;"/>
<path d="M 633.370993533347 475 L 620.0087478417114 486.41243595964335 L 631.4211838013548 499.7746816512789 L 644.7834294929904 488.36224569163556 Z" style="stroke:#000028; stroke-opacity: 0.3;fill:#C860D7; fill-opacity: 0.6454545454545455;"/>
<path d="M 631.4211838013548 499.7746816512789 L 616.438151213406 508.9562958299002 L 625.6197653920273 523.9393284178491 L 640.602797979976 514.7577142392278 Z" style="stroke:#000028; stroke-opacity: 0.3;fill:#C860D7; fill-opacity: 0.6454545454545455;"/>
<path d="M 609.3848778959148 530.6640390023404 L 594.0351854944266 535.6514563947006 L 599.0226028867869 551.0011487961888 L 614.372295288275 546.0137314038285 Z" style="stroke:#00003C; stroke-opacity: 0.3;fill:#C860EB; fill-opacity: 0.6454545454545455;"/>
<path d="M 599.0226028867869 551.0011487961888 L 583.0816866984089 553.5259418849453 L 585.6064797871654 569.4668580733232 L 601.5473959755434 566.9420649845667 Z" style="stroke:#00003C; stroke-opacity: 0.3;fill:#C860EB; fill-opacity: 0.6454545454545455;"/>
<path d="M 585.6064797871654 569.4668580733232 L 569.4668580733232 569.4668580733232 L 569.4668580733232 585.6064797871654 L 585.6064797871654 585.6064797871654 Z" style="stroke:#00003C; stroke-opacity: 0.3;fill:#C860EB; fill-opacity: 0.6454545454545455;"/>
<path d="M 569.4668580733232 585.6064797871654 L 553.5259418849454 583.0816866984088 L 551.0011487961888 599.0226028867867 L 566.9420649845666 601.5473959755433 Z" style="stroke:#00003C; stroke-opacity: 0.3;fill:#C860EB; fill-opacity: 0.6454545454545455;"/>
<path d="M 551.0011487961888 599.0226028867867 L 535.6514563947005 594.0351854944265 L 530.6640390023404 609.3848778959148 L 546.0137314038286 614.3722952882749 Z" style="stroke:#00003C; stroke-opacity: 0.3;fill:#C860EB; fill-opacity: 0.6454545454545455;"/>
<path d="M 530.6640390023404 609.3848778959148 L 516.2835307573746 602.0576429684404 L 508.9562958299002 616.4381512134061 L 523.336804074866 623.7653861408805 Z" style="stroke:#00003C; stroke-opacity: 0.3;fill:#C860EB; fill-opacity: 0.6454545454545455;"/>
<path d="M 508.9562958299002 616.4381512134061 L 495.89906758061915 606.9515195924305 L 486.41243595964346 620.0087478417115 L 499.4696642089246 629.4953794626872 Z" style="stroke:#00003C; stroke-opacity: 0.3;fill:#C860EB; fill-opacity: 0.6454545454545455;"/>
<path d="M 486.41243595964346 620.0087478417115 L 475.00000000000006 608.596311882068 L 463.5875640403566 620.0087478417114 L 474.99999999999994 631.4211838013548 Z" style="stroke:#00003C; stroke-opacity: 0.3;fill:#C860EB; fill-opacity: 0.6454545454545455;"/>
<path d="M 463.5875640403566 620.0087478417114 L 454.10093241938085 606.9515195924301 L 441.04370417009966 616.438151213406 L 450.5303357910754 629.4953794626871 Z" style="stroke:#00003C; stroke-opacity: 0.3;fill:#C860EB; fill-opacity: 0.6454545454545455;"/>
<path d="M 441.04370417009966 616.438151213406 L 433.7164692426252 602.0576429684403 L 419.3359609976596 609.3848778959148 L 426.663195925134 623.7653861408804 Z" style="stroke:#00003C; stroke-opacity: 0.3;fill:#C860EB; fill-opacity: 0.6454545454545455;"/>
<path d="M 419.3359609976596 609.3848778959148 L 414.3485436052993 594.0351854944266 L 398.99885120381117 599.0226028867869 L 403.98626859617144 614.372295288275 Z" style="stroke:#00003C; stroke-opacity: 0.3;fill:#C860EB; fill-opacity: 0.6454545454545455;"/>
<path d="M 398.99885120381117 599.0226028867869 L 396.4740581150546 583.081686698409 L 380.53314192667676 585.6064797871657 L 383.0579350154334 601.5473959755435 Z" style="stroke:#00003C; stroke-opacity: 0.3;fill:#C860EB; fill-opacity: 0.6454545454545455;"/>
<path d="M 380.53314192667676 585.6064797871657 L 380.53314192667693 569.4668580733236 L 364.39352021283486 569.4668580733234 L 364.39352021283463 585.6064797871655 Z" style="stroke:#00003C; stroke-opacity: 0.3;fill:#C860EB; fill-opacity: 0.6454545454545455;"/>
<path d="M 364.39352021283486 569.4668580733234 L 366.91831330159147 553.5259418849453 L 350.9773971132133 551.0011487961885 L 348.45260402445666 566.9420649845667 Z" style="stroke:#00003C; stroke-opacity: 0.3;fill:#C860EB; fill-opacity: 0.6454545454545455;"/>
<path d="M 350.9773971132133 551.0011487961885 L 355.9648145055732 535.6514563947003 L 340.615122104085 530.6640390023405 L 335.62770471172513 546.0137314038286 Z" style="stroke:#00003C; stroke-opacity: 0.3;fill:#C860EB; fill-opacity: 0.6454545454545455;"/>
<path d="M 340.615122104085 530.6640390023405 L 347.9423570315596 516.2835307573749 L 333.5618487865941 508.9562958299004 L 326.23461385911946 523.3368040748659 Z" style="stroke:#00003C; stroke-opacity: 0.3;fill:#C860EB; fill-opacity: 0.6454545454545455;"/>
<path d="M 333.5618487865941 508.9562958299004 L 343.04848040756985 495.8990675806192 L 329.9912521582886 486.4124359596434 L 320.5046205373129 499.46966420892466 Z" style="stroke:#00003C; stroke-opacity: 0.3;fill:#C860EB; fill-opacity: 0.6454545454545455;"/>
<path d="M 329.9912521582886 486.4124359596434 L 341.403688117932 475 L 329.9912521582886 463.5875640403566 L 318.5788161986452 475 Z" style="stroke:#00003C; stroke-opacity: 0.3;fill:#C860EB; fill-opacity: 0.6454545454545455;"/>
<path d="M 329.9912521582886 463.5875640403566 L 343.04848040756974 454.1009324193808 L 333.56184878659394 441.0437041700997 L 320.5046205373128 450.53033579107546 Z" style="stroke:#00003C; stroke-opacity: 0.3;fill:#C860EB; fill-opacity: 0.6454545454545455;"/>
<path d="M 333.56184878659394 441.0437041700997 L 347.94235703155954 433.7164692426253 L 340.6151221040851 419.3359609976597 L 326.2346138591195 426.6631959251341 Z" style="stroke:#00003C; stroke-opacity: 0.3;fill:#C860EB; fill-opacity: 0.6454545454545455;"/>
<path d="M 340.6151221040851 419.3359609976597 L 355.9648145055734 414.34854360529954 L 350.9773971132132 398.99885120381134 L 335.62770471172496 403.98626859617144 Z" style="stroke:#00003C; stroke-opacity: 0.3;fill:#C860EB; fill-opacity: 0.6454545454545455;"/>
<path d="M 350.9773971132132 398.99885120381134 L 366.91831330159124 396.4740581150547 L 364.3935202128346 380.53314192667665 L 348.45260402445655 383.0579350154333 Z" style="stroke:#00003C; stroke-opacity: 0.3;fill:#C860EB; fill-opacity: 0.6454545454545455;"/>
<path d="M 364.3935202128346 380.53314192667665 L 380.53314192667654 380.5331419266768 L 380.53314192667665 364.39352021283486 L 364.3935202128347 364.39352021283474 Z" style="stroke:#00003C; stroke-opacity: 0.3;fill:#C860EB; fill-opacity: 0.6454545454545455;"/>
<path d="M 380.53314192667665 364.39352021283486 L 396.47405811505485 366.91831330159147 L 398.99885120381145 350.97739711321327 L 383.05793501543326 348.45260402445666 Z" style="stroke:#00003C; stroke-opacity: 0.3;fill:#C860EB; fill-opacity: 0.6454545454545455;"/>
<path d="M 398.99885120381145 350.97739711321327 L 414.34854360529965 355.96481450557326 L 419.3359609976596 340.61512210408506 L 403.98626859617144 335.6277047117251 Z" style="stroke:#00003C; stroke-opacity: 0.3;fill:#C860EB; fill-opacity: 0.6454545454545455;"/>
<path d="M 419.3359609976596 340.61512210408506 L 433.71646924262507 347.9423570315596 L 441.04370417009966 333.56184878659406 L 426.6631959251341 326.23461385911946 Z" style="stroke:#00003C; stroke-opacity: 0.3;fill:#C860EB; fill-opacity: 0.6454545454545455;"/>
<path d="M 441.04370417009966 333.56184878659406 L 454.10093241938085 343.0484804075698 L 463.5875640403566 329.9912521582886 L 450.5303357910754 320.50462053731286 Z" style="stroke:#00003C; stroke-opacity: 0.3;fill:#C860EB; fill-opacity: 0.6454545454545455;"/>
<path d="M 463.5875640403566 329.9912521582886 L 475 341.403688117932 L 486.41243595964335 329.99125215828855 L 475 318.5788161986452 Z" style="stroke:#00003C; stroke-opacity: 0.3;fill:#C860EB; fill-opacity: 0.6454545454545455;"/>
<path d="M 486.41243595964335 329.99125215828855 L 495.8990675806191 343.0484804075697 L 508.9562958299003 333.56184878659394 L 499.46966420892454 320.50462053731275 Z" style="stroke:#00003C; stroke-opacity: 0.3;fill:#C860EB; fill-opacity: 0.6454545454545455;"/>
<path d="M 508.9562958299003 333.56184878659394 L 516.2835307573748 347.9423570315596 L 530.6640390023405 340.6151221040852 L 523.336804074866 326.23461385911946 Z" style="stroke:#00003C; stroke-opacity: 0.3;fill:#C860EB; fill-opacity: 0.6454545454545455;"/>
<path d="M 530.6640390023405 340.6151221040852 L 535.6514563947005 355.9648145055732 L 551.0011487961885 350.97739711321316 L 546.0137314038284 335.62770471172513 Z" style="stroke:#00003C; stroke-opacity: 0.3;fill:#C860EB; fill-opacity: 0.6454545454545455;"/>
<path d="M 551.0011487961885 350.97739711321316 L 553.5259418849453 366.91831330159135 L 569.4668580733234 364.3935202128347 L 566.9420649845667 348.45260402445655 Z" style="stroke:#00003C; stroke-opacity: 0.3;fill:#C860EB; fill-opacity: 0.6454545454545455;"/>
<path d="M 569.4668580733234 364.3935202128347 L 569.4668580733234 380.53314192667665 L 585.6064797871653 380.53314192667665 L 585.6064797871653 364.3935202128347 Z" style="stroke:#00003C; stroke-opacity: 0.3;fill:#C860EB; fill-opacity: 0.6454545454545455;"/>
<path d="M 585.6064797871653 380.53314192667665 L 583.0816866984086 396.4740581150547 L 599.0226028867867 398.99885120381134 L 601.5473959755433 383.0579350154333 Z" style="stroke:#00003C; stroke-opacity: 0.3;fill:#C860EB; fill-opacity: 0.6454545454545455;"/>
<path d="M 599.0226028867867 398.99885120381134 L 594.0351854944266 414.34854360529965 L 609.384877895915 419.33596099765964 L 614.372295288275 403.9862685961713 Z" style="stroke:#00003C; stroke-opacity: 0.3;fill:#C860EB; fill-opacity: 0.6454545454545455;"/>
<path d="M 609.384877895915 419.33596099765964 L 602.0576429684404 433.7164692426251 L 616.438151213406 441.04370417009966 L 623.7653861408805 426.6631959251342 Z" style="stroke:#00003C; stroke-opacity: 0.3;fill:#C860EB; fill-opacity: 0.6454545454545455;"/>
<path d="M 616.438151213406 441.04370417009966 L 606.9515195924301 454.10093241938085 L 620.0087478417114 463.5875640403566 L 629.4953794626871 450.5303357910754 Z" style="stroke:#00003C; stroke-opacity: 0.3;fill:#C860EB; fill-opacity: 0.6454545454545455;"/>
<path d="M 620.0087478417114 463.5875640403566 L 608.596311882068 475 L 620.0087478417114 486.41243595964335 L 631.4211838013548 475 Z" style="stroke:#00003C; stroke-opacity: 0.3;fill:#C860EB; fill-opacity: 0.6454545454545455;"/>
<path d="M 620.0087478417114 486.41243595964335 L 606.9515195924301 495.89906758061903 L 616.438151213406 508.9562958299002 L 629.4953794626871 499.4696642089245 Z" style="stroke:#00003C; stroke-opacity: 0.3;fill:#C860EB; fill-opacity: 0.6454545454545455;"/>
<path d="M 616.438151213406 508.9562958299002 L 602.0576429684403 516.2835307573747 L 609.3848778959148 530.6640390023404 L 623.7653861408804 523.3368040748659 Z" style="stroke:#00003C; stroke-opacity: 0.3;fill:#C860EB; fill-opacity: 0.6454545454545455;"/>
<path d="M 594.0351854944266 535.6514563947006 L 579.6211933512955 539.111949741814 L 583.0816866984089 553.5259418849453 L 597.4956788415402 550.0654485378318 Z" style="stroke:#000050; stroke-opacity: 0.3;fill:#C860FF; fill-opacity: 0.6454545454545455;"/>
<path d="M 583.0816866984089 553.5259418849453 L 568.3038142916771 554.6889856665914 L 569.4668580733232 569.4668580733232 L 584.2447304800551 568.3038142916771 Z" style="stroke:#000050; stroke-opacity: 0.3;fill:#C860FF; fill-opacity: 0.6454545454545455;"/>
<path d="M 569.4668580733232 569.4668580733232 L 554.6889856665916 568.3038142916771 L 553.5259418849454 583.0816866984088 L 568.3038142916771 584.2447304800548 Z" style="stroke:#000050; stroke-opacity: 0.3;fill:#C860FF; fill-opacity: 0.6454545454545455;"/>
<path d="M 553.5259418849454 583.0816866984088 L 539.1119497418141 579.6211933512952 L 535.6514563947005 594.0351854944265 L 550.0654485378317 597.49567884154 Z" style="stroke:#000050; stroke-opacity: 0.3;fill:#C860FF; fill-opacity: 0.6454545454545455;"/>
<path d="M 535.6514563947005 594.0351854944265 L 521.9562648390306 588.3624514127705 L 516.2835307573746 602.0576429684404 L 529.9787223130445 607.7303770500964 Z" style="stroke:#000050; stroke-opacity: 0.3;fill:#C860FF; fill-opacity: 0.6454545454545455;"/>
<path d="M 516.2835307573746 602.0576429684404 L 503.64436085700186 594.3123496920578 L 495.89906758061915 606.9515195924305 L 508.53823748099194 614.6968128688131 Z" style="stroke:#000050; stroke-opacity: 0.3;fill:#C860FF; fill-opacity: 0.6454545454545455;"/>
<path d="M 495.89906758061915 606.9515195924305 L 484.62713764549085 597.3243819469396 L 475.00000000000006 608.596311882068 L 486.27192993512836 618.2234495275588 Z" style="stroke:#000050; stroke-opacity: 0.3;fill:#C860FF; fill-opacity: 0.6454545454545455;"/>
<path d="M 475.00000000000006 608.596311882068 L 465.3728623545094 597.3243819469395 L 454.10093241938085 606.9515195924301 L 463.72807006487153 618.2234495275587 Z" style="stroke:#000050; stroke-opacity: 0.3;fill:#C860FF; fill-opacity: 0.6454545454545455;"/>
<path d="M 454.10093241938085 606.9515195924301 L 446.3556391429979 594.3123496920574 L 433.7164692426252 602.0576429684403 L 441.46176251900806 614.696812868813 Z" style="stroke:#000050; stroke-opacity: 0.3;fill:#C860FF; fill-opacity: 0.6454545454545455;"/>
<path d="M 433.7164692426252 602.0576429684403 L 428.04373516096905 588.3624514127705 L 414.3485436052993 594.0351854944266 L 420.0212776869554 607.7303770500964 Z" style="stroke:#000050; stroke-opacity: 0.3;fill:#C860FF; fill-opacity: 0.6454545454545455;"/>
<path d="M 414.3485436052993 594.0351854944266 L 410.8880502581858 579.6211933512955 L 396.4740581150546 583.081686698409 L 399.9345514621682 597.4956788415402 Z" style="stroke:#000050; stroke-opacity: 0.3;fill:#C860FF; fill-opacity: 0.6454545454545455;"/>
<path d="M 396.4740581150546 583.081686698409 L 395.3110143334085 568.3038142916774 L 380.53314192667693 569.4668580733236 L 381.696185708323 584.2447304800552 Z" style="stroke:#000050; stroke-opacity: 0.3;fill:#C860FF; fill-opacity: 0.6454545454545455;"/>
<path d="M 380.53314192667693 569.4668580733236 L 381.69618570832336 554.6889856665916 L 366.91831330159147 553.5259418849453 L 365.75526951994505 568.3038142916771 Z" style="stroke:#000050; stroke-opacity: 0.3;fill:#C860FF; fill-opacity: 0.6454545454545455;"/>
<path d="M 366.91831330159147 553.5259418849453 L 370.3788066487048 539.1119497418136 L 355.9648145055732 535.6514563947003 L 352.50432115845985 550.0654485378319 Z" style="stroke:#000050; stroke-opacity: 0.3;fill:#C860FF; fill-opacity: 0.6454545454545455;"/>
<path d="M 355.9648145055732 535.6514563947003 L 361.6375485872291 521.9562648390308 L 347.9423570315596 516.2835307573749 L 342.26962294990375 529.9787223130445 Z" style="stroke:#000050; stroke-opacity: 0.3;fill:#C860FF; fill-opacity: 0.6454545454545455;"/>
<path d="M 347.9423570315596 516.2835307573749 L 355.6876503079426 503.6443608570022 L 343.04848040756985 495.8990675806192 L 335.30318713118686 508.53823748099194 Z" style="stroke:#000050; stroke-opacity: 0.3;fill:#C860FF; fill-opacity: 0.6454545454545455;"/>
<path d="M 343.04848040756985 495.8990675806192 L 352.67561805306053 484.6271376454907 L 341.403688117932 475 L 331.77655047244133 486.2719299351285 Z" style="stroke:#000050; stroke-opacity: 0.3;fill:#C860FF; fill-opacity: 0.6454545454545455;"/>
<path d="M 341.403688117932 475 L 352.6756180530605 465.37286235450927 L 343.04848040756974 454.1009324193808 L 331.7765504724413 463.72807006487153 Z" style="stroke:#000050; stroke-opacity: 0.3;fill:#C860FF; fill-opacity: 0.6454545454545455;"/>
<path d="M 343.04848040756974 454.1009324193808 L 355.6876503079424 446.3556391429979 L 347.94235703155954 433.7164692426253 L 335.3031871311869 441.4617625190082 Z" style="stroke:#000050; stroke-opacity: 0.3;fill:#C860FF; fill-opacity: 0.6454545454545455;"/>
<path d="M 347.94235703155954 433.7164692426253 L 361.6375485872293 428.0437351609694 L 355.9648145055734 414.34854360529954 L 342.2696229499036 420.0212776869555 Z" style="stroke:#000050; stroke-opacity: 0.3;fill:#C860FF; fill-opacity: 0.6454545454545455;"/>
<path d="M 355.9648145055734 414.34854360529954 L 370.3788066487047 410.888050258186 L 366.91831330159124 396.4740581150547 L 352.50432115845985 399.9345514621682 Z" style="stroke:#000050; stroke-opacity: 0.3;fill:#C860FF; fill-opacity: 0.6454545454545455;"/>
<path d="M 366.91831330159124 396.4740581150547 L 381.69618570832284 395.31101433340837 L 380.53314192667654 380.5331419266768 L 365.755269519945 381.6961857083231 Z" style="stroke:#000050; stroke-opacity: 0.3;fill:#C860FF; fill-opacity: 0.6454545454545455;"/>
<path d="M 380.53314192667654 380.5331419266768 L 395.31101433340837 381.6961857083233 L 396.47405811505485 366.91831330159147 L 381.696185708323 365.755269519945 Z" style="stroke:#000050; stroke-opacity: 0.3;fill:#C860FF; fill-opacity: 0.6454545454545455;"/>
<path d="M 396.47405811505485 366.91831330159147 L 410.88805025818635 370.3788066487048 L 414.34854360529965 355.96481450557326 L 399.9345514621681 352.50432115845996 Z" style="stroke:#000050; stroke-opacity: 0.3;fill:#C860FF; fill-opacity: 0.6454545454545455;"/>
<path d="M 414.34854360529965 355.96481450557326 L 428.04373516096916 361.63754858722916 L 433.71646924262507 347.9423570315596 L 420.0212776869555 342.2696229499037 Z" style="stroke:#000050; stroke-opacity: 0.3;fill:#C860FF; fill-opacity: 0.6454545454545455;"/>
<path d="M 433.71646924262507 347.9423570315596 L 446.3556391429979 355.6876503079426 L 454.10093241938085 343.0484804075698 L 441.46176251900806 335.30318713118675 Z" style="stroke:#000050; stroke-opacity: 0.3;fill:#C860FF; fill-opacity: 0.6454545454545455;"/>
<path d="M 454.10093241938085 343.0484804075698 L 465.37286235450927 352.6756180530605 L 475 341.403688117932 L 463.72807006487153 331.7765504724413 Z" style="stroke:#000050; stroke-opacity: 0.3;fill:#C860FF; fill-opacity: 0.6454545454545455;"/>
<path d="M 475 341.403688117932 L 484.62713764549073 352.6756180530604 L 495.8990675806191 343.0484804075697 L 486.27192993512836 331.77655047244133 Z" style="stroke:#000050; stroke-opacity: 0.3;fill:#C860FF; fill-opacity: 0.6454545454545455;"/>
<path d="M 495.8990675806191 343.0484804075697 L 503.64436085700197 355.68765030794253 L 516.2835307573748 347.9423570315596 L 508.53823748099194 335.3031871311868 Z" style="stroke:#000050; stroke-opacity: 0.3;fill:#C860FF; fill-opacity: 0.6454545454545455;"/>
<path d="M 516.2835307573748 347.9423570315596 L 521.9562648390308 361.6375485872293 L 535.6514563947005 355.9648145055732 L 529.9787223130445 342.2696229499036 Z" style="stroke:#000050; stroke-opacity: 0.3;fill:#C860FF; fill-opacity: 0.6454545454545455;"/>
<path d="M 535.6514563947005 355.9648145055732 L 539.1119497418138 370.37880664870465 L 553.5259418849453 366.91831330159135 L 550.065448537832 352.5043211584599 Z" style="stroke:#000050; stroke-opacity: 0.3;fill:#C860FF; fill-opacity: 0.6454545454545455;"/>
<path d="M 553.5259418849453 366.91831330159135 L 554.6889856665917 381.69618570832307 L 569.4668580733234 380.53314192667665 L 568.303814291677 365.755269519945 Z" style="stroke:#000050; stroke-opacity: 0.3;fill:#C860FF; fill-opacity: 0.6454545454545455;"/>
<path d="M 569.4668580733234 380.53314192667665 L 568.303814291677 395.31101433340825 L 583.0816866984086 396.4740581150547 L 584.244730480055 381.696185708323 Z" style="stroke:#000050; stroke-opacity: 0.3;fill:#C860FF; fill-opacity: 0.6454545454545455;"/>
<path d="M 583.0816866984086 396.4740581150547 L 579.6211933512951 410.8880502581862 L 594.0351854944266 414.34854360529965 L 597.4956788415401 399.93455146216814 Z" style="stroke:#000050; stroke-opacity: 0.3;fill:#C860FF; fill-opacity: 0.6454545454545455;"/>
<path d="M 594.0351854944266 414.34854360529965 L 588.3624514127708 428.0437351609693 L 602.0576429684404 433.7164692426251 L 607.7303770500963 420.0212776869555 Z" style="stroke:#000050; stroke-opacity: 0.3;fill:#C860FF; fill-opacity: 0.6454545454545455;"/>
<path d="M 602.0576429684404 433.7164692426251 L 594.3123496920575 446.35563914299786 L 606.9515195924301 454.10093241938085 L 614.6968128688131 441.4617625190081 Z" style="stroke:#000050; stroke-opacity: 0.3;fill:#C860FF; fill-opacity: 0.6454545454545455;"/>
<path d="M 606.9515195924301 454.10093241938085 L 597.3243819469395 465.3728623545093 L 608.596311882068 475 L 618.2234495275587 463.7280700648715 Z" style="stroke:#000050; stroke-opacity: 0.3;fill:#C860FF; fill-opacity: 0.6454545454545455;"/>
<path d="M 608.596311882068 475 L 597.3243819469395 484.62713764549056 L 606.9515195924301 495.89906758061903 L 618.2234495275585 486.2719299351284 Z" style="stroke:#000050; stroke-opacity: 0.3;fill:#C860FF; fill-opacity: 0.6454545454545455;"/>
<path d="M 606.9515195924301 495.89906758061903 L 594.3123496920574 503.64436085700197 L 602.0576429684403 516.2835307573747 L 614.696812868813 508.5382374809918 Z" style="stroke:#000050; stroke-opacity: 0.3;fill:#C860FF; fill-opacity: 0.6454545454545455;"/>
<path d="M 602.0576429684403 516.2835307573747 L 588.3624514127705 521.9562648390308 L 594.0351854944266 535.6514563947006 L 607.7303770500964 529.9787223130445 Z" style="stroke:#000050; stroke-opacity: 0.3;fill:#C860FF; fill-opacity: 0.6454545454545455;"/>
<path d="M 579.6211933512955 539.111949741814 L 566.1739858590976 541.2417781743935 L 568.3038142916771 554.6889856665914 L 581.751021783875 552.5591572340119 Z" style="stroke:#000064; stroke-opacity: 0.3;fill:#C860FF; fill-opacity: 0.6454545454545455;"/>
<path d="M 568.3038142916771 554.6889856665914 L 554.6889856665915 554.6889856665915 L 554.6889856665916 568.3038142916771 L 568.3038142916772 568.303814291677 Z" style="stroke:#000064; stroke-opacity: 0.3;fill:#C860FF; fill-opacity: 0.6454545454545455;"/>
<path d="M 554.6889856665916 568.3038142916771 L 541.2417781743937 566.1739858590975 L 539.1119497418141 579.6211933512952 L 552.5591572340119 581.7510217838749 Z" style="stroke:#000064; stroke-opacity: 0.3;fill:#C860FF; fill-opacity: 0.6454545454545455;"/>
<path d="M 539.1119497418141 579.6211933512952 L 526.1634782596847 575.4139799306411 L 521.9562648390306 588.3624514127705 L 534.9047363211599 592.5696648334247 Z" style="stroke:#000064; stroke-opacity: 0.3;fill:#C860FF; fill-opacity: 0.6454545454545455;"/>
<path d="M 521.9562648390306 588.3624514127705 L 509.8253637083726 582.1814485613997 L 503.64436085700186 594.3123496920578 L 515.7752619876599 600.4933525434285 Z" style="stroke:#000064; stroke-opacity: 0.3;fill:#C860FF; fill-opacity: 0.6454545454545455;"/>
<path d="M 503.64436085700186 594.3123496920578 L 492.6297331238054 586.3097542137432 L 484.62713764549085 597.3243819469396 L 495.6417653786873 605.3269774252542 Z" style="stroke:#000064; stroke-opacity: 0.3;fill:#C860FF; fill-opacity: 0.6454545454545455;"/>
<path d="M 484.62713764549085 597.3243819469396 L 475.00000000000017 587.6972443014489 L 465.3728623545094 597.3243819469395 L 475.00000000000006 606.9515195924304 Z" style="stroke:#000064; stroke-opacity: 0.3;fill:#C860FF; fill-opacity: 0.6454545454545455;"/>
<path d="M 465.3728623545094 597.3243819469395 L 457.3702668761947 586.3097542137427 L 446.3556391429979 594.3123496920574 L 454.3582346213126 605.3269774252542 Z" style="stroke:#000064; stroke-opacity: 0.3;fill:#C860FF; fill-opacity: 0.6454545454545455;"/>
<path d="M 446.3556391429979 594.3123496920574 L 440.17463629162694 582.1814485613995 L 428.04373516096905 588.3624514127705 L 434.22473801234 600.4933525434285 Z" style="stroke:#000064; stroke-opacity: 0.3;fill:#C860FF; fill-opacity: 0.6454545454545455;"/>
<path d="M 428.04373516096905 588.3624514127705 L 423.83652174031494 575.4139799306413 L 410.8880502581858 579.6211933512955 L 415.0952636788399 592.5696648334247 Z" style="stroke:#000064; stroke-opacity: 0.3;fill:#C860FF; fill-opacity: 0.6454545454545455;"/>
<path d="M 410.8880502581858 579.6211933512955 L 408.75822182560614 566.1739858590979 L 395.3110143334085 568.3038142916774 L 397.4408427659881 581.7510217838751 Z" style="stroke:#000064; stroke-opacity: 0.3;fill:#C860FF; fill-opacity: 0.6454545454545455;"/>
<path d="M 395.3110143334085 568.3038142916774 L 395.3110143334088 554.6889856665919 L 381.69618570832336 554.6889856665916 L 381.696185708323 568.3038142916771 Z" style="stroke:#000064; stroke-opacity: 0.3;fill:#C860FF; fill-opacity: 0.6454545454545455;"/>
<path d="M 381.69618570832336 554.6889856665916 L 383.82601414090306 541.2417781743933 L 370.3788066487048 539.1119497418136 L 368.24897821612507 552.5591572340119 Z" style="stroke:#000064; stroke-opacity: 0.3;fill:#C860FF; fill-opacity: 0.6454545454545455;"/>
<path d="M 370.3788066487048 539.1119497418136 L 374.58602006935837 526.1634782596844 L 361.6375485872291 521.9562648390308 L 357.43033516657556 534.9047363211602 Z" style="stroke:#000064; stroke-opacity: 0.3;fill:#C860FF; fill-opacity: 0.6454545454545455;"/>
<path d="M 361.6375485872291 521.9562648390308 L 367.8185514386002 509.8253637083733 L 355.6876503079426 503.6443608570022 L 349.50664745657156 515.7752619876599 Z" style="stroke:#000064; stroke-opacity: 0.3;fill:#C860FF; fill-opacity: 0.6454545454545455;"/>
<path d="M 355.6876503079426 503.6443608570022 L 363.6902457862573 492.6297331238054 L 352.67561805306053 484.6271376454907 L 344.67302257474574 495.6417653786875 Z" style="stroke:#000064; stroke-opacity: 0.3;fill:#C860FF; fill-opacity: 0.6454545454545455;"/>
<path d="M 352.67561805306053 484.6271376454907 L 362.3027556985512 475 L 352.6756180530605 465.37286235450927 L 343.04848040756974 475 Z" style="stroke:#000064; stroke-opacity: 0.3;fill:#C860FF; fill-opacity: 0.6454545454545455;"/>
<path d="M 352.6756180530605 465.37286235450927 L 363.6902457862571 457.37026687619453 L 355.6876503079424 446.3556391429979 L 344.67302257474574 454.35823462131265 Z" style="stroke:#000064; stroke-opacity: 0.3;fill:#C860FF; fill-opacity: 0.6454545454545455;"/>
<path d="M 355.6876503079424 446.3556391429979 L 367.81855143860014 440.17463629162705 L 361.6375485872293 428.0437351609694 L 349.5066474565716 434.22473801234025 Z" style="stroke:#000064; stroke-opacity: 0.3;fill:#C860FF; fill-opacity: 0.6454545454545455;"/>
<path d="M 361.6375485872293 428.0437351609694 L 374.5860200693587 423.8365217403154 L 370.3788066487047 410.888050258186 L 357.43033516657533 415.09526367884 Z" style="stroke:#000064; stroke-opacity: 0.3;fill:#C860FF; fill-opacity: 0.6454545454545455;"/>
<path d="M 370.3788066487047 410.888050258186 L 383.8260141409026 408.75822182560626 L 381.69618570832284 395.31101433340837 L 368.24897821612495 397.4408427659881 Z" style="stroke:#000064; stroke-opacity: 0.3;fill:#C860FF; fill-opacity: 0.6454545454545455;"/>
<path d="M 381.69618570832284 395.31101433340837 L 395.31101433340814 395.3110143334086 L 395.31101433340837 381.6961857083233 L 381.6961857083231 381.6961857083231 Z" style="stroke:#000064; stroke-opacity: 0.3;fill:#C860FF; fill-opacity: 0.6454545454545455;"/>
<path d="M 395.31101433340837 381.6961857083233 L 408.7582218256066 383.82601414090306 L 410.88805025818635 370.3788066487048 L 397.4408427659881 368.24897821612507 Z" style="stroke:#000064; stroke-opacity: 0.3;fill:#C860FF; fill-opacity: 0.6454545454545455;"/>
<path d="M 410.88805025818635 370.3788066487048 L 423.8365217403156 374.5860200693584 L 428.04373516096916 361.63754858722916 L 415.0952636788399 357.4303351665756 Z" style="stroke:#000064; stroke-opacity: 0.3;fill:#C860FF; fill-opacity: 0.6454545454545455;"/>
<path d="M 428.04373516096916 361.63754858722916 L 440.1746362916268 367.81855143860025 L 446.3556391429979 355.6876503079426 L 434.22473801234025 349.5066474565715 Z" style="stroke:#000064; stroke-opacity: 0.3;fill:#C860FF; fill-opacity: 0.6454545454545455;"/>
<path d="M 446.3556391429979 355.6876503079426 L 457.37026687619465 363.6902457862572 L 465.37286235450927 352.6756180530605 L 454.35823462131253 344.67302257474586 Z" style="stroke:#000064; stroke-opacity: 0.3;fill:#C860FF; fill-opacity: 0.6454545454545455;"/>
<path d="M 465.37286235450927 352.6756180530605 L 475 362.3027556985512 L 484.62713764549073 352.6756180530604 L 475 343.04848040756974 Z" style="stroke:#000064; stroke-opacity: 0.3;fill:#C860FF; fill-opacity: 0.6454545454545455;"/>
<path d="M 484.62713764549073 352.6756180530604 L 492.6297331238053 363.6902457862571 L 503.64436085700197 355.68765030794253 L 495.6417653786874 344.67302257474586 Z" style="stroke:#000064; stroke-opacity: 0.3;fill:#C860FF; fill-opacity: 0.6454545454545455;"/>
<path d="M 503.64436085700197 355.68765030794253 L 509.82536370837295 367.8185514386003 L 521.9562648390308 361.6375485872293 L 515.7752619876597 349.50664745657144 Z" style="stroke:#000064; stroke-opacity: 0.3;fill:#C860FF; fill-opacity: 0.6454545454545455;"/>
<path d="M 521.9562648390308 361.6375485872293 L 526.1634782596846 374.5860200693584 L 539.1119497418138 370.37880664870465 L 534.90473632116 357.4303351665755 Z" style="stroke:#000064; stroke-opacity: 0.3;fill:#C860FF; fill-opacity: 0.6454545454545455;"/>
<path d="M 539.1119497418138 370.37880664870465 L 541.2417781743936 383.8260141409028 L 554.6889856665917 381.69618570832307 L 552.559157234012 368.24897821612484 Z" style="stroke:#000064; stroke-opacity: 0.3;fill:#C860FF; fill-opacity: 0.6454545454545455;"/>
<path d="M 554.6889856665917 381.69618570832307 L 554.6889856665917 395.31101433340825 L 568.303814291677 395.31101433340825 L 568.303814291677 381.696185708323 Z" style="stroke:#000064; stroke-opacity: 0.3;fill:#C860FF; fill-opacity: 0.6454545454545455;"/>
<path d="M 568.303814291677 395.31101433340825 L 566.1739858590971 408.75822182560626 L 579.6211933512951 410.8880502581862 L 581.751021783875 397.4408427659881 Z" style="stroke:#000064; stroke-opacity: 0.3;fill:#C860FF; fill-opacity: 0.6454545454545455;"/>
<path d="M 579.6211933512951 410.8880502581862 L 575.4139799306414 423.83652174031556 L 588.3624514127708 428.0437351609693 L 592.5696648334246 415.09526367883984 Z" style="stroke:#000064; stroke-opacity: 0.3;fill:#C860FF; fill-opacity: 0.6454545454545455;"/>
<path d="M 588.3624514127708 428.0437351609693 L 582.1814485614 440.1746362916269 L 594.3123496920575 446.35563914299786 L 600.4933525434285 434.2247380123402 Z" style="stroke:#000064; stroke-opacity: 0.3;fill:#C860FF; fill-opacity: 0.6454545454545455;"/>
<path d="M 594.3123496920575 446.35563914299786 L 586.3097542137427 457.3702668761946 L 597.3243819469395 465.3728623545093 L 605.3269774252542 454.3582346213126 Z" style="stroke:#000064; stroke-opacity: 0.3;fill:#C860FF; fill-opacity: 0.6454545454545455;"/>
<path d="M 597.3243819469395 465.3728623545093 L 587.6972443014489 474.99999999999994 L 597.3243819469395 484.62713764549056 L 606.9515195924301 474.99999999999994 Z" style="stroke:#000064; stroke-opacity: 0.3;fill:#C860FF; fill-opacity: 0.6454545454545455;"/>
<path d="M 597.3243819469395 484.62713764549056 L 586.3097542137427 492.6297331238052 L 594.3123496920574 503.64436085700197 L 605.3269774252542 495.6417653786873 Z" style="stroke:#000064; stroke-opacity: 0.3;fill:#C860FF; fill-opacity: 0.6454545454545455;"/>
<path d="M 594.3123496920574 503.64436085700197 L 582.1814485613995 509.8253637083729 L 588.3624514127705 521.9562648390308 L 600.4933525434285 515.7752619876599 Z" style="stroke:#000064; stroke-opacity: 0.3;fill:#C860FF; fill-opacity: 0.6454545454545455;"/>
<path d="M 588.3624514127705 521.9562648390308 L 575.4139799306414 526.1634782596849 L 579.6211933512955 539.111949741814 L 592.5696648334246 534.9047363211599 Z" style="stroke:#000064; stroke-opacity: 0.3;fill:#C860FF; fill-opacity: 0.6454545454545455;"/>
<path d="M 566.1739858590976 541.2417781743935 L 553.7078820167455 542.2228818242395 L 554.6889856665915 554.6889856665915 L 567.1550895089435 553.7078820167455 Z" style="stroke:#000078; stroke-opacity: 0.3;fill:#C860FF; fill-opacity: 0.6454545454545455;"/>
<path d="M 554.6889856665915 554.6889856665915 L 542.2228818242396 553.7078820167455 L 541.2417781743937 566.1739858590975 L 553.7078820167457 567.1550895089433 Z" style="stroke:#000078; stroke-opacity: 0.3;fill:#C860FF; fill-opacity: 0.6454545454545455;"/>
<path d="M 541.2417781743937 566.1739858590975 L 529.0826311812674 563.2548329375147 L 526.1634782596847 575.4139799306411 L 538.322625252811 578.3331328522238 Z" style="stroke:#000078; stroke-opacity: 0.3;fill:#C860FF; fill-opacity: 0.6454545454545455;"/>
<path d="M 526.1634782596847 575.4139799306411 L 514.6106866686494 570.6286569703643 L 509.8253637083726 582.1814485613997 L 521.378155299408 586.9667715216765 Z" style="stroke:#000078; stroke-opacity: 0.3;fill:#C860FF; fill-opacity: 0.6454545454545455;"/>
<path d="M 509.8253637083726 582.1814485613997 L 499.1633955899173 575.6477860952879 L 492.6297331238054 586.3097542137432 L 503.29170124226073 592.8434166798551 Z" style="stroke:#000078; stroke-opacity: 0.3;fill:#C860FF; fill-opacity: 0.6454545454545455;"/>
<path d="M 492.6297331238054 586.3097542137432 L 483.12112151804996 578.1886326956935 L 475.00000000000017 587.6972443014489 L 484.5086116057557 595.8183658194987 Z" style="stroke:#000078; stroke-opacity: 0.3;fill:#C860FF; fill-opacity: 0.6454545454545455;"/>
<path d="M 475.00000000000017 587.6972443014489 L 466.8788784819505 578.1886326956932 L 457.3702668761947 586.3097542137427 L 465.4913883942443 595.8183658194986 Z" style="stroke:#000078; stroke-opacity: 0.3;fill:#C860FF; fill-opacity: 0.6454545454545455;"/>
<path d="M 457.3702668761947 586.3097542137427 L 450.83660441008243 575.6477860952873 L 440.17463629162694 582.1814485613995 L 446.7082987577392 592.843416679855 Z" style="stroke:#000078; stroke-opacity: 0.3;fill:#C860FF; fill-opacity: 0.6454545454545455;"/>
<path d="M 440.17463629162694 582.1814485613995 L 435.3893133313501 570.6286569703644 L 423.83652174031494 575.4139799306413 L 428.62184470059185 586.9667715216764 Z" style="stroke:#000078; stroke-opacity: 0.3;fill:#C860FF; fill-opacity: 0.6454545454545455;"/>
<path d="M 423.83652174031494 575.4139799306413 L 420.91736881873226 563.2548329375152 L 408.75822182560614 566.1739858590979 L 411.6773747471889 578.333132852224 Z" style="stroke:#000078; stroke-opacity: 0.3;fill:#C860FF; fill-opacity: 0.6454545454545455;"/>
<path d="M 408.75822182560614 566.1739858590979 L 407.7771181757605 553.7078820167462 L 395.3110143334088 554.6889856665919 L 396.29211798325446 567.1550895089435 Z" style="stroke:#000078; stroke-opacity: 0.3;fill:#C860FF; fill-opacity: 0.6454545454545455;"/>
<path d="M 395.3110143334088 554.6889856665919 L 396.2921179832552 542.2228818242396 L 383.82601414090306 541.2417781743933 L 382.8449104910566 553.7078820167454 Z" style="stroke:#000078; stroke-opacity: 0.3;fill:#C860FF; fill-opacity: 0.6454545454545455;"/>
<path d="M 383.82601414090306 541.2417781743933 L 386.74516706248517 529.0826311812665 L 374.58602006935837 526.1634782596844 L 371.6668671477763 538.3226252528112 Z" style="stroke:#000078; stroke-opacity: 0.3;fill:#C860FF; fill-opacity: 0.6454545454545455;"/>
<path d="M 374.58602006935837 526.1634782596844 L 379.37134302963483 514.6106866686498 L 367.8185514386002 509.8253637083733 L 363.0332284783237 521.378155299408 Z" style="stroke:#000078; stroke-opacity: 0.3;fill:#C860FF; fill-opacity: 0.6454545454545455;"/>
<path d="M 367.8185514386002 509.8253637083733 L 374.3522139047127 499.1633955899179 L 363.6902457862573 492.6297331238054 L 357.1565833201448 503.2917012422608 Z" style="stroke:#000078; stroke-opacity: 0.3;fill:#C860FF; fill-opacity: 0.6454545454545455;"/>
<path d="M 363.6902457862573 492.6297331238054 L 371.81136730430694 483.1211215180497 L 362.3027556985512 475 L 354.18163418050153 484.50861160575573 Z" style="stroke:#000078; stroke-opacity: 0.3;fill:#C860FF; fill-opacity: 0.6454545454545455;"/>
<path d="M 362.3027556985512 475 L 371.8113673043069 466.87887848195027 L 363.6902457862571 457.37026687619453 L 354.18163418050136 465.4913883942443 Z" style="stroke:#000078; stroke-opacity: 0.3;fill:#C860FF; fill-opacity: 0.6454545454545455;"/>
<path d="M 363.6902457862571 457.37026687619453 L 374.35221390471236 450.83660441008226 L 367.81855143860014 440.17463629162705 L 357.15658332014493 446.70829875773927 Z" style="stroke:#000078; stroke-opacity: 0.3;fill:#C860FF; fill-opacity: 0.6454545454545455;"/>
<path d="M 367.81855143860014 440.17463629162705 L 379.3713430296352 435.3893133313505 L 374.5860200693587 423.8365217403154 L 363.0332284783236 428.6218447005919 Z" style="stroke:#000078; stroke-opacity: 0.3;fill:#C860FF; fill-opacity: 0.6454545454545455;"/>
<path d="M 374.5860200693587 423.8365217403154 L 386.74516706248517 420.9173688187327 L 383.8260141409026 408.75822182560626 L 371.6668671477761 411.6773747471889 Z" style="stroke:#000078; stroke-opacity: 0.3;fill:#C860FF; fill-opacity: 0.6454545454545455;"/>
<path d="M 383.8260141409026 408.75822182560626 L 396.2921179832542 407.7771181757602 L 395.31101433340814 395.3110143334086 L 382.8449104910565 396.2921179832546 Z" style="stroke:#000078; stroke-opacity: 0.3;fill:#C860FF; fill-opacity: 0.6454545454545455;"/>
<path d="M 395.31101433340814 395.3110143334086 L 407.77711817576017 396.292117983255 L 408.7582218256066 383.82601414090306 L 396.29211798325457 382.84491049105657 Z" style="stroke:#000078; stroke-opacity: 0.3;fill:#C860FF; fill-opacity: 0.6454545454545455;"/>
<path d="M 408.7582218256066 383.82601414090306 L 420.91736881873345 386.7451670624853 L 423.8365217403156 374.5860200693584 L 411.6773747471888 371.6668671477762 Z" style="stroke:#000078; stroke-opacity: 0.3;fill:#C860FF; fill-opacity: 0.6454545454545455;"/>
<path d="M 423.8365217403156 374.5860200693584 L 435.3893133313503 379.371343029635 L 440.1746362916268 367.81855143860025 L 428.6218447005921 363.03322847832374 Z" style="stroke:#000078; stroke-opacity: 0.3;fill:#C860FF; fill-opacity: 0.6454545454545455;"/>
<path d="M 440.1746362916268 367.81855143860025 L 450.8366044100823 374.3522139047127 L 457.37026687619465 363.6902457862572 L 446.7082987577392 357.1565833201448 Z" style="stroke:#000078; stroke-opacity: 0.3;fill:#C860FF; fill-opacity: 0.6454545454545455;"/>
<path d="M 457.37026687619465 363.6902457862572 L 466.8788784819503 371.81136730430694 L 475 362.3027556985512 L 465.49138839424427 354.18163418050153 Z" style="stroke:#000078; stroke-opacity: 0.3;fill:#C860FF; fill-opacity: 0.6454545454545455;"/>
<path d="M 475 362.3027556985512 L 483.1211215180497 371.81136730430677 L 492.6297331238053 363.6902457862571 L 484.5086116057556 354.1816341805015 Z" style="stroke:#000078; stroke-opacity: 0.3;fill:#C860FF; fill-opacity: 0.6454545454545455;"/>
<path d="M 492.6297331238053 363.6902457862571 L 499.1633955899175 374.3522139047125 L 509.82536370837295 367.8185514386003 L 503.29170124226073 357.1565833201449 Z" style="stroke:#000078; stroke-opacity: 0.3;fill:#C860FF; fill-opacity: 0.6454545454545455;"/>
<path d="M 509.82536370837295 367.8185514386003 L 514.6106866686496 379.37134302963517 L 526.1634782596846 374.5860200693584 L 521.3781552994078 363.03322847832357 Z" style="stroke:#000078; stroke-opacity: 0.3;fill:#C860FF; fill-opacity: 0.6454545454545455;"/>
<path d="M 526.1634782596846 374.5860200693584 L 529.0826311812668 386.74516706248517 L 541.2417781743936 383.8260141409028 L 538.3226252528113 371.6668671477761 Z" style="stroke:#000078; stroke-opacity: 0.3;fill:#C860FF; fill-opacity: 0.6454545454545455;"/>
<path d="M 541.2417781743936 383.8260141409028 L 542.2228818242401 396.2921179832546 L 554.6889856665917 395.31101433340825 L 553.7078820167454 382.8449104910565 Z" style="stroke:#000078; stroke-opacity: 0.3;fill:#C860FF; fill-opacity: 0.6454545454545455;"/>
<path d="M 554.6889856665917 395.31101433340825 L 553.7078820167454 407.77711817575994 L 566.1739858590971 408.75822182560626 L 567.1550895089434 396.29211798325457 Z" style="stroke:#000078; stroke-opacity: 0.3;fill:#C860FF; fill-opacity: 0.6454545454545455;"/>
<path d="M 566.1739858590971 408.75822182560626 L 563.2548329375146 420.91736881873305 L 575.4139799306414 423.83652174031556 L 578.3331328522239 411.67737474718876 Z" style="stroke:#000078; stroke-opacity: 0.3;fill:#C860FF; fill-opacity: 0.6454545454545455;"/>
<path d="M 575.4139799306414 423.83652174031556 L 570.628656970365 435.3893133313505 L 582.1814485614 440.1746362916269 L 586.9667715216763 428.6218447005919 Z" style="stroke:#000078; stroke-opacity: 0.3;fill:#C860FF; fill-opacity: 0.6454545454545455;"/>
<path d="M 582.1814485614 440.1746362916269 L 575.6477860952875 450.83660441008215 L 586.3097542137427 457.3702668761946 L 592.8434166798552 446.7082987577394 Z" style="stroke:#000078; stroke-opacity: 0.3;fill:#C860FF; fill-opacity: 0.6454545454545455;"/>
<path d="M 586.3097542137427 457.3702668761946 L 578.1886326956932 466.8788784819504 L 587.6972443014489 474.99999999999994 L 595.8183658194986 465.4913883942442 Z" style="stroke:#000078; stroke-opacity: 0.3;fill:#C860FF; fill-opacity: 0.6454545454545455;"/>
<path d="M 587.6972443014489 474.99999999999994 L 578.1886326956933 483.1211215180495 L 586.3097542137427 492.6297331238052 L 595.8183658194985 484.5086116057557 Z" style="stroke:#000078; stroke-opacity: 0.3;fill:#C860FF; fill-opacity: 0.6454545454545455;"/>
<path d="M 586.3097542137427 492.6297331238052 L 575.6477860952873 499.1633955899174 L 582.1814485613995 509.8253637083729 L 592.843416679855 503.2917012422606 Z" style="stroke:#000078; stroke-opacity: 0.3;fill:#C860FF; fill-opacity: 0.6454545454545455;"/>
<path d="M 582.1814485613995 509.8253637083729 L 570.6286569703644 514.6106866686499 L 575.4139799306414 526.1634782596849 L 586.9667715216764 521.3781552994079 Z" style="stroke:#000078; stroke-opacity: 0.3;fill:#C860FF; fill-opacity: 0.6454545454545455;"/>
<path d="M 575.4139799306414 526.1634782596849 L 563.2548329375152 529.0826311812673 L 566.1739858590976 541.2417781743935 L 578.3331328522238 538.3226252528111 Z" style="stroke:#000078; stroke-opacity: 0.3;fill:#C860FF; fill-opacity: 0.6454545454545455;"/>
<path d="M 553.7078820167455 542.2228818242395 L 542.2228818242395 542.2228818242395 L 542.2228818242396 553.7078820167455 L 553.7078820167455 553.7078820167455 Z" style="stroke:#00008C; stroke-opacity: 0.3;fill:#C860FF; fill-opacity: 0.6454545454545455;"/>
<path d="M 542.2228818242396 553.7078820167455 L 530.8792810423689 551.911232155644 L 529.0826311812674 563.2548329375147 L 540.4262319631381 565.0514827986162 Z" style="stroke:#00008C; stroke-opacity: 0.3;fill:#C860FF; fill-opacity: 0.6454545454545455;"/>
<path d="M 529.0826311812674 563.2548329375147 L 518.1597469085335 559.7057726976304 L 514.6106866686494 570.6286569703643 L 525.5335709413831 574.1777172102486 Z" style="stroke:#00008C; stroke-opacity: 0.3;fill:#C860FF; fill-opacity: 0.6454545454545455;"/>
<path d="M 514.6106866686494 570.6286569703643 L 504.37747656682154 565.41457599346 L 499.1633955899173 575.6477860952879 L 509.3966056917451 580.8618670721921 Z" style="stroke:#00008C; stroke-opacity: 0.3;fill:#C860FF; fill-opacity: 0.6454545454545455;"/>
<path d="M 499.1633955899173 575.6477860952879 L 489.87183525378083 568.8970723595571 L 483.12112151804996 578.1886326956935 L 492.4126818541865 584.9393464314244 Z" style="stroke:#00008C; stroke-opacity: 0.3;fill:#C860FF; fill-opacity: 0.6454545454545455;"/>
<path d="M 483.12112151804996 578.1886326956935 L 475.0000000000004 570.0675111776436 L 466.8788784819505 578.1886326956932 L 475.00000000000006 586.309754213743 Z" style="stroke:#00008C; stroke-opacity: 0.3;fill:#C860FF; fill-opacity: 0.6454545454545455;"/>
<path d="M 466.8788784819505 578.1886326956932 L 460.1281647462194 568.8970723595563 L 450.83660441008243 575.6477860952873 L 457.5873181458135 584.9393464314243 Z" style="stroke:#00008C; stroke-opacity: 0.3;fill:#C860FF; fill-opacity: 0.6454545454545455;"/>
<path d="M 450.83660441008243 575.6477860952873 L 445.6225234331777 565.4145759934596 L 435.3893133313501 570.6286569703644 L 440.60339430825485 580.861867072192 Z" style="stroke:#00008C; stroke-opacity: 0.3;fill:#C860FF; fill-opacity: 0.6454545454545455;"/>
<path d="M 435.3893133313501 570.6286569703644 L 431.8402530914658 559.7057726976309 L 420.91736881873226 563.2548329375152 L 424.46642905861654 574.1777172102488 Z" style="stroke:#00008C; stroke-opacity: 0.3;fill:#C860FF; fill-opacity: 0.6454545454545455;"/>
<path d="M 420.91736881873226 563.2548329375152 L 419.12071895763086 551.9112321556448 L 407.7771181757605 553.7078820167462 L 409.5737680368619 565.0514827986166 Z" style="stroke:#00008C; stroke-opacity: 0.3;fill:#C860FF; fill-opacity: 0.6454545454545455;"/>
<path d="M 407.7771181757605 553.7078820167462 L 407.77711817576113 542.2228818242403 L 396.2921179832552 542.2228818242396 L 396.2921179832545 553.7078820167457 Z" style="stroke:#00008C; stroke-opacity: 0.3;fill:#C860FF; fill-opacity: 0.6454545454545455;"/>
<path d="M 396.2921179832552 542.2228818242396 L 398.08876784435677 530.879281042368 L 386.74516706248517 529.0826311812665 L 384.94851720138365 540.4262319631381 Z" style="stroke:#00008C; stroke-opacity: 0.3;fill:#C860FF; fill-opacity: 0.6454545454545455;"/>
<path d="M 386.74516706248517 529.0826311812665 L 390.29422730236837 518.159746908533 L 379.37134302963483 514.6106866686498 L 375.8222827897517 525.5335709413832 Z" style="stroke:#00008C; stroke-opacity: 0.3;fill:#C860FF; fill-opacity: 0.6454545454545455;"/>
<path d="M 379.37134302963483 514.6106866686498 L 384.5854240065397 504.37747656682274 L 374.3522139047127 499.1633955899179 L 369.13813292780776 509.3966056917449 Z" style="stroke:#00008C; stroke-opacity: 0.3;fill:#C860FF; fill-opacity: 0.6454545454545455;"/>
<path d="M 374.3522139047127 499.1633955899179 L 381.10292764044397 489.8718352537809 L 371.81136730430694 483.1211215180497 L 365.0606535685757 492.41268185418664 Z" style="stroke:#00008C; stroke-opacity: 0.3;fill:#C860FF; fill-opacity: 0.6454545454545455;"/>
<path d="M 371.81136730430694 483.1211215180497 L 379.9324888223567 474.99999999999994 L 371.8113673043069 466.87887848195027 L 363.6902457862572 475.00000000000006 Z" style="stroke:#00008C; stroke-opacity: 0.3;fill:#C860FF; fill-opacity: 0.6454545454545455;"/>
<path d="M 371.8113673043069 466.87887848195027 L 381.10292764044357 460.128164746219 L 374.35221390471236 450.83660441008226 L 365.0606535685756 457.58731814581347 Z" style="stroke:#00008C; stroke-opacity: 0.3;fill:#C860FF; fill-opacity: 0.6454545454545455;"/>
<path d="M 374.35221390471236 450.83660441008226 L 384.5854240065397 445.62252343317783 L 379.3713430296352 435.3893133313505 L 369.1381329278079 440.60339430825496 Z" style="stroke:#00008C; stroke-opacity: 0.3;fill:#C860FF; fill-opacity: 0.6454545454545455;"/>
<path d="M 379.3713430296352 435.3893133313505 L 390.2942273023691 431.84025309146654 L 386.74516706248517 420.9173688187327 L 375.8222827897513 424.4664290586166 Z" style="stroke:#00008C; stroke-opacity: 0.3;fill:#C860FF; fill-opacity: 0.6454545454545455;"/>
<path d="M 386.74516706248517 420.9173688187327 L 398.08876784435586 419.12071895763097 L 396.2921179832542 407.7771181757602 L 384.9485172013834 409.573768036862 Z" style="stroke:#00008C; stroke-opacity: 0.3;fill:#C860FF; fill-opacity: 0.6454545454545455;"/>
<path d="M 396.2921179832542 407.7771181757602 L 407.77711817575977 407.7771181757606 L 407.77711817576017 396.292117983255 L 396.2921179832545 396.29211798325457 Z" style="stroke:#00008C; stroke-opacity: 0.3;fill:#C860FF; fill-opacity: 0.6454545454545455;"/>
<path d="M 407.77711817576017 396.292117983255 L 419.1207189576317 398.08876784435677 L 420.91736881873345 386.7451670624853 L 409.57376803686196 384.94851720138354 Z" style="stroke:#00008C; stroke-opacity: 0.3;fill:#C860FF; fill-opacity: 0.6454545454545455;"/>
<path d="M 420.91736881873345 386.7451670624853 L 431.84025309146705 390.29422730236854 L 435.3893133313503 379.371343029635 L 424.46642905861677 375.82228278975174 Z" style="stroke:#00008C; stroke-opacity: 0.3;fill:#C860FF; fill-opacity: 0.6454545454545455;"/>
<path d="M 435.3893133313503 379.371343029635 L 445.62252343317743 384.5854240065398 L 450.8366044100823 374.3522139047127 L 440.60339430825513 369.1381329278079 Z" style="stroke:#00008C; stroke-opacity: 0.3;fill:#C860FF; fill-opacity: 0.6454545454545455;"/>
<path d="M 450.8366044100823 374.3522139047127 L 460.1281647462192 381.1029276404438 L 466.8788784819503 371.81136730430694 L 457.58731814581347 365.06065356857584 Z" style="stroke:#00008C; stroke-opacity: 0.3;fill:#C860FF; fill-opacity: 0.6454545454545455;"/>
<path d="M 466.8788784819503 371.81136730430694 L 475.0000000000001 379.9324888223565 L 483.1211215180497 371.81136730430677 L 474.9999999999999 363.69024578625715 Z" style="stroke:#00008C; stroke-opacity: 0.3;fill:#C860FF; fill-opacity: 0.6454545454545455;"/>
<path d="M 483.1211215180497 371.81136730430677 L 489.8718352537807 381.10292764044357 L 499.1633955899175 374.3522139047125 L 492.4126818541865 365.06065356857573 Z" style="stroke:#00008C; stroke-opacity: 0.3;fill:#C860FF; fill-opacity: 0.6454545454545455;"/>
<path d="M 499.1633955899175 374.3522139047125 L 504.3774765668222 384.5854240065399 L 514.6106866686496 379.37134302963517 L 509.39660569174487 369.1381329278078 Z" style="stroke:#00008C; stroke-opacity: 0.3;fill:#C860FF; fill-opacity: 0.6454545454545455;"/>
<path d="M 514.6106866686496 379.37134302963517 L 518.1597469085332 390.29422730236877 L 529.0826311812668 386.74516706248517 L 525.5335709413832 375.8222827897515 Z" style="stroke:#00008C; stroke-opacity: 0.3;fill:#C860FF; fill-opacity: 0.6454545454545455;"/>
<path d="M 529.0826311812668 386.74516706248517 L 530.8792810423687 398.0887678443565 L 542.2228818242401 396.2921179832546 L 540.4262319631381 384.94851720138325 Z" style="stroke:#00008C; stroke-opacity: 0.3;fill:#C860FF; fill-opacity: 0.6454545454545455;"/>
<path d="M 542.2228818242401 396.2921179832546 L 542.2228818242401 407.77711817575994 L 553.7078820167454 407.77711817575994 L 553.7078820167454 396.29211798325457 Z" style="stroke:#00008C; stroke-opacity: 0.3;fill:#C860FF; fill-opacity: 0.6454545454545455;"/>
<path d="M 553.7078820167454 407.77711817575994 L 551.9112321556435 419.1207189576311 L 563.2548329375146 420.91736881873305 L 565.0514827986166 409.5737680368619 Z" style="stroke:#00008C; stroke-opacity: 0.3;fill:#C860FF; fill-opacity: 0.6454545454545455;"/>
<path d="M 563.2548329375146 420.91736881873305 L 559.7057726976311 431.840253091467 L 570.628656970365 435.3893133313505 L 574.1777172102486 424.4664290586166 Z" style="stroke:#00008C; stroke-opacity: 0.3;fill:#C860FF; fill-opacity: 0.6454545454545455;"/>
<path d="M 570.628656970365 435.3893133313505 L 565.4145759934604 445.62252343317755 L 575.6477860952875 450.83660441008215 L 580.8618670721921 440.603394308255 Z" style="stroke:#00008C; stroke-opacity: 0.3;fill:#C860FF; fill-opacity: 0.6454545454545455;"/>
<path d="M 575.6477860952875 450.83660441008215 L 568.8970723595562 460.12816474621906 L 578.1886326956932 466.8788784819504 L 584.9393464314244 457.5873181458134 Z" style="stroke:#00008C; stroke-opacity: 0.3;fill:#C860FF; fill-opacity: 0.6454545454545455;"/>
<path d="M 578.1886326956932 466.8788784819504 L 570.0675111776437 475 L 578.1886326956933 483.1211215180495 L 586.3097542137428 474.9999999999999 Z" style="stroke:#00008C; stroke-opacity: 0.3;fill:#C860FF; fill-opacity: 0.6454545454545455;"/>
<path d="M 578.1886326956933 483.1211215180495 L 568.8970723595563 489.87183525378043 L 575.6477860952873 499.1633955899174 L 584.9393464314243 492.4126818541864 Z" style="stroke:#00008C; stroke-opacity: 0.3;fill:#C860FF; fill-opacity: 0.6454545454545455;"/>
<path d="M 575.6477860952873 499.1633955899174 L 565.4145759934595 504.3774765668222 L 570.6286569703644 514.6106866686499 L 580.8618670721921 509.3966056917451 Z" style="stroke:#00008C; stroke-opacity: 0.3;fill:#C860FF; fill-opacity: 0.6454545454545455;"/>
<path d="M 570.6286569703644 514.6106866686499 L 559.7057726976311 518.1597469085339 L 563.2548329375152 529.0826311812673 L 574.1777172102486 525.5335709413832 Z" style="stroke:#00008C; stroke-opacity: 0.3;fill:#C860FF; fill-opacity: 0.6454545454545455;"/>
<path d="M 563.2548329375152 529.0826311812673 L 551.9112321556443 530.8792810423686 L 553.7078820167455 542.2228818242395 L 565.0514827986165 540.4262319631382 Z" style="stroke:#00008C; stroke-opacity: 0.3;fill:#C860FF; fill-opacity: 0.6454545454545455;"/>
</g>
</svg>