<?xml version="1.0"?><!DOCTYPE svg PUBLIC "-//W3C//DTD SVG 1.1//EN" "http://www.w3.org/Graphics/SVG/1.1/DTD/svg11.dtd"><svg xmlns="http://www.w3.org/2000/svg" width="950" height="950">
<title>PatternTwentyNine</title>
<desc>
Generated using the following configuration:

@implementation NewPattern : PatternTwentyNine
+ (CPDict) defaultConfig
{
 return [CPDictionary dictionaryWithObjectsAndKeys:[[GRColor alloc] initWithGradientColors:[[CPColor colorWith8BitRed:95 green:0 blue:0 alpha:1],[CPColor colorWith8BitRed:39 green:19 blue:35 alpha:0.6454545454545455],[CPColor colorWith8BitRed:236 green:207 blue:58 alpha:0.36363636363636365],[CPColor colorWith8BitRed:147 green:0 blue:0 alpha:1]] baseColor:[CPColor colorWith8BitRed:255 green:255 blue:255 alpha:1]], "background_color", 0, "background_color_direction", 7, "number_of_points", 0, "rotation", 1, "recurse_depth", 1, "factor_larger", [GRPoint pointWithX:475 Y:475], "center_point", 150, "radius", YES, "show_shapes", [[CPColor colorWith8BitRed:174 green:174 blue:174 alpha:0.07727272727272727],[CPColor colorWith8BitRed:0 green:0 blue:0 alpha:0.004545454545454545],[CPColor colorWith8BitRed:0 green:0 blue:0 alpha:0.05909090909090909],[CPColor colorWith8BitRed:85 green:85 blue:85 alpha:0.08636363636363636],[CPColor colorWith8BitRed:0 green:0 blue:255 alpha:1],[CPColor colorWith8BitRed:0 green:178 blue:0 alpha:0.2590909090909091]], "stroke_colors", [[CPColor colorWith8BitRed:255 green:251 blue:34 alpha:0.11363636363636363],[CPColor colorWith8BitRed:51 green:194 blue:255 alpha:0.04090909090909091],[CPColor colorWith8BitRed:255 green:255 blue:0 alpha:0],[CPColor colorWith8BitRed:200 green:96 blue:175 alpha:0],[CPColor colorWith8BitRed:23 green:200 blue:10 alpha:0],[CPColor colorWith8BitRed:200 green:23 blue:10 alpha:0]], "fill_colors"];
}
@end

</desc>
  <defs>
    <linearGradient id="grad1" x1="0%" y1="0%" x2="100%" y2="0%">
<stop offset="0%" style="stop-color:#5F0000;stop-opacity:1;" />
<stop offset="33%" style="stop-color:#271323;stop-opacity:0.6454545454545455;" />
<stop offset="66%" style="stop-color:#ECCF3A;stop-opacity:0.36363636363636365;" />
<stop offset="100%" style="stop-color:#930000;stop-opacity:1;" />
    </linearGradient>
  </defs>
<rect id="background" width="100%" height="100%" fill="url(#grad1)"/>
<g id="rotatelayer" transform="rotate(0, 475, 475)">
<path d="M 718.52347027881 592.2747223702045 Z" style="stroke:#AEAEAE; stroke-opacity: 0.07727272727272727;fill:#FFFB22; fill-opacity: 0.11363636363636363;"/>
<circle cx="568.52347027881" cy="592.2747223702045" r="150" style="stroke:#AEAEAE; stroke-opacity: 0.07727272727272727;fill:#FFFB22; fill-opacity: 0.11363636363636363;"/>
<path d="M 868.52347027881 592.2747223702045 Z" style="stroke:#000000; stroke-opacity: 0.004545454545454545;fill:#33C2FF; fill-opacity: 0.04090909090909091;"/>
<circle cx="718.52347027881" cy="592.2747223702045" r="150" style="stroke:#000000; stroke-opacity: 0.004545454545454545;fill:#33C2FF; fill-opacity: 0.04090909090909091;"/>
<path d="M 812.04694055762 474.99999999999994 Z" style="stroke:#000000; stroke-opacity: 0.05909090909090909;fill:#FFFF00; fill-opacity: 0;"/>
<circle cx="662.04694055762" cy="475" r="150" style="stroke:#000000; stroke-opacity: 0.05909090909090909;fill:#FFFF00; fill-opacity: 0;"/>
<path d="M 685.1453301853628 446.03553554293086 Z" style="stroke:#000000; stroke-opacity: 0.004545454545454545;fill:#33C2FF; fill-opacity: 0.04090909090909091;"/>
<circle cx="535.1453301853628" cy="446.0355355429309" r="150" style="stroke:#000000; stroke-opacity: 0.004545454545454545;fill:#33C2FF; fill-opacity: 0.04090909090909091;"/>
<path d="M 583.3781400934472 527.1921615025708 Z" style="stroke:#000000; stroke-opacity: 0.05909090909090909;fill:#FFFF00; fill-opacity: 0;"/>
<circle cx="433.37814009344714" cy="527.1921615025708" r="150" style="stroke:#000000; stroke-opacity: 0.05909090909090909;fill:#FFFF00; fill-opacity: 0;"/>
<path d="M 583.3781400934472 657.3572832378381 Z" style="stroke:#000000; stroke-opacity: 0.004545454545454545;fill:#33C2FF; fill-opacity: 0.04090909090909091;"/>
<circle cx="433.37814009344714" cy="657.3572832378381" r="150" style="stroke:#000000; stroke-opacity: 0.004545454545454545;fill:#33C2FF; fill-opacity: 0.04090909090909091;"/>
<path d="M 685.1453301853628 738.513909197478 Z" style="stroke:#000000; stroke-opacity: 0.05909090909090909;fill:#FFFF00; fill-opacity: 0;"/>
<circle cx="535.1453301853628" cy="738.513909197478" r="150" style="stroke:#000000; stroke-opacity: 0.05909090909090909;fill:#FFFF00; fill-opacity: 0;"/>
<path d="M 812.04694055762 709.549444740409 Z" style="stroke:#000000; stroke-opacity: 0.004545454545454545;fill:#33C2FF; fill-opacity: 0.04090909090909091;"/>
<circle cx="662.04694055762" cy="709.549444740409" r="150" style="stroke:#000000; stroke-opacity: 0.004545454545454545;fill:#33C2FF; fill-opacity: 0.04090909090909091;"/>
<path d="M 568.52347027881 592.2747223702045 L 718.52347027881 592.2747223702045 L 662.04694055762 709.549444740409 Z" style="stroke:#555555; stroke-opacity: 0.08636363636363636;fill:#C860AF; fill-opacity: 0;"/>
<path d="M 568.52347027881 592.2747223702045 L 662.04694055762 475 L 718.52347027881 592.2747223702045 Z" style="stroke:#555555; stroke-opacity: 0.08636363636363636;fill:#C860AF; fill-opacity: 0;"/>
<path d="M 568.52347027881 592.2747223702045 L 535.1453301853628 446.0355355429309 L 662.04694055762 475 Z" style="stroke:#555555; stroke-opacity: 0.08636363636363636;fill:#C860AF; fill-opacity: 0;"/>
<path d="M 568.52347027881 592.2747223702045 L 433.37814009344714 527.1921615025708 L 535.1453301853628 446.0355355429309 Z" style="stroke:#555555; stroke-opacity: 0.08636363636363636;fill:#C860AF; fill-opacity: 0;"/>
<path d="M 568.52347027881 592.2747223702045 L 433.37814009344714 657.3572832378381 L 433.37814009344714 527.1921615025708 Z" style="stroke:#555555; stroke-opacity: 0.08636363636363636;fill:#C860AF; fill-opacity: 0;"/>
<path d="M 568.52347027881 592.2747223702045 L 535.1453301853628 738.513909197478 L 433.37814009344714 657.3572832378381 Z" style="stroke:#555555; stroke-opacity: 0.08636363636363636;fill:#C860AF; fill-opacity: 0;"/>
<path d="M 568.52347027881 592.2747223702045 L 662.04694055762 709.549444740409 L 535.1453301853628 738.513909197478 Z" style="stroke:#555555; stroke-opacity: 0.08636363636363636;fill:#C860AF; fill-opacity: 0;"/>
<path d="M 718.52347027881 592.2747223702045 L 812.04694055762 709.549444740409 L 662.04694055762 709.549444740409 Z" style="stroke:#0000FF; stroke-opacity: 1;fill:#17C80A; fill-opacity: 0;"/>
<path d="M 662.04694055762 475 L 812.04694055762 475 L 718.52347027881 592.2747223702045 Z" style="stroke:#0000FF; stroke-opacity: 1;fill:#17C80A; fill-opacity: 0;"/>
<path d="M 535.1453301853628 446.0355355429309 L 628.6688004641728 328.76081317272644 L 662.04694055762 475 Z" style="stroke:#0000FF; stroke-opacity: 1;fill:#17C80A; fill-opacity: 0;"/>
<path d="M 433.37814009344714 527.1921615025708 L 399.99999999999994 380.9529746752973 L 535.1453301853628 446.0355355429309 Z" style="stroke:#0000FF; stroke-opacity: 1;fill:#17C80A; fill-opacity: 0;"/>
<path d="M 433.37814009344714 657.3572832378381 L 298.2328099080843 592.2747223702045 L 433.37814009344714 527.1921615025708 Z" style="stroke:#0000FF; stroke-opacity: 1;fill:#17C80A; fill-opacity: 0;"/>
<path d="M 535.1453301853628 738.513909197478 L 399.99999999999994 803.5964700651116 L 433.37814009344714 657.3572832378381 Z" style="stroke:#0000FF; stroke-opacity: 1;fill:#17C80A; fill-opacity: 0;"/>
<path d="M 662.04694055762 709.549444740409 L 628.6688004641728 855.7886315676824 L 535.1453301853628 738.513909197478 Z" style="stroke:#0000FF; stroke-opacity: 1;fill:#17C80A; fill-opacity: 0;"/>
<path d="M 718.52347027881 592.2747223702045 L 812.04694055762 709.549444740409 L 868.52347027881 592.2747223702045 L 812.04694055762 475 Z" style="stroke:#00B200; stroke-opacity: 0.2590909090909091;fill:#C8170A; fill-opacity: 0;"/>
<path d="M 662.04694055762 475 L 812.04694055762 475 L 755.57041083643 357.7252776297955 L 628.6688004641728 328.76081317272644 Z" style="stroke:#00B200; stroke-opacity: 0.2590909090909091;fill:#C8170A; fill-opacity: 0;"/>
<path d="M 535.1453301853628 446.0355355429309 L 628.6688004641728 328.76081317272644 L 501.7671900919156 299.7963487156574 L 399.99999999999994 380.9529746752973 Z" style="stroke:#00B200; stroke-opacity: 0.2590909090909091;fill:#C8170A; fill-opacity: 0;"/>
<path d="M 433.37814009344714 527.1921615025708 L 399.99999999999994 380.9529746752973 L 298.2328099080843 462.1096006349371 L 298.2328099080843 592.2747223702045 Z" style="stroke:#00B200; stroke-opacity: 0.2590909090909091;fill:#C8170A; fill-opacity: 0;"/>
<path d="M 433.37814009344714 657.3572832378381 L 298.2328099080843 592.2747223702045 L 298.2328099080843 722.4398441054718 L 399.99999999999994 803.5964700651116 Z" style="stroke:#00B200; stroke-opacity: 0.2590909090909091;fill:#C8170A; fill-opacity: 0;"/>
<path d="M 535.1453301853628 738.513909197478 L 399.99999999999994 803.5964700651116 L 501.7671900919156 884.7530960247516 L 628.6688004641728 855.7886315676824 Z" style="stroke:#00B200; stroke-opacity: 0.2590909090909091;fill:#C8170A; fill-opacity: 0;"/>
<path d="M 662.04694055762 709.549444740409 L 628.6688004641728 855.7886315676824 L 755.57041083643 826.8241671106134 L 812.04694055762 709.549444740409 Z" style="stroke:#00B200; stroke-opacity: 0.2590909090909091;fill:#C8170A; fill-opacity: 0;"/>
<path d="M 718.52347027881 592.2747223702045 L 812.04694055762 709.549444740409 L 812.04694055762 475 Z" style="stroke:#555555; stroke-opacity: 0.08636363636363636;fill:#C860AF; fill-opacity: 0;"/>
<path d="M 662.04694055762 475 L 812.04694055762 475 L 628.6688004641728 328.76081317272644 Z" style="stroke:#555555; stroke-opacity: 0.08636363636363636;fill:#C860AF; fill-opacity: 0;"/>
<path d="M 535.1453301853628 446.0355355429309 L 628.6688004641728 328.76081317272644 L 399.99999999999994 380.9529746752973 Z" style="stroke:#555555; stroke-opacity: 0.08636363636363636;fill:#C860AF; fill-opacity: 0;"/>
<path d="M 433.37814009344714 527.1921615025708 L 399.99999999999994 380.9529746752973 L 298.2328099080843 592.2747223702045 Z" style="stroke:#555555; stroke-opacity: 0.08636363636363636;fill:#C860AF; fill-opacity: 0;"/>
<path d="M 433.37814009344714 657.3572832378381 L 298.2328099080843 592.2747223702045 L 399.99999999999994 803.5964700651116 Z" style="stroke:#555555; stroke-opacity: 0.08636363636363636;fill:#C860AF; fill-opacity: 0;"/>
<path d="M 535.1453301853628 738.513909197478 L 399.99999999999994 803.5964700651116 L 628.6688004641728 855.7886315676824 Z" style="stroke:#555555; stroke-opacity: 0.08636363636363636;fill:#C860AF; fill-opacity: 0;"/>
<path d="M 662.04694055762 709.549444740409 L 628.6688004641728 855.7886315676824 L 812.04694055762 709.549444740409 Z" style="stroke:#555555; stroke-opacity: 0.08636363636363636;fill:#C860AF; fill-opacity: 0;"/>
<path d="M 591.6218599065528 621.2391868272736 Z" style="stroke:#AEAEAE; stroke-opacity: 0.07727272727272727;fill:#FFFB22; fill-opacity: 0.11363636363636363;"/>
<circle cx="441.62185990655286" cy="621.2391868272736" r="150" style="stroke:#AEAEAE; stroke-opacity: 0.07727272727272727;fill:#FFFB22; fill-opacity: 0.11363636363636363;"/>
<path d="M 741.6218599065528 621.2391868272736 Z" style="stroke:#000000; stroke-opacity: 0.004545454545454545;fill:#33C2FF; fill-opacity: 0.04090909090909091;"/>
<circle cx="591.6218599065528" cy="621.2391868272736" r="150" style="stroke:#000000; stroke-opacity: 0.004545454545454545;fill:#33C2FF; fill-opacity: 0.04090909090909091;"/>
<path d="M 685.1453301853628 503.964464457069 Z" style="stroke:#000000; stroke-opacity: 0.05909090909090909;fill:#FFFF00; fill-opacity: 0;"/>
<circle cx="535.1453301853628" cy="503.9644644570691" r="150" style="stroke:#000000; stroke-opacity: 0.05909090909090909;fill:#FFFF00; fill-opacity: 0;"/>
<path d="M 558.2437198131056 474.99999999999994 Z" style="stroke:#000000; stroke-opacity: 0.004545454545454545;fill:#33C2FF; fill-opacity: 0.04090909090909091;"/>
<circle cx="408.24371981310566" cy="475" r="150" style="stroke:#000000; stroke-opacity: 0.004545454545454545;fill:#33C2FF; fill-opacity: 0.04090909090909091;"/>
<path d="M 456.47652972119 556.1566259596399 Z" style="stroke:#000000; stroke-opacity: 0.05909090909090909;fill:#FFFF00; fill-opacity: 0;"/>
<circle cx="306.47652972119" cy="556.1566259596399" r="150" style="stroke:#000000; stroke-opacity: 0.05909090909090909;fill:#FFFF00; fill-opacity: 0;"/>
<path d="M 456.47652972119 686.3217476949073 Z" style="stroke:#000000; stroke-opacity: 0.004545454545454545;fill:#33C2FF; fill-opacity: 0.04090909090909091;"/>
<circle cx="306.47652972119" cy="686.3217476949073" r="150" style="stroke:#000000; stroke-opacity: 0.004545454545454545;fill:#33C2FF; fill-opacity: 0.04090909090909091;"/>
<path d="M 558.2437198131057 767.4783736545471 Z" style="stroke:#000000; stroke-opacity: 0.05909090909090909;fill:#FFFF00; fill-opacity: 0;"/>
<circle cx="408.2437198131057" cy="767.4783736545471" r="150" style="stroke:#000000; stroke-opacity: 0.05909090909090909;fill:#FFFF00; fill-opacity: 0;"/>
<path d="M 685.1453301853629 738.513909197478 Z" style="stroke:#000000; stroke-opacity: 0.004545454545454545;fill:#33C2FF; fill-opacity: 0.04090909090909091;"/>
<circle cx="535.1453301853629" cy="738.513909197478" r="150" style="stroke:#000000; stroke-opacity: 0.004545454545454545;fill:#33C2FF; fill-opacity: 0.04090909090909091;"/>
<path d="M 441.62185990655286 621.2391868272736 L 591.6218599065528 621.2391868272736 L 535.1453301853629 738.513909197478 Z" style="stroke:#555555; stroke-opacity: 0.08636363636363636;fill:#C860AF; fill-opacity: 0;"/>
<path d="M 441.62185990655286 621.2391868272736 L 535.1453301853628 503.9644644570691 L 591.6218599065528 621.2391868272736 Z" style="stroke:#555555; stroke-opacity: 0.08636363636363636;fill:#C860AF; fill-opacity: 0;"/>
<path d="M 441.62185990655286 621.2391868272736 L 408.24371981310566 475 L 535.1453301853628 503.9644644570691 Z" style="stroke:#555555; stroke-opacity: 0.08636363636363636;fill:#C860AF; fill-opacity: 0;"/>
<path d="M 441.62185990655286 621.2391868272736 L 306.47652972119 556.1566259596399 L 408.24371981310566 475 Z" style="stroke:#555555; stroke-opacity: 0.08636363636363636;fill:#C860AF; fill-opacity: 0;"/>
<path d="M 441.62185990655286 621.2391868272736 L 306.47652972119 686.3217476949073 L 306.47652972119 556.1566259596399 Z" style="stroke:#555555; stroke-opacity: 0.08636363636363636;fill:#C860AF; fill-opacity: 0;"/>
<path d="M 441.62185990655286 621.2391868272736 L 408.2437198131057 767.4783736545471 L 306.47652972119 686.3217476949073 Z" style="stroke:#555555; stroke-opacity: 0.08636363636363636;fill:#C860AF; fill-opacity: 0;"/>
<path d="M 441.62185990655286 621.2391868272736 L 535.1453301853629 738.513909197478 L 408.2437198131057 767.4783736545471 Z" style="stroke:#555555; stroke-opacity: 0.08636363636363636;fill:#C860AF; fill-opacity: 0;"/>
<path d="M 591.6218599065528 621.2391868272736 L 685.1453301853629 738.5139091974779 L 535.1453301853629 738.513909197478 Z" style="stroke:#0000FF; stroke-opacity: 1;fill:#17C80A; fill-opacity: 0;"/>
<path d="M 535.1453301853628 503.9644644570691 L 685.1453301853628 503.9644644570691 L 591.6218599065528 621.2391868272736 Z" style="stroke:#0000FF; stroke-opacity: 1;fill:#17C80A; fill-opacity: 0;"/>
<path d="M 408.24371981310566 475 L 501.76719009191567 357.7252776297955 L 535.1453301853628 503.9644644570691 Z" style="stroke:#0000FF; stroke-opacity: 1;fill:#17C80A; fill-opacity: 0;"/>
<path d="M 306.47652972119 556.1566259596399 L 273.09838962774273 409.9174391323663 L 408.24371981310566 475 Z" style="stroke:#0000FF; stroke-opacity: 1;fill:#17C80A; fill-opacity: 0;"/>
<path d="M 306.47652972119 686.3217476949073 L 171.33119953582712 621.2391868272737 L 306.47652972119 556.1566259596399 Z" style="stroke:#0000FF; stroke-opacity: 1;fill:#17C80A; fill-opacity: 0;"/>
<path d="M 408.2437198131057 767.4783736545471 L 273.0983896277429 832.5609345221809 L 306.47652972119 686.3217476949073 Z" style="stroke:#0000FF; stroke-opacity: 1;fill:#17C80A; fill-opacity: 0;"/>
<path d="M 535.1453301853629 738.513909197478 L 501.7671900919158 884.7530960247516 L 408.2437198131057 767.4783736545471 Z" style="stroke:#0000FF; stroke-opacity: 1;fill:#17C80A; fill-opacity: 0;"/>
<path d="M 591.6218599065528 621.2391868272736 L 685.1453301853629 738.5139091974779 L 741.6218599065528 621.2391868272736 L 685.1453301853628 503.9644644570691 Z" style="stroke:#00B200; stroke-opacity: 0.2590909090909091;fill:#C8170A; fill-opacity: 0;"/>
<path d="M 535.1453301853628 503.9644644570691 L 685.1453301853628 503.9644644570691 L 628.6688004641728 386.68974208686456 L 501.76719009191567 357.7252776297955 Z" style="stroke:#00B200; stroke-opacity: 0.2590909090909091;fill:#C8170A; fill-opacity: 0;"/>
<path d="M 408.24371981310566 475 L 501.76719009191567 357.7252776297955 L 374.86557971965846 328.7608131727265 L 273.09838962774273 409.9174391323663 Z" style="stroke:#00B200; stroke-opacity: 0.2590909090909091;fill:#C8170A; fill-opacity: 0;"/>
<path d="M 306.47652972119 556.1566259596399 L 273.09838962774273 409.9174391323663 L 171.33119953582712 491.0740650920062 L 171.33119953582712 621.2391868272737 Z" style="stroke:#00B200; stroke-opacity: 0.2590909090909091;fill:#C8170A; fill-opacity: 0;"/>
<path d="M 306.47652972119 686.3217476949073 L 171.33119953582712 621.2391868272737 L 171.33119953582718 751.4043085625411 L 273.0983896277429 832.5609345221809 Z" style="stroke:#00B200; stroke-opacity: 0.2590909090909091;fill:#C8170A; fill-opacity: 0;"/>
<path d="M 408.2437198131057 767.4783736545471 L 273.0983896277429 832.5609345221809 L 374.86557971965857 913.7175604818207 L 501.7671900919158 884.7530960247516 Z" style="stroke:#00B200; stroke-opacity: 0.2590909090909091;fill:#C8170A; fill-opacity: 0;"/>
<path d="M 535.1453301853629 738.513909197478 L 501.7671900919158 884.7530960247516 L 628.6688004641729 855.7886315676825 L 685.1453301853629 738.5139091974779 Z" style="stroke:#00B200; stroke-opacity: 0.2590909090909091;fill:#C8170A; fill-opacity: 0;"/>
<path d="M 591.6218599065528 621.2391868272736 L 685.1453301853629 738.5139091974779 L 685.1453301853628 503.9644644570691 Z" style="stroke:#555555; stroke-opacity: 0.08636363636363636;fill:#C860AF; fill-opacity: 0;"/>
<path d="M 535.1453301853628 503.9644644570691 L 685.1453301853628 503.9644644570691 L 501.76719009191567 357.7252776297955 Z" style="stroke:#555555; stroke-opacity: 0.08636363636363636;fill:#C860AF; fill-opacity: 0;"/>
<path d="M 408.24371981310566 475 L 501.76719009191567 357.7252776297955 L 273.09838962774273 409.9174391323663 Z" style="stroke:#555555; stroke-opacity: 0.08636363636363636;fill:#C860AF; fill-opacity: 0;"/>
<path d="M 306.47652972119 556.1566259596399 L 273.09838962774273 409.9174391323663 L 171.33119953582712 621.2391868272737 Z" style="stroke:#555555; stroke-opacity: 0.08636363636363636;fill:#C860AF; fill-opacity: 0;"/>
<path d="M 306.47652972119 686.3217476949073 L 171.33119953582712 621.2391868272737 L 273.0983896277429 832.5609345221809 Z" style="stroke:#555555; stroke-opacity: 0.08636363636363636;fill:#C860AF; fill-opacity: 0;"/>
<path d="M 408.2437198131057 767.4783736545471 L 273.0983896277429 832.5609345221809 L 501.7671900919158 884.7530960247516 Z" style="stroke:#555555; stroke-opacity: 0.08636363636363636;fill:#C860AF; fill-opacity: 0;"/>
<path d="M 535.1453301853629 738.513909197478 L 501.7671900919158 884.7530960247516 L 685.1453301853629 738.5139091974779 Z" style="stroke:#555555; stroke-opacity: 0.08636363636363636;fill:#C860AF; fill-opacity: 0;"/>
<path d="M 489.85466981463713 540.0825608676337 Z" style="stroke:#AEAEAE; stroke-opacity: 0.07727272727272727;fill:#FFFB22; fill-opacity: 0.11363636363636363;"/>
<circle cx="339.85466981463713" cy="540.0825608676337" r="150" style="stroke:#AEAEAE; stroke-opacity: 0.07727272727272727;fill:#FFFB22; fill-opacity: 0.11363636363636363;"/>
<path d="M 639.8546698146372 540.0825608676337 Z" style="stroke:#000000; stroke-opacity: 0.004545454545454545;fill:#33C2FF; fill-opacity: 0.04090909090909091;"/>
<circle cx="489.85466981463713" cy="540.0825608676337" r="150" style="stroke:#000000; stroke-opacity: 0.004545454545454545;fill:#33C2FF; fill-opacity: 0.04090909090909091;"/>
<path d="M 583.3781400934472 422.80783849742915 Z" style="stroke:#000000; stroke-opacity: 0.05909090909090909;fill:#FFFF00; fill-opacity: 0;"/>
<circle cx="433.37814009344714" cy="422.8078384974292" r="150" style="stroke:#000000; stroke-opacity: 0.05909090909090909;fill:#FFFF00; fill-opacity: 0;"/>
<path d="M 456.47652972118993 393.84337404036006 Z" style="stroke:#000000; stroke-opacity: 0.004545454545454545;fill:#33C2FF; fill-opacity: 0.04090909090909091;"/>
<circle cx="306.47652972118993" cy="393.8433740403601" r="150" style="stroke:#000000; stroke-opacity: 0.004545454545454545;fill:#33C2FF; fill-opacity: 0.04090909090909091;"/>
<path d="M 354.70933962927427 474.99999999999994 Z" style="stroke:#000000; stroke-opacity: 0.05909090909090909;fill:#FFFF00; fill-opacity: 0;"/>
<circle cx="204.70933962927427" cy="475" r="150" style="stroke:#000000; stroke-opacity: 0.05909090909090909;fill:#FFFF00; fill-opacity: 0;"/>
<path d="M 354.70933962927427 605.1651217352673 Z" style="stroke:#000000; stroke-opacity: 0.004545454545454545;fill:#33C2FF; fill-opacity: 0.04090909090909091;"/>
<circle cx="204.70933962927427" cy="605.1651217352673" r="150" style="stroke:#000000; stroke-opacity: 0.004545454545454545;fill:#33C2FF; fill-opacity: 0.04090909090909091;"/>
<path d="M 456.47652972119 686.3217476949072 Z" style="stroke:#000000; stroke-opacity: 0.05909090909090909;fill:#FFFF00; fill-opacity: 0;"/>
<circle cx="306.47652972119" cy="686.3217476949072" r="150" style="stroke:#000000; stroke-opacity: 0.05909090909090909;fill:#FFFF00; fill-opacity: 0;"/>
<path d="M 583.3781400934472 657.3572832378381 Z" style="stroke:#000000; stroke-opacity: 0.004545454545454545;fill:#33C2FF; fill-opacity: 0.04090909090909091;"/>
<circle cx="433.3781400934472" cy="657.3572832378381" r="150" style="stroke:#000000; stroke-opacity: 0.004545454545454545;fill:#33C2FF; fill-opacity: 0.04090909090909091;"/>
<path d="M 339.85466981463713 540.0825608676337 L 489.85466981463713 540.0825608676337 L 433.3781400934472 657.3572832378381 Z" style="stroke:#555555; stroke-opacity: 0.08636363636363636;fill:#C860AF; fill-opacity: 0;"/>
<path d="M 339.85466981463713 540.0825608676337 L 433.37814009344714 422.8078384974292 L 489.85466981463713 540.0825608676337 Z" style="stroke:#555555; stroke-opacity: 0.08636363636363636;fill:#C860AF; fill-opacity: 0;"/>
<path d="M 339.85466981463713 540.0825608676337 L 306.47652972118993 393.8433740403601 L 433.37814009344714 422.8078384974292 Z" style="stroke:#555555; stroke-opacity: 0.08636363636363636;fill:#C860AF; fill-opacity: 0;"/>
<path d="M 339.85466981463713 540.0825608676337 L 204.70933962927427 475 L 306.47652972118993 393.8433740403601 Z" style="stroke:#555555; stroke-opacity: 0.08636363636363636;fill:#C860AF; fill-opacity: 0;"/>
<path d="M 339.85466981463713 540.0825608676337 L 204.70933962927427 605.1651217352673 L 204.70933962927427 475 Z" style="stroke:#555555; stroke-opacity: 0.08636363636363636;fill:#C860AF; fill-opacity: 0;"/>
<path d="M 339.85466981463713 540.0825608676337 L 306.47652972119 686.3217476949072 L 204.70933962927427 605.1651217352673 Z" style="stroke:#555555; stroke-opacity: 0.08636363636363636;fill:#C860AF; fill-opacity: 0;"/>
<path d="M 339.85466981463713 540.0825608676337 L 433.3781400934472 657.3572832378381 L 306.47652972119 686.3217476949072 Z" style="stroke:#555555; stroke-opacity: 0.08636363636363636;fill:#C860AF; fill-opacity: 0;"/>
<path d="M 489.85466981463713 540.0825608676337 L 583.3781400934472 657.3572832378381 L 433.3781400934472 657.3572832378381 Z" style="stroke:#0000FF; stroke-opacity: 1;fill:#17C80A; fill-opacity: 0;"/>
<path d="M 433.37814009344714 422.8078384974292 L 583.3781400934471 422.8078384974292 L 489.85466981463713 540.0825608676337 Z" style="stroke:#0000FF; stroke-opacity: 1;fill:#17C80A; fill-opacity: 0;"/>
<path d="M 306.47652972118993 393.8433740403601 L 400 276.56865167015565 L 433.37814009344714 422.8078384974292 Z" style="stroke:#0000FF; stroke-opacity: 1;fill:#17C80A; fill-opacity: 0;"/>
<path d="M 204.70933962927427 475 L 171.33119953582704 328.7608131727265 L 306.47652972118993 393.8433740403601 Z" style="stroke:#0000FF; stroke-opacity: 1;fill:#17C80A; fill-opacity: 0;"/>
<path d="M 204.70933962927427 605.1651217352673 L 69.56400944391137 540.0825608676337 L 204.70933962927427 475 Z" style="stroke:#0000FF; stroke-opacity: 1;fill:#17C80A; fill-opacity: 0;"/>
<path d="M 306.47652972119 686.3217476949072 L 171.3311995358271 751.4043085625408 L 204.70933962927427 605.1651217352673 Z" style="stroke:#0000FF; stroke-opacity: 1;fill:#17C80A; fill-opacity: 0;"/>
<path d="M 433.3781400934472 657.3572832378381 L 400.00000000000006 803.5964700651116 L 306.47652972119 686.3217476949072 Z" style="stroke:#0000FF; stroke-opacity: 1;fill:#17C80A; fill-opacity: 0;"/>
<path d="M 489.85466981463713 540.0825608676337 L 583.3781400934472 657.3572832378381 L 639.8546698146372 540.0825608676337 L 583.3781400934471 422.8078384974292 Z" style="stroke:#00B200; stroke-opacity: 0.2590909090909091;fill:#C8170A; fill-opacity: 0;"/>
<path d="M 433.37814009344714 422.8078384974292 L 583.3781400934471 422.8078384974292 L 526.9016103722572 305.53311612722473 L 400 276.56865167015565 Z" style="stroke:#00B200; stroke-opacity: 0.2590909090909091;fill:#C8170A; fill-opacity: 0;"/>
<path d="M 306.47652972118993 393.8433740403601 L 400 276.56865167015565 L 273.09838962774273 247.60418721308662 L 171.33119953582704 328.7608131727265 Z" style="stroke:#00B200; stroke-opacity: 0.2590909090909091;fill:#C8170A; fill-opacity: 0;"/>
<path d="M 204.70933962927427 475 L 171.33119953582704 328.7608131727265 L 69.5640094439114 409.9174391323663 L 69.56400944391137 540.0825608676337 Z" style="stroke:#00B200; stroke-opacity: 0.2590909090909091;fill:#C8170A; fill-opacity: 0;"/>
<path d="M 204.70933962927427 605.1651217352673 L 69.56400944391137 540.0825608676337 L 69.5640094439114 670.247682602901 L 171.3311995358271 751.4043085625408 Z" style="stroke:#00B200; stroke-opacity: 0.2590909090909091;fill:#C8170A; fill-opacity: 0;"/>
<path d="M 306.47652972119 686.3217476949072 L 171.3311995358271 751.4043085625408 L 273.09838962774285 832.5609345221808 L 400.00000000000006 803.5964700651116 Z" style="stroke:#00B200; stroke-opacity: 0.2590909090909091;fill:#C8170A; fill-opacity: 0;"/>
<path d="M 433.3781400934472 657.3572832378381 L 400.00000000000006 803.5964700651116 L 526.9016103722572 774.6320056080426 L 583.3781400934472 657.3572832378381 Z" style="stroke:#00B200; stroke-opacity: 0.2590909090909091;fill:#C8170A; fill-opacity: 0;"/>
<path d="M 489.85466981463713 540.0825608676337 L 583.3781400934472 657.3572832378381 L 583.3781400934471 422.8078384974292 Z" style="stroke:#555555; stroke-opacity: 0.08636363636363636;fill:#C860AF; fill-opacity: 0;"/>
<path d="M 433.37814009344714 422.8078384974292 L 583.3781400934471 422.8078384974292 L 400 276.56865167015565 Z" style="stroke:#555555; stroke-opacity: 0.08636363636363636;fill:#C860AF; fill-opacity: 0;"/>
<path d="M 306.47652972118993 393.8433740403601 L 400 276.56865167015565 L 171.33119953582704 328.7608131727265 Z" style="stroke:#555555; stroke-opacity: 0.08636363636363636;fill:#C860AF; fill-opacity: 0;"/>
<path d="M 204.70933962927427 475 L 171.33119953582704 328.7608131727265 L 69.56400944391137 540.0825608676337 Z" style="stroke:#555555; stroke-opacity: 0.08636363636363636;fill:#C860AF; fill-opacity: 0;"/>
<path d="M 204.70933962927427 605.1651217352673 L 69.56400944391137 540.0825608676337 L 171.3311995358271 751.4043085625408 Z" style="stroke:#555555; stroke-opacity: 0.08636363636363636;fill:#C860AF; fill-opacity: 0;"/>
<path d="M 306.47652972119 686.3217476949072 L 171.3311995358271 751.4043085625408 L 400.00000000000006 803.5964700651116 Z" style="stroke:#555555; stroke-opacity: 0.08636363636363636;fill:#C860AF; fill-opacity: 0;"/>
<path d="M 433.3781400934472 657.3572832378381 L 400.00000000000006 803.5964700651116 L 583.3781400934472 657.3572832378381 Z" style="stroke:#555555; stroke-opacity: 0.08636363636363636;fill:#C860AF; fill-opacity: 0;"/>
<path d="M 489.85466981463713 409.91743913236627 Z" style="stroke:#AEAEAE; stroke-opacity: 0.07727272727272727;fill:#FFFB22; fill-opacity: 0.11363636363636363;"/>
<circle cx="339.85466981463713" cy="409.9174391323663" r="150" style="stroke:#AEAEAE; stroke-opacity: 0.07727272727272727;fill:#FFFB22; fill-opacity: 0.11363636363636363;"/>
<path d="M 639.8546698146372 409.9174391323662 Z" style="stroke:#000000; stroke-opacity: 0.004545454545454545;fill:#33C2FF; fill-opacity: 0.04090909090909091;"/>
<circle cx="489.85466981463713" cy="409.91743913236627" r="150" style="stroke:#000000; stroke-opacity: 0.004545454545454545;fill:#33C2FF; fill-opacity: 0.04090909090909091;"/>
<path d="M 583.3781400934472 292.6427167621618 Z" style="stroke:#000000; stroke-opacity: 0.05909090909090909;fill:#FFFF00; fill-opacity: 0;"/>
<circle cx="433.37814009344714" cy="292.64271676216185" r="150" style="stroke:#000000; stroke-opacity: 0.05909090909090909;fill:#FFFF00; fill-opacity: 0;"/>
<path d="M 456.47652972118993 263.6782523050927 Z" style="stroke:#000000; stroke-opacity: 0.004545454545454545;fill:#33C2FF; fill-opacity: 0.04090909090909091;"/>
<circle cx="306.47652972118993" cy="263.67825230509277" r="150" style="stroke:#000000; stroke-opacity: 0.004545454545454545;fill:#33C2FF; fill-opacity: 0.04090909090909091;"/>
<path d="M 354.70933962927427 344.8348782647326 Z" style="stroke:#000000; stroke-opacity: 0.05909090909090909;fill:#FFFF00; fill-opacity: 0;"/>
<circle cx="204.70933962927427" cy="344.83487826473265" r="150" style="stroke:#000000; stroke-opacity: 0.05909090909090909;fill:#FFFF00; fill-opacity: 0;"/>
<path d="M 354.70933962927427 475 Z" style="stroke:#000000; stroke-opacity: 0.004545454545454545;fill:#33C2FF; fill-opacity: 0.04090909090909091;"/>
<circle cx="204.70933962927427" cy="475.00000000000006" r="150" style="stroke:#000000; stroke-opacity: 0.004545454545454545;fill:#33C2FF; fill-opacity: 0.04090909090909091;"/>
<path d="M 456.47652972119 556.1566259596399 Z" style="stroke:#000000; stroke-opacity: 0.05909090909090909;fill:#FFFF00; fill-opacity: 0;"/>
<circle cx="306.47652972119" cy="556.1566259596399" r="150" style="stroke:#000000; stroke-opacity: 0.05909090909090909;fill:#FFFF00; fill-opacity: 0;"/>
<path d="M 583.3781400934472 527.1921615025708 Z" style="stroke:#000000; stroke-opacity: 0.004545454545454545;fill:#33C2FF; fill-opacity: 0.04090909090909091;"/>
<circle cx="433.3781400934472" cy="527.1921615025708" r="150" style="stroke:#000000; stroke-opacity: 0.004545454545454545;fill:#33C2FF; fill-opacity: 0.04090909090909091;"/>
<path d="M 339.85466981463713 409.9174391323663 L 489.85466981463713 409.91743913236627 L 433.3781400934472 527.1921615025708 Z" style="stroke:#555555; stroke-opacity: 0.08636363636363636;fill:#C860AF; fill-opacity: 0;"/>
<path d="M 339.85466981463713 409.9174391323663 L 433.37814009344714 292.64271676216185 L 489.85466981463713 409.91743913236627 Z" style="stroke:#555555; stroke-opacity: 0.08636363636363636;fill:#C860AF; fill-opacity: 0;"/>
<path d="M 339.85466981463713 409.9174391323663 L 306.47652972118993 263.67825230509277 L 433.37814009344714 292.64271676216185 Z" style="stroke:#555555; stroke-opacity: 0.08636363636363636;fill:#C860AF; fill-opacity: 0;"/>
<path d="M 339.85466981463713 409.9174391323663 L 204.70933962927427 344.83487826473265 L 306.47652972118993 263.67825230509277 Z" style="stroke:#555555; stroke-opacity: 0.08636363636363636;fill:#C860AF; fill-opacity: 0;"/>
<path d="M 339.85466981463713 409.9174391323663 L 204.70933962927427 475.00000000000006 L 204.70933962927427 344.83487826473265 Z" style="stroke:#555555; stroke-opacity: 0.08636363636363636;fill:#C860AF; fill-opacity: 0;"/>
<path d="M 339.85466981463713 409.9174391323663 L 306.47652972119 556.1566259596399 L 204.70933962927427 475.00000000000006 Z" style="stroke:#555555; stroke-opacity: 0.08636363636363636;fill:#C860AF; fill-opacity: 0;"/>
<path d="M 339.85466981463713 409.9174391323663 L 433.3781400934472 527.1921615025708 L 306.47652972119 556.1566259596399 Z" style="stroke:#555555; stroke-opacity: 0.08636363636363636;fill:#C860AF; fill-opacity: 0;"/>
<path d="M 489.85466981463713 409.91743913236627 L 583.3781400934472 527.1921615025707 L 433.3781400934472 527.1921615025708 Z" style="stroke:#0000FF; stroke-opacity: 1;fill:#17C80A; fill-opacity: 0;"/>
<path d="M 433.37814009344714 292.64271676216185 L 583.3781400934471 292.64271676216185 L 489.85466981463713 409.91743913236627 Z" style="stroke:#0000FF; stroke-opacity: 1;fill:#17C80A; fill-opacity: 0;"/>
<path d="M 306.47652972118993 263.67825230509277 L 400 146.40352993488833 L 433.37814009344714 292.64271676216185 Z" style="stroke:#0000FF; stroke-opacity: 1;fill:#17C80A; fill-opacity: 0;"/>
<path d="M 204.70933962927427 344.83487826473265 L 171.33119953582704 198.59569143745915 L 306.47652972118993 263.67825230509277 Z" style="stroke:#0000FF; stroke-opacity: 1;fill:#17C80A; fill-opacity: 0;"/>
<path d="M 204.70933962927427 475.00000000000006 L 69.5640094439114 409.9174391323663 L 204.70933962927427 344.83487826473265 Z" style="stroke:#0000FF; stroke-opacity: 1;fill:#17C80A; fill-opacity: 0;"/>
<path d="M 306.47652972119 556.1566259596399 L 171.33119953582712 621.2391868272737 L 204.70933962927427 475.00000000000006 Z" style="stroke:#0000FF; stroke-opacity: 1;fill:#17C80A; fill-opacity: 0;"/>
<path d="M 433.3781400934472 527.1921615025708 L 400.00000000000006 673.4313483298442 L 306.47652972119 556.1566259596399 Z" style="stroke:#0000FF; stroke-opacity: 1;fill:#17C80A; fill-opacity: 0;"/>
<path d="M 489.85466981463713 409.91743913236627 L 583.3781400934472 527.1921615025707 L 639.8546698146372 409.9174391323662 L 583.3781400934471 292.64271676216185 Z" style="stroke:#00B200; stroke-opacity: 0.2590909090909091;fill:#C8170A; fill-opacity: 0;"/>
<path d="M 433.37814009344714 292.64271676216185 L 583.3781400934471 292.64271676216185 L 526.9016103722572 175.36799439195738 L 400 146.40352993488833 Z" style="stroke:#00B200; stroke-opacity: 0.2590909090909091;fill:#C8170A; fill-opacity: 0;"/>
<path d="M 306.47652972118993 263.67825230509277 L 400 146.40352993488833 L 273.09838962774273 117.43906547781927 L 171.33119953582704 198.59569143745915 Z" style="stroke:#00B200; stroke-opacity: 0.2590909090909091;fill:#C8170A; fill-opacity: 0;"/>
<path d="M 204.70933962927427 344.83487826473265 L 171.33119953582704 198.59569143745915 L 69.5640094439114 279.752317397099 L 69.5640094439114 409.9174391323663 Z" style="stroke:#00B200; stroke-opacity: 0.2590909090909091;fill:#C8170A; fill-opacity: 0;"/>
<path d="M 204.70933962927427 475.00000000000006 L 69.5640094439114 409.9174391323663 L 69.5640094439114 540.0825608676338 L 171.33119953582712 621.2391868272737 Z" style="stroke:#00B200; stroke-opacity: 0.2590909090909091;fill:#C8170A; fill-opacity: 0;"/>
<path d="M 306.47652972119 556.1566259596399 L 171.33119953582712 621.2391868272737 L 273.09838962774285 702.3958127869134 L 400.00000000000006 673.4313483298442 Z" style="stroke:#00B200; stroke-opacity: 0.2590909090909091;fill:#C8170A; fill-opacity: 0;"/>
<path d="M 433.3781400934472 527.1921615025708 L 400.00000000000006 673.4313483298442 L 526.9016103722572 644.4668838727753 L 583.3781400934472 527.1921615025707 Z" style="stroke:#00B200; stroke-opacity: 0.2590909090909091;fill:#C8170A; fill-opacity: 0;"/>
<path d="M 489.85466981463713 409.91743913236627 L 583.3781400934472 527.1921615025707 L 583.3781400934471 292.64271676216185 Z" style="stroke:#555555; stroke-opacity: 0.08636363636363636;fill:#C860AF; fill-opacity: 0;"/>
<path d="M 433.37814009344714 292.64271676216185 L 583.3781400934471 292.64271676216185 L 400 146.40352993488833 Z" style="stroke:#555555; stroke-opacity: 0.08636363636363636;fill:#C860AF; fill-opacity: 0;"/>
<path d="M 306.47652972118993 263.67825230509277 L 400 146.40352993488833 L 171.33119953582704 198.59569143745915 Z" style="stroke:#555555; stroke-opacity: 0.08636363636363636;fill:#C860AF; fill-opacity: 0;"/>
<path d="M 204.70933962927427 344.83487826473265 L 171.33119953582704 198.59569143745915 L 69.5640094439114 409.9174391323663 Z" style="stroke:#555555; stroke-opacity: 0.08636363636363636;fill:#C860AF; fill-opacity: 0;"/>
<path d="M 204.70933962927427 475.00000000000006 L 69.5640094439114 409.9174391323663 L 171.33119953582712 621.2391868272737 Z" style="stroke:#555555; stroke-opacity: 0.08636363636363636;fill:#C860AF; fill-opacity: 0;"/>
<path d="M 306.47652972119 556.1566259596399 L 171.33119953582712 621.2391868272737 L 400.00000000000006 673.4313483298442 Z" style="stroke:#555555; stroke-opacity: 0.08636363636363636;fill:#C860AF; fill-opacity: 0;"/>
<path d="M 433.3781400934472 527.1921615025708 L 400.00000000000006 673.4313483298442 L 583.3781400934472 527.1921615025707 Z" style="stroke:#555555; stroke-opacity: 0.08636363636363636;fill:#C860AF; fill-opacity: 0;"/>
<path d="M 591.6218599065528 328.7608131727264 Z" style="stroke:#AEAEAE; stroke-opacity: 0.07727272727272727;fill:#FFFB22; fill-opacity: 0.11363636363636363;"/>
<circle cx="441.6218599065528" cy="328.76081317272644" r="150" style="stroke:#AEAEAE; stroke-opacity: 0.07727272727272727;fill:#FFFB22; fill-opacity: 0.11363636363636363;"/>
<path d="M 741.6218599065528 328.76081317272633 Z" style="stroke:#000000; stroke-opacity: 0.004545454545454545;fill:#33C2FF; fill-opacity: 0.04090909090909091;"/>
<circle cx="591.6218599065528" cy="328.7608131727264" r="150" style="stroke:#000000; stroke-opacity: 0.004545454545454545;fill:#33C2FF; fill-opacity: 0.04090909090909091;"/>
<path d="M 685.1453301853628 211.48609080252194 Z" style="stroke:#000000; stroke-opacity: 0.05909090909090909;fill:#FFFF00; fill-opacity: 0;"/>
<circle cx="535.1453301853628" cy="211.48609080252197" r="150" style="stroke:#000000; stroke-opacity: 0.05909090909090909;fill:#FFFF00; fill-opacity: 0;"/>
<path d="M 558.2437198131056 182.5216263454529 Z" style="stroke:#000000; stroke-opacity: 0.004545454545454545;fill:#33C2FF; fill-opacity: 0.04090909090909091;"/>
<circle cx="408.2437198131056" cy="182.52162634545292" r="150" style="stroke:#000000; stroke-opacity: 0.004545454545454545;fill:#33C2FF; fill-opacity: 0.04090909090909091;"/>
<path d="M 456.47652972118993 263.6782523050927 Z" style="stroke:#000000; stroke-opacity: 0.05909090909090909;fill:#FFFF00; fill-opacity: 0;"/>
<circle cx="306.47652972118993" cy="263.67825230509277" r="150" style="stroke:#000000; stroke-opacity: 0.05909090909090909;fill:#FFFF00; fill-opacity: 0;"/>
<path d="M 456.47652972118993 393.8433740403601 Z" style="stroke:#000000; stroke-opacity: 0.004545454545454545;fill:#33C2FF; fill-opacity: 0.04090909090909091;"/>
<circle cx="306.47652972118993" cy="393.8433740403602" r="150" style="stroke:#000000; stroke-opacity: 0.004545454545454545;fill:#33C2FF; fill-opacity: 0.04090909090909091;"/>
<path d="M 558.2437198131056 474.99999999999994 Z" style="stroke:#000000; stroke-opacity: 0.05909090909090909;fill:#FFFF00; fill-opacity: 0;"/>
<circle cx="408.24371981310566" cy="475" r="150" style="stroke:#000000; stroke-opacity: 0.05909090909090909;fill:#FFFF00; fill-opacity: 0;"/>
<path d="M 685.1453301853628 446.03553554293086 Z" style="stroke:#000000; stroke-opacity: 0.004545454545454545;fill:#33C2FF; fill-opacity: 0.04090909090909091;"/>
<circle cx="535.1453301853628" cy="446.0355355429309" r="150" style="stroke:#000000; stroke-opacity: 0.004545454545454545;fill:#33C2FF; fill-opacity: 0.04090909090909091;"/>
<path d="M 441.6218599065528 328.76081317272644 L 591.6218599065528 328.7608131727264 L 535.1453301853628 446.0355355429309 Z" style="stroke:#555555; stroke-opacity: 0.08636363636363636;fill:#C860AF; fill-opacity: 0;"/>
<path d="M 441.6218599065528 328.76081317272644 L 535.1453301853628 211.48609080252197 L 591.6218599065528 328.7608131727264 Z" style="stroke:#555555; stroke-opacity: 0.08636363636363636;fill:#C860AF; fill-opacity: 0;"/>
<path d="M 441.6218599065528 328.76081317272644 L 408.2437198131056 182.52162634545292 L 535.1453301853628 211.48609080252197 Z" style="stroke:#555555; stroke-opacity: 0.08636363636363636;fill:#C860AF; fill-opacity: 0;"/>
<path d="M 441.6218599065528 328.76081317272644 L 306.47652972118993 263.67825230509277 L 408.2437198131056 182.52162634545292 Z" style="stroke:#555555; stroke-opacity: 0.08636363636363636;fill:#C860AF; fill-opacity: 0;"/>
<path d="M 441.6218599065528 328.76081317272644 L 306.47652972118993 393.8433740403602 L 306.47652972118993 263.67825230509277 Z" style="stroke:#555555; stroke-opacity: 0.08636363636363636;fill:#C860AF; fill-opacity: 0;"/>
<path d="M 441.6218599065528 328.76081317272644 L 408.24371981310566 475 L 306.47652972118993 393.8433740403602 Z" style="stroke:#555555; stroke-opacity: 0.08636363636363636;fill:#C860AF; fill-opacity: 0;"/>
<path d="M 441.6218599065528 328.76081317272644 L 535.1453301853628 446.0355355429309 L 408.24371981310566 475 Z" style="stroke:#555555; stroke-opacity: 0.08636363636363636;fill:#C860AF; fill-opacity: 0;"/>
<path d="M 591.6218599065528 328.7608131727264 L 685.1453301853628 446.0355355429309 L 535.1453301853628 446.0355355429309 Z" style="stroke:#0000FF; stroke-opacity: 1;fill:#17C80A; fill-opacity: 0;"/>
<path d="M 535.1453301853628 211.48609080252197 L 685.1453301853628 211.48609080252194 L 591.6218599065528 328.7608131727264 Z" style="stroke:#0000FF; stroke-opacity: 1;fill:#17C80A; fill-opacity: 0;"/>
<path d="M 408.2437198131056 182.52162634545292 L 501.7671900919156 65.24690397524844 L 535.1453301853628 211.48609080252197 Z" style="stroke:#0000FF; stroke-opacity: 1;fill:#17C80A; fill-opacity: 0;"/>
<path d="M 306.47652972118993 263.67825230509277 L 273.0983896277428 117.43906547781926 L 408.2437198131056 182.52162634545292 Z" style="stroke:#0000FF; stroke-opacity: 1;fill:#17C80A; fill-opacity: 0;"/>
<path d="M 306.47652972118993 393.8433740403602 L 171.33119953582707 328.76081317272644 L 306.47652972118993 263.67825230509277 Z" style="stroke:#0000FF; stroke-opacity: 1;fill:#17C80A; fill-opacity: 0;"/>
<path d="M 408.24371981310566 475 L 273.0983896277428 540.0825608676337 L 306.47652972118993 393.8433740403602 Z" style="stroke:#0000FF; stroke-opacity: 1;fill:#17C80A; fill-opacity: 0;"/>
<path d="M 535.1453301853628 446.0355355429309 L 501.76719009191567 592.2747223702045 L 408.24371981310566 475 Z" style="stroke:#0000FF; stroke-opacity: 1;fill:#17C80A; fill-opacity: 0;"/>
<path d="M 591.6218599065528 328.7608131727264 L 685.1453301853628 446.0355355429309 L 741.6218599065528 328.76081317272633 L 685.1453301853628 211.48609080252194 Z" style="stroke:#00B200; stroke-opacity: 0.2590909090909091;fill:#C8170A; fill-opacity: 0;"/>
<path d="M 535.1453301853628 211.48609080252197 L 685.1453301853628 211.48609080252194 L 628.6688004641728 94.2113684323175 L 501.7671900919156 65.24690397524844 Z" style="stroke:#00B200; stroke-opacity: 0.2590909090909091;fill:#C8170A; fill-opacity: 0;"/>
<path d="M 408.2437198131056 182.52162634545292 L 501.7671900919156 65.24690397524844 L 374.8655797196584 36.28243951817939 L 273.0983896277428 117.43906547781926 Z" style="stroke:#00B200; stroke-opacity: 0.2590909090909091;fill:#C8170A; fill-opacity: 0;"/>
<path d="M 306.47652972118993 263.67825230509277 L 273.0983896277428 117.43906547781926 L 171.33119953582707 198.5956914374591 L 171.33119953582707 328.76081317272644 Z" style="stroke:#00B200; stroke-opacity: 0.2590909090909091;fill:#C8170A; fill-opacity: 0;"/>
<path d="M 306.47652972118993 393.8433740403602 L 171.33119953582707 328.76081317272644 L 171.33119953582707 458.9259349079939 L 273.0983896277428 540.0825608676337 Z" style="stroke:#00B200; stroke-opacity: 0.2590909090909091;fill:#C8170A; fill-opacity: 0;"/>
<path d="M 408.24371981310566 475 L 273.0983896277428 540.0825608676337 L 374.8655797196585 621.2391868272736 L 501.76719009191567 592.2747223702045 Z" style="stroke:#00B200; stroke-opacity: 0.2590909090909091;fill:#C8170A; fill-opacity: 0;"/>
<path d="M 535.1453301853628 446.0355355429309 L 501.76719009191567 592.2747223702045 L 628.6688004641728 563.3102579131354 L 685.1453301853628 446.0355355429309 Z" style="stroke:#00B200; stroke-opacity: 0.2590909090909091;fill:#C8170A; fill-opacity: 0;"/>
<path d="M 591.6218599065528 328.7608131727264 L 685.1453301853628 446.0355355429309 L 685.1453301853628 211.48609080252194 Z" style="stroke:#555555; stroke-opacity: 0.08636363636363636;fill:#C860AF; fill-opacity: 0;"/>
<path d="M 535.1453301853628 211.48609080252197 L 685.1453301853628 211.48609080252194 L 501.7671900919156 65.24690397524844 Z" style="stroke:#555555; stroke-opacity: 0.08636363636363636;fill:#C860AF; fill-opacity: 0;"/>
<path d="M 408.2437198131056 182.52162634545292 L 501.7671900919156 65.24690397524844 L 273.0983896277428 117.43906547781926 Z" style="stroke:#555555; stroke-opacity: 0.08636363636363636;fill:#C860AF; fill-opacity: 0;"/>
<path d="M 306.47652972118993 263.67825230509277 L 273.0983896277428 117.43906547781926 L 171.33119953582707 328.76081317272644 Z" style="stroke:#555555; stroke-opacity: 0.08636363636363636;fill:#C860AF; fill-opacity: 0;"/>
<path d="M 306.47652972118993 393.8433740403602 L 171.33119953582707 328.76081317272644 L 273.0983896277428 540.0825608676337 Z" style="stroke:#555555; stroke-opacity: 0.08636363636363636;fill:#C860AF; fill-opacity: 0;"/>
<path d="M 408.24371981310566 475 L 273.0983896277428 540.0825608676337 L 501.76719009191567 592.2747223702045 Z" style="stroke:#555555; stroke-opacity: 0.08636363636363636;fill:#C860AF; fill-opacity: 0;"/>
<path d="M 535.1453301853628 446.0355355429309 L 501.76719009191567 592.2747223702045 L 685.1453301853628 446.0355355429309 Z" style="stroke:#555555; stroke-opacity: 0.08636363636363636;fill:#C860AF; fill-opacity: 0;"/>
<path d="M 718.52347027881 357.72527762979547 Z" style="stroke:#AEAEAE; stroke-opacity: 0.07727272727272727;fill:#FFFB22; fill-opacity: 0.11363636363636363;"/>
<circle cx="568.52347027881" cy="357.7252776297955" r="150" style="stroke:#AEAEAE; stroke-opacity: 0.07727272727272727;fill:#FFFB22; fill-opacity: 0.11363636363636363;"/>
<path d="M 868.52347027881 357.7252776297954 Z" style="stroke:#000000; stroke-opacity: 0.004545454545454545;fill:#33C2FF; fill-opacity: 0.04090909090909091;"/>
<circle cx="718.52347027881" cy="357.72527762979547" r="150" style="stroke:#000000; stroke-opacity: 0.004545454545454545;fill:#33C2FF; fill-opacity: 0.04090909090909091;"/>
<path d="M 812.04694055762 240.45055525959103 Z" style="stroke:#000000; stroke-opacity: 0.05909090909090909;fill:#FFFF00; fill-opacity: 0;"/>
<circle cx="662.04694055762" cy="240.45055525959106" r="150" style="stroke:#000000; stroke-opacity: 0.05909090909090909;fill:#FFFF00; fill-opacity: 0;"/>
<path d="M 685.1453301853628 211.48609080252197 Z" style="stroke:#000000; stroke-opacity: 0.004545454545454545;fill:#33C2FF; fill-opacity: 0.04090909090909091;"/>
<circle cx="535.1453301853628" cy="211.486090802522" r="150" style="stroke:#000000; stroke-opacity: 0.004545454545454545;fill:#33C2FF; fill-opacity: 0.04090909090909091;"/>
<path d="M 583.3781400934472 292.6427167621618 Z" style="stroke:#000000; stroke-opacity: 0.05909090909090909;fill:#FFFF00; fill-opacity: 0;"/>
<circle cx="433.37814009344714" cy="292.64271676216185" r="150" style="stroke:#000000; stroke-opacity: 0.05909090909090909;fill:#FFFF00; fill-opacity: 0;"/>
<path d="M 583.3781400934472 422.8078384974292 Z" style="stroke:#000000; stroke-opacity: 0.004545454545454545;fill:#33C2FF; fill-opacity: 0.04090909090909091;"/>
<circle cx="433.37814009344714" cy="422.80783849742926" r="150" style="stroke:#000000; stroke-opacity: 0.004545454545454545;fill:#33C2FF; fill-opacity: 0.04090909090909091;"/>
<path d="M 685.1453301853628 503.964464457069 Z" style="stroke:#000000; stroke-opacity: 0.05909090909090909;fill:#FFFF00; fill-opacity: 0;"/>
<circle cx="535.1453301853628" cy="503.9644644570691" r="150" style="stroke:#000000; stroke-opacity: 0.05909090909090909;fill:#FFFF00; fill-opacity: 0;"/>
<path d="M 812.04694055762 474.99999999999994 Z" style="stroke:#000000; stroke-opacity: 0.004545454545454545;fill:#33C2FF; fill-opacity: 0.04090909090909091;"/>
<circle cx="662.04694055762" cy="475" r="150" style="stroke:#000000; stroke-opacity: 0.004545454545454545;fill:#33C2FF; fill-opacity: 0.04090909090909091;"/>
<path d="M 568.52347027881 357.7252776297955 L 718.52347027881 357.72527762979547 L 662.04694055762 475 Z" style="stroke:#555555; stroke-opacity: 0.08636363636363636;fill:#C860AF; fill-opacity: 0;"/>
<path d="M 568.52347027881 357.7252776297955 L 662.04694055762 240.45055525959106 L 718.52347027881 357.72527762979547 Z" style="stroke:#555555; stroke-opacity: 0.08636363636363636;fill:#C860AF; fill-opacity: 0;"/>
<path d="M 568.52347027881 357.7252776297955 L 535.1453301853628 211.486090802522 L 662.04694055762 240.45055525959106 Z" style="stroke:#555555; stroke-opacity: 0.08636363636363636;fill:#C860AF; fill-opacity: 0;"/>
<path d="M 568.52347027881 357.7252776297955 L 433.37814009344714 292.64271676216185 L 535.1453301853628 211.486090802522 Z" style="stroke:#555555; stroke-opacity: 0.08636363636363636;fill:#C860AF; fill-opacity: 0;"/>
<path d="M 568.52347027881 357.7252776297955 L 433.37814009344714 422.80783849742926 L 433.37814009344714 292.64271676216185 Z" style="stroke:#555555; stroke-opacity: 0.08636363636363636;fill:#C860AF; fill-opacity: 0;"/>
<path d="M 568.52347027881 357.7252776297955 L 535.1453301853628 503.9644644570691 L 433.37814009344714 422.80783849742926 Z" style="stroke:#555555; stroke-opacity: 0.08636363636363636;fill:#C860AF; fill-opacity: 0;"/>
<path d="M 568.52347027881 357.7252776297955 L 662.04694055762 475 L 535.1453301853628 503.9644644570691 Z" style="stroke:#555555; stroke-opacity: 0.08636363636363636;fill:#C860AF; fill-opacity: 0;"/>
<path d="M 718.52347027881 357.72527762979547 L 812.04694055762 475 L 662.04694055762 475 Z" style="stroke:#0000FF; stroke-opacity: 1;fill:#17C80A; fill-opacity: 0;"/>
<path d="M 662.04694055762 240.45055525959106 L 812.04694055762 240.45055525959103 L 718.52347027881 357.72527762979547 Z" style="stroke:#0000FF; stroke-opacity: 1;fill:#17C80A; fill-opacity: 0;"/>
<path d="M 535.1453301853628 211.486090802522 L 628.6688004641728 94.21136843231753 L 662.04694055762 240.45055525959106 Z" style="stroke:#0000FF; stroke-opacity: 1;fill:#17C80A; fill-opacity: 0;"/>
<path d="M 433.37814009344714 292.64271676216185 L 400 146.40352993488835 L 535.1453301853628 211.486090802522 Z" style="stroke:#0000FF; stroke-opacity: 1;fill:#17C80A; fill-opacity: 0;"/>
<path d="M 433.37814009344714 422.80783849742926 L 298.2328099080843 357.7252776297955 L 433.37814009344714 292.64271676216185 Z" style="stroke:#0000FF; stroke-opacity: 1;fill:#17C80A; fill-opacity: 0;"/>
<path d="M 535.1453301853628 503.9644644570691 L 400 569.0470253247028 L 433.37814009344714 422.80783849742926 Z" style="stroke:#0000FF; stroke-opacity: 1;fill:#17C80A; fill-opacity: 0;"/>
<path d="M 662.04694055762 475 L 628.6688004641728 621.2391868272736 L 535.1453301853628 503.9644644570691 Z" style="stroke:#0000FF; stroke-opacity: 1;fill:#17C80A; fill-opacity: 0;"/>
<path d="M 718.52347027881 357.72527762979547 L 812.04694055762 475 L 868.52347027881 357.7252776297954 L 812.04694055762 240.45055525959103 Z" style="stroke:#00B200; stroke-opacity: 0.2590909090909091;fill:#C8170A; fill-opacity: 0;"/>
<path d="M 662.04694055762 240.45055525959106 L 812.04694055762 240.45055525959103 L 755.57041083643 123.17583288938658 L 628.6688004641728 94.21136843231753 Z" style="stroke:#00B200; stroke-opacity: 0.2590909090909091;fill:#C8170A; fill-opacity: 0;"/>
<path d="M 535.1453301853628 211.486090802522 L 628.6688004641728 94.21136843231753 L 501.7671900919156 65.24690397524847 L 400 146.40352993488835 Z" style="stroke:#00B200; stroke-opacity: 0.2590909090909091;fill:#C8170A; fill-opacity: 0;"/>
<path d="M 433.37814009344714 292.64271676216185 L 400 146.40352993488835 L 298.2328099080843 227.56015589452818 L 298.2328099080843 357.7252776297955 Z" style="stroke:#00B200; stroke-opacity: 0.2590909090909091;fill:#C8170A; fill-opacity: 0;"/>
<path d="M 433.37814009344714 422.80783849742926 L 298.2328099080843 357.7252776297955 L 298.2328099080843 487.890399365063 L 400 569.0470253247028 Z" style="stroke:#00B200; stroke-opacity: 0.2590909090909091;fill:#C8170A; fill-opacity: 0;"/>
<path d="M 535.1453301853628 503.9644644570691 L 400 569.0470253247028 L 501.7671900919156 650.2036512843426 L 628.6688004641728 621.2391868272736 Z" style="stroke:#00B200; stroke-opacity: 0.2590909090909091;fill:#C8170A; fill-opacity: 0;"/>
<path d="M 662.04694055762 475 L 628.6688004641728 621.2391868272736 L 755.57041083643 592.2747223702045 L 812.04694055762 475 Z" style="stroke:#00B200; stroke-opacity: 0.2590909090909091;fill:#C8170A; fill-opacity: 0;"/>
<path d="M 718.52347027881 357.72527762979547 L 812.04694055762 475 L 812.04694055762 240.45055525959103 Z" style="stroke:#555555; stroke-opacity: 0.08636363636363636;fill:#C860AF; fill-opacity: 0;"/>
<path d="M 662.04694055762 240.45055525959106 L 812.04694055762 240.45055525959103 L 628.6688004641728 94.21136843231753 Z" style="stroke:#555555; stroke-opacity: 0.08636363636363636;fill:#C860AF; fill-opacity: 0;"/>
<path d="M 535.1453301853628 211.486090802522 L 628.6688004641728 94.21136843231753 L 400 146.40352993488835 Z" style="stroke:#555555; stroke-opacity: 0.08636363636363636;fill:#C860AF; fill-opacity: 0;"/>
<path d="M 433.37814009344714 292.64271676216185 L 400 146.40352993488835 L 298.2328099080843 357.7252776297955 Z" style="stroke:#555555; stroke-opacity: 0.08636363636363636;fill:#C860AF; fill-opacity: 0;"/>
<path d="M 433.37814009344714 422.80783849742926 L 298.2328099080843 357.7252776297955 L 400 569.0470253247028 Z" style="stroke:#555555; stroke-opacity: 0.08636363636363636;fill:#C860AF; fill-opacity: 0;"/>
<path d="M 535.1453301853628 503.9644644570691 L 400 569.0470253247028 L 628.6688004641728 621.2391868272736 Z" style="stroke:#555555; stroke-opacity: 0.08636363636363636;fill:#C860AF; fill-opacity: 0;"/>
<path d="M 662.04694055762 475 L 628.6688004641728 621.2391868272736 L 812.04694055762 475 Z" style="stroke:#555555; stroke-opacity: 0.08636363636363636;fill:#C860AF; fill-opacity: 0;"/>
<path d="M 775 474.9999999999999 Z" style="stroke:#AEAEAE; stroke-opacity: 0.07727272727272727;fill:#FFFB22; fill-opacity: 0.11363636363636363;"/>
<circle cx="625" cy="474.99999999999994" r="150" style="stroke:#AEAEAE; stroke-opacity: 0.07727272727272727;fill:#FFFB22; fill-opacity: 0.11363636363636363;"/>
<path d="M 925 474.99999999999983 Z" style="stroke:#000000; stroke-opacity: 0.004545454545454545;fill:#33C2FF; fill-opacity: 0.04090909090909091;"/>
<circle cx="775" cy="474.9999999999999" r="150" style="stroke:#000000; stroke-opacity: 0.004545454545454545;fill:#33C2FF; fill-opacity: 0.04090909090909091;"/>
<path d="M 868.52347027881 357.7252776297954 Z" style="stroke:#000000; stroke-opacity: 0.05909090909090909;fill:#FFFF00; fill-opacity: 0;"/>
<circle cx="718.52347027881" cy="357.72527762979547" r="150" style="stroke:#000000; stroke-opacity: 0.05909090909090909;fill:#FFFF00; fill-opacity: 0;"/>
<path d="M 741.6218599065528 328.7608131727264 Z" style="stroke:#000000; stroke-opacity: 0.004545454545454545;fill:#33C2FF; fill-opacity: 0.04090909090909091;"/>
<circle cx="591.6218599065528" cy="328.76081317272644" r="150" style="stroke:#000000; stroke-opacity: 0.004545454545454545;fill:#33C2FF; fill-opacity: 0.04090909090909091;"/>
<path d="M 639.8546698146372 409.91743913236616 Z" style="stroke:#000000; stroke-opacity: 0.05909090909090909;fill:#FFFF00; fill-opacity: 0;"/>
<circle cx="489.85466981463713" cy="409.9174391323662" r="150" style="stroke:#000000; stroke-opacity: 0.05909090909090909;fill:#FFFF00; fill-opacity: 0;"/>
<path d="M 639.8546698146372 540.0825608676337 Z" style="stroke:#000000; stroke-opacity: 0.004545454545454545;fill:#33C2FF; fill-opacity: 0.04090909090909091;"/>
<circle cx="489.85466981463713" cy="540.0825608676337" r="150" style="stroke:#000000; stroke-opacity: 0.004545454545454545;fill:#33C2FF; fill-opacity: 0.04090909090909091;"/>
<path d="M 741.6218599065528 621.2391868272734 Z" style="stroke:#000000; stroke-opacity: 0.05909090909090909;fill:#FFFF00; fill-opacity: 0;"/>
<circle cx="591.6218599065528" cy="621.2391868272734" r="150" style="stroke:#000000; stroke-opacity: 0.05909090909090909;fill:#FFFF00; fill-opacity: 0;"/>
<path d="M 868.52347027881 592.2747223702044 Z" style="stroke:#000000; stroke-opacity: 0.004545454545454545;fill:#33C2FF; fill-opacity: 0.04090909090909091;"/>
<circle cx="718.52347027881" cy="592.2747223702044" r="150" style="stroke:#000000; stroke-opacity: 0.004545454545454545;fill:#33C2FF; fill-opacity: 0.04090909090909091;"/>
<path d="M 625 474.99999999999994 L 775 474.9999999999999 L 718.52347027881 592.2747223702044 Z" style="stroke:#555555; stroke-opacity: 0.08636363636363636;fill:#C860AF; fill-opacity: 0;"/>
<path d="M 625 474.99999999999994 L 718.52347027881 357.72527762979547 L 775 474.9999999999999 Z" style="stroke:#555555; stroke-opacity: 0.08636363636363636;fill:#C860AF; fill-opacity: 0;"/>
<path d="M 625 474.99999999999994 L 591.6218599065528 328.76081317272644 L 718.52347027881 357.72527762979547 Z" style="stroke:#555555; stroke-opacity: 0.08636363636363636;fill:#C860AF; fill-opacity: 0;"/>
<path d="M 625 474.99999999999994 L 489.85466981463713 409.9174391323662 L 591.6218599065528 328.76081317272644 Z" style="stroke:#555555; stroke-opacity: 0.08636363636363636;fill:#C860AF; fill-opacity: 0;"/>
<path d="M 625 474.99999999999994 L 489.85466981463713 540.0825608676337 L 489.85466981463713 409.9174391323662 Z" style="stroke:#555555; stroke-opacity: 0.08636363636363636;fill:#C860AF; fill-opacity: 0;"/>
<path d="M 625 474.99999999999994 L 591.6218599065528 621.2391868272734 L 489.85466981463713 540.0825608676337 Z" style="stroke:#555555; stroke-opacity: 0.08636363636363636;fill:#C860AF; fill-opacity: 0;"/>
<path d="M 625 474.99999999999994 L 718.52347027881 592.2747223702044 L 591.6218599065528 621.2391868272734 Z" style="stroke:#555555; stroke-opacity: 0.08636363636363636;fill:#C860AF; fill-opacity: 0;"/>
<path d="M 775 474.9999999999999 L 868.52347027881 592.2747223702044 L 718.52347027881 592.2747223702044 Z" style="stroke:#0000FF; stroke-opacity: 1;fill:#17C80A; fill-opacity: 0;"/>
<path d="M 718.52347027881 357.72527762979547 L 868.52347027881 357.7252776297954 L 775 474.9999999999999 Z" style="stroke:#0000FF; stroke-opacity: 1;fill:#17C80A; fill-opacity: 0;"/>
<path d="M 591.6218599065528 328.76081317272644 L 685.1453301853628 211.48609080252194 L 718.52347027881 357.72527762979547 Z" style="stroke:#0000FF; stroke-opacity: 1;fill:#17C80A; fill-opacity: 0;"/>
<path d="M 489.85466981463713 409.9174391323662 L 456.47652972119 263.67825230509266 L 591.6218599065528 328.76081317272644 Z" style="stroke:#0000FF; stroke-opacity: 1;fill:#17C80A; fill-opacity: 0;"/>
<path d="M 489.85466981463713 540.0825608676337 L 354.70933962927427 474.99999999999994 L 489.85466981463713 409.9174391323662 Z" style="stroke:#0000FF; stroke-opacity: 1;fill:#17C80A; fill-opacity: 0;"/>
<path d="M 591.6218599065528 621.2391868272734 L 456.47652972119 686.3217476949072 L 489.85466981463713 540.0825608676337 Z" style="stroke:#0000FF; stroke-opacity: 1;fill:#17C80A; fill-opacity: 0;"/>
<path d="M 718.52347027881 592.2747223702044 L 685.1453301853628 738.5139091974779 L 591.6218599065528 621.2391868272734 Z" style="stroke:#0000FF; stroke-opacity: 1;fill:#17C80A; fill-opacity: 0;"/>
<path d="M 775 474.9999999999999 L 868.52347027881 592.2747223702044 L 925 474.99999999999983 L 868.52347027881 357.7252776297954 Z" style="stroke:#00B200; stroke-opacity: 0.2590909090909091;fill:#C8170A; fill-opacity: 0;"/>
<path d="M 718.52347027881 357.72527762979547 L 868.52347027881 357.7252776297954 L 812.04694055762 240.450555259591 L 685.1453301853628 211.48609080252194 Z" style="stroke:#00B200; stroke-opacity: 0.2590909090909091;fill:#C8170A; fill-opacity: 0;"/>
<path d="M 591.6218599065528 328.76081317272644 L 685.1453301853628 211.48609080252194 L 558.2437198131056 182.52162634545294 L 456.47652972119 263.67825230509266 Z" style="stroke:#00B200; stroke-opacity: 0.2590909090909091;fill:#C8170A; fill-opacity: 0;"/>
<path d="M 489.85466981463713 409.9174391323662 L 456.47652972119 263.67825230509266 L 354.70933962927427 344.8348782647325 L 354.70933962927427 474.99999999999994 Z" style="stroke:#00B200; stroke-opacity: 0.2590909090909091;fill:#C8170A; fill-opacity: 0;"/>
<path d="M 489.85466981463713 540.0825608676337 L 354.70933962927427 474.99999999999994 L 354.70933962927427 605.1651217352673 L 456.47652972119 686.3217476949072 Z" style="stroke:#00B200; stroke-opacity: 0.2590909090909091;fill:#C8170A; fill-opacity: 0;"/>
<path d="M 591.6218599065528 621.2391868272734 L 456.47652972119 686.3217476949072 L 558.2437198131056 767.4783736545469 L 685.1453301853628 738.5139091974779 Z" style="stroke:#00B200; stroke-opacity: 0.2590909090909091;fill:#C8170A; fill-opacity: 0;"/>
<path d="M 718.52347027881 592.2747223702044 L 685.1453301853628 738.5139091974779 L 812.04694055762 709.5494447404088 L 868.52347027881 592.2747223702044 Z" style="stroke:#00B200; stroke-opacity: 0.2590909090909091;fill:#C8170A; fill-opacity: 0;"/>
<path d="M 775 474.9999999999999 L 868.52347027881 592.2747223702044 L 868.52347027881 357.7252776297954 Z" style="stroke:#555555; stroke-opacity: 0.08636363636363636;fill:#C860AF; fill-opacity: 0;"/>
<path d="M 718.52347027881 357.72527762979547 L 868.52347027881 357.7252776297954 L 685.1453301853628 211.48609080252194 Z" style="stroke:#555555; stroke-opacity: 0.08636363636363636;fill:#C860AF; fill-opacity: 0;"/>
<path d="M 591.6218599065528 328.76081317272644 L 685.1453301853628 211.48609080252194 L 456.47652972119 263.67825230509266 Z" style="stroke:#555555; stroke-opacity: 0.08636363636363636;fill:#C860AF; fill-opacity: 0;"/>
<path d="M 489.85466981463713 409.9174391323662 L 456.47652972119 263.67825230509266 L 354.70933962927427 474.99999999999994 Z" style="stroke:#555555; stroke-opacity: 0.08636363636363636;fill:#C860AF; fill-opacity: 0;"/>
<path d="M 489.85466981463713 540.0825608676337 L 354.70933962927427 474.99999999999994 L 456.47652972119 686.3217476949072 Z" style="stroke:#555555; stroke-opacity: 0.08636363636363636;fill:#C860AF; fill-opacity: 0;"/>
<path d="M 591.6218599065528 621.2391868272734 L 456.47652972119 686.3217476949072 L 685.1453301853628 738.5139091974779 Z" style="stroke:#555555; stroke-opacity: 0.08636363636363636;fill:#C860AF; fill-opacity: 0;"/>
<path d="M 718.52347027881 592.2747223702044 L 685.1453301853628 738.5139091974779 L 868.52347027881 592.2747223702044 Z" style="stroke:#555555; stroke-opacity: 0.08636363636363636;fill:#C860AF; fill-opacity: 0;"/>
<path d="M 625 474.99999999999994 Z" style="stroke:#AEAEAE; stroke-opacity: 0.07727272727272727;fill:#FFFB22; fill-opacity: 0.11363636363636363;"/>
<circle cx="475" cy="475" r="150" style="stroke:#AEAEAE; stroke-opacity: 0.07727272727272727;fill:#FFFB22; fill-opacity: 0.11363636363636363;"/>
<path d="M 775 474.9999999999999 Z" style="stroke:#000000; stroke-opacity: 0.004545454545454545;fill:#33C2FF; fill-opacity: 0.04090909090909091;"/>
<circle cx="625" cy="474.99999999999994" r="150" style="stroke:#000000; stroke-opacity: 0.004545454545454545;fill:#33C2FF; fill-opacity: 0.04090909090909091;"/>
<path d="M 718.52347027881 357.72527762979547 Z" style="stroke:#000000; stroke-opacity: 0.05909090909090909;fill:#FFFF00; fill-opacity: 0;"/>
<circle cx="568.52347027881" cy="357.7252776297955" r="150" style="stroke:#000000; stroke-opacity: 0.05909090909090909;fill:#FFFF00; fill-opacity: 0;"/>
<path d="M 591.6218599065528 328.7608131727264 Z" style="stroke:#000000; stroke-opacity: 0.004545454545454545;fill:#33C2FF; fill-opacity: 0.04090909090909091;"/>
<circle cx="441.6218599065528" cy="328.76081317272644" r="150" style="stroke:#000000; stroke-opacity: 0.004545454545454545;fill:#33C2FF; fill-opacity: 0.04090909090909091;"/>
<path d="M 489.85466981463713 409.91743913236627 Z" style="stroke:#000000; stroke-opacity: 0.05909090909090909;fill:#FFFF00; fill-opacity: 0;"/>
<circle cx="339.85466981463713" cy="409.9174391323663" r="150" style="stroke:#000000; stroke-opacity: 0.05909090909090909;fill:#FFFF00; fill-opacity: 0;"/>
<path d="M 489.85466981463713 540.0825608676337 Z" style="stroke:#000000; stroke-opacity: 0.004545454545454545;fill:#33C2FF; fill-opacity: 0.04090909090909091;"/>
<circle cx="339.85466981463713" cy="540.0825608676337" r="150" style="stroke:#000000; stroke-opacity: 0.004545454545454545;fill:#33C2FF; fill-opacity: 0.04090909090909091;"/>
<path d="M 591.6218599065528 621.2391868272736 Z" style="stroke:#000000; stroke-opacity: 0.05909090909090909;fill:#FFFF00; fill-opacity: 0;"/>
<circle cx="441.62185990655286" cy="621.2391868272736" r="150" style="stroke:#000000; stroke-opacity: 0.05909090909090909;fill:#FFFF00; fill-opacity: 0;"/>
<path d="M 718.52347027881 592.2747223702045 Z" style="stroke:#000000; stroke-opacity: 0.004545454545454545;fill:#33C2FF; fill-opacity: 0.04090909090909091;"/>
<circle cx="568.52347027881" cy="592.2747223702045" r="150" style="stroke:#000000; stroke-opacity: 0.004545454545454545;fill:#33C2FF; fill-opacity: 0.04090909090909091;"/>
<path d="M 475 475 L 625 474.99999999999994 L 568.52347027881 592.2747223702045 Z" style="stroke:#555555; stroke-opacity: 0.08636363636363636;fill:#C860AF; fill-opacity: 0;"/>
<path d="M 475 475 L 568.52347027881 357.7252776297955 L 625 474.99999999999994 Z" style="stroke:#555555; stroke-opacity: 0.08636363636363636;fill:#C860AF; fill-opacity: 0;"/>
<path d="M 475 475 L 441.6218599065528 328.76081317272644 L 568.52347027881 357.7252776297955 Z" style="stroke:#555555; stroke-opacity: 0.08636363636363636;fill:#C860AF; fill-opacity: 0;"/>
<path d="M 475 475 L 339.85466981463713 409.9174391323663 L 441.6218599065528 328.76081317272644 Z" style="stroke:#555555; stroke-opacity: 0.08636363636363636;fill:#C860AF; fill-opacity: 0;"/>
<path d="M 475 475 L 339.85466981463713 540.0825608676337 L 339.85466981463713 409.9174391323663 Z" style="stroke:#555555; stroke-opacity: 0.08636363636363636;fill:#C860AF; fill-opacity: 0;"/>
<path d="M 475 475 L 441.62185990655286 621.2391868272736 L 339.85466981463713 540.0825608676337 Z" style="stroke:#555555; stroke-opacity: 0.08636363636363636;fill:#C860AF; fill-opacity: 0;"/>
<path d="M 475 475 L 568.52347027881 592.2747223702045 L 441.62185990655286 621.2391868272736 Z" style="stroke:#555555; stroke-opacity: 0.08636363636363636;fill:#C860AF; fill-opacity: 0;"/>
<path d="M 625 474.99999999999994 L 718.52347027881 592.2747223702045 L 568.52347027881 592.2747223702045 Z" style="stroke:#0000FF; stroke-opacity: 1;fill:#17C80A; fill-opacity: 0;"/>
<path d="M 568.52347027881 357.7252776297955 L 718.52347027881 357.7252776297955 L 625 474.99999999999994 Z" style="stroke:#0000FF; stroke-opacity: 1;fill:#17C80A; fill-opacity: 0;"/>
<path d="M 441.6218599065528 328.76081317272644 L 535.1453301853628 211.486090802522 L 568.52347027881 357.7252776297955 Z" style="stroke:#0000FF; stroke-opacity: 1;fill:#17C80A; fill-opacity: 0;"/>
<path d="M 339.85466981463713 409.9174391323663 L 306.47652972118993 263.6782523050928 L 441.6218599065528 328.76081317272644 Z" style="stroke:#0000FF; stroke-opacity: 1;fill:#17C80A; fill-opacity: 0;"/>
<path d="M 339.85466981463713 540.0825608676337 L 204.70933962927424 475 L 339.85466981463713 409.9174391323663 Z" style="stroke:#0000FF; stroke-opacity: 1;fill:#17C80A; fill-opacity: 0;"/>
<path d="M 441.62185990655286 621.2391868272736 L 306.47652972119 686.3217476949071 L 339.85466981463713 540.0825608676337 Z" style="stroke:#0000FF; stroke-opacity: 1;fill:#17C80A; fill-opacity: 0;"/>
<path d="M 568.52347027881 592.2747223702045 L 535.1453301853628 738.5139091974779 L 441.62185990655286 621.2391868272736 Z" style="stroke:#0000FF; stroke-opacity: 1;fill:#17C80A; fill-opacity: 0;"/>
<path d="M 625 474.99999999999994 L 718.52347027881 592.2747223702045 L 775 474.9999999999999 L 718.52347027881 357.7252776297955 Z" style="stroke:#00B200; stroke-opacity: 0.2590909090909091;fill:#C8170A; fill-opacity: 0;"/>
<path d="M 568.52347027881 357.7252776297955 L 718.52347027881 357.7252776297955 L 662.04694055762 240.45055525959106 L 535.1453301853628 211.486090802522 Z" style="stroke:#00B200; stroke-opacity: 0.2590909090909091;fill:#C8170A; fill-opacity: 0;"/>
<path d="M 441.6218599065528 328.76081317272644 L 535.1453301853628 211.486090802522 L 408.2437198131056 182.52162634545294 L 306.47652972118993 263.6782523050928 Z" style="stroke:#00B200; stroke-opacity: 0.2590909090909091;fill:#C8170A; fill-opacity: 0;"/>
<path d="M 339.85466981463713 409.9174391323663 L 306.47652972118993 263.6782523050928 L 204.70933962927427 344.83487826473265 L 204.70933962927424 475 Z" style="stroke:#00B200; stroke-opacity: 0.2590909090909091;fill:#C8170A; fill-opacity: 0;"/>
<path d="M 339.85466981463713 540.0825608676337 L 204.70933962927424 475 L 204.70933962927427 605.1651217352673 L 306.47652972119 686.3217476949071 Z" style="stroke:#00B200; stroke-opacity: 0.2590909090909091;fill:#C8170A; fill-opacity: 0;"/>
<path d="M 441.62185990655286 621.2391868272736 L 306.47652972119 686.3217476949071 L 408.2437198131057 767.4783736545471 L 535.1453301853628 738.5139091974779 Z" style="stroke:#00B200; stroke-opacity: 0.2590909090909091;fill:#C8170A; fill-opacity: 0;"/>
<path d="M 568.52347027881 592.2747223702045 L 535.1453301853628 738.5139091974779 L 662.04694055762 709.549444740409 L 718.52347027881 592.2747223702045 Z" style="stroke:#00B200; stroke-opacity: 0.2590909090909091;fill:#C8170A; fill-opacity: 0;"/>
<path d="M 625 474.99999999999994 L 718.52347027881 592.2747223702045 L 718.52347027881 357.7252776297955 Z" style="stroke:#555555; stroke-opacity: 0.08636363636363636;fill:#C860AF; fill-opacity: 0;"/>
<path d="M 568.52347027881 357.7252776297955 L 718.52347027881 357.7252776297955 L 535.1453301853628 211.486090802522 Z" style="stroke:#555555; stroke-opacity: 0.08636363636363636;fill:#C860AF; fill-opacity: 0;"/>
<path d="M 441.6218599065528 328.76081317272644 L 535.1453301853628 211.486090802522 L 306.47652972118993 263.6782523050928 Z" style="stroke:#555555; stroke-opacity: 0.08636363636363636;fill:#C860AF; fill-opacity: 0;"/>
<path d="M 339.85466981463713 409.9174391323663 L 306.47652972118993 263.6782523050928 L 204.70933962927424 475 Z" style="stroke:#555555; stroke-opacity: 0.08636363636363636;fill:#C860AF; fill-opacity: 0;"/>
<path d="M 339.85466981463713 540.0825608676337 L 204.70933962927424 475 L 306.47652972119 686.3217476949071 Z" style="stroke:#555555; stroke-opacity: 0.08636363636363636;fill:#C860AF; fill-opacity: 0;"/>
<path d="M 441.62185990655286 621.2391868272736 L 306.47652972119 686.3217476949071 L 535.1453301853628 738.5139091974779 Z" style="stroke:#555555; stroke-opacity: 0.08636363636363636;fill:#C860AF; fill-opacity: 0;"/>
<path d="M 568.52347027881 592.2747223702045 L 535.1453301853628 738.5139091974779 L 718.52347027881 592.2747223702045 Z" style="stroke:#555555; stroke-opacity: 0.08636363636363636;fill:#C860AF; fill-opacity: 0;"/>
</g>
</svg>