<?xml version="1.0"?><!DOCTYPE svg PUBLIC "-//W3C//DTD SVG 1.1//EN" "http://www.w3.org/Graphics/SVG/1.1/DTD/svg11.dtd"><svg xmlns="http://www.w3.org/2000/svg" width="950" height="950">
<title>PatternFourtyOne</title>
<desc>
Generated using the following configuration:

@implementation NewPattern : PatternFourtyOne
+ (CPDict) defaultConfig
{
 return [CPDictionary dictionaryWithObjectsAndKeys:[[GRColor alloc] initWithGradientColors:[] baseColor:[CPColor colorWith8BitRed:229 green:0 blue:35 alpha:1]], "background_color", 0, "background_color_direction", 14, "number_of_points", 0, "rotation", 0, "recurse_depth", 2, "factor_larger", [GRPoint pointWithX:475 Y:475], "center_point", 180, "radius", YES, "show_shapes", [[CPColor colorWith8BitRed:0 green:255 blue:100 alpha:0],[CPColor colorWith8BitRed:0 green:0 blue:0 alpha:0],[CPColor colorWith8BitRed:0 green:0 blue:0 alpha:0],[CPColor colorWith8BitRed:255 green:255 blue:255 alpha:1],[CPColor colorWith8BitRed:255 green:2 blue:10 alpha:0],[CPColor colorWith8BitRed:255 green:23 blue:10 alpha:0]], "stroke_colors", [[CPColor colorWith8BitRed:255 green:247 blue:211 alpha:0],[CPColor colorWith8BitRed:255 green:255 blue:0 alpha:0],[CPColor colorWith8BitRed:255 green:255 blue:0 alpha:0],[CPColor colorWith8BitRed:27 green:23 blue:24 alpha:1],[CPColor colorWith8BitRed:23 green:200 blue:10 alpha:0],[CPColor colorWith8BitRed:200 green:23 blue:10 alpha:0]], "fill_colors"];
}
@end

</desc>
  <defs>
    <linearGradient id="grad1" x1="0%" y1="0%" x2="100%" y2="0%">
<stop offset="100%" style="stop-color:#E50023;stop-opacity:1;" />
    </linearGradient>
  </defs>
<rect id="background" width="100%" height="100%" fill="url(#grad1)"/>
<g id="rotatelayer" transform="rotate(0, 475, 475)">
<path d="M 655 474.99999999999994 Z" style="stroke:#00FF64; stroke-opacity: 0;fill:#FFF7D3; fill-opacity: 0;"/>
<circle cx="475" cy="475" r="180" style="stroke:#00FF64; stroke-opacity: 0;fill:#FFF7D3; fill-opacity: 0;"/>
<path d="M 1015 474.99999999999983 Z" style="stroke:#000000; stroke-opacity: 0;fill:#FFFF00; fill-opacity: 0;"/>
<circle cx="835" cy="474.9999999999999" r="180" style="stroke:#000000; stroke-opacity: 0;fill:#FFFF00; fill-opacity: 0;"/>
<path d="M 979.3487924448709 318.8018539176789 Z" style="stroke:#000000; stroke-opacity: 0;fill:#FFFF00; fill-opacity: 0;"/>
<circle cx="799.3487924448709" cy="318.80185391767895" r="180" style="stroke:#000000; stroke-opacity: 0;fill:#FFFF00; fill-opacity: 0;"/>
<path d="M 879.4563286691441 193.54066631150926 Z" style="stroke:#000000; stroke-opacity: 0;fill:#FFFF00; fill-opacity: 0;"/>
<circle cx="699.4563286691441" cy="193.5406663115093" r="180" style="stroke:#000000; stroke-opacity: 0;fill:#FFFF00; fill-opacity: 0;"/>
<path d="M 735.1075362242732 124.02595161454344 Z" style="stroke:#000000; stroke-opacity: 0;fill:#FFFF00; fill-opacity: 0;"/>
<circle cx="555.1075362242732" cy="124.02595161454349" r="180" style="stroke:#000000; stroke-opacity: 0;fill:#FFFF00; fill-opacity: 0;"/>
<path d="M 574.8924637757268 124.02595161454356 Z" style="stroke:#000000; stroke-opacity: 0;fill:#FFFF00; fill-opacity: 0;"/>
<circle cx="394.8924637757268" cy="124.0259516145436" r="180" style="stroke:#000000; stroke-opacity: 0;fill:#FFFF00; fill-opacity: 0;"/>
<path d="M 430.5436713308559 193.54066631150926 Z" style="stroke:#000000; stroke-opacity: 0;fill:#FFFF00; fill-opacity: 0;"/>
<circle cx="250.5436713308559" cy="193.5406663115093" r="180" style="stroke:#000000; stroke-opacity: 0;fill:#FFFF00; fill-opacity: 0;"/>
<path d="M 330.6512075551291 318.8018539176791 Z" style="stroke:#000000; stroke-opacity: 0;fill:#FFFF00; fill-opacity: 0;"/>
<circle cx="150.65120755512908" cy="318.8018539176792" r="180" style="stroke:#000000; stroke-opacity: 0;fill:#FFFF00; fill-opacity: 0;"/>
<path d="M 295 474.99999999999994 Z" style="stroke:#000000; stroke-opacity: 0;fill:#FFFF00; fill-opacity: 0;"/>
<circle cx="115" cy="475" r="180" style="stroke:#000000; stroke-opacity: 0;fill:#FFFF00; fill-opacity: 0;"/>
<path d="M 330.6512075551291 631.198146082321 Z" style="stroke:#000000; stroke-opacity: 0;fill:#FFFF00; fill-opacity: 0;"/>
<circle cx="150.65120755512908" cy="631.198146082321" r="180" style="stroke:#000000; stroke-opacity: 0;fill:#FFFF00; fill-opacity: 0;"/>
<path d="M 430.543671330856 756.4593336884907 Z" style="stroke:#000000; stroke-opacity: 0;fill:#FFFF00; fill-opacity: 0;"/>
<circle cx="250.543671330856" cy="756.4593336884907" r="180" style="stroke:#000000; stroke-opacity: 0;fill:#FFFF00; fill-opacity: 0;"/>
<path d="M 574.8924637757268 825.9740483854566 Z" style="stroke:#000000; stroke-opacity: 0;fill:#FFFF00; fill-opacity: 0;"/>
<circle cx="394.8924637757268" cy="825.9740483854566" r="180" style="stroke:#000000; stroke-opacity: 0;fill:#FFFF00; fill-opacity: 0;"/>
<path d="M 735.1075362242732 825.9740483854566 Z" style="stroke:#000000; stroke-opacity: 0;fill:#FFFF00; fill-opacity: 0;"/>
<circle cx="555.1075362242732" cy="825.9740483854566" r="180" style="stroke:#000000; stroke-opacity: 0;fill:#FFFF00; fill-opacity: 0;"/>
<path d="M 879.4563286691441 756.4593336884907 Z" style="stroke:#000000; stroke-opacity: 0;fill:#FFFF00; fill-opacity: 0;"/>
<circle cx="699.4563286691441" cy="756.4593336884907" r="180" style="stroke:#000000; stroke-opacity: 0;fill:#FFFF00; fill-opacity: 0;"/>
<path d="M 979.3487924448709 631.1981460823208 Z" style="stroke:#000000; stroke-opacity: 0;fill:#FFFF00; fill-opacity: 0;"/>
<circle cx="799.3487924448709" cy="631.1981460823208" r="180" style="stroke:#000000; stroke-opacity: 0;fill:#FFFF00; fill-opacity: 0;"/>
<path d="M 799.3487924448709 631.1981460823208 L 686.7719667539226 643.8825079975423 L 699.4563286691441 756.4593336884907 L 812.0331543600925 743.7749717732692 Z" style="stroke:#FFFFFF; stroke-opacity: 1;fill:#1B1718; fill-opacity: 1;"/>
<path d="M 699.4563286691441 756.4593336884907 L 592.5245750982257 719.0422948145382 L 555.1075362242732 825.9740483854566 L 662.0392897951916 863.3910872594091 Z" style="stroke:#FFFFFF; stroke-opacity: 1;fill:#1B1718; fill-opacity: 1;"/>
<path d="M 555.1075362242732 825.9740483854566 L 475 745.8665121611834 L 394.8924637757268 825.9740483854566 L 475 906.0815846097298 Z" style="stroke:#FFFFFF; stroke-opacity: 1;fill:#1B1718; fill-opacity: 1;"/>
<path d="M 394.8924637757268 825.9740483854566 L 357.4754249017744 719.0422948145382 L 250.543671330856 756.4593336884907 L 287.96071020480844 863.3910872594091 Z" style="stroke:#FFFFFF; stroke-opacity: 1;fill:#1B1718; fill-opacity: 1;"/>
<path d="M 250.543671330856 756.4593336884907 L 263.22803324607736 643.8825079975425 L 150.65120755512908 631.198146082321 L 137.96684563990772 743.7749717732693 Z" style="stroke:#FFFFFF; stroke-opacity: 1;fill:#1B1718; fill-opacity: 1;"/>
<path d="M 150.65120755512908 631.198146082321 L 210.92467681872506 535.273469263596 L 115 475 L 54.726530736404015 570.9246768187251 Z" style="stroke:#FFFFFF; stroke-opacity: 1;fill:#1B1718; fill-opacity: 1;"/>
<path d="M 115 475 L 210.92467681872495 414.72653073640413 L 150.65120755512908 318.8018539176792 L 54.72653073640413 379.07532318127505 Z" style="stroke:#FFFFFF; stroke-opacity: 1;fill:#1B1718; fill-opacity: 1;"/>
<path d="M 150.65120755512908 318.8018539176792 L 263.2280332460774 306.11749200245765 L 250.5436713308559 193.5406663115093 L 137.96684563990755 206.22502822673084 Z" style="stroke:#FFFFFF; stroke-opacity: 1;fill:#1B1718; fill-opacity: 1;"/>
<path d="M 250.5436713308559 193.5406663115093 L 357.4754249017742 230.95770518546192 L 394.8924637757268 124.0259516145436 L 287.9607102048085 86.60891274059098 Z" style="stroke:#FFFFFF; stroke-opacity: 1;fill:#1B1718; fill-opacity: 1;"/>
<path d="M 394.8924637757268 124.0259516145436 L 475.00000000000006 204.13348783881673 L 555.1075362242732 124.02595161454349 L 474.99999999999994 43.91841539027034 Z" style="stroke:#FFFFFF; stroke-opacity: 1;fill:#1B1718; fill-opacity: 1;"/>
<path d="M 555.1075362242732 124.02595161454349 L 592.5245750982258 230.95770518546186 L 699.4563286691441 193.5406663115093 L 662.0392897951915 86.60891274059095 Z" style="stroke:#FFFFFF; stroke-opacity: 1;fill:#1B1718; fill-opacity: 1;"/>
<path d="M 699.4563286691441 193.5406663115093 L 686.7719667539227 306.11749200245754 L 799.3487924448709 318.80185391767895 L 812.0331543600923 206.22502822673073 Z" style="stroke:#FFFFFF; stroke-opacity: 1;fill:#1B1718; fill-opacity: 1;"/>
<path d="M 799.3487924448709 318.80185391767895 L 739.0753231812749 414.72653073640396 L 835 474.9999999999999 L 895.273469263596 379.0753231812749 Z" style="stroke:#FFFFFF; stroke-opacity: 1;fill:#1B1718; fill-opacity: 1;"/>
<path d="M 835 474.9999999999999 L 739.0753231812749 535.2734692635959 L 799.3487924448709 631.1981460823208 L 895.273469263596 570.924676818725 Z" style="stroke:#FFFFFF; stroke-opacity: 1;fill:#1B1718; fill-opacity: 1;"/>
<path d="M 686.7719667539226 643.8825079975423 L 602.0683775175762 634.3387055781918 L 592.5245750982257 719.0422948145382 L 677.228164334572 728.5860972338887 Z" style="stroke:#FFFFFF; stroke-opacity: 1;fill:#1B172C; fill-opacity: 1;"/>
<path d="M 592.5245750982257 719.0422948145382 L 520.3501788757903 673.6921159387481 L 475 745.8665121611834 L 547.1743962224355 791.2166910369737 Z" style="stroke:#FFFFFF; stroke-opacity: 1;fill:#1B172C; fill-opacity: 1;"/>
<path d="M 475 745.8665121611834 L 429.64982112420984 673.6921159387481 L 357.4754249017744 719.0422948145382 L 402.8256037775646 791.2166910369737 Z" style="stroke:#FFFFFF; stroke-opacity: 1;fill:#1B172C; fill-opacity: 1;"/>
<path d="M 357.4754249017744 719.0422948145382 L 347.93162248242373 634.3387055781918 L 263.22803324607736 643.8825079975425 L 272.771835665428 728.5860972338887 Z" style="stroke:#FFFFFF; stroke-opacity: 1;fill:#1B172C; fill-opacity: 1;"/>
<path d="M 263.22803324607736 643.8825079975425 L 291.3808743993744 563.4263104168931 L 210.92467681872506 535.273469263596 L 182.77183566542797 615.7296668442455 Z" style="stroke:#FFFFFF; stroke-opacity: 1;fill:#1B172C; fill-opacity: 1;"/>
<path d="M 210.92467681872506 535.273469263596 L 271.19814608232093 475 L 210.92467681872495 414.72653073640413 L 150.65120755512908 475.0000000000001 Z" style="stroke:#FFFFFF; stroke-opacity: 1;fill:#1B172C; fill-opacity: 1;"/>
<path d="M 210.92467681872495 414.72653073640413 L 291.3808743993744 386.5736895831071 L 263.2280332460774 306.11749200245765 L 182.77183566542794 334.27033315575466 Z" style="stroke:#FFFFFF; stroke-opacity: 1;fill:#1B172C; fill-opacity: 1;"/>
<path d="M 263.2280332460774 306.11749200245765 L 347.9316224824237 315.6612944218082 L 357.4754249017742 230.95770518546192 L 272.77183566542794 221.4139027661114 Z" style="stroke:#FFFFFF; stroke-opacity: 1;fill:#1B172C; fill-opacity: 1;"/>
<path d="M 357.4754249017742 230.95770518546192 L 429.64982112420967 276.30788406125225 L 475.00000000000006 204.13348783881673 L 402.82560377756454 158.7833089630264 Z" style="stroke:#FFFFFF; stroke-opacity: 1;fill:#1B172C; fill-opacity: 1;"/>
<path d="M 475.00000000000006 204.13348783881673 L 520.3501788757903 276.30788406125214 L 592.5245750982258 230.95770518546186 L 547.1743962224355 158.78330896302643 Z" style="stroke:#FFFFFF; stroke-opacity: 1;fill:#1B172C; fill-opacity: 1;"/>
<path d="M 592.5245750982258 230.95770518546186 L 602.0683775175764 315.6612944218082 L 686.7719667539227 306.11749200245754 L 677.228164334572 221.41390276611128 Z" style="stroke:#FFFFFF; stroke-opacity: 1;fill:#1B172C; fill-opacity: 1;"/>
<path d="M 686.7719667539227 306.11749200245754 L 658.6191256006257 386.57368958310684 L 739.0753231812749 414.72653073640396 L 767.228164334572 334.2703331557546 Z" style="stroke:#FFFFFF; stroke-opacity: 1;fill:#1B172C; fill-opacity: 1;"/>
<path d="M 739.0753231812749 414.72653073640396 L 678.801853917679 474.9999999999999 L 739.0753231812749 535.2734692635959 L 799.3487924448709 474.9999999999999 Z" style="stroke:#FFFFFF; stroke-opacity: 1;fill:#1B172C; fill-opacity: 1;"/>
<path d="M 739.0753231812749 535.2734692635959 L 658.6191256006255 563.4263104168929 L 686.7719667539226 643.8825079975423 L 767.228164334572 615.7296668442452 Z" style="stroke:#FFFFFF; stroke-opacity: 1;fill:#1B172C; fill-opacity: 1;"/>
<path d="M 602.0683775175762 634.3387055781918 L 541.5325730164052 613.156311437577 L 520.3501788757903 673.6921159387481 L 580.8859833769613 694.8745100793628 Z" style="stroke:#FFFFFF; stroke-opacity: 1;fill:#1B1740; fill-opacity: 1;"/>
<path d="M 520.3501788757903 673.6921159387481 L 475.0000000000001 628.3419370629579 L 429.64982112420984 673.6921159387481 L 475.0000000000001 719.0422948145383 Z" style="stroke:#FFFFFF; stroke-opacity: 1;fill:#1B1740; fill-opacity: 1;"/>
<path d="M 429.64982112420984 673.6921159387481 L 408.4674269835949 613.1563114375768 L 347.93162248242373 634.3387055781918 L 369.11401662303865 694.874510079363 Z" style="stroke:#FFFFFF; stroke-opacity: 1;fill:#1B1740; fill-opacity: 1;"/>
<path d="M 347.93162248242373 634.3387055781918 L 355.1124460215484 570.6071339560178 L 291.3808743993744 563.4263104168931 L 284.2000508602497 627.1578820390671 Z" style="stroke:#FFFFFF; stroke-opacity: 1;fill:#1B1740; fill-opacity: 1;"/>
<path d="M 291.3808743993744 563.4263104168931 L 325.5026654492942 509.1217910499198 L 271.19814608232093 475 L 237.07635503240112 529.3045193669733 Z" style="stroke:#FFFFFF; stroke-opacity: 1;fill:#1B1740; fill-opacity: 1;"/>
<path d="M 271.19814608232093 475 L 325.5026654492941 440.8782089500803 L 291.3808743993744 386.5736895831071 L 237.07635503240124 420.6954806330268 Z" style="stroke:#FFFFFF; stroke-opacity: 1;fill:#1B1740; fill-opacity: 1;"/>
<path d="M 291.3808743993744 386.5736895831071 L 355.1124460215485 379.3928660439823 L 347.9316224824237 315.6612944218082 L 284.2000508602496 322.842117960933 Z" style="stroke:#FFFFFF; stroke-opacity: 1;fill:#1B1740; fill-opacity: 1;"/>
<path d="M 347.9316224824237 315.6612944218082 L 408.46742698359463 336.8436885624232 L 429.64982112420967 276.30788406125225 L 369.1140166230387 255.12548992063722 Z" style="stroke:#FFFFFF; stroke-opacity: 1;fill:#1B1740; fill-opacity: 1;"/>
<path d="M 429.64982112420967 276.30788406125225 L 475.00000000000006 321.65806293704253 L 520.3501788757903 276.30788406125214 L 474.99999999999994 230.95770518546186 Z" style="stroke:#FFFFFF; stroke-opacity: 1;fill:#1B1740; fill-opacity: 1;"/>
<path d="M 520.3501788757903 276.30788406125214 L 541.5325730164054 336.8436885624232 L 602.0683775175764 315.6612944218082 L 580.8859833769613 255.1254899206371 Z" style="stroke:#FFFFFF; stroke-opacity: 1;fill:#1B1740; fill-opacity: 1;"/>
<path d="M 602.0683775175764 315.6612944218082 L 594.8875539784517 379.39286604398217 L 658.6191256006257 386.57368958310684 L 665.7999491397504 322.8421179609329 Z" style="stroke:#FFFFFF; stroke-opacity: 1;fill:#1B1740; fill-opacity: 1;"/>
<path d="M 658.6191256006257 386.57368958310684 L 624.4973345507058 440.87820895007997 L 678.801853917679 474.9999999999999 L 712.9236449675989 420.6954806330267 Z" style="stroke:#FFFFFF; stroke-opacity: 1;fill:#1B1740; fill-opacity: 1;"/>
<path d="M 678.801853917679 474.9999999999999 L 624.4973345507058 509.1217910499197 L 658.6191256006255 563.4263104168929 L 712.9236449675986 529.3045193669732 Z" style="stroke:#FFFFFF; stroke-opacity: 1;fill:#1B1740; fill-opacity: 1;"/>
<path d="M 658.6191256006255 563.4263104168929 L 594.8875539784514 570.6071339560177 L 602.0683775175762 634.3387055781918 L 665.7999491397503 627.157882039067 Z" style="stroke:#FFFFFF; stroke-opacity: 1;fill:#1B1740; fill-opacity: 1;"/>
<path d="M 541.5325730164052 613.156311437577 L 500.6734736955122 587.4828377420649 L 475.0000000000001 628.3419370629579 L 515.8590993208932 654.0154107584699 Z" style="stroke:#FFFFFF; stroke-opacity: 1;fill:#1B1754; fill-opacity: 1;"/>
<path d="M 475.0000000000001 628.3419370629579 L 449.326526304488 587.4828377420648 L 408.4674269835949 613.1563114375768 L 434.140900679107 654.01541075847 Z" style="stroke:#FFFFFF; stroke-opacity: 1;fill:#1B1754; fill-opacity: 1;"/>
<path d="M 408.4674269835949 613.1563114375768 L 403.06452524335117 565.2042322157741 L 355.1124460215484 570.6071339560178 L 360.51534776179216 618.5592131778207 Z" style="stroke:#FFFFFF; stroke-opacity: 1;fill:#1B1754; fill-opacity: 1;"/>
<path d="M 355.1124460215484 570.6071339560178 L 371.05022718847033 525.0595722168416 L 325.5026654492942 509.1217910499198 L 309.5648842823723 554.6693527890959 Z" style="stroke:#FFFFFF; stroke-opacity: 1;fill:#1B1754; fill-opacity: 1;"/>
<path d="M 325.5026654492942 509.1217910499198 L 359.6244564992139 475 L 325.5026654492941 440.8782089500803 L 291.3808743993744 475.0000000000001 Z" style="stroke:#FFFFFF; stroke-opacity: 1;fill:#1B1754; fill-opacity: 1;"/>
<path d="M 325.5026654492941 440.8782089500803 L 371.05022718847033 424.9404277831585 L 355.1124460215485 379.3928660439823 L 309.5648842823723 395.3306472109041 Z" style="stroke:#FFFFFF; stroke-opacity: 1;fill:#1B1754; fill-opacity: 1;"/>
<path d="M 355.1124460215485 379.3928660439823 L 403.0645252433511 384.79576778422575 L 408.46742698359463 336.8436885624232 L 360.515347761792 331.4407868221797 Z" style="stroke:#FFFFFF; stroke-opacity: 1;fill:#1B1754; fill-opacity: 1;"/>
<path d="M 408.46742698359463 336.8436885624232 L 449.3265263044877 362.5171622579356 L 475.00000000000006 321.65806293704253 L 434.140900679107 295.98458924153016 Z" style="stroke:#FFFFFF; stroke-opacity: 1;fill:#1B1754; fill-opacity: 1;"/>
<path d="M 475.00000000000006 321.65806293704253 L 500.67347369551237 362.5171622579355 L 541.5325730164054 336.8436885624232 L 515.859099320893 295.9845892415302 Z" style="stroke:#FFFFFF; stroke-opacity: 1;fill:#1B1754; fill-opacity: 1;"/>
<path d="M 541.5325730164054 336.8436885624232 L 546.9354747566491 384.79576778422586 L 594.8875539784517 379.39286604398217 L 589.484652238208 331.4407868221796 Z" style="stroke:#FFFFFF; stroke-opacity: 1;fill:#1B1754; fill-opacity: 1;"/>
<path d="M 594.8875539784517 379.39286604398217 L 578.9497728115298 424.9404277831581 L 624.4973345507058 440.87820895007997 L 640.4351157176277 395.33064721090403 Z" style="stroke:#FFFFFF; stroke-opacity: 1;fill:#1B1754; fill-opacity: 1;"/>
<path d="M 624.4973345507058 440.87820895007997 L 590.3755435007859 474.99999999999983 L 624.4973345507058 509.1217910499197 L 658.6191256006257 474.99999999999983 Z" style="stroke:#FFFFFF; stroke-opacity: 1;fill:#1B1754; fill-opacity: 1;"/>
<path d="M 624.4973345507058 509.1217910499197 L 578.9497728115296 525.0595722168416 L 594.8875539784514 570.6071339560177 L 640.4351157176277 554.6693527890959 Z" style="stroke:#FFFFFF; stroke-opacity: 1;fill:#1B1754; fill-opacity: 1;"/>
<path d="M 594.8875539784514 570.6071339560177 L 546.9354747566488 565.2042322157744 L 541.5325730164052 613.156311437577 L 589.4846522382079 618.5592131778204 Z" style="stroke:#FFFFFF; stroke-opacity: 1;fill:#1B1754; fill-opacity: 1;"/>
<path d="M 500.6734736955122 587.4828377420649 L 475.00000000000017 561.8093640465529 L 449.326526304488 587.4828377420648 L 475.00000000000006 613.156311437577 Z" style="stroke:#FFFFFF; stroke-opacity: 1;fill:#1B1768; fill-opacity: 1;"/>
<path d="M 449.326526304488 587.4828377420648 L 437.33482853706494 553.2125344483511 L 403.06452524335117 565.2042322157741 L 415.05622301077426 599.4745355094879 Z" style="stroke:#FFFFFF; stroke-opacity: 1;fill:#1B1768; fill-opacity: 1;"/>
<path d="M 403.06452524335117 565.2042322157741 L 407.129706215377 529.1247531888675 L 371.05022718847033 525.0595722168416 L 366.98504621644446 561.1390512437483 Z" style="stroke:#FFFFFF; stroke-opacity: 1;fill:#1B1768; fill-opacity: 1;"/>
<path d="M 371.05022718847033 525.0595722168416 L 390.36712795226293 494.3169007637926 L 359.6244564992139 475 L 340.3075557354213 505.742671453049 Z" style="stroke:#FFFFFF; stroke-opacity: 1;fill:#1B1768; fill-opacity: 1;"/>
<path d="M 359.6244564992139 475 L 390.3671279522629 455.68309923620745 L 371.05022718847033 424.9404277831585 L 340.3075557354214 444.25732854695104 Z" style="stroke:#FFFFFF; stroke-opacity: 1;fill:#1B1768; fill-opacity: 1;"/>
<path d="M 371.05022718847033 424.9404277831585 L 407.1297062153771 420.8752468111325 L 403.0645252433511 384.79576778422575 L 366.98504621644435 388.86094875625173 Z" style="stroke:#FFFFFF; stroke-opacity: 1;fill:#1B1768; fill-opacity: 1;"/>
<path d="M 403.0645252433511 384.79576778422575 L 437.3348285370645 396.7874655516489 L 449.3265263044877 362.5171622579356 L 415.0562230107744 350.5254644905124 Z" style="stroke:#FFFFFF; stroke-opacity: 1;fill:#1B1768; fill-opacity: 1;"/>
<path d="M 449.3265263044877 362.5171622579356 L 475 388.1906359534479 L 500.67347369551237 362.5171622579355 L 475 336.84368856242315 Z" style="stroke:#FFFFFF; stroke-opacity: 1;fill:#1B1768; fill-opacity: 1;"/>
<path d="M 500.67347369551237 362.5171622579355 L 512.6651714629356 396.78746555164906 L 546.9354747566491 384.79576778422586 L 534.9437769892259 350.5254644905123 Z" style="stroke:#FFFFFF; stroke-opacity: 1;fill:#1B1768; fill-opacity: 1;"/>
<path d="M 546.9354747566491 384.79576778422586 L 542.8702937846233 420.8752468111323 L 578.9497728115298 424.9404277831581 L 583.0149537835555 388.8609487562516 Z" style="stroke:#FFFFFF; stroke-opacity: 1;fill:#1B1768; fill-opacity: 1;"/>
<path d="M 578.9497728115298 424.9404277831581 L 559.632872047737 455.683099236207 L 590.3755435007859 474.99999999999983 L 609.6924442645786 444.25732854695093 Z" style="stroke:#FFFFFF; stroke-opacity: 1;fill:#1B1768; fill-opacity: 1;"/>
<path d="M 590.3755435007859 474.99999999999983 L 559.6328720477368 494.3169007637926 L 578.9497728115296 525.0595722168416 L 609.6924442645786 505.7426714530489 Z" style="stroke:#FFFFFF; stroke-opacity: 1;fill:#1B1768; fill-opacity: 1;"/>
<path d="M 578.9497728115296 525.0595722168416 L 542.8702937846227 529.1247531888675 L 546.9354747566488 565.2042322157744 L 583.0149537835556 561.1390512437483 Z" style="stroke:#FFFFFF; stroke-opacity: 1;fill:#1B1768; fill-opacity: 1;"/>
<path d="M 546.9354747566488 565.2042322157744 L 512.6651714629352 553.2125344483514 L 500.6734736955122 587.4828377420649 L 534.9437769892259 599.474535509488 Z" style="stroke:#FFFFFF; stroke-opacity: 1;fill:#1B1768; fill-opacity: 1;"/>
<path d="M 475.00000000000017 561.8093640465529 L 460.4658290676334 538.6783635159844 L 437.33482853706494 553.2125344483511 L 451.8689994694316 576.3435349789196 Z" style="stroke:#FFFFFF; stroke-opacity: 1;fill:#1B177C; fill-opacity: 1;"/>
<path d="M 437.33482853706494 553.2125344483511 L 434.27615800596277 526.0660826577654 L 407.129706215377 529.1247531888675 L 410.1883767464792 556.2712049794533 Z" style="stroke:#FFFFFF; stroke-opacity: 1;fill:#1B177C; fill-opacity: 1;"/>
<path d="M 407.129706215377 529.1247531888675 L 416.15234329635746 503.339537844773 L 390.36712795226293 494.3169007637926 L 381.34449087128246 520.102116107887 Z" style="stroke:#FFFFFF; stroke-opacity: 1;fill:#1B177C; fill-opacity: 1;"/>
<path d="M 390.36712795226293 494.3169007637926 L 409.6840287160554 475 L 390.3671279522629 455.68309923620745 L 371.05022718847033 475 Z" style="stroke:#FFFFFF; stroke-opacity: 1;fill:#1B177C; fill-opacity: 1;"/>
<path d="M 390.3671279522629 455.68309923620745 L 416.15234329635746 446.66046215522704 L 407.1297062153771 420.8752468111325 L 381.34449087128246 429.8978838921129 Z" style="stroke:#FFFFFF; stroke-opacity: 1;fill:#1B177C; fill-opacity: 1;"/>
<path d="M 407.1297062153771 420.8752468111325 L 434.27615800596254 423.9339173422344 L 437.3348285370645 396.7874655516489 L 410.188376746479 393.72879502054695 Z" style="stroke:#FFFFFF; stroke-opacity: 1;fill:#1B177C; fill-opacity: 1;"/>
<path d="M 437.3348285370645 396.7874655516489 L 460.46582906763274 411.32163648401615 L 475 388.1906359534479 L 451.86899946943174 373.65646502108063 Z" style="stroke:#FFFFFF; stroke-opacity: 1;fill:#1B177C; fill-opacity: 1;"/>
<path d="M 475 388.1906359534479 L 489.53417093236726 411.32163648401627 L 512.6651714629356 396.78746555164906 L 498.1310005305684 373.65646502108063 Z" style="stroke:#FFFFFF; stroke-opacity: 1;fill:#1B177C; fill-opacity: 1;"/>
<path d="M 512.6651714629356 396.78746555164906 L 515.7238419940379 423.9339173422345 L 542.8702937846233 420.8752468111323 L 539.811623253521 393.72879502054684 Z" style="stroke:#FFFFFF; stroke-opacity: 1;fill:#1B177C; fill-opacity: 1;"/>
<path d="M 542.8702937846233 420.8752468111323 L 533.8476567036428 446.66046215522647 L 559.632872047737 455.683099236207 L 568.6555091287175 429.89788389211276 Z" style="stroke:#FFFFFF; stroke-opacity: 1;fill:#1B177C; fill-opacity: 1;"/>
<path d="M 559.632872047737 455.683099236207 L 540.3159712839441 474.99999999999966 L 559.6328720477368 494.3169007637926 L 578.9497728115297 474.9999999999999 Z" style="stroke:#FFFFFF; stroke-opacity: 1;fill:#1B177C; fill-opacity: 1;"/>
<path d="M 559.6328720477368 494.3169007637926 L 533.8476567036423 503.339537844773 L 542.8702937846227 529.1247531888675 L 568.6555091287173 520.102116107887 Z" style="stroke:#FFFFFF; stroke-opacity: 1;fill:#1B177C; fill-opacity: 1;"/>
<path d="M 542.8702937846227 529.1247531888675 L 515.723841994037 526.0660826577657 L 512.6651714629352 553.2125344483514 L 539.811623253521 556.2712049794534 Z" style="stroke:#FFFFFF; stroke-opacity: 1;fill:#1B177C; fill-opacity: 1;"/>
<path d="M 512.6651714629352 553.2125344483514 L 489.534170932367 538.6783635159846 L 475.00000000000017 561.8093640465529 L 498.13100053056843 576.3435349789196 Z" style="stroke:#FFFFFF; stroke-opacity: 1;fill:#1B177C; fill-opacity: 1;"/>
<path d="M 460.4658290676334 538.6783635159844 L 453.6771339659076 519.2773875560396 L 434.27615800596277 526.0660826577654 L 441.0648531076886 545.4670586177102 Z" style="stroke:#FFFFFF; stroke-opacity: 1;fill:#1B1790; fill-opacity: 1;"/>
<path d="M 434.27615800596277 526.0660826577654 L 436.5775230576563 505.6409028964665 L 416.15234329635746 503.339537844773 L 413.8509782446639 523.7647176060718 Z" style="stroke:#FFFFFF; stroke-opacity: 1;fill:#1B1790; fill-opacity: 1;"/>
<path d="M 416.15234329635746 503.339537844773 L 427.087954928593 485.9356116322355 L 409.6840287160554 475 L 398.7484170838199 492.40392621253756 Z" style="stroke:#FFFFFF; stroke-opacity: 1;fill:#1B1790; fill-opacity: 1;"/>
<path d="M 409.6840287160554 475 L 427.0879549285929 464.06438836776454 L 416.15234329635746 446.66046215522704 L 398.74841708381996 457.5960737874625 Z" style="stroke:#FFFFFF; stroke-opacity: 1;fill:#1B1790; fill-opacity: 1;"/>
<path d="M 416.15234329635746 446.66046215522704 L 436.5775230576563 444.35909710353326 L 434.27615800596254 423.9339173422344 L 413.8509782446637 426.2352823939282 Z" style="stroke:#FFFFFF; stroke-opacity: 1;fill:#1B1790; fill-opacity: 1;"/>
<path d="M 434.27615800596254 423.9339173422344 L 453.67713396590676 430.7226124439604 L 460.46582906763274 411.32163648401615 L 441.0648531076885 404.5329413822902 Z" style="stroke:#FFFFFF; stroke-opacity: 1;fill:#1B1790; fill-opacity: 1;"/>
<path d="M 460.46582906763274 411.32163648401615 L 474.99999999999994 425.85580741638347 L 489.53417093236726 411.32163648401627 L 475.00000000000006 396.78746555164895 Z" style="stroke:#FFFFFF; stroke-opacity: 1;fill:#1B1790; fill-opacity: 1;"/>
<path d="M 489.53417093236726 411.32163648401627 L 496.32286603409347 430.7226124439607 L 515.7238419940379 423.9339173422345 L 508.9351468923117 404.53294138229006 Z" style="stroke:#FFFFFF; stroke-opacity: 1;fill:#1B1790; fill-opacity: 1;"/>
<path d="M 515.7238419940379 423.9339173422345 L 513.4224769423444 444.3590971035329 L 533.8476567036428 446.66046215522647 L 536.1490217553363 426.23528239392806 Z" style="stroke:#FFFFFF; stroke-opacity: 1;fill:#1B1790; fill-opacity: 1;"/>
<path d="M 533.8476567036428 446.66046215522647 L 522.912045071407 464.06438836776374 L 540.3159712839441 474.99999999999966 L 551.25158291618 457.5960737874624 Z" style="stroke:#FFFFFF; stroke-opacity: 1;fill:#1B1790; fill-opacity: 1;"/>
<path d="M 540.3159712839441 474.99999999999966 L 522.9120450714066 485.9356116322354 L 533.8476567036423 503.339537844773 L 551.2515829161799 492.4039262125372 Z" style="stroke:#FFFFFF; stroke-opacity: 1;fill:#1B1790; fill-opacity: 1;"/>
<path d="M 533.8476567036423 503.339537844773 L 513.4224769423433 505.64090289646674 L 515.723841994037 526.0660826577657 L 536.149021755336 523.764717606072 Z" style="stroke:#FFFFFF; stroke-opacity: 1;fill:#1B1790; fill-opacity: 1;"/>
<path d="M 515.723841994037 526.0660826577657 L 496.32286603409256 519.2773875560403 L 489.534170932367 538.6783635159846 L 508.9351468923115 545.4670586177102 Z" style="stroke:#FFFFFF; stroke-opacity: 1;fill:#1B1790; fill-opacity: 1;"/>
<path d="M 489.534170932367 538.6783635159846 L 475.00000000000034 524.1441925836177 L 460.4658290676334 538.6783635159844 L 475.0000000000001 553.2125344483513 Z" style="stroke:#FFFFFF; stroke-opacity: 1;fill:#1B1790; fill-opacity: 1;"/>
<path d="M 453.6771339659076 519.2773875560396 L 451.9455708415685 503.90933977212734 L 436.5775230576563 505.6409028964665 L 438.30908618199544 521.0089506803786 Z" style="stroke:#FFFFFF; stroke-opacity: 1;fill:#1B17A4; fill-opacity: 1;"/>
<path d="M 436.5775230576563 505.6409028964665 L 441.6853846252401 491.04347319981935 L 427.087954928593 485.9356116322355 L 421.98009336100915 500.53304132888275 Z" style="stroke:#FFFFFF; stroke-opacity: 1;fill:#1B17A4; fill-opacity: 1;"/>
<path d="M 427.087954928593 485.9356116322355 L 438.02356656082844 474.99999999999994 L 427.0879549285929 464.06438836776454 L 416.1523432963574 475.00000000000006 Z" style="stroke:#FFFFFF; stroke-opacity: 1;fill:#1B17A4; fill-opacity: 1;"/>
<path d="M 427.0879549285929 464.06438836776454 L 441.68538462524026 458.9565268001806 L 436.5775230576563 444.35909710353326 L 421.980093361009 449.4669586711172 Z" style="stroke:#FFFFFF; stroke-opacity: 1;fill:#1B17A4; fill-opacity: 1;"/>
<path d="M 436.5775230576563 444.35909710353326 L 451.94557084156804 446.0906602278721 L 453.67713396590676 430.7226124439604 L 438.3090861819951 428.9910493196216 Z" style="stroke:#FFFFFF; stroke-opacity: 1;fill:#1B17A4; fill-opacity: 1;"/>
<path d="M 453.67713396590676 430.7226124439604 L 466.7719694967418 438.9506429472185 L 474.99999999999994 425.85580741638347 L 461.9051644691649 417.62777691312533 Z" style="stroke:#FFFFFF; stroke-opacity: 1;fill:#1B17A4; fill-opacity: 1;"/>
<path d="M 474.99999999999994 425.85580741638347 L 483.2280305032581 438.95064294721885 L 496.32286603409347 430.7226124439607 L 488.0948355308353 417.62777691312533 Z" style="stroke:#FFFFFF; stroke-opacity: 1;fill:#1B17A4; fill-opacity: 1;"/>
<path d="M 496.32286603409347 430.7226124439607 L 498.05442915843275 446.09066022787226 L 513.4224769423444 444.3590971035329 L 511.690913818005 428.9910493196213 Z" style="stroke:#FFFFFF; stroke-opacity: 1;fill:#1B17A4; fill-opacity: 1;"/>
<path d="M 513.4224769423444 444.3590971035329 L 508.3146153747602 458.95652680017963 L 522.912045071407 464.06438836776374 L 528.019906638991 449.466958671117 Z" style="stroke:#FFFFFF; stroke-opacity: 1;fill:#1B17A4; fill-opacity: 1;"/>
<path d="M 522.912045071407 464.06438836776374 L 511.97643343917093 474.9999999999994 L 522.9120450714066 485.9356116322354 L 533.8476567036425 474.9999999999997 Z" style="stroke:#FFFFFF; stroke-opacity: 1;fill:#1B17A4; fill-opacity: 1;"/>
<path d="M 522.9120450714066 485.9356116322354 L 508.3146153747592 491.0434731998194 L 513.4224769423433 505.64090289646674 L 528.0199066389906 500.5330413288827 Z" style="stroke:#FFFFFF; stroke-opacity: 1;fill:#1B17A4; fill-opacity: 1;"/>
<path d="M 513.4224769423433 505.64090289646674 L 498.0544291584312 503.9093397721281 L 496.32286603409256 519.2773875560403 L 511.69091381800473 521.0089506803788 Z" style="stroke:#FFFFFF; stroke-opacity: 1;fill:#1B17A4; fill-opacity: 1;"/>
<path d="M 496.32286603409256 519.2773875560403 L 483.2280305032577 511.04935705278297 L 475.00000000000034 524.1441925836177 L 488.09483553083516 532.3722230868751 Z" style="stroke:#FFFFFF; stroke-opacity: 1;fill:#1B17A4; fill-opacity: 1;"/>
<path d="M 475.00000000000034 524.1441925836177 L 466.77196949674305 511.0493570527822 L 453.6771339659076 519.2773875560396 L 461.9051644691649 532.3722230868749 Z" style="stroke:#FFFFFF; stroke-opacity: 1;fill:#1B17A4; fill-opacity: 1;"/>
</g>
</svg>