<?xml version="1.0"?><!DOCTYPE svg PUBLIC "-//W3C//DTD SVG 1.1//EN" "http://www.w3.org/Graphics/SVG/1.1/DTD/svg11.dtd"><svg xmlns="http://www.w3.org/2000/svg" width="950" height="950">
<title>PatternSixtyThree</title>
<desc>
Generated using the following configuration:

@implementation NewPattern : PatternSixtyThree
+ (CPDict) defaultConfig
{
 return [CPDictionary dictionaryWithObjectsAndKeys:[[GRColor alloc] initWithGradientColors:[] baseColor:[CPColor colorWith8BitRed:255 green:200 blue:63 alpha:0.6045454545454545]], "background_color", 1, "background_color_direction", 12, "number_of_points", 0, "rotation", 0, "recurse_depth", 1.02, "factor_larger", [GRPoint pointWithX:475 Y:475], "center_point", 200, "radius", YES, "show_shapes", [[CPColor colorWith8BitRed:174 green:174 blue:174 alpha:0],[CPColor colorWith8BitRed:0 green:0 blue:0 alpha:0.1409090909090909],[CPColor colorWith8BitRed:0 green:0 blue:0 alpha:0.11363636363636363],[CPColor colorWith8BitRed:255 green:0 blue:0 alpha:0.14545454545454545],[CPColor colorWith8BitRed:255 green:2 blue:10 alpha:0],[CPColor colorWith8BitRed:255 green:23 blue:10 alpha:0]], "stroke_colors", [[CPColor colorWith8BitRed:255 green:255 blue:0 alpha:0],[CPColor colorWith8BitRed:255 green:255 blue:0 alpha:0.21818181818181817],[CPColor colorWith8BitRed:255 green:255 blue:0 alpha:0.21818181818181817],[CPColor colorWith8BitRed:62 green:24 blue:255 alpha:0.16818181818181818],[CPColor colorWith8BitRed:54 green:58 blue:198 alpha:0],[CPColor colorWith8BitRed:200 green:23 blue:10 alpha:0]], "fill_colors"];
}
@end

</desc>
  <defs>
    <linearGradient id="grad1" x1="0%" y1="0%" x2="0%" y2="100%">
<stop offset="100%" style="stop-color:#FFC83F;stop-opacity:0.6045454545454545;" />
    </linearGradient>
  </defs>
<rect id="background" width="100%" height="100%" fill="url(#grad1)"/>
<g id="rotatelayer" transform="rotate(0, 475, 475)">
<path d="M 675 474.99999999999994 Z" style="stroke:#AEAEAE; stroke-opacity: 0;fill:#FFFF00; fill-opacity: 0;"/>
<circle cx="475" cy="475" r="200" style="stroke:#AEAEAE; stroke-opacity: 0;fill:#FFFF00; fill-opacity: 0;"/>
<path d="M 879 474.9999999999999 Z" style="stroke:#000000; stroke-opacity: 0.11363636363636363;fill:#FFFF00; fill-opacity: 0.21818181818181817;"/>
<circle cx="679" cy="474.99999999999994" r="200" style="stroke:#000000; stroke-opacity: 0.11363636363636363;fill:#FFFF00; fill-opacity: 0.21818181818181817;"/>
<path d="M 851.6691823720255 372.99999999999983 Z" style="stroke:#000000; stroke-opacity: 0.1409090909090909;fill:#FFFF00; fill-opacity: 0.21818181818181817;"/>
<circle cx="651.6691823720255" cy="372.9999999999999" r="200" style="stroke:#000000; stroke-opacity: 0.1409090909090909;fill:#FFFF00; fill-opacity: 0.21818181818181817;"/>
<path d="M 776.9999999999999 298.33081762797434 Z" style="stroke:#000000; stroke-opacity: 0.11363636363636363;fill:#FFFF00; fill-opacity: 0.21818181818181817;"/>
<circle cx="576.9999999999999" cy="298.3308176279744" r="200" style="stroke:#000000; stroke-opacity: 0.11363636363636363;fill:#FFFF00; fill-opacity: 0.21818181818181817;"/>
<path d="M 675 270.99999999999994 Z" style="stroke:#000000; stroke-opacity: 0.1409090909090909;fill:#FFFF00; fill-opacity: 0.21818181818181817;"/>
<circle cx="474.99999999999994" cy="271" r="200" style="stroke:#000000; stroke-opacity: 0.1409090909090909;fill:#FFFF00; fill-opacity: 0.21818181818181817;"/>
<path d="M 572.9999999999999 298.33081762797445 Z" style="stroke:#000000; stroke-opacity: 0.11363636363636363;fill:#FFFF00; fill-opacity: 0.21818181818181817;"/>
<circle cx="372.9999999999999" cy="298.3308176279745" r="200" style="stroke:#000000; stroke-opacity: 0.11363636363636363;fill:#FFFF00; fill-opacity: 0.21818181818181817;"/>
<path d="M 498.3308176279745 373 Z" style="stroke:#000000; stroke-opacity: 0.1409090909090909;fill:#FFFF00; fill-opacity: 0.21818181818181817;"/>
<circle cx="298.3308176279745" cy="373.00000000000006" r="200" style="stroke:#000000; stroke-opacity: 0.1409090909090909;fill:#FFFF00; fill-opacity: 0.21818181818181817;"/>
<path d="M 471 474.99999999999994 Z" style="stroke:#000000; stroke-opacity: 0.11363636363636363;fill:#FFFF00; fill-opacity: 0.21818181818181817;"/>
<circle cx="271" cy="475" r="200" style="stroke:#000000; stroke-opacity: 0.11363636363636363;fill:#FFFF00; fill-opacity: 0.21818181818181817;"/>
<path d="M 498.3308176279745 577.0000000000001 Z" style="stroke:#000000; stroke-opacity: 0.1409090909090909;fill:#FFFF00; fill-opacity: 0.21818181818181817;"/>
<circle cx="298.3308176279745" cy="577.0000000000001" r="200" style="stroke:#000000; stroke-opacity: 0.1409090909090909;fill:#FFFF00; fill-opacity: 0.21818181818181817;"/>
<path d="M 573 651.6691823720256 Z" style="stroke:#000000; stroke-opacity: 0.11363636363636363;fill:#FFFF00; fill-opacity: 0.21818181818181817;"/>
<circle cx="373.00000000000006" cy="651.6691823720256" r="200" style="stroke:#000000; stroke-opacity: 0.11363636363636363;fill:#FFFF00; fill-opacity: 0.21818181818181817;"/>
<path d="M 675 679 Z" style="stroke:#000000; stroke-opacity: 0.1409090909090909;fill:#FFFF00; fill-opacity: 0.21818181818181817;"/>
<circle cx="475" cy="679" r="200" style="stroke:#000000; stroke-opacity: 0.1409090909090909;fill:#FFFF00; fill-opacity: 0.21818181818181817;"/>
<path d="M 777 651.6691823720255 Z" style="stroke:#000000; stroke-opacity: 0.11363636363636363;fill:#FFFF00; fill-opacity: 0.21818181818181817;"/>
<circle cx="577" cy="651.6691823720255" r="200" style="stroke:#000000; stroke-opacity: 0.11363636363636363;fill:#FFFF00; fill-opacity: 0.21818181818181817;"/>
<path d="M 851.6691823720256 577 Z" style="stroke:#000000; stroke-opacity: 0.1409090909090909;fill:#FFFF00; fill-opacity: 0.21818181818181817;"/>
<circle cx="651.6691823720256" cy="577" r="200" style="stroke:#000000; stroke-opacity: 0.1409090909090909;fill:#FFFF00; fill-opacity: 0.21818181818181817;"/>
<path d="M 651.6691823720256 577 L 577.0000000000001 577 L 577 651.6691823720255 L 651.6691823720256 651.6691823720255 Z" style="stroke:#FF0000; stroke-opacity: 0.14545454545454545;fill:#3E18FF; fill-opacity: 0.16818181818181818;"/>
<path d="M 577 651.6691823720255 L 512.3345911860127 614.3345911860127 L 475 679 L 539.6654088139873 716.3345911860127 Z" style="stroke:#FF0000; stroke-opacity: 0.14545454545454545;fill:#3E18FF; fill-opacity: 0.16818181818181818;"/>
<path d="M 475 679 L 437.6654088139872 614.3345911860129 L 373.00000000000006 651.6691823720256 L 410.3345911860128 716.3345911860129 Z" style="stroke:#FF0000; stroke-opacity: 0.14545454545454545;fill:#3E18FF; fill-opacity: 0.16818181818181818;"/>
<path d="M 373.00000000000006 651.6691823720256 L 373 577.0000000000001 L 298.3308176279745 577.0000000000001 L 298.3308176279745 651.6691823720256 Z" style="stroke:#FF0000; stroke-opacity: 0.14545454545454545;fill:#3E18FF; fill-opacity: 0.16818181818181818;"/>
<path d="M 298.3308176279745 577.0000000000001 L 335.6654088139873 512.3345911860127 L 271 475 L 233.6654088139872 539.6654088139873 Z" style="stroke:#FF0000; stroke-opacity: 0.14545454545454545;fill:#3E18FF; fill-opacity: 0.16818181818181818;"/>
<path d="M 271 475 L 335.66540881398726 437.66540881398726 L 298.3308176279745 373.00000000000006 L 233.66540881398726 410.33459118601274 Z" style="stroke:#FF0000; stroke-opacity: 0.14545454545454545;fill:#3E18FF; fill-opacity: 0.16818181818181818;"/>
<path d="M 298.3308176279745 373.00000000000006 L 372.99999999999994 372.99999999999994 L 372.9999999999999 298.3308176279745 L 298.33081762797445 298.33081762797457 Z" style="stroke:#FF0000; stroke-opacity: 0.14545454545454545;fill:#3E18FF; fill-opacity: 0.16818181818181818;"/>
<path d="M 372.9999999999999 298.3308176279745 L 437.66540881398714 335.66540881398726 L 474.99999999999994 271 L 410.33459118601263 233.66540881398723 Z" style="stroke:#FF0000; stroke-opacity: 0.14545454545454545;fill:#3E18FF; fill-opacity: 0.16818181818181818;"/>
<path d="M 474.99999999999994 271 L 512.3345911860127 335.66540881398714 L 576.9999999999999 298.3308176279744 L 539.665408813987 233.66540881398723 Z" style="stroke:#FF0000; stroke-opacity: 0.14545454545454545;fill:#3E18FF; fill-opacity: 0.16818181818181818;"/>
<path d="M 576.9999999999999 298.3308176279744 L 576.9999999999999 372.99999999999994 L 651.6691823720255 372.9999999999999 L 651.6691823720254 298.33081762797434 Z" style="stroke:#FF0000; stroke-opacity: 0.14545454545454545;fill:#3E18FF; fill-opacity: 0.16818181818181818;"/>
<path d="M 651.6691823720255 372.9999999999999 L 614.3345911860127 437.66540881398714 L 679 474.99999999999994 L 716.3345911860127 410.33459118601263 Z" style="stroke:#FF0000; stroke-opacity: 0.14545454545454545;fill:#3E18FF; fill-opacity: 0.16818181818181818;"/>
<path d="M 679 474.99999999999994 L 614.3345911860129 512.3345911860129 L 651.6691823720256 577 L 716.3345911860129 539.6654088139871 Z" style="stroke:#FF0000; stroke-opacity: 0.14545454545454545;fill:#3E18FF; fill-opacity: 0.16818181818181818;"/>
<path d="M 577.0000000000001 577 L 526 563.3345911860127 L 512.3345911860127 614.3345911860127 L 563.3345911860129 628.0000000000001 Z" style="stroke:#FF0014; stroke-opacity: 0.14545454545454545;fill:#3E18FF; fill-opacity: 0.16818181818181818;"/>
<path d="M 512.3345911860127 614.3345911860127 L 474.99999999999994 577.0000000000001 L 437.6654088139872 614.3345911860129 L 475.00000000000006 651.6691823720256 Z" style="stroke:#FF0014; stroke-opacity: 0.14545454545454545;fill:#3E18FF; fill-opacity: 0.16818181818181818;"/>
<path d="M 437.6654088139872 614.3345911860129 L 423.99999999999994 563.3345911860129 L 373 577.0000000000001 L 386.6654088139872 628 Z" style="stroke:#FF0014; stroke-opacity: 0.14545454545454545;fill:#3E18FF; fill-opacity: 0.16818181818181818;"/>
<path d="M 373 577.0000000000001 L 386.66540881398737 526.0000000000001 L 335.6654088139873 512.3345911860127 L 322 563.3345911860127 Z" style="stroke:#FF0014; stroke-opacity: 0.14545454545454545;fill:#3E18FF; fill-opacity: 0.16818181818181818;"/>
<path d="M 335.6654088139873 512.3345911860127 L 373 475 L 335.66540881398726 437.66540881398726 L 298.3308176279745 475 Z" style="stroke:#FF0014; stroke-opacity: 0.14545454545454545;fill:#3E18FF; fill-opacity: 0.16818181818181818;"/>
<path d="M 335.66540881398726 437.66540881398726 L 386.66540881398726 423.9999999999999 L 372.99999999999994 372.99999999999994 L 321.9999999999999 386.66540881398726 Z" style="stroke:#FF0014; stroke-opacity: 0.14545454545454545;fill:#3E18FF; fill-opacity: 0.16818181818181818;"/>
<path d="M 372.99999999999994 372.99999999999994 L 423.9999999999999 386.66540881398714 L 437.66540881398714 335.66540881398726 L 386.66540881398726 322 Z" style="stroke:#FF0014; stroke-opacity: 0.14545454545454545;fill:#3E18FF; fill-opacity: 0.16818181818181818;"/>
<path d="M 437.66540881398714 335.66540881398726 L 475 373 L 512.3345911860127 335.66540881398714 L 474.9999999999999 298.3308176279744 Z" style="stroke:#FF0014; stroke-opacity: 0.14545454545454545;fill:#3E18FF; fill-opacity: 0.16818181818181818;"/>
<path d="M 512.3345911860127 335.66540881398714 L 525.9999999999999 386.66540881398714 L 576.9999999999999 372.99999999999994 L 563.3345911860127 322 Z" style="stroke:#FF0014; stroke-opacity: 0.14545454545454545;fill:#3E18FF; fill-opacity: 0.16818181818181818;"/>
<path d="M 576.9999999999999 372.99999999999994 L 563.3345911860127 424 L 614.3345911860127 437.66540881398714 L 627.9999999999999 386.66540881398714 Z" style="stroke:#FF0014; stroke-opacity: 0.14545454545454545;fill:#3E18FF; fill-opacity: 0.16818181818181818;"/>
<path d="M 614.3345911860127 437.66540881398714 L 577 475.00000000000006 L 614.3345911860129 512.3345911860129 L 651.6691823720257 474.99999999999994 Z" style="stroke:#FF0014; stroke-opacity: 0.14545454545454545;fill:#3E18FF; fill-opacity: 0.16818181818181818;"/>
<path d="M 614.3345911860129 512.3345911860129 L 563.3345911860129 526 L 577.0000000000001 577 L 628 563.3345911860129 Z" style="stroke:#FF0014; stroke-opacity: 0.14545454545454545;fill:#3E18FF; fill-opacity: 0.16818181818181818;"/>
<path d="M 526 563.3345911860127 L 493.6672955930063 544.6672955930064 L 474.99999999999994 577.0000000000001 L 507.3327044069937 595.6672955930064 Z" style="stroke:#FF0028; stroke-opacity: 0.14545454545454545;fill:#3E18FF; fill-opacity: 0.16818181818181818;"/>
<path d="M 474.99999999999994 577.0000000000001 L 456.33270440699357 544.6672955930064 L 423.99999999999994 563.3345911860129 L 442.6672955930063 595.6672955930064 Z" style="stroke:#FF0028; stroke-opacity: 0.14545454545454545;fill:#3E18FF; fill-opacity: 0.16818181818181818;"/>
<path d="M 423.99999999999994 563.3345911860129 L 424.00000000000006 526.0000000000001 L 386.66540881398737 526.0000000000001 L 386.6654088139873 563.3345911860127 Z" style="stroke:#FF0028; stroke-opacity: 0.14545454545454545;fill:#3E18FF; fill-opacity: 0.16818181818181818;"/>
<path d="M 386.66540881398737 526.0000000000001 L 405.33270440699374 493.6672955930064 L 373 475 L 354.3327044069936 507.33270440699374 Z" style="stroke:#FF0028; stroke-opacity: 0.14545454545454545;fill:#3E18FF; fill-opacity: 0.16818181818181818;"/>
<path d="M 373 475 L 405.3327044069937 456.33270440699357 L 386.66540881398726 423.9999999999999 L 354.33270440699357 442.6672955930063 Z" style="stroke:#FF0028; stroke-opacity: 0.14545454545454545;fill:#3E18FF; fill-opacity: 0.16818181818181818;"/>
<path d="M 386.66540881398726 423.9999999999999 L 423.99999999999994 423.99999999999983 L 423.9999999999999 386.66540881398714 L 386.6654088139872 386.6654088139872 Z" style="stroke:#FF0028; stroke-opacity: 0.14545454545454545;fill:#3E18FF; fill-opacity: 0.16818181818181818;"/>
<path d="M 423.9999999999999 386.66540881398714 L 456.3327044069935 405.3327044069936 L 475 373 L 442.6672955930064 354.3327044069935 Z" style="stroke:#FF0028; stroke-opacity: 0.14545454545454545;fill:#3E18FF; fill-opacity: 0.16818181818181818;"/>
<path d="M 475 373 L 493.6672955930064 405.3327044069935 L 525.9999999999999 386.66540881398714 L 507.3327044069935 354.3327044069936 Z" style="stroke:#FF0028; stroke-opacity: 0.14545454545454545;fill:#3E18FF; fill-opacity: 0.16818181818181818;"/>
<path d="M 525.9999999999999 386.66540881398714 L 525.9999999999999 424 L 563.3345911860127 424 L 563.3345911860127 386.66540881398714 Z" style="stroke:#FF0028; stroke-opacity: 0.14545454545454545;fill:#3E18FF; fill-opacity: 0.16818181818181818;"/>
<path d="M 563.3345911860127 424 L 544.6672955930064 456.3327044069936 L 577 475.00000000000006 L 595.6672955930064 442.6672955930064 Z" style="stroke:#FF0028; stroke-opacity: 0.14545454545454545;fill:#3E18FF; fill-opacity: 0.16818181818181818;"/>
<path d="M 577 475.00000000000006 L 544.6672955930064 493.66729559300643 L 563.3345911860129 526 L 595.6672955930064 507.33270440699357 Z" style="stroke:#FF0028; stroke-opacity: 0.14545454545454545;fill:#3E18FF; fill-opacity: 0.16818181818181818;"/>
<path d="M 563.3345911860129 526 L 526 526 L 526 563.3345911860127 L 563.3345911860129 563.3345911860129 Z" style="stroke:#FF0028; stroke-opacity: 0.14545454545454545;fill:#3E18FF; fill-opacity: 0.16818181818181818;"/>
<path d="M 493.6672955930063 544.6672955930064 L 474.99999999999994 526 L 456.33270440699357 544.6672955930064 L 474.99999999999994 563.3345911860129 Z" style="stroke:#FF003C; stroke-opacity: 0.14545454545454545;fill:#3E18FF; fill-opacity: 0.16818181818181818;"/>
<path d="M 456.33270440699357 544.6672955930064 L 449.49999999999994 519.1672955930065 L 424.00000000000006 526.0000000000001 L 430.8327044069936 551.5000000000001 Z" style="stroke:#FF003C; stroke-opacity: 0.14545454545454545;fill:#3E18FF; fill-opacity: 0.16818181818181818;"/>
<path d="M 424.00000000000006 526.0000000000001 L 430.83270440699374 500.50000000000006 L 405.33270440699374 493.6672955930064 L 398.50000000000006 519.1672955930063 Z" style="stroke:#FF003C; stroke-opacity: 0.14545454545454545;fill:#3E18FF; fill-opacity: 0.16818181818181818;"/>
<path d="M 405.33270440699374 493.6672955930064 L 424.0000000000001 475 L 405.3327044069937 456.33270440699357 L 386.66540881398726 475 Z" style="stroke:#FF003C; stroke-opacity: 0.14545454545454545;fill:#3E18FF; fill-opacity: 0.16818181818181818;"/>
<path d="M 405.3327044069937 456.33270440699357 L 430.8327044069937 449.4999999999998 L 423.99999999999994 423.99999999999983 L 398.4999999999999 430.83270440699357 Z" style="stroke:#FF003C; stroke-opacity: 0.14545454545454545;fill:#3E18FF; fill-opacity: 0.16818181818181818;"/>
<path d="M 423.99999999999994 423.99999999999983 L 449.49999999999983 430.8327044069935 L 456.3327044069935 405.3327044069936 L 430.8327044069936 398.49999999999994 Z" style="stroke:#FF003C; stroke-opacity: 0.14545454545454545;fill:#3E18FF; fill-opacity: 0.16818181818181818;"/>
<path d="M 456.3327044069935 405.3327044069936 L 475 424 L 493.6672955930064 405.3327044069935 L 474.9999999999999 386.66540881398714 Z" style="stroke:#FF003C; stroke-opacity: 0.14545454545454545;fill:#3E18FF; fill-opacity: 0.16818181818181818;"/>
<path d="M 493.6672955930064 405.3327044069935 L 500.4999999999999 430.83270440699357 L 525.9999999999999 424 L 519.1672955930063 398.5 Z" style="stroke:#FF003C; stroke-opacity: 0.14545454545454545;fill:#3E18FF; fill-opacity: 0.16818181818181818;"/>
<path d="M 525.9999999999999 424 L 519.1672955930063 449.50000000000006 L 544.6672955930064 456.3327044069936 L 551.4999999999999 430.8327044069935 Z" style="stroke:#FF003C; stroke-opacity: 0.14545454545454545;fill:#3E18FF; fill-opacity: 0.16818181818181818;"/>
<path d="M 544.6672955930064 456.3327044069936 L 526 475 L 544.6672955930064 493.66729559300643 L 563.3345911860129 475 Z" style="stroke:#FF003C; stroke-opacity: 0.14545454545454545;fill:#3E18FF; fill-opacity: 0.16818181818181818;"/>
<path d="M 544.6672955930064 493.66729559300643 L 519.1672955930064 500.5 L 526 526 L 551.5 519.1672955930064 Z" style="stroke:#FF003C; stroke-opacity: 0.14545454545454545;fill:#3E18FF; fill-opacity: 0.16818181818181818;"/>
<path d="M 526 526 L 500.49999999999994 519.1672955930064 L 493.6672955930063 544.6672955930064 L 519.1672955930063 551.5 Z" style="stroke:#FF003C; stroke-opacity: 0.14545454545454545;fill:#3E18FF; fill-opacity: 0.16818181818181818;"/>
<path d="M 474.99999999999994 526 L 465.6663522034967 509.8336477965033 L 449.49999999999994 519.1672955930065 L 458.8336477965032 535.3336477965033 Z" style="stroke:#FF0050; stroke-opacity: 0.14545454545454545;fill:#3E18FF; fill-opacity: 0.16818181818181818;"/>
<path d="M 449.49999999999994 519.1672955930065 L 449.5000000000001 500.5000000000002 L 430.83270440699374 500.50000000000006 L 430.83270440699357 519.1672955930064 Z" style="stroke:#FF0050; stroke-opacity: 0.14545454545454545;fill:#3E18FF; fill-opacity: 0.16818181818181818;"/>
<path d="M 430.83270440699374 500.50000000000006 L 440.16635220349696 484.33364779650316 L 424.0000000000001 475 L 414.66635220349684 491.16635220349684 Z" style="stroke:#FF0050; stroke-opacity: 0.14545454545454545;fill:#3E18FF; fill-opacity: 0.16818181818181818;"/>
<path d="M 424.0000000000001 475 L 440.166352203497 465.6663522034967 L 430.8327044069937 449.4999999999998 L 414.6663522034968 458.8336477965031 Z" style="stroke:#FF0050; stroke-opacity: 0.14545454545454545;fill:#3E18FF; fill-opacity: 0.16818181818181818;"/>
<path d="M 430.8327044069937 449.4999999999998 L 449.4999999999999 449.4999999999998 L 449.49999999999983 430.8327044069935 L 430.8327044069937 430.83270440699357 Z" style="stroke:#FF0050; stroke-opacity: 0.14545454545454545;fill:#3E18FF; fill-opacity: 0.16818181818181818;"/>
<path d="M 449.49999999999983 430.8327044069935 L 465.66635220349673 440.16635220349684 L 475 424 L 458.83364779650316 414.6663522034966 Z" style="stroke:#FF0050; stroke-opacity: 0.14545454545454545;fill:#3E18FF; fill-opacity: 0.16818181818181818;"/>
<path d="M 475 424 L 484.33364779650316 440.16635220349673 L 500.4999999999999 430.83270440699357 L 491.16635220349673 414.66635220349684 Z" style="stroke:#FF0050; stroke-opacity: 0.14545454545454545;fill:#3E18FF; fill-opacity: 0.16818181818181818;"/>
<path d="M 500.4999999999999 430.83270440699357 L 500.4999999999999 449.50000000000006 L 519.1672955930063 449.50000000000006 L 519.1672955930063 430.8327044069936 Z" style="stroke:#FF0050; stroke-opacity: 0.14545454545454545;fill:#3E18FF; fill-opacity: 0.16818181818181818;"/>
<path d="M 519.1672955930063 449.50000000000006 L 509.8336477965031 465.66635220349684 L 526 475 L 535.3336477965031 458.83364779650316 Z" style="stroke:#FF0050; stroke-opacity: 0.14545454545454545;fill:#3E18FF; fill-opacity: 0.16818181818181818;"/>
<path d="M 526 475 L 509.8336477965032 484.3336477965032 L 519.1672955930064 500.5 L 535.3336477965032 491.1663522034968 Z" style="stroke:#FF0050; stroke-opacity: 0.14545454545454545;fill:#3E18FF; fill-opacity: 0.16818181818181818;"/>
<path d="M 519.1672955930064 500.5 L 500.49999999999994 500.5 L 500.49999999999994 519.1672955930064 L 519.1672955930063 519.1672955930064 Z" style="stroke:#FF0050; stroke-opacity: 0.14545454545454545;fill:#3E18FF; fill-opacity: 0.16818181818181818;"/>
<path d="M 500.49999999999994 519.1672955930064 L 484.33364779650316 509.8336477965032 L 474.99999999999994 526 L 491.16635220349673 535.3336477965032 Z" style="stroke:#FF0050; stroke-opacity: 0.14545454545454545;fill:#3E18FF; fill-opacity: 0.16818181818181818;"/>
<path d="M 465.6663522034967 509.8336477965033 L 462.24999999999994 497.0836477965035 L 449.5000000000001 500.5000000000002 L 452.91635220349684 513.2500000000001 Z" style="stroke:#FF0064; stroke-opacity: 0.14545454545454545;fill:#3E18FF; fill-opacity: 0.16818181818181818;"/>
<path d="M 449.5000000000001 500.5000000000002 L 452.9163522034971 487.75000000000006 L 440.16635220349696 484.33364779650316 L 436.75 497.08364779650327 Z" style="stroke:#FF0064; stroke-opacity: 0.14545454545454545;fill:#3E18FF; fill-opacity: 0.16818181818181818;"/>
<path d="M 440.16635220349696 484.33364779650316 L 449.5000000000002 474.9999999999999 L 440.166352203497 465.6663522034967 L 430.8327044069938 474.9999999999999 Z" style="stroke:#FF0064; stroke-opacity: 0.14545454545454545;fill:#3E18FF; fill-opacity: 0.16818181818181818;"/>
<path d="M 440.166352203497 465.6663522034967 L 452.9163522034969 462.24999999999966 L 449.4999999999999 449.4999999999998 L 436.75 452.9163522034968 Z" style="stroke:#FF0064; stroke-opacity: 0.14545454545454545;fill:#3E18FF; fill-opacity: 0.16818181818181818;"/>
<path d="M 449.4999999999999 449.4999999999998 L 462.2499999999998 452.9163522034968 L 465.66635220349673 440.16635220349684 L 452.9163522034969 436.7499999999999 Z" style="stroke:#FF0064; stroke-opacity: 0.14545454545454545;fill:#3E18FF; fill-opacity: 0.16818181818181818;"/>
<path d="M 465.66635220349673 440.16635220349684 L 475 449.5 L 484.33364779650316 440.16635220349673 L 474.9999999999999 430.83270440699357 Z" style="stroke:#FF0064; stroke-opacity: 0.14545454545454545;fill:#3E18FF; fill-opacity: 0.16818181818181818;"/>
<path d="M 484.33364779650316 440.16635220349673 L 487.7499999999999 452.91635220349673 L 500.4999999999999 449.50000000000006 L 497.0836477965032 436.75000000000006 Z" style="stroke:#FF0064; stroke-opacity: 0.14545454545454545;fill:#3E18FF; fill-opacity: 0.16818181818181818;"/>
<path d="M 500.4999999999999 449.50000000000006 L 497.0836477965031 462.25000000000006 L 509.8336477965031 465.66635220349684 L 513.2499999999999 452.91635220349684 Z" style="stroke:#FF0064; stroke-opacity: 0.14545454545454545;fill:#3E18FF; fill-opacity: 0.16818181818181818;"/>
<path d="M 509.8336477965031 465.66635220349684 L 500.5 475.00000000000006 L 509.8336477965032 484.3336477965032 L 519.1672955930063 474.99999999999994 Z" style="stroke:#FF0064; stroke-opacity: 0.14545454545454545;fill:#3E18FF; fill-opacity: 0.16818181818181818;"/>
<path d="M 509.8336477965032 484.3336477965032 L 497.08364779650316 487.75 L 500.49999999999994 500.5 L 513.25 497.0836477965032 Z" style="stroke:#FF0064; stroke-opacity: 0.14545454545454545;fill:#3E18FF; fill-opacity: 0.16818181818181818;"/>
<path d="M 500.49999999999994 500.5 L 487.74999999999994 497.0836477965032 L 484.33364779650316 509.8336477965032 L 497.08364779650316 513.25 Z" style="stroke:#FF0064; stroke-opacity: 0.14545454545454545;fill:#3E18FF; fill-opacity: 0.16818181818181818;"/>
<path d="M 484.33364779650316 509.8336477965032 L 474.99999999999983 500.5 L 465.6663522034967 509.8336477965033 L 474.99999999999994 519.1672955930065 Z" style="stroke:#FF0064; stroke-opacity: 0.14545454545454545;fill:#3E18FF; fill-opacity: 0.16818181818181818;"/>
<path d="M 462.24999999999994 497.0836477965035 L 462.2500000000002 487.75000000000034 L 452.9163522034971 487.75000000000006 L 452.9163522034968 497.0836477965032 Z" style="stroke:#FF0078; stroke-opacity: 0.14545454545454545;fill:#3E18FF; fill-opacity: 0.16818181818181818;"/>
<path d="M 452.9163522034971 487.75000000000006 L 457.5831761017488 479.66682389825155 L 449.5000000000002 474.9999999999999 L 444.83317610174856 483.08317610174845 Z" style="stroke:#FF0078; stroke-opacity: 0.14545454545454545;fill:#3E18FF; fill-opacity: 0.16818181818181818;"/>
<path d="M 449.5000000000002 474.9999999999999 L 457.5831761017487 470.3331761017481 L 452.9163522034969 462.24999999999966 L 444.83317610174845 466.91682389825144 Z" style="stroke:#FF0078; stroke-opacity: 0.14545454545454545;fill:#3E18FF; fill-opacity: 0.16818181818181818;"/>
<path d="M 452.9163522034969 462.24999999999966 L 462.2499999999998 462.24999999999966 L 462.2499999999998 452.9163522034968 L 452.9163522034969 452.9163522034968 Z" style="stroke:#FF0078; stroke-opacity: 0.14545454545454545;fill:#3E18FF; fill-opacity: 0.16818181818181818;"/>
<path d="M 462.2499999999998 452.9163522034968 L 470.3331761017483 457.5831761017485 L 475 449.5 L 466.9168238982515 444.8331761017483 Z" style="stroke:#FF0078; stroke-opacity: 0.14545454545454545;fill:#3E18FF; fill-opacity: 0.16818181818181818;"/>
<path d="M 475 449.5 L 479.6668238982516 457.5831761017483 L 487.7499999999999 452.91635220349673 L 483.0831761017483 444.8331761017484 Z" style="stroke:#FF0078; stroke-opacity: 0.14545454545454545;fill:#3E18FF; fill-opacity: 0.16818181818181818;"/>
<path d="M 487.7499999999999 452.91635220349673 L 487.74999999999983 462.25 L 497.0836477965031 462.25000000000006 L 497.08364779650316 452.9163522034968 Z" style="stroke:#FF0078; stroke-opacity: 0.14545454545454545;fill:#3E18FF; fill-opacity: 0.16818181818181818;"/>
<path d="M 497.0836477965031 462.25000000000006 L 492.41682389825155 470.3331761017485 L 500.5 475.00000000000006 L 505.16682389825155 466.9168238982516 Z" style="stroke:#FF0078; stroke-opacity: 0.14545454545454545;fill:#3E18FF; fill-opacity: 0.16818181818181818;"/>
<path d="M 500.5 475.00000000000006 L 492.4168238982516 479.6668238982516 L 497.08364779650316 487.75 L 505.1668238982515 483.0831761017484 Z" style="stroke:#FF0078; stroke-opacity: 0.14545454545454545;fill:#3E18FF; fill-opacity: 0.16818181818181818;"/>
<path d="M 497.08364779650316 487.75 L 487.74999999999994 487.75 L 487.74999999999994 497.0836477965032 L 497.08364779650316 497.0836477965032 Z" style="stroke:#FF0078; stroke-opacity: 0.14545454545454545;fill:#3E18FF; fill-opacity: 0.16818181818181818;"/>
<path d="M 487.74999999999994 497.0836477965032 L 479.6668238982515 492.41682389825155 L 474.99999999999983 500.5 L 483.0831761017483 505.16682389825166 Z" style="stroke:#FF0078; stroke-opacity: 0.14545454545454545;fill:#3E18FF; fill-opacity: 0.16818181818181818;"/>
<path d="M 474.99999999999983 500.5 L 470.33317610174817 492.41682389825183 L 462.24999999999994 497.0836477965035 L 466.9168238982516 505.1668238982517 Z" style="stroke:#FF0078; stroke-opacity: 0.14545454545454545;fill:#3E18FF; fill-opacity: 0.16818181818181818;"/>
<path d="M 462.2500000000002 487.75000000000034 L 463.9581761017489 481.3750000000002 L 457.5831761017488 479.66682389825155 L 455.8750000000001 486.04182389825166 Z" style="stroke:#FF008C; stroke-opacity: 0.14545454545454545;fill:#3E18FF; fill-opacity: 0.16818181818181818;"/>
<path d="M 457.5831761017488 479.66682389825155 L 462.25000000000045 474.9999999999998 L 457.5831761017487 470.3331761017481 L 452.916352203497 474.9999999999999 Z" style="stroke:#FF008C; stroke-opacity: 0.14545454545454545;fill:#3E18FF; fill-opacity: 0.16818181818181818;"/>
<path d="M 457.5831761017487 470.3331761017481 L 463.95817610174845 468.62499999999943 L 462.2499999999998 462.24999999999966 L 455.875 463.95817610174834 Z" style="stroke:#FF008C; stroke-opacity: 0.14545454545454545;fill:#3E18FF; fill-opacity: 0.16818181818181818;"/>
<path d="M 462.2499999999998 462.24999999999966 L 468.62499999999955 463.95817610174834 L 470.3331761017483 457.5831761017485 L 463.95817610174845 455.8749999999999 Z" style="stroke:#FF008C; stroke-opacity: 0.14545454545454545;fill:#3E18FF; fill-opacity: 0.16818181818181818;"/>
<path d="M 470.3331761017483 457.5831761017485 L 475.00000000000006 462.25000000000006 L 479.6668238982516 457.5831761017483 L 474.99999999999983 452.91635220349673 Z" style="stroke:#FF008C; stroke-opacity: 0.14545454545454545;fill:#3E18FF; fill-opacity: 0.16818181818181818;"/>
<path d="M 479.6668238982516 457.5831761017483 L 481.3749999999999 463.9581761017482 L 487.74999999999983 462.25 L 486.04182389825155 455.875 Z" style="stroke:#FF008C; stroke-opacity: 0.14545454545454545;fill:#3E18FF; fill-opacity: 0.16818181818181818;"/>
<path d="M 487.74999999999983 462.25 L 486.04182389825144 468.62500000000006 L 492.41682389825155 470.3331761017485 L 494.1249999999999 463.9581761017484 Z" style="stroke:#FF008C; stroke-opacity: 0.14545454545454545;fill:#3E18FF; fill-opacity: 0.16818181818181818;"/>
<path d="M 492.41682389825155 470.3331761017485 L 487.75 475.0000000000001 L 492.4168238982516 479.6668238982516 L 497.0836477965031 475 Z" style="stroke:#FF008C; stroke-opacity: 0.14545454545454545;fill:#3E18FF; fill-opacity: 0.16818181818181818;"/>
<path d="M 492.4168238982516 479.6668238982516 L 486.04182389825155 481.37499999999994 L 487.74999999999994 487.75 L 494.125 486.0418238982516 Z" style="stroke:#FF008C; stroke-opacity: 0.14545454545454545;fill:#3E18FF; fill-opacity: 0.16818181818181818;"/>
<path d="M 487.74999999999994 487.75 L 481.37499999999994 486.04182389825155 L 479.6668238982515 492.41682389825155 L 486.0418238982515 494.125 Z" style="stroke:#FF008C; stroke-opacity: 0.14545454545454545;fill:#3E18FF; fill-opacity: 0.16818181818181818;"/>
<path d="M 479.6668238982515 492.41682389825155 L 474.99999999999966 487.75 L 470.33317610174817 492.41682389825183 L 475 497.0836477965033 Z" style="stroke:#FF008C; stroke-opacity: 0.14545454545454545;fill:#3E18FF; fill-opacity: 0.16818181818181818;"/>
<path d="M 470.33317610174817 492.41682389825183 L 468.625 486.0418238982521 L 462.2500000000002 487.75000000000034 L 463.95817610174845 494.1250000000001 Z" style="stroke:#FF008C; stroke-opacity: 0.14545454545454545;fill:#3E18FF; fill-opacity: 0.16818181818181818;"/>
</g>
</svg>