<?xml version="1.0"?><!DOCTYPE svg PUBLIC "-//W3C//DTD SVG 1.1//EN" "http://www.w3.org/Graphics/SVG/1.1/DTD/svg11.dtd"><svg xmlns="http://www.w3.org/2000/svg" width="950" height="950">
<title>PatternSixtySix</title>
<desc>
Generated using the following configuration:

@implementation NewPattern : PatternSixtySix
+ (CPDict) defaultConfig
{
 return [CPDictionary dictionaryWithObjectsAndKeys:[[GRColor alloc] initWithGradientColors:[] baseColor:[CPColor colorWith8BitRed:255 green:255 blue:255 alpha:1]], "background_color", 0, "background_color_direction", 40, "number_of_points", 0, "rotation", 0, "recurse_depth", 1, "factor_larger", [GRPoint pointWithX:475 Y:475], "center_point", 180, "radius", YES, "show_shapes", [[CPColor colorWith8BitRed:0 green:255 blue:100 alpha:0],[CPColor colorWith8BitRed:0 green:0 blue:0 alpha:0.33636363636363636],[CPColor colorWith8BitRed:0 green:0 blue:0 alpha:0.3],[CPColor colorWith8BitRed:0 green:0 blue:0 alpha:0],[CPColor colorWith8BitRed:255 green:2 blue:10 alpha:0],[CPColor colorWith8BitRed:255 green:23 blue:10 alpha:0]], "stroke_colors", [[CPColor colorWith8BitRed:51 green:32 blue:255 alpha:0],[CPColor colorWith8BitRed:255 green:255 blue:0 alpha:0.16363636363636364],[CPColor colorWith8BitRed:255 green:255 blue:0 alpha:0.16363636363636364],[CPColor colorWith8BitRed:200 green:96 blue:175 alpha:0],[CPColor colorWith8BitRed:23 green:200 blue:10 alpha:0],[CPColor colorWith8BitRed:200 green:23 blue:10 alpha:0]], "fill_colors"];
}
@end

</desc>
  <defs>
    <linearGradient id="grad1" x1="0%" y1="0%" x2="100%" y2="0%">
<stop offset="100%" style="stop-color:#FFFFFF;stop-opacity:1;" />
    </linearGradient>
  </defs>
<rect id="background" width="100%" height="100%" fill="url(#grad1)"/>
<g id="rotatelayer" transform="rotate(0, 475, 475)">
<path d="M 655 474.99999999999994 Z" style="stroke:#00FF64; stroke-opacity: 0;fill:#3320FF; fill-opacity: 0;"/>
<circle cx="475" cy="475" r="180" style="stroke:#00FF64; stroke-opacity: 0;fill:#3320FF; fill-opacity: 0;"/>
<path d="M 835 474.9999999999999 Z" style="stroke:#000000; stroke-opacity: 0.3;fill:#FFFF00; fill-opacity: 0.16363636363636364;"/>
<circle cx="655" cy="474.99999999999994" r="180" style="stroke:#000000; stroke-opacity: 0.3;fill:#FFFF00; fill-opacity: 0.16363636363636364;"/>
<path d="M 832.7839013071248 446.8417962927583 Z" style="stroke:#000000; stroke-opacity: 0.33636363636363636;fill:#FFFF00; fill-opacity: 0.16363636363636364;"/>
<circle cx="652.7839013071248" cy="446.8417962927584" r="180" style="stroke:#000000; stroke-opacity: 0.33636363636363636;fill:#FFFF00; fill-opacity: 0.16363636363636364;"/>
<path d="M 826.1901729331277 419.37694101250935 Z" style="stroke:#000000; stroke-opacity: 0.3;fill:#FFFF00; fill-opacity: 0.16363636363636364;"/>
<circle cx="646.1901729331277" cy="419.3769410125094" r="180" style="stroke:#000000; stroke-opacity: 0.3;fill:#FFFF00; fill-opacity: 0.16363636363636364;"/>
<path d="M 815.3811743539062 393.28171004688147 Z" style="stroke:#000000; stroke-opacity: 0.33636363636363636;fill:#FFFF00; fill-opacity: 0.16363636363636364;"/>
<circle cx="635.3811743539062" cy="393.2817100468815" r="180" style="stroke:#000000; stroke-opacity: 0.33636363636363636;fill:#FFFF00; fill-opacity: 0.16363636363636364;"/>
<path d="M 800.6230589874905 369.1986545873547 Z" style="stroke:#000000; stroke-opacity: 0.3;fill:#FFFF00; fill-opacity: 0.16363636363636364;"/>
<circle cx="620.6230589874905" cy="369.1986545873548" r="180" style="stroke:#000000; stroke-opacity: 0.3;fill:#FFFF00; fill-opacity: 0.16363636363636364;"/>
<path d="M 782.2792206135786 347.7207793864214 Z" style="stroke:#000000; stroke-opacity: 0.33636363636363636;fill:#FFFF00; fill-opacity: 0.16363636363636364;"/>
<circle cx="602.2792206135786" cy="347.72077938642144" r="180" style="stroke:#000000; stroke-opacity: 0.33636363636363636;fill:#FFFF00; fill-opacity: 0.16363636363636364;"/>
<path d="M 760.8013454126451 329.37694101250935 Z" style="stroke:#000000; stroke-opacity: 0.3;fill:#FFFF00; fill-opacity: 0.16363636363636364;"/>
<circle cx="580.8013454126451" cy="329.3769410125094" r="180" style="stroke:#000000; stroke-opacity: 0.3;fill:#FFFF00; fill-opacity: 0.16363636363636364;"/>
<path d="M 736.7182899531184 314.61882564609374 Z" style="stroke:#000000; stroke-opacity: 0.33636363636363636;fill:#FFFF00; fill-opacity: 0.16363636363636364;"/>
<circle cx="556.7182899531184" cy="314.6188256460938" r="180" style="stroke:#000000; stroke-opacity: 0.33636363636363636;fill:#FFFF00; fill-opacity: 0.16363636363636364;"/>
<path d="M 710.6230589874905 303.8098270668723 Z" style="stroke:#000000; stroke-opacity: 0.3;fill:#FFFF00; fill-opacity: 0.16363636363636364;"/>
<circle cx="530.6230589874905" cy="303.80982706687234" r="180" style="stroke:#000000; stroke-opacity: 0.3;fill:#FFFF00; fill-opacity: 0.16363636363636364;"/>
<path d="M 683.1582037072415 297.21609869287516 Z" style="stroke:#000000; stroke-opacity: 0.33636363636363636;fill:#FFFF00; fill-opacity: 0.16363636363636364;"/>
<circle cx="503.1582037072415" cy="297.2160986928752" r="180" style="stroke:#000000; stroke-opacity: 0.33636363636363636;fill:#FFFF00; fill-opacity: 0.16363636363636364;"/>
<path d="M 655 294.99999999999994 Z" style="stroke:#000000; stroke-opacity: 0.3;fill:#FFFF00; fill-opacity: 0.16363636363636364;"/>
<circle cx="474.99999999999994" cy="295" r="180" style="stroke:#000000; stroke-opacity: 0.3;fill:#FFFF00; fill-opacity: 0.16363636363636364;"/>
<path d="M 626.8417962927584 297.21609869287516 Z" style="stroke:#000000; stroke-opacity: 0.33636363636363636;fill:#FFFF00; fill-opacity: 0.16363636363636364;"/>
<circle cx="446.84179629275843" cy="297.2160986928752" r="180" style="stroke:#000000; stroke-opacity: 0.33636363636363636;fill:#FFFF00; fill-opacity: 0.16363636363636364;"/>
<path d="M 599.3769410125094 303.8098270668723 Z" style="stroke:#000000; stroke-opacity: 0.3;fill:#FFFF00; fill-opacity: 0.16363636363636364;"/>
<circle cx="419.37694101250946" cy="303.80982706687234" r="180" style="stroke:#000000; stroke-opacity: 0.3;fill:#FFFF00; fill-opacity: 0.16363636363636364;"/>
<path d="M 573.2817100468816 314.61882564609374 Z" style="stroke:#000000; stroke-opacity: 0.33636363636363636;fill:#FFFF00; fill-opacity: 0.16363636363636364;"/>
<circle cx="393.2817100468816" cy="314.6188256460938" r="180" style="stroke:#000000; stroke-opacity: 0.33636363636363636;fill:#FFFF00; fill-opacity: 0.16363636363636364;"/>
<path d="M 549.1986545873548 329.37694101250946 Z" style="stroke:#000000; stroke-opacity: 0.3;fill:#FFFF00; fill-opacity: 0.16363636363636364;"/>
<circle cx="369.1986545873548" cy="329.3769410125095" r="180" style="stroke:#000000; stroke-opacity: 0.3;fill:#FFFF00; fill-opacity: 0.16363636363636364;"/>
<path d="M 527.7207793864214 347.7207793864214 Z" style="stroke:#000000; stroke-opacity: 0.33636363636363636;fill:#FFFF00; fill-opacity: 0.16363636363636364;"/>
<circle cx="347.72077938642144" cy="347.72077938642144" r="180" style="stroke:#000000; stroke-opacity: 0.33636363636363636;fill:#FFFF00; fill-opacity: 0.16363636363636364;"/>
<path d="M 509.37694101250946 369.1986545873548 Z" style="stroke:#000000; stroke-opacity: 0.3;fill:#FFFF00; fill-opacity: 0.16363636363636364;"/>
<circle cx="329.37694101250946" cy="369.19865458735484" r="180" style="stroke:#000000; stroke-opacity: 0.3;fill:#FFFF00; fill-opacity: 0.16363636363636364;"/>
<path d="M 494.6188256460938 393.2817100468815 Z" style="stroke:#000000; stroke-opacity: 0.33636363636363636;fill:#FFFF00; fill-opacity: 0.16363636363636364;"/>
<circle cx="314.6188256460938" cy="393.2817100468816" r="180" style="stroke:#000000; stroke-opacity: 0.33636363636363636;fill:#FFFF00; fill-opacity: 0.16363636363636364;"/>
<path d="M 483.80982706687234 419.37694101250946 Z" style="stroke:#000000; stroke-opacity: 0.3;fill:#FFFF00; fill-opacity: 0.16363636363636364;"/>
<circle cx="303.80982706687234" cy="419.3769410125095" r="180" style="stroke:#000000; stroke-opacity: 0.3;fill:#FFFF00; fill-opacity: 0.16363636363636364;"/>
<path d="M 477.2160986928752 446.84179629275843 Z" style="stroke:#000000; stroke-opacity: 0.33636363636363636;fill:#FFFF00; fill-opacity: 0.16363636363636364;"/>
<circle cx="297.2160986928752" cy="446.8417962927585" r="180" style="stroke:#000000; stroke-opacity: 0.33636363636363636;fill:#FFFF00; fill-opacity: 0.16363636363636364;"/>
<path d="M 475 474.99999999999994 Z" style="stroke:#000000; stroke-opacity: 0.3;fill:#FFFF00; fill-opacity: 0.16363636363636364;"/>
<circle cx="295" cy="475" r="180" style="stroke:#000000; stroke-opacity: 0.3;fill:#FFFF00; fill-opacity: 0.16363636363636364;"/>
<path d="M 477.2160986928752 503.1582037072415 Z" style="stroke:#000000; stroke-opacity: 0.33636363636363636;fill:#FFFF00; fill-opacity: 0.16363636363636364;"/>
<circle cx="297.2160986928752" cy="503.15820370724157" r="180" style="stroke:#000000; stroke-opacity: 0.33636363636363636;fill:#FFFF00; fill-opacity: 0.16363636363636364;"/>
<path d="M 483.80982706687234 530.6230589874906 Z" style="stroke:#000000; stroke-opacity: 0.3;fill:#FFFF00; fill-opacity: 0.16363636363636364;"/>
<circle cx="303.80982706687234" cy="530.6230589874906" r="180" style="stroke:#000000; stroke-opacity: 0.3;fill:#FFFF00; fill-opacity: 0.16363636363636364;"/>
<path d="M 494.6188256460938 556.7182899531184 Z" style="stroke:#000000; stroke-opacity: 0.33636363636363636;fill:#FFFF00; fill-opacity: 0.16363636363636364;"/>
<circle cx="314.6188256460938" cy="556.7182899531184" r="180" style="stroke:#000000; stroke-opacity: 0.33636363636363636;fill:#FFFF00; fill-opacity: 0.16363636363636364;"/>
<path d="M 509.3769410125095 580.8013454126452 Z" style="stroke:#000000; stroke-opacity: 0.3;fill:#FFFF00; fill-opacity: 0.16363636363636364;"/>
<circle cx="329.3769410125095" cy="580.8013454126452" r="180" style="stroke:#000000; stroke-opacity: 0.3;fill:#FFFF00; fill-opacity: 0.16363636363636364;"/>
<path d="M 527.7207793864214 602.2792206135786 Z" style="stroke:#000000; stroke-opacity: 0.33636363636363636;fill:#FFFF00; fill-opacity: 0.16363636363636364;"/>
<circle cx="347.72077938642144" cy="602.2792206135786" r="180" style="stroke:#000000; stroke-opacity: 0.33636363636363636;fill:#FFFF00; fill-opacity: 0.16363636363636364;"/>
<path d="M 549.1986545873549 620.6230589874906 Z" style="stroke:#000000; stroke-opacity: 0.3;fill:#FFFF00; fill-opacity: 0.16363636363636364;"/>
<circle cx="369.19865458735484" cy="620.6230589874906" r="180" style="stroke:#000000; stroke-opacity: 0.3;fill:#FFFF00; fill-opacity: 0.16363636363636364;"/>
<path d="M 573.2817100468816 635.3811743539062 Z" style="stroke:#000000; stroke-opacity: 0.33636363636363636;fill:#FFFF00; fill-opacity: 0.16363636363636364;"/>
<circle cx="393.2817100468816" cy="635.3811743539062" r="180" style="stroke:#000000; stroke-opacity: 0.33636363636363636;fill:#FFFF00; fill-opacity: 0.16363636363636364;"/>
<path d="M 599.3769410125094 646.1901729331277 Z" style="stroke:#000000; stroke-opacity: 0.3;fill:#FFFF00; fill-opacity: 0.16363636363636364;"/>
<circle cx="419.37694101250946" cy="646.1901729331277" r="180" style="stroke:#000000; stroke-opacity: 0.3;fill:#FFFF00; fill-opacity: 0.16363636363636364;"/>
<path d="M 626.8417962927584 652.7839013071248 Z" style="stroke:#000000; stroke-opacity: 0.33636363636363636;fill:#FFFF00; fill-opacity: 0.16363636363636364;"/>
<circle cx="446.84179629275843" cy="652.7839013071248" r="180" style="stroke:#000000; stroke-opacity: 0.33636363636363636;fill:#FFFF00; fill-opacity: 0.16363636363636364;"/>
<path d="M 655 655 Z" style="stroke:#000000; stroke-opacity: 0.3;fill:#FFFF00; fill-opacity: 0.16363636363636364;"/>
<circle cx="475" cy="655" r="180" style="stroke:#000000; stroke-opacity: 0.3;fill:#FFFF00; fill-opacity: 0.16363636363636364;"/>
<path d="M 683.1582037072416 652.7839013071248 Z" style="stroke:#000000; stroke-opacity: 0.33636363636363636;fill:#FFFF00; fill-opacity: 0.16363636363636364;"/>
<circle cx="503.15820370724157" cy="652.7839013071248" r="180" style="stroke:#000000; stroke-opacity: 0.33636363636363636;fill:#FFFF00; fill-opacity: 0.16363636363636364;"/>
<path d="M 710.6230589874906 646.1901729331277 Z" style="stroke:#000000; stroke-opacity: 0.3;fill:#FFFF00; fill-opacity: 0.16363636363636364;"/>
<circle cx="530.6230589874906" cy="646.1901729331277" r="180" style="stroke:#000000; stroke-opacity: 0.3;fill:#FFFF00; fill-opacity: 0.16363636363636364;"/>
<path d="M 736.7182899531184 635.3811743539062 Z" style="stroke:#000000; stroke-opacity: 0.33636363636363636;fill:#FFFF00; fill-opacity: 0.16363636363636364;"/>
<circle cx="556.7182899531184" cy="635.3811743539062" r="180" style="stroke:#000000; stroke-opacity: 0.33636363636363636;fill:#FFFF00; fill-opacity: 0.16363636363636364;"/>
<path d="M 760.8013454126452 620.6230589874905 Z" style="stroke:#000000; stroke-opacity: 0.3;fill:#FFFF00; fill-opacity: 0.16363636363636364;"/>
<circle cx="580.8013454126452" cy="620.6230589874905" r="180" style="stroke:#000000; stroke-opacity: 0.3;fill:#FFFF00; fill-opacity: 0.16363636363636364;"/>
<path d="M 782.2792206135786 602.2792206135786 Z" style="stroke:#000000; stroke-opacity: 0.33636363636363636;fill:#FFFF00; fill-opacity: 0.16363636363636364;"/>
<circle cx="602.2792206135786" cy="602.2792206135786" r="180" style="stroke:#000000; stroke-opacity: 0.33636363636363636;fill:#FFFF00; fill-opacity: 0.16363636363636364;"/>
<path d="M 800.6230589874906 580.8013454126451 Z" style="stroke:#000000; stroke-opacity: 0.3;fill:#FFFF00; fill-opacity: 0.16363636363636364;"/>
<circle cx="620.6230589874906" cy="580.8013454126451" r="180" style="stroke:#000000; stroke-opacity: 0.3;fill:#FFFF00; fill-opacity: 0.16363636363636364;"/>
<path d="M 815.3811743539062 556.7182899531184 Z" style="stroke:#000000; stroke-opacity: 0.33636363636363636;fill:#FFFF00; fill-opacity: 0.16363636363636364;"/>
<circle cx="635.3811743539062" cy="556.7182899531184" r="180" style="stroke:#000000; stroke-opacity: 0.33636363636363636;fill:#FFFF00; fill-opacity: 0.16363636363636364;"/>
<path d="M 826.1901729331277 530.6230589874905 Z" style="stroke:#000000; stroke-opacity: 0.3;fill:#FFFF00; fill-opacity: 0.16363636363636364;"/>
<circle cx="646.1901729331277" cy="530.6230589874905" r="180" style="stroke:#000000; stroke-opacity: 0.3;fill:#FFFF00; fill-opacity: 0.16363636363636364;"/>
<path d="M 832.7839013071248 503.1582037072415 Z" style="stroke:#000000; stroke-opacity: 0.33636363636363636;fill:#FFFF00; fill-opacity: 0.16363636363636364;"/>
<circle cx="652.7839013071248" cy="503.15820370724157" r="180" style="stroke:#000000; stroke-opacity: 0.33636363636363636;fill:#FFFF00; fill-opacity: 0.16363636363636364;"/>
<path d="M 652.7839013071248 503.15820370724157 L 635.7546094800017 513.5937671603674 L 646.1901729331277 530.6230589874905 L 663.2194647602506 520.1874955343646 Z" style="stroke:#000000; stroke-opacity: 0;fill:#C860AF; fill-opacity: 0;"/>
<path d="M 646.1901729331277 530.6230589874905 L 627.738058160703 538.2661751806937 L 635.3811743539062 556.7182899531184 L 653.8332891263309 549.0751737599152 Z" style="stroke:#000000; stroke-opacity: 0;fill:#C860AF; fill-opacity: 0;"/>
<path d="M 635.3811743539062 556.7182899531184 L 615.960588940935 561.380759999674 L 620.6230589874906 580.8013454126451 L 640.0436444004616 576.1388753660895 Z" style="stroke:#000000; stroke-opacity: 0;fill:#C860AF; fill-opacity: 0;"/>
<path d="M 620.6230589874906 580.8013454126451 L 600.7122022000678 582.3683638261557 L 602.2792206135786 602.2792206135786 L 622.1900774010012 600.7122022000678 Z" style="stroke:#000000; stroke-opacity: 0;fill:#C860AF; fill-opacity: 0;"/>
<path d="M 602.2792206135786 602.2792206135786 L 582.3683638261559 600.7122022000678 L 580.8013454126452 620.6230589874905 L 600.7122022000678 622.1900774010012 Z" style="stroke:#000000; stroke-opacity: 0;fill:#C860AF; fill-opacity: 0;"/>
<path d="M 580.8013454126452 620.6230589874905 L 561.380759999674 615.9605889409349 L 556.7182899531184 635.3811743539062 L 576.1388753660897 640.0436444004617 Z" style="stroke:#000000; stroke-opacity: 0;fill:#C860AF; fill-opacity: 0;"/>
<path d="M 556.7182899531184 635.3811743539062 L 538.2661751806937 627.7380581607031 L 530.6230589874906 646.1901729331277 L 549.0751737599152 653.8332891263308 Z" style="stroke:#000000; stroke-opacity: 0;fill:#C860AF; fill-opacity: 0;"/>
<path d="M 530.6230589874906 646.1901729331277 L 513.5937671603674 635.7546094800016 L 503.15820370724157 652.7839013071248 L 520.1874955343646 663.2194647602507 Z" style="stroke:#000000; stroke-opacity: 0;fill:#C860AF; fill-opacity: 0;"/>
<path d="M 503.15820370724157 652.7839013071248 L 487.9710525071832 639.8128487999415 L 475 655 L 490.1871512000584 667.9710525071832 Z" style="stroke:#000000; stroke-opacity: 0;fill:#C860AF; fill-opacity: 0;"/>
<path d="M 475 655 L 462.0289474928168 639.8128487999415 L 446.84179629275843 652.7839013071248 L 459.8128487999416 667.9710525071832 Z" style="stroke:#000000; stroke-opacity: 0;fill:#C860AF; fill-opacity: 0;"/>
<path d="M 446.84179629275843 652.7839013071248 L 436.40623283963254 635.7546094800017 L 419.37694101250946 646.1901729331277 L 429.8125044656354 663.2194647602506 Z" style="stroke:#000000; stroke-opacity: 0;fill:#C860AF; fill-opacity: 0;"/>
<path d="M 419.37694101250946 646.1901729331277 L 411.7338248193063 627.738058160703 L 393.2817100468816 635.3811743539062 L 400.9248262400848 653.8332891263309 Z" style="stroke:#000000; stroke-opacity: 0;fill:#C860AF; fill-opacity: 0;"/>
<path d="M 393.2817100468816 635.3811743539062 L 388.619240000326 615.9605889409349 L 369.19865458735484 620.6230589874906 L 373.8611246339104 640.0436444004617 Z" style="stroke:#000000; stroke-opacity: 0;fill:#C860AF; fill-opacity: 0;"/>
<path d="M 369.19865458735484 620.6230589874906 L 367.63163617384413 600.7122022000678 L 347.72077938642144 602.2792206135786 L 349.2877977999321 622.1900774010012 Z" style="stroke:#000000; stroke-opacity: 0;fill:#C860AF; fill-opacity: 0;"/>
<path d="M 347.72077938642144 602.2792206135786 L 349.28779779993215 582.3683638261559 L 329.3769410125095 580.8013454126452 L 327.8099225989988 600.7122022000678 Z" style="stroke:#000000; stroke-opacity: 0;fill:#C860AF; fill-opacity: 0;"/>
<path d="M 329.3769410125095 580.8013454126452 L 334.03941105906506 561.380759999674 L 314.6188256460938 556.7182899531184 L 309.95635559953826 576.1388753660897 Z" style="stroke:#000000; stroke-opacity: 0;fill:#C860AF; fill-opacity: 0;"/>
<path d="M 314.6188256460938 556.7182899531184 L 322.261941839297 538.2661751806937 L 303.80982706687234 530.6230589874906 L 296.16671087366916 549.0751737599152 Z" style="stroke:#000000; stroke-opacity: 0;fill:#C860AF; fill-opacity: 0;"/>
<path d="M 303.80982706687234 530.6230589874906 L 314.2453905199983 513.5937671603674 L 297.2160986928752 503.15820370724157 L 286.78053523974927 520.1874955343646 Z" style="stroke:#000000; stroke-opacity: 0;fill:#C860AF; fill-opacity: 0;"/>
<path d="M 297.2160986928752 503.15820370724157 L 310.1871512000584 487.9710525071832 L 295 475 L 282.0289474928168 490.1871512000584 Z" style="stroke:#000000; stroke-opacity: 0;fill:#C860AF; fill-opacity: 0;"/>
<path d="M 295 475 L 310.18715120005834 462.0289474928169 L 297.2160986928752 446.8417962927585 L 282.0289474928169 459.81284879994166 Z" style="stroke:#000000; stroke-opacity: 0;fill:#C860AF; fill-opacity: 0;"/>
<path d="M 297.2160986928752 446.8417962927585 L 314.24539051999824 436.40623283963254 L 303.80982706687234 419.3769410125095 L 286.7805352397493 429.8125044656354 Z" style="stroke:#000000; stroke-opacity: 0;fill:#C860AF; fill-opacity: 0;"/>
<path d="M 303.80982706687234 419.3769410125095 L 322.26194183929704 411.7338248193063 L 314.6188256460938 393.2817100468816 L 296.1667108736691 400.9248262400848 Z" style="stroke:#000000; stroke-opacity: 0;fill:#C860AF; fill-opacity: 0;"/>
<path d="M 314.6188256460938 393.2817100468816 L 334.03941105906506 388.61924000032604 L 329.37694101250946 369.19865458735484 L 309.95635559953826 373.8611246339103 Z" style="stroke:#000000; stroke-opacity: 0;fill:#C860AF; fill-opacity: 0;"/>
<path d="M 329.37694101250946 369.19865458735484 L 349.28779779993215 367.6316361738441 L 347.72077938642144 347.72077938642144 L 327.8099225989988 349.28779779993215 Z" style="stroke:#000000; stroke-opacity: 0;fill:#C860AF; fill-opacity: 0;"/>
<path d="M 347.72077938642144 347.72077938642144 L 367.6316361738441 349.28779779993215 L 369.1986545873548 329.3769410125095 L 349.28779779993215 327.8099225989988 Z" style="stroke:#000000; stroke-opacity: 0;fill:#C860AF; fill-opacity: 0;"/>
<path d="M 369.1986545873548 329.3769410125095 L 388.61924000032604 334.03941105906506 L 393.2817100468816 314.6188256460938 L 373.8611246339103 309.95635559953826 Z" style="stroke:#000000; stroke-opacity: 0;fill:#C860AF; fill-opacity: 0;"/>
<path d="M 393.2817100468816 314.6188256460938 L 411.7338248193063 322.26194183929704 L 419.37694101250946 303.80982706687234 L 400.9248262400848 296.1667108736691 Z" style="stroke:#000000; stroke-opacity: 0;fill:#C860AF; fill-opacity: 0;"/>
<path d="M 419.37694101250946 303.80982706687234 L 436.40623283963254 314.24539051999824 L 446.84179629275843 297.2160986928752 L 429.8125044656354 286.7805352397493 Z" style="stroke:#000000; stroke-opacity: 0;fill:#C860AF; fill-opacity: 0;"/>
<path d="M 446.84179629275843 297.2160986928752 L 462.02894749281677 310.18715120005834 L 474.99999999999994 295 L 459.81284879994155 282.0289474928169 Z" style="stroke:#000000; stroke-opacity: 0;fill:#C860AF; fill-opacity: 0;"/>
<path d="M 474.99999999999994 295 L 487.9710525071831 310.1871512000584 L 503.1582037072415 297.2160986928752 L 490.18715120005834 282.0289474928168 Z" style="stroke:#000000; stroke-opacity: 0;fill:#C860AF; fill-opacity: 0;"/>
<path d="M 503.1582037072415 297.2160986928752 L 513.5937671603675 314.24539051999824 L 530.6230589874905 303.80982706687234 L 520.1874955343645 286.7805352397493 Z" style="stroke:#000000; stroke-opacity: 0;fill:#C860AF; fill-opacity: 0;"/>
<path d="M 530.6230589874905 303.80982706687234 L 538.2661751806937 322.26194183929704 L 556.7182899531184 314.6188256460938 L 549.0751737599152 296.1667108736691 Z" style="stroke:#000000; stroke-opacity: 0;fill:#C860AF; fill-opacity: 0;"/>
<path d="M 556.7182899531184 314.6188256460938 L 561.380759999674 334.03941105906495 L 580.8013454126451 329.3769410125094 L 576.1388753660895 309.95635559953826 Z" style="stroke:#000000; stroke-opacity: 0;fill:#C860AF; fill-opacity: 0;"/>
<path d="M 580.8013454126451 329.3769410125094 L 582.3683638261557 349.28779779993215 L 602.2792206135786 347.72077938642144 L 600.7122022000678 327.8099225989987 Z" style="stroke:#000000; stroke-opacity: 0;fill:#C860AF; fill-opacity: 0;"/>
<path d="M 602.2792206135786 347.72077938642144 L 600.7122022000678 367.6316361738441 L 620.6230589874905 369.1986545873548 L 622.1900774010012 349.28779779993215 Z" style="stroke:#000000; stroke-opacity: 0;fill:#C860AF; fill-opacity: 0;"/>
<path d="M 620.6230589874905 369.1986545873548 L 615.9605889409349 388.61924000032604 L 635.3811743539062 393.2817100468815 L 640.0436444004617 373.8611246339103 Z" style="stroke:#000000; stroke-opacity: 0;fill:#C860AF; fill-opacity: 0;"/>
<path d="M 635.3811743539062 393.2817100468815 L 627.738058160703 411.73382481930616 L 646.1901729331277 419.3769410125094 L 653.8332891263309 400.9248262400847 Z" style="stroke:#000000; stroke-opacity: 0;fill:#C860AF; fill-opacity: 0;"/>
<path d="M 646.1901729331277 419.3769410125094 L 635.7546094800017 436.4062328396324 L 652.7839013071248 446.8417962927584 L 663.2194647602506 429.8125044656353 Z" style="stroke:#000000; stroke-opacity: 0;fill:#C860AF; fill-opacity: 0;"/>
<path d="M 652.7839013071248 446.8417962927584 L 639.8128487999415 462.02894749281677 L 655 474.99999999999994 L 667.9710525071832 459.81284879994155 Z" style="stroke:#000000; stroke-opacity: 0;fill:#C860AF; fill-opacity: 0;"/>
<path d="M 655 474.99999999999994 L 639.8128487999415 487.9710525071831 L 652.7839013071248 503.15820370724157 L 667.9710525071832 490.18715120005834 Z" style="stroke:#000000; stroke-opacity: 0;fill:#C860AF; fill-opacity: 0;"/>
<path d="M 635.7546094800017 513.5937671603674 L 619.4101298101892 521.9216955108812 L 627.738058160703 538.2661751806937 L 644.0825378305154 529.93824683018 Z" style="stroke:#000014; stroke-opacity: 0;fill:#C860C3; fill-opacity: 0;"/>
<path d="M 627.738058160703 538.2661751806937 L 610.2920311413288 543.9347329802998 L 615.960588940935 561.380759999674 L 633.4066159603092 555.7122022000677 Z" style="stroke:#000014; stroke-opacity: 0;fill:#C860C3; fill-opacity: 0;"/>
<path d="M 615.960588940935 561.380759999674 L 597.8425936572606 564.2503685424813 L 600.7122022000678 582.3683638261557 L 618.8301974837424 579.4987552833484 Z" style="stroke:#000014; stroke-opacity: 0;fill:#C860C3; fill-opacity: 0;"/>
<path d="M 600.7122022000678 582.3683638261557 L 582.3683638261558 582.3683638261558 L 582.3683638261559 600.7122022000678 L 600.712202200068 600.7122022000677 Z" style="stroke:#000014; stroke-opacity: 0;fill:#C860C3; fill-opacity: 0;"/>
<path d="M 582.3683638261559 600.7122022000678 L 564.2503685424814 597.8425936572604 L 561.380759999674 615.9605889409349 L 579.4987552833485 618.8301974837424 Z" style="stroke:#000014; stroke-opacity: 0;fill:#C860C3; fill-opacity: 0;"/>
<path d="M 561.380759999674 615.9605889409349 L 543.9347329802997 610.2920311413288 L 538.2661751806937 627.7380581607031 L 555.7122022000678 633.4066159603092 Z" style="stroke:#000014; stroke-opacity: 0;fill:#C860C3; fill-opacity: 0;"/>
<path d="M 538.2661751806937 627.7380581607031 L 521.9216955108812 619.4101298101892 L 513.5937671603674 635.7546094800016 L 529.9382468301798 644.0825378305154 Z" style="stroke:#000014; stroke-opacity: 0;fill:#C860C3; fill-opacity: 0;"/>
<path d="M 513.5937671603674 635.7546094800016 L 498.7532901738053 624.9723718133795 L 487.9710525071832 639.8128487999415 L 502.81152949374524 650.5950864665637 Z" style="stroke:#000014; stroke-opacity: 0;fill:#C860C3; fill-opacity: 0;"/>
<path d="M 487.9710525071832 639.8128487999415 L 475 626.8417962927584 L 462.0289474928168 639.8128487999415 L 475 652.7839013071247 Z" style="stroke:#000014; stroke-opacity: 0;fill:#C860C3; fill-opacity: 0;"/>
<path d="M 462.0289474928168 639.8128487999415 L 451.2467098261946 624.9723718133796 L 436.40623283963254 635.7546094800017 L 447.18847050625476 650.5950864665638 Z" style="stroke:#000014; stroke-opacity: 0;fill:#C860C3; fill-opacity: 0;"/>
<path d="M 436.40623283963254 635.7546094800017 L 428.07830448911875 619.4101298101892 L 411.7338248193063 627.738058160703 L 420.06175316982 644.0825378305154 Z" style="stroke:#000014; stroke-opacity: 0;fill:#C860C3; fill-opacity: 0;"/>
<path d="M 411.7338248193063 627.738058160703 L 406.0652670197001 610.2920311413288 L 388.619240000326 615.9605889409349 L 394.2877977999321 633.4066159603092 Z" style="stroke:#000014; stroke-opacity: 0;fill:#C860C3; fill-opacity: 0;"/>
<path d="M 388.619240000326 615.9605889409349 L 385.7496314575186 597.8425936572605 L 367.63163617384413 600.7122022000678 L 370.5012447166515 618.8301974837423 Z" style="stroke:#000014; stroke-opacity: 0;fill:#C860C3; fill-opacity: 0;"/>
<path d="M 367.63163617384413 600.7122022000678 L 367.6316361738441 582.3683638261559 L 349.28779779993215 582.3683638261559 L 349.28779779993215 600.7122022000678 Z" style="stroke:#000014; stroke-opacity: 0;fill:#C860C3; fill-opacity: 0;"/>
<path d="M 349.28779779993215 582.3683638261559 L 352.1574063427396 564.2503685424814 L 334.03941105906506 561.380759999674 L 331.1698025162576 579.4987552833485 Z" style="stroke:#000014; stroke-opacity: 0;fill:#C860C3; fill-opacity: 0;"/>
<path d="M 334.03941105906506 561.380759999674 L 339.70796885867117 543.9347329802998 L 322.261941839297 538.2661751806937 L 316.59338403969093 555.712202200068 Z" style="stroke:#000014; stroke-opacity: 0;fill:#C860C3; fill-opacity: 0;"/>
<path d="M 322.261941839297 538.2661751806937 L 330.5898701898108 521.9216955108811 L 314.2453905199983 513.5937671603674 L 305.9174621694845 529.9382468301799 Z" style="stroke:#000014; stroke-opacity: 0;fill:#C860C3; fill-opacity: 0;"/>
<path d="M 314.2453905199983 513.5937671603674 L 325.0276281866204 498.7532901738054 L 310.1871512000584 487.9710525071832 L 299.40491353343623 502.81152949374524 Z" style="stroke:#000014; stroke-opacity: 0;fill:#C860C3; fill-opacity: 0;"/>
<path d="M 310.1871512000584 487.9710525071832 L 323.15820370724146 475 L 310.18715120005834 462.0289474928169 L 297.2160986928752 475 Z" style="stroke:#000014; stroke-opacity: 0;fill:#C860C3; fill-opacity: 0;"/>
<path d="M 310.18715120005834 462.0289474928169 L 325.02762818662046 451.2467098261946 L 314.24539051999824 436.40623283963254 L 299.4049135334362 447.18847050625476 Z" style="stroke:#000014; stroke-opacity: 0;fill:#C860C3; fill-opacity: 0;"/>
<path d="M 314.24539051999824 436.40623283963254 L 330.58987018981077 428.07830448911875 L 322.26194183929704 411.7338248193063 L 305.91746216948457 420.06175316982 Z" style="stroke:#000014; stroke-opacity: 0;fill:#C860C3; fill-opacity: 0;"/>
<path d="M 322.26194183929704 411.7338248193063 L 339.70796885867117 406.0652670197002 L 334.03941105906506 388.61924000032604 L 316.59338403969093 394.28779779993215 Z" style="stroke:#000014; stroke-opacity: 0;fill:#C860C3; fill-opacity: 0;"/>
<path d="M 334.03941105906506 388.61924000032604 L 352.1574063427396 385.7496314575186 L 349.28779779993215 367.6316361738441 L 331.1698025162576 370.5012447166515 Z" style="stroke:#000014; stroke-opacity: 0;fill:#C860C3; fill-opacity: 0;"/>
<path d="M 349.28779779993215 367.6316361738441 L 367.6316361738441 367.6316361738441 L 367.6316361738441 349.28779779993215 L 349.28779779993215 349.28779779993215 Z" style="stroke:#000014; stroke-opacity: 0;fill:#C860C3; fill-opacity: 0;"/>
<path d="M 367.6316361738441 349.28779779993215 L 385.7496314575186 352.1574063427396 L 388.61924000032604 334.03941105906506 L 370.5012447166515 331.1698025162576 Z" style="stroke:#000014; stroke-opacity: 0;fill:#C860C3; fill-opacity: 0;"/>
<path d="M 388.61924000032604 334.03941105906506 L 406.0652670197002 339.70796885867117 L 411.7338248193063 322.26194183929704 L 394.28779779993215 316.59338403969093 Z" style="stroke:#000014; stroke-opacity: 0;fill:#C860C3; fill-opacity: 0;"/>
<path d="M 411.7338248193063 322.26194183929704 L 428.07830448911875 330.58987018981077 L 436.40623283963254 314.24539051999824 L 420.06175316982 305.91746216948457 Z" style="stroke:#000014; stroke-opacity: 0;fill:#C860C3; fill-opacity: 0;"/>
<path d="M 436.40623283963254 314.24539051999824 L 451.2467098261946 325.0276281866204 L 462.02894749281677 310.18715120005834 L 447.18847050625476 299.40491353343623 Z" style="stroke:#000014; stroke-opacity: 0;fill:#C860C3; fill-opacity: 0;"/>
<path d="M 462.02894749281677 310.18715120005834 L 474.99999999999994 323.15820370724157 L 487.9710525071831 310.1871512000584 L 474.99999999999994 297.2160986928752 Z" style="stroke:#000014; stroke-opacity: 0;fill:#C860C3; fill-opacity: 0;"/>
<path d="M 487.9710525071831 310.1871512000584 L 498.7532901738054 325.0276281866205 L 513.5937671603675 314.24539051999824 L 502.81152949374524 299.4049135334361 Z" style="stroke:#000014; stroke-opacity: 0;fill:#C860C3; fill-opacity: 0;"/>
<path d="M 513.5937671603675 314.24539051999824 L 521.9216955108812 330.58987018981077 L 538.2661751806937 322.26194183929704 L 529.93824683018 305.91746216948457 Z" style="stroke:#000014; stroke-opacity: 0;fill:#C860C3; fill-opacity: 0;"/>
<path d="M 538.2661751806937 322.26194183929704 L 543.9347329802998 339.7079688586711 L 561.380759999674 334.03941105906495 L 555.7122022000677 316.5933840396909 Z" style="stroke:#000014; stroke-opacity: 0;fill:#C860C3; fill-opacity: 0;"/>
<path d="M 561.380759999674 334.03941105906495 L 564.2503685424813 352.1574063427394 L 582.3683638261557 349.28779779993215 L 579.4987552833484 331.1698025162577 Z" style="stroke:#000014; stroke-opacity: 0;fill:#C860C3; fill-opacity: 0;"/>
<path d="M 582.3683638261557 349.28779779993215 L 582.3683638261558 367.6316361738442 L 600.7122022000678 367.6316361738441 L 600.7122022000677 349.28779779993204 Z" style="stroke:#000014; stroke-opacity: 0;fill:#C860C3; fill-opacity: 0;"/>
<path d="M 600.7122022000678 367.6316361738441 L 597.8425936572604 385.7496314575186 L 615.9605889409349 388.61924000032604 L 618.8301974837424 370.5012447166515 Z" style="stroke:#000014; stroke-opacity: 0;fill:#C860C3; fill-opacity: 0;"/>
<path d="M 615.9605889409349 388.61924000032604 L 610.292031141329 406.0652670197001 L 627.738058160703 411.73382481930616 L 633.4066159603091 394.2877977999321 Z" style="stroke:#000014; stroke-opacity: 0;fill:#C860C3; fill-opacity: 0;"/>
<path d="M 627.738058160703 411.73382481930616 L 619.4101298101892 428.07830448911864 L 635.7546094800017 436.4062328396324 L 644.0825378305154 420.0617531698199 Z" style="stroke:#000014; stroke-opacity: 0;fill:#C860C3; fill-opacity: 0;"/>
<path d="M 635.7546094800017 436.4062328396324 L 624.9723718133795 451.2467098261945 L 639.8128487999415 462.02894749281677 L 650.5950864665639 447.18847050625465 Z" style="stroke:#000014; stroke-opacity: 0;fill:#C860C3; fill-opacity: 0;"/>
<path d="M 639.8128487999415 462.02894749281677 L 626.8417962927584 474.99999999999994 L 639.8128487999415 487.9710525071831 L 652.7839013071247 474.99999999999994 Z" style="stroke:#000014; stroke-opacity: 0;fill:#C860C3; fill-opacity: 0;"/>
<path d="M 639.8128487999415 487.9710525071831 L 624.9723718133796 498.75329017380534 L 635.7546094800017 513.5937671603674 L 650.5950864665638 502.8115294937452 Z" style="stroke:#000014; stroke-opacity: 0;fill:#C860C3; fill-opacity: 0;"/>
<path d="M 619.4101298101892 521.9216955108812 L 603.8445617410498 528.3691649111603 L 610.2920311413288 543.9347329802998 L 625.8575992104684 537.4872635800208 Z" style="stroke:#000028; stroke-opacity: 0;fill:#C860D7; fill-opacity: 0;"/>
<path d="M 610.2920311413288 543.9347329802998 L 593.909494618204 547.8678320193565 L 597.8425936572606 564.2503685424813 L 614.2251301803853 560.3172695034248 Z" style="stroke:#000028; stroke-opacity: 0;fill:#C860D7; fill-opacity: 0;"/>
<path d="M 597.8425936572606 564.2503685424813 L 581.0464810998709 565.5722512687661 L 582.3683638261558 582.3683638261558 L 599.1644763835455 581.0464810998709 Z" style="stroke:#000028; stroke-opacity: 0;fill:#C860D7; fill-opacity: 0;"/>
<path d="M 582.3683638261558 582.3683638261558 L 565.5722512687663 581.0464810998709 L 564.2503685424814 597.8425936572604 L 581.0464810998709 599.1644763835453 Z" style="stroke:#000028; stroke-opacity: 0;fill:#C860D7; fill-opacity: 0;"/>
<path d="M 564.2503685424814 597.8425936572604 L 547.8678320193565 593.9094946182039 L 543.9347329802997 610.2920311413288 L 560.3172695034248 614.2251301803855 Z" style="stroke:#000028; stroke-opacity: 0;fill:#C860D7; fill-opacity: 0;"/>
<path d="M 543.9347329802997 610.2920311413288 L 528.3691649111604 603.8445617410499 L 521.9216955108812 619.4101298101892 L 537.4872635800207 625.8575992104683 Z" style="stroke:#000028; stroke-opacity: 0;fill:#C860D7; fill-opacity: 0;"/>
<path d="M 521.9216955108812 619.4101298101892 L 507.55637184074817 610.6070481432464 L 498.7532901738053 624.9723718133795 L 513.1186138439384 633.7754534803223 Z" style="stroke:#000028; stroke-opacity: 0;fill:#C860D7; fill-opacity: 0;"/>
<path d="M 498.7532901738053 624.9723718133795 L 485.94193284721314 614.0304389661663 L 475 626.8417962927584 L 487.8113573265921 637.7837291399716 Z" style="stroke:#000028; stroke-opacity: 0;fill:#C860D7; fill-opacity: 0;"/>
<path d="M 475 626.8417962927584 L 464.05806715278675 614.0304389661662 L 451.2467098261946 624.9723718133796 L 462.1886426734079 637.7837291399717 Z" style="stroke:#000028; stroke-opacity: 0;fill:#C860D7; fill-opacity: 0;"/>
<path d="M 451.2467098261946 624.9723718133796 L 442.44362815925183 610.6070481432464 L 428.07830448911875 619.4101298101892 L 436.88138615606147 633.7754534803223 Z" style="stroke:#000028; stroke-opacity: 0;fill:#C860D7; fill-opacity: 0;"/>
<path d="M 428.07830448911875 619.4101298101892 L 421.63083508883966 603.8445617410498 L 406.0652670197001 610.2920311413288 L 412.51273641997926 625.8575992104684 Z" style="stroke:#000028; stroke-opacity: 0;fill:#C860D7; fill-opacity: 0;"/>
<path d="M 406.0652670197001 610.2920311413288 L 402.13216798064354 593.9094946182039 L 385.7496314575186 597.8425936572605 L 389.68273049657523 614.2251301803855 Z" style="stroke:#000028; stroke-opacity: 0;fill:#C860D7; fill-opacity: 0;"/>
<path d="M 385.7496314575186 597.8425936572605 L 384.42774873123363 581.0464810998709 L 367.6316361738441 582.3683638261559 L 368.95351890012904 599.1644763835455 Z" style="stroke:#000028; stroke-opacity: 0;fill:#C860D7; fill-opacity: 0;"/>
<path d="M 367.6316361738441 582.3683638261559 L 368.9535189001291 565.5722512687664 L 352.1574063427396 564.2503685424814 L 350.83552361645457 581.0464810998708 Z" style="stroke:#000028; stroke-opacity: 0;fill:#C860D7; fill-opacity: 0;"/>
<path d="M 352.1574063427396 564.2503685424814 L 356.09050538179616 547.8678320193565 L 339.70796885867117 543.9347329802998 L 335.7748698196146 560.3172695034248 Z" style="stroke:#000028; stroke-opacity: 0;fill:#C860D7; fill-opacity: 0;"/>
<path d="M 339.70796885867117 543.9347329802998 L 346.15543825895037 528.3691649111603 L 330.5898701898108 521.9216955108811 L 324.1424007895317 537.4872635800206 Z" style="stroke:#000028; stroke-opacity: 0;fill:#C860D7; fill-opacity: 0;"/>
<path d="M 330.5898701898108 521.9216955108811 L 339.39295185675354 507.55637184074806 L 325.0276281866204 498.7532901738054 L 316.22454651967774 513.1186138439385 Z" style="stroke:#000028; stroke-opacity: 0;fill:#C860D7; fill-opacity: 0;"/>
<path d="M 325.0276281866204 498.7532901738054 L 335.9695610338336 485.9419328472132 L 323.15820370724146 475 L 312.21627086002826 487.81135732659214 Z" style="stroke:#000028; stroke-opacity: 0;fill:#C860D7; fill-opacity: 0;"/>
<path d="M 323.15820370724146 475 L 335.9695610338336 464.05806715278675 L 325.02762818662046 451.2467098261946 L 312.21627086002826 462.1886426734078 Z" style="stroke:#000028; stroke-opacity: 0;fill:#C860D7; fill-opacity: 0;"/>
<path d="M 325.02762818662046 451.2467098261946 L 339.3929518567535 442.44362815925183 L 330.58987018981077 428.07830448911875 L 316.2245465196777 436.8813861560616 Z" style="stroke:#000028; stroke-opacity: 0;fill:#C860D7; fill-opacity: 0;"/>
<path d="M 330.58987018981077 428.07830448911875 L 346.15543825895026 421.63083508883966 L 339.70796885867117 406.0652670197002 L 324.1424007895317 412.51273641997926 Z" style="stroke:#000028; stroke-opacity: 0;fill:#C860D7; fill-opacity: 0;"/>
<path d="M 339.70796885867117 406.0652670197002 L 356.09050538179616 402.1321679806436 L 352.1574063427396 385.7496314575186 L 335.7748698196146 389.6827304965752 Z" style="stroke:#000028; stroke-opacity: 0;fill:#C860D7; fill-opacity: 0;"/>
<path d="M 352.1574063427396 385.7496314575186 L 368.9535189001291 384.4277487312336 L 367.6316361738441 367.6316361738441 L 350.83552361645457 368.9535189001291 Z" style="stroke:#000028; stroke-opacity: 0;fill:#C860D7; fill-opacity: 0;"/>
<path d="M 367.6316361738441 367.6316361738441 L 384.4277487312336 368.9535189001291 L 385.7496314575186 352.1574063427396 L 368.9535189001291 350.83552361645457 Z" style="stroke:#000028; stroke-opacity: 0;fill:#C860D7; fill-opacity: 0;"/>
<path d="M 385.7496314575186 352.1574063427396 L 402.1321679806436 356.09050538179616 L 406.0652670197002 339.70796885867117 L 389.6827304965752 335.7748698196146 Z" style="stroke:#000028; stroke-opacity: 0;fill:#C860D7; fill-opacity: 0;"/>
<path d="M 406.0652670197002 339.70796885867117 L 421.63083508883966 346.15543825895026 L 428.07830448911875 330.58987018981077 L 412.51273641997926 324.1424007895317 Z" style="stroke:#000028; stroke-opacity: 0;fill:#C860D7; fill-opacity: 0;"/>
<path d="M 428.07830448911875 330.58987018981077 L 442.4436281592519 339.39295185675354 L 451.2467098261946 325.0276281866204 L 436.8813861560615 316.22454651967763 Z" style="stroke:#000028; stroke-opacity: 0;fill:#C860D7; fill-opacity: 0;"/>
<path d="M 451.2467098261946 325.0276281866204 L 464.0580671527867 335.96956103383366 L 474.99999999999994 323.15820370724157 L 462.18864267340786 312.2162708600283 Z" style="stroke:#000028; stroke-opacity: 0;fill:#C860D7; fill-opacity: 0;"/>
<path d="M 474.99999999999994 323.15820370724157 L 485.9419328472132 335.96956103383377 L 498.7532901738054 325.0276281866205 L 487.81135732659214 312.2162708600283 Z" style="stroke:#000028; stroke-opacity: 0;fill:#C860D7; fill-opacity: 0;"/>
<path d="M 498.7532901738054 325.0276281866205 L 507.55637184074817 339.3929518567536 L 521.9216955108812 330.58987018981077 L 513.1186138439384 316.2245465196777 Z" style="stroke:#000028; stroke-opacity: 0;fill:#C860D7; fill-opacity: 0;"/>
<path d="M 521.9216955108812 330.58987018981077 L 528.3691649111604 346.1554382589502 L 543.9347329802998 339.7079688586711 L 537.4872635800207 324.1424007895316 Z" style="stroke:#000028; stroke-opacity: 0;fill:#C860D7; fill-opacity: 0;"/>
<path d="M 543.9347329802998 339.7079688586711 L 547.8678320193565 356.090505381796 L 564.2503685424813 352.1574063427394 L 560.3172695034248 335.77486981961454 Z" style="stroke:#000028; stroke-opacity: 0;fill:#C860D7; fill-opacity: 0;"/>
<path d="M 564.2503685424813 352.1574063427394 L 565.5722512687662 368.9535189001291 L 582.3683638261558 367.6316361738442 L 581.046481099871 350.83552361645457 Z" style="stroke:#000028; stroke-opacity: 0;fill:#C860D7; fill-opacity: 0;"/>
<path d="M 582.3683638261558 367.6316361738442 L 581.0464810998709 384.4277487312337 L 597.8425936572604 385.7496314575186 L 599.1644763835453 368.9535189001291 Z" style="stroke:#000028; stroke-opacity: 0;fill:#C860D7; fill-opacity: 0;"/>
<path d="M 597.8425936572604 385.7496314575186 L 593.9094946182039 402.13216798064366 L 610.292031141329 406.0652670197001 L 614.2251301803855 389.6827304965751 Z" style="stroke:#000028; stroke-opacity: 0;fill:#C860D7; fill-opacity: 0;"/>
<path d="M 610.292031141329 406.0652670197001 L 603.8445617410498 421.6308350888395 L 619.4101298101892 428.07830448911864 L 625.8575992104684 412.5127364199792 Z" style="stroke:#000028; stroke-opacity: 0;fill:#C860D7; fill-opacity: 0;"/>
<path d="M 619.4101298101892 428.07830448911864 L 610.6070481432464 442.44362815925166 L 624.9723718133795 451.2467098261945 L 633.7754534803223 436.8813861560614 Z" style="stroke:#000028; stroke-opacity: 0;fill:#C860D7; fill-opacity: 0;"/>
<path d="M 624.9723718133795 451.2467098261945 L 614.0304389661662 464.0580671527867 L 626.8417962927584 474.99999999999994 L 637.7837291399717 462.18864267340774 Z" style="stroke:#000028; stroke-opacity: 0;fill:#C860D7; fill-opacity: 0;"/>
<path d="M 626.8417962927584 474.99999999999994 L 614.0304389661662 485.9419328472132 L 624.9723718133796 498.75329017380534 L 637.7837291399717 487.81135732659203 Z" style="stroke:#000028; stroke-opacity: 0;fill:#C860D7; fill-opacity: 0;"/>
<path d="M 624.9723718133796 498.75329017380534 L 610.6070481432464 507.5563718407481 L 619.4101298101892 521.9216955108812 L 633.7754534803223 513.1186138439384 Z" style="stroke:#000028; stroke-opacity: 0;fill:#C860D7; fill-opacity: 0;"/>
<path d="M 603.8445617410498 528.3691649111603 L 589.1276946255289 533.1509649038355 L 593.909494618204 547.8678320193565 L 608.6263617337249 543.0860320266813 Z" style="stroke:#00003C; stroke-opacity: 0;fill:#C860EB; fill-opacity: 0;"/>
<path d="M 593.909494618204 547.8678320193565 L 578.6257782343328 550.2885348848947 L 581.0464810998709 565.5722512687661 L 596.3301974837423 563.1515484032277 Z" style="stroke:#00003C; stroke-opacity: 0;fill:#C860EB; fill-opacity: 0;"/>
<path d="M 581.0464810998709 565.5722512687661 L 565.5722512687662 565.5722512687662 L 565.5722512687663 581.0464810998709 L 581.046481099871 581.0464810998708 Z" style="stroke:#00003C; stroke-opacity: 0;fill:#C860EB; fill-opacity: 0;"/>
<path d="M 565.5722512687663 581.0464810998709 L 550.288534884895 578.6257782343325 L 547.8678320193565 593.9094946182039 L 563.1515484032279 596.3301974837423 Z" style="stroke:#00003C; stroke-opacity: 0;fill:#C860EB; fill-opacity: 0;"/>
<path d="M 547.8678320193565 593.9094946182039 L 533.1509649038354 589.1276946255289 L 528.3691649111604 603.8445617410499 L 543.0860320266814 608.6263617337249 Z" style="stroke:#00003C; stroke-opacity: 0;fill:#C860EB; fill-opacity: 0;"/>
<path d="M 528.3691649111604 603.8445617410499 L 514.5815251748561 596.819408406942 L 507.55637184074817 610.6070481432464 L 521.3440115770525 617.6322014773542 Z" style="stroke:#00003C; stroke-opacity: 0;fill:#C860EB; fill-opacity: 0;"/>
<path d="M 507.55637184074817 610.6070481432464 L 495.0374569325207 601.5115240579389 L 485.94193284721314 614.0304389661663 L 498.4608477554406 623.125963051474 Z" style="stroke:#00003C; stroke-opacity: 0;fill:#C860EB; fill-opacity: 0;"/>
<path d="M 485.94193284721314 614.0304389661663 L 475 603.0885061189531 L 464.05806715278675 614.0304389661662 L 474.9999999999999 624.9723718133794 Z" style="stroke:#00003C; stroke-opacity: 0;fill:#C860EB; fill-opacity: 0;"/>
<path d="M 464.05806715278675 614.0304389661662 L 454.9625430674792 601.5115240579389 L 442.44362815925183 610.6070481432464 L 451.5391522445594 623.1259630514737 Z" style="stroke:#00003C; stroke-opacity: 0;fill:#C860EB; fill-opacity: 0;"/>
<path d="M 442.44362815925183 610.6070481432464 L 435.418474825144 596.819408406942 L 421.63083508883966 603.8445617410498 L 428.6559884229474 617.6322014773542 Z" style="stroke:#00003C; stroke-opacity: 0;fill:#C860EB; fill-opacity: 0;"/>
<path d="M 421.63083508883966 603.8445617410498 L 416.8490350961645 589.1276946255289 L 402.13216798064354 593.9094946182039 L 406.9139679733186 608.6263617337249 Z" style="stroke:#00003C; stroke-opacity: 0;fill:#C860EB; fill-opacity: 0;"/>
<path d="M 402.13216798064354 593.9094946182039 L 399.71146511510506 578.6257782343324 L 384.42774873123363 581.0464810998709 L 386.84845159677207 596.3301974837424 Z" style="stroke:#00003C; stroke-opacity: 0;fill:#C860EB; fill-opacity: 0;"/>
<path d="M 384.42774873123363 581.0464810998709 L 384.42774873123363 565.5722512687663 L 368.9535189001291 565.5722512687664 L 368.95351890012915 581.0464810998709 Z" style="stroke:#00003C; stroke-opacity: 0;fill:#C860EB; fill-opacity: 0;"/>
<path d="M 368.9535189001291 565.5722512687664 L 371.3742217656676 550.288534884895 L 356.09050538179616 547.8678320193565 L 353.6698025162576 563.1515484032279 Z" style="stroke:#00003C; stroke-opacity: 0;fill:#C860EB; fill-opacity: 0;"/>
<path d="M 356.09050538179616 547.8678320193565 L 360.87230537447135 533.1509649038355 L 346.15543825895037 528.3691649111603 L 341.3736382662752 543.0860320266813 Z" style="stroke:#00003C; stroke-opacity: 0;fill:#C860EB; fill-opacity: 0;"/>
<path d="M 346.15543825895037 528.3691649111603 L 353.18059159305807 514.5815251748558 L 339.39295185675354 507.55637184074806 L 332.36779852264584 521.3440115770526 Z" style="stroke:#00003C; stroke-opacity: 0;fill:#C860EB; fill-opacity: 0;"/>
<path d="M 339.39295185675354 507.55637184074806 L 348.48847594206103 495.0374569325207 L 335.9695610338336 485.9419328472132 L 326.8740369485261 498.4608477554406 Z" style="stroke:#00003C; stroke-opacity: 0;fill:#C860EB; fill-opacity: 0;"/>
<path d="M 335.9695610338336 485.9419328472132 L 346.9114938810468 475 L 335.9695610338336 464.05806715278675 L 325.0276281866204 475 Z" style="stroke:#00003C; stroke-opacity: 0;fill:#C860EB; fill-opacity: 0;"/>
<path d="M 335.9695610338336 464.05806715278675 L 348.48847594206103 454.9625430674792 L 339.3929518567535 442.44362815925183 L 326.8740369485261 451.5391522445594 Z" style="stroke:#00003C; stroke-opacity: 0;fill:#C860EB; fill-opacity: 0;"/>
<path d="M 339.3929518567535 442.44362815925183 L 353.18059159305795 435.4184748251441 L 346.15543825895026 421.63083508883966 L 332.36779852264584 428.65598842294736 Z" style="stroke:#00003C; stroke-opacity: 0;fill:#C860EB; fill-opacity: 0;"/>
<path d="M 346.15543825895026 421.63083508883966 L 360.87230537447124 416.8490350961646 L 356.09050538179616 402.1321679806436 L 341.3736382662752 406.9139679733187 Z" style="stroke:#00003C; stroke-opacity: 0;fill:#C860EB; fill-opacity: 0;"/>
<path d="M 356.09050538179616 402.1321679806436 L 371.3742217656676 399.71146511510506 L 368.9535189001291 384.4277487312336 L 353.6698025162576 386.84845159677207 Z" style="stroke:#00003C; stroke-opacity: 0;fill:#C860EB; fill-opacity: 0;"/>
<path d="M 368.9535189001291 384.4277487312336 L 384.4277487312336 384.4277487312336 L 384.4277487312336 368.9535189001291 L 368.9535189001291 368.9535189001291 Z" style="stroke:#00003C; stroke-opacity: 0;fill:#C860EB; fill-opacity: 0;"/>
<path d="M 384.4277487312336 368.9535189001291 L 399.71146511510506 371.3742217656676 L 402.1321679806436 356.09050538179616 L 386.84845159677207 353.6698025162576 Z" style="stroke:#00003C; stroke-opacity: 0;fill:#C860EB; fill-opacity: 0;"/>
<path d="M 402.1321679806436 356.09050538179616 L 416.8490350961646 360.87230537447124 L 421.63083508883966 346.15543825895026 L 406.9139679733187 341.3736382662752 Z" style="stroke:#00003C; stroke-opacity: 0;fill:#C860EB; fill-opacity: 0;"/>
<path d="M 421.63083508883966 346.15543825895026 L 435.41847482514413 353.180591593058 L 442.4436281592519 339.39295185675354 L 428.6559884229474 332.3677985226458 Z" style="stroke:#00003C; stroke-opacity: 0;fill:#C860EB; fill-opacity: 0;"/>
<path d="M 442.4436281592519 339.39295185675354 L 454.96254306747926 348.488475942061 L 464.0580671527867 335.96956103383366 L 451.5391522445593 326.87403694852617 Z" style="stroke:#00003C; stroke-opacity: 0;fill:#C860EB; fill-opacity: 0;"/>
<path d="M 464.0580671527867 335.96956103383366 L 474.9999999999999 346.91149388104697 L 485.9419328472132 335.96956103383377 L 475 325.02762818662046 Z" style="stroke:#00003C; stroke-opacity: 0;fill:#C860EB; fill-opacity: 0;"/>
<path d="M 485.9419328472132 335.96956103383377 L 495.03745693252074 348.48847594206114 L 507.55637184074817 339.3929518567536 L 498.46084775544057 326.8740369485262 Z" style="stroke:#00003C; stroke-opacity: 0;fill:#C860EB; fill-opacity: 0;"/>
<path d="M 507.55637184074817 339.3929518567536 L 514.581525174856 353.180591593058 L 528.3691649111604 346.1554382589502 L 521.3440115770526 332.3677985226458 Z" style="stroke:#00003C; stroke-opacity: 0;fill:#C860EB; fill-opacity: 0;"/>
<path d="M 528.3691649111604 346.1554382589502 L 533.1509649038355 360.8723053744711 L 547.8678320193565 356.090505381796 L 543.0860320266813 341.37363826627507 Z" style="stroke:#00003C; stroke-opacity: 0;fill:#C860EB; fill-opacity: 0;"/>
<path d="M 547.8678320193565 356.090505381796 L 550.2885348848947 371.3742217656674 L 565.5722512687662 368.9535189001291 L 563.1515484032279 353.6698025162577 Z" style="stroke:#00003C; stroke-opacity: 0;fill:#C860EB; fill-opacity: 0;"/>
<path d="M 565.5722512687662 368.9535189001291 L 565.5722512687663 384.42774873123375 L 581.0464810998709 384.4277487312337 L 581.0464810998709 368.95351890012904 Z" style="stroke:#00003C; stroke-opacity: 0;fill:#C860EB; fill-opacity: 0;"/>
<path d="M 581.0464810998709 384.4277487312337 L 578.6257782343324 399.71146511510517 L 593.9094946182039 402.13216798064366 L 596.3301974837424 386.8484515967722 Z" style="stroke:#00003C; stroke-opacity: 0;fill:#C860EB; fill-opacity: 0;"/>
<path d="M 593.9094946182039 402.13216798064366 L 589.127694625529 416.8490350961645 L 603.8445617410498 421.6308350888395 L 608.6263617337248 406.9139679733186 Z" style="stroke:#00003C; stroke-opacity: 0;fill:#C860EB; fill-opacity: 0;"/>
<path d="M 603.8445617410498 421.6308350888395 L 596.819408406942 435.4184748251439 L 610.6070481432464 442.44362815925166 L 617.6322014773542 428.6559884229473 Z" style="stroke:#00003C; stroke-opacity: 0;fill:#C860EB; fill-opacity: 0;"/>
<path d="M 610.6070481432464 442.44362815925166 L 601.5115240579388 454.9625430674791 L 614.0304389661662 464.0580671527867 L 623.1259630514738 451.53915224455926 Z" style="stroke:#00003C; stroke-opacity: 0;fill:#C860EB; fill-opacity: 0;"/>
<path d="M 614.0304389661662 464.0580671527867 L 603.088506118953 474.99999999999994 L 614.0304389661662 485.9419328472132 L 624.9723718133795 474.99999999999994 Z" style="stroke:#00003C; stroke-opacity: 0;fill:#C860EB; fill-opacity: 0;"/>
<path d="M 614.0304389661662 485.9419328472132 L 601.5115240579389 495.03745693252074 L 610.6070481432464 507.5563718407481 L 623.1259630514737 498.46084775544057 Z" style="stroke:#00003C; stroke-opacity: 0;fill:#C860EB; fill-opacity: 0;"/>
<path d="M 610.6070481432464 507.5563718407481 L 596.819408406942 514.5815251748559 L 603.8445617410498 528.3691649111603 L 617.6322014773542 521.3440115770525 Z" style="stroke:#00003C; stroke-opacity: 0;fill:#C860EB; fill-opacity: 0;"/>
<path d="M 589.1276946255289 533.1509649038355 L 575.3079514394012 536.4687916987671 L 578.6257782343328 550.2885348848947 L 592.4455214204604 546.9707080899632 Z" style="stroke:#000050; stroke-opacity: 0;fill:#C860FF; fill-opacity: 0;"/>
<path d="M 578.6257782343328 550.2885348848947 L 564.4571565596137 551.4036295940472 L 565.5722512687662 565.5722512687662 L 579.7408729434852 564.4571565596137 Z" style="stroke:#000050; stroke-opacity: 0;fill:#C860FF; fill-opacity: 0;"/>
<path d="M 565.5722512687662 565.5722512687662 L 551.4036295940474 564.4571565596137 L 550.288534884895 578.6257782343325 L 564.4571565596137 579.740872943485 Z" style="stroke:#000050; stroke-opacity: 0;fill:#C860FF; fill-opacity: 0;"/>
<path d="M 550.288534884895 578.6257782343325 L 536.468791698767 575.307951439401 L 533.1509649038354 589.1276946255289 L 546.9707080899633 592.4455214204604 Z" style="stroke:#000050; stroke-opacity: 0;fill:#C860FF; fill-opacity: 0;"/>
<path d="M 533.1509649038354 589.1276946255289 L 520.0203881486393 583.6888316517457 L 514.5815251748561 596.819408406942 L 527.7121019300523 602.2582713807251 Z" style="stroke:#000050; stroke-opacity: 0;fill:#C860FF; fill-opacity: 0;"/>
<path d="M 514.5815251748561 596.819408406942 L 502.4634332281899 589.3934321112727 L 495.0374569325207 601.5115240579389 L 507.1555488791868 608.9375003536081 Z" style="stroke:#000050; stroke-opacity: 0;fill:#C860FF; fill-opacity: 0;"/>
<path d="M 495.0374569325207 601.5115240579389 L 484.2302374357532 592.2812866221857 L 475 603.0885061189531 L 485.8072194967674 612.3187435547063 Z" style="stroke:#000050; stroke-opacity: 0;fill:#C860FF; fill-opacity: 0;"/>
<path d="M 475 603.0885061189531 L 465.76976256424666 592.2812866221856 L 454.9625430674792 601.5115240579389 L 464.1927805032325 612.3187435547064 Z" style="stroke:#000050; stroke-opacity: 0;fill:#C860FF; fill-opacity: 0;"/>
<path d="M 454.9625430674792 601.5115240579389 L 447.5365667718101 589.3934321112728 L 435.418474825144 596.819408406942 L 442.8444511208132 608.937500353608 Z" style="stroke:#000050; stroke-opacity: 0;fill:#C860FF; fill-opacity: 0;"/>
<path d="M 435.418474825144 596.819408406942 L 429.97961185136086 583.6888316517458 L 416.8490350961645 589.1276946255289 L 422.28789806994774 602.2582713807252 Z" style="stroke:#000050; stroke-opacity: 0;fill:#C860FF; fill-opacity: 0;"/>
<path d="M 416.8490350961645 589.1276946255289 L 413.531208301233 575.3079514394009 L 399.71146511510506 578.6257782343324 L 403.02929191003653 592.4455214204603 Z" style="stroke:#000050; stroke-opacity: 0;fill:#C860FF; fill-opacity: 0;"/>
<path d="M 399.71146511510506 578.6257782343324 L 398.59637040595237 564.4571565596136 L 384.42774873123363 565.5722512687663 L 385.54284344038626 579.7408729434851 Z" style="stroke:#000050; stroke-opacity: 0;fill:#C860FF; fill-opacity: 0;"/>
<path d="M 384.42774873123363 565.5722512687663 L 385.5428434403863 551.4036295940475 L 371.3742217656676 550.288534884895 L 370.25912705651496 564.4571565596136 Z" style="stroke:#000050; stroke-opacity: 0;fill:#C860FF; fill-opacity: 0;"/>
<path d="M 371.3742217656676 550.288534884895 L 374.6920485605992 536.4687916987672 L 360.87230537447135 533.1509649038355 L 357.55447857953976 546.9707080899633 Z" style="stroke:#000050; stroke-opacity: 0;fill:#C860FF; fill-opacity: 0;"/>
<path d="M 360.87230537447135 533.1509649038355 L 366.3111683482546 520.020388148639 L 353.18059159305807 514.5815251748558 L 347.74172861927485 527.7121019300522 Z" style="stroke:#000050; stroke-opacity: 0;fill:#C860FF; fill-opacity: 0;"/>
<path d="M 353.18059159305807 514.5815251748558 L 360.6065678887271 502.46343322818973 L 348.48847594206103 495.0374569325207 L 341.062499646392 507.15554887918677 Z" style="stroke:#000050; stroke-opacity: 0;fill:#C860FF; fill-opacity: 0;"/>
<path d="M 348.48847594206103 495.0374569325207 L 357.71871337781425 484.23023743575317 L 346.9114938810468 475 L 337.6812564452935 485.80721949676746 Z" style="stroke:#000050; stroke-opacity: 0;fill:#C860FF; fill-opacity: 0;"/>
<path d="M 346.9114938810468 475 L 357.7187133778143 465.7697625642467 L 348.48847594206103 454.9625430674792 L 337.68125644529346 464.1927805032324 Z" style="stroke:#000050; stroke-opacity: 0;fill:#C860FF; fill-opacity: 0;"/>
<path d="M 348.48847594206103 454.9625430674792 L 360.60656788872706 447.5365667718101 L 353.18059159305795 435.4184748251441 L 341.0624996463919 442.8444511208132 Z" style="stroke:#000050; stroke-opacity: 0;fill:#C860FF; fill-opacity: 0;"/>
<path d="M 353.18059159305795 435.4184748251441 L 366.31116834825434 429.9796118513609 L 360.87230537447124 416.8490350961646 L 347.7417286192749 422.2878980699477 Z" style="stroke:#000050; stroke-opacity: 0;fill:#C860FF; fill-opacity: 0;"/>
<path d="M 360.87230537447124 416.8490350961646 L 374.6920485605992 413.531208301233 L 371.3742217656676 399.71146511510506 L 357.55447857953965 403.02929191003665 Z" style="stroke:#000050; stroke-opacity: 0;fill:#C860FF; fill-opacity: 0;"/>
<path d="M 371.3742217656676 399.71146511510506 L 385.5428434403863 398.5963704059523 L 384.4277487312336 384.4277487312336 L 370.25912705651484 385.5428434403863 Z" style="stroke:#000050; stroke-opacity: 0;fill:#C860FF; fill-opacity: 0;"/>
<path d="M 384.4277487312336 384.4277487312336 L 398.5963704059523 385.5428434403863 L 399.71146511510506 371.3742217656676 L 385.5428434403863 370.25912705651484 Z" style="stroke:#000050; stroke-opacity: 0;fill:#C860FF; fill-opacity: 0;"/>
<path d="M 399.71146511510506 371.3742217656676 L 413.531208301233 374.6920485605992 L 416.8490350961646 360.87230537447124 L 403.02929191003665 357.55447857953965 Z" style="stroke:#000050; stroke-opacity: 0;fill:#C860FF; fill-opacity: 0;"/>
<path d="M 416.8490350961646 360.87230537447124 L 429.97961185136097 366.3111683482544 L 435.41847482514413 353.180591593058 L 422.28789806994774 347.74172861927485 Z" style="stroke:#000050; stroke-opacity: 0;fill:#C860FF; fill-opacity: 0;"/>
<path d="M 435.41847482514413 353.180591593058 L 447.5365667718102 360.60656788872706 L 454.96254306747926 348.488475942061 L 442.8444511208132 341.0624996463919 Z" style="stroke:#000050; stroke-opacity: 0;fill:#C860FF; fill-opacity: 0;"/>
<path d="M 454.96254306747926 348.488475942061 L 465.76976256424655 357.7187133778143 L 474.9999999999999 346.91149388104697 L 464.1927805032326 337.6812564452937 Z" style="stroke:#000050; stroke-opacity: 0;fill:#C860FF; fill-opacity: 0;"/>
<path d="M 474.9999999999999 346.91149388104697 L 484.2302374357532 357.7187133778145 L 495.03745693252074 348.48847594206114 L 485.8072194967674 337.6812564452936 Z" style="stroke:#000050; stroke-opacity: 0;fill:#C860FF; fill-opacity: 0;"/>
<path d="M 495.03745693252074 348.48847594206114 L 502.46343322818996 360.6065678887272 L 514.581525174856 353.180591593058 L 507.15554887918677 341.062499646392 Z" style="stroke:#000050; stroke-opacity: 0;fill:#C860FF; fill-opacity: 0;"/>
<path d="M 514.581525174856 353.180591593058 L 520.0203881486393 366.31116834825434 L 533.1509649038355 360.8723053744711 L 527.7121019300523 347.7417286192748 Z" style="stroke:#000050; stroke-opacity: 0;fill:#C860FF; fill-opacity: 0;"/>
<path d="M 533.1509649038355 360.8723053744711 L 536.468791698767 374.6920485605989 L 550.2885348848947 371.3742217656674 L 546.9707080899633 357.5544785795397 Z" style="stroke:#000050; stroke-opacity: 0;fill:#C860FF; fill-opacity: 0;"/>
<path d="M 550.2885348848947 371.3742217656674 L 551.4036295940474 385.5428434403864 L 565.5722512687663 384.42774873123375 L 564.4571565596137 370.2591270565148 Z" style="stroke:#000050; stroke-opacity: 0;fill:#C860FF; fill-opacity: 0;"/>
<path d="M 565.5722512687663 384.42774873123375 L 564.4571565596136 398.5963704059525 L 578.6257782343324 399.71146511510517 L 579.7408729434851 385.5428434403864 Z" style="stroke:#000050; stroke-opacity: 0;fill:#C860FF; fill-opacity: 0;"/>
<path d="M 578.6257782343324 399.71146511510517 L 575.307951439401 413.53120830123316 L 589.127694625529 416.8490350961645 L 592.4455214204604 403.0292919100366 Z" style="stroke:#000050; stroke-opacity: 0;fill:#C860FF; fill-opacity: 0;"/>
<path d="M 589.127694625529 416.8490350961645 L 583.6888316517458 429.9796118513607 L 596.819408406942 435.4184748251439 L 602.2582713807252 422.2878980699477 Z" style="stroke:#000050; stroke-opacity: 0;fill:#C860FF; fill-opacity: 0;"/>
<path d="M 596.819408406942 435.4184748251439 L 589.3934321112728 447.53656677180993 L 601.5115240579388 454.9625430674791 L 608.937500353608 442.8444511208131 Z" style="stroke:#000050; stroke-opacity: 0;fill:#C860FF; fill-opacity: 0;"/>
<path d="M 601.5115240579388 454.9625430674791 L 592.2812866221855 465.7697625642466 L 603.088506118953 474.99999999999994 L 612.3187435547063 464.1927805032324 Z" style="stroke:#000050; stroke-opacity: 0;fill:#C860FF; fill-opacity: 0;"/>
<path d="M 603.088506118953 474.99999999999994 L 592.2812866221855 484.2302374357533 L 601.5115240579389 495.03745693252074 L 612.3187435547063 485.80721949676735 Z" style="stroke:#000050; stroke-opacity: 0;fill:#C860FF; fill-opacity: 0;"/>
<path d="M 601.5115240579389 495.03745693252074 L 589.3934321112729 502.46343322818984 L 596.819408406942 514.5815251748559 L 608.9375003536079 507.15554887918677 Z" style="stroke:#000050; stroke-opacity: 0;fill:#C860FF; fill-opacity: 0;"/>
<path d="M 596.819408406942 514.5815251748559 L 583.6888316517455 520.0203881486391 L 589.1276946255289 533.1509649038355 L 602.2582713807252 527.7121019300523 Z" style="stroke:#000050; stroke-opacity: 0;fill:#C860FF; fill-opacity: 0;"/>
<path d="M 575.3079514394012 536.4687916987671 L 562.4151350518675 538.5108132065134 L 564.4571565596137 551.4036295940472 L 577.3499729471475 549.3616080863007 Z" style="stroke:#000064; stroke-opacity: 0;fill:#C860FF; fill-opacity: 0;"/>
<path d="M 564.4571565596137 551.4036295940472 L 551.4036295940473 551.4036295940473 L 551.4036295940474 564.4571565596137 L 564.4571565596138 564.4571565596136 Z" style="stroke:#000064; stroke-opacity: 0;fill:#C860FF; fill-opacity: 0;"/>
<path d="M 551.4036295940474 564.4571565596137 L 538.5108132065136 562.4151350518671 L 536.468791698767 575.307951439401 L 549.3616080863007 577.3499729471475 Z" style="stroke:#000064; stroke-opacity: 0;fill:#C860FF; fill-opacity: 0;"/>
<path d="M 536.468791698767 575.307951439401 L 524.0541498175309 571.2741897705096 L 520.0203881486393 583.6888316517457 L 532.4350300298755 587.7225933206371 Z" style="stroke:#000064; stroke-opacity: 0;fill:#C860FF; fill-opacity: 0;"/>
<path d="M 520.0203881486393 583.6888316517457 L 508.3896104586511 577.7626544212844 L 502.4634332281899 589.3934321112727 L 514.0942109181781 595.3196093417339 Z" style="stroke:#000064; stroke-opacity: 0;fill:#C860FF; fill-opacity: 0;"/>
<path d="M 502.4634332281899 589.3934321112727 L 491.902908076515 581.7207614705109 L 484.2302374357532 592.2812866221857 L 494.79076258742805 599.9539572629475 Z" style="stroke:#000064; stroke-opacity: 0;fill:#C860FF; fill-opacity: 0;"/>
<path d="M 484.2302374357532 592.2812866221857 L 475 583.0510491864324 L 465.76976256424666 592.2812866221856 L 474.9999999999999 601.511524057939 Z" style="stroke:#000064; stroke-opacity: 0;fill:#C860FF; fill-opacity: 0;"/>
<path d="M 465.76976256424666 592.2812866221856 L 458.09709192348475 581.7207614705109 L 447.5365667718101 589.3934321112728 L 455.20923741257195 599.9539572629475 Z" style="stroke:#000064; stroke-opacity: 0;fill:#C860FF; fill-opacity: 0;"/>
<path d="M 447.5365667718101 589.3934321112728 L 441.610389541349 577.7626544212847 L 429.97961185136086 583.6888316517458 L 435.905789081822 595.3196093417339 Z" style="stroke:#000064; stroke-opacity: 0;fill:#C860FF; fill-opacity: 0;"/>
<path d="M 429.97961185136086 583.6888316517458 L 425.94585018246937 571.2741897705093 L 413.531208301233 575.3079514394009 L 417.5649699701245 587.7225933206373 Z" style="stroke:#000064; stroke-opacity: 0;fill:#C860FF; fill-opacity: 0;"/>
<path d="M 413.531208301233 575.3079514394009 L 411.48918679348634 562.415135051867 L 398.59637040595237 564.4571565596136 L 400.6383919136991 577.3499729471476 Z" style="stroke:#000064; stroke-opacity: 0;fill:#C860FF; fill-opacity: 0;"/>
<path d="M 398.59637040595237 564.4571565596136 L 398.59637040595237 551.4036295940475 L 385.5428434403863 551.4036295940475 L 385.54284344038626 564.4571565596136 Z" style="stroke:#000064; stroke-opacity: 0;fill:#C860FF; fill-opacity: 0;"/>
<path d="M 385.5428434403863 551.4036295940475 L 387.5848649481329 538.5108132065137 L 374.6920485605992 536.4687916987672 L 372.6500270528526 549.3616080863009 Z" style="stroke:#000064; stroke-opacity: 0;fill:#C860FF; fill-opacity: 0;"/>
<path d="M 374.6920485605992 536.4687916987672 L 378.725810229491 524.0541498175307 L 366.3111683482546 520.020388148639 L 362.2774066793628 532.4350300298754 Z" style="stroke:#000064; stroke-opacity: 0;fill:#C860FF; fill-opacity: 0;"/>
<path d="M 366.3111683482546 520.020388148639 L 372.23734557871546 508.3896104586506 L 360.6065678887271 502.46343322818973 L 354.6803906582662 514.0942109181781 Z" style="stroke:#000064; stroke-opacity: 0;fill:#C860FF; fill-opacity: 0;"/>
<path d="M 360.6065678887271 502.46343322818973 L 368.27923852948896 491.902908076515 L 357.71871337781425 484.23023743575317 L 350.04604273705246 494.7907625874278 Z" style="stroke:#000064; stroke-opacity: 0;fill:#C860FF; fill-opacity: 0;"/>
<path d="M 357.71871337781425 484.23023743575317 L 366.94895081356754 475 L 357.7187133778143 465.7697625642467 L 348.4884759420611 474.9999999999999 Z" style="stroke:#000064; stroke-opacity: 0;fill:#C860FF; fill-opacity: 0;"/>
<path d="M 357.7187133778143 465.7697625642467 L 368.279238529489 458.09709192348475 L 360.60656788872706 447.5365667718101 L 350.0460427370524 455.20923741257207 Z" style="stroke:#000064; stroke-opacity: 0;fill:#C860FF; fill-opacity: 0;"/>
<path d="M 360.60656788872706 447.5365667718101 L 372.23734557871535 441.6103895413492 L 366.31116834825434 429.9796118513609 L 354.6803906582661 435.90578908182187 Z" style="stroke:#000064; stroke-opacity: 0;fill:#C860FF; fill-opacity: 0;"/>
<path d="M 366.31116834825434 429.9796118513609 L 378.7258102294908 425.94585018246937 L 374.6920485605992 413.531208301233 L 362.2774066793628 417.5649699701245 Z" style="stroke:#000064; stroke-opacity: 0;fill:#C860FF; fill-opacity: 0;"/>
<path d="M 374.6920485605992 413.531208301233 L 387.5848649481331 411.4891867934862 L 385.5428434403863 398.5963704059523 L 372.6500270528524 400.6383919136991 Z" style="stroke:#000064; stroke-opacity: 0;fill:#C860FF; fill-opacity: 0;"/>
<path d="M 385.5428434403863 398.5963704059523 L 398.5963704059523 398.5963704059523 L 398.5963704059523 385.5428434403863 L 385.5428434403863 385.5428434403863 Z" style="stroke:#000064; stroke-opacity: 0;fill:#C860FF; fill-opacity: 0;"/>
<path d="M 398.5963704059523 385.5428434403863 L 411.4891867934862 387.5848649481331 L 413.531208301233 374.6920485605992 L 400.6383919136991 372.6500270528524 Z" style="stroke:#000064; stroke-opacity: 0;fill:#C860FF; fill-opacity: 0;"/>
<path d="M 413.531208301233 374.6920485605992 L 425.94585018246937 378.7258102294908 L 429.97961185136097 366.3111683482544 L 417.5649699701246 362.2774066793628 Z" style="stroke:#000064; stroke-opacity: 0;fill:#C860FF; fill-opacity: 0;"/>
<path d="M 429.97961185136097 366.3111683482544 L 441.61038954134926 372.23734557871535 L 447.5365667718102 360.60656788872706 L 435.9057890818219 354.6803906582661 Z" style="stroke:#000064; stroke-opacity: 0;fill:#C860FF; fill-opacity: 0;"/>
<path d="M 447.5365667718102 360.60656788872706 L 458.09709192348475 368.2792385294889 L 465.76976256424655 357.7187133778143 L 455.20923741257195 350.0460427370525 Z" style="stroke:#000064; stroke-opacity: 0;fill:#C860FF; fill-opacity: 0;"/>
<path d="M 465.76976256424655 357.7187133778143 L 474.9999999999998 366.94895081356776 L 484.2302374357532 357.7187133778145 L 475 348.4884759420611 Z" style="stroke:#000064; stroke-opacity: 0;fill:#C860FF; fill-opacity: 0;"/>
<path d="M 484.2302374357532 357.7187133778145 L 491.90290807651525 368.2792385294892 L 502.46343322818996 360.6065678887272 L 494.79076258742793 350.04604273705246 Z" style="stroke:#000064; stroke-opacity: 0;fill:#C860FF; fill-opacity: 0;"/>
<path d="M 502.46343322818996 360.6065678887272 L 508.3896104586511 372.23734557871546 L 520.0203881486393 366.31116834825434 L 514.0942109181782 354.6803906582661 Z" style="stroke:#000064; stroke-opacity: 0;fill:#C860FF; fill-opacity: 0;"/>
<path d="M 520.0203881486393 366.31116834825434 L 524.054149817531 378.72581022949043 L 536.468791698767 374.6920485605989 L 532.4350300298754 362.2774066793628 Z" style="stroke:#000064; stroke-opacity: 0;fill:#C860FF; fill-opacity: 0;"/>
<path d="M 536.468791698767 374.6920485605989 L 538.5108132065134 387.58486494813286 L 551.4036295940474 385.5428434403864 L 549.361608086301 372.6500270528524 Z" style="stroke:#000064; stroke-opacity: 0;fill:#C860FF; fill-opacity: 0;"/>
<path d="M 551.4036295940474 385.5428434403864 L 551.4036295940475 398.59637040595254 L 564.4571565596136 398.5963704059525 L 564.4571565596136 385.5428434403863 Z" style="stroke:#000064; stroke-opacity: 0;fill:#C860FF; fill-opacity: 0;"/>
<path d="M 564.4571565596136 398.5963704059525 L 562.415135051867 411.4891867934865 L 575.307951439401 413.53120830123316 L 577.3499729471476 400.63839191369914 Z" style="stroke:#000064; stroke-opacity: 0;fill:#C860FF; fill-opacity: 0;"/>
<path d="M 575.307951439401 413.53120830123316 L 571.2741897705097 425.9458501824693 L 583.6888316517458 429.9796118513607 L 587.7225933206372 417.56496997012454 Z" style="stroke:#000064; stroke-opacity: 0;fill:#C860FF; fill-opacity: 0;"/>
<path d="M 583.6888316517458 429.9796118513607 L 577.7626544212847 441.6103895413488 L 589.3934321112728 447.53656677180993 L 595.3196093417339 435.9057890818218 Z" style="stroke:#000064; stroke-opacity: 0;fill:#C860FF; fill-opacity: 0;"/>
<path d="M 589.3934321112728 447.53656677180993 L 581.7207614705108 458.0970919234846 L 592.2812866221855 465.7697625642466 L 599.9539572629474 455.2092374125719 Z" style="stroke:#000064; stroke-opacity: 0;fill:#C860FF; fill-opacity: 0;"/>
<path d="M 592.2812866221855 465.7697625642466 L 583.0510491864321 474.99999999999994 L 592.2812866221855 484.2302374357533 L 601.5115240579388 474.99999999999994 Z" style="stroke:#000064; stroke-opacity: 0;fill:#C860FF; fill-opacity: 0;"/>
<path d="M 592.2812866221855 484.2302374357533 L 581.7207614705109 491.90290807651525 L 589.3934321112729 502.46343322818984 L 599.9539572629475 494.7907625874278 Z" style="stroke:#000064; stroke-opacity: 0;fill:#C860FF; fill-opacity: 0;"/>
<path d="M 589.3934321112729 502.46343322818984 L 577.7626544212847 508.3896104586508 L 583.6888316517455 520.0203881486391 L 595.3196093417339 514.0942109181781 Z" style="stroke:#000064; stroke-opacity: 0;fill:#C860FF; fill-opacity: 0;"/>
<path d="M 583.6888316517455 520.0203881486391 L 571.2741897705095 524.054149817531 L 575.3079514394012 536.4687916987671 L 587.7225933206374 532.4350300298752 Z" style="stroke:#000064; stroke-opacity: 0;fill:#C860FF; fill-opacity: 0;"/>
<path d="M 562.4151350518675 538.5108132065134 L 550.4629741291905 539.4514686713702 L 551.4036295940473 551.4036295940473 L 563.3557905167244 550.4629741291905 Z" style="stroke:#000078; stroke-opacity: 0;fill:#C860FF; fill-opacity: 0;"/>
<path d="M 551.4036295940473 551.4036295940473 L 539.4514686713705 550.4629741291903 L 538.5108132065136 562.4151350518671 L 550.4629741291903 563.355790516724 Z" style="stroke:#000078; stroke-opacity: 0;fill:#C860FF; fill-opacity: 0;"/>
<path d="M 538.5108132065136 562.4151350518671 L 526.852954152701 559.6163307166969 L 524.0541498175309 571.2741897705096 L 535.7120088713435 574.0729941056798 Z" style="stroke:#000078; stroke-opacity: 0;fill:#C860FF; fill-opacity: 0;"/>
<path d="M 524.0541498175309 571.2741897705096 L 512.9776478127035 566.6861524164572 L 508.3896104586511 577.7626544212844 L 519.4661124634783 582.3506917753368 Z" style="stroke:#000078; stroke-opacity: 0;fill:#C860FF; fill-opacity: 0;"/>
<path d="M 508.3896104586511 577.7626544212844 L 498.1672057429698 571.4983567548296 L 491.902908076515 581.7207614705109 L 502.12531279219627 587.9850591369656 Z" style="stroke:#000078; stroke-opacity: 0;fill:#C860FF; fill-opacity: 0;"/>
<path d="M 491.902908076515 581.7207614705109 L 482.78631018029677 573.9344512902142 L 475 583.0510491864324 L 484.11659789621825 590.8373593667291 Z" style="stroke:#000078; stroke-opacity: 0;fill:#C860FF; fill-opacity: 0;"/>
<path d="M 475 583.0510491864324 L 467.2136898197031 573.9344512902139 L 458.09709192348475 581.7207614705109 L 465.88340210378163 590.8373593667293 Z" style="stroke:#000078; stroke-opacity: 0;fill:#C860FF; fill-opacity: 0;"/>
<path d="M 458.09709192348475 581.7207614705109 L 451.83279425703 571.49835675483 L 441.610389541349 577.7626544212847 L 447.8746872078038 587.9850591369657 Z" style="stroke:#000078; stroke-opacity: 0;fill:#C860FF; fill-opacity: 0;"/>
<path d="M 441.610389541349 577.7626544212847 L 437.02235218729686 566.6861524164572 L 425.94585018246937 571.2741897705093 L 430.53388753652155 582.3506917753368 Z" style="stroke:#000078; stroke-opacity: 0;fill:#C860FF; fill-opacity: 0;"/>
<path d="M 425.94585018246937 571.2741897705093 L 423.147045847299 559.6163307166967 L 411.48918679348634 562.415135051867 L 414.28799112865664 574.0729941056798 Z" style="stroke:#000078; stroke-opacity: 0;fill:#C860FF; fill-opacity: 0;"/>
<path d="M 411.48918679348634 562.415135051867 L 410.54853132862905 550.4629741291903 L 398.59637040595237 551.4036295940475 L 399.5370258708096 563.3557905167243 Z" style="stroke:#000078; stroke-opacity: 0;fill:#C860FF; fill-opacity: 0;"/>
<path d="M 398.59637040595237 551.4036295940475 L 399.53702587080954 539.4514686713708 L 387.5848649481329 538.5108132065137 L 386.64420948327574 550.4629741291903 Z" style="stroke:#000078; stroke-opacity: 0;fill:#C860FF; fill-opacity: 0;"/>
<path d="M 387.5848649481329 538.5108132065137 L 390.38366928330345 526.8529541527014 L 378.725810229491 524.0541498175307 L 375.9270058943205 535.7120088713432 Z" style="stroke:#000078; stroke-opacity: 0;fill:#C860FF; fill-opacity: 0;"/>
<path d="M 378.725810229491 524.0541498175307 L 383.3138475835433 512.9776478127029 L 372.23734557871546 508.3896104586506 L 367.6493082246632 519.4661124634785 Z" style="stroke:#000078; stroke-opacity: 0;fill:#C860FF; fill-opacity: 0;"/>
<path d="M 372.23734557871546 508.3896104586506 L 378.50164324517004 498.1672057429696 L 368.27923852948896 491.902908076515 L 362.01494086303444 502.12531279219604 Z" style="stroke:#000078; stroke-opacity: 0;fill:#C860FF; fill-opacity: 0;"/>
<path d="M 368.27923852948896 491.902908076515 L 376.0655487097858 482.78631018029677 L 366.94895081356754 475 L 359.16264063327077 484.11659789621825 Z" style="stroke:#000078; stroke-opacity: 0;fill:#C860FF; fill-opacity: 0;"/>
<path d="M 366.94895081356754 475 L 376.0655487097859 467.2136898197031 L 368.279238529489 458.09709192348475 L 359.16264063327066 465.88340210378163 Z" style="stroke:#000078; stroke-opacity: 0;fill:#C860FF; fill-opacity: 0;"/>
<path d="M 368.279238529489 458.09709192348475 L 378.50164324516993 451.8327942570302 L 372.23734557871535 441.6103895413492 L 362.01494086303444 447.87468720780385 Z" style="stroke:#000078; stroke-opacity: 0;fill:#C860FF; fill-opacity: 0;"/>
<path d="M 372.23734557871535 441.6103895413492 L 383.31384758354295 437.02235218729703 L 378.7258102294908 425.94585018246937 L 367.6493082246632 430.5338875365216 Z" style="stroke:#000078; stroke-opacity: 0;fill:#C860FF; fill-opacity: 0;"/>
<path d="M 378.7258102294908 425.94585018246937 L 390.38366928330345 423.14704584729895 L 387.5848649481331 411.4891867934862 L 375.92700589432036 414.2879911286567 Z" style="stroke:#000078; stroke-opacity: 0;fill:#C860FF; fill-opacity: 0;"/>
<path d="M 387.5848649481331 411.4891867934862 L 399.53702587080966 410.5485313286289 L 398.5963704059523 398.5963704059523 L 386.64420948327574 399.53702587080966 Z" style="stroke:#000078; stroke-opacity: 0;fill:#C860FF; fill-opacity: 0;"/>
<path d="M 398.5963704059523 398.5963704059523 L 410.5485313286289 399.53702587080966 L 411.4891867934862 387.5848649481331 L 399.53702587080966 386.64420948327574 Z" style="stroke:#000078; stroke-opacity: 0;fill:#C860FF; fill-opacity: 0;"/>
<path d="M 411.4891867934862 387.5848649481331 L 423.14704584729895 390.38366928330345 L 425.94585018246937 378.7258102294908 L 414.2879911286567 375.92700589432036 Z" style="stroke:#000078; stroke-opacity: 0;fill:#C860FF; fill-opacity: 0;"/>
<path d="M 425.94585018246937 378.7258102294908 L 437.02235218729703 383.313847583543 L 441.61038954134926 372.23734557871535 L 430.5338875365216 367.6493082246631 Z" style="stroke:#000078; stroke-opacity: 0;fill:#C860FF; fill-opacity: 0;"/>
<path d="M 441.61038954134926 372.23734557871535 L 451.83279425703023 378.5016432451699 L 458.09709192348475 368.2792385294889 L 447.8746872078038 362.0149408630344 Z" style="stroke:#000078; stroke-opacity: 0;fill:#C860FF; fill-opacity: 0;"/>
<path d="M 458.09709192348475 368.2792385294889 L 467.21368981970284 376.06554870978584 L 474.9999999999998 366.94895081356776 L 465.8834021037817 359.1626406332708 Z" style="stroke:#000078; stroke-opacity: 0;fill:#C860FF; fill-opacity: 0;"/>
<path d="M 474.9999999999998 366.94895081356776 L 482.7863101802968 376.06554870978624 L 491.90290807651525 368.2792385294892 L 484.1165978962182 359.16264063327077 Z" style="stroke:#000078; stroke-opacity: 0;fill:#C860FF; fill-opacity: 0;"/>
<path d="M 491.90290807651525 368.2792385294892 L 498.16720574297005 378.50164324517027 L 508.3896104586511 372.23734557871546 L 502.12531279219627 362.01494086303444 Z" style="stroke:#000078; stroke-opacity: 0;fill:#C860FF; fill-opacity: 0;"/>
<path d="M 508.3896104586511 372.23734557871546 L 512.9776478127035 383.3138475835429 L 524.054149817531 378.72581022949043 L 519.4661124634786 367.649308224663 Z" style="stroke:#000078; stroke-opacity: 0;fill:#C860FF; fill-opacity: 0;"/>
<path d="M 524.054149817531 378.72581022949043 L 526.8529541527009 390.3836692833029 L 538.5108132065134 387.58486494813286 L 535.7120088713434 375.9270058943205 Z" style="stroke:#000078; stroke-opacity: 0;fill:#C860FF; fill-opacity: 0;"/>
<path d="M 538.5108132065134 387.58486494813286 L 539.4514686713707 399.53702587080977 L 551.4036295940475 398.59637040595254 L 550.4629741291902 386.64420948327563 Z" style="stroke:#000078; stroke-opacity: 0;fill:#C860FF; fill-opacity: 0;"/>
<path d="M 551.4036295940475 398.59637040595254 L 550.4629741291903 410.5485313286293 L 562.415135051867 411.4891867934865 L 563.3557905167243 399.5370258708098 Z" style="stroke:#000078; stroke-opacity: 0;fill:#C860FF; fill-opacity: 0;"/>
<path d="M 562.415135051867 411.4891867934865 L 559.6163307166969 423.1470458472993 L 571.2741897705097 425.9458501824693 L 574.0729941056798 414.2879911286566 Z" style="stroke:#000078; stroke-opacity: 0;fill:#C860FF; fill-opacity: 0;"/>
<path d="M 571.2741897705097 425.9458501824693 L 566.6861524164575 437.0223521872966 L 577.7626544212847 441.6103895413488 L 582.3506917753369 430.5338875365216 Z" style="stroke:#000078; stroke-opacity: 0;fill:#C860FF; fill-opacity: 0;"/>
<path d="M 577.7626544212847 441.6103895413488 L 571.4983567548298 451.8327942570297 L 581.7207614705108 458.0970919234846 L 587.9850591369656 447.8746872078036 Z" style="stroke:#000078; stroke-opacity: 0;fill:#C860FF; fill-opacity: 0;"/>
<path d="M 581.7207614705108 458.0970919234846 L 573.9344512902137 467.21368981970295 L 583.0510491864321 474.99999999999994 L 590.8373593667291 465.8834021037816 Z" style="stroke:#000078; stroke-opacity: 0;fill:#C860FF; fill-opacity: 0;"/>
<path d="M 583.0510491864321 474.99999999999994 L 573.9344512902138 482.78631018029694 L 581.7207614705109 491.90290807651525 L 590.8373593667292 484.1165978962182 Z" style="stroke:#000078; stroke-opacity: 0;fill:#C860FF; fill-opacity: 0;"/>
<path d="M 581.7207614705109 491.90290807651525 L 571.49835675483 498.1672057429699 L 577.7626544212847 508.3896104586508 L 587.9850591369654 502.1253127921961 Z" style="stroke:#000078; stroke-opacity: 0;fill:#C860FF; fill-opacity: 0;"/>
<path d="M 577.7626544212847 508.3896104586508 L 566.6861524164569 512.9776478127034 L 571.2741897705095 524.054149817531 L 582.350691775337 519.4661124634785 Z" style="stroke:#000078; stroke-opacity: 0;fill:#C860FF; fill-opacity: 0;"/>
<path d="M 571.2741897705095 524.054149817531 L 559.6163307166972 526.8529541527013 L 562.4151350518675 538.5108132065134 L 574.0729941056796 535.7120088713431 Z" style="stroke:#000078; stroke-opacity: 0;fill:#C860FF; fill-opacity: 0;"/>
<path d="M 550.4629741291905 539.4514686713702 L 539.4514686713705 539.4514686713703 L 539.4514686713705 550.4629741291903 L 550.4629741291906 550.4629741291903 Z" style="stroke:#00008C; stroke-opacity: 0;fill:#C860FF; fill-opacity: 0;"/>
<path d="M 539.4514686713705 550.4629741291903 L 528.5755331182825 548.7403951636089 L 526.852954152701 559.6163307166969 L 537.728889705789 561.3389096822783 Z" style="stroke:#00008C; stroke-opacity: 0;fill:#C860FF; fill-opacity: 0;"/>
<path d="M 526.852954152701 559.6163307166969 L 516.3803901328222 556.2135883965782 L 512.9776478127035 566.6861524164572 L 523.4502118325825 570.0888947365759 Z" style="stroke:#00008C; stroke-opacity: 0;fill:#C860FF; fill-opacity: 0;"/>
<path d="M 512.9776478127035 566.6861524164572 L 503.1663246086504 561.6870335507765 L 498.1672057429698 571.4983567548296 L 507.9785289470229 576.4974756205102 Z" style="stroke:#00008C; stroke-opacity: 0;fill:#C860FF; fill-opacity: 0;"/>
<path d="M 498.1672057429698 571.4983567548296 L 489.25871069394105 565.0259562411853 L 482.78631018029677 573.9344512902142 L 491.6948052293256 580.4068518038583 Z" style="stroke:#00008C; stroke-opacity: 0;fill:#C860FF; fill-opacity: 0;"/>
<path d="M 482.78631018029677 573.9344512902142 L 475.00000000000006 566.1481411099172 L 467.2136898197031 573.9344512902139 L 474.99999999999983 581.7207614705109 Z" style="stroke:#00008C; stroke-opacity: 0;fill:#C860FF; fill-opacity: 0;"/>
<path d="M 467.2136898197031 573.9344512902139 L 460.74128930605855 565.0259562411854 L 451.83279425703 571.49835675483 L 458.3051947706746 580.4068518038584 Z" style="stroke:#00008C; stroke-opacity: 0;fill:#C860FF; fill-opacity: 0;"/>
<path d="M 451.83279425703 571.49835675483 L 446.83367539134986 561.687033550777 L 437.02235218729686 566.6861524164572 L 442.02147105297706 576.4974756205102 Z" style="stroke:#00008C; stroke-opacity: 0;fill:#C860FF; fill-opacity: 0;"/>
<path d="M 437.02235218729686 566.6861524164572 L 433.61960986717816 556.213588396578 L 423.147045847299 559.6163307166967 L 426.54978816741766 570.0888947365759 Z" style="stroke:#00008C; stroke-opacity: 0;fill:#C860FF; fill-opacity: 0;"/>
<path d="M 423.147045847299 559.6163307166967 L 421.4244668817172 548.7403951636086 L 410.54853132862905 550.4629741291903 L 412.27111029421087 561.3389096822784 Z" style="stroke:#00008C; stroke-opacity: 0;fill:#C860FF; fill-opacity: 0;"/>
<path d="M 410.54853132862905 550.4629741291903 L 410.5485313286291 539.4514686713708 L 399.53702587080954 539.4514686713708 L 399.53702587080954 550.4629741291903 Z" style="stroke:#00008C; stroke-opacity: 0;fill:#C860FF; fill-opacity: 0;"/>
<path d="M 399.53702587080954 539.4514686713708 L 401.2596048363912 528.575533118283 L 390.38366928330345 526.8529541527014 L 388.6610903177218 537.7288897057891 Z" style="stroke:#00008C; stroke-opacity: 0;fill:#C860FF; fill-opacity: 0;"/>
<path d="M 390.38366928330345 526.8529541527014 L 393.7864116034226 516.380390132822 L 383.3138475835433 512.9776478127029 L 379.91110526342413 523.4502118325822 Z" style="stroke:#00008C; stroke-opacity: 0;fill:#C860FF; fill-opacity: 0;"/>
<path d="M 383.3138475835433 512.9776478127029 L 388.3129664492233 503.16632460864963 L 378.50164324517004 498.1672057429696 L 373.50252437949 507.9785289470229 Z" style="stroke:#00008C; stroke-opacity: 0;fill:#C860FF; fill-opacity: 0;"/>
<path d="M 378.50164324517004 498.1672057429696 L 384.97404375881433 489.2587106939411 L 376.0655487097858 482.78631018029677 L 369.59314819614156 491.6948052293253 Z" style="stroke:#00008C; stroke-opacity: 0;fill:#C860FF; fill-opacity: 0;"/>
<path d="M 376.0655487097858 482.78631018029677 L 383.85185889008267 475 L 376.0655487097859 467.2136898197031 L 368.279238529489 474.9999999999999 Z" style="stroke:#00008C; stroke-opacity: 0;fill:#C860FF; fill-opacity: 0;"/>
<path d="M 376.0655487097859 467.2136898197031 L 384.97404375881445 460.7412893060587 L 378.50164324516993 451.8327942570302 L 369.59314819614144 458.30519477067463 Z" style="stroke:#00008C; stroke-opacity: 0;fill:#C860FF; fill-opacity: 0;"/>
<path d="M 378.50164324516993 451.8327942570302 L 388.31296644922304 446.8336753913501 L 383.31384758354295 437.02235218729703 L 373.50252437948984 442.02147105297706 Z" style="stroke:#00008C; stroke-opacity: 0;fill:#C860FF; fill-opacity: 0;"/>
<path d="M 383.31384758354295 437.02235218729703 L 393.78641160342227 433.61960986717827 L 390.38366928330345 423.14704584729895 L 379.91110526342413 426.5497881674178 Z" style="stroke:#00008C; stroke-opacity: 0;fill:#C860FF; fill-opacity: 0;"/>
<path d="M 390.38366928330345 423.14704584729895 L 401.2596048363916 421.424466881717 L 399.53702587080966 410.5485313286289 L 388.6610903177215 412.2711102942108 Z" style="stroke:#00008C; stroke-opacity: 0;fill:#C860FF; fill-opacity: 0;"/>
<path d="M 399.53702587080966 410.5485313286289 L 410.5485313286289 410.5485313286289 L 410.5485313286289 399.53702587080966 L 399.53702587080966 399.53702587080966 Z" style="stroke:#00008C; stroke-opacity: 0;fill:#C860FF; fill-opacity: 0;"/>
<path d="M 410.5485313286289 399.53702587080966 L 421.424466881717 401.2596048363916 L 423.14704584729895 390.38366928330345 L 412.2711102942108 388.6610903177215 Z" style="stroke:#00008C; stroke-opacity: 0;fill:#C860FF; fill-opacity: 0;"/>
<path d="M 423.14704584729895 390.38366928330345 L 433.61960986717827 393.78641160342227 L 437.02235218729703 383.313847583543 L 426.5497881674178 379.91110526342413 Z" style="stroke:#00008C; stroke-opacity: 0;fill:#C860FF; fill-opacity: 0;"/>
<path d="M 437.02235218729703 383.313847583543 L 446.8336753913502 388.31296644922304 L 451.83279425703023 378.5016432451699 L 442.02147105297706 373.50252437948984 Z" style="stroke:#00008C; stroke-opacity: 0;fill:#C860FF; fill-opacity: 0;"/>
<path d="M 451.83279425703023 378.5016432451699 L 460.74128930605855 384.9740437588141 L 467.21368981970284 376.06554870978584 L 458.3051947706746 369.59314819614156 Z" style="stroke:#00008C; stroke-opacity: 0;fill:#C860FF; fill-opacity: 0;"/>
<path d="M 467.21368981970284 376.06554870978584 L 474.99999999999966 383.85185889008307 L 482.7863101802968 376.06554870978624 L 475 368.2792385294891 Z" style="stroke:#00008C; stroke-opacity: 0;fill:#C860FF; fill-opacity: 0;"/>
<path d="M 482.7863101802968 376.06554870978624 L 489.25871069394145 384.9740437588149 L 498.16720574297005 378.50164324517027 L 491.6948052293254 369.59314819614167 Z" style="stroke:#00008C; stroke-opacity: 0;fill:#C860FF; fill-opacity: 0;"/>
<path d="M 498.16720574297005 378.50164324517027 L 503.1663246086505 388.31296644922327 L 512.9776478127035 383.3138475835429 L 507.97852894702305 373.50252437948984 Z" style="stroke:#00008C; stroke-opacity: 0;fill:#C860FF; fill-opacity: 0;"/>
<path d="M 512.9776478127035 383.3138475835429 L 516.3803901328222 393.7864116034216 L 526.8529541527009 390.3836692833029 L 523.4502118325822 379.91110526342413 Z" style="stroke:#00008C; stroke-opacity: 0;fill:#C860FF; fill-opacity: 0;"/>
<path d="M 526.8529541527009 390.3836692833029 L 528.5755331182822 401.2596048363912 L 539.4514686713707 399.53702587080977 L 537.7288897057892 388.66109031772146 Z" style="stroke:#00008C; stroke-opacity: 0;fill:#C860FF; fill-opacity: 0;"/>
<path d="M 539.4514686713707 399.53702587080977 L 539.4514686713708 410.5485313286294 L 550.4629741291903 410.5485313286293 L 550.4629741291903 399.5370258708097 Z" style="stroke:#00008C; stroke-opacity: 0;fill:#C860FF; fill-opacity: 0;"/>
<path d="M 550.4629741291903 410.5485313286293 L 548.7403951636086 421.42446688171754 L 559.6163307166969 423.1470458472993 L 561.3389096822787 412.271110294211 Z" style="stroke:#00008C; stroke-opacity: 0;fill:#C860FF; fill-opacity: 0;"/>
<path d="M 559.6163307166969 423.1470458472993 L 556.2135883965786 433.6196098671782 L 566.6861524164575 437.0223521872966 L 570.0888947365759 426.5497881674176 Z" style="stroke:#00008C; stroke-opacity: 0;fill:#C860FF; fill-opacity: 0;"/>
<path d="M 566.6861524164575 437.0223521872966 L 561.6870335507771 446.8336753913493 L 571.4983567548298 451.8327942570297 L 576.4974756205103 442.02147105297695 Z" style="stroke:#00008C; stroke-opacity: 0;fill:#C860FF; fill-opacity: 0;"/>
<path d="M 571.4983567548298 451.8327942570297 L 565.0259562411852 460.74128930605826 L 573.9344512902137 467.21368981970295 L 580.4068518038584 458.3051947706744 Z" style="stroke:#00008C; stroke-opacity: 0;fill:#C860FF; fill-opacity: 0;"/>
<path d="M 573.9344512902137 467.21368981970295 L 566.1481411099167 475 L 573.9344512902138 482.78631018029694 L 581.7207614705108 474.9999999999999 Z" style="stroke:#00008C; stroke-opacity: 0;fill:#C860FF; fill-opacity: 0;"/>
<path d="M 573.9344512902138 482.78631018029694 L 565.0259562411853 489.2587106939415 L 571.49835675483 498.1672057429699 L 580.4068518038583 491.69480522932537 Z" style="stroke:#00008C; stroke-opacity: 0;fill:#C860FF; fill-opacity: 0;"/>
<path d="M 571.49835675483 498.1672057429699 L 561.6870335507767 503.16632460865014 L 566.6861524164569 512.9776478127034 L 576.4974756205102 507.97852894702316 Z" style="stroke:#00008C; stroke-opacity: 0;fill:#C860FF; fill-opacity: 0;"/>
<path d="M 566.6861524164569 512.9776478127034 L 556.2135883965781 516.3803901328224 L 559.6163307166972 526.8529541527013 L 570.088894736576 523.4502118325822 Z" style="stroke:#00008C; stroke-opacity: 0;fill:#C860FF; fill-opacity: 0;"/>
<path d="M 559.6163307166972 526.8529541527013 L 548.7403951636094 528.5755331182824 L 550.4629741291905 539.4514686713702 L 561.3389096822783 537.7288897057891 Z" style="stroke:#00008C; stroke-opacity: 0;fill:#C860FF; fill-opacity: 0;"/>
</g>
</svg>