<?xml version="1.0"?><!DOCTYPE svg PUBLIC "-//W3C//DTD SVG 1.1//EN" "http://www.w3.org/Graphics/SVG/1.1/DTD/svg11.dtd"><svg xmlns="http://www.w3.org/2000/svg" width="950" height="950">
<title>PatternSixtyEight</title>
<desc>
Generated using the following configuration:

@implementation NewPattern : PatternSixtyEight
+ (CPDict) defaultConfig
{
 return [CPDictionary dictionaryWithObjectsAndKeys:[[GRColor alloc] initWithGradientColors:[] baseColor:[CPColor colorWith8BitRed:0 green:0 blue:74 alpha:1]], "background_color", 0, "background_color_direction", 14, "number_of_points", 0, "rotation", 0, "recurse_depth", 4, "factor_larger", [GRPoint pointWithX:475 Y:475], "center_point", 102, "radius", YES, "show_shapes", [[CPColor colorWith8BitRed:200 green:107 blue:0 alpha:1],[CPColor colorWith8BitRed:200 green:107 blue:0 alpha:1],[CPColor colorWith8BitRed:200 green:107 blue:0 alpha:1],[CPColor colorWith8BitRed:200 green:107 blue:0 alpha:1],[CPColor colorWith8BitRed:200 green:107 blue:0 alpha:1],[CPColor colorWith8BitRed:248 green:132 blue:0 alpha:0.7818181818181819]], "stroke_colors", [[CPColor colorWith8BitRed:0 green:0 blue:98 alpha:1],[CPColor colorWith8BitRed:0 green:0 blue:127 alpha:1],[CPColor colorWith8BitRed:31 green:42 blue:124 alpha:1],[CPColor colorWith8BitRed:31 green:42 blue:124 alpha:1],[CPColor colorWith8BitRed:31 green:42 blue:124 alpha:1],[CPColor colorWith8BitRed:0 green:0 blue:127 alpha:1]], "fill_colors"];
}
@end

</desc>
  <defs>
    <linearGradient id="grad1" x1="0%" y1="0%" x2="100%" y2="0%">
<stop offset="100%" style="stop-color:#00004A;stop-opacity:1;" />
    </linearGradient>
  </defs>
<rect id="background" width="100%" height="100%" fill="url(#grad1)"/>
<g id="rotatelayer" transform="rotate(0, 475, 475)">
<path d="M 729.3838391583631 793.987244846956 L 842.5952981041869 652.0245655599638 L 715.0082289877789 666.400175730548 Z" style="stroke:#C86B00; stroke-opacity: 1;fill:#000062; fill-opacity: 1;"/>
<path d="M 565.7885410541762 872.770588170184 L 729.3838391583631 793.987244846956 L 608.1945184446556 751.5812674564766 Z" style="stroke:#C86B00; stroke-opacity: 1;fill:#000062; fill-opacity: 1;"/>
<path d="M 384.2114589458238 872.770588170184 L 565.7885410541762 872.770588170184 L 475 781.9820471160078 Z" style="stroke:#C86B00; stroke-opacity: 1;fill:#000062; fill-opacity: 1;"/>
<path d="M 220.61616084163688 793.9872448469564 L 384.2114589458238 872.770588170184 L 341.80548155534416 751.5812674564768 Z" style="stroke:#C86B00; stroke-opacity: 1;fill:#000062; fill-opacity: 1;"/>
<path d="M 107.4047018958131 652.0245655599638 L 220.61616084163688 793.9872448469564 L 234.9917710122213 666.4001757305482 Z" style="stroke:#C86B00; stroke-opacity: 1;fill:#000062; fill-opacity: 1;"/>
<path d="M 67 475 L 107.4047018958131 652.0245655599638 L 175.71463372788844 543.3099318320753 Z" style="stroke:#C86B00; stroke-opacity: 1;fill:#000062; fill-opacity: 1;"/>
<path d="M 107.4047018958131 297.9754344400362 L 67 475 L 175.71463372788844 406.69006816792466 Z" style="stroke:#C86B00; stroke-opacity: 1;fill:#000062; fill-opacity: 1;"/>
<path d="M 220.61616084163666 156.01275515304383 L 107.4047018958131 297.9754344400362 L 234.99177101222108 283.5998242694518 Z" style="stroke:#C86B00; stroke-opacity: 1;fill:#000062; fill-opacity: 1;"/>
<path d="M 384.21145894582355 77.22941182981594 L 220.61616084163666 156.01275515304383 L 341.80548155534404 198.4187325435233 Z" style="stroke:#C86B00; stroke-opacity: 1;fill:#000062; fill-opacity: 1;"/>
<path d="M 565.7885410541762 77.22941182981594 L 384.21145894582355 77.22941182981594 L 474.9999999999999 168.01795288399228 Z" style="stroke:#C86B00; stroke-opacity: 1;fill:#000062; fill-opacity: 1;"/>
<path d="M 729.3838391583631 156.01275515304383 L 565.7885410541762 77.22941182981594 L 608.1945184446557 198.4187325435233 Z" style="stroke:#C86B00; stroke-opacity: 1;fill:#000062; fill-opacity: 1;"/>
<path d="M 842.5952981041869 297.9754344400362 L 729.3838391583631 156.01275515304383 L 715.0082289877788 283.5998242694519 Z" style="stroke:#C86B00; stroke-opacity: 1;fill:#000062; fill-opacity: 1;"/>
<path d="M 883 475 L 842.5952981041869 297.9754344400362 L 774.2853662721116 406.69006816792466 Z" style="stroke:#C86B00; stroke-opacity: 1;fill:#000062; fill-opacity: 1;"/>
<path d="M 842.5952981041869 652.0245655599638 L 883 475 L 774.2853662721116 543.3099318320753 Z" style="stroke:#C86B00; stroke-opacity: 1;fill:#000062; fill-opacity: 1;"/>
<path d="M 608.1945184446556 751.5812674564766 L 715.0082289877789 666.400175730548 L 619.010827853253 655.5838663219506 Z" style="stroke:#C86B00; stroke-opacity: 1;fill:#000075; fill-opacity: 1;"/>
<path d="M 475 781.9820471160078 L 608.1945184446556 751.5812674564766 L 526.3968693925622 700.1843980639144 Z" style="stroke:#C86B00; stroke-opacity: 1;fill:#000075; fill-opacity: 1;"/>
<path d="M 341.80548155534416 751.5812674564768 L 475 781.9820471160078 L 423.6031306074376 700.1843980639144 Z" style="stroke:#C86B00; stroke-opacity: 1;fill:#000075; fill-opacity: 1;"/>
<path d="M 234.9917710122213 666.4001757305482 L 341.80548155534416 751.5812674564768 L 330.989172146747 655.5838663219511 Z" style="stroke:#C86B00; stroke-opacity: 1;fill:#000075; fill-opacity: 1;"/>
<path d="M 175.71463372788844 543.3099318320753 L 234.9917710122213 666.4001757305482 L 266.8983243192913 575.2164851391453 Z" style="stroke:#C86B00; stroke-opacity: 1;fill:#000075; fill-opacity: 1;"/>
<path d="M 175.71463372788844 406.69006816792466 L 175.71463372788844 543.3099318320753 L 244.02456555996378 475 Z" style="stroke:#C86B00; stroke-opacity: 1;fill:#000075; fill-opacity: 1;"/>
<path d="M 234.99177101222108 283.5998242694518 L 175.71463372788844 406.69006816792466 L 266.8983243192912 374.78351486085455 Z" style="stroke:#C86B00; stroke-opacity: 1;fill:#000075; fill-opacity: 1;"/>
<path d="M 341.80548155534404 198.4187325435233 L 234.99177101222108 283.5998242694518 L 330.9891721467468 294.41613367804905 Z" style="stroke:#C86B00; stroke-opacity: 1;fill:#000075; fill-opacity: 1;"/>
<path d="M 474.9999999999999 168.01795288399228 L 341.80548155534404 198.4187325435233 L 423.6031306074375 249.81560193608573 Z" style="stroke:#C86B00; stroke-opacity: 1;fill:#000075; fill-opacity: 1;"/>
<path d="M 608.1945184446557 198.4187325435233 L 474.9999999999999 168.01795288399228 L 526.3968693925623 249.81560193608573 Z" style="stroke:#C86B00; stroke-opacity: 1;fill:#000075; fill-opacity: 1;"/>
<path d="M 715.0082289877788 283.5998242694519 L 608.1945184446557 198.4187325435233 L 619.010827853253 294.41613367804916 Z" style="stroke:#C86B00; stroke-opacity: 1;fill:#000075; fill-opacity: 1;"/>
<path d="M 774.2853662721116 406.69006816792466 L 715.0082289877788 283.5998242694519 L 683.1016756807089 374.78351486085467 Z" style="stroke:#C86B00; stroke-opacity: 1;fill:#000075; fill-opacity: 1;"/>
<path d="M 774.2853662721116 543.3099318320753 L 774.2853662721116 406.69006816792466 L 705.9754344400362 475 Z" style="stroke:#C86B00; stroke-opacity: 1;fill:#000075; fill-opacity: 1;"/>
<path d="M 715.0082289877789 666.400175730548 L 774.2853662721116 543.3099318320753 L 683.1016756807089 575.2164851391453 Z" style="stroke:#C86B00; stroke-opacity: 1;fill:#000075; fill-opacity: 1;"/>
<path d="M 526.3968693925622 700.1843980639144 L 619.010827853253 655.5838663219506 L 550.4035827519257 631.5771529625871 Z" style="stroke:#C86B00; stroke-opacity: 1;fill:#1F2A68; fill-opacity: 1;"/>
<path d="M 423.6031306074376 700.1843980639144 L 526.3968693925622 700.1843980639144 L 474.9999999999999 648.7875286713521 Z" style="stroke:#C86B00; stroke-opacity: 1;fill:#1F2A68; fill-opacity: 1;"/>
<path d="M 330.989172146747 655.5838663219511 L 423.6031306074376 700.1843980639144 L 399.596417248074 631.5771529625874 Z" style="stroke:#C86B00; stroke-opacity: 1;fill:#1F2A68; fill-opacity: 1;"/>
<path d="M 266.8983243192913 575.2164851391453 L 330.989172146747 655.5838663219511 L 339.12743882442203 583.3547518168203 Z" style="stroke:#C86B00; stroke-opacity: 1;fill:#1F2A68; fill-opacity: 1;"/>
<path d="M 244.02456555996378 475 L 266.8983243192913 575.2164851391453 L 305.5696875092002 513.6713631899089 Z" style="stroke:#C86B00; stroke-opacity: 1;fill:#1F2A68; fill-opacity: 1;"/>
<path d="M 266.8983243192912 374.78351486085455 L 244.02456555996378 475 L 305.5696875092002 436.328636810091 Z" style="stroke:#C86B00; stroke-opacity: 1;fill:#1F2A68; fill-opacity: 1;"/>
<path d="M 330.9891721467468 294.41613367804905 L 266.8983243192912 374.78351486085455 L 339.12743882442174 366.6452481831796 Z" style="stroke:#C86B00; stroke-opacity: 1;fill:#1F2A68; fill-opacity: 1;"/>
<path d="M 423.6031306074375 249.81560193608573 L 330.9891721467468 294.41613367804905 L 399.5964172480738 318.42284703741274 Z" style="stroke:#C86B00; stroke-opacity: 1;fill:#1F2A68; fill-opacity: 1;"/>
<path d="M 526.3968693925623 249.81560193608573 L 423.6031306074375 249.81560193608573 L 474.9999999999999 301.2124713286481 Z" style="stroke:#C86B00; stroke-opacity: 1;fill:#1F2A68; fill-opacity: 1;"/>
<path d="M 619.010827853253 294.41613367804916 L 526.3968693925623 249.81560193608573 L 550.4035827519258 318.4228470374128 Z" style="stroke:#C86B00; stroke-opacity: 1;fill:#1F2A68; fill-opacity: 1;"/>
<path d="M 683.1016756807089 374.78351486085467 L 619.010827853253 294.41613367804916 L 610.8725611755782 366.6452481831799 Z" style="stroke:#C86B00; stroke-opacity: 1;fill:#1F2A68; fill-opacity: 1;"/>
<path d="M 705.9754344400362 475 L 683.1016756807089 374.78351486085467 L 644.4303124907999 436.328636810091 Z" style="stroke:#C86B00; stroke-opacity: 1;fill:#1F2A68; fill-opacity: 1;"/>
<path d="M 683.1016756807089 575.2164851391453 L 705.9754344400362 475 L 644.4303124907999 513.671363189909 Z" style="stroke:#C86B00; stroke-opacity: 1;fill:#1F2A68; fill-opacity: 1;"/>
<path d="M 619.010827853253 655.5838663219506 L 683.1016756807089 575.2164851391453 L 610.8725611755783 583.35475181682 Z" style="stroke:#C86B00; stroke-opacity: 1;fill:#1F2A68; fill-opacity: 1;"/>
<path d="M 474.9999999999999 648.7875286713521 L 550.4035827519257 631.5771529625871 L 504.0966035215803 602.4805494410067 Z" style="stroke:#C86B00; stroke-opacity: 1;fill:#1F2A5E; fill-opacity: 1;"/>
<path d="M 399.596417248074 631.5771529625874 L 474.9999999999999 648.7875286713521 L 445.90339647841927 602.4805494410068 Z" style="stroke:#C86B00; stroke-opacity: 1;fill:#1F2A5E; fill-opacity: 1;"/>
<path d="M 339.12743882442203 583.3547518168203 L 399.596417248074 631.5771529625874 L 393.47312860913155 577.2314631778779 Z" style="stroke:#C86B00; stroke-opacity: 1;fill:#1F2A5E; fill-opacity: 1;"/>
<path d="M 305.5696875092002 513.6713631899089 L 339.12743882442203 583.3547518168203 L 357.19025748026684 531.7341818457537 Z" style="stroke:#C86B00; stroke-opacity: 1;fill:#1F2A5E; fill-opacity: 1;"/>
<path d="M 305.5696875092002 436.328636810091 L 305.5696875092002 513.6713631899089 L 344.24105069910917 474.99999999999994 Z" style="stroke:#C86B00; stroke-opacity: 1;fill:#1F2A5E; fill-opacity: 1;"/>
<path d="M 339.12743882442174 366.6452481831796 L 305.5696875092002 436.328636810091 L 357.1902574802667 418.26581815424606 Z" style="stroke:#C86B00; stroke-opacity: 1;fill:#1F2A5E; fill-opacity: 1;"/>
<path d="M 399.5964172480738 318.42284703741274 L 339.12743882442174 366.6452481831796 L 393.4731286091312 372.7685368221222 Z" style="stroke:#C86B00; stroke-opacity: 1;fill:#1F2A5E; fill-opacity: 1;"/>
<path d="M 474.9999999999999 301.2124713286481 L 399.5964172480738 318.42284703741274 L 445.90339647841915 347.5194505589934 Z" style="stroke:#C86B00; stroke-opacity: 1;fill:#1F2A5E; fill-opacity: 1;"/>
<path d="M 550.4035827519258 318.4228470374128 L 474.9999999999999 301.2124713286481 L 504.09660352158045 347.5194505589934 Z" style="stroke:#C86B00; stroke-opacity: 1;fill:#1F2A5E; fill-opacity: 1;"/>
<path d="M 610.8725611755782 366.6452481831799 L 550.4035827519258 318.4228470374128 L 556.5268713908686 372.76853682212254 Z" style="stroke:#C86B00; stroke-opacity: 1;fill:#1F2A5E; fill-opacity: 1;"/>
<path d="M 644.4303124907999 436.328636810091 L 610.8725611755782 366.6452481831799 L 592.8097425197336 418.2658181542463 Z" style="stroke:#C86B00; stroke-opacity: 1;fill:#1F2A5E; fill-opacity: 1;"/>
<path d="M 644.4303124907999 513.671363189909 L 644.4303124907999 436.328636810091 L 605.7589493008909 475 Z" style="stroke:#C86B00; stroke-opacity: 1;fill:#1F2A5E; fill-opacity: 1;"/>
<path d="M 610.8725611755783 583.35475181682 L 644.4303124907999 513.671363189909 L 592.8097425197336 531.7341818457537 Z" style="stroke:#C86B00; stroke-opacity: 1;fill:#1F2A5E; fill-opacity: 1;"/>
<path d="M 550.4035827519257 631.5771529625871 L 610.8725611755783 583.35475181682 L 556.5268713908686 577.2314631778772 Z" style="stroke:#C86B00; stroke-opacity: 1;fill:#1F2A5E; fill-opacity: 1;"/>
<path d="M 445.90339647841927 602.4805494410068 L 504.0966035215803 602.4805494410067 L 474.9999999999997 573.3839459194263 Z" style="stroke:#C86B00; stroke-opacity: 1;fill:#1F2A54; fill-opacity: 1;"/>
<path d="M 393.47312860913155 577.2314631778779 L 445.90339647841927 602.4805494410068 L 432.31280567533986 563.6408723747985 Z" style="stroke:#C86B00; stroke-opacity: 1;fill:#1F2A54; fill-opacity: 1;"/>
<path d="M 357.19025748026684 531.7341818457537 L 393.47312860913155 577.2314631778779 L 398.0803337107613 536.3413869473834 Z" style="stroke:#C86B00; stroke-opacity: 1;fill:#1F2A54; fill-opacity: 1;"/>
<path d="M 344.24105069910917 474.99999999999994 L 357.19025748026684 531.7341818457537 L 379.0827450125648 496.89248753229805 Z" style="stroke:#C86B00; stroke-opacity: 1;fill:#1F2A54; fill-opacity: 1;"/>
<path d="M 357.1902574802667 418.26581815424606 L 344.24105069910917 474.99999999999994 L 379.08274501256494 453.1075124677018 Z" style="stroke:#C86B00; stroke-opacity: 1;fill:#1F2A54; fill-opacity: 1;"/>
<path d="M 393.4731286091312 372.7685368221222 L 357.1902574802667 418.26581815424606 L 398.0803337107609 413.6586130526164 Z" style="stroke:#C86B00; stroke-opacity: 1;fill:#1F2A54; fill-opacity: 1;"/>
<path d="M 445.90339647841915 347.5194505589934 L 393.4731286091312 372.7685368221222 L 432.3128056753396 386.3591276252018 Z" style="stroke:#C86B00; stroke-opacity: 1;fill:#1F2A54; fill-opacity: 1;"/>
<path d="M 504.09660352158045 347.5194505589934 L 445.90339647841915 347.5194505589934 L 474.9999999999998 376.61605408057403 Z" style="stroke:#C86B00; stroke-opacity: 1;fill:#1F2A54; fill-opacity: 1;"/>
<path d="M 556.5268713908686 372.76853682212254 L 504.09660352158045 347.5194505589934 L 517.6871943246599 386.35912762520206 Z" style="stroke:#C86B00; stroke-opacity: 1;fill:#1F2A54; fill-opacity: 1;"/>
<path d="M 592.8097425197336 418.2658181542463 L 556.5268713908686 372.76853682212254 L 551.9196662892392 413.65861305261694 Z" style="stroke:#C86B00; stroke-opacity: 1;fill:#1F2A54; fill-opacity: 1;"/>
<path d="M 605.7589493008909 475 L 592.8097425197336 418.2658181542463 L 570.9172549874354 453.1075124677018 Z" style="stroke:#C86B00; stroke-opacity: 1;fill:#1F2A54; fill-opacity: 1;"/>
<path d="M 592.8097425197336 531.7341818457537 L 605.7589493008909 475 L 570.9172549874354 496.8924875322982 Z" style="stroke:#C86B00; stroke-opacity: 1;fill:#1F2A54; fill-opacity: 1;"/>
<path d="M 556.5268713908686 577.2314631778772 L 592.8097425197336 531.7341818457537 L 551.9196662892393 536.341386947383 Z" style="stroke:#C86B00; stroke-opacity: 1;fill:#1F2A54; fill-opacity: 1;"/>
<path d="M 504.0966035215803 602.4805494410067 L 556.5268713908686 577.2314631778772 L 517.6871943246597 563.6408723747978 Z" style="stroke:#C86B00; stroke-opacity: 1;fill:#1F2A54; fill-opacity: 1;"/>
<path d="M 432.31280567533986 563.6408723747985 L 474.9999999999997 573.3839459194263 L 458.5279396099837 547.1688119847825 Z" style="stroke:#C86B00; stroke-opacity: 1;fill:#1F2A49; fill-opacity: 1;"/>
<path d="M 398.0803337107613 536.3413869473834 L 432.31280567533986 563.6408723747985 L 428.84631240675816 532.8748936788018 Z" style="stroke:#C86B00; stroke-opacity: 1;fill:#1F2A49; fill-opacity: 1;"/>
<path d="M 379.0827450125648 496.89248753229805 L 398.0803337107613 536.3413869473834 L 408.3059890692058 507.11814289074243 Z" style="stroke:#C86B00; stroke-opacity: 1;fill:#1F2A49; fill-opacity: 1;"/>
<path d="M 379.08274501256494 453.1075124677018 L 379.0827450125648 496.89248753229805 L 400.975232544863 474.99999999999994 Z" style="stroke:#C86B00; stroke-opacity: 1;fill:#1F2A49; fill-opacity: 1;"/>
<path d="M 398.0803337107609 413.6586130526164 L 379.08274501256494 453.1075124677018 L 408.3059890692056 442.88185710925706 Z" style="stroke:#C86B00; stroke-opacity: 1;fill:#1F2A49; fill-opacity: 1;"/>
<path d="M 432.3128056753396 386.3591276252018 L 398.0803337107609 413.6586130526164 L 428.84631240675753 417.1251063211985 Z" style="stroke:#C86B00; stroke-opacity: 1;fill:#1F2A49; fill-opacity: 1;"/>
<path d="M 474.9999999999998 376.61605408057403 L 432.3128056753396 386.3591276252018 L 458.5279396099836 402.831188015218 Z" style="stroke:#C86B00; stroke-opacity: 1;fill:#1F2A49; fill-opacity: 1;"/>
<path d="M 517.6871943246599 386.35912762520206 L 474.9999999999998 376.61605408057403 L 491.4720603900158 402.8311880152181 Z" style="stroke:#C86B00; stroke-opacity: 1;fill:#1F2A49; fill-opacity: 1;"/>
<path d="M 551.9196662892392 413.65861305261694 L 517.6871943246599 386.35912762520206 L 521.1536875932421 417.12510632119915 Z" style="stroke:#C86B00; stroke-opacity: 1;fill:#1F2A49; fill-opacity: 1;"/>
<path d="M 570.9172549874354 453.1075124677018 L 551.9196662892392 413.65861305261694 L 541.6940109307949 442.88185710925745 Z" style="stroke:#C86B00; stroke-opacity: 1;fill:#1F2A49; fill-opacity: 1;"/>
<path d="M 570.9172549874354 496.8924875322982 L 570.9172549874354 453.1075124677018 L 549.0247674551372 475 Z" style="stroke:#C86B00; stroke-opacity: 1;fill:#1F2A49; fill-opacity: 1;"/>
<path d="M 551.9196662892393 536.341386947383 L 570.9172549874354 496.8924875322982 L 541.694010930795 507.11814289074255 Z" style="stroke:#C86B00; stroke-opacity: 1;fill:#1F2A49; fill-opacity: 1;"/>
<path d="M 517.6871943246597 563.6408723747978 L 551.9196662892393 536.341386947383 L 521.1536875932421 532.8748936788005 Z" style="stroke:#C86B00; stroke-opacity: 1;fill:#1F2A49; fill-opacity: 1;"/>
<path d="M 474.9999999999997 573.3839459194263 L 517.6871943246597 563.6408723747978 L 491.4720603900155 547.1688119847821 Z" style="stroke:#C86B00; stroke-opacity: 1;fill:#1F2A49; fill-opacity: 1;"/>
<path d="M 428.84631240675816 532.8748936788018 L 458.5279396099837 547.1688119847825 L 450.83408516136126 525.1810392301793 Z" style="stroke:#C86B00; stroke-opacity: 1;fill:#1F2A40; fill-opacity: 1;"/>
<path d="M 408.3059890692058 507.11814289074243 L 428.84631240675816 532.8748936788018 L 431.4545261320116 509.7263566159959 Z" style="stroke:#C86B00; stroke-opacity: 1;fill:#1F2A40; fill-opacity: 1;"/>
<path d="M 400.975232544863 474.99999999999994 L 408.3059890692058 507.11814289074243 L 420.69968225240564 487.39369318319973 Z" style="stroke:#C86B00; stroke-opacity: 1;fill:#1F2A40; fill-opacity: 1;"/>
<path d="M 408.3059890692056 442.88185710925706 L 400.975232544863 474.99999999999994 L 420.69968225240575 462.6063068167998 Z" style="stroke:#C86B00; stroke-opacity: 1;fill:#1F2A40; fill-opacity: 1;"/>
<path d="M 428.84631240675753 417.1251063211985 L 408.3059890692056 442.88185710925706 L 431.4545261320109 440.2736433840037 Z" style="stroke:#C86B00; stroke-opacity: 1;fill:#1F2A40; fill-opacity: 1;"/>
<path d="M 458.5279396099836 402.831188015218 L 428.84631240675753 417.1251063211985 L 450.8340851613608 424.8189607698213 Z" style="stroke:#C86B00; stroke-opacity: 1;fill:#1F2A40; fill-opacity: 1;"/>
<path d="M 491.4720603900158 402.8311880152181 L 458.5279396099836 402.831188015218 L 474.99999999999966 419.30324840523417 Z" style="stroke:#C86B00; stroke-opacity: 1;fill:#1F2A40; fill-opacity: 1;"/>
<path d="M 521.1536875932421 417.12510632119915 L 491.4720603900158 402.8311880152181 L 499.16591483863846 424.8189607698218 Z" style="stroke:#C86B00; stroke-opacity: 1;fill:#1F2A40; fill-opacity: 1;"/>
<path d="M 541.6940109307949 442.88185710925745 L 521.1536875932421 417.12510632119915 L 518.5454738679894 440.2736433840047 Z" style="stroke:#C86B00; stroke-opacity: 1;fill:#1F2A40; fill-opacity: 1;"/>
<path d="M 549.0247674551372 475 L 541.6940109307949 442.88185710925745 L 529.3003177475948 462.6063068167999 Z" style="stroke:#C86B00; stroke-opacity: 1;fill:#1F2A40; fill-opacity: 1;"/>
<path d="M 541.694010930795 507.11814289074255 L 549.0247674551372 475 L 529.3003177475948 487.3936931832002 Z" style="stroke:#C86B00; stroke-opacity: 1;fill:#1F2A40; fill-opacity: 1;"/>
<path d="M 521.1536875932421 532.8748936788005 L 541.694010930795 507.11814289074255 L 518.5454738679896 509.72635661599514 Z" style="stroke:#C86B00; stroke-opacity: 1;fill:#1F2A40; fill-opacity: 1;"/>
<path d="M 491.4720603900155 547.1688119847821 L 521.1536875932421 532.8748936788005 L 499.165914838638 525.1810392301779 Z" style="stroke:#C86B00; stroke-opacity: 1;fill:#1F2A40; fill-opacity: 1;"/>
<path d="M 458.5279396099837 547.1688119847825 L 491.4720603900155 547.1688119847821 L 474.99999999999943 530.6967515947663 Z" style="stroke:#C86B00; stroke-opacity: 1;fill:#1F2A40; fill-opacity: 1;"/>
<path d="M 431.4545261320116 509.7263566159959 L 450.83408516136126 525.1810392301793 L 448.87164695377817 507.76391840841274 Z" style="stroke:#C86B00; stroke-opacity: 1;fill:#1F2A35; fill-opacity: 1;"/>
<path d="M 420.69968225240564 487.39369318319973 L 431.4545261320116 509.7263566159959 L 437.2434359086067 493.1826029597948 Z" style="stroke:#C86B00; stroke-opacity: 1;fill:#1F2A35; fill-opacity: 1;"/>
<path d="M 420.69968225240575 462.6063068167998 L 420.69968225240564 487.39369318319973 L 433.09337543560565 474.99999999999983 Z" style="stroke:#C86B00; stroke-opacity: 1;fill:#1F2A35; fill-opacity: 1;"/>
<path d="M 431.4545261320109 440.2736433840037 L 420.69968225240575 462.6063068167998 L 437.24343590860633 456.81739704020436 Z" style="stroke:#C86B00; stroke-opacity: 1;fill:#1F2A35; fill-opacity: 1;"/>
<path d="M 450.8340851613608 424.8189607698213 L 431.4545261320109 440.2736433840037 L 448.87164695377714 442.23608159158744 Z" style="stroke:#C86B00; stroke-opacity: 1;fill:#1F2A35; fill-opacity: 1;"/>
<path d="M 474.99999999999966 419.30324840523417 L 450.8340851613608 424.8189607698213 L 465.6748987629738 434.14406200684715 Z" style="stroke:#C86B00; stroke-opacity: 1;fill:#1F2A35; fill-opacity: 1;"/>
<path d="M 499.16591483863846 424.8189607698218 L 474.99999999999966 419.30324840523417 L 484.32510123702525 434.14406200684743 Z" style="stroke:#C86B00; stroke-opacity: 1;fill:#1F2A35; fill-opacity: 1;"/>
<path d="M 518.5454738679894 440.2736433840047 L 499.16591483863846 424.8189607698218 L 501.1283530462224 442.23608159158874 Z" style="stroke:#C86B00; stroke-opacity: 1;fill:#1F2A35; fill-opacity: 1;"/>
<path d="M 529.3003177475948 462.6063068167999 L 518.5454738679894 440.2736433840047 L 512.7565640913945 456.81739704020504 Z" style="stroke:#C86B00; stroke-opacity: 1;fill:#1F2A35; fill-opacity: 1;"/>
<path d="M 529.3003177475948 487.3936931832002 L 529.3003177475948 462.6063068167999 L 516.9066245643946 475 Z" style="stroke:#C86B00; stroke-opacity: 1;fill:#1F2A35; fill-opacity: 1;"/>
<path d="M 518.5454738679896 509.72635661599514 L 529.3003177475948 487.3936931832002 L 512.7565640913947 493.1826029597951 Z" style="stroke:#C86B00; stroke-opacity: 1;fill:#1F2A35; fill-opacity: 1;"/>
<path d="M 499.165914838638 525.1810392301779 L 518.5454738679896 509.72635661599514 L 501.1283530462224 507.7639184084108 Z" style="stroke:#C86B00; stroke-opacity: 1;fill:#1F2A35; fill-opacity: 1;"/>
<path d="M 474.99999999999943 530.6967515947663 L 499.165914838638 525.1810392301779 L 484.32510123702457 515.8559379931528 Z" style="stroke:#C86B00; stroke-opacity: 1;fill:#1F2A35; fill-opacity: 1;"/>
<path d="M 450.83408516136126 525.1810392301793 L 474.99999999999943 530.6967515947663 L 465.67489876297384 515.8559379931537 Z" style="stroke:#C86B00; stroke-opacity: 1;fill:#1F2A35; fill-opacity: 1;"/>
<path d="M 437.2434359086067 493.1826029597948 L 448.87164695377817 507.76391840841274 L 450.34819915550145 494.659155161518 Z" style="stroke:#F88400; stroke-opacity: 0.7818181818181819;fill:#00002F; fill-opacity: 1;"/>
<path d="M 433.09337543560565 474.99999999999983 L 437.2434359086067 493.1826029597948 L 444.25970715200367 482.0162712433968 Z" style="stroke:#F88400; stroke-opacity: 0.7818181818181819;fill:#00002F; fill-opacity: 1;"/>
<path d="M 437.24343590860633 456.81739704020436 L 433.09337543560565 474.99999999999983 L 444.2597071520038 467.9837287566025 Z" style="stroke:#F88400; stroke-opacity: 0.7818181818181819;fill:#00002F; fill-opacity: 1;"/>
<path d="M 448.87164695377714 442.23608159158744 L 437.24343590860633 456.81739704020436 L 450.3481991555002 455.3408448384813 Z" style="stroke:#F88400; stroke-opacity: 0.7818181818181819;fill:#00002F; fill-opacity: 1;"/>
<path d="M 465.6748987629738 434.14406200684715 L 448.87164695377714 442.23608159158744 L 461.31928265074555 446.5916977038156 Z" style="stroke:#F88400; stroke-opacity: 0.7818181818181819;fill:#00002F; fill-opacity: 1;"/>
<path d="M 484.32510123702525 434.14406200684743 L 465.6748987629738 434.14406200684715 L 474.99999999999943 443.469163243873 Z" style="stroke:#F88400; stroke-opacity: 0.7818181818181819;fill:#00002F; fill-opacity: 1;"/>
<path d="M 501.1283530462224 442.23608159158874 L 484.32510123702525 434.14406200684743 L 488.68071734925314 446.5916977038167 Z" style="stroke:#F88400; stroke-opacity: 0.7818181818181819;fill:#00002F; fill-opacity: 1;"/>
<path d="M 512.7565640913945 456.81739704020504 L 501.1283530462224 442.23608159158874 L 499.65180084450026 455.3408448384829 Z" style="stroke:#F88400; stroke-opacity: 0.7818181818181819;fill:#00002F; fill-opacity: 1;"/>
<path d="M 516.9066245643946 475 L 512.7565640913945 456.81739704020504 L 505.74029284799707 467.9837287566026 Z" style="stroke:#F88400; stroke-opacity: 0.7818181818181819;fill:#00002F; fill-opacity: 1;"/>
<path d="M 512.7565640913947 493.1826029597951 L 516.9066245643946 475 L 505.7402928479971 482.01627124339757 Z" style="stroke:#F88400; stroke-opacity: 0.7818181818181819;fill:#00002F; fill-opacity: 1;"/>
<path d="M 501.1283530462224 507.7639184084108 L 512.7565640913947 493.1826029597951 L 499.65180084450066 494.65915516151676 Z" style="stroke:#F88400; stroke-opacity: 0.7818181818181819;fill:#00002F; fill-opacity: 1;"/>
<path d="M 484.32510123702457 515.8559379931528 L 501.1283530462224 507.7639184084108 L 488.68071734925246 503.40830229618285 Z" style="stroke:#F88400; stroke-opacity: 0.7818181818181819;fill:#00002F; fill-opacity: 1;"/>
<path d="M 465.67489876297384 515.8559379931537 L 484.32510123702457 515.8559379931528 L 474.99999999999875 506.5308367561279 Z" style="stroke:#F88400; stroke-opacity: 0.7818181818181819;fill:#00002F; fill-opacity: 1;"/>
<path d="M 448.87164695377817 507.76391840841274 L 465.67489876297384 515.8559379931537 L 461.31928265074646 503.4083022961854 Z" style="stroke:#F88400; stroke-opacity: 0.7818181818181819;fill:#00002F; fill-opacity: 1;"/>
<path d="M 444.25970715200367 482.0162712433968 L 450.34819915550145 494.659155161518 L 453.6253951128132 485.2934672007085 Z" style="stroke:#F88400; stroke-opacity: 0.7818181818181819;fill:#000024; fill-opacity: 1;"/>
<path d="M 444.2597071520038 467.9837287566025 L 444.25970715200367 482.0162712433968 L 451.27597839540084 474.9999999999997 Z" style="stroke:#F88400; stroke-opacity: 0.7818181818181819;fill:#000024; fill-opacity: 1;"/>
<path d="M 450.3481991555002 455.3408448384813 L 444.2597071520038 467.9837287566025 L 453.62539511281255 464.70653279929013 Z" style="stroke:#F88400; stroke-opacity: 0.7818181818181819;fill:#000024; fill-opacity: 1;"/>
<path d="M 461.31928265074555 446.5916977038156 L 450.3481991555002 455.3408448384813 L 460.2083144704557 456.45181301877113 Z" style="stroke:#F88400; stroke-opacity: 0.7818181818181819;fill:#000024; fill-opacity: 1;"/>
<path d="M 474.99999999999943 443.469163243873 L 461.31928265074555 446.5916977038156 L 469.7209085553438 451.87078914847126 Z" style="stroke:#F88400; stroke-opacity: 0.7818181818181819;fill:#000024; fill-opacity: 1;"/>
<path d="M 488.68071734925314 446.5916977038167 L 474.99999999999943 443.469163243873 L 480.27909144465445 451.87078914847166 Z" style="stroke:#F88400; stroke-opacity: 0.7818181818181819;fill:#000024; fill-opacity: 1;"/>
<path d="M 499.65180084450026 455.3408448384829 L 488.68071734925314 446.5916977038167 L 489.79168552954366 456.45181301877335 Z" style="stroke:#F88400; stroke-opacity: 0.7818181818181819;fill:#000024; fill-opacity: 1;"/>
<path d="M 505.74029284799707 467.9837287566026 L 499.65180084450026 455.3408448384829 L 496.37460488718887 464.7065327992911 Z" style="stroke:#F88400; stroke-opacity: 0.7818181818181819;fill:#000024; fill-opacity: 1;"/>
<path d="M 505.7402928479971 482.01627124339757 L 505.74029284799707 467.9837287566026 L 498.7240216045996 475.00000000000017 Z" style="stroke:#F88400; stroke-opacity: 0.7818181818181819;fill:#000024; fill-opacity: 1;"/>
<path d="M 499.65180084450066 494.65915516151676 L 505.7402928479971 482.01627124339757 L 496.3746048871893 485.2934672007089 Z" style="stroke:#F88400; stroke-opacity: 0.7818181818181819;fill:#000024; fill-opacity: 1;"/>
<path d="M 488.68071734925246 503.40830229618285 L 499.65180084450066 494.65915516151676 L 489.7916855295435 493.54818698122574 Z" style="stroke:#F88400; stroke-opacity: 0.7818181818181819;fill:#000024; fill-opacity: 1;"/>
<path d="M 474.99999999999875 506.5308367561279 L 488.68071734925246 503.40830229618285 L 480.2790914446531 498.12921085152857 Z" style="stroke:#F88400; stroke-opacity: 0.7818181818181819;fill:#000024; fill-opacity: 1;"/>
<path d="M 461.31928265074646 503.4083022961854 L 474.99999999999875 506.5308367561279 L 469.72090855534384 498.1292108515305 Z" style="stroke:#F88400; stroke-opacity: 0.7818181818181819;fill:#000024; fill-opacity: 1;"/>
<path d="M 450.34819915550145 494.659155161518 L 461.31928265074646 503.4083022961854 L 460.20831447045765 493.5481869812292 Z" style="stroke:#F88400; stroke-opacity: 0.7818181818181819;fill:#000024; fill-opacity: 1;"/>
<path d="M 451.27597839540084 474.9999999999997 L 453.6253951128132 485.2934672007085 L 457.5974203544614 478.9720252416479 Z" style="stroke:#C86B00; stroke-opacity: 1;fill:#000000; fill-opacity: 1;"/>
<path d="M 453.62539511281255 464.70653279929013 L 451.27597839540084 474.9999999999997 L 457.5974203544615 471.02797475835075 Z" style="stroke:#C86B00; stroke-opacity: 1;fill:#000000; fill-opacity: 1;"/>
<path d="M 460.2083144704557 456.45181301877113 L 453.62539511281255 464.70653279929013 L 461.04421468189366 463.8706325878522 Z" style="stroke:#C86B00; stroke-opacity: 1;fill:#000000; fill-opacity: 1;"/>
<path d="M 469.7209085553438 451.87078914847126 L 460.2083144704557 456.45181301877113 L 467.2551234480497 458.91759812606523 Z" style="stroke:#C86B00; stroke-opacity: 1;fill:#000000; fill-opacity: 1;"/>
<path d="M 480.27909144465445 451.87078914847166 L 469.7209085553438 451.87078914847126 L 474.99999999999886 457.1498805931268 Z" style="stroke:#C86B00; stroke-opacity: 1;fill:#000000; fill-opacity: 1;"/>
<path d="M 489.79168552954366 456.45181301877335 L 480.27909144465445 451.87078914847166 L 482.7448765519482 458.9175981260671 Z" style="stroke:#C86B00; stroke-opacity: 1;fill:#000000; fill-opacity: 1;"/>
<path d="M 496.37460488718887 464.7065327992911 L 489.79168552954366 456.45181301877335 L 488.95578531810736 463.8706325878548 Z" style="stroke:#C86B00; stroke-opacity: 1;fill:#000000; fill-opacity: 1;"/>
<path d="M 498.7240216045996 475.00000000000017 L 496.37460488718887 464.7065327992911 L 492.40257964553973 471.027974758351 Z" style="stroke:#C86B00; stroke-opacity: 1;fill:#000000; fill-opacity: 1;"/>
<path d="M 496.3746048871893 485.2934672007089 L 498.7240216045996 475.00000000000017 L 492.40257964554013 478.97202524164936 Z" style="stroke:#C86B00; stroke-opacity: 1;fill:#000000; fill-opacity: 1;"/>
<path d="M 489.7916855295435 493.54818698122574 L 496.3746048871893 485.2934672007089 L 488.95578531810804 486.12936741214446 Z" style="stroke:#C86B00; stroke-opacity: 1;fill:#000000; fill-opacity: 1;"/>
<path d="M 480.2790914446531 498.12921085152857 L 489.7916855295435 493.54818698122574 L 482.7448765519469 491.082401873932 Z" style="stroke:#C86B00; stroke-opacity: 1;fill:#000000; fill-opacity: 1;"/>
<path d="M 469.72090855534384 498.1292108515305 L 480.2790914446531 498.12921085152857 L 474.9999999999975 492.8501194068749 Z" style="stroke:#C86B00; stroke-opacity: 1;fill:#000000; fill-opacity: 1;"/>
<path d="M 460.20831447045765 493.5481869812292 L 469.72090855534384 498.1292108515305 L 467.2551234480514 491.08240187393676 Z" style="stroke:#C86B00; stroke-opacity: 1;fill:#000000; fill-opacity: 1;"/>
<path d="M 453.6253951128132 485.2934672007085 L 460.20831447045765 493.5481869812292 L 461.0442146818958 486.1293674121466 Z" style="stroke:#C86B00; stroke-opacity: 1;fill:#000000; fill-opacity: 1;"/>
<path d="M 457.5974203544615 471.02797475835075 L 457.5974203544614 478.9720252416479 L 461.56944559611003 474.9999999999994 Z" style="stroke:#C86B00; stroke-opacity: 1;fill:#000000; fill-opacity: 1;"/>
<path d="M 461.04421468189366 463.8706325878522 L 457.5974203544615 471.02797475835075 L 462.8994886034269 469.1727008368175 Z" style="stroke:#C86B00; stroke-opacity: 1;fill:#000000; fill-opacity: 1;"/>
<path d="M 467.2551234480497 458.91759812606523 L 461.04421468189366 463.8706325878522 L 466.6261862958652 464.4995697400367 Z" style="stroke:#C86B00; stroke-opacity: 1;fill:#000000; fill-opacity: 1;"/>
<path d="M 474.99999999999886 457.1498805931268 L 467.2551234480497 458.91759812606523 L 472.01142049049355 461.9061776355706 Z" style="stroke:#C86B00; stroke-opacity: 1;fill:#000000; fill-opacity: 1;"/>
<path d="M 482.7448765519482 458.9175981260671 L 474.99999999999886 457.1498805931268 L 477.9885795095034 461.9061776355716 Z" style="stroke:#C86B00; stroke-opacity: 1;fill:#000000; fill-opacity: 1;"/>
<path d="M 488.95578531810736 463.8706325878548 L 482.7448765519482 458.9175981260671 L 483.37381370413397 464.4995697400405 Z" style="stroke:#C86B00; stroke-opacity: 1;fill:#000000; fill-opacity: 1;"/>
<path d="M 492.40257964553973 471.027974758351 L 488.95578531810736 463.8706325878548 L 487.1005113965754 469.1727008368191 Z" style="stroke:#C86B00; stroke-opacity: 1;fill:#000000; fill-opacity: 1;"/>
<path d="M 492.40257964554013 478.97202524164936 L 492.40257964553973 471.027974758351 L 488.43055440389077 475.00000000000034 Z" style="stroke:#C86B00; stroke-opacity: 1;fill:#000000; fill-opacity: 1;"/>
<path d="M 488.95578531810804 486.12936741214446 L 492.40257964554013 478.97202524164936 L 487.10051139657656 480.82729916318084 Z" style="stroke:#C86B00; stroke-opacity: 1;fill:#000000; fill-opacity: 1;"/>
<path d="M 482.7448765519469 491.082401873932 L 488.95578531810804 486.12936741214446 L 483.37381370413374 485.5004302599577 Z" style="stroke:#C86B00; stroke-opacity: 1;fill:#000000; fill-opacity: 1;"/>
<path d="M 474.9999999999975 492.8501194068749 L 482.7448765519469 491.082401873932 L 477.9885795095007 488.0938223644288 Z" style="stroke:#C86B00; stroke-opacity: 1;fill:#000000; fill-opacity: 1;"/>
<path d="M 467.2551234480514 491.08240187393676 L 474.9999999999975 492.8501194068749 L 472.0114204904935 488.0938223644328 Z" style="stroke:#C86B00; stroke-opacity: 1;fill:#000000; fill-opacity: 1;"/>
<path d="M 461.0442146818958 486.1293674121466 L 467.2551234480514 491.08240187393676 L 466.6261862958687 485.5004302599639 Z" style="stroke:#C86B00; stroke-opacity: 1;fill:#000000; fill-opacity: 1;"/>
<path d="M 457.5974203544614 478.9720252416479 L 461.0442146818958 486.1293674121466 L 462.899488603428 480.82729916318004 Z" style="stroke:#C86B00; stroke-opacity: 1;fill:#000000; fill-opacity: 1;"/>
<path d="M 462.8994886034269 469.1727008368175 L 461.56944559611003 474.9999999999994 L 465.1481166813594 472.7513719220668 Z" style="stroke:#C86B00; stroke-opacity: 1;fill:#000007; fill-opacity: 1;"/>
<path d="M 466.6261862958652 464.4995697400367 L 462.8994886034269 469.1727008368175 L 467.09940299803645 468.69948413464624 Z" style="stroke:#C86B00; stroke-opacity: 1;fill:#000007; fill-opacity: 1;"/>
<path d="M 472.01142049049355 461.9061776355706 L 466.6261862958652 464.4995697400367 L 470.61549944541247 465.89549078511783 Z" style="stroke:#C86B00; stroke-opacity: 1;fill:#000007; fill-opacity: 1;"/>
<path d="M 477.9885795095034 461.9061776355716 L 472.01142049049355 461.9061776355706 L 474.99999999999795 464.894757145076 Z" style="stroke:#C86B00; stroke-opacity: 1;fill:#000007; fill-opacity: 1;"/>
<path d="M 483.37381370413397 464.4995697400405 L 477.9885795095034 461.9061776355716 L 479.38450055458424 465.89549078512135 Z" style="stroke:#C86B00; stroke-opacity: 1;fill:#000007; fill-opacity: 1;"/>
<path d="M 487.1005113965754 469.1727008368191 L 483.37381370413397 464.4995697400405 L 482.9005970019654 468.6994841346505 Z" style="stroke:#C86B00; stroke-opacity: 1;fill:#000007; fill-opacity: 1;"/>
<path d="M 488.43055440389077 475.00000000000034 L 487.1005113965754 469.1727008368191 L 484.8518833186425 472.7513719220674 Z" style="stroke:#C86B00; stroke-opacity: 1;fill:#000007; fill-opacity: 1;"/>
<path d="M 487.10051139657656 480.82729916318084 L 488.43055440389077 475.00000000000034 L 484.8518833186434 477.24862807793346 Z" style="stroke:#C86B00; stroke-opacity: 1;fill:#000007; fill-opacity: 1;"/>
<path d="M 483.37381370413374 485.5004302599577 L 487.10051139657656 480.82729916318084 L 482.90059700196673 481.30051586534785 Z" style="stroke:#C86B00; stroke-opacity: 1;fill:#000007; fill-opacity: 1;"/>
<path d="M 477.9885795095007 488.0938223644288 L 483.37381370413374 485.5004302599577 L 479.3845005545817 484.10450921487666 Z" style="stroke:#C86B00; stroke-opacity: 1;fill:#000007; fill-opacity: 1;"/>
<path d="M 472.0114204904935 488.0938223644328 L 477.9885795095007 488.0938223644288 L 474.9999999999951 485.1052428549272 Z" style="stroke:#C86B00; stroke-opacity: 1;fill:#000007; fill-opacity: 1;"/>
<path d="M 466.6261862958687 485.5004302599639 L 472.0114204904935 488.0938223644328 L 470.6154994454156 484.1045092148859 Z" style="stroke:#C86B00; stroke-opacity: 1;fill:#000007; fill-opacity: 1;"/>
<path d="M 462.899488603428 480.82729916318004 L 466.6261862958687 485.5004302599639 L 467.09940299804026 481.3005158653516 Z" style="stroke:#C86B00; stroke-opacity: 1;fill:#000007; fill-opacity: 1;"/>
<path d="M 461.56944559611003 474.9999999999994 L 462.899488603428 480.82729916318004 L 465.14811668135934 477.24862807793073 Z" style="stroke:#C86B00; stroke-opacity: 1;fill:#000007; fill-opacity: 1;"/>
<path d="M 467.09940299803645 468.69948413464624 L 465.1481166813594 472.7513719220668 L 468.1497037334082 471.70107118669506 Z" style="stroke:#C86B00; stroke-opacity: 1;fill:#000000; fill-opacity: 1;"/>
<path d="M 470.61549944541247 465.89549078511783 L 467.09940299803645 468.69948413464624 L 470.25944789648867 469.0555356835701 Z" style="stroke:#C86B00; stroke-opacity: 1;fill:#000000; fill-opacity: 1;"/>
<path d="M 474.99999999999795 464.894757145076 L 470.61549944541247 465.89549078511783 L 473.3081165427261 467.5873742423896 Z" style="stroke:#C86B00; stroke-opacity: 1;fill:#000000; fill-opacity: 1;"/>
<path d="M 479.38450055458424 465.89549078512135 L 474.99999999999795 464.894757145076 L 476.69188345726843 467.5873742423919 Z" style="stroke:#C86B00; stroke-opacity: 1;fill:#000000; fill-opacity: 1;"/>
<path d="M 482.9005970019654 468.6994841346505 L 479.38450055458424 465.89549078512135 L 479.74055210351025 469.0555356835765 Z" style="stroke:#C86B00; stroke-opacity: 1;fill:#000000; fill-opacity: 1;"/>
<path d="M 484.8518833186425 472.7513719220674 L 482.9005970019654 468.6994841346505 L 481.8502962665955 471.70107118669745 Z" style="stroke:#C86B00; stroke-opacity: 1;fill:#000000; fill-opacity: 1;"/>
<path d="M 484.8518833186434 477.24862807793346 L 484.8518833186425 472.7513719220674 L 482.60325524070987 475.0000000000009 Z" style="stroke:#C86B00; stroke-opacity: 1;fill:#000000; fill-opacity: 1;"/>
<path d="M 482.90059700196673 481.30051586534785 L 484.8518833186434 477.24862807793346 L 481.85029626659787 478.29892881330227 Z" style="stroke:#C86B00; stroke-opacity: 1;fill:#000000; fill-opacity: 1;"/>
<path d="M 479.3845005545817 484.10450921487666 L 482.90059700196673 481.30051586534785 L 479.7405521035098 480.9444643164197 Z" style="stroke:#C86B00; stroke-opacity: 1;fill:#000000; fill-opacity: 1;"/>
<path d="M 474.9999999999951 485.1052428549272 L 479.3845005545817 484.10450921487666 L 476.69188345726315 482.4126257576087 Z" style="stroke:#C86B00; stroke-opacity: 1;fill:#000000; fill-opacity: 1;"/>
<path d="M 470.6154994454156 484.1045092148859 L 474.9999999999951 485.1052428549272 L 473.308116542726 482.4126257576168 Z" style="stroke:#C86B00; stroke-opacity: 1;fill:#000000; fill-opacity: 1;"/>
<path d="M 467.09940299804026 481.3005158653516 L 470.6154994454156 484.1045092148859 L 470.2594478964951 480.9444643164311 Z" style="stroke:#C86B00; stroke-opacity: 1;fill:#000000; fill-opacity: 1;"/>
<path d="M 465.14811668135934 477.24862807793073 L 467.09940299804026 481.3005158653516 L 468.14970373341026 478.29892881330073 Z" style="stroke:#C86B00; stroke-opacity: 1;fill:#000000; fill-opacity: 1;"/>
<path d="M 465.1481166813594 472.7513719220668 L 465.14811668135934 477.24862807793073 L 467.3967447592914 474.9999999999988 Z" style="stroke:#C86B00; stroke-opacity: 1;fill:#000000; fill-opacity: 1;"/>
<path d="M 470.25944789648867 469.0555356835701 L 468.1497037334082 471.70107118669506 L 470.5273435665109 471.4331755166728 Z" style="stroke:#C86B00; stroke-opacity: 1;fill:#1F2A00; fill-opacity: 1;"/>
<path d="M 473.3081165427261 467.5873742423896 L 470.25944789648867 469.0555356835701 L 472.5178629401977 469.8457892860986 Z" style="stroke:#C86B00; stroke-opacity: 1;fill:#1F2A00; fill-opacity: 1;"/>
<path d="M 476.69188345726843 467.5873742423919 L 473.3081165427261 467.5873742423896 L 474.99999999999613 469.2792576996619 Z" style="stroke:#C86B00; stroke-opacity: 1;fill:#1F2A00; fill-opacity: 1;"/>
<path d="M 479.74055210351025 469.0555356835765 L 476.69188345726843 467.5873742423919 L 477.482137059797 469.8457892861051 Z" style="stroke:#C86B00; stroke-opacity: 1;fill:#1F2A00; fill-opacity: 1;"/>
<path d="M 481.8502962665955 471.70107118669745 L 479.74055210351025 469.0555356835765 L 479.4726564334924 471.4331755166796 Z" style="stroke:#C86B00; stroke-opacity: 1;fill:#1F2A00; fill-opacity: 1;"/>
<path d="M 482.60325524070987 475.0000000000009 L 481.8502962665955 471.70107118669745 L 480.57731134700094 473.7270150804063 Z" style="stroke:#C86B00; stroke-opacity: 1;fill:#1F2A00; fill-opacity: 1;"/>
<path d="M 481.85029626659787 478.29892881330227 L 482.60325524070987 475.0000000000009 L 480.5773113470032 476.2729849195956 Z" style="stroke:#C86B00; stroke-opacity: 1;fill:#1F2A00; fill-opacity: 1;"/>
<path d="M 479.7405521035098 480.9444643164197 L 481.85029626659787 478.29892881330227 L 479.4726564334951 478.56682448331696 Z" style="stroke:#C86B00; stroke-opacity: 1;fill:#1F2A00; fill-opacity: 1;"/>
<path d="M 476.69188345726315 482.4126257576087 L 479.7405521035098 480.9444643164197 L 477.482137059792 480.15421071389085 Z" style="stroke:#C86B00; stroke-opacity: 1;fill:#1F2A00; fill-opacity: 1;"/>
<path d="M 473.308116542726 482.4126257576168 L 476.69188345726315 482.4126257576087 L 474.99999999999045 480.72074230034417 Z" style="stroke:#C86B00; stroke-opacity: 1;fill:#1F2A00; fill-opacity: 1;"/>
<path d="M 470.2594478964951 480.9444643164311 L 473.308116542726 482.4126257576168 L 472.51786294020343 480.15421071390847 Z" style="stroke:#C86B00; stroke-opacity: 1;fill:#1F2A00; fill-opacity: 1;"/>
<path d="M 468.14970373341026 478.29892881330073 L 470.2594478964951 480.9444643164311 L 470.52734356651786 478.56682448332356 Z" style="stroke:#C86B00; stroke-opacity: 1;fill:#1F2A00; fill-opacity: 1;"/>
<path d="M 467.3967447592914 474.9999999999988 L 468.14970373341026 478.29892881330073 L 469.4226886530018 476.27298491959033 Z" style="stroke:#C86B00; stroke-opacity: 1;fill:#1F2A00; fill-opacity: 1;"/>
<path d="M 468.1497037334082 471.70107118669506 L 467.3967447592914 474.9999999999988 L 469.42268865300167 473.72701508040535 Z" style="stroke:#C86B00; stroke-opacity: 1;fill:#1F2A00; fill-opacity: 1;"/>
<path d="M 472.5178629401977 469.8457892860986 L 470.5273435665109 471.4331755166728 L 472.3162963686414 471.6347420882291 Z" style="stroke:#C86B00; stroke-opacity: 1;fill:#1F2A00; fill-opacity: 1;"/>
<path d="M 474.99999999999613 469.2792576996619 L 472.5178629401977 469.8457892860986 L 474.04219726331524 470.80359202277947 Z" style="stroke:#C86B00; stroke-opacity: 1;fill:#1F2A00; fill-opacity: 1;"/>
<path d="M 477.482137059797 469.8457892861051 L 474.99999999999613 469.2792576996619 L 475.9578027366749 470.80359202278396 Z" style="stroke:#C86B00; stroke-opacity: 1;fill:#1F2A00; fill-opacity: 1;"/>
<path d="M 479.4726564334924 471.4331755166796 L 477.482137059797 469.8457892861051 L 477.6837036313574 471.63474208824005 Z" style="stroke:#C86B00; stroke-opacity: 1;fill:#1F2A00; fill-opacity: 1;"/>
<path d="M 480.57731134700094 473.7270150804063 L 479.4726564334924 471.4331755166796 L 478.8780641083833 473.1324227552973 Z" style="stroke:#C86B00; stroke-opacity: 1;fill:#1F2A00; fill-opacity: 1;"/>
<path d="M 480.5773113470032 476.2729849195956 L 480.57731134700094 473.7270150804063 L 479.30432642740743 475.0000000000021 Z" style="stroke:#C86B00; stroke-opacity: 1;fill:#1F2A00; fill-opacity: 1;"/>
<path d="M 479.4726564334951 478.56682448331696 L 480.5773113470032 476.2729849195956 L 478.87806410838846 476.86757724470226 Z" style="stroke:#C86B00; stroke-opacity: 1;fill:#1F2A00; fill-opacity: 1;"/>
<path d="M 477.482137059792 480.15421071389085 L 479.4726564334951 478.56682448331696 L 477.6837036313566 478.36525791175234 Z" style="stroke:#C86B00; stroke-opacity: 1;fill:#1F2A00; fill-opacity: 1;"/>
<path d="M 474.99999999999045 480.72074230034417 L 477.482137059792 480.15421071389085 L 475.9578027366645 479.19640797721667 Z" style="stroke:#C86B00; stroke-opacity: 1;fill:#1F2A00; fill-opacity: 1;"/>
<path d="M 472.51786294020343 480.15421071390847 L 474.99999999999045 480.72074230034417 L 474.04219726331485 479.19640797723287 Z" style="stroke:#C86B00; stroke-opacity: 1;fill:#1F2A00; fill-opacity: 1;"/>
<path d="M 470.52734356651786 478.56682448332356 L 472.51786294020343 480.15421071390847 L 472.3162963686531 478.3652579117732 Z" style="stroke:#C86B00; stroke-opacity: 1;fill:#1F2A00; fill-opacity: 1;"/>
<path d="M 469.4226886530018 476.27298491959033 L 470.52734356651786 478.56682448332356 L 471.12193589162644 476.86757724469896 Z" style="stroke:#C86B00; stroke-opacity: 1;fill:#1F2A00; fill-opacity: 1;"/>
<path d="M 469.42268865300167 473.72701508040535 L 469.4226886530018 476.27298491959033 L 470.6956735725942 474.9999999999978 Z" style="stroke:#C86B00; stroke-opacity: 1;fill:#1F2A00; fill-opacity: 1;"/>
<path d="M 470.5273435665109 471.4331755166728 L 469.42268865300167 473.72701508040535 L 471.12193589162257 473.13242275529365 Z" style="stroke:#C86B00; stroke-opacity: 1;fill:#1F2A00; fill-opacity: 1;"/>
<path d="M 474.04219726331524 470.80359202277947 L 472.3162963686414 471.6347420882291 L 473.59482184870313 472.0821175028412 Z" style="stroke:#C86B00; stroke-opacity: 1;fill:#1F2A00; fill-opacity: 1;"/>
<path d="M 475.9578027366749 470.80359202278396 L 474.04219726331524 470.80359202277947 L 474.99999999999284 471.76139475946155 Z" style="stroke:#C86B00; stroke-opacity: 1;fill:#1F2A00; fill-opacity: 1;"/>
<path d="M 477.6837036313574 471.63474208824005 L 475.9578027366749 470.80359202278396 L 476.4051781512881 472.08211750285324 Z" style="stroke:#C86B00; stroke-opacity: 1;fill:#1F2A00; fill-opacity: 1;"/>
<path d="M 478.8780641083833 473.1324227552973 L 477.6837036313574 471.63474208824005 L 477.5320435363417 472.9807626602816 Z" style="stroke:#C86B00; stroke-opacity: 1;fill:#1F2A00; fill-opacity: 1;"/>
<path d="M 479.30432642740743 475.0000000000021 L 478.8780641083833 473.1324227552973 L 478.157406645543 474.2793425371617 Z" style="stroke:#C86B00; stroke-opacity: 1;fill:#1F2A00; fill-opacity: 1;"/>
<path d="M 478.87806410838846 476.86757724470226 L 479.30432642740743 475.0000000000021 L 478.1574066455479 475.72065746284267 Z" style="stroke:#C86B00; stroke-opacity: 1;fill:#1F2A00; fill-opacity: 1;"/>
<path d="M 477.6837036313566 478.36525791175234 L 478.87806410838846 476.86757724470226 L 477.5320435363475 477.01923733971137 Z" style="stroke:#C86B00; stroke-opacity: 1;fill:#1F2A00; fill-opacity: 1;"/>
<path d="M 475.9578027366645 479.19640797721667 L 477.6837036313566 478.36525791175234 L 476.4051781512784 477.9178824971384 Z" style="stroke:#C86B00; stroke-opacity: 1;fill:#1F2A00; fill-opacity: 1;"/>
<path d="M 474.04219726331485 479.19640797723287 L 475.9578027366645 479.19640797721667 L 474.9999999999816 478.23860524054993 Z" style="stroke:#C86B00; stroke-opacity: 1;fill:#1F2A00; fill-opacity: 1;"/>
<path d="M 472.3162963686531 478.3652579117732 L 474.04219726331485 479.19640797723287 L 473.5948218487139 477.9178824971722 Z" style="stroke:#C86B00; stroke-opacity: 1;fill:#1F2A00; fill-opacity: 1;"/>
<path d="M 471.12193589162644 476.86757724469896 L 472.3162963686531 478.3652579117732 L 472.46795646367696 477.01923733972274 Z" style="stroke:#C86B00; stroke-opacity: 1;fill:#1F2A00; fill-opacity: 1;"/>
<path d="M 470.6956735725942 474.9999999999978 L 471.12193589162644 476.86757724469896 L 471.84259335446086 475.72065746283226 Z" style="stroke:#C86B00; stroke-opacity: 1;fill:#1F2A00; fill-opacity: 1;"/>
<path d="M 471.12193589162257 473.13242275529365 L 470.6956735725942 474.9999999999978 L 471.8425933544604 474.2793425371599 Z" style="stroke:#C86B00; stroke-opacity: 1;fill:#1F2A00; fill-opacity: 1;"/>
<path d="M 472.3162963686414 471.6347420882291 L 471.12193589162257 473.13242275529365 L 472.4679564636642 472.9807626602708 Z" style="stroke:#C86B00; stroke-opacity: 1;fill:#1F2A00; fill-opacity: 1;"/>
<path d="M 474.99999999999284 471.76139475946155 L 473.59482184870313 472.0821175028412 L 474.4577722960378 472.6243452067962 Z" style="stroke:#C86B00; stroke-opacity: 1;fill:#1F2A00; fill-opacity: 1;"/>
<path d="M 476.4051781512881 472.08211750285324 L 474.99999999999284 471.76139475946155 L 475.54222770394466 472.624345206805 Z" style="stroke:#C86B00; stroke-opacity: 1;fill:#1F2A00; fill-opacity: 1;"/>
<path d="M 477.5320435363417 472.9807626602816 L 476.4051781512881 472.08211750285324 L 476.5192882651007 473.09487277409426 Z" style="stroke:#C86B00; stroke-opacity: 1;fill:#1F2A00; fill-opacity: 1;"/>
<path d="M 478.157406645543 474.2793425371617 L 477.5320435363417 472.9807626602816 L 477.1954351525023 473.9427341533223 Z" style="stroke:#C86B00; stroke-opacity: 1;fill:#1F2A00; fill-opacity: 1;"/>
<path d="M 478.1574066455479 475.72065746284267 L 478.157406645543 474.2793425371617 L 477.43674918270494 475.0000000000046 Z" style="stroke:#C86B00; stroke-opacity: 1;fill:#1F2A00; fill-opacity: 1;"/>
<path d="M 477.5320435363475 477.01923733971137 L 478.1574066455479 475.72065746284267 L 477.19543515251337 476.05726584667684 Z" style="stroke:#C86B00; stroke-opacity: 1;fill:#1F2A00; fill-opacity: 1;"/>
<path d="M 476.4051781512784 477.9178824971384 L 477.5320435363475 477.01923733971137 L 476.5192882650994 476.90512722589034 Z" style="stroke:#C86B00; stroke-opacity: 1;fill:#1F2A00; fill-opacity: 1;"/>
<path d="M 474.9999999999816 478.23860524054993 L 476.4051781512784 477.9178824971384 L 475.5422277039242 477.3756547931958 Z" style="stroke:#C86B00; stroke-opacity: 1;fill:#1F2A00; fill-opacity: 1;"/>
<path d="M 473.5948218487139 477.9178824971722 L 474.9999999999816 478.23860524054993 L 474.45777229603664 477.37565479322717 Z" style="stroke:#C86B00; stroke-opacity: 1;fill:#1F2A00; fill-opacity: 1;"/>
<path d="M 472.46795646367696 477.01923733972274 L 473.5948218487139 477.9178824971722 L 473.48071173492013 476.905127225929 Z" style="stroke:#C86B00; stroke-opacity: 1;fill:#1F2A00; fill-opacity: 1;"/>
<path d="M 471.84259335446086 475.72065746283226 L 472.46795646367696 477.01923733972274 L 472.80456484751414 476.05726584666945 Z" style="stroke:#C86B00; stroke-opacity: 1;fill:#1F2A00; fill-opacity: 1;"/>
<path d="M 471.8425933544604 474.2793425371599 L 471.84259335446086 475.72065746283226 L 472.5632508172968 474.99999999999585 Z" style="stroke:#C86B00; stroke-opacity: 1;fill:#1F2A00; fill-opacity: 1;"/>
<path d="M 472.4679564636642 472.9807626602708 L 471.8425933544604 474.2793425371599 L 472.80456484750687 473.94273415331725 Z" style="stroke:#C86B00; stroke-opacity: 1;fill:#1F2A00; fill-opacity: 1;"/>
<path d="M 473.59482184870313 472.0821175028412 L 472.4679564636642 472.9807626602708 L 473.4807117348984 473.0948727740754 Z" style="stroke:#C86B00; stroke-opacity: 1;fill:#1F2A00; fill-opacity: 1;"/>
<path d="M 475.54222770394466 472.624345206805 L 474.4577722960378 472.6243452067962 L 474.99999999998687 473.16657291075404 Z" style="stroke:#C86B00; stroke-opacity: 1;fill:#1F2A00; fill-opacity: 1;"/>
<path d="M 476.5192882651007 473.09487277409426 L 475.54222770394466 472.624345206805 L 475.7954942008781 473.34813927102766 Z" style="stroke:#C86B00; stroke-opacity: 1;fill:#1F2A00; fill-opacity: 1;"/>
<path d="M 477.1954351525023 473.9427341533223 L 476.5192882651007 473.09487277409426 L 476.4334310191874 473.85687690740906 Z" style="stroke:#C86B00; stroke-opacity: 1;fill:#1F2A00; fill-opacity: 1;"/>
<path d="M 477.43674918270494 475.0000000000046 L 477.1954351525023 473.9427341533223 L 476.7874592442625 474.59202409176476 Z" style="stroke:#C86B00; stroke-opacity: 1;fill:#1F2A00; fill-opacity: 1;"/>
<path d="M 477.19543515251337 476.05726584667684 L 477.43674918270494 475.0000000000046 L 476.787459244273 475.40797590824496 Z" style="stroke:#C86B00; stroke-opacity: 1;fill:#1F2A00; fill-opacity: 1;"/>
<path d="M 476.5192882650994 476.90512722589034 L 477.19543515251337 476.05726584667684 L 476.4334310191996 476.1431230925766 Z" style="stroke:#C86B00; stroke-opacity: 1;fill:#1F2A00; fill-opacity: 1;"/>
<path d="M 475.5422277039242 477.3756547931958 L 476.5192882650994 476.90512722589034 L 475.7954942008591 476.65186072895546 Z" style="stroke:#C86B00; stroke-opacity: 1;fill:#1F2A00; fill-opacity: 1;"/>
<path d="M 474.45777229603664 477.37565479322717 L 475.5422277039242 477.3756547931958 L 474.99999999996476 476.83342708926773 Z" style="stroke:#C86B00; stroke-opacity: 1;fill:#1F2A00; fill-opacity: 1;"/>
<path d="M 473.48071173492013 476.905127225929 L 474.45777229603664 477.37565479322717 L 474.20450579912745 476.65186072901986 Z" style="stroke:#C86B00; stroke-opacity: 1;fill:#1F2A00; fill-opacity: 1;"/>
<path d="M 472.80456484751414 476.05726584666945 L 473.48071173492013 476.905127225929 L 473.5665689808469 476.14312309259617 Z" style="stroke:#C86B00; stroke-opacity: 1;fill:#1F2A00; fill-opacity: 1;"/>
<path d="M 472.5632508172968 474.99999999999585 L 472.80456484751414 476.05726584666945 L 473.21254075574234 475.407975908224 Z" style="stroke:#C86B00; stroke-opacity: 1;fill:#1F2A00; fill-opacity: 1;"/>
<path d="M 472.80456484750687 473.94273415331725 L 472.5632508172968 474.99999999999585 L 473.2125407557411 474.5920240917616 Z" style="stroke:#C86B00; stroke-opacity: 1;fill:#1F2A00; fill-opacity: 1;"/>
<path d="M 473.4807117348984 473.0948727740754 L 472.80456484750687 473.94273415331725 L 473.56656898082355 473.8568769073921 Z" style="stroke:#C86B00; stroke-opacity: 1;fill:#1F2A00; fill-opacity: 1;"/>
<path d="M 474.4577722960378 472.6243452067962 L 473.4807117348984 473.0948727740754 L 474.2045057991077 473.3481392710055 Z" style="stroke:#C86B00; stroke-opacity: 1;fill:#1F2A00; fill-opacity: 1;"/>
<path d="M 475.7954942008781 473.34813927102766 L 474.99999999998687 473.16657291075404 L 475.30696392029574 473.6551031913365 Z" style="stroke:#C86B00; stroke-opacity: 1;fill:#1F2A00; fill-opacity: 1;"/>
<path d="M 476.4334310191874 473.85687690740906 L 475.7954942008781 473.34813927102766 L 475.8600937918421 473.921476498373 Z" style="stroke:#C86B00; stroke-opacity: 1;fill:#1F2A00; fill-opacity: 1;"/>
<path d="M 476.7874592442625 474.59202409176476 L 476.4334310191874 473.85687690740906 L 476.24287153954714 474.40146461212447 Z" style="stroke:#C86B00; stroke-opacity: 1;fill:#1F2A00; fill-opacity: 1;"/>
<path d="M 476.787459244273 475.40797590824496 L 476.7874592442625 474.59202409176476 L 476.37948333602765 475.0000000000101 Z" style="stroke:#C86B00; stroke-opacity: 1;fill:#1F2A00; fill-opacity: 1;"/>
<path d="M 476.4334310191996 476.1431230925766 L 476.787459244273 475.40797590824496 L 476.24287153957044 475.59853538787405 Z" style="stroke:#C86B00; stroke-opacity: 1;fill:#1F2A00; fill-opacity: 1;"/>
<path d="M 475.7954942008591 476.65186072895546 L 476.4334310191996 476.1431230925766 L 475.86009379184 476.0785235015958 Z" style="stroke:#C86B00; stroke-opacity: 1;fill:#1F2A00; fill-opacity: 1;"/>
<path d="M 474.99999999996476 476.83342708926773 L 475.7954942008591 476.65186072895546 L 475.30696392025584 476.34489680866443 Z" style="stroke:#C86B00; stroke-opacity: 1;fill:#1F2A00; fill-opacity: 1;"/>
<path d="M 474.20450579912745 476.65186072901986 L 474.99999999996476 476.83342708926773 L 474.69303607967004 476.34489680872514 Z" style="stroke:#C86B00; stroke-opacity: 1;fill:#1F2A00; fill-opacity: 1;"/>
<path d="M 473.5665689808469 476.14312309259617 L 474.20450579912745 476.65186072901986 L 474.139906208199 476.07852350166775 Z" style="stroke:#C86B00; stroke-opacity: 1;fill:#1F2A00; fill-opacity: 1;"/>
<path d="M 473.21254075574234 475.407975908224 L 473.5665689808469 476.14312309259617 L 473.7571284604807 475.5985353878578 Z" style="stroke:#C86B00; stroke-opacity: 1;fill:#1F2A00; fill-opacity: 1;"/>
<path d="M 473.2125407557411 474.5920240917616 L 473.21254075574234 475.407975908224 L 473.6205166639729 474.99999999999216 Z" style="stroke:#C86B00; stroke-opacity: 1;fill:#1F2A00; fill-opacity: 1;"/>
<path d="M 473.56656898082355 473.8568769073921 L 473.2125407557411 474.5920240917616 L 473.757128460467 474.4014646121181 Z" style="stroke:#C86B00; stroke-opacity: 1;fill:#1F2A00; fill-opacity: 1;"/>
<path d="M 474.2045057991077 473.3481392710055 L 473.56656898082355 473.8568769073921 L 474.13990620815895 473.9214764983409 Z" style="stroke:#C86B00; stroke-opacity: 1;fill:#1F2A00; fill-opacity: 1;"/>
<path d="M 474.99999999998687 473.16657291075404 L 474.2045057991077 473.3481392710055 L 474.693036079673 473.6551031913193 Z" style="stroke:#C86B00; stroke-opacity: 1;fill:#1F2A00; fill-opacity: 1;"/>
</g>
</svg>