<?xml version="1.0"?><!DOCTYPE svg PUBLIC "-//W3C//DTD SVG 1.1//EN" "http://www.w3.org/Graphics/SVG/1.1/DTD/svg11.dtd"><svg xmlns="http://www.w3.org/2000/svg" width="950" height="950">
<title>PatternSixtyNine</title>
<desc>
Generated using the following configuration:

@implementation NewPattern : PatternSixtyNine
+ (CPDict) defaultConfig
{
 return [CPDictionary dictionaryWithObjectsAndKeys:[[GRColor alloc] initWithGradientColors:[] baseColor:[CPColor colorWith8BitRed:123 green:122 blue:192 alpha:1]], "background_color", 0, "background_color_direction", 11, "number_of_points", 0, "rotation", 1, "recurse_depth", 2.96, "factor_larger", [GRPoint pointWithX:475 Y:475], "center_point", 160, "radius", NO, "show_shapes", [[CPColor colorWith8BitRed:184 green:44 blue:58 alpha:0],[CPColor colorWith8BitRed:85 green:79 blue:80 alpha:0.3],[CPColor colorWith8BitRed:247 green:180 blue:195 alpha:0],[CPColor colorWith8BitRed:186 green:162 blue:207 alpha:1],[CPColor colorWith8BitRed:165 green:74 blue:252 alpha:1],[CPColor colorWith8BitRed:41 green:143 blue:248 alpha:1]], "stroke_colors", [[CPColor colorWith8BitRed:184 green:44 blue:58 alpha:0],[CPColor colorWith8BitRed:85 green:79 blue:80 alpha:0.05454545454545454],[CPColor colorWith8BitRed:247 green:180 blue:195 alpha:0],[CPColor colorWith8BitRed:240 green:31 blue:50 alpha:0],[CPColor colorWith8BitRed:186 green:162 blue:207 alpha:0.3],[CPColor colorWith8BitRed:165 green:74 blue:252 alpha:0.37272727272727274]], "fill_colors"];
}
@end

</desc>
  <defs>
    <linearGradient id="grad1" x1="0%" y1="0%" x2="100%" y2="0%">
<stop offset="100%" style="stop-color:#7B7AC0;stop-opacity:1;" />
    </linearGradient>
  </defs>
<rect id="background" width="100%" height="100%" fill="url(#grad1)"/>
<g id="rotatelayer" transform="rotate(0, 475, 475)">
<path d="M 1033.4176731488474 731.0474911469711 Z" style="stroke:#B82C3A; stroke-opacity: 0;fill:#B82C3A; fill-opacity: 0;"/>
<circle cx="873.4176731488474" cy="731.0474911469711" r="160" style="stroke:#B82C3A; stroke-opacity: 0;fill:#B82C3A; fill-opacity: 0;"/>
<path d="M 1507.0176731488473 731.0474911469711 Z" style="stroke:#554F50; stroke-opacity: 0.3;fill:#554F50; fill-opacity: 0.05454545454545454;"/>
<circle cx="1347.0176731488473" cy="731.0474911469711" r="160" style="stroke:#554F50; stroke-opacity: 0.3;fill:#554F50; fill-opacity: 0.05454545454545454;"/>
<path d="M 1431.8353462976947 475.0000000000003 Z" style="stroke:#554F50; stroke-opacity: 0.3;fill:#554F50; fill-opacity: 0.05454545454545454;"/>
<circle cx="1271.8353462976947" cy="475.00000000000034" r="160" style="stroke:#554F50; stroke-opacity: 0.3;fill:#554F50; fill-opacity: 0.05454545454545454;"/>
<path d="M 1230.1582233065408 300.2457781470711 Z" style="stroke:#554F50; stroke-opacity: 0.3;fill:#554F50; fill-opacity: 0.05454545454545454;"/>
<circle cx="1070.1582233065408" cy="300.2457781470712" r="160" style="stroke:#554F50; stroke-opacity: 0.3;fill:#554F50; fill-opacity: 0.05454545454545454;"/>
<path d="M 966.0173657426194 262.2680562721614 Z" style="stroke:#554F50; stroke-opacity: 0.3;fill:#554F50; fill-opacity: 0.05454545454545454;"/>
<circle cx="806.0173657426194" cy="262.26805627216146" r="160" style="stroke:#554F50; stroke-opacity: 0.3;fill:#554F50; fill-opacity: 0.05454545454545454;"/>
<path d="M 723.2756295523604 373.12449273279435 Z" style="stroke:#554F50; stroke-opacity: 0.3;fill:#554F50; fill-opacity: 0.05454545454545454;"/>
<circle cx="563.2756295523604" cy="373.1244927327944" r="160" style="stroke:#554F50; stroke-opacity: 0.3;fill:#554F50; fill-opacity: 0.05454545454545454;"/>
<path d="M 579.0018008450213 597.61895222687 Z" style="stroke:#554F50; stroke-opacity: 0.3;fill:#554F50; fill-opacity: 0.05454545454545454;"/>
<circle cx="419.0018008450213" cy="597.61895222687" r="160" style="stroke:#554F50; stroke-opacity: 0.3;fill:#554F50; fill-opacity: 0.05454545454545454;"/>
<path d="M 579.0018008450213 864.4760300670722 Z" style="stroke:#554F50; stroke-opacity: 0.3;fill:#554F50; fill-opacity: 0.05454545454545454;"/>
<circle cx="419.0018008450213" cy="864.4760300670722" r="160" style="stroke:#554F50; stroke-opacity: 0.3;fill:#554F50; fill-opacity: 0.05454545454545454;"/>
<path d="M 723.2756295523604 1088.9704895611478 Z" style="stroke:#554F50; stroke-opacity: 0.3;fill:#554F50; fill-opacity: 0.05454545454545454;"/>
<circle cx="563.2756295523604" cy="1088.9704895611478" r="160" style="stroke:#554F50; stroke-opacity: 0.3;fill:#554F50; fill-opacity: 0.05454545454545454;"/>
<path d="M 966.0173657426197 1199.8269260217808 Z" style="stroke:#554F50; stroke-opacity: 0.3;fill:#554F50; fill-opacity: 0.05454545454545454;"/>
<circle cx="806.0173657426197" cy="1199.8269260217808" r="160" style="stroke:#554F50; stroke-opacity: 0.3;fill:#554F50; fill-opacity: 0.05454545454545454;"/>
<path d="M 1230.1582233065408 1161.849204146871 Z" style="stroke:#554F50; stroke-opacity: 0.3;fill:#554F50; fill-opacity: 0.05454545454545454;"/>
<circle cx="1070.1582233065408" cy="1161.849204146871" r="160" style="stroke:#554F50; stroke-opacity: 0.3;fill:#554F50; fill-opacity: 0.05454545454545454;"/>
<path d="M 1431.8353462976947 987.0949822939422 Z" style="stroke:#554F50; stroke-opacity: 0.3;fill:#554F50; fill-opacity: 0.05454545454545454;"/>
<circle cx="1271.8353462976947" cy="987.0949822939422" r="160" style="stroke:#554F50; stroke-opacity: 0.3;fill:#554F50; fill-opacity: 0.05454545454545454;"/>
<path d="M 873.4176731488474 731.0474911469711 L 1271.8353462976947 987.0949822939422 L 1070.1582233065408 1161.849204146871 Z" style="stroke:#F7B4C3; stroke-opacity: 0;fill:#F7B4C3; fill-opacity: 0;"/>
<path d="M 873.4176731488474 731.0474911469711 L 1070.1582233065408 1161.849204146871 L 806.0173657426197 1199.8269260217808 Z" style="stroke:#F7B4C3; stroke-opacity: 0;fill:#F7B4C3; fill-opacity: 0;"/>
<path d="M 873.4176731488474 731.0474911469711 L 806.0173657426197 1199.8269260217808 L 563.2756295523604 1088.9704895611478 Z" style="stroke:#F7B4C3; stroke-opacity: 0;fill:#F7B4C3; fill-opacity: 0;"/>
<path d="M 873.4176731488474 731.0474911469711 L 563.2756295523604 1088.9704895611478 L 419.0018008450213 864.4760300670722 Z" style="stroke:#F7B4C3; stroke-opacity: 0;fill:#F7B4C3; fill-opacity: 0;"/>
<path d="M 873.4176731488474 731.0474911469711 L 419.0018008450213 864.4760300670722 L 419.0018008450213 597.61895222687 Z" style="stroke:#F7B4C3; stroke-opacity: 0;fill:#F7B4C3; fill-opacity: 0;"/>
<path d="M 873.4176731488474 731.0474911469711 L 419.0018008450213 597.61895222687 L 563.2756295523604 373.1244927327944 Z" style="stroke:#F7B4C3; stroke-opacity: 0;fill:#F7B4C3; fill-opacity: 0;"/>
<path d="M 873.4176731488474 731.0474911469711 L 563.2756295523604 373.1244927327944 L 806.0173657426194 262.26805627216146 Z" style="stroke:#F7B4C3; stroke-opacity: 0;fill:#F7B4C3; fill-opacity: 0;"/>
<path d="M 873.4176731488474 731.0474911469711 L 806.0173657426194 262.26805627216146 L 1070.1582233065408 300.2457781470712 Z" style="stroke:#F7B4C3; stroke-opacity: 0;fill:#F7B4C3; fill-opacity: 0;"/>
<path d="M 873.4176731488474 731.0474911469711 L 1070.1582233065408 300.2457781470712 L 1271.8353462976947 475.00000000000034 Z" style="stroke:#F7B4C3; stroke-opacity: 0;fill:#F7B4C3; fill-opacity: 0;"/>
<path d="M 873.4176731488474 731.0474911469711 L 1271.8353462976947 475.00000000000034 L 1347.0176731488473 731.0474911469711 Z" style="stroke:#F7B4C3; stroke-opacity: 0;fill:#F7B4C3; fill-opacity: 0;"/>
<path d="M 873.4176731488474 731.0474911469711 L 1347.0176731488473 731.0474911469711 L 1271.8353462976947 987.0949822939422 Z" style="stroke:#F7B4C3; stroke-opacity: 0;fill:#F7B4C3; fill-opacity: 0;"/>
<path d="M 1072.626509723271 859.0712367204567 C 1071.803747584361 959.9972258625949 1071.803747584361 959.9972258625949 971.787948227694 946.4483476469211 C 916.531087399336 1030.9078737718742 916.531087399336 1030.9078737718742 839.7175194457336 965.4372085843759 C 747.5702228146091 1006.6149689099666 747.5702228146091 1006.6149689099666 718.3466513506038 910.0089903540593 C 618.5650345154098 894.8313369250636 618.5650345154098 894.8313369250636 646.2097369969345 797.7617606070216 C 570.4737582796299 731.0474911469711 570.4737582796299 731.0474911469711 646.2097369969345 664.3332216869204 C 618.5650345154096 567.2636453688785 618.5650345154096 567.2636453688785 718.3466513506039 552.0859919398828 C 747.570222814609 455.4800133839757 747.570222814609 455.4800133839757 839.7175194457334 496.65777370956624 C 916.5310873993359 431.1871085220678 916.5310873993359 431.1871085220678 971.7879482276942 515.6466346470211 C 1071.803747584361 502.09775643134753 1071.803747584361 502.09775643134753 1072.626509723271 603.0237455734856 C 1164.0902308651296 645.6983274313143 1164.0902308651296 645.6983274313143 1110.217673148847 731.0474911469711 C 1164.0902308651296 816.3966548626281 1164.0902308651296 816.3966548626281 1072.6265097232708 859.0712367204566 M 1110.217673148847 731.047491146971 Z" style="stroke:#298FF8; stroke-opacity: 1;fill:#A54AFC; fill-opacity: 0.37272727272727274;"/>
<path d="M 831.7405501576934 905.8017129998999 Z" style="stroke:#B82C3A; stroke-opacity: 0;fill:#B82C3A; fill-opacity: 0;"/>
<circle cx="671.7405501576934" cy="905.8017129998999" r="160" style="stroke:#B82C3A; stroke-opacity: 0;fill:#B82C3A; fill-opacity: 0;"/>
<path d="M 1305.3405501576935 905.8017129998999 Z" style="stroke:#554F50; stroke-opacity: 0.3;fill:#554F50; fill-opacity: 0.05454545454545454;"/>
<circle cx="1145.3405501576935" cy="905.8017129998999" r="160" style="stroke:#554F50; stroke-opacity: 0.3;fill:#554F50; fill-opacity: 0.05454545454545454;"/>
<path d="M 1230.1582233065408 649.7542218529292 Z" style="stroke:#554F50; stroke-opacity: 0.3;fill:#554F50; fill-opacity: 0.05454545454545454;"/>
<circle cx="1070.1582233065408" cy="649.7542218529292" r="160" style="stroke:#554F50; stroke-opacity: 0.3;fill:#554F50; fill-opacity: 0.05454545454545454;"/>
<path d="M 1028.4811003153868 474.99999999999994 Z" style="stroke:#554F50; stroke-opacity: 0.3;fill:#554F50; fill-opacity: 0.05454545454545454;"/>
<circle cx="868.4811003153868" cy="475" r="160" style="stroke:#554F50; stroke-opacity: 0.3;fill:#554F50; fill-opacity: 0.05454545454545454;"/>
<path d="M 764.3402427514654 437.0222781250902 Z" style="stroke:#554F50; stroke-opacity: 0.3;fill:#554F50; fill-opacity: 0.05454545454545454;"/>
<circle cx="604.3402427514654" cy="437.0222781250903" r="160" style="stroke:#554F50; stroke-opacity: 0.3;fill:#554F50; fill-opacity: 0.05454545454545454;"/>
<path d="M 521.5985065612065 547.8787145857232 Z" style="stroke:#554F50; stroke-opacity: 0.3;fill:#554F50; fill-opacity: 0.05454545454545454;"/>
<circle cx="361.5985065612064" cy="547.8787145857232" r="160" style="stroke:#554F50; stroke-opacity: 0.3;fill:#554F50; fill-opacity: 0.05454545454545454;"/>
<path d="M 377.32467785386734 772.3731740797988 Z" style="stroke:#554F50; stroke-opacity: 0.3;fill:#554F50; fill-opacity: 0.05454545454545454;"/>
<circle cx="217.32467785386734" cy="772.3731740797988" r="160" style="stroke:#554F50; stroke-opacity: 0.3;fill:#554F50; fill-opacity: 0.05454545454545454;"/>
<path d="M 377.32467785386734 1039.2302519200011 Z" style="stroke:#554F50; stroke-opacity: 0.3;fill:#554F50; fill-opacity: 0.05454545454545454;"/>
<circle cx="217.32467785386734" cy="1039.2302519200011" r="160" style="stroke:#554F50; stroke-opacity: 0.3;fill:#554F50; fill-opacity: 0.05454545454545454;"/>
<path d="M 521.5985065612065 1263.7247114140766 Z" style="stroke:#554F50; stroke-opacity: 0.3;fill:#554F50; fill-opacity: 0.05454545454545454;"/>
<circle cx="361.5985065612064" cy="1263.7247114140766" r="160" style="stroke:#554F50; stroke-opacity: 0.3;fill:#554F50; fill-opacity: 0.05454545454545454;"/>
<path d="M 764.3402427514658 1374.5811478747096 Z" style="stroke:#554F50; stroke-opacity: 0.3;fill:#554F50; fill-opacity: 0.05454545454545454;"/>
<circle cx="604.3402427514658" cy="1374.5811478747096" r="160" style="stroke:#554F50; stroke-opacity: 0.3;fill:#554F50; fill-opacity: 0.05454545454545454;"/>
<path d="M 1028.4811003153868 1336.6034259997998 Z" style="stroke:#554F50; stroke-opacity: 0.3;fill:#554F50; fill-opacity: 0.05454545454545454;"/>
<circle cx="868.4811003153868" cy="1336.6034259997998" r="160" style="stroke:#554F50; stroke-opacity: 0.3;fill:#554F50; fill-opacity: 0.05454545454545454;"/>
<path d="M 1230.1582233065408 1161.849204146871 Z" style="stroke:#554F50; stroke-opacity: 0.3;fill:#554F50; fill-opacity: 0.05454545454545454;"/>
<circle cx="1070.1582233065408" cy="1161.849204146871" r="160" style="stroke:#554F50; stroke-opacity: 0.3;fill:#554F50; fill-opacity: 0.05454545454545454;"/>
<path d="M 671.7405501576934 905.8017129998999 L 1070.1582233065408 1161.849204146871 L 868.4811003153868 1336.6034259997998 Z" style="stroke:#F7B4C3; stroke-opacity: 0;fill:#F7B4C3; fill-opacity: 0;"/>
<path d="M 671.7405501576934 905.8017129998999 L 868.4811003153868 1336.6034259997998 L 604.3402427514658 1374.5811478747096 Z" style="stroke:#F7B4C3; stroke-opacity: 0;fill:#F7B4C3; fill-opacity: 0;"/>
<path d="M 671.7405501576934 905.8017129998999 L 604.3402427514658 1374.5811478747096 L 361.5985065612064 1263.7247114140766 Z" style="stroke:#F7B4C3; stroke-opacity: 0;fill:#F7B4C3; fill-opacity: 0;"/>
<path d="M 671.7405501576934 905.8017129998999 L 361.5985065612064 1263.7247114140766 L 217.32467785386734 1039.2302519200011 Z" style="stroke:#F7B4C3; stroke-opacity: 0;fill:#F7B4C3; fill-opacity: 0;"/>
<path d="M 671.7405501576934 905.8017129998999 L 217.32467785386734 1039.2302519200011 L 217.32467785386734 772.3731740797988 Z" style="stroke:#F7B4C3; stroke-opacity: 0;fill:#F7B4C3; fill-opacity: 0;"/>
<path d="M 671.7405501576934 905.8017129998999 L 217.32467785386734 772.3731740797988 L 361.5985065612064 547.8787145857232 Z" style="stroke:#F7B4C3; stroke-opacity: 0;fill:#F7B4C3; fill-opacity: 0;"/>
<path d="M 671.7405501576934 905.8017129998999 L 361.5985065612064 547.8787145857232 L 604.3402427514654 437.0222781250903 Z" style="stroke:#F7B4C3; stroke-opacity: 0;fill:#F7B4C3; fill-opacity: 0;"/>
<path d="M 671.7405501576934 905.8017129998999 L 604.3402427514654 437.0222781250903 L 868.4811003153868 475 Z" style="stroke:#F7B4C3; stroke-opacity: 0;fill:#F7B4C3; fill-opacity: 0;"/>
<path d="M 671.7405501576934 905.8017129998999 L 868.4811003153868 475 L 1070.1582233065408 649.7542218529292 Z" style="stroke:#F7B4C3; stroke-opacity: 0;fill:#F7B4C3; fill-opacity: 0;"/>
<path d="M 671.7405501576934 905.8017129998999 L 1070.1582233065408 649.7542218529292 L 1145.3405501576935 905.8017129998999 Z" style="stroke:#F7B4C3; stroke-opacity: 0;fill:#F7B4C3; fill-opacity: 0;"/>
<path d="M 671.7405501576934 905.8017129998999 L 1145.3405501576935 905.8017129998999 L 1070.1582233065408 1161.849204146871 Z" style="stroke:#F7B4C3; stroke-opacity: 0;fill:#F7B4C3; fill-opacity: 0;"/>
<path d="M 870.9493867321171 1033.8254585733855 C 870.126624593207 1134.7514477155237 870.126624593207 1134.7514477155237 770.1108252365402 1121.20256949985 C 714.853964408182 1205.662095624803 714.853964408182 1205.662095624803 638.0403964545796 1140.1914304373047 C 545.8930998234551 1181.3691907628954 545.8930998234551 1181.3691907628954 516.6695283594498 1084.763212206988 C 416.88791152425574 1069.5855587779924 416.88791152425574 1069.5855587779924 444.5326140057803 972.5159824599507 C 368.79663528847607 905.8017129998999 368.79663528847607 905.8017129998999 444.5326140057804 839.0874435398493 C 416.8879115242557 742.0178672218074 416.8879115242557 742.0178672218074 516.6695283594499 726.8402137928116 C 545.893099823455 630.2342352369045 545.893099823455 630.2342352369045 638.0403964545794 671.4119955624951 C 714.8539644081819 605.9413303749967 714.8539644081819 605.9413303749967 770.1108252365402 690.4008564999501 C 870.126624593207 676.8519782842764 870.126624593207 676.8519782842764 870.9493867321171 777.7779674264143 C 962.4131078739758 820.452549284243 962.4131078739758 820.452549284243 908.5405501576934 905.8017129998999 C 962.4131078739757 991.1508767155569 962.4131078739757 991.1508767155569 870.9493867321171 1033.8254585733853 M 908.5405501576934 905.8017129999 Z" style="stroke:#298FF8; stroke-opacity: 1;fill:#A54AFC; fill-opacity: 0.37272727272727274;"/>
<path d="M 567.5996925937721 943.7794348748099 Z" style="stroke:#B82C3A; stroke-opacity: 0;fill:#B82C3A; fill-opacity: 0;"/>
<circle cx="407.59969259377215" cy="943.7794348748099" r="160" style="stroke:#B82C3A; stroke-opacity: 0;fill:#B82C3A; fill-opacity: 0;"/>
<path d="M 1041.1996925937722 943.7794348748099 Z" style="stroke:#554F50; stroke-opacity: 0.3;fill:#554F50; fill-opacity: 0.05454545454545454;"/>
<circle cx="881.1996925937722" cy="943.7794348748099" r="160" style="stroke:#554F50; stroke-opacity: 0.3;fill:#554F50; fill-opacity: 0.05454545454545454;"/>
<path d="M 966.0173657426195 687.7319437278392 Z" style="stroke:#554F50; stroke-opacity: 0.3;fill:#554F50; fill-opacity: 0.05454545454545454;"/>
<circle cx="806.0173657426195" cy="687.7319437278392" r="160" style="stroke:#554F50; stroke-opacity: 0.3;fill:#554F50; fill-opacity: 0.05454545454545454;"/>
<path d="M 764.3402427514653 512.97772187491 Z" style="stroke:#554F50; stroke-opacity: 0.3;fill:#554F50; fill-opacity: 0.05454545454545454;"/>
<circle cx="604.3402427514653" cy="512.97772187491" r="160" style="stroke:#554F50; stroke-opacity: 0.3;fill:#554F50; fill-opacity: 0.05454545454545454;"/>
<path d="M 500.1993851875443 475.0000000000002 Z" style="stroke:#554F50; stroke-opacity: 0.3;fill:#554F50; fill-opacity: 0.05454545454545454;"/>
<circle cx="340.1993851875443" cy="475.0000000000003" r="160" style="stroke:#554F50; stroke-opacity: 0.3;fill:#554F50; fill-opacity: 0.05454545454545454;"/>
<path d="M 257.45764899728516 585.8564364606332 Z" style="stroke:#554F50; stroke-opacity: 0.3;fill:#554F50; fill-opacity: 0.05454545454545454;"/>
<circle cx="97.45764899728516" cy="585.8564364606332" r="160" style="stroke:#554F50; stroke-opacity: 0.3;fill:#554F50; fill-opacity: 0.05454545454545454;"/>
<path d="M 113.18382028994614 810.3508959547088 Z" style="stroke:#554F50; stroke-opacity: 0.3;fill:#554F50; fill-opacity: 0.05454545454545454;"/>
<circle cx="-46.81617971005386" cy="810.3508959547088" r="160" style="stroke:#554F50; stroke-opacity: 0.3;fill:#554F50; fill-opacity: 0.05454545454545454;"/>
<path d="M 113.18382028994625 1077.2079737949111 Z" style="stroke:#554F50; stroke-opacity: 0.3;fill:#554F50; fill-opacity: 0.05454545454545454;"/>
<circle cx="-46.816179710053746" cy="1077.2079737949111" r="160" style="stroke:#554F50; stroke-opacity: 0.3;fill:#554F50; fill-opacity: 0.05454545454545454;"/>
<path d="M 257.45764899728516 1301.7024332889866 Z" style="stroke:#554F50; stroke-opacity: 0.3;fill:#554F50; fill-opacity: 0.05454545454545454;"/>
<circle cx="97.45764899728516" cy="1301.7024332889866" r="160" style="stroke:#554F50; stroke-opacity: 0.3;fill:#554F50; fill-opacity: 0.05454545454545454;"/>
<path d="M 500.1993851875443 1412.5588697496196 Z" style="stroke:#554F50; stroke-opacity: 0.3;fill:#554F50; fill-opacity: 0.05454545454545454;"/>
<circle cx="340.1993851875443" cy="1412.5588697496196" r="160" style="stroke:#554F50; stroke-opacity: 0.3;fill:#554F50; fill-opacity: 0.05454545454545454;"/>
<path d="M 764.3402427514654 1374.5811478747098 Z" style="stroke:#554F50; stroke-opacity: 0.3;fill:#554F50; fill-opacity: 0.05454545454545454;"/>
<circle cx="604.3402427514654" cy="1374.5811478747098" r="160" style="stroke:#554F50; stroke-opacity: 0.3;fill:#554F50; fill-opacity: 0.05454545454545454;"/>
<path d="M 966.0173657426195 1199.8269260217808 Z" style="stroke:#554F50; stroke-opacity: 0.3;fill:#554F50; fill-opacity: 0.05454545454545454;"/>
<circle cx="806.0173657426195" cy="1199.8269260217808" r="160" style="stroke:#554F50; stroke-opacity: 0.3;fill:#554F50; fill-opacity: 0.05454545454545454;"/>
<path d="M 407.59969259377215 943.7794348748099 L 806.0173657426195 1199.8269260217808 L 604.3402427514654 1374.5811478747098 Z" style="stroke:#F7B4C3; stroke-opacity: 0;fill:#F7B4C3; fill-opacity: 0;"/>
<path d="M 407.59969259377215 943.7794348748099 L 604.3402427514654 1374.5811478747098 L 340.1993851875443 1412.5588697496196 Z" style="stroke:#F7B4C3; stroke-opacity: 0;fill:#F7B4C3; fill-opacity: 0;"/>
<path d="M 407.59969259377215 943.7794348748099 L 340.1993851875443 1412.5588697496196 L 97.45764899728516 1301.7024332889866 Z" style="stroke:#F7B4C3; stroke-opacity: 0;fill:#F7B4C3; fill-opacity: 0;"/>
<path d="M 407.59969259377215 943.7794348748099 L 97.45764899728516 1301.7024332889866 L -46.816179710053746 1077.2079737949111 Z" style="stroke:#F7B4C3; stroke-opacity: 0;fill:#F7B4C3; fill-opacity: 0;"/>
<path d="M 407.59969259377215 943.7794348748099 L -46.816179710053746 1077.2079737949111 L -46.81617971005386 810.3508959547088 Z" style="stroke:#F7B4C3; stroke-opacity: 0;fill:#F7B4C3; fill-opacity: 0;"/>
<path d="M 407.59969259377215 943.7794348748099 L -46.81617971005386 810.3508959547088 L 97.45764899728516 585.8564364606332 Z" style="stroke:#F7B4C3; stroke-opacity: 0;fill:#F7B4C3; fill-opacity: 0;"/>
<path d="M 407.59969259377215 943.7794348748099 L 97.45764899728516 585.8564364606332 L 340.1993851875443 475.0000000000003 Z" style="stroke:#F7B4C3; stroke-opacity: 0;fill:#F7B4C3; fill-opacity: 0;"/>
<path d="M 407.59969259377215 943.7794348748099 L 340.1993851875443 475.0000000000003 L 604.3402427514653 512.97772187491 Z" style="stroke:#F7B4C3; stroke-opacity: 0;fill:#F7B4C3; fill-opacity: 0;"/>
<path d="M 407.59969259377215 943.7794348748099 L 604.3402427514653 512.97772187491 L 806.0173657426195 687.7319437278392 Z" style="stroke:#F7B4C3; stroke-opacity: 0;fill:#F7B4C3; fill-opacity: 0;"/>
<path d="M 407.59969259377215 943.7794348748099 L 806.0173657426195 687.7319437278392 L 881.1996925937722 943.7794348748099 Z" style="stroke:#F7B4C3; stroke-opacity: 0;fill:#F7B4C3; fill-opacity: 0;"/>
<path d="M 407.59969259377215 943.7794348748099 L 881.1996925937722 943.7794348748099 L 806.0173657426195 1199.8269260217808 Z" style="stroke:#F7B4C3; stroke-opacity: 0;fill:#F7B4C3; fill-opacity: 0;"/>
<path d="M 606.8085291681957 1071.8031804482955 C 605.9857670292856 1172.7291695904332 605.9857670292856 1172.7291695904332 505.96996767261874 1159.1802913747597 C 450.7131068442606 1243.639817499713 450.7131068442606 1243.639817499713 373.89953889065816 1178.1691523122147 C 281.7522422595339 1219.3469126378054 281.7522422595339 1219.3469126378054 252.52867079552868 1122.740934081898 C 152.74705396033463 1107.5632806529024 152.74705396033463 1107.5632806529024 180.3917564418593 1010.4937043348607 C 104.65577772455484 943.7794348748099 104.65577772455484 943.7794348748099 180.39175644185914 877.0651654147593 C 152.74705396033448 779.9955890967174 152.74705396033448 779.9955890967174 252.52867079552863 764.8179356677216 C 281.7522422595339 668.2119571118145 281.7522422595339 668.2119571118145 373.89953889065816 709.3897174374051 C 450.71310684426055 643.9190522499067 450.71310684426055 643.9190522499067 505.96996767261874 728.3785783748601 C 605.9857670292856 714.8297001591864 605.9857670292856 714.8297001591864 606.8085291681958 815.7556893013245 C 698.2722503100546 858.430271159153 698.2722503100546 858.430271159153 644.3996925937721 943.7794348748099 C 698.2722503100546 1029.1285985904667 698.2722503100546 1029.1285985904667 606.8085291681957 1071.8031804482953 M 644.3996925937721 943.7794348748098 Z" style="stroke:#298FF8; stroke-opacity: 1;fill:#A54AFC; fill-opacity: 0.37272727272727274;"/>
<path d="M 324.857956403513 832.9229984141766 Z" style="stroke:#B82C3A; stroke-opacity: 0;fill:#B82C3A; fill-opacity: 0;"/>
<circle cx="164.85795640351301" cy="832.9229984141766" r="160" style="stroke:#B82C3A; stroke-opacity: 0;fill:#B82C3A; fill-opacity: 0;"/>
<path d="M 798.457956403513 832.9229984141766 Z" style="stroke:#554F50; stroke-opacity: 0.3;fill:#554F50; fill-opacity: 0.05454545454545454;"/>
<circle cx="638.457956403513" cy="832.9229984141766" r="160" style="stroke:#554F50; stroke-opacity: 0.3;fill:#554F50; fill-opacity: 0.05454545454545454;"/>
<path d="M 723.2756295523604 576.8755072672055 Z" style="stroke:#554F50; stroke-opacity: 0.3;fill:#554F50; fill-opacity: 0.05454545454545454;"/>
<circle cx="563.2756295523604" cy="576.8755072672055" r="160" style="stroke:#554F50; stroke-opacity: 0.3;fill:#554F50; fill-opacity: 0.05454545454545454;"/>
<path d="M 521.5985065612062 402.12128541427666 Z" style="stroke:#554F50; stroke-opacity: 0.3;fill:#554F50; fill-opacity: 0.05454545454545454;"/>
<circle cx="361.5985065612062" cy="402.1212854142767" r="160" style="stroke:#554F50; stroke-opacity: 0.3;fill:#554F50; fill-opacity: 0.05454545454545454;"/>
<path d="M 257.4576489972851 364.14356353936694 Z" style="stroke:#554F50; stroke-opacity: 0.3;fill:#554F50; fill-opacity: 0.05454545454545454;"/>
<circle cx="97.4576489972851" cy="364.143563539367" r="160" style="stroke:#554F50; stroke-opacity: 0.3;fill:#554F50; fill-opacity: 0.05454545454545454;"/>
<path d="M 14.715912807025916 474.9999999999999 Z" style="stroke:#554F50; stroke-opacity: 0.3;fill:#554F50; fill-opacity: 0.05454545454545454;"/>
<circle cx="-145.28408719297408" cy="474.99999999999994" r="160" style="stroke:#554F50; stroke-opacity: 0.3;fill:#554F50; fill-opacity: 0.05454545454545454;"/>
<path d="M -129.557915900313 699.4944594940755 Z" style="stroke:#554F50; stroke-opacity: 0.3;fill:#554F50; fill-opacity: 0.05454545454545454;"/>
<circle cx="-289.557915900313" cy="699.4944594940755" r="160" style="stroke:#554F50; stroke-opacity: 0.3;fill:#554F50; fill-opacity: 0.05454545454545454;"/>
<path d="M -129.55791590031288 966.3515373342777 Z" style="stroke:#554F50; stroke-opacity: 0.3;fill:#554F50; fill-opacity: 0.05454545454545454;"/>
<circle cx="-289.5579159003129" cy="966.3515373342777" r="160" style="stroke:#554F50; stroke-opacity: 0.3;fill:#554F50; fill-opacity: 0.05454545454545454;"/>
<path d="M 14.71591280702603 1190.8459968283532 Z" style="stroke:#554F50; stroke-opacity: 0.3;fill:#554F50; fill-opacity: 0.05454545454545454;"/>
<circle cx="-145.28408719297397" cy="1190.8459968283532" r="160" style="stroke:#554F50; stroke-opacity: 0.3;fill:#554F50; fill-opacity: 0.05454545454545454;"/>
<path d="M 257.4576489972852 1301.7024332889864 Z" style="stroke:#554F50; stroke-opacity: 0.3;fill:#554F50; fill-opacity: 0.05454545454545454;"/>
<circle cx="97.45764899728519" cy="1301.7024332889864" r="160" style="stroke:#554F50; stroke-opacity: 0.3;fill:#554F50; fill-opacity: 0.05454545454545454;"/>
<path d="M 521.5985065612065 1263.7247114140764 Z" style="stroke:#554F50; stroke-opacity: 0.3;fill:#554F50; fill-opacity: 0.05454545454545454;"/>
<circle cx="361.5985065612065" cy="1263.7247114140764" r="160" style="stroke:#554F50; stroke-opacity: 0.3;fill:#554F50; fill-opacity: 0.05454545454545454;"/>
<path d="M 723.2756295523604 1088.9704895611476 Z" style="stroke:#554F50; stroke-opacity: 0.3;fill:#554F50; fill-opacity: 0.05454545454545454;"/>
<circle cx="563.2756295523604" cy="1088.9704895611476" r="160" style="stroke:#554F50; stroke-opacity: 0.3;fill:#554F50; fill-opacity: 0.05454545454545454;"/>
<path d="M 164.85795640351301 832.9229984141766 L 563.2756295523604 1088.9704895611476 L 361.5985065612065 1263.7247114140764 Z" style="stroke:#F7B4C3; stroke-opacity: 0;fill:#F7B4C3; fill-opacity: 0;"/>
<path d="M 164.85795640351301 832.9229984141766 L 361.5985065612065 1263.7247114140764 L 97.45764899728519 1301.7024332889864 Z" style="stroke:#F7B4C3; stroke-opacity: 0;fill:#F7B4C3; fill-opacity: 0;"/>
<path d="M 164.85795640351301 832.9229984141766 L 97.45764899728519 1301.7024332889864 L -145.28408719297397 1190.8459968283532 Z" style="stroke:#F7B4C3; stroke-opacity: 0;fill:#F7B4C3; fill-opacity: 0;"/>
<path d="M 164.85795640351301 832.9229984141766 L -145.28408719297397 1190.8459968283532 L -289.5579159003129 966.3515373342777 Z" style="stroke:#F7B4C3; stroke-opacity: 0;fill:#F7B4C3; fill-opacity: 0;"/>
<path d="M 164.85795640351301 832.9229984141766 L -289.5579159003129 966.3515373342777 L -289.557915900313 699.4944594940755 Z" style="stroke:#F7B4C3; stroke-opacity: 0;fill:#F7B4C3; fill-opacity: 0;"/>
<path d="M 164.85795640351301 832.9229984141766 L -289.557915900313 699.4944594940755 L -145.28408719297408 474.99999999999994 Z" style="stroke:#F7B4C3; stroke-opacity: 0;fill:#F7B4C3; fill-opacity: 0;"/>
<path d="M 164.85795640351301 832.9229984141766 L -145.28408719297408 474.99999999999994 L 97.4576489972851 364.143563539367 Z" style="stroke:#F7B4C3; stroke-opacity: 0;fill:#F7B4C3; fill-opacity: 0;"/>
<path d="M 164.85795640351301 832.9229984141766 L 97.4576489972851 364.143563539367 L 361.5985065612062 402.1212854142767 Z" style="stroke:#F7B4C3; stroke-opacity: 0;fill:#F7B4C3; fill-opacity: 0;"/>
<path d="M 164.85795640351301 832.9229984141766 L 361.5985065612062 402.1212854142767 L 563.2756295523604 576.8755072672055 Z" style="stroke:#F7B4C3; stroke-opacity: 0;fill:#F7B4C3; fill-opacity: 0;"/>
<path d="M 164.85795640351301 832.9229984141766 L 563.2756295523604 576.8755072672055 L 638.457956403513 832.9229984141766 Z" style="stroke:#F7B4C3; stroke-opacity: 0;fill:#F7B4C3; fill-opacity: 0;"/>
<path d="M 164.85795640351301 832.9229984141766 L 638.457956403513 832.9229984141766 L 563.2756295523604 1088.9704895611476 Z" style="stroke:#F7B4C3; stroke-opacity: 0;fill:#F7B4C3; fill-opacity: 0;"/>
<path d="M 364.06679297793676 960.9467439876621 C 363.24403083902666 1061.8727331298003 363.24403083902666 1061.8727331298003 263.2282314823598 1048.3238549141265 C 207.97137065400165 1132.7833810390796 207.97137065400165 1132.7833810390796 131.1578027003992 1067.3127158515813 C 39.0105060692747 1108.490476177172 39.0105060692747 1108.490476177172 9.786934605269522 1011.8844976212649 C -89.99468222992456 996.7068441922692 -89.99468222992456 996.7068441922692 -62.349979748399875 899.6372678742273 C -138.0859584657044 832.9229984141766 -138.0859584657044 832.9229984141766 -62.34997974840002 766.208728954126 C -89.99468222992459 669.139152636084 -89.99468222992459 669.139152636084 9.786934605269607 653.9614992070883 C 39.01050606927469 557.3555206511812 39.01050606927469 557.3555206511812 131.1578027003991 598.5332809767717 C 207.9713706540014 533.0626157892734 207.9713706540014 533.0626157892734 263.2282314823596 617.5221419142267 C 363.24403083902655 603.973263698553 363.24403083902655 603.973263698553 364.0667929779367 704.899252840691 C 455.5305141197955 747.5738346985196 455.5305141197955 747.5738346985196 401.657956403513 832.9229984141765 C 455.5305141197955 918.2721621298335 455.5305141197955 918.2721621298335 364.06679297793676 960.9467439876621 M 401.657956403513 832.9229984141766 Z" style="stroke:#298FF8; stroke-opacity: 1;fill:#A54AFC; fill-opacity: 0.37272727272727274;"/>
<path d="M 180.5841276961741 608.4285389201011 Z" style="stroke:#B82C3A; stroke-opacity: 0;fill:#B82C3A; fill-opacity: 0;"/>
<circle cx="20.584127696174107" cy="608.4285389201011" r="160" style="stroke:#B82C3A; stroke-opacity: 0;fill:#B82C3A; fill-opacity: 0;"/>
<path d="M 654.1841276961741 608.4285389201011 Z" style="stroke:#554F50; stroke-opacity: 0.3;fill:#554F50; fill-opacity: 0.05454545454545454;"/>
<circle cx="494.18412769617413" cy="608.4285389201011" r="160" style="stroke:#554F50; stroke-opacity: 0.3;fill:#554F50; fill-opacity: 0.05454545454545454;"/>
<path d="M 579.0018008450215 352.38104777313 Z" style="stroke:#554F50; stroke-opacity: 0.3;fill:#554F50; fill-opacity: 0.05454545454545454;"/>
<circle cx="419.0018008450215" cy="352.38104777313004" r="160" style="stroke:#554F50; stroke-opacity: 0.3;fill:#554F50; fill-opacity: 0.05454545454545454;"/>
<path d="M 377.32467785386734 177.62682592020118 Z" style="stroke:#554F50; stroke-opacity: 0.3;fill:#554F50; fill-opacity: 0.05454545454545454;"/>
<circle cx="217.3246778538673" cy="177.6268259202012" r="160" style="stroke:#554F50; stroke-opacity: 0.3;fill:#554F50; fill-opacity: 0.05454545454545454;"/>
<path d="M 113.18382028994621 139.64910404529147 Z" style="stroke:#554F50; stroke-opacity: 0.3;fill:#554F50; fill-opacity: 0.05454545454545454;"/>
<circle cx="-46.81617971005379" cy="139.6491040452915" r="160" style="stroke:#554F50; stroke-opacity: 0.3;fill:#554F50; fill-opacity: 0.05454545454545454;"/>
<path d="M -129.557915900313 250.50554050592442 Z" style="stroke:#554F50; stroke-opacity: 0.3;fill:#554F50; fill-opacity: 0.05454545454545454;"/>
<circle cx="-289.557915900313" cy="250.50554050592444" r="160" style="stroke:#554F50; stroke-opacity: 0.3;fill:#554F50; fill-opacity: 0.05454545454545454;"/>
<path d="M -273.8317446076519 474.99999999999994 Z" style="stroke:#554F50; stroke-opacity: 0.3;fill:#554F50; fill-opacity: 0.05454545454545454;"/>
<circle cx="-433.8317446076519" cy="475" r="160" style="stroke:#554F50; stroke-opacity: 0.3;fill:#554F50; fill-opacity: 0.05454545454545454;"/>
<path d="M -273.8317446076518 741.8570778402022 Z" style="stroke:#554F50; stroke-opacity: 0.3;fill:#554F50; fill-opacity: 0.05454545454545454;"/>
<circle cx="-433.8317446076518" cy="741.8570778402022" r="160" style="stroke:#554F50; stroke-opacity: 0.3;fill:#554F50; fill-opacity: 0.05454545454545454;"/>
<path d="M -129.55791590031288 966.3515373342777 Z" style="stroke:#554F50; stroke-opacity: 0.3;fill:#554F50; fill-opacity: 0.05454545454545454;"/>
<circle cx="-289.5579159003129" cy="966.3515373342777" r="160" style="stroke:#554F50; stroke-opacity: 0.3;fill:#554F50; fill-opacity: 0.05454545454545454;"/>
<path d="M 113.18382028994633 1077.2079737949111 Z" style="stroke:#554F50; stroke-opacity: 0.3;fill:#554F50; fill-opacity: 0.05454545454545454;"/>
<circle cx="-46.816179710053675" cy="1077.2079737949111" r="160" style="stroke:#554F50; stroke-opacity: 0.3;fill:#554F50; fill-opacity: 0.05454545454545454;"/>
<path d="M 377.32467785386757 1039.2302519200011 Z" style="stroke:#554F50; stroke-opacity: 0.3;fill:#554F50; fill-opacity: 0.05454545454545454;"/>
<circle cx="217.32467785386754" cy="1039.2302519200011" r="160" style="stroke:#554F50; stroke-opacity: 0.3;fill:#554F50; fill-opacity: 0.05454545454545454;"/>
<path d="M 579.0018008450215 864.4760300670722 Z" style="stroke:#554F50; stroke-opacity: 0.3;fill:#554F50; fill-opacity: 0.05454545454545454;"/>
<circle cx="419.0018008450215" cy="864.4760300670722" r="160" style="stroke:#554F50; stroke-opacity: 0.3;fill:#554F50; fill-opacity: 0.05454545454545454;"/>
<path d="M 20.584127696174107 608.4285389201011 L 419.0018008450215 864.4760300670722 L 217.32467785386754 1039.2302519200011 Z" style="stroke:#F7B4C3; stroke-opacity: 0;fill:#F7B4C3; fill-opacity: 0;"/>
<path d="M 20.584127696174107 608.4285389201011 L 217.32467785386754 1039.2302519200011 L -46.816179710053675 1077.2079737949111 Z" style="stroke:#F7B4C3; stroke-opacity: 0;fill:#F7B4C3; fill-opacity: 0;"/>
<path d="M 20.584127696174107 608.4285389201011 L -46.816179710053675 1077.2079737949111 L -289.5579159003129 966.3515373342777 Z" style="stroke:#F7B4C3; stroke-opacity: 0;fill:#F7B4C3; fill-opacity: 0;"/>
<path d="M 20.584127696174107 608.4285389201011 L -289.5579159003129 966.3515373342777 L -433.8317446076518 741.8570778402022 Z" style="stroke:#F7B4C3; stroke-opacity: 0;fill:#F7B4C3; fill-opacity: 0;"/>
<path d="M 20.584127696174107 608.4285389201011 L -433.8317446076518 741.8570778402022 L -433.8317446076519 475 Z" style="stroke:#F7B4C3; stroke-opacity: 0;fill:#F7B4C3; fill-opacity: 0;"/>
<path d="M 20.584127696174107 608.4285389201011 L -433.8317446076519 475 L -289.557915900313 250.50554050592444 Z" style="stroke:#F7B4C3; stroke-opacity: 0;fill:#F7B4C3; fill-opacity: 0;"/>
<path d="M 20.584127696174107 608.4285389201011 L -289.557915900313 250.50554050592444 L -46.81617971005379 139.6491040452915 Z" style="stroke:#F7B4C3; stroke-opacity: 0;fill:#F7B4C3; fill-opacity: 0;"/>
<path d="M 20.584127696174107 608.4285389201011 L -46.81617971005379 139.6491040452915 L 217.3246778538673 177.6268259202012 Z" style="stroke:#F7B4C3; stroke-opacity: 0;fill:#F7B4C3; fill-opacity: 0;"/>
<path d="M 20.584127696174107 608.4285389201011 L 217.3246778538673 177.6268259202012 L 419.0018008450215 352.38104777313004 Z" style="stroke:#F7B4C3; stroke-opacity: 0;fill:#F7B4C3; fill-opacity: 0;"/>
<path d="M 20.584127696174107 608.4285389201011 L 419.0018008450215 352.38104777313004 L 494.18412769617413 608.4285389201011 Z" style="stroke:#F7B4C3; stroke-opacity: 0;fill:#F7B4C3; fill-opacity: 0;"/>
<path d="M 20.584127696174107 608.4285389201011 L 494.18412769617413 608.4285389201011 L 419.0018008450215 864.4760300670722 Z" style="stroke:#F7B4C3; stroke-opacity: 0;fill:#F7B4C3; fill-opacity: 0;"/>
<path d="M 219.79296427059782 736.4522844935868 C 218.97020213168773 837.3782736357248 218.97020213168773 837.3782736357248 118.95440277502092 823.8293954200511 C 63.69754194666267 908.2889215450045 63.69754194666267 908.2889215450045 -13.116026006939734 842.8182563575062 C -105.26332263806412 883.9960166830967 -105.26332263806412 883.9960166830967 -134.48689410206936 787.3900381271894 C -234.26851093726344 772.2123846981937 -234.26851093726344 772.2123846981937 -206.62380845573875 675.1428083801518 C -282.3597871730433 608.4285389201011 -282.3597871730433 608.4285389201011 -206.62380845573887 541.7142694600504 C -234.26851093726356 444.64469314200846 -234.26851093726356 444.64469314200846 -134.48689410206953 429.4670397130128 C -105.26332263806421 332.86106115710567 -105.26332263806421 332.86106115710567 -13.116026006939876 374.0388214826963 C 63.69754194666254 308.56815629519787 63.69754194666254 308.56815629519787 118.95440277502068 393.02768242015105 C 218.9702021316876 379.47880420447746 218.9702021316876 379.47880420447746 219.79296427059776 480.4047933466155 C 311.2566854124566 523.0793752044441 311.2566854124566 523.0793752044441 257.3841276961742 608.4285389201011 C 311.2566854124566 693.777702635758 311.2566854124566 693.777702635758 219.7929642705978 736.4522844935866 M 257.3841276961742 608.428538920101 Z" style="stroke:#298FF8; stroke-opacity: 1;fill:#A54AFC; fill-opacity: 0.37272727272727274;"/>
<path d="M 180.58412769617394 341.571461079899 Z" style="stroke:#B82C3A; stroke-opacity: 0;fill:#B82C3A; fill-opacity: 0;"/>
<circle cx="20.584127696173937" cy="341.57146107989905" r="160" style="stroke:#B82C3A; stroke-opacity: 0;fill:#B82C3A; fill-opacity: 0;"/>
<path d="M 654.184127696174 341.5714610798988 Z" style="stroke:#554F50; stroke-opacity: 0.3;fill:#554F50; fill-opacity: 0.05454545454545454;"/>
<circle cx="494.18412769617396" cy="341.5714610798989" r="160" style="stroke:#554F50; stroke-opacity: 0.3;fill:#554F50; fill-opacity: 0.05454545454545454;"/>
<path d="M 579.0018008450213 85.5239699329281 Z" style="stroke:#554F50; stroke-opacity: 0.3;fill:#554F50; fill-opacity: 0.05454545454545454;"/>
<circle cx="419.0018008450213" cy="85.52396993292814" r="160" style="stroke:#554F50; stroke-opacity: 0.3;fill:#554F50; fill-opacity: 0.05454545454545454;"/>
<path d="M 377.3246778538671 -89.23025192000095 Z" style="stroke:#554F50; stroke-opacity: 0.3;fill:#554F50; fill-opacity: 0.05454545454545454;"/>
<circle cx="217.32467785386714" cy="-89.23025192000091" r="160" style="stroke:#554F50; stroke-opacity: 0.3;fill:#554F50; fill-opacity: 0.05454545454545454;"/>
<path d="M 113.18382028994604 -127.20797379491067 Z" style="stroke:#554F50; stroke-opacity: 0.3;fill:#554F50; fill-opacity: 0.05454545454545454;"/>
<circle cx="-46.81617971005396" cy="-127.20797379491063" r="160" style="stroke:#554F50; stroke-opacity: 0.3;fill:#554F50; fill-opacity: 0.05454545454545454;"/>
<path d="M -129.55791590031316 -16.351537334277662 Z" style="stroke:#554F50; stroke-opacity: 0.3;fill:#554F50; fill-opacity: 0.05454545454545454;"/>
<circle cx="-289.55791590031316" cy="-16.351537334277623" r="160" style="stroke:#554F50; stroke-opacity: 0.3;fill:#554F50; fill-opacity: 0.05454545454545454;"/>
<path d="M -273.83174460765207 208.14292215979808 Z" style="stroke:#554F50; stroke-opacity: 0.3;fill:#554F50; fill-opacity: 0.05454545454545454;"/>
<circle cx="-433.83174460765207" cy="208.1429221597981" r="160" style="stroke:#554F50; stroke-opacity: 0.3;fill:#554F50; fill-opacity: 0.05454545454545454;"/>
<path d="M -273.83174460765196 475.0000000000001 Z" style="stroke:#554F50; stroke-opacity: 0.3;fill:#554F50; fill-opacity: 0.05454545454545454;"/>
<circle cx="-433.83174460765196" cy="475.00000000000017" r="160" style="stroke:#554F50; stroke-opacity: 0.3;fill:#554F50; fill-opacity: 0.05454545454545454;"/>
<path d="M -129.55791590031305 699.494459494076 Z" style="stroke:#554F50; stroke-opacity: 0.3;fill:#554F50; fill-opacity: 0.05454545454545454;"/>
<circle cx="-289.55791590031305" cy="699.494459494076" r="160" style="stroke:#554F50; stroke-opacity: 0.3;fill:#554F50; fill-opacity: 0.05454545454545454;"/>
<path d="M 113.18382028994615 810.3508959547089 Z" style="stroke:#554F50; stroke-opacity: 0.3;fill:#554F50; fill-opacity: 0.05454545454545454;"/>
<circle cx="-46.816179710053845" cy="810.3508959547089" r="160" style="stroke:#554F50; stroke-opacity: 0.3;fill:#554F50; fill-opacity: 0.05454545454545454;"/>
<path d="M 377.32467785386734 772.3731740797989 Z" style="stroke:#554F50; stroke-opacity: 0.3;fill:#554F50; fill-opacity: 0.05454545454545454;"/>
<circle cx="217.32467785386737" cy="772.3731740797989" r="160" style="stroke:#554F50; stroke-opacity: 0.3;fill:#554F50; fill-opacity: 0.05454545454545454;"/>
<path d="M 579.0018008450213 597.61895222687 Z" style="stroke:#554F50; stroke-opacity: 0.3;fill:#554F50; fill-opacity: 0.05454545454545454;"/>
<circle cx="419.0018008450213" cy="597.61895222687" r="160" style="stroke:#554F50; stroke-opacity: 0.3;fill:#554F50; fill-opacity: 0.05454545454545454;"/>
<path d="M 20.584127696173937 341.57146107989905 L 419.0018008450213 597.61895222687 L 217.32467785386737 772.3731740797989 Z" style="stroke:#F7B4C3; stroke-opacity: 0;fill:#F7B4C3; fill-opacity: 0;"/>
<path d="M 20.584127696173937 341.57146107989905 L 217.32467785386737 772.3731740797989 L -46.816179710053845 810.3508959547089 Z" style="stroke:#F7B4C3; stroke-opacity: 0;fill:#F7B4C3; fill-opacity: 0;"/>
<path d="M 20.584127696173937 341.57146107989905 L -46.816179710053845 810.3508959547089 L -289.55791590031305 699.494459494076 Z" style="stroke:#F7B4C3; stroke-opacity: 0;fill:#F7B4C3; fill-opacity: 0;"/>
<path d="M 20.584127696173937 341.57146107989905 L -289.55791590031305 699.494459494076 L -433.83174460765196 475.00000000000017 Z" style="stroke:#F7B4C3; stroke-opacity: 0;fill:#F7B4C3; fill-opacity: 0;"/>
<path d="M 20.584127696173937 341.57146107989905 L -433.83174460765196 475.00000000000017 L -433.83174460765207 208.1429221597981 Z" style="stroke:#F7B4C3; stroke-opacity: 0;fill:#F7B4C3; fill-opacity: 0;"/>
<path d="M 20.584127696173937 341.57146107989905 L -433.83174460765207 208.1429221597981 L -289.55791590031316 -16.351537334277623 Z" style="stroke:#F7B4C3; stroke-opacity: 0;fill:#F7B4C3; fill-opacity: 0;"/>
<path d="M 20.584127696173937 341.57146107989905 L -289.55791590031316 -16.351537334277623 L -46.81617971005396 -127.20797379491063 Z" style="stroke:#F7B4C3; stroke-opacity: 0;fill:#F7B4C3; fill-opacity: 0;"/>
<path d="M 20.584127696173937 341.57146107989905 L -46.81617971005396 -127.20797379491063 L 217.32467785386714 -89.23025192000091 Z" style="stroke:#F7B4C3; stroke-opacity: 0;fill:#F7B4C3; fill-opacity: 0;"/>
<path d="M 20.584127696173937 341.57146107989905 L 217.32467785386714 -89.23025192000091 L 419.0018008450213 85.52396993292814 Z" style="stroke:#F7B4C3; stroke-opacity: 0;fill:#F7B4C3; fill-opacity: 0;"/>
<path d="M 20.584127696173937 341.57146107989905 L 419.0018008450213 85.52396993292814 L 494.18412769617396 341.5714610798989 Z" style="stroke:#F7B4C3; stroke-opacity: 0;fill:#F7B4C3; fill-opacity: 0;"/>
<path d="M 20.584127696173937 341.57146107989905 L 494.18412769617396 341.5714610798989 L 419.0018008450213 597.61895222687 Z" style="stroke:#F7B4C3; stroke-opacity: 0;fill:#F7B4C3; fill-opacity: 0;"/>
<path d="M 219.79296427059765 469.5952066533846 C 218.97020213168756 570.5211957955225 218.97020213168756 570.5211957955225 118.95440277502075 556.9723175798489 C 63.6975419466625 641.4318437048023 63.6975419466625 641.4318437048023 -13.116026006939933 575.961178517304 C -105.26332263806435 617.1389388428946 -105.26332263806435 617.1389388428946 -134.48689410206953 520.5329602869876 C -234.2685109372637 505.3553068579917 -234.2685109372637 505.3553068579917 -206.62380845573904 408.2857305399498 C -282.3597871730434 341.5714610798991 -282.3597871730434 341.5714610798991 -206.62380845573915 274.8571916198486 C -234.26851093726373 177.78761530180654 -234.26851093726373 177.78761530180654 -134.48689410206958 162.60996187281074 C -105.26332263806435 66.00398331690357 -105.26332263806435 66.00398331690357 -13.11602600693999 107.18174364249421 C 63.69754194666237 41.71107845499583 63.69754194666237 41.71107845499583 118.95440277502054 126.17060457994913 C 218.97020213168747 112.62172636427545 218.97020213168747 112.62172636427545 219.7929642705976 213.54771550641357 C 311.2566854124564 256.222297364242 311.2566854124564 256.222297364242 257.384127696174 341.5714610798989 C 311.2566854124564 426.92062479555597 311.2566854124564 426.92062479555597 219.79296427059774 469.5952066533845 M 257.384127696174 341.571461079899 Z" style="stroke:#298FF8; stroke-opacity: 1;fill:#A54AFC; fill-opacity: 0.37272727272727274;"/>
<path d="M 324.857956403513 117.07700158582328 Z" style="stroke:#B82C3A; stroke-opacity: 0;fill:#B82C3A; fill-opacity: 0;"/>
<circle cx="164.85795640351301" cy="117.07700158582333" r="160" style="stroke:#B82C3A; stroke-opacity: 0;fill:#B82C3A; fill-opacity: 0;"/>
<path d="M 798.457956403513 117.07700158582315 Z" style="stroke:#554F50; stroke-opacity: 0.3;fill:#554F50; fill-opacity: 0.05454545454545454;"/>
<circle cx="638.457956403513" cy="117.0770015858232" r="160" style="stroke:#554F50; stroke-opacity: 0.3;fill:#554F50; fill-opacity: 0.05454545454545454;"/>
<path d="M 723.2756295523604 -138.97048956114762 Z" style="stroke:#554F50; stroke-opacity: 0.3;fill:#554F50; fill-opacity: 0.05454545454545454;"/>
<circle cx="563.2756295523604" cy="-138.9704895611476" r="160" style="stroke:#554F50; stroke-opacity: 0.3;fill:#554F50; fill-opacity: 0.05454545454545454;"/>
<path d="M 521.5985065612062 -313.7247114140767 Z" style="stroke:#554F50; stroke-opacity: 0.3;fill:#554F50; fill-opacity: 0.05454545454545454;"/>
<circle cx="361.5985065612062" cy="-313.72471141407664" r="160" style="stroke:#554F50; stroke-opacity: 0.3;fill:#554F50; fill-opacity: 0.05454545454545454;"/>
<path d="M 257.4576489972851 -351.7024332889864 Z" style="stroke:#554F50; stroke-opacity: 0.3;fill:#554F50; fill-opacity: 0.05454545454545454;"/>
<circle cx="97.4576489972851" cy="-351.70243328898636" r="160" style="stroke:#554F50; stroke-opacity: 0.3;fill:#554F50; fill-opacity: 0.05454545454545454;"/>
<path d="M 14.715912807025916 -240.84599682835338 Z" style="stroke:#554F50; stroke-opacity: 0.3;fill:#554F50; fill-opacity: 0.05454545454545454;"/>
<circle cx="-145.28408719297408" cy="-240.84599682835335" r="160" style="stroke:#554F50; stroke-opacity: 0.3;fill:#554F50; fill-opacity: 0.05454545454545454;"/>
<path d="M -129.557915900313 -16.35153733427772 Z" style="stroke:#554F50; stroke-opacity: 0.3;fill:#554F50; fill-opacity: 0.05454545454545454;"/>
<circle cx="-289.557915900313" cy="-16.35153733427768" r="160" style="stroke:#554F50; stroke-opacity: 0.3;fill:#554F50; fill-opacity: 0.05454545454545454;"/>
<path d="M -129.55791590031288 250.50554050592442 Z" style="stroke:#554F50; stroke-opacity: 0.3;fill:#554F50; fill-opacity: 0.05454545454545454;"/>
<circle cx="-289.5579159003129" cy="250.50554050592444" r="160" style="stroke:#554F50; stroke-opacity: 0.3;fill:#554F50; fill-opacity: 0.05454545454545454;"/>
<path d="M 14.71591280702603 475 Z" style="stroke:#554F50; stroke-opacity: 0.3;fill:#554F50; fill-opacity: 0.05454545454545454;"/>
<circle cx="-145.28408719297397" cy="475.00000000000006" r="160" style="stroke:#554F50; stroke-opacity: 0.3;fill:#554F50; fill-opacity: 0.05454545454545454;"/>
<path d="M 257.4576489972852 585.8564364606332 Z" style="stroke:#554F50; stroke-opacity: 0.3;fill:#554F50; fill-opacity: 0.05454545454545454;"/>
<circle cx="97.45764899728519" cy="585.8564364606332" r="160" style="stroke:#554F50; stroke-opacity: 0.3;fill:#554F50; fill-opacity: 0.05454545454545454;"/>
<path d="M 521.5985065612065 547.8787145857232 Z" style="stroke:#554F50; stroke-opacity: 0.3;fill:#554F50; fill-opacity: 0.05454545454545454;"/>
<circle cx="361.5985065612065" cy="547.8787145857232" r="160" style="stroke:#554F50; stroke-opacity: 0.3;fill:#554F50; fill-opacity: 0.05454545454545454;"/>
<path d="M 723.2756295523604 373.1244927327943 Z" style="stroke:#554F50; stroke-opacity: 0.3;fill:#554F50; fill-opacity: 0.05454545454545454;"/>
<circle cx="563.2756295523604" cy="373.12449273279435" r="160" style="stroke:#554F50; stroke-opacity: 0.3;fill:#554F50; fill-opacity: 0.05454545454545454;"/>
<path d="M 164.85795640351301 117.07700158582333 L 563.2756295523604 373.12449273279435 L 361.5985065612065 547.8787145857232 Z" style="stroke:#F7B4C3; stroke-opacity: 0;fill:#F7B4C3; fill-opacity: 0;"/>
<path d="M 164.85795640351301 117.07700158582333 L 361.5985065612065 547.8787145857232 L 97.45764899728519 585.8564364606332 Z" style="stroke:#F7B4C3; stroke-opacity: 0;fill:#F7B4C3; fill-opacity: 0;"/>
<path d="M 164.85795640351301 117.07700158582333 L 97.45764899728519 585.8564364606332 L -145.28408719297397 475.00000000000006 Z" style="stroke:#F7B4C3; stroke-opacity: 0;fill:#F7B4C3; fill-opacity: 0;"/>
<path d="M 164.85795640351301 117.07700158582333 L -145.28408719297397 475.00000000000006 L -289.5579159003129 250.50554050592444 Z" style="stroke:#F7B4C3; stroke-opacity: 0;fill:#F7B4C3; fill-opacity: 0;"/>
<path d="M 164.85795640351301 117.07700158582333 L -289.5579159003129 250.50554050592444 L -289.557915900313 -16.35153733427768 Z" style="stroke:#F7B4C3; stroke-opacity: 0;fill:#F7B4C3; fill-opacity: 0;"/>
<path d="M 164.85795640351301 117.07700158582333 L -289.557915900313 -16.35153733427768 L -145.28408719297408 -240.84599682835335 Z" style="stroke:#F7B4C3; stroke-opacity: 0;fill:#F7B4C3; fill-opacity: 0;"/>
<path d="M 164.85795640351301 117.07700158582333 L -145.28408719297408 -240.84599682835335 L 97.4576489972851 -351.70243328898636 Z" style="stroke:#F7B4C3; stroke-opacity: 0;fill:#F7B4C3; fill-opacity: 0;"/>
<path d="M 164.85795640351301 117.07700158582333 L 97.4576489972851 -351.70243328898636 L 361.5985065612062 -313.72471141407664 Z" style="stroke:#F7B4C3; stroke-opacity: 0;fill:#F7B4C3; fill-opacity: 0;"/>
<path d="M 164.85795640351301 117.07700158582333 L 361.5985065612062 -313.72471141407664 L 563.2756295523604 -138.9704895611476 Z" style="stroke:#F7B4C3; stroke-opacity: 0;fill:#F7B4C3; fill-opacity: 0;"/>
<path d="M 164.85795640351301 117.07700158582333 L 563.2756295523604 -138.9704895611476 L 638.457956403513 117.0770015858232 Z" style="stroke:#F7B4C3; stroke-opacity: 0;fill:#F7B4C3; fill-opacity: 0;"/>
<path d="M 164.85795640351301 117.07700158582333 L 638.457956403513 117.0770015858232 L 563.2756295523604 373.12449273279435 Z" style="stroke:#F7B4C3; stroke-opacity: 0;fill:#F7B4C3; fill-opacity: 0;"/>
<path d="M 364.06679297793676 245.10074715930887 C 363.24403083902666 346.02673630144693 363.24403083902666 346.02673630144693 263.2282314823599 332.4778580857733 C 207.9713706540016 416.93738421072663 207.9713706540016 416.93738421072663 131.15780270039915 351.4667190232283 C 39.010506069274754 392.6444793488189 39.010506069274754 392.6444793488189 9.786934605269522 296.0385007929117 C -89.99468222992456 280.8608473639159 -89.99468222992456 280.8608473639159 -62.34997974839993 183.791271045874 C -138.0859584657043 117.07700158582333 -138.0859584657043 117.07700158582333 -62.34997974840002 50.36273212577282 C -89.99468222992466 -46.706844192269244 -89.99468222992466 -46.706844192269244 9.786934605269494 -61.884497621265 C 39.0105060692747 -158.49047617717216 39.0105060692747 -158.49047617717216 131.1578027003991 -117.31271585158152 C 207.97137065400142 -182.78338103907993 207.97137065400142 -182.78338103907993 263.22823148235966 -98.32385491412657 C 363.24403083902655 -111.87273312980025 363.24403083902655 -111.87273312980025 364.0667929779367 -10.946743987662103 C 455.5305141197955 31.727837870166297 455.5305141197955 31.727837870166297 401.657956403513 117.07700158582327 C 455.5305141197955 202.42616530148027 455.5305141197955 202.42616530148027 364.06679297793676 245.1007471593088 M 401.657956403513 117.07700158582321 Z" style="stroke:#298FF8; stroke-opacity: 1;fill:#A54AFC; fill-opacity: 0.37272727272727274;"/>
<path d="M 567.5996925937721 6.220565125190337 Z" style="stroke:#B82C3A; stroke-opacity: 0;fill:#B82C3A; fill-opacity: 0;"/>
<circle cx="407.59969259377215" cy="6.220565125190376" r="160" style="stroke:#B82C3A; stroke-opacity: 0;fill:#B82C3A; fill-opacity: 0;"/>
<path d="M 1041.1996925937722 6.220565125190221 Z" style="stroke:#554F50; stroke-opacity: 0.3;fill:#554F50; fill-opacity: 0.05454545454545454;"/>
<circle cx="881.1996925937722" cy="6.2205651251902605" r="160" style="stroke:#554F50; stroke-opacity: 0.3;fill:#554F50; fill-opacity: 0.05454545454545454;"/>
<path d="M 966.0173657426195 -249.82692602178057 Z" style="stroke:#554F50; stroke-opacity: 0.3;fill:#554F50; fill-opacity: 0.05454545454545454;"/>
<circle cx="806.0173657426195" cy="-249.82692602178054" r="160" style="stroke:#554F50; stroke-opacity: 0.3;fill:#554F50; fill-opacity: 0.05454545454545454;"/>
<path d="M 764.3402427514653 -424.58114787470964 Z" style="stroke:#554F50; stroke-opacity: 0.3;fill:#554F50; fill-opacity: 0.05454545454545454;"/>
<circle cx="604.3402427514653" cy="-424.5811478747096" r="160" style="stroke:#554F50; stroke-opacity: 0.3;fill:#554F50; fill-opacity: 0.05454545454545454;"/>
<path d="M 500.1993851875443 -462.55886974961936 Z" style="stroke:#554F50; stroke-opacity: 0.3;fill:#554F50; fill-opacity: 0.05454545454545454;"/>
<circle cx="340.1993851875443" cy="-462.5588697496193" r="160" style="stroke:#554F50; stroke-opacity: 0.3;fill:#554F50; fill-opacity: 0.05454545454545454;"/>
<path d="M 257.45764899728516 -351.70243328898636 Z" style="stroke:#554F50; stroke-opacity: 0.3;fill:#554F50; fill-opacity: 0.05454545454545454;"/>
<circle cx="97.45764899728516" cy="-351.7024332889863" r="160" style="stroke:#554F50; stroke-opacity: 0.3;fill:#554F50; fill-opacity: 0.05454545454545454;"/>
<path d="M 113.18382028994614 -127.20797379491067 Z" style="stroke:#554F50; stroke-opacity: 0.3;fill:#554F50; fill-opacity: 0.05454545454545454;"/>
<circle cx="-46.81617971005386" cy="-127.20797379491063" r="160" style="stroke:#554F50; stroke-opacity: 0.3;fill:#554F50; fill-opacity: 0.05454545454545454;"/>
<path d="M 113.18382028994625 139.6491040452914 Z" style="stroke:#554F50; stroke-opacity: 0.3;fill:#554F50; fill-opacity: 0.05454545454545454;"/>
<circle cx="-46.816179710053746" cy="139.64910404529144" r="160" style="stroke:#554F50; stroke-opacity: 0.3;fill:#554F50; fill-opacity: 0.05454545454545454;"/>
<path d="M 257.45764899728516 364.14356353936705 Z" style="stroke:#554F50; stroke-opacity: 0.3;fill:#554F50; fill-opacity: 0.05454545454545454;"/>
<circle cx="97.45764899728516" cy="364.1435635393671" r="160" style="stroke:#554F50; stroke-opacity: 0.3;fill:#554F50; fill-opacity: 0.05454545454545454;"/>
<path d="M 500.1993851875443 475.0000000000001 Z" style="stroke:#554F50; stroke-opacity: 0.3;fill:#554F50; fill-opacity: 0.05454545454545454;"/>
<circle cx="340.1993851875443" cy="475.00000000000017" r="160" style="stroke:#554F50; stroke-opacity: 0.3;fill:#554F50; fill-opacity: 0.05454545454545454;"/>
<path d="M 764.3402427514654 437.0222781250902 Z" style="stroke:#554F50; stroke-opacity: 0.3;fill:#554F50; fill-opacity: 0.05454545454545454;"/>
<circle cx="604.3402427514654" cy="437.0222781250903" r="160" style="stroke:#554F50; stroke-opacity: 0.3;fill:#554F50; fill-opacity: 0.05454545454545454;"/>
<path d="M 966.0173657426195 262.26805627216135 Z" style="stroke:#554F50; stroke-opacity: 0.3;fill:#554F50; fill-opacity: 0.05454545454545454;"/>
<circle cx="806.0173657426195" cy="262.2680562721614" r="160" style="stroke:#554F50; stroke-opacity: 0.3;fill:#554F50; fill-opacity: 0.05454545454545454;"/>
<path d="M 407.59969259377215 6.220565125190376 L 806.0173657426195 262.2680562721614 L 604.3402427514654 437.0222781250903 Z" style="stroke:#F7B4C3; stroke-opacity: 0;fill:#F7B4C3; fill-opacity: 0;"/>
<path d="M 407.59969259377215 6.220565125190376 L 604.3402427514654 437.0222781250903 L 340.1993851875443 475.00000000000017 Z" style="stroke:#F7B4C3; stroke-opacity: 0;fill:#F7B4C3; fill-opacity: 0;"/>
<path d="M 407.59969259377215 6.220565125190376 L 340.1993851875443 475.00000000000017 L 97.45764899728516 364.1435635393671 Z" style="stroke:#F7B4C3; stroke-opacity: 0;fill:#F7B4C3; fill-opacity: 0;"/>
<path d="M 407.59969259377215 6.220565125190376 L 97.45764899728516 364.1435635393671 L -46.816179710053746 139.64910404529144 Z" style="stroke:#F7B4C3; stroke-opacity: 0;fill:#F7B4C3; fill-opacity: 0;"/>
<path d="M 407.59969259377215 6.220565125190376 L -46.816179710053746 139.64910404529144 L -46.81617971005386 -127.20797379491063 Z" style="stroke:#F7B4C3; stroke-opacity: 0;fill:#F7B4C3; fill-opacity: 0;"/>
<path d="M 407.59969259377215 6.220565125190376 L -46.81617971005386 -127.20797379491063 L 97.45764899728516 -351.7024332889863 Z" style="stroke:#F7B4C3; stroke-opacity: 0;fill:#F7B4C3; fill-opacity: 0;"/>
<path d="M 407.59969259377215 6.220565125190376 L 97.45764899728516 -351.7024332889863 L 340.1993851875443 -462.5588697496193 Z" style="stroke:#F7B4C3; stroke-opacity: 0;fill:#F7B4C3; fill-opacity: 0;"/>
<path d="M 407.59969259377215 6.220565125190376 L 340.1993851875443 -462.5588697496193 L 604.3402427514653 -424.5811478747096 Z" style="stroke:#F7B4C3; stroke-opacity: 0;fill:#F7B4C3; fill-opacity: 0;"/>
<path d="M 407.59969259377215 6.220565125190376 L 604.3402427514653 -424.5811478747096 L 806.0173657426195 -249.82692602178054 Z" style="stroke:#F7B4C3; stroke-opacity: 0;fill:#F7B4C3; fill-opacity: 0;"/>
<path d="M 407.59969259377215 6.220565125190376 L 806.0173657426195 -249.82692602178054 L 881.1996925937722 6.2205651251902605 Z" style="stroke:#F7B4C3; stroke-opacity: 0;fill:#F7B4C3; fill-opacity: 0;"/>
<path d="M 407.59969259377215 6.220565125190376 L 881.1996925937722 6.2205651251902605 L 806.0173657426195 262.2680562721614 Z" style="stroke:#F7B4C3; stroke-opacity: 0;fill:#F7B4C3; fill-opacity: 0;"/>
<path d="M 606.808529168196 134.24431069867597 C 605.9857670292857 235.1702998408141 605.9857670292857 235.1702998408141 505.96996767261896 221.62142162514039 C 450.71310684426066 306.08094775009357 450.71310684426066 306.08094775009357 373.8995388906583 240.61028256259527 C 281.7522422595339 281.7880428881858 281.7522422595339 281.7880428881858 252.52867079552868 185.18206433227869 C 152.74705396033454 170.00441090328297 152.74705396033454 170.00441090328297 180.39175644185917 72.93483458524094 C 104.65577772455484 6.220565125190404 104.65577772455484 6.220565125190404 180.39175644185912 -60.493704334860126 C 152.74705396033445 -157.56328065290222 152.74705396033445 -157.56328065290222 252.52867079552863 -172.740934081898 C 281.7522422595339 -269.3469126378051 281.7522422595339 -269.3469126378051 373.8995388906582 -228.16915231221446 C 450.71310684426055 -293.6398174997129 450.71310684426055 -293.6398174997129 505.96996767261874 -209.18029137475952 C 605.9857670292856 -222.72916959043323 605.9857670292856 -222.72916959043323 606.8085291681958 -121.80318044829505 C 698.2722503100546 -79.12859859046661 698.2722503100546 -79.12859859046661 644.3996925937721 6.220565125190262 C 698.2722503100546 91.56972884084743 698.2722503100546 91.56972884084743 606.808529168196 134.2443106986759 M 644.3996925937721 6.220565125190376 Z" style="stroke:#298FF8; stroke-opacity: 1;fill:#A54AFC; fill-opacity: 0.37272727272727274;"/>
<path d="M 831.7405501576934 44.19828700010005 Z" style="stroke:#B82C3A; stroke-opacity: 0;fill:#B82C3A; fill-opacity: 0;"/>
<circle cx="671.7405501576934" cy="44.198287000100095" r="160" style="stroke:#B82C3A; stroke-opacity: 0;fill:#B82C3A; fill-opacity: 0;"/>
<path d="M 1305.3405501576935 44.198287000099924 Z" style="stroke:#554F50; stroke-opacity: 0.3;fill:#554F50; fill-opacity: 0.05454545454545454;"/>
<circle cx="1145.3405501576935" cy="44.19828700009997" r="160" style="stroke:#554F50; stroke-opacity: 0.3;fill:#554F50; fill-opacity: 0.05454545454545454;"/>
<path d="M 1230.1582233065408 -211.84920414687085 Z" style="stroke:#554F50; stroke-opacity: 0.3;fill:#554F50; fill-opacity: 0.05454545454545454;"/>
<circle cx="1070.1582233065408" cy="-211.84920414687082" r="160" style="stroke:#554F50; stroke-opacity: 0.3;fill:#554F50; fill-opacity: 0.05454545454545454;"/>
<path d="M 1028.4811003153868 -386.6034259997999 Z" style="stroke:#554F50; stroke-opacity: 0.3;fill:#554F50; fill-opacity: 0.05454545454545454;"/>
<circle cx="868.4811003153868" cy="-386.60342599979987" r="160" style="stroke:#554F50; stroke-opacity: 0.3;fill:#554F50; fill-opacity: 0.05454545454545454;"/>
<path d="M 764.3402427514654 -424.58114787470964 Z" style="stroke:#554F50; stroke-opacity: 0.3;fill:#554F50; fill-opacity: 0.05454545454545454;"/>
<circle cx="604.3402427514654" cy="-424.5811478747096" r="160" style="stroke:#554F50; stroke-opacity: 0.3;fill:#554F50; fill-opacity: 0.05454545454545454;"/>
<path d="M 521.5985065612065 -313.72471141407664 Z" style="stroke:#554F50; stroke-opacity: 0.3;fill:#554F50; fill-opacity: 0.05454545454545454;"/>
<circle cx="361.5985065612064" cy="-313.7247114140766" r="160" style="stroke:#554F50; stroke-opacity: 0.3;fill:#554F50; fill-opacity: 0.05454545454545454;"/>
<path d="M 377.32467785386734 -89.23025192000095 Z" style="stroke:#554F50; stroke-opacity: 0.3;fill:#554F50; fill-opacity: 0.05454545454545454;"/>
<circle cx="217.32467785386734" cy="-89.23025192000091" r="160" style="stroke:#554F50; stroke-opacity: 0.3;fill:#554F50; fill-opacity: 0.05454545454545454;"/>
<path d="M 377.32467785386734 177.62682592020113 Z" style="stroke:#554F50; stroke-opacity: 0.3;fill:#554F50; fill-opacity: 0.05454545454545454;"/>
<circle cx="217.32467785386734" cy="177.62682592020116" r="160" style="stroke:#554F50; stroke-opacity: 0.3;fill:#554F50; fill-opacity: 0.05454545454545454;"/>
<path d="M 521.5985065612065 402.12128541427677 Z" style="stroke:#554F50; stroke-opacity: 0.3;fill:#554F50; fill-opacity: 0.05454545454545454;"/>
<circle cx="361.5985065612064" cy="402.1212854142768" r="160" style="stroke:#554F50; stroke-opacity: 0.3;fill:#554F50; fill-opacity: 0.05454545454545454;"/>
<path d="M 764.3402427514658 512.9777218749099 Z" style="stroke:#554F50; stroke-opacity: 0.3;fill:#554F50; fill-opacity: 0.05454545454545454;"/>
<circle cx="604.3402427514658" cy="512.9777218749099" r="160" style="stroke:#554F50; stroke-opacity: 0.3;fill:#554F50; fill-opacity: 0.05454545454545454;"/>
<path d="M 1028.4811003153868 474.99999999999994 Z" style="stroke:#554F50; stroke-opacity: 0.3;fill:#554F50; fill-opacity: 0.05454545454545454;"/>
<circle cx="868.4811003153868" cy="475" r="160" style="stroke:#554F50; stroke-opacity: 0.3;fill:#554F50; fill-opacity: 0.05454545454545454;"/>
<path d="M 1230.1582233065408 300.24577814707106 Z" style="stroke:#554F50; stroke-opacity: 0.3;fill:#554F50; fill-opacity: 0.05454545454545454;"/>
<circle cx="1070.1582233065408" cy="300.2457781470711" r="160" style="stroke:#554F50; stroke-opacity: 0.3;fill:#554F50; fill-opacity: 0.05454545454545454;"/>
<path d="M 671.7405501576934 44.198287000100095 L 1070.1582233065408 300.2457781470711 L 868.4811003153868 475 Z" style="stroke:#F7B4C3; stroke-opacity: 0;fill:#F7B4C3; fill-opacity: 0;"/>
<path d="M 671.7405501576934 44.198287000100095 L 868.4811003153868 475 L 604.3402427514658 512.9777218749099 Z" style="stroke:#F7B4C3; stroke-opacity: 0;fill:#F7B4C3; fill-opacity: 0;"/>
<path d="M 671.7405501576934 44.198287000100095 L 604.3402427514658 512.9777218749099 L 361.5985065612064 402.1212854142768 Z" style="stroke:#F7B4C3; stroke-opacity: 0;fill:#F7B4C3; fill-opacity: 0;"/>
<path d="M 671.7405501576934 44.198287000100095 L 361.5985065612064 402.1212854142768 L 217.32467785386734 177.62682592020116 Z" style="stroke:#F7B4C3; stroke-opacity: 0;fill:#F7B4C3; fill-opacity: 0;"/>
<path d="M 671.7405501576934 44.198287000100095 L 217.32467785386734 177.62682592020116 L 217.32467785386734 -89.23025192000091 Z" style="stroke:#F7B4C3; stroke-opacity: 0;fill:#F7B4C3; fill-opacity: 0;"/>
<path d="M 671.7405501576934 44.198287000100095 L 217.32467785386734 -89.23025192000091 L 361.5985065612064 -313.7247114140766 Z" style="stroke:#F7B4C3; stroke-opacity: 0;fill:#F7B4C3; fill-opacity: 0;"/>
<path d="M 671.7405501576934 44.198287000100095 L 361.5985065612064 -313.7247114140766 L 604.3402427514654 -424.5811478747096 Z" style="stroke:#F7B4C3; stroke-opacity: 0;fill:#F7B4C3; fill-opacity: 0;"/>
<path d="M 671.7405501576934 44.198287000100095 L 604.3402427514654 -424.5811478747096 L 868.4811003153868 -386.60342599979987 Z" style="stroke:#F7B4C3; stroke-opacity: 0;fill:#F7B4C3; fill-opacity: 0;"/>
<path d="M 671.7405501576934 44.198287000100095 L 868.4811003153868 -386.60342599979987 L 1070.1582233065408 -211.84920414687082 Z" style="stroke:#F7B4C3; stroke-opacity: 0;fill:#F7B4C3; fill-opacity: 0;"/>
<path d="M 671.7405501576934 44.198287000100095 L 1070.1582233065408 -211.84920414687082 L 1145.3405501576935 44.19828700009997 Z" style="stroke:#F7B4C3; stroke-opacity: 0;fill:#F7B4C3; fill-opacity: 0;"/>
<path d="M 671.7405501576934 44.198287000100095 L 1145.3405501576935 44.19828700009997 L 1070.1582233065408 300.2457781470711 Z" style="stroke:#F7B4C3; stroke-opacity: 0;fill:#F7B4C3; fill-opacity: 0;"/>
<path d="M 870.9493867321171 172.2220325735858 C 870.126624593207 273.1480217157237 870.126624593207 273.1480217157237 770.1108252365402 259.59914350005005 C 714.853964408182 344.05866962500335 714.853964408182 344.05866962500335 638.0403964545796 278.5880044375051 C 545.8930998234551 319.7657647630957 545.8930998234551 319.7657647630957 516.6695283594498 223.15978620718852 C 416.8879115242557 207.9821327781927 416.8879115242557 207.9821327781927 444.5326140057803 110.91255646015065 C 368.79663528847607 44.19828700010012 368.79663528847607 44.19828700010012 444.5326140057804 -22.515982459950408 C 416.8879115242557 -119.5855587779925 416.8879115242557 -119.5855587779925 516.6695283594498 -134.76321220698827 C 545.8930998234551 -231.36919076289539 545.8930998234551 -231.36919076289539 638.0403964545794 -190.19143043730475 C 714.8539644081819 -255.6620956248031 714.8539644081819 -255.6620956248031 770.1108252365402 -171.2025694998498 C 870.126624593207 -184.7514477155235 870.126624593207 -184.7514477155235 870.9493867321171 -83.82545857338545 C 962.4131078739758 -41.15087671555692 962.4131078739758 -41.15087671555692 908.5405501576934 44.19828700010004 C 962.413107873976 129.54745071575704 962.413107873976 129.54745071575704 870.9493867321171 172.22203257358558 M 908.5405501576936 44.19828700010004 Z" style="stroke:#298FF8; stroke-opacity: 1;fill:#A54AFC; fill-opacity: 0.37272727272727274;"/>
<path d="M 1033.4176731488474 218.95250885302906 Z" style="stroke:#B82C3A; stroke-opacity: 0;fill:#B82C3A; fill-opacity: 0;"/>
<circle cx="873.4176731488474" cy="218.9525088530291" r="160" style="stroke:#B82C3A; stroke-opacity: 0;fill:#B82C3A; fill-opacity: 0;"/>
<path d="M 1507.0176731488473 218.95250885302897 Z" style="stroke:#554F50; stroke-opacity: 0.3;fill:#554F50; fill-opacity: 0.05454545454545454;"/>
<circle cx="1347.0176731488473" cy="218.952508853029" r="160" style="stroke:#554F50; stroke-opacity: 0.3;fill:#554F50; fill-opacity: 0.05454545454545454;"/>
<path d="M 1431.8353462976947 -37.09498229394187 Z" style="stroke:#554F50; stroke-opacity: 0.3;fill:#554F50; fill-opacity: 0.05454545454545454;"/>
<circle cx="1271.8353462976947" cy="-37.094982293941825" r="160" style="stroke:#554F50; stroke-opacity: 0.3;fill:#554F50; fill-opacity: 0.05454545454545454;"/>
<path d="M 1230.1582233065408 -211.8492041468709 Z" style="stroke:#554F50; stroke-opacity: 0.3;fill:#554F50; fill-opacity: 0.05454545454545454;"/>
<circle cx="1070.1582233065408" cy="-211.84920414687087" r="160" style="stroke:#554F50; stroke-opacity: 0.3;fill:#554F50; fill-opacity: 0.05454545454545454;"/>
<path d="M 966.0173657426194 -249.82692602178062 Z" style="stroke:#554F50; stroke-opacity: 0.3;fill:#554F50; fill-opacity: 0.05454545454545454;"/>
<circle cx="806.0173657426194" cy="-249.8269260217806" r="160" style="stroke:#554F50; stroke-opacity: 0.3;fill:#554F50; fill-opacity: 0.05454545454545454;"/>
<path d="M 723.2756295523604 -138.97048956114762 Z" style="stroke:#554F50; stroke-opacity: 0.3;fill:#554F50; fill-opacity: 0.05454545454545454;"/>
<circle cx="563.2756295523604" cy="-138.9704895611476" r="160" style="stroke:#554F50; stroke-opacity: 0.3;fill:#554F50; fill-opacity: 0.05454545454545454;"/>
<path d="M 579.0018008450213 85.5239699329281 Z" style="stroke:#554F50; stroke-opacity: 0.3;fill:#554F50; fill-opacity: 0.05454545454545454;"/>
<circle cx="419.0018008450213" cy="85.52396993292814" r="160" style="stroke:#554F50; stroke-opacity: 0.3;fill:#554F50; fill-opacity: 0.05454545454545454;"/>
<path d="M 579.0018008450213 352.38104777313015 Z" style="stroke:#554F50; stroke-opacity: 0.3;fill:#554F50; fill-opacity: 0.05454545454545454;"/>
<circle cx="419.0018008450213" cy="352.3810477731302" r="160" style="stroke:#554F50; stroke-opacity: 0.3;fill:#554F50; fill-opacity: 0.05454545454545454;"/>
<path d="M 723.2756295523604 576.8755072672059 Z" style="stroke:#554F50; stroke-opacity: 0.3;fill:#554F50; fill-opacity: 0.05454545454545454;"/>
<circle cx="563.2756295523604" cy="576.8755072672059" r="160" style="stroke:#554F50; stroke-opacity: 0.3;fill:#554F50; fill-opacity: 0.05454545454545454;"/>
<path d="M 966.0173657426197 687.7319437278388 Z" style="stroke:#554F50; stroke-opacity: 0.3;fill:#554F50; fill-opacity: 0.05454545454545454;"/>
<circle cx="806.0173657426197" cy="687.7319437278388" r="160" style="stroke:#554F50; stroke-opacity: 0.3;fill:#554F50; fill-opacity: 0.05454545454545454;"/>
<path d="M 1230.1582233065408 649.754221852929 Z" style="stroke:#554F50; stroke-opacity: 0.3;fill:#554F50; fill-opacity: 0.05454545454545454;"/>
<circle cx="1070.1582233065408" cy="649.754221852929" r="160" style="stroke:#554F50; stroke-opacity: 0.3;fill:#554F50; fill-opacity: 0.05454545454545454;"/>
<path d="M 1431.8353462976947 474.99999999999994 Z" style="stroke:#554F50; stroke-opacity: 0.3;fill:#554F50; fill-opacity: 0.05454545454545454;"/>
<circle cx="1271.8353462976947" cy="475" r="160" style="stroke:#554F50; stroke-opacity: 0.3;fill:#554F50; fill-opacity: 0.05454545454545454;"/>
<path d="M 873.4176731488474 218.9525088530291 L 1271.8353462976947 475 L 1070.1582233065408 649.754221852929 Z" style="stroke:#F7B4C3; stroke-opacity: 0;fill:#F7B4C3; fill-opacity: 0;"/>
<path d="M 873.4176731488474 218.9525088530291 L 1070.1582233065408 649.754221852929 L 806.0173657426197 687.7319437278388 Z" style="stroke:#F7B4C3; stroke-opacity: 0;fill:#F7B4C3; fill-opacity: 0;"/>
<path d="M 873.4176731488474 218.9525088530291 L 806.0173657426197 687.7319437278388 L 563.2756295523604 576.8755072672059 Z" style="stroke:#F7B4C3; stroke-opacity: 0;fill:#F7B4C3; fill-opacity: 0;"/>
<path d="M 873.4176731488474 218.9525088530291 L 563.2756295523604 576.8755072672059 L 419.0018008450213 352.3810477731302 Z" style="stroke:#F7B4C3; stroke-opacity: 0;fill:#F7B4C3; fill-opacity: 0;"/>
<path d="M 873.4176731488474 218.9525088530291 L 419.0018008450213 352.3810477731302 L 419.0018008450213 85.52396993292814 Z" style="stroke:#F7B4C3; stroke-opacity: 0;fill:#F7B4C3; fill-opacity: 0;"/>
<path d="M 873.4176731488474 218.9525088530291 L 419.0018008450213 85.52396993292814 L 563.2756295523604 -138.9704895611476 Z" style="stroke:#F7B4C3; stroke-opacity: 0;fill:#F7B4C3; fill-opacity: 0;"/>
<path d="M 873.4176731488474 218.9525088530291 L 563.2756295523604 -138.9704895611476 L 806.0173657426194 -249.8269260217806 Z" style="stroke:#F7B4C3; stroke-opacity: 0;fill:#F7B4C3; fill-opacity: 0;"/>
<path d="M 873.4176731488474 218.9525088530291 L 806.0173657426194 -249.8269260217806 L 1070.1582233065408 -211.84920414687087 Z" style="stroke:#F7B4C3; stroke-opacity: 0;fill:#F7B4C3; fill-opacity: 0;"/>
<path d="M 873.4176731488474 218.9525088530291 L 1070.1582233065408 -211.84920414687087 L 1271.8353462976947 -37.094982293941825 Z" style="stroke:#F7B4C3; stroke-opacity: 0;fill:#F7B4C3; fill-opacity: 0;"/>
<path d="M 873.4176731488474 218.9525088530291 L 1271.8353462976947 -37.094982293941825 L 1347.0176731488473 218.952508853029 Z" style="stroke:#F7B4C3; stroke-opacity: 0;fill:#F7B4C3; fill-opacity: 0;"/>
<path d="M 873.4176731488474 218.9525088530291 L 1347.0176731488473 218.952508853029 L 1271.8353462976947 475 Z" style="stroke:#F7B4C3; stroke-opacity: 0;fill:#F7B4C3; fill-opacity: 0;"/>
<path d="M 1072.626509723271 346.97625442651474 C 1071.803747584361 447.9022435686526 1071.803747584361 447.9022435686526 971.787948227694 434.3533653529789 C 916.531087399336 518.8128914779322 916.531087399336 518.8128914779322 839.7175194457336 453.3422262904339 C 747.5702228146091 494.5199866160246 747.5702228146091 494.5199866160246 718.3466513506038 397.91400806011734 C 618.5650345154098 382.73635463112174 618.5650345154098 382.73635463112174 646.2097369969345 285.6667783130796 C 570.47375827963 218.95250885302914 570.47375827963 218.95250885302914 646.2097369969345 152.23823939297858 C 618.5650345154098 55.16866307493652 618.5650345154098 55.16866307493652 718.3466513506039 39.99100964594078 C 747.5702228146091 -56.614968909966365 747.5702228146091 -56.614968909966365 839.7175194457334 -15.437208584375725 C 916.5310873993359 -80.90787377187411 916.5310873993359 -80.90787377187411 971.7879482276942 3.5516523530791915 C 1071.803747584361 -9.997225862594473 1071.803747584361 -9.997225862594473 1072.626509723271 90.9287632795436 C 1164.0902308651296 133.6033451373721 1164.0902308651296 133.6033451373721 1110.217673148847 218.95250885302914 C 1164.0902308651298 304.301672568686 1164.0902308651298 304.301672568686 1072.6265097232708 346.9762544265145 M 1110.217673148847 218.95250885302892 Z" style="stroke:#298FF8; stroke-opacity: 1;fill:#A54AFC; fill-opacity: 0.37272727272727274;"/>
<path d="M 1108.6 474.9999999999998 Z" style="stroke:#B82C3A; stroke-opacity: 0;fill:#B82C3A; fill-opacity: 0;"/>
<circle cx="948.6" cy="474.99999999999983" r="160" style="stroke:#B82C3A; stroke-opacity: 0;fill:#B82C3A; fill-opacity: 0;"/>
<path d="M 1582.1999999999998 474.9999999999996 Z" style="stroke:#554F50; stroke-opacity: 0.3;fill:#554F50; fill-opacity: 0.05454545454545454;"/>
<circle cx="1422.1999999999998" cy="474.99999999999966" r="160" style="stroke:#554F50; stroke-opacity: 0.3;fill:#554F50; fill-opacity: 0.05454545454545454;"/>
<path d="M 1507.0176731488473 218.9525088530289 Z" style="stroke:#554F50; stroke-opacity: 0.3;fill:#554F50; fill-opacity: 0.05454545454545454;"/>
<circle cx="1347.0176731488473" cy="218.95250885302892" r="160" style="stroke:#554F50; stroke-opacity: 0.3;fill:#554F50; fill-opacity: 0.05454545454545454;"/>
<path d="M 1305.3405501576933 44.19828700009971 Z" style="stroke:#554F50; stroke-opacity: 0.3;fill:#554F50; fill-opacity: 0.05454545454545454;"/>
<circle cx="1145.3405501576933" cy="44.198287000099754" r="160" style="stroke:#554F50; stroke-opacity: 0.3;fill:#554F50; fill-opacity: 0.05454545454545454;"/>
<path d="M 1041.199692593772 6.220565125189996 Z" style="stroke:#554F50; stroke-opacity: 0.3;fill:#554F50; fill-opacity: 0.05454545454545454;"/>
<circle cx="881.199692593772" cy="6.220565125190035" r="160" style="stroke:#554F50; stroke-opacity: 0.3;fill:#554F50; fill-opacity: 0.05454545454545454;"/>
<path d="M 798.457956403513 117.07700158582311 Z" style="stroke:#554F50; stroke-opacity: 0.3;fill:#554F50; fill-opacity: 0.05454545454545454;"/>
<circle cx="638.457956403513" cy="117.07700158582315" r="160" style="stroke:#554F50; stroke-opacity: 0.3;fill:#554F50; fill-opacity: 0.05454545454545454;"/>
<path d="M 654.184127696174 341.5714610798988 Z" style="stroke:#554F50; stroke-opacity: 0.3;fill:#554F50; fill-opacity: 0.05454545454545454;"/>
<circle cx="494.18412769617396" cy="341.5714610798989" r="160" style="stroke:#554F50; stroke-opacity: 0.3;fill:#554F50; fill-opacity: 0.05454545454545454;"/>
<path d="M 654.1841276961743 608.4285389201008 Z" style="stroke:#554F50; stroke-opacity: 0.3;fill:#554F50; fill-opacity: 0.05454545454545454;"/>
<circle cx="494.1841276961743" cy="608.4285389201008" r="160" style="stroke:#554F50; stroke-opacity: 0.3;fill:#554F50; fill-opacity: 0.05454545454545454;"/>
<path d="M 798.457956403513 832.9229984141766 Z" style="stroke:#554F50; stroke-opacity: 0.3;fill:#554F50; fill-opacity: 0.05454545454545454;"/>
<circle cx="638.457956403513" cy="832.9229984141766" r="160" style="stroke:#554F50; stroke-opacity: 0.3;fill:#554F50; fill-opacity: 0.05454545454545454;"/>
<path d="M 1041.1996925937724 943.7794348748096 Z" style="stroke:#554F50; stroke-opacity: 0.3;fill:#554F50; fill-opacity: 0.05454545454545454;"/>
<circle cx="881.1996925937724" cy="943.7794348748096" r="160" style="stroke:#554F50; stroke-opacity: 0.3;fill:#554F50; fill-opacity: 0.05454545454545454;"/>
<path d="M 1305.3405501576933 905.8017129998999 Z" style="stroke:#554F50; stroke-opacity: 0.3;fill:#554F50; fill-opacity: 0.05454545454545454;"/>
<circle cx="1145.3405501576933" cy="905.8017129998999" r="160" style="stroke:#554F50; stroke-opacity: 0.3;fill:#554F50; fill-opacity: 0.05454545454545454;"/>
<path d="M 1507.0176731488473 731.0474911469707 Z" style="stroke:#554F50; stroke-opacity: 0.3;fill:#554F50; fill-opacity: 0.05454545454545454;"/>
<circle cx="1347.0176731488473" cy="731.0474911469707" r="160" style="stroke:#554F50; stroke-opacity: 0.3;fill:#554F50; fill-opacity: 0.05454545454545454;"/>
<path d="M 948.6 474.99999999999983 L 1347.0176731488473 731.0474911469707 L 1145.3405501576933 905.8017129998999 Z" style="stroke:#F7B4C3; stroke-opacity: 0;fill:#F7B4C3; fill-opacity: 0;"/>
<path d="M 948.6 474.99999999999983 L 1145.3405501576933 905.8017129998999 L 881.1996925937724 943.7794348748096 Z" style="stroke:#F7B4C3; stroke-opacity: 0;fill:#F7B4C3; fill-opacity: 0;"/>
<path d="M 948.6 474.99999999999983 L 881.1996925937724 943.7794348748096 L 638.457956403513 832.9229984141766 Z" style="stroke:#F7B4C3; stroke-opacity: 0;fill:#F7B4C3; fill-opacity: 0;"/>
<path d="M 948.6 474.99999999999983 L 638.457956403513 832.9229984141766 L 494.1841276961743 608.4285389201008 Z" style="stroke:#F7B4C3; stroke-opacity: 0;fill:#F7B4C3; fill-opacity: 0;"/>
<path d="M 948.6 474.99999999999983 L 494.1841276961743 608.4285389201008 L 494.18412769617396 341.5714610798989 Z" style="stroke:#F7B4C3; stroke-opacity: 0;fill:#F7B4C3; fill-opacity: 0;"/>
<path d="M 948.6 474.99999999999983 L 494.18412769617396 341.5714610798989 L 638.457956403513 117.07700158582315 Z" style="stroke:#F7B4C3; stroke-opacity: 0;fill:#F7B4C3; fill-opacity: 0;"/>
<path d="M 948.6 474.99999999999983 L 638.457956403513 117.07700158582315 L 881.199692593772 6.220565125190035 Z" style="stroke:#F7B4C3; stroke-opacity: 0;fill:#F7B4C3; fill-opacity: 0;"/>
<path d="M 948.6 474.99999999999983 L 881.199692593772 6.220565125190035 L 1145.3405501576933 44.198287000099754 Z" style="stroke:#F7B4C3; stroke-opacity: 0;fill:#F7B4C3; fill-opacity: 0;"/>
<path d="M 948.6 474.99999999999983 L 1145.3405501576933 44.198287000099754 L 1347.0176731488473 218.95250885302892 Z" style="stroke:#F7B4C3; stroke-opacity: 0;fill:#F7B4C3; fill-opacity: 0;"/>
<path d="M 948.6 474.99999999999983 L 1347.0176731488473 218.95250885302892 L 1422.1999999999998 474.99999999999966 Z" style="stroke:#F7B4C3; stroke-opacity: 0;fill:#F7B4C3; fill-opacity: 0;"/>
<path d="M 948.6 474.99999999999983 L 1422.1999999999998 474.99999999999966 L 1347.0176731488473 731.0474911469707 Z" style="stroke:#F7B4C3; stroke-opacity: 0;fill:#F7B4C3; fill-opacity: 0;"/>
<path d="M 1147.8088365744236 603.0237455734854 C 1146.9860744355135 703.9497347156233 1146.9860744355135 703.9497347156233 1046.9702750788465 690.4008564999497 C 991.7134142504885 774.8603826249029 991.7134142504885 774.8603826249029 914.8998462968864 709.3897174374046 C 822.7525496657618 750.5674777629953 822.7525496657618 750.5674777629953 793.5289782017564 653.9614992070883 C 693.7473613665622 638.7838457780924 693.7473613665622 638.7838457780924 721.392063848087 541.7142694600502 C 645.6560851307829 474.9999999999998 645.6560851307829 474.9999999999998 721.392063848087 408.28573053994944 C 693.7473613665624 311.21615422190723 693.7473613665624 311.21615422190723 793.5289782017563 296.03850079291146 C 822.7525496657616 199.43252223700438 822.7525496657616 199.43252223700438 914.8998462968859 240.61028256259493 C 991.7134142504883 175.13961737509655 991.7134142504883 175.13961737509655 1046.9702750788465 259.5991435000498 C 1146.9860744355135 246.05026528437622 1146.9860744355135 246.05026528437622 1147.8088365744236 346.9762544265144 C 1239.2725577162823 389.65083628434286 1239.2725577162823 389.65083628434286 1185.3999999999996 474.9999999999999 C 1239.272557716282 560.3491637156567 1239.272557716282 560.3491637156567 1147.8088365744234 603.0237455734851 M 1185.3999999999996 474.99999999999955 Z" style="stroke:#298FF8; stroke-opacity: 1;fill:#A54AFC; fill-opacity: 0.37272727272727274;"/>
<path d="M 635 474.99999999999994 Z" style="stroke:#B82C3A; stroke-opacity: 0;fill:#B82C3A; fill-opacity: 0;"/>
<circle cx="475" cy="475" r="160" style="stroke:#B82C3A; stroke-opacity: 0;fill:#B82C3A; fill-opacity: 0;"/>
<path d="M 1108.6 474.9999999999998 Z" style="stroke:#554F50; stroke-opacity: 0.3;fill:#554F50; fill-opacity: 0.05454545454545454;"/>
<circle cx="948.6" cy="474.99999999999983" r="160" style="stroke:#554F50; stroke-opacity: 0.3;fill:#554F50; fill-opacity: 0.05454545454545454;"/>
<path d="M 1033.4176731488474 218.95250885302906 Z" style="stroke:#554F50; stroke-opacity: 0.3;fill:#554F50; fill-opacity: 0.05454545454545454;"/>
<circle cx="873.4176731488474" cy="218.9525088530291" r="160" style="stroke:#554F50; stroke-opacity: 0.3;fill:#554F50; fill-opacity: 0.05454545454545454;"/>
<path d="M 831.7405501576934 44.19828700010005 Z" style="stroke:#554F50; stroke-opacity: 0.3;fill:#554F50; fill-opacity: 0.05454545454545454;"/>
<circle cx="671.7405501576934" cy="44.198287000100095" r="160" style="stroke:#554F50; stroke-opacity: 0.3;fill:#554F50; fill-opacity: 0.05454545454545454;"/>
<path d="M 567.5996925937721 6.220565125190337 Z" style="stroke:#554F50; stroke-opacity: 0.3;fill:#554F50; fill-opacity: 0.05454545454545454;"/>
<circle cx="407.59969259377215" cy="6.220565125190376" r="160" style="stroke:#554F50; stroke-opacity: 0.3;fill:#554F50; fill-opacity: 0.05454545454545454;"/>
<path d="M 324.857956403513 117.07700158582328 Z" style="stroke:#554F50; stroke-opacity: 0.3;fill:#554F50; fill-opacity: 0.05454545454545454;"/>
<circle cx="164.85795640351301" cy="117.07700158582333" r="160" style="stroke:#554F50; stroke-opacity: 0.3;fill:#554F50; fill-opacity: 0.05454545454545454;"/>
<path d="M 180.58412769617394 341.571461079899 Z" style="stroke:#554F50; stroke-opacity: 0.3;fill:#554F50; fill-opacity: 0.05454545454545454;"/>
<circle cx="20.584127696173937" cy="341.57146107989905" r="160" style="stroke:#554F50; stroke-opacity: 0.3;fill:#554F50; fill-opacity: 0.05454545454545454;"/>
<path d="M 180.5841276961741 608.4285389201011 Z" style="stroke:#554F50; stroke-opacity: 0.3;fill:#554F50; fill-opacity: 0.05454545454545454;"/>
<circle cx="20.584127696174107" cy="608.4285389201011" r="160" style="stroke:#554F50; stroke-opacity: 0.3;fill:#554F50; fill-opacity: 0.05454545454545454;"/>
<path d="M 324.857956403513 832.9229984141766 Z" style="stroke:#554F50; stroke-opacity: 0.3;fill:#554F50; fill-opacity: 0.05454545454545454;"/>
<circle cx="164.85795640351301" cy="832.9229984141766" r="160" style="stroke:#554F50; stroke-opacity: 0.3;fill:#554F50; fill-opacity: 0.05454545454545454;"/>
<path d="M 567.5996925937721 943.7794348748099 Z" style="stroke:#554F50; stroke-opacity: 0.3;fill:#554F50; fill-opacity: 0.05454545454545454;"/>
<circle cx="407.59969259377215" cy="943.7794348748099" r="160" style="stroke:#554F50; stroke-opacity: 0.3;fill:#554F50; fill-opacity: 0.05454545454545454;"/>
<path d="M 831.7405501576934 905.8017129998999 Z" style="stroke:#554F50; stroke-opacity: 0.3;fill:#554F50; fill-opacity: 0.05454545454545454;"/>
<circle cx="671.7405501576934" cy="905.8017129998999" r="160" style="stroke:#554F50; stroke-opacity: 0.3;fill:#554F50; fill-opacity: 0.05454545454545454;"/>
<path d="M 1033.4176731488474 731.0474911469711 Z" style="stroke:#554F50; stroke-opacity: 0.3;fill:#554F50; fill-opacity: 0.05454545454545454;"/>
<circle cx="873.4176731488474" cy="731.0474911469711" r="160" style="stroke:#554F50; stroke-opacity: 0.3;fill:#554F50; fill-opacity: 0.05454545454545454;"/>
<path d="M 475 475 L 873.4176731488474 731.0474911469711 L 671.7405501576934 905.8017129998999 Z" style="stroke:#F7B4C3; stroke-opacity: 0;fill:#F7B4C3; fill-opacity: 0;"/>
<path d="M 475 475 L 671.7405501576934 905.8017129998999 L 407.59969259377215 943.7794348748099 Z" style="stroke:#F7B4C3; stroke-opacity: 0;fill:#F7B4C3; fill-opacity: 0;"/>
<path d="M 475 475 L 407.59969259377215 943.7794348748099 L 164.85795640351301 832.9229984141766 Z" style="stroke:#F7B4C3; stroke-opacity: 0;fill:#F7B4C3; fill-opacity: 0;"/>
<path d="M 475 475 L 164.85795640351301 832.9229984141766 L 20.584127696174107 608.4285389201011 Z" style="stroke:#F7B4C3; stroke-opacity: 0;fill:#F7B4C3; fill-opacity: 0;"/>
<path d="M 475 475 L 20.584127696174107 608.4285389201011 L 20.584127696173937 341.57146107989905 Z" style="stroke:#F7B4C3; stroke-opacity: 0;fill:#F7B4C3; fill-opacity: 0;"/>
<path d="M 475 475 L 20.584127696173937 341.57146107989905 L 164.85795640351301 117.07700158582333 Z" style="stroke:#F7B4C3; stroke-opacity: 0;fill:#F7B4C3; fill-opacity: 0;"/>
<path d="M 475 475 L 164.85795640351301 117.07700158582333 L 407.59969259377215 6.220565125190376 Z" style="stroke:#F7B4C3; stroke-opacity: 0;fill:#F7B4C3; fill-opacity: 0;"/>
<path d="M 475 475 L 407.59969259377215 6.220565125190376 L 671.7405501576934 44.198287000100095 Z" style="stroke:#F7B4C3; stroke-opacity: 0;fill:#F7B4C3; fill-opacity: 0;"/>
<path d="M 475 475 L 671.7405501576934 44.198287000100095 L 873.4176731488474 218.9525088530291 Z" style="stroke:#F7B4C3; stroke-opacity: 0;fill:#F7B4C3; fill-opacity: 0;"/>
<path d="M 475 475 L 873.4176731488474 218.9525088530291 L 948.6 474.99999999999983 Z" style="stroke:#F7B4C3; stroke-opacity: 0;fill:#F7B4C3; fill-opacity: 0;"/>
<path d="M 475 475 L 948.6 474.99999999999983 L 873.4176731488474 731.0474911469711 Z" style="stroke:#F7B4C3; stroke-opacity: 0;fill:#F7B4C3; fill-opacity: 0;"/>
<path d="M 674.2088365744237 603.0237455734858 C 673.3860744355136 703.9497347156237 673.3860744355136 703.9497347156237 573.3702750788468 690.40085649995 C 518.1134142504885 774.8603826249032 518.1134142504885 774.8603826249032 441.299846296886 709.389717437405 C 349.1525496657617 750.5674777629955 349.1525496657617 750.5674777629955 319.92897820175654 653.9614992070884 C 220.14736136656245 638.7838457780925 220.14736136656245 638.7838457780925 247.79206384808714 541.7142694600507 C 172.0560851307827 475 172.0560851307827 475 247.7920638480869 408.28573053994955 C 220.1473613665623 311.21615422190746 220.1473613665623 311.21615422190746 319.9289782017564 296.03850079291163 C 349.15254966576174 199.43252223700455 349.15254966576174 199.43252223700455 441.2998462968861 240.61028256259516 C 518.1134142504884 175.13961737509686 518.1134142504884 175.13961737509686 573.3702750788466 259.59914350005005 C 673.3860744355136 246.05026528437637 673.3860744355136 246.05026528437637 674.2088365744237 346.9762544265144 C 765.6725577162824 389.650836284343 765.6725577162824 389.650836284343 711.8 474.99999999999983 C 765.6725577162825 560.3491637156569 765.6725577162825 560.3491637156569 674.2088365744238 603.0237455734855 M 711.8000000000002 474.9999999999999 Z" style="stroke:#298FF8; stroke-opacity: 1;fill:#A54AFC; fill-opacity: 0.37272727272727274;"/>
</g>
</svg>