<?xml version="1.0"?><!DOCTYPE svg PUBLIC "-//W3C//DTD SVG 1.1//EN" "http://www.w3.org/Graphics/SVG/1.1/DTD/svg11.dtd"><svg xmlns="http://www.w3.org/2000/svg" width="950" height="950">
<title>PatternSeventyThree</title>
<desc>
Generated using the following configuration:

@implementation NewPattern : PatternSeventyThree
+ (CPDict) defaultConfig
{
 return [CPDictionary dictionaryWithObjectsAndKeys:[[GRColor alloc] initWithGradientColors:[] baseColor:[CPColor colorWith8BitRed:101 green:41 blue:246 alpha:0.8392156862745098]], "background_color", 0, "background_color_direction", 3, "number_of_points", 0, "rotation", 1, "recurse_depth", 1.34, "factor_larger", [GRPoint pointWithX:475 Y:475], "center_point", 156, "radius", YES, "show_shapes", [[CPColor colorWith8BitRed:138 green:98 blue:136 alpha:0.5176470588235295],[CPColor colorWith8BitRed:207 green:246 blue:36 alpha:0.7607843137254902],[CPColor colorWith8BitRed:47 green:102 blue:149 alpha:0.12549019607843137],[CPColor colorWith8BitRed:185 green:178 blue:145 alpha:0.3137254901960784],[CPColor colorWith8BitRed:185 green:18 blue:16 alpha:0.0784313725490196],[CPColor colorWith8BitRed:51 green:63 blue:111 alpha:0.2627450980392157]], "stroke_colors", [[CPColor colorWith8BitRed:55 green:9 blue:179 alpha:0.5137254901960784],[CPColor colorWith8BitRed:145 green:210 blue:77 alpha:0.027450980392156862],[CPColor colorWith8BitRed:69 green:145 blue:247 alpha:0.3333333333333333],[CPColor colorWith8BitRed:45 green:144 blue:159 alpha:0.6588235294117647],[CPColor colorWith8BitRed:183 green:231 blue:148 alpha:0.7529411764705882],[CPColor colorWith8BitRed:161 green:11 blue:178 alpha:0.9764705882352941]], "fill_colors"];
}
@end

</desc>
  <defs>
    <linearGradient id="grad1" x1="0%" y1="0%" x2="100%" y2="0%">
<stop offset="100%" style="stop-color:#6529F6;stop-opacity:0.8392156862745098;" />
    </linearGradient>
  </defs>
<rect id="background" width="100%" height="100%" fill="url(#grad1)"/>
<g id="rotatelayer" transform="rotate(0, 475, 475)">
<path d="M 370.48 656.033950407099 C 335.9868580817874 657.8362778691139 335.9868580817874 657.8362778691139 318.22 746.5509256106486 C 300.4531419182127 835.2655733521833 300.4531419182127 835.2655733521833 265.96000000000004 837.0679008141981 C 282.3779632076603 746.5509256106486 282.3779632076603 746.5509256106486 265.96 656.0339504070992 C 249.54203679233967 565.5169752035497 249.54203679233967 565.5169752035497 265.9599999999999 475.0000000000001 C 250.27429040893696 505.77310088852164 250.27429040893696 505.77310088852164 318.21999999999997 565.5169752035496 C 386.165709591063 625.2608495185775 386.165709591063 625.2608495185775 370.48 656.033950407099 M 318.21999999999997 565.5169752035496 Z" style="stroke:#B91210; stroke-opacity: 0.0784313725490196;fill:#B7E794; fill-opacity: 0.7529411764705882;"/>
<path d="M 370.48 656.033950407099 C 386.165709591063 625.2608495185775 386.165709591063 625.2608495185775 318.21999999999997 565.5169752035496 C 250.27429040893696 505.77310088852164 250.27429040893696 505.77310088852164 265.9599999999999 475.0000000000001 C 336.1410183961698 534.4768608180069 336.1410183961698 534.4768608180069 422.73999999999995 565.5169752035496 C 509.3389816038301 596.5570895890922 509.3389816038301 596.5570895890922 579.52 656.033950407099 C 560.7125676728504 627.0631769805925 560.7125676728504 627.0631769805925 475 656.033950407099 C 389.28743232714965 685.0047238336056 389.28743232714965 685.0047238336056 370.48 656.033950407099 M 475 656.033950407099 Z" style="stroke:#333F6F; stroke-opacity: 0.2627450980392157;fill:#A10BB2; fill-opacity: 0.9764705882352941;"/>
<path d="M 370.48 656.033950407099 C 389.28743232714965 685.0047238336056 389.28743232714965 685.0047238336056 475 656.033950407099 C 560.7125676728504 627.0631769805925 560.7125676728504 627.0631769805925 579.52 656.033950407099 C 492.92101839616987 687.0740647926418 492.92101839616987 687.0740647926418 422.74 746.5509256106486 C 352.55898160383015 806.0277864286554 352.55898160383015 806.0277864286554 265.96000000000004 837.0679008141981 C 300.4531419182127 835.2655733521833 300.4531419182127 835.2655733521833 318.22 746.5509256106486 C 335.9868580817874 657.8362778691139 335.9868580817874 657.8362778691139 370.48 656.033950407099 M 318.22 746.5509256106486 Z" style="stroke:#B91210; stroke-opacity: 0.0784313725490196;fill:#B7E794; fill-opacity: 0.7529411764705882;"/>
<path d="M 292.09 610.7754628053243 L 274.67 610.7754628053242 L 283.38 656.033950407099 L 274.67 701.2924380088738 L 292.09 701.2924380088739 L 300.79999999999995 746.5509256106487 L 309.51000000000005 701.2924380088738 L 326.9300000000001 701.2924380088737 L 318.22 656.033950407099 L 326.93 610.7754628053243 L 309.51000000000005 610.7754628053242 L 300.80000000000007 565.5169752035494 Z" style="stroke:#B9B291; stroke-opacity: 0.3137254901960784;fill:#2D909F; fill-opacity: 0.6588235294117647;"/>
<path d="M 448.87 610.7754628053243 L 457.57999999999987 595.6893002713992 L 414.0299999999999 580.6031377374744 L 379.1899999999998 550.4308126696245 L 370.47999999999996 565.5169752035496 L 326.93 550.4308126696247 L 361.76999999999987 580.6031377374744 L 353.0599999999998 595.6893002713992 L 396.60999999999996 610.7754628053243 L 431.45000000000005 640.9477878731742 L 440.1599999999999 625.8616253392491 L 483.70999999999987 640.947787873174 Z" style="stroke:#B9B291; stroke-opacity: 0.3137254901960784;fill:#2D909F; fill-opacity: 0.6588235294117647;"/>
<path d="M 370.48 746.5509256106486 L 379.1900000000001 761.6370881445736 L 414.0300000000001 731.4647630767237 L 457.58000000000015 716.3786005427987 L 448.87000000000006 701.2924380088738 L 483.71000000000004 671.1201129410239 L 440.1600000000001 686.2062754749488 L 431.4500000000001 671.1201129410239 L 396.61 701.2924380088738 L 353.05999999999995 716.3786005427987 L 361.77000000000004 731.4647630767237 L 326.93000000000006 761.6370881445736 Z" style="stroke:#B9B291; stroke-opacity: 0.3137254901960784;fill:#2D909F; fill-opacity: 0.6588235294117647;"/>
<path d="M 370.4799999999999 293.966049592901 C 335.9868580817873 295.76837705491596 335.9868580817873 295.76837705491596 318.2199999999999 384.4830247964506 C 300.4531419182125 473.1976725379852 300.4531419182125 473.1976725379852 265.9599999999999 475.00000000000017 C 282.3779632076602 384.48302479645065 282.3779632076602 384.48302479645065 265.95999999999987 293.9660495929011 C 249.54203679233956 203.4490743893515 249.54203679233956 203.4490743893515 265.9599999999998 112.93209918580203 C 250.27429040893674 143.7052000743235 250.27429040893674 143.7052000743235 318.21999999999986 203.44907438935152 C 386.165709591063 263.19294870437955 386.165709591063 263.19294870437955 370.4799999999999 293.966049592901 M 318.21999999999986 203.44907438935152 Z" style="stroke:#B91210; stroke-opacity: 0.0784313725490196;fill:#B7E794; fill-opacity: 0.7529411764705882;"/>
<path d="M 370.4799999999999 293.966049592901 C 386.165709591063 263.19294870437955 386.165709591063 263.19294870437955 318.21999999999986 203.44907438935152 C 250.27429040893674 143.7052000743235 250.27429040893674 143.7052000743235 265.9599999999998 112.93209918580203 C 336.1410183961697 172.4089600038088 336.1410183961697 172.4089600038088 422.7399999999999 203.4490743893515 C 509.33898160383006 234.4891887748942 509.33898160383006 234.4891887748942 579.52 293.96604959290096 C 560.7125676728505 264.9952761663943 560.7125676728505 264.9952761663943 474.99999999999994 293.96604959290096 C 389.2874323271494 322.9368230194076 389.2874323271494 322.9368230194076 370.4799999999999 293.966049592901 M 474.99999999999994 293.96604959290096 Z" style="stroke:#333F6F; stroke-opacity: 0.2627450980392157;fill:#A10BB2; fill-opacity: 0.9764705882352941;"/>
<path d="M 370.4799999999999 293.966049592901 C 389.2874323271494 322.9368230194076 389.2874323271494 322.9368230194076 474.99999999999994 293.96604959290096 C 560.7125676728505 264.9952761663943 560.7125676728505 264.9952761663943 579.52 293.96604959290096 C 492.92101839616987 325.0061639784437 492.92101839616987 325.0061639784437 422.73999999999995 384.48302479645054 C 352.55898160383003 443.9598856144574 352.55898160383003 443.9598856144574 265.9599999999999 475.00000000000017 C 300.4531419182125 473.1976725379852 300.4531419182125 473.1976725379852 318.2199999999999 384.4830247964506 C 335.9868580817873 295.76837705491596 335.9868580817873 295.76837705491596 370.4799999999999 293.966049592901 M 318.2199999999999 384.4830247964506 Z" style="stroke:#B91210; stroke-opacity: 0.0784313725490196;fill:#B7E794; fill-opacity: 0.7529411764705882;"/>
<path d="M 292.08999999999986 248.70756199112628 L 274.6699999999999 248.70756199112623 L 283.3799999999999 293.9660495929011 L 274.6699999999999 339.22453719467586 L 292.08999999999986 339.2245371946759 L 300.79999999999984 384.48302479645076 L 309.50999999999993 339.22453719467586 L 326.93 339.2245371946758 L 318.2199999999999 293.9660495929011 L 326.9299999999999 248.70756199112628 L 309.50999999999993 248.70756199112623 L 300.79999999999995 203.44907438935138 Z" style="stroke:#B9B291; stroke-opacity: 0.3137254901960784;fill:#2D909F; fill-opacity: 0.6588235294117647;"/>
<path d="M 448.86999999999995 248.70756199112625 L 457.57999999999987 233.62139945720133 L 414.02999999999986 218.53523692327641 L 379.18999999999977 188.36291185542657 L 370.47999999999985 203.4490743893515 L 326.92999999999984 188.36291185542657 L 361.7699999999998 218.53523692327641 L 353.0599999999998 233.62139945720133 L 396.6099999999999 248.70756199112625 L 431.45 278.8798870589761 L 440.1599999999999 263.7937245250512 L 483.7099999999999 278.8798870589761 Z" style="stroke:#B9B291; stroke-opacity: 0.3137254901960784;fill:#2D909F; fill-opacity: 0.6588235294117647;"/>
<path d="M 370.4799999999999 384.4830247964506 L 379.18999999999977 399.56918733037566 L 414.02999999999986 369.3968622625257 L 457.5799999999998 354.3106997286008 L 448.86999999999995 339.22453719467575 L 483.71000000000004 309.0522121268258 L 440.15999999999985 324.1383746607509 L 431.44999999999976 309.0522121268261 L 396.6099999999999 339.2245371946758 L 353.05999999999995 354.3106997286007 L 361.7699999999998 369.39686226252576 L 326.9299999999997 399.5691873303757 Z" style="stroke:#B9B291; stroke-opacity: 0.3137254901960784;fill:#2D909F; fill-opacity: 0.6588235294117647;"/>
<path d="M 684.04 474.99999999999994 C 649.5468580817873 476.8023274620149 649.5468580817873 476.8023274620149 631.78 565.5169752035496 C 614.0131419182127 654.2316229450843 614.0131419182127 654.2316229450843 579.52 656.0339504070992 C 595.9379632076602 565.5169752035496 595.9379632076602 565.5169752035496 579.5199999999999 475.00000000000006 C 563.1020367923395 384.48302479645054 563.1020367923395 384.48302479645054 579.5199999999998 293.96604959290096 C 563.8342904089367 324.73915048142237 563.8342904089367 324.73915048142237 631.7799999999999 384.4830247964504 C 699.725709591063 444.2268991114785 699.725709591063 444.2268991114785 684.04 474.99999999999994 M 631.7799999999999 384.4830247964504 Z" style="stroke:#B91210; stroke-opacity: 0.0784313725490196;fill:#B7E794; fill-opacity: 0.7529411764705882;"/>
<path d="M 684.04 474.99999999999994 C 699.725709591063 444.2268991114785 699.725709591063 444.2268991114785 631.7799999999999 384.4830247964504 C 563.8342904089367 324.73915048142237 563.8342904089367 324.73915048142237 579.5199999999998 293.96604959290096 C 649.7010183961697 353.4429104109077 649.7010183961697 353.4429104109077 736.2999999999998 384.4830247964504 C 822.89898160383 415.52313918199314 822.89898160383 415.52313918199314 893.0799999999999 474.9999999999999 C 874.2725676728503 446.0292265734933 874.2725676728503 446.0292265734933 788.56 474.9999999999999 C 702.8474323271496 503.97077342650647 702.8474323271496 503.97077342650647 684.04 474.99999999999994 M 788.56 474.9999999999999 Z" style="stroke:#333F6F; stroke-opacity: 0.2627450980392157;fill:#A10BB2; fill-opacity: 0.9764705882352941;"/>
<path d="M 684.04 474.99999999999994 C 702.8474323271496 503.97077342650647 702.8474323271496 503.97077342650647 788.56 474.9999999999999 C 874.2725676728503 446.0292265734933 874.2725676728503 446.0292265734933 893.0799999999999 474.9999999999999 C 806.4810183961698 506.04011438554267 806.4810183961698 506.04011438554267 736.3 565.5169752035495 C 666.1189816038301 624.9938360215563 666.1189816038301 624.9938360215563 579.52 656.0339504070992 C 614.0131419182127 654.2316229450843 614.0131419182127 654.2316229450843 631.78 565.5169752035496 C 649.5468580817873 476.8023274620149 649.5468580817873 476.8023274620149 684.04 474.99999999999994 M 631.78 565.5169752035496 Z" style="stroke:#B91210; stroke-opacity: 0.0784313725490196;fill:#B7E794; fill-opacity: 0.7529411764705882;"/>
<path d="M 605.6499999999999 429.7415123982254 L 588.2299999999999 429.74151239822527 L 596.9399999999999 475 L 588.23 520.2584876017746 L 605.65 520.2584876017747 L 614.36 565.5169752035495 L 623.0699999999999 520.2584876017746 L 640.4899999999999 520.2584876017745 L 631.7799999999999 475 L 640.4899999999998 429.7415123982254 L 623.0699999999998 429.74151239822527 L 614.3599999999998 384.48302479645054 Z" style="stroke:#B9B291; stroke-opacity: 0.3137254901960784;fill:#2D909F; fill-opacity: 0.6588235294117647;"/>
<path d="M 762.43 429.74151239822515 L 771.1400000000002 414.6553498643002 L 727.59 399.5691873303753 L 692.7500000000001 369.3968622625255 L 684.0399999999998 384.4830247964504 L 640.4899999999997 369.39686226252553 L 675.33 399.56918733037537 L 666.6200000000002 414.6553498643003 L 710.17 429.7415123982252 L 745.0099999999999 459.91383746607505 L 753.7200000000001 444.8276749321501 L 797.2700000000003 459.913837466075 Z" style="stroke:#B9B291; stroke-opacity: 0.3137254901960784;fill:#2D909F; fill-opacity: 0.6588235294117647;"/>
<path d="M 684.04 565.5169752035496 L 692.7500000000001 580.6031377374745 L 727.59 550.4308126696246 L 771.1400000000001 535.3446501356997 L 762.43 520.2584876017747 L 797.2699999999999 490.08616253392483 L 753.72 505.1723250678498 L 745.0100000000001 490.08616253392483 L 710.17 520.2584876017747 L 666.6199999999999 535.3446501356997 L 675.33 550.4308126696246 L 640.4900000000001 580.6031377374745 Z" style="stroke:#B9B291; stroke-opacity: 0.3137254901960784;fill:#2D909F; fill-opacity: 0.6588235294117647;"/>
<path d="M 475 475 C 440.5068580817874 476.8023274620149 440.5068580817874 476.8023274620149 422.74 565.5169752035495 C 404.9731419182126 654.231622945084 404.9731419182126 654.231622945084 370.48 656.033950407099 C 386.89796320766027 565.5169752035495 386.89796320766027 565.5169752035495 370.47999999999996 475 C 354.06203679233965 384.48302479645054 354.06203679233965 384.48302479645054 370.4799999999999 293.966049592901 C 354.79429040893683 324.73915048142254 354.79429040893683 324.73915048142254 422.73999999999995 384.48302479645054 C 490.6857095910631 444.22689911147853 490.6857095910631 444.22689911147853 475 475 M 422.73999999999995 384.48302479645054 Z" style="stroke:#B91210; stroke-opacity: 0.0784313725490196;fill:#B7E794; fill-opacity: 0.7529411764705882;"/>
<path d="M 475 475 C 490.6857095910631 444.22689911147853 490.6857095910631 444.22689911147853 422.73999999999995 384.48302479645054 C 354.79429040893683 324.73915048142254 354.79429040893683 324.73915048142254 370.4799999999999 293.966049592901 C 440.6610183961698 353.4429104109078 440.6610183961698 353.4429104109078 527.26 384.4830247964505 C 613.8589816038302 415.52313918199314 613.8589816038302 415.52313918199314 684.04 474.99999999999994 C 665.2325676728503 446.02922657349353 665.2325676728503 446.02922657349353 579.52 475 C 493.8074323271496 503.97077342650647 493.8074323271496 503.97077342650647 475 475 M 579.52 475 Z" style="stroke:#333F6F; stroke-opacity: 0.2627450980392157;fill:#A10BB2; fill-opacity: 0.9764705882352941;"/>
<path d="M 475 475 C 493.8074323271496 503.97077342650647 493.8074323271496 503.97077342650647 579.52 475 C 665.2325676728503 446.02922657349353 665.2325676728503 446.02922657349353 684.04 474.99999999999994 C 597.4410183961699 506.0401143855427 597.4410183961699 506.0401143855427 527.26 565.5169752035495 C 457.07898160383013 624.9938360215563 457.07898160383013 624.9938360215563 370.48 656.033950407099 C 404.9731419182126 654.231622945084 404.9731419182126 654.231622945084 422.74 565.5169752035495 C 440.5068580817874 476.8023274620149 440.5068580817874 476.8023274620149 475 475 M 422.74 565.5169752035495 Z" style="stroke:#B91210; stroke-opacity: 0.0784313725490196;fill:#B7E794; fill-opacity: 0.7529411764705882;"/>
<path d="M 396.60999999999996 429.74151239822527 L 379.19 429.74151239822527 L 387.9 475.00000000000006 L 379.19 520.2584876017748 L 396.60999999999996 520.2584876017748 L 405.31999999999994 565.5169752035497 L 414.03000000000003 520.2584876017748 L 431.4500000000001 520.2584876017748 L 422.74 475.00000000000006 L 431.45 429.74151239822527 L 414.03000000000003 429.74151239822527 L 405.32000000000005 384.4830247964505 Z" style="stroke:#B9B291; stroke-opacity: 0.3137254901960784;fill:#2D909F; fill-opacity: 0.6588235294117647;"/>
<path d="M 553.39 429.7415123982252 L 562.1000000000003 414.65534986430026 L 518.5500000000001 399.56918733037537 L 483.71000000000015 369.39686226252553 L 474.9999999999999 384.4830247964505 L 431.4499999999997 369.3968622625256 L 466.2900000000001 399.5691873303754 L 457.58000000000027 414.6553498643004 L 501.13 429.74151239822527 L 535.9699999999999 459.9138374660751 L 544.6800000000002 444.82767493215016 L 588.2300000000004 459.91383746607505 Z" style="stroke:#B9B291; stroke-opacity: 0.3137254901960784;fill:#2D909F; fill-opacity: 0.6588235294117647;"/>
<path d="M 474.99999999999994 565.5169752035496 L 483.71000000000015 580.6031377374745 L 518.5500000000001 550.4308126696246 L 562.1000000000001 535.3446501356997 L 553.39 520.2584876017747 L 588.2299999999999 490.08616253392483 L 544.6800000000001 505.1723250678498 L 535.9700000000001 490.08616253392483 L 501.13 520.2584876017747 L 457.5799999999999 535.3446501356997 L 466.2900000000001 550.4308126696246 L 431.45000000000016 580.6031377374745 Z" style="stroke:#B9B291; stroke-opacity: 0.3137254901960784;fill:#2D909F; fill-opacity: 0.6588235294117647;"/>
</g>
</svg>