<?xml version="1.0"?><!DOCTYPE svg PUBLIC "-//W3C//DTD SVG 1.1//EN" "http://www.w3.org/Graphics/SVG/1.1/DTD/svg11.dtd"><svg xmlns="http://www.w3.org/2000/svg" width="950" height="950">
<title>PatternSeventyFour</title>
<desc>
Generated using the following configuration:

@implementation NewPattern : PatternSeventyFour
+ (CPDict) defaultConfig
{
 return [CPDictionary dictionaryWithObjectsAndKeys:[[GRColor alloc] initWithGradientColors:[] baseColor:[CPColor colorWith8BitRed:123 green:122 blue:192 alpha:1]], "background_color", 0, "background_color_direction", 11, "number_of_points", 162, "rotation", 1, "recurse_depth", 2.86, "factor_larger", [GRPoint pointWithX:475 Y:475], "center_point", 69, "radius", NO, "show_shapes", [[CPColor colorWith8BitRed:184 green:44 blue:58 alpha:0],[CPColor colorWith8BitRed:85 green:79 blue:80 alpha:0.3],[CPColor colorWith8BitRed:247 green:180 blue:195 alpha:0],[CPColor colorWith8BitRed:186 green:162 blue:207 alpha:1],[CPColor colorWith8BitRed:165 green:74 blue:252 alpha:1],[CPColor colorWith8BitRed:41 green:143 blue:248 alpha:1]], "stroke_colors", [[CPColor colorWith8BitRed:184 green:44 blue:58 alpha:0],[CPColor colorWith8BitRed:85 green:79 blue:80 alpha:0.05454545454545454],[CPColor colorWith8BitRed:247 green:180 blue:195 alpha:0],[CPColor colorWith8BitRed:240 green:31 blue:50 alpha:0],[CPColor colorWith8BitRed:186 green:162 blue:207 alpha:0.3],[CPColor colorWith8BitRed:165 green:74 blue:252 alpha:0.37272727272727274]], "fill_colors"];
}
@end

</desc>
  <defs>
    <linearGradient id="grad1" x1="0%" y1="0%" x2="100%" y2="0%">
<stop offset="100%" style="stop-color:#7B7AC0;stop-opacity:1;" />
    </linearGradient>
  </defs>
<rect id="background" width="100%" height="100%" fill="url(#grad1)"/>
<g id="rotatelayer" transform="rotate(162, 475, 475)">
<path d="M 710.0129721689054 581.6900589166877 Z" style="stroke:#B82C3A; stroke-opacity: 0;fill:#B82C3A; fill-opacity: 0;"/>
<circle cx="641.0129721689054" cy="581.6900589166877" r="69" style="stroke:#B82C3A; stroke-opacity: 0;fill:#B82C3A; fill-opacity: 0;"/>
<path d="M 907.3529721689055 581.6900589166877 Z" style="stroke:#554F50; stroke-opacity: 0.3;fill:#554F50; fill-opacity: 0.05454545454545454;"/>
<circle cx="838.3529721689055" cy="581.6900589166877" r="69" style="stroke:#554F50; stroke-opacity: 0.3;fill:#554F50; fill-opacity: 0.05454545454545454;"/>
<path d="M 876.0259443378109 475 Z" style="stroke:#554F50; stroke-opacity: 0.3;fill:#554F50; fill-opacity: 0.05454545454545454;"/>
<circle cx="807.0259443378109" cy="475" r="69" style="stroke:#554F50; stroke-opacity: 0.3;fill:#554F50; fill-opacity: 0.05454545454545454;"/>
<path d="M 791.9909708346976 402.18328095342713 Z" style="stroke:#554F50; stroke-opacity: 0.3;fill:#554F50; fill-opacity: 0.05454545454545454;"/>
<circle cx="722.9909708346976" cy="402.18328095342713" r="69" style="stroke:#554F50; stroke-opacity: 0.3;fill:#554F50; fill-opacity: 0.05454545454545454;"/>
<path d="M 681.9285619840554 386.35869557590433 Z" style="stroke:#554F50; stroke-opacity: 0.3;fill:#554F50; fill-opacity: 0.05454545454545454;"/>
<circle cx="612.9285619840554" cy="386.35869557590433" r="69" style="stroke:#554F50; stroke-opacity: 0.3;fill:#554F50; fill-opacity: 0.05454545454545454;"/>
<path d="M 580.7827549321429 432.55043791361834 Z" style="stroke:#554F50; stroke-opacity: 0.3;fill:#554F50; fill-opacity: 0.05454545454545454;"/>
<circle cx="511.7827549321429" cy="432.55043791361834" r="69" style="stroke:#554F50; stroke-opacity: 0.3;fill:#554F50; fill-opacity: 0.05454545454545454;"/>
<path d="M 520.6666287558205 526.0929561496001 Z" style="stroke:#554F50; stroke-opacity: 0.3;fill:#554F50; fill-opacity: 0.05454545454545454;"/>
<circle cx="451.6666287558205" cy="526.0929561496001" r="69" style="stroke:#554F50; stroke-opacity: 0.3;fill:#554F50; fill-opacity: 0.05454545454545454;"/>
<path d="M 520.6666287558205 637.2871616837756 Z" style="stroke:#554F50; stroke-opacity: 0.3;fill:#554F50; fill-opacity: 0.05454545454545454;"/>
<circle cx="451.6666287558205" cy="637.2871616837756" r="69" style="stroke:#554F50; stroke-opacity: 0.3;fill:#554F50; fill-opacity: 0.05454545454545454;"/>
<path d="M 580.7827549321429 730.829679919757 Z" style="stroke:#554F50; stroke-opacity: 0.3;fill:#554F50; fill-opacity: 0.05454545454545454;"/>
<circle cx="511.7827549321429" cy="730.829679919757" r="69" style="stroke:#554F50; stroke-opacity: 0.3;fill:#554F50; fill-opacity: 0.05454545454545454;"/>
<path d="M 681.9285619840554 777.021422257471 Z" style="stroke:#554F50; stroke-opacity: 0.3;fill:#554F50; fill-opacity: 0.05454545454545454;"/>
<circle cx="612.9285619840554" cy="777.021422257471" r="69" style="stroke:#554F50; stroke-opacity: 0.3;fill:#554F50; fill-opacity: 0.05454545454545454;"/>
<path d="M 791.9909708346976 761.1968368799483 Z" style="stroke:#554F50; stroke-opacity: 0.3;fill:#554F50; fill-opacity: 0.05454545454545454;"/>
<circle cx="722.9909708346976" cy="761.1968368799483" r="69" style="stroke:#554F50; stroke-opacity: 0.3;fill:#554F50; fill-opacity: 0.05454545454545454;"/>
<path d="M 876.0259443378109 688.3801178333754 Z" style="stroke:#554F50; stroke-opacity: 0.3;fill:#554F50; fill-opacity: 0.05454545454545454;"/>
<circle cx="807.0259443378109" cy="688.3801178333754" r="69" style="stroke:#554F50; stroke-opacity: 0.3;fill:#554F50; fill-opacity: 0.05454545454545454;"/>
<path d="M 641.0129721689054 581.6900589166877 L 807.0259443378109 688.3801178333754 L 722.9909708346976 761.1968368799483 Z" style="stroke:#F7B4C3; stroke-opacity: 0;fill:#F7B4C3; fill-opacity: 0;"/>
<path d="M 641.0129721689054 581.6900589166877 L 722.9909708346976 761.1968368799483 L 612.9285619840554 777.021422257471 Z" style="stroke:#F7B4C3; stroke-opacity: 0;fill:#F7B4C3; fill-opacity: 0;"/>
<path d="M 641.0129721689054 581.6900589166877 L 612.9285619840554 777.021422257471 L 511.7827549321429 730.829679919757 Z" style="stroke:#F7B4C3; stroke-opacity: 0;fill:#F7B4C3; fill-opacity: 0;"/>
<path d="M 641.0129721689054 581.6900589166877 L 511.7827549321429 730.829679919757 L 451.6666287558205 637.2871616837756 Z" style="stroke:#F7B4C3; stroke-opacity: 0;fill:#F7B4C3; fill-opacity: 0;"/>
<path d="M 641.0129721689054 581.6900589166877 L 451.6666287558205 637.2871616837756 L 451.6666287558205 526.0929561496001 Z" style="stroke:#F7B4C3; stroke-opacity: 0;fill:#F7B4C3; fill-opacity: 0;"/>
<path d="M 641.0129721689054 581.6900589166877 L 451.6666287558205 526.0929561496001 L 511.7827549321429 432.55043791361834 Z" style="stroke:#F7B4C3; stroke-opacity: 0;fill:#F7B4C3; fill-opacity: 0;"/>
<path d="M 641.0129721689054 581.6900589166877 L 511.7827549321429 432.55043791361834 L 612.9285619840554 386.35869557590433 Z" style="stroke:#F7B4C3; stroke-opacity: 0;fill:#F7B4C3; fill-opacity: 0;"/>
<path d="M 641.0129721689054 581.6900589166877 L 612.9285619840554 386.35869557590433 L 722.9909708346976 402.18328095342713 Z" style="stroke:#F7B4C3; stroke-opacity: 0;fill:#F7B4C3; fill-opacity: 0;"/>
<path d="M 641.0129721689054 581.6900589166877 L 722.9909708346976 402.18328095342713 L 807.0259443378109 475 Z" style="stroke:#F7B4C3; stroke-opacity: 0;fill:#F7B4C3; fill-opacity: 0;"/>
<path d="M 641.0129721689054 581.6900589166877 L 807.0259443378109 475 L 838.3529721689055 581.6900589166877 Z" style="stroke:#F7B4C3; stroke-opacity: 0;fill:#F7B4C3; fill-opacity: 0;"/>
<path d="M 641.0129721689054 581.6900589166877 L 838.3529721689055 581.6900589166877 L 807.0259443378109 688.3801178333754 Z" style="stroke:#F7B4C3; stroke-opacity: 0;fill:#F7B4C3; fill-opacity: 0;"/>
<path d="M 724.0194582533583 635.0350883750316 C 723.6766291138047 677.0890045433372 723.6766291138047 677.0890045433372 682.0019715018016 671.443447898318 C 658.9775016625528 706.6361060180359 658.9775016625528 706.6361060180359 626.9707670764802 679.3557405870795 C 588.5747630283679 696.5137203646386 588.5747630283679 696.5137203646386 576.3978635505242 656.2598694182224 C 534.8207852856231 649.93563350674 534.8207852856231 649.93563350674 546.3398004623631 609.4886103002317 C 514.7820765601821 581.6900589166878 514.7820765601821 581.6900589166878 546.339800462363 553.8915075331438 C 534.8207852856231 513.4444843266353 534.8207852856231 513.4444843266353 576.3978635505241 507.120248415153 C 588.5747630283679 466.86639746873675 588.5747630283679 466.86639746873675 626.9707670764805 484.024377246296 C 658.9775016625528 456.74401181533955 658.9775016625528 456.74401181533955 682.0019715018017 491.93666993505747 C 723.6766291138046 486.2911132900383 723.6766291138046 486.2911132900383 724.019458253358 528.3450294583438 C 762.1306295585406 546.1267059444585 762.1306295585406 546.1267059444585 739.6829721689055 581.6900589166876 C 762.1306295585406 617.2534118889168 762.1306295585406 617.2534118889168 724.019458253358 635.0350883750315 M 739.6829721689055 581.6900589166876 Z" style="stroke:#298FF8; stroke-opacity: 1;fill:#A54AFC; fill-opacity: 0.37272727272727274;"/>
<path d="M 625.9779986657923 654.5067779632606 Z" style="stroke:#B82C3A; stroke-opacity: 0;fill:#B82C3A; fill-opacity: 0;"/>
<circle cx="556.9779986657923" cy="654.5067779632606" r="69" style="stroke:#B82C3A; stroke-opacity: 0;fill:#B82C3A; fill-opacity: 0;"/>
<path d="M 823.3179986657923 654.5067779632606 Z" style="stroke:#554F50; stroke-opacity: 0.3;fill:#554F50; fill-opacity: 0.05454545454545454;"/>
<circle cx="754.3179986657923" cy="654.5067779632606" r="69" style="stroke:#554F50; stroke-opacity: 0.3;fill:#554F50; fill-opacity: 0.05454545454545454;"/>
<path d="M 791.9909708346977 547.8167190465729 Z" style="stroke:#554F50; stroke-opacity: 0.3;fill:#554F50; fill-opacity: 0.05454545454545454;"/>
<circle cx="722.9909708346977" cy="547.8167190465729" r="69" style="stroke:#554F50; stroke-opacity: 0.3;fill:#554F50; fill-opacity: 0.05454545454545454;"/>
<path d="M 707.9559973315844 475 Z" style="stroke:#554F50; stroke-opacity: 0.3;fill:#554F50; fill-opacity: 0.05454545454545454;"/>
<circle cx="638.9559973315844" cy="475" r="69" style="stroke:#554F50; stroke-opacity: 0.3;fill:#554F50; fill-opacity: 0.05454545454545454;"/>
<path d="M 597.8935884809422 459.1754146224772 Z" style="stroke:#554F50; stroke-opacity: 0.3;fill:#554F50; fill-opacity: 0.05454545454545454;"/>
<circle cx="528.8935884809422" cy="459.1754146224772" r="69" style="stroke:#554F50; stroke-opacity: 0.3;fill:#554F50; fill-opacity: 0.05454545454545454;"/>
<path d="M 496.7477814290297 505.3671569601912 Z" style="stroke:#554F50; stroke-opacity: 0.3;fill:#554F50; fill-opacity: 0.05454545454545454;"/>
<circle cx="427.7477814290297" cy="505.3671569601912" r="69" style="stroke:#554F50; stroke-opacity: 0.3;fill:#554F50; fill-opacity: 0.05454545454545454;"/>
<path d="M 436.63165525270733 598.909675196173 Z" style="stroke:#554F50; stroke-opacity: 0.3;fill:#554F50; fill-opacity: 0.05454545454545454;"/>
<circle cx="367.63165525270733" cy="598.909675196173" r="69" style="stroke:#554F50; stroke-opacity: 0.3;fill:#554F50; fill-opacity: 0.05454545454545454;"/>
<path d="M 436.63165525270733 710.1038807303485 Z" style="stroke:#554F50; stroke-opacity: 0.3;fill:#554F50; fill-opacity: 0.05454545454545454;"/>
<circle cx="367.63165525270733" cy="710.1038807303485" r="69" style="stroke:#554F50; stroke-opacity: 0.3;fill:#554F50; fill-opacity: 0.05454545454545454;"/>
<path d="M 496.7477814290297 803.6463989663299 Z" style="stroke:#554F50; stroke-opacity: 0.3;fill:#554F50; fill-opacity: 0.05454545454545454;"/>
<circle cx="427.7477814290297" cy="803.6463989663299" r="69" style="stroke:#554F50; stroke-opacity: 0.3;fill:#554F50; fill-opacity: 0.05454545454545454;"/>
<path d="M 597.8935884809422 849.8381413040439 Z" style="stroke:#554F50; stroke-opacity: 0.3;fill:#554F50; fill-opacity: 0.05454545454545454;"/>
<circle cx="528.8935884809422" cy="849.8381413040439" r="69" style="stroke:#554F50; stroke-opacity: 0.3;fill:#554F50; fill-opacity: 0.05454545454545454;"/>
<path d="M 707.9559973315844 834.0135559265211 Z" style="stroke:#554F50; stroke-opacity: 0.3;fill:#554F50; fill-opacity: 0.05454545454545454;"/>
<circle cx="638.9559973315844" cy="834.0135559265211" r="69" style="stroke:#554F50; stroke-opacity: 0.3;fill:#554F50; fill-opacity: 0.05454545454545454;"/>
<path d="M 791.9909708346977 761.1968368799483 Z" style="stroke:#554F50; stroke-opacity: 0.3;fill:#554F50; fill-opacity: 0.05454545454545454;"/>
<circle cx="722.9909708346977" cy="761.1968368799483" r="69" style="stroke:#554F50; stroke-opacity: 0.3;fill:#554F50; fill-opacity: 0.05454545454545454;"/>
<path d="M 556.9779986657923 654.5067779632606 L 722.9909708346977 761.1968368799483 L 638.9559973315844 834.0135559265211 Z" style="stroke:#F7B4C3; stroke-opacity: 0;fill:#F7B4C3; fill-opacity: 0;"/>
<path d="M 556.9779986657923 654.5067779632606 L 638.9559973315844 834.0135559265211 L 528.8935884809422 849.8381413040439 Z" style="stroke:#F7B4C3; stroke-opacity: 0;fill:#F7B4C3; fill-opacity: 0;"/>
<path d="M 556.9779986657923 654.5067779632606 L 528.8935884809422 849.8381413040439 L 427.7477814290297 803.6463989663299 Z" style="stroke:#F7B4C3; stroke-opacity: 0;fill:#F7B4C3; fill-opacity: 0;"/>
<path d="M 556.9779986657923 654.5067779632606 L 427.7477814290297 803.6463989663299 L 367.63165525270733 710.1038807303485 Z" style="stroke:#F7B4C3; stroke-opacity: 0;fill:#F7B4C3; fill-opacity: 0;"/>
<path d="M 556.9779986657923 654.5067779632606 L 367.63165525270733 710.1038807303485 L 367.63165525270733 598.909675196173 Z" style="stroke:#F7B4C3; stroke-opacity: 0;fill:#F7B4C3; fill-opacity: 0;"/>
<path d="M 556.9779986657923 654.5067779632606 L 367.63165525270733 598.909675196173 L 427.7477814290297 505.3671569601912 Z" style="stroke:#F7B4C3; stroke-opacity: 0;fill:#F7B4C3; fill-opacity: 0;"/>
<path d="M 556.9779986657923 654.5067779632606 L 427.7477814290297 505.3671569601912 L 528.8935884809422 459.1754146224772 Z" style="stroke:#F7B4C3; stroke-opacity: 0;fill:#F7B4C3; fill-opacity: 0;"/>
<path d="M 556.9779986657923 654.5067779632606 L 528.8935884809422 459.1754146224772 L 638.9559973315844 475 Z" style="stroke:#F7B4C3; stroke-opacity: 0;fill:#F7B4C3; fill-opacity: 0;"/>
<path d="M 556.9779986657923 654.5067779632606 L 638.9559973315844 475 L 722.9909708346977 547.8167190465729 Z" style="stroke:#F7B4C3; stroke-opacity: 0;fill:#F7B4C3; fill-opacity: 0;"/>
<path d="M 556.9779986657923 654.5067779632606 L 722.9909708346977 547.8167190465729 L 754.3179986657923 654.5067779632606 Z" style="stroke:#F7B4C3; stroke-opacity: 0;fill:#F7B4C3; fill-opacity: 0;"/>
<path d="M 556.9779986657923 654.5067779632606 L 754.3179986657923 654.5067779632606 L 722.9909708346977 761.1968368799483 Z" style="stroke:#F7B4C3; stroke-opacity: 0;fill:#F7B4C3; fill-opacity: 0;"/>
<path d="M 639.9844847502451 707.8518074216045 C 639.6416556106915 749.90572358991 639.6416556106915 749.90572358991 597.9669979986884 744.2601669448909 C 574.9425281594396 779.4528250646088 574.9425281594396 779.4528250646088 542.935793573367 752.1724596336524 C 504.53978952525466 769.3304394112115 504.53978952525466 769.3304394112115 492.36289004741093 729.0765884647952 C 450.7858117825099 722.7523525533129 450.7858117825099 722.7523525533129 462.3048269592499 682.3053293468046 C 430.7471030570689 654.5067779632607 430.7471030570689 654.5067779632607 462.3048269592498 626.7082265797167 C 450.78581178250977 586.2612033732082 450.78581178250977 586.2612033732082 492.36289004741093 579.9369674617259 C 504.5397895252547 539.6831165153096 504.5397895252547 539.6831165153096 542.9357935733673 556.8410962928689 C 574.9425281594396 529.5607308619124 574.9425281594396 529.5607308619124 597.9669979986885 564.7533889816303 C 639.6416556106914 559.1078323366111 639.6416556106914 559.1078323366111 639.9844847502449 601.1617485049167 C 678.0956560554274 618.9434249910314 678.0956560554274 618.9434249910314 655.6479986657923 654.5067779632604 C 678.0956560554274 690.0701309354897 678.0956560554274 690.0701309354897 639.9844847502449 707.8518074216043 M 655.6479986657923 654.5067779632604 Z" style="stroke:#298FF8; stroke-opacity: 1;fill:#A54AFC; fill-opacity: 0.37272727272727274;"/>
<path d="M 515.9155898151498 670.3313633407834 Z" style="stroke:#B82C3A; stroke-opacity: 0;fill:#B82C3A; fill-opacity: 0;"/>
<circle cx="446.9155898151499" cy="670.3313633407834" r="69" style="stroke:#B82C3A; stroke-opacity: 0;fill:#B82C3A; fill-opacity: 0;"/>
<path d="M 713.2555898151497 670.3313633407834 Z" style="stroke:#554F50; stroke-opacity: 0.3;fill:#554F50; fill-opacity: 0.05454545454545454;"/>
<circle cx="644.2555898151497" cy="670.3313633407834" r="69" style="stroke:#554F50; stroke-opacity: 0.3;fill:#554F50; fill-opacity: 0.05454545454545454;"/>
<path d="M 681.9285619840551 563.6413044240957 Z" style="stroke:#554F50; stroke-opacity: 0.3;fill:#554F50; fill-opacity: 0.05454545454545454;"/>
<circle cx="612.9285619840551" cy="563.6413044240957" r="69" style="stroke:#554F50; stroke-opacity: 0.3;fill:#554F50; fill-opacity: 0.05454545454545454;"/>
<path d="M 597.8935884809421 490.8245853775228 Z" style="stroke:#554F50; stroke-opacity: 0.3;fill:#554F50; fill-opacity: 0.05454545454545454;"/>
<circle cx="528.8935884809421" cy="490.8245853775228" r="69" style="stroke:#554F50; stroke-opacity: 0.3;fill:#554F50; fill-opacity: 0.05454545454545454;"/>
<path d="M 487.83117963029974 475 Z" style="stroke:#554F50; stroke-opacity: 0.3;fill:#554F50; fill-opacity: 0.05454545454545454;"/>
<circle cx="418.83117963029974" cy="475" r="69" style="stroke:#554F50; stroke-opacity: 0.3;fill:#554F50; fill-opacity: 0.05454545454545454;"/>
<path d="M 386.6853725783874 521.191742337714 Z" style="stroke:#554F50; stroke-opacity: 0.3;fill:#554F50; fill-opacity: 0.05454545454545454;"/>
<circle cx="317.6853725783874" cy="521.191742337714" r="69" style="stroke:#554F50; stroke-opacity: 0.3;fill:#554F50; fill-opacity: 0.05454545454545454;"/>
<path d="M 326.5692464020649 614.7342605736958 Z" style="stroke:#554F50; stroke-opacity: 0.3;fill:#554F50; fill-opacity: 0.05454545454545454;"/>
<circle cx="257.5692464020649" cy="614.7342605736958" r="69" style="stroke:#554F50; stroke-opacity: 0.3;fill:#554F50; fill-opacity: 0.05454545454545454;"/>
<path d="M 326.5692464020649 725.9284661078713 Z" style="stroke:#554F50; stroke-opacity: 0.3;fill:#554F50; fill-opacity: 0.05454545454545454;"/>
<circle cx="257.5692464020649" cy="725.9284661078713" r="69" style="stroke:#554F50; stroke-opacity: 0.3;fill:#554F50; fill-opacity: 0.05454545454545454;"/>
<path d="M 386.6853725783874 819.4709843438527 Z" style="stroke:#554F50; stroke-opacity: 0.3;fill:#554F50; fill-opacity: 0.05454545454545454;"/>
<circle cx="317.6853725783874" cy="819.4709843438527" r="69" style="stroke:#554F50; stroke-opacity: 0.3;fill:#554F50; fill-opacity: 0.05454545454545454;"/>
<path d="M 487.83117963029974 865.6627266815667 Z" style="stroke:#554F50; stroke-opacity: 0.3;fill:#554F50; fill-opacity: 0.05454545454545454;"/>
<circle cx="418.83117963029974" cy="865.6627266815667" r="69" style="stroke:#554F50; stroke-opacity: 0.3;fill:#554F50; fill-opacity: 0.05454545454545454;"/>
<path d="M 597.8935884809422 849.8381413040439 Z" style="stroke:#554F50; stroke-opacity: 0.3;fill:#554F50; fill-opacity: 0.05454545454545454;"/>
<circle cx="528.8935884809422" cy="849.8381413040439" r="69" style="stroke:#554F50; stroke-opacity: 0.3;fill:#554F50; fill-opacity: 0.05454545454545454;"/>
<path d="M 681.9285619840551 777.021422257471 Z" style="stroke:#554F50; stroke-opacity: 0.3;fill:#554F50; fill-opacity: 0.05454545454545454;"/>
<circle cx="612.9285619840551" cy="777.021422257471" r="69" style="stroke:#554F50; stroke-opacity: 0.3;fill:#554F50; fill-opacity: 0.05454545454545454;"/>
<path d="M 446.9155898151499 670.3313633407834 L 612.9285619840551 777.021422257471 L 528.8935884809422 849.8381413040439 Z" style="stroke:#F7B4C3; stroke-opacity: 0;fill:#F7B4C3; fill-opacity: 0;"/>
<path d="M 446.9155898151499 670.3313633407834 L 528.8935884809422 849.8381413040439 L 418.83117963029974 865.6627266815667 Z" style="stroke:#F7B4C3; stroke-opacity: 0;fill:#F7B4C3; fill-opacity: 0;"/>
<path d="M 446.9155898151499 670.3313633407834 L 418.83117963029974 865.6627266815667 L 317.6853725783874 819.4709843438527 Z" style="stroke:#F7B4C3; stroke-opacity: 0;fill:#F7B4C3; fill-opacity: 0;"/>
<path d="M 446.9155898151499 670.3313633407834 L 317.6853725783874 819.4709843438527 L 257.5692464020649 725.9284661078713 Z" style="stroke:#F7B4C3; stroke-opacity: 0;fill:#F7B4C3; fill-opacity: 0;"/>
<path d="M 446.9155898151499 670.3313633407834 L 257.5692464020649 725.9284661078713 L 257.5692464020649 614.7342605736958 Z" style="stroke:#F7B4C3; stroke-opacity: 0;fill:#F7B4C3; fill-opacity: 0;"/>
<path d="M 446.9155898151499 670.3313633407834 L 257.5692464020649 614.7342605736958 L 317.6853725783874 521.191742337714 Z" style="stroke:#F7B4C3; stroke-opacity: 0;fill:#F7B4C3; fill-opacity: 0;"/>
<path d="M 446.9155898151499 670.3313633407834 L 317.6853725783874 521.191742337714 L 418.83117963029974 475 Z" style="stroke:#F7B4C3; stroke-opacity: 0;fill:#F7B4C3; fill-opacity: 0;"/>
<path d="M 446.9155898151499 670.3313633407834 L 418.83117963029974 475 L 528.8935884809421 490.8245853775228 Z" style="stroke:#F7B4C3; stroke-opacity: 0;fill:#F7B4C3; fill-opacity: 0;"/>
<path d="M 446.9155898151499 670.3313633407834 L 528.8935884809421 490.8245853775228 L 612.9285619840551 563.6413044240957 Z" style="stroke:#F7B4C3; stroke-opacity: 0;fill:#F7B4C3; fill-opacity: 0;"/>
<path d="M 446.9155898151499 670.3313633407834 L 612.9285619840551 563.6413044240957 L 644.2555898151497 670.3313633407834 Z" style="stroke:#F7B4C3; stroke-opacity: 0;fill:#F7B4C3; fill-opacity: 0;"/>
<path d="M 446.9155898151499 670.3313633407834 L 644.2555898151497 670.3313633407834 L 612.9285619840551 777.021422257471 Z" style="stroke:#F7B4C3; stroke-opacity: 0;fill:#F7B4C3; fill-opacity: 0;"/>
<path d="M 529.9220758996024 723.6763927991273 C 529.579246760049 765.7303089674328 529.579246760049 765.7303089674328 487.90458914804606 760.0847523224137 C 464.8801193087973 795.2774104421314 464.8801193087973 795.2774104421314 432.87338472272484 767.9970450111751 C 394.47738067461233 785.1550247887343 394.47738067461233 785.1550247887343 382.3004811967686 744.901173842318 C 340.7234029318674 738.5769379308357 340.7234029318674 738.5769379308357 352.24241810860735 698.1299147243274 C 320.68469420642646 670.3313633407835 320.68469420642646 670.3313633407835 352.24241810860735 642.5328119572395 C 340.7234029318674 602.085788750731 340.7234029318674 602.085788750731 382.3004811967686 595.7615528392487 C 394.47738067461233 555.5077018928324 394.47738067461233 555.5077018928324 432.87338472272484 572.6656816703917 C 464.8801193087972 545.3853162394353 464.8801193087972 545.3853162394353 487.90458914804606 580.5779743591531 C 529.579246760049 574.9324177141339 529.579246760049 574.9324177141339 529.9220758996025 616.9863338824395 C 568.0332472047849 634.7680103685542 568.0332472047849 634.7680103685542 545.5855898151498 670.3313633407835 C 568.0332472047849 705.8947163130125 568.0332472047849 705.8947163130125 529.9220758996023 723.6763927991271 M 545.5855898151498 670.3313633407832 Z" style="stroke:#298FF8; stroke-opacity: 1;fill:#A54AFC; fill-opacity: 0.37272727272727274;"/>
<path d="M 414.76978276323746 624.1396210030694 Z" style="stroke:#B82C3A; stroke-opacity: 0;fill:#B82C3A; fill-opacity: 0;"/>
<circle cx="345.76978276323746" cy="624.1396210030694" r="69" style="stroke:#B82C3A; stroke-opacity: 0;fill:#B82C3A; fill-opacity: 0;"/>
<path d="M 612.1097827632375 624.1396210030694 Z" style="stroke:#554F50; stroke-opacity: 0.3;fill:#554F50; fill-opacity: 0.05454545454545454;"/>
<circle cx="543.1097827632375" cy="624.1396210030694" r="69" style="stroke:#554F50; stroke-opacity: 0.3;fill:#554F50; fill-opacity: 0.05454545454545454;"/>
<path d="M 580.7827549321428 517.4495620863817 Z" style="stroke:#554F50; stroke-opacity: 0.3;fill:#554F50; fill-opacity: 0.05454545454545454;"/>
<circle cx="511.7827549321428" cy="517.4495620863817" r="69" style="stroke:#554F50; stroke-opacity: 0.3;fill:#554F50; fill-opacity: 0.05454545454545454;"/>
<path d="M 496.7477814290296 444.6328430398088 Z" style="stroke:#554F50; stroke-opacity: 0.3;fill:#554F50; fill-opacity: 0.05454545454545454;"/>
<circle cx="427.7477814290296" cy="444.6328430398088" r="69" style="stroke:#554F50; stroke-opacity: 0.3;fill:#554F50; fill-opacity: 0.05454545454545454;"/>
<path d="M 386.68537257838733 428.808257662286 Z" style="stroke:#554F50; stroke-opacity: 0.3;fill:#554F50; fill-opacity: 0.05454545454545454;"/>
<circle cx="317.68537257838733" cy="428.808257662286" r="69" style="stroke:#554F50; stroke-opacity: 0.3;fill:#554F50; fill-opacity: 0.05454545454545454;"/>
<path d="M 285.5395655264749 475 Z" style="stroke:#554F50; stroke-opacity: 0.3;fill:#554F50; fill-opacity: 0.05454545454545454;"/>
<circle cx="216.53956552647495" cy="475" r="69" style="stroke:#554F50; stroke-opacity: 0.3;fill:#554F50; fill-opacity: 0.05454545454545454;"/>
<path d="M 225.4234393501525 568.5425182359818 Z" style="stroke:#554F50; stroke-opacity: 0.3;fill:#554F50; fill-opacity: 0.05454545454545454;"/>
<circle cx="156.4234393501525" cy="568.5425182359818" r="69" style="stroke:#554F50; stroke-opacity: 0.3;fill:#554F50; fill-opacity: 0.05454545454545454;"/>
<path d="M 225.4234393501525 679.7367237701573 Z" style="stroke:#554F50; stroke-opacity: 0.3;fill:#554F50; fill-opacity: 0.05454545454545454;"/>
<circle cx="156.4234393501525" cy="679.7367237701573" r="69" style="stroke:#554F50; stroke-opacity: 0.3;fill:#554F50; fill-opacity: 0.05454545454545454;"/>
<path d="M 285.5395655264749 773.2792420061387 Z" style="stroke:#554F50; stroke-opacity: 0.3;fill:#554F50; fill-opacity: 0.05454545454545454;"/>
<circle cx="216.53956552647495" cy="773.2792420061387" r="69" style="stroke:#554F50; stroke-opacity: 0.3;fill:#554F50; fill-opacity: 0.05454545454545454;"/>
<path d="M 386.68537257838733 819.4709843438527 Z" style="stroke:#554F50; stroke-opacity: 0.3;fill:#554F50; fill-opacity: 0.05454545454545454;"/>
<circle cx="317.68537257838733" cy="819.4709843438527" r="69" style="stroke:#554F50; stroke-opacity: 0.3;fill:#554F50; fill-opacity: 0.05454545454545454;"/>
<path d="M 496.74778142902977 803.6463989663299 Z" style="stroke:#554F50; stroke-opacity: 0.3;fill:#554F50; fill-opacity: 0.05454545454545454;"/>
<circle cx="427.74778142902977" cy="803.6463989663299" r="69" style="stroke:#554F50; stroke-opacity: 0.3;fill:#554F50; fill-opacity: 0.05454545454545454;"/>
<path d="M 580.7827549321428 730.829679919757 Z" style="stroke:#554F50; stroke-opacity: 0.3;fill:#554F50; fill-opacity: 0.05454545454545454;"/>
<circle cx="511.7827549321428" cy="730.829679919757" r="69" style="stroke:#554F50; stroke-opacity: 0.3;fill:#554F50; fill-opacity: 0.05454545454545454;"/>
<path d="M 345.76978276323746 624.1396210030694 L 511.7827549321428 730.829679919757 L 427.74778142902977 803.6463989663299 Z" style="stroke:#F7B4C3; stroke-opacity: 0;fill:#F7B4C3; fill-opacity: 0;"/>
<path d="M 345.76978276323746 624.1396210030694 L 427.74778142902977 803.6463989663299 L 317.68537257838733 819.4709843438527 Z" style="stroke:#F7B4C3; stroke-opacity: 0;fill:#F7B4C3; fill-opacity: 0;"/>
<path d="M 345.76978276323746 624.1396210030694 L 317.68537257838733 819.4709843438527 L 216.53956552647495 773.2792420061387 Z" style="stroke:#F7B4C3; stroke-opacity: 0;fill:#F7B4C3; fill-opacity: 0;"/>
<path d="M 345.76978276323746 624.1396210030694 L 216.53956552647495 773.2792420061387 L 156.4234393501525 679.7367237701573 Z" style="stroke:#F7B4C3; stroke-opacity: 0;fill:#F7B4C3; fill-opacity: 0;"/>
<path d="M 345.76978276323746 624.1396210030694 L 156.4234393501525 679.7367237701573 L 156.4234393501525 568.5425182359818 Z" style="stroke:#F7B4C3; stroke-opacity: 0;fill:#F7B4C3; fill-opacity: 0;"/>
<path d="M 345.76978276323746 624.1396210030694 L 156.4234393501525 568.5425182359818 L 216.53956552647495 475 Z" style="stroke:#F7B4C3; stroke-opacity: 0;fill:#F7B4C3; fill-opacity: 0;"/>
<path d="M 345.76978276323746 624.1396210030694 L 216.53956552647495 475 L 317.68537257838733 428.808257662286 Z" style="stroke:#F7B4C3; stroke-opacity: 0;fill:#F7B4C3; fill-opacity: 0;"/>
<path d="M 345.76978276323746 624.1396210030694 L 317.68537257838733 428.808257662286 L 427.7477814290296 444.6328430398088 Z" style="stroke:#F7B4C3; stroke-opacity: 0;fill:#F7B4C3; fill-opacity: 0;"/>
<path d="M 345.76978276323746 624.1396210030694 L 427.7477814290296 444.6328430398088 L 511.7827549321428 517.4495620863817 Z" style="stroke:#F7B4C3; stroke-opacity: 0;fill:#F7B4C3; fill-opacity: 0;"/>
<path d="M 345.76978276323746 624.1396210030694 L 511.7827549321428 517.4495620863817 L 543.1097827632375 624.1396210030694 Z" style="stroke:#F7B4C3; stroke-opacity: 0;fill:#F7B4C3; fill-opacity: 0;"/>
<path d="M 345.76978276323746 624.1396210030694 L 543.1097827632375 624.1396210030694 L 511.7827549321428 730.829679919757 Z" style="stroke:#F7B4C3; stroke-opacity: 0;fill:#F7B4C3; fill-opacity: 0;"/>
<path d="M 428.7762688476901 677.4846504614133 C 428.4334397081367 719.5385666297188 428.4334397081367 719.5385666297188 386.7587820961337 713.8930099846997 C 363.7343122568849 749.0856681044174 363.7343122568849 749.0856681044174 331.7275776708124 721.8053026734611 C 293.3315736226999 738.9632824510203 293.3315736226999 738.9632824510203 281.1546741448562 698.709431504604 C 239.57759587995503 692.3851955931217 239.57759587995503 692.3851955931217 251.09661105669502 651.9381723866134 C 219.53888715451407 624.1396210030695 219.53888715451407 624.1396210030695 251.09661105669497 596.3410696195255 C 239.57759587995497 555.894046413017 239.57759587995497 555.894046413017 281.15467414485624 549.5698105015347 C 293.3315736227 509.31595955511847 293.3315736227 509.31595955511847 331.7275776708125 526.4739393326777 C 363.7343122568848 499.1935739017213 363.7343122568848 499.1935739017213 386.75878209613353 534.386232021439 C 428.43343970813663 528.7406753764199 428.43343970813663 528.7406753764199 428.7762688476902 570.7945915447256 C 466.8874401528725 588.5762680308401 466.8874401528725 588.5762680308401 444.4397827632374 624.1396210030692 C 466.88744015287256 659.7029739752985 466.88744015287256 659.7029739752985 428.77626884769006 677.4846504614131 M 444.4397827632374 624.1396210030692 Z" style="stroke:#298FF8; stroke-opacity: 1;fill:#A54AFC; fill-opacity: 0.37272727272727274;"/>
<path d="M 354.6536565869151 530.5971027670877 Z" style="stroke:#B82C3A; stroke-opacity: 0;fill:#B82C3A; fill-opacity: 0;"/>
<circle cx="285.6536565869151" cy="530.5971027670877" r="69" style="stroke:#B82C3A; stroke-opacity: 0;fill:#B82C3A; fill-opacity: 0;"/>
<path d="M 551.9936565869151 530.5971027670877 Z" style="stroke:#554F50; stroke-opacity: 0.3;fill:#554F50; fill-opacity: 0.05454545454545454;"/>
<circle cx="482.9936565869151" cy="530.5971027670877" r="69" style="stroke:#554F50; stroke-opacity: 0.3;fill:#554F50; fill-opacity: 0.05454545454545454;"/>
<path d="M 520.6666287558204 423.90704385040016 Z" style="stroke:#554F50; stroke-opacity: 0.3;fill:#554F50; fill-opacity: 0.05454545454545454;"/>
<circle cx="451.6666287558204" cy="423.90704385040016" r="69" style="stroke:#554F50; stroke-opacity: 0.3;fill:#554F50; fill-opacity: 0.05454545454545454;"/>
<path d="M 436.6316552527072 351.090324803827 Z" style="stroke:#554F50; stroke-opacity: 0.3;fill:#554F50; fill-opacity: 0.05454545454545454;"/>
<circle cx="367.6316552527072" cy="351.090324803827" r="69" style="stroke:#554F50; stroke-opacity: 0.3;fill:#554F50; fill-opacity: 0.05454545454545454;"/>
<path d="M 326.56924640206495 335.26573942630444 Z" style="stroke:#554F50; stroke-opacity: 0.3;fill:#554F50; fill-opacity: 0.05454545454545454;"/>
<circle cx="257.56924640206495" cy="335.26573942630444" r="69" style="stroke:#554F50; stroke-opacity: 0.3;fill:#554F50; fill-opacity: 0.05454545454545454;"/>
<path d="M 225.42343935015248 381.4574817640183 Z" style="stroke:#554F50; stroke-opacity: 0.3;fill:#554F50; fill-opacity: 0.05454545454545454;"/>
<circle cx="156.42343935015248" cy="381.4574817640183" r="69" style="stroke:#554F50; stroke-opacity: 0.3;fill:#554F50; fill-opacity: 0.05454545454545454;"/>
<path d="M 165.30731317383012 474.99999999999994 Z" style="stroke:#554F50; stroke-opacity: 0.3;fill:#554F50; fill-opacity: 0.05454545454545454;"/>
<circle cx="96.30731317383012" cy="474.99999999999994" r="69" style="stroke:#554F50; stroke-opacity: 0.3;fill:#554F50; fill-opacity: 0.05454545454545454;"/>
<path d="M 165.30731317383012 586.1942055341756 Z" style="stroke:#554F50; stroke-opacity: 0.3;fill:#554F50; fill-opacity: 0.05454545454545454;"/>
<circle cx="96.30731317383012" cy="586.1942055341756" r="69" style="stroke:#554F50; stroke-opacity: 0.3;fill:#554F50; fill-opacity: 0.05454545454545454;"/>
<path d="M 225.42343935015256 679.736723770157 Z" style="stroke:#554F50; stroke-opacity: 0.3;fill:#554F50; fill-opacity: 0.05454545454545454;"/>
<circle cx="156.42343935015256" cy="679.736723770157" r="69" style="stroke:#554F50; stroke-opacity: 0.3;fill:#554F50; fill-opacity: 0.05454545454545454;"/>
<path d="M 326.56924640206495 725.928466107871 Z" style="stroke:#554F50; stroke-opacity: 0.3;fill:#554F50; fill-opacity: 0.05454545454545454;"/>
<circle cx="257.56924640206495" cy="725.928466107871" r="69" style="stroke:#554F50; stroke-opacity: 0.3;fill:#554F50; fill-opacity: 0.05454545454545454;"/>
<path d="M 436.6316552527074 710.1038807303482 Z" style="stroke:#554F50; stroke-opacity: 0.3;fill:#554F50; fill-opacity: 0.05454545454545454;"/>
<circle cx="367.6316552527074" cy="710.1038807303482" r="69" style="stroke:#554F50; stroke-opacity: 0.3;fill:#554F50; fill-opacity: 0.05454545454545454;"/>
<path d="M 520.6666287558204 637.2871616837754 Z" style="stroke:#554F50; stroke-opacity: 0.3;fill:#554F50; fill-opacity: 0.05454545454545454;"/>
<circle cx="451.6666287558204" cy="637.2871616837754" r="69" style="stroke:#554F50; stroke-opacity: 0.3;fill:#554F50; fill-opacity: 0.05454545454545454;"/>
<path d="M 285.6536565869151 530.5971027670877 L 451.6666287558204 637.2871616837754 L 367.6316552527074 710.1038807303482 Z" style="stroke:#F7B4C3; stroke-opacity: 0;fill:#F7B4C3; fill-opacity: 0;"/>
<path d="M 285.6536565869151 530.5971027670877 L 367.6316552527074 710.1038807303482 L 257.56924640206495 725.928466107871 Z" style="stroke:#F7B4C3; stroke-opacity: 0;fill:#F7B4C3; fill-opacity: 0;"/>
<path d="M 285.6536565869151 530.5971027670877 L 257.56924640206495 725.928466107871 L 156.42343935015256 679.736723770157 Z" style="stroke:#F7B4C3; stroke-opacity: 0;fill:#F7B4C3; fill-opacity: 0;"/>
<path d="M 285.6536565869151 530.5971027670877 L 156.42343935015256 679.736723770157 L 96.30731317383012 586.1942055341756 Z" style="stroke:#F7B4C3; stroke-opacity: 0;fill:#F7B4C3; fill-opacity: 0;"/>
<path d="M 285.6536565869151 530.5971027670877 L 96.30731317383012 586.1942055341756 L 96.30731317383012 474.99999999999994 Z" style="stroke:#F7B4C3; stroke-opacity: 0;fill:#F7B4C3; fill-opacity: 0;"/>
<path d="M 285.6536565869151 530.5971027670877 L 96.30731317383012 474.99999999999994 L 156.42343935015248 381.4574817640183 Z" style="stroke:#F7B4C3; stroke-opacity: 0;fill:#F7B4C3; fill-opacity: 0;"/>
<path d="M 285.6536565869151 530.5971027670877 L 156.42343935015248 381.4574817640183 L 257.56924640206495 335.26573942630444 Z" style="stroke:#F7B4C3; stroke-opacity: 0;fill:#F7B4C3; fill-opacity: 0;"/>
<path d="M 285.6536565869151 530.5971027670877 L 257.56924640206495 335.26573942630444 L 367.6316552527072 351.090324803827 Z" style="stroke:#F7B4C3; stroke-opacity: 0;fill:#F7B4C3; fill-opacity: 0;"/>
<path d="M 285.6536565869151 530.5971027670877 L 367.6316552527072 351.090324803827 L 451.6666287558204 423.90704385040016 Z" style="stroke:#F7B4C3; stroke-opacity: 0;fill:#F7B4C3; fill-opacity: 0;"/>
<path d="M 285.6536565869151 530.5971027670877 L 451.6666287558204 423.90704385040016 L 482.9936565869151 530.5971027670877 Z" style="stroke:#F7B4C3; stroke-opacity: 0;fill:#F7B4C3; fill-opacity: 0;"/>
<path d="M 285.6536565869151 530.5971027670877 L 482.9936565869151 530.5971027670877 L 451.6666287558204 637.2871616837754 Z" style="stroke:#F7B4C3; stroke-opacity: 0;fill:#F7B4C3; fill-opacity: 0;"/>
<path d="M 368.66014267136774 583.9421322254316 C 368.3173135318143 625.9960483937372 368.3173135318143 625.9960483937372 326.6426559198113 620.350491748718 C 303.61818608056245 655.5431498684356 303.61818608056245 655.5431498684356 271.61145149449004 628.2627844374795 C 233.2154474463775 645.4207642150386 233.2154474463775 645.4207642150386 221.0385479685338 605.1669132686224 C 179.46146970363264 598.84267735714 179.46146970363264 598.84267735714 190.98048488037264 558.3956541506317 C 159.42276097819177 530.5971027670877 159.42276097819177 530.5971027670877 190.9804848803726 502.7985513835438 C 179.46146970363256 462.35152817703533 179.46146970363256 462.35152817703533 221.03854796853378 456.02729226555306 C 233.2154474463775 415.7734413191368 233.2154474463775 415.7734413191368 271.61145149449004 432.931421096696 C 303.6181860805624 405.6510556657397 303.6181860805624 405.6510556657397 326.64265591981115 440.84371378545734 C 368.3173135318142 435.1981571404383 368.3173135318142 435.1981571404383 368.6601426713677 477.252073308744 C 406.77131397655023 495.0337497948585 406.77131397655023 495.0337497948585 384.32365658691504 530.5971027670878 C 406.7713139765502 566.1604557393168 406.7713139765502 566.1604557393168 368.6601426713677 583.9421322254315 M 384.32365658691504 530.5971027670876 Z" style="stroke:#298FF8; stroke-opacity: 1;fill:#A54AFC; fill-opacity: 0.37272727272727274;"/>
<path d="M 354.6536565869151 419.40289723291227 Z" style="stroke:#B82C3A; stroke-opacity: 0;fill:#B82C3A; fill-opacity: 0;"/>
<circle cx="285.6536565869151" cy="419.40289723291227" r="69" style="stroke:#B82C3A; stroke-opacity: 0;fill:#B82C3A; fill-opacity: 0;"/>
<path d="M 551.9936565869151 419.40289723291227 Z" style="stroke:#554F50; stroke-opacity: 0.3;fill:#554F50; fill-opacity: 0.05454545454545454;"/>
<circle cx="482.9936565869151" cy="419.40289723291227" r="69" style="stroke:#554F50; stroke-opacity: 0.3;fill:#554F50; fill-opacity: 0.05454545454545454;"/>
<path d="M 520.6666287558204 312.71283831622475 Z" style="stroke:#554F50; stroke-opacity: 0.3;fill:#554F50; fill-opacity: 0.05454545454545454;"/>
<circle cx="451.6666287558204" cy="312.71283831622475" r="69" style="stroke:#554F50; stroke-opacity: 0.3;fill:#554F50; fill-opacity: 0.05454545454545454;"/>
<path d="M 436.6316552527072 239.89611926965154 Z" style="stroke:#554F50; stroke-opacity: 0.3;fill:#554F50; fill-opacity: 0.05454545454545454;"/>
<circle cx="367.6316552527072" cy="239.89611926965156" r="69" style="stroke:#554F50; stroke-opacity: 0.3;fill:#554F50; fill-opacity: 0.05454545454545454;"/>
<path d="M 326.56924640206495 224.07153389212903 Z" style="stroke:#554F50; stroke-opacity: 0.3;fill:#554F50; fill-opacity: 0.05454545454545454;"/>
<circle cx="257.56924640206495" cy="224.07153389212905" r="69" style="stroke:#554F50; stroke-opacity: 0.3;fill:#554F50; fill-opacity: 0.05454545454545454;"/>
<path d="M 225.42343935015248 270.2632762298431 Z" style="stroke:#554F50; stroke-opacity: 0.3;fill:#554F50; fill-opacity: 0.05454545454545454;"/>
<circle cx="156.42343935015248" cy="270.2632762298431" r="69" style="stroke:#554F50; stroke-opacity: 0.3;fill:#554F50; fill-opacity: 0.05454545454545454;"/>
<path d="M 165.30731317383012 363.80579446582453 Z" style="stroke:#554F50; stroke-opacity: 0.3;fill:#554F50; fill-opacity: 0.05454545454545454;"/>
<circle cx="96.30731317383012" cy="363.80579446582453" r="69" style="stroke:#554F50; stroke-opacity: 0.3;fill:#554F50; fill-opacity: 0.05454545454545454;"/>
<path d="M 165.30731317383012 475 Z" style="stroke:#554F50; stroke-opacity: 0.3;fill:#554F50; fill-opacity: 0.05454545454545454;"/>
<circle cx="96.30731317383012" cy="475" r="69" style="stroke:#554F50; stroke-opacity: 0.3;fill:#554F50; fill-opacity: 0.05454545454545454;"/>
<path d="M 225.42343935015256 568.5425182359817 Z" style="stroke:#554F50; stroke-opacity: 0.3;fill:#554F50; fill-opacity: 0.05454545454545454;"/>
<circle cx="156.42343935015256" cy="568.5425182359817" r="69" style="stroke:#554F50; stroke-opacity: 0.3;fill:#554F50; fill-opacity: 0.05454545454545454;"/>
<path d="M 326.56924640206495 614.7342605736955 Z" style="stroke:#554F50; stroke-opacity: 0.3;fill:#554F50; fill-opacity: 0.05454545454545454;"/>
<circle cx="257.56924640206495" cy="614.7342605736955" r="69" style="stroke:#554F50; stroke-opacity: 0.3;fill:#554F50; fill-opacity: 0.05454545454545454;"/>
<path d="M 436.6316552527074 598.909675196173 Z" style="stroke:#554F50; stroke-opacity: 0.3;fill:#554F50; fill-opacity: 0.05454545454545454;"/>
<circle cx="367.6316552527074" cy="598.909675196173" r="69" style="stroke:#554F50; stroke-opacity: 0.3;fill:#554F50; fill-opacity: 0.05454545454545454;"/>
<path d="M 520.6666287558204 526.0929561495998 Z" style="stroke:#554F50; stroke-opacity: 0.3;fill:#554F50; fill-opacity: 0.05454545454545454;"/>
<circle cx="451.6666287558204" cy="526.0929561495998" r="69" style="stroke:#554F50; stroke-opacity: 0.3;fill:#554F50; fill-opacity: 0.05454545454545454;"/>
<path d="M 285.6536565869151 419.40289723291227 L 451.6666287558204 526.0929561495998 L 367.6316552527074 598.909675196173 Z" style="stroke:#F7B4C3; stroke-opacity: 0;fill:#F7B4C3; fill-opacity: 0;"/>
<path d="M 285.6536565869151 419.40289723291227 L 367.6316552527074 598.909675196173 L 257.56924640206495 614.7342605736955 Z" style="stroke:#F7B4C3; stroke-opacity: 0;fill:#F7B4C3; fill-opacity: 0;"/>
<path d="M 285.6536565869151 419.40289723291227 L 257.56924640206495 614.7342605736955 L 156.42343935015256 568.5425182359817 Z" style="stroke:#F7B4C3; stroke-opacity: 0;fill:#F7B4C3; fill-opacity: 0;"/>
<path d="M 285.6536565869151 419.40289723291227 L 156.42343935015256 568.5425182359817 L 96.30731317383012 475 Z" style="stroke:#F7B4C3; stroke-opacity: 0;fill:#F7B4C3; fill-opacity: 0;"/>
<path d="M 285.6536565869151 419.40289723291227 L 96.30731317383012 475 L 96.30731317383012 363.80579446582453 Z" style="stroke:#F7B4C3; stroke-opacity: 0;fill:#F7B4C3; fill-opacity: 0;"/>
<path d="M 285.6536565869151 419.40289723291227 L 96.30731317383012 363.80579446582453 L 156.42343935015248 270.2632762298431 Z" style="stroke:#F7B4C3; stroke-opacity: 0;fill:#F7B4C3; fill-opacity: 0;"/>
<path d="M 285.6536565869151 419.40289723291227 L 156.42343935015248 270.2632762298431 L 257.56924640206495 224.07153389212905 Z" style="stroke:#F7B4C3; stroke-opacity: 0;fill:#F7B4C3; fill-opacity: 0;"/>
<path d="M 285.6536565869151 419.40289723291227 L 257.56924640206495 224.07153389212905 L 367.6316552527072 239.89611926965156 Z" style="stroke:#F7B4C3; stroke-opacity: 0;fill:#F7B4C3; fill-opacity: 0;"/>
<path d="M 285.6536565869151 419.40289723291227 L 367.6316552527072 239.89611926965156 L 451.6666287558204 312.71283831622475 Z" style="stroke:#F7B4C3; stroke-opacity: 0;fill:#F7B4C3; fill-opacity: 0;"/>
<path d="M 285.6536565869151 419.40289723291227 L 451.6666287558204 312.71283831622475 L 482.9936565869151 419.40289723291227 Z" style="stroke:#F7B4C3; stroke-opacity: 0;fill:#F7B4C3; fill-opacity: 0;"/>
<path d="M 285.6536565869151 419.40289723291227 L 482.9936565869151 419.40289723291227 L 451.6666287558204 526.0929561495998 Z" style="stroke:#F7B4C3; stroke-opacity: 0;fill:#F7B4C3; fill-opacity: 0;"/>
<path d="M 368.66014267136774 472.7479266912561 C 368.3173135318143 514.8018428595617 368.3173135318143 514.8018428595617 326.6426559198112 509.15628621454266 C 303.61818608056245 544.3489443342603 303.61818608056245 544.3489443342603 271.61145149449004 517.068578903304 C 233.21544744637754 534.2265586808633 233.21544744637754 534.2265586808633 221.0385479685338 493.972707734447 C 179.46146970363256 487.64847182296467 179.46146970363256 487.64847182296467 190.9804848803726 447.2014486164561 C 159.42276097819172 419.40289723291227 159.42276097819172 419.40289723291227 190.9804848803726 391.6043458493683 C 179.4614697036326 351.15732264286004 179.4614697036326 351.15732264286004 221.03854796853378 344.83308673137776 C 233.2154474463775 304.57923578496144 233.2154474463775 304.57923578496144 271.61145149449 321.73721556252065 C 303.61818608056245 294.4568501315643 303.61818608056245 294.4568501315643 326.64265591981115 329.6495082512819 C 368.3173135318142 324.0039516062629 368.3173135318142 324.0039516062629 368.6601426713677 366.05786777456865 C 406.7713139765502 383.8395442606831 406.7713139765502 383.8395442606831 384.32365658691504 419.4028972329123 C 406.7713139765502 454.9662502051414 406.7713139765502 454.9662502051414 368.6601426713677 472.74792669125605 M 384.32365658691504 419.4028972329122 Z" style="stroke:#298FF8; stroke-opacity: 1;fill:#A54AFC; fill-opacity: 0.37272727272727274;"/>
<path d="M 414.76978276323746 325.86037899693065 Z" style="stroke:#B82C3A; stroke-opacity: 0;fill:#B82C3A; fill-opacity: 0;"/>
<circle cx="345.76978276323746" cy="325.86037899693065" r="69" style="stroke:#B82C3A; stroke-opacity: 0;fill:#B82C3A; fill-opacity: 0;"/>
<path d="M 612.1097827632375 325.86037899693065 Z" style="stroke:#554F50; stroke-opacity: 0.3;fill:#554F50; fill-opacity: 0.05454545454545454;"/>
<circle cx="543.1097827632375" cy="325.86037899693065" r="69" style="stroke:#554F50; stroke-opacity: 0.3;fill:#554F50; fill-opacity: 0.05454545454545454;"/>
<path d="M 580.7827549321428 219.1703200802431 Z" style="stroke:#554F50; stroke-opacity: 0.3;fill:#554F50; fill-opacity: 0.05454545454545454;"/>
<circle cx="511.7827549321428" cy="219.17032008024313" r="69" style="stroke:#554F50; stroke-opacity: 0.3;fill:#554F50; fill-opacity: 0.05454545454545454;"/>
<path d="M 496.7477814290296 146.35360103366992 Z" style="stroke:#554F50; stroke-opacity: 0.3;fill:#554F50; fill-opacity: 0.05454545454545454;"/>
<circle cx="427.7477814290296" cy="146.35360103366995" r="69" style="stroke:#554F50; stroke-opacity: 0.3;fill:#554F50; fill-opacity: 0.05454545454545454;"/>
<path d="M 386.68537257838733 130.5290156561474 Z" style="stroke:#554F50; stroke-opacity: 0.3;fill:#554F50; fill-opacity: 0.05454545454545454;"/>
<circle cx="317.68537257838733" cy="130.52901565614744" r="69" style="stroke:#554F50; stroke-opacity: 0.3;fill:#554F50; fill-opacity: 0.05454545454545454;"/>
<path d="M 285.5395655264749 176.72075799386124 Z" style="stroke:#554F50; stroke-opacity: 0.3;fill:#554F50; fill-opacity: 0.05454545454545454;"/>
<circle cx="216.53956552647495" cy="176.72075799386127" r="69" style="stroke:#554F50; stroke-opacity: 0.3;fill:#554F50; fill-opacity: 0.05454545454545454;"/>
<path d="M 225.4234393501525 270.2632762298429 Z" style="stroke:#554F50; stroke-opacity: 0.3;fill:#554F50; fill-opacity: 0.05454545454545454;"/>
<circle cx="156.4234393501525" cy="270.2632762298429" r="69" style="stroke:#554F50; stroke-opacity: 0.3;fill:#554F50; fill-opacity: 0.05454545454545454;"/>
<path d="M 225.4234393501525 381.4574817640184 Z" style="stroke:#554F50; stroke-opacity: 0.3;fill:#554F50; fill-opacity: 0.05454545454545454;"/>
<circle cx="156.4234393501525" cy="381.4574817640184" r="69" style="stroke:#554F50; stroke-opacity: 0.3;fill:#554F50; fill-opacity: 0.05454545454545454;"/>
<path d="M 285.5395655264749 475 Z" style="stroke:#554F50; stroke-opacity: 0.3;fill:#554F50; fill-opacity: 0.05454545454545454;"/>
<circle cx="216.53956552647495" cy="475" r="69" style="stroke:#554F50; stroke-opacity: 0.3;fill:#554F50; fill-opacity: 0.05454545454545454;"/>
<path d="M 386.68537257838733 521.1917423377139 Z" style="stroke:#554F50; stroke-opacity: 0.3;fill:#554F50; fill-opacity: 0.05454545454545454;"/>
<circle cx="317.68537257838733" cy="521.1917423377139" r="69" style="stroke:#554F50; stroke-opacity: 0.3;fill:#554F50; fill-opacity: 0.05454545454545454;"/>
<path d="M 496.74778142902977 505.3671569601912 Z" style="stroke:#554F50; stroke-opacity: 0.3;fill:#554F50; fill-opacity: 0.05454545454545454;"/>
<circle cx="427.74778142902977" cy="505.3671569601912" r="69" style="stroke:#554F50; stroke-opacity: 0.3;fill:#554F50; fill-opacity: 0.05454545454545454;"/>
<path d="M 580.7827549321428 432.55043791361834 Z" style="stroke:#554F50; stroke-opacity: 0.3;fill:#554F50; fill-opacity: 0.05454545454545454;"/>
<circle cx="511.7827549321428" cy="432.55043791361834" r="69" style="stroke:#554F50; stroke-opacity: 0.3;fill:#554F50; fill-opacity: 0.05454545454545454;"/>
<path d="M 345.76978276323746 325.86037899693065 L 511.7827549321428 432.55043791361834 L 427.74778142902977 505.3671569601912 Z" style="stroke:#F7B4C3; stroke-opacity: 0;fill:#F7B4C3; fill-opacity: 0;"/>
<path d="M 345.76978276323746 325.86037899693065 L 427.74778142902977 505.3671569601912 L 317.68537257838733 521.1917423377139 Z" style="stroke:#F7B4C3; stroke-opacity: 0;fill:#F7B4C3; fill-opacity: 0;"/>
<path d="M 345.76978276323746 325.86037899693065 L 317.68537257838733 521.1917423377139 L 216.53956552647495 475 Z" style="stroke:#F7B4C3; stroke-opacity: 0;fill:#F7B4C3; fill-opacity: 0;"/>
<path d="M 345.76978276323746 325.86037899693065 L 216.53956552647495 475 L 156.4234393501525 381.4574817640184 Z" style="stroke:#F7B4C3; stroke-opacity: 0;fill:#F7B4C3; fill-opacity: 0;"/>
<path d="M 345.76978276323746 325.86037899693065 L 156.4234393501525 381.4574817640184 L 156.4234393501525 270.2632762298429 Z" style="stroke:#F7B4C3; stroke-opacity: 0;fill:#F7B4C3; fill-opacity: 0;"/>
<path d="M 345.76978276323746 325.86037899693065 L 156.4234393501525 270.2632762298429 L 216.53956552647495 176.72075799386127 Z" style="stroke:#F7B4C3; stroke-opacity: 0;fill:#F7B4C3; fill-opacity: 0;"/>
<path d="M 345.76978276323746 325.86037899693065 L 216.53956552647495 176.72075799386127 L 317.68537257838733 130.52901565614744 Z" style="stroke:#F7B4C3; stroke-opacity: 0;fill:#F7B4C3; fill-opacity: 0;"/>
<path d="M 345.76978276323746 325.86037899693065 L 317.68537257838733 130.52901565614744 L 427.7477814290296 146.35360103366995 Z" style="stroke:#F7B4C3; stroke-opacity: 0;fill:#F7B4C3; fill-opacity: 0;"/>
<path d="M 345.76978276323746 325.86037899693065 L 427.7477814290296 146.35360103366995 L 511.7827549321428 219.17032008024313 Z" style="stroke:#F7B4C3; stroke-opacity: 0;fill:#F7B4C3; fill-opacity: 0;"/>
<path d="M 345.76978276323746 325.86037899693065 L 511.7827549321428 219.17032008024313 L 543.1097827632375 325.86037899693065 Z" style="stroke:#F7B4C3; stroke-opacity: 0;fill:#F7B4C3; fill-opacity: 0;"/>
<path d="M 345.76978276323746 325.86037899693065 L 543.1097827632375 325.86037899693065 L 511.7827549321428 432.55043791361834 Z" style="stroke:#F7B4C3; stroke-opacity: 0;fill:#F7B4C3; fill-opacity: 0;"/>
<path d="M 428.7762688476901 379.20540845527455 C 428.4334397081367 421.25932462358 428.4334397081367 421.25932462358 386.7587820961337 415.6137679785609 C 363.7343122568849 450.8064260982786 363.7343122568849 450.8064260982786 331.7275776708124 423.5260606673223 C 293.3315736226999 440.6840404448816 293.3315736226999 440.6840404448816 281.1546741448562 400.4301894984653 C 239.577595879955 394.105953586983 239.577595879955 394.105953586983 251.09661105669502 353.65893038047454 C 219.53888715451416 325.86037899693065 219.53888715451416 325.86037899693065 251.09661105669497 298.0618276133868 C 239.57759587995497 257.61480440687825 239.57759587995497 257.61480440687825 281.15467414485624 251.29056849539592 C 293.3315736227 211.03671754897982 293.3315736227 211.03671754897982 331.72757767081237 228.19469732653906 C 363.7343122568848 200.91433189558268 363.7343122568848 200.91433189558268 386.75878209613353 236.10699001530028 C 428.4334397081366 230.4614333702813 428.4334397081366 230.4614333702813 428.77626884769006 272.515349538587 C 466.88744015287256 290.2970260247015 466.88744015287256 290.2970260247015 444.4397827632374 325.8603789969307 C 466.8874401528725 361.42373196915986 466.8874401528725 361.42373196915986 428.77626884769006 379.20540845527444 M 444.4397827632374 325.86037899693065 Z" style="stroke:#298FF8; stroke-opacity: 1;fill:#A54AFC; fill-opacity: 0.37272727272727274;"/>
<path d="M 515.9155898151498 279.66863665921676 Z" style="stroke:#B82C3A; stroke-opacity: 0;fill:#B82C3A; fill-opacity: 0;"/>
<circle cx="446.9155898151499" cy="279.66863665921676" r="69" style="stroke:#B82C3A; stroke-opacity: 0;fill:#B82C3A; fill-opacity: 0;"/>
<path d="M 713.2555898151497 279.66863665921676 Z" style="stroke:#554F50; stroke-opacity: 0.3;fill:#554F50; fill-opacity: 0.05454545454545454;"/>
<circle cx="644.2555898151497" cy="279.66863665921676" r="69" style="stroke:#554F50; stroke-opacity: 0.3;fill:#554F50; fill-opacity: 0.05454545454545454;"/>
<path d="M 681.9285619840551 172.9785777425291 Z" style="stroke:#554F50; stroke-opacity: 0.3;fill:#554F50; fill-opacity: 0.05454545454545454;"/>
<circle cx="612.9285619840551" cy="172.97857774252913" r="69" style="stroke:#554F50; stroke-opacity: 0.3;fill:#554F50; fill-opacity: 0.05454545454545454;"/>
<path d="M 597.8935884809421 100.16185869595604 Z" style="stroke:#554F50; stroke-opacity: 0.3;fill:#554F50; fill-opacity: 0.05454545454545454;"/>
<circle cx="528.8935884809421" cy="100.16185869595606" r="69" style="stroke:#554F50; stroke-opacity: 0.3;fill:#554F50; fill-opacity: 0.05454545454545454;"/>
<path d="M 487.83117963029974 84.33727331843353 Z" style="stroke:#554F50; stroke-opacity: 0.3;fill:#554F50; fill-opacity: 0.05454545454545454;"/>
<circle cx="418.83117963029974" cy="84.33727331843355" r="69" style="stroke:#554F50; stroke-opacity: 0.3;fill:#554F50; fill-opacity: 0.05454545454545454;"/>
<path d="M 386.6853725783874 130.52901565614744 Z" style="stroke:#554F50; stroke-opacity: 0.3;fill:#554F50; fill-opacity: 0.05454545454545454;"/>
<circle cx="317.6853725783874" cy="130.52901565614746" r="69" style="stroke:#554F50; stroke-opacity: 0.3;fill:#554F50; fill-opacity: 0.05454545454545454;"/>
<path d="M 326.5692464020649 224.07153389212903 Z" style="stroke:#554F50; stroke-opacity: 0.3;fill:#554F50; fill-opacity: 0.05454545454545454;"/>
<circle cx="257.5692464020649" cy="224.07153389212905" r="69" style="stroke:#554F50; stroke-opacity: 0.3;fill:#554F50; fill-opacity: 0.05454545454545454;"/>
<path d="M 326.5692464020649 335.2657394263045 Z" style="stroke:#554F50; stroke-opacity: 0.3;fill:#554F50; fill-opacity: 0.05454545454545454;"/>
<circle cx="257.5692464020649" cy="335.2657394263045" r="69" style="stroke:#554F50; stroke-opacity: 0.3;fill:#554F50; fill-opacity: 0.05454545454545454;"/>
<path d="M 386.6853725783874 428.8082576622861 Z" style="stroke:#554F50; stroke-opacity: 0.3;fill:#554F50; fill-opacity: 0.05454545454545454;"/>
<circle cx="317.6853725783874" cy="428.8082576622861" r="69" style="stroke:#554F50; stroke-opacity: 0.3;fill:#554F50; fill-opacity: 0.05454545454545454;"/>
<path d="M 487.83117963029974 475 Z" style="stroke:#554F50; stroke-opacity: 0.3;fill:#554F50; fill-opacity: 0.05454545454545454;"/>
<circle cx="418.83117963029974" cy="475" r="69" style="stroke:#554F50; stroke-opacity: 0.3;fill:#554F50; fill-opacity: 0.05454545454545454;"/>
<path d="M 597.8935884809422 459.1754146224773 Z" style="stroke:#554F50; stroke-opacity: 0.3;fill:#554F50; fill-opacity: 0.05454545454545454;"/>
<circle cx="528.8935884809422" cy="459.1754146224773" r="69" style="stroke:#554F50; stroke-opacity: 0.3;fill:#554F50; fill-opacity: 0.05454545454545454;"/>
<path d="M 681.9285619840551 386.35869557590445 Z" style="stroke:#554F50; stroke-opacity: 0.3;fill:#554F50; fill-opacity: 0.05454545454545454;"/>
<circle cx="612.9285619840551" cy="386.35869557590445" r="69" style="stroke:#554F50; stroke-opacity: 0.3;fill:#554F50; fill-opacity: 0.05454545454545454;"/>
<path d="M 446.9155898151499 279.66863665921676 L 612.9285619840551 386.35869557590445 L 528.8935884809422 459.1754146224773 Z" style="stroke:#F7B4C3; stroke-opacity: 0;fill:#F7B4C3; fill-opacity: 0;"/>
<path d="M 446.9155898151499 279.66863665921676 L 528.8935884809422 459.1754146224773 L 418.83117963029974 475 Z" style="stroke:#F7B4C3; stroke-opacity: 0;fill:#F7B4C3; fill-opacity: 0;"/>
<path d="M 446.9155898151499 279.66863665921676 L 418.83117963029974 475 L 317.6853725783874 428.8082576622861 Z" style="stroke:#F7B4C3; stroke-opacity: 0;fill:#F7B4C3; fill-opacity: 0;"/>
<path d="M 446.9155898151499 279.66863665921676 L 317.6853725783874 428.8082576622861 L 257.5692464020649 335.2657394263045 Z" style="stroke:#F7B4C3; stroke-opacity: 0;fill:#F7B4C3; fill-opacity: 0;"/>
<path d="M 446.9155898151499 279.66863665921676 L 257.5692464020649 335.2657394263045 L 257.5692464020649 224.07153389212905 Z" style="stroke:#F7B4C3; stroke-opacity: 0;fill:#F7B4C3; fill-opacity: 0;"/>
<path d="M 446.9155898151499 279.66863665921676 L 257.5692464020649 224.07153389212905 L 317.6853725783874 130.52901565614746 Z" style="stroke:#F7B4C3; stroke-opacity: 0;fill:#F7B4C3; fill-opacity: 0;"/>
<path d="M 446.9155898151499 279.66863665921676 L 317.6853725783874 130.52901565614746 L 418.83117963029974 84.33727331843355 Z" style="stroke:#F7B4C3; stroke-opacity: 0;fill:#F7B4C3; fill-opacity: 0;"/>
<path d="M 446.9155898151499 279.66863665921676 L 418.83117963029974 84.33727331843355 L 528.8935884809421 100.16185869595606 Z" style="stroke:#F7B4C3; stroke-opacity: 0;fill:#F7B4C3; fill-opacity: 0;"/>
<path d="M 446.9155898151499 279.66863665921676 L 528.8935884809421 100.16185869595606 L 612.9285619840551 172.97857774252913 Z" style="stroke:#F7B4C3; stroke-opacity: 0;fill:#F7B4C3; fill-opacity: 0;"/>
<path d="M 446.9155898151499 279.66863665921676 L 612.9285619840551 172.97857774252913 L 644.2555898151497 279.66863665921676 Z" style="stroke:#F7B4C3; stroke-opacity: 0;fill:#F7B4C3; fill-opacity: 0;"/>
<path d="M 446.9155898151499 279.66863665921676 L 644.2555898151497 279.66863665921676 L 612.9285619840551 386.35869557590445 Z" style="stroke:#F7B4C3; stroke-opacity: 0;fill:#F7B4C3; fill-opacity: 0;"/>
<path d="M 529.9220758996024 333.01366611756066 C 529.579246760049 375.06758228586614 529.579246760049 375.06758228586614 487.90458914804606 369.422025640847 C 464.88011930879725 404.61468376056473 464.88011930879725 404.61468376056473 432.87338472272484 377.33431832960844 C 394.47738067461233 394.4922981071677 394.47738067461233 394.4922981071677 382.3004811967686 354.23844716075143 C 340.7234029318673 347.91421124926916 340.7234029318673 347.91421124926916 352.24241810860735 307.46718804276065 C 320.6846942064265 279.66863665921676 320.6846942064265 279.66863665921676 352.24241810860735 251.87008527567292 C 340.7234029318674 211.42306206916442 340.7234029318674 211.42306206916442 382.3004811967686 205.0988261576821 C 394.47738067461233 164.8449752112659 394.47738067461233 164.8449752112659 432.87338472272484 182.00295498882514 C 464.88011930879725 154.7225895578687 464.88011930879725 154.7225895578687 487.90458914804606 189.9152476775864 C 529.579246760049 184.2696910325673 529.579246760049 184.2696910325673 529.9220758996025 226.323607200873 C 568.0332472047849 244.1052836869876 568.0332472047849 244.1052836869876 545.5855898151498 279.6686366592168 C 568.0332472047849 315.2319896314459 568.0332472047849 315.2319896314459 529.9220758996023 333.01366611756055 M 545.5855898151498 279.66863665921676 Z" style="stroke:#298FF8; stroke-opacity: 1;fill:#A54AFC; fill-opacity: 0.37272727272727274;"/>
<path d="M 625.9779986657921 295.4932220367393 Z" style="stroke:#B82C3A; stroke-opacity: 0;fill:#B82C3A; fill-opacity: 0;"/>
<circle cx="556.9779986657921" cy="295.4932220367393" r="69" style="stroke:#B82C3A; stroke-opacity: 0;fill:#B82C3A; fill-opacity: 0;"/>
<path d="M 823.3179986657922 295.4932220367393 Z" style="stroke:#554F50; stroke-opacity: 0.3;fill:#554F50; fill-opacity: 0.05454545454545454;"/>
<circle cx="754.3179986657922" cy="295.4932220367393" r="69" style="stroke:#554F50; stroke-opacity: 0.3;fill:#554F50; fill-opacity: 0.05454545454545454;"/>
<path d="M 791.9909708346976 188.80316312005178 Z" style="stroke:#554F50; stroke-opacity: 0.3;fill:#554F50; fill-opacity: 0.05454545454545454;"/>
<circle cx="722.9909708346976" cy="188.8031631200518" r="69" style="stroke:#554F50; stroke-opacity: 0.3;fill:#554F50; fill-opacity: 0.05454545454545454;"/>
<path d="M 707.9559973315843 115.98644407347861 Z" style="stroke:#554F50; stroke-opacity: 0.3;fill:#554F50; fill-opacity: 0.05454545454545454;"/>
<circle cx="638.9559973315843" cy="115.98644407347862" r="69" style="stroke:#554F50; stroke-opacity: 0.3;fill:#554F50; fill-opacity: 0.05454545454545454;"/>
<path d="M 597.8935884809421 100.1618586959561 Z" style="stroke:#554F50; stroke-opacity: 0.3;fill:#554F50; fill-opacity: 0.05454545454545454;"/>
<circle cx="528.8935884809421" cy="100.16185869595611" r="69" style="stroke:#554F50; stroke-opacity: 0.3;fill:#554F50; fill-opacity: 0.05454545454545454;"/>
<path d="M 496.7477814290296 146.35360103367 Z" style="stroke:#554F50; stroke-opacity: 0.3;fill:#554F50; fill-opacity: 0.05454545454545454;"/>
<circle cx="427.7477814290296" cy="146.35360103367003" r="69" style="stroke:#554F50; stroke-opacity: 0.3;fill:#554F50; fill-opacity: 0.05454545454545454;"/>
<path d="M 436.6316552527072 239.8961192696516 Z" style="stroke:#554F50; stroke-opacity: 0.3;fill:#554F50; fill-opacity: 0.05454545454545454;"/>
<circle cx="367.6316552527072" cy="239.89611926965162" r="69" style="stroke:#554F50; stroke-opacity: 0.3;fill:#554F50; fill-opacity: 0.05454545454545454;"/>
<path d="M 436.6316552527072 351.09032480382706 Z" style="stroke:#554F50; stroke-opacity: 0.3;fill:#554F50; fill-opacity: 0.05454545454545454;"/>
<circle cx="367.6316552527072" cy="351.09032480382706" r="69" style="stroke:#554F50; stroke-opacity: 0.3;fill:#554F50; fill-opacity: 0.05454545454545454;"/>
<path d="M 496.7477814290296 444.6328430398087 Z" style="stroke:#554F50; stroke-opacity: 0.3;fill:#554F50; fill-opacity: 0.05454545454545454;"/>
<circle cx="427.7477814290296" cy="444.6328430398087" r="69" style="stroke:#554F50; stroke-opacity: 0.3;fill:#554F50; fill-opacity: 0.05454545454545454;"/>
<path d="M 597.8935884809421 490.82458537752257 Z" style="stroke:#554F50; stroke-opacity: 0.3;fill:#554F50; fill-opacity: 0.05454545454545454;"/>
<circle cx="528.8935884809421" cy="490.82458537752257" r="69" style="stroke:#554F50; stroke-opacity: 0.3;fill:#554F50; fill-opacity: 0.05454545454545454;"/>
<path d="M 707.9559973315843 474.9999999999999 Z" style="stroke:#554F50; stroke-opacity: 0.3;fill:#554F50; fill-opacity: 0.05454545454545454;"/>
<circle cx="638.9559973315843" cy="474.9999999999999" r="69" style="stroke:#554F50; stroke-opacity: 0.3;fill:#554F50; fill-opacity: 0.05454545454545454;"/>
<path d="M 791.9909708346976 402.183280953427 Z" style="stroke:#554F50; stroke-opacity: 0.3;fill:#554F50; fill-opacity: 0.05454545454545454;"/>
<circle cx="722.9909708346976" cy="402.183280953427" r="69" style="stroke:#554F50; stroke-opacity: 0.3;fill:#554F50; fill-opacity: 0.05454545454545454;"/>
<path d="M 556.9779986657921 295.4932220367393 L 722.9909708346976 402.183280953427 L 638.9559973315843 474.9999999999999 Z" style="stroke:#F7B4C3; stroke-opacity: 0;fill:#F7B4C3; fill-opacity: 0;"/>
<path d="M 556.9779986657921 295.4932220367393 L 638.9559973315843 474.9999999999999 L 528.8935884809421 490.82458537752257 Z" style="stroke:#F7B4C3; stroke-opacity: 0;fill:#F7B4C3; fill-opacity: 0;"/>
<path d="M 556.9779986657921 295.4932220367393 L 528.8935884809421 490.82458537752257 L 427.7477814290296 444.6328430398087 Z" style="stroke:#F7B4C3; stroke-opacity: 0;fill:#F7B4C3; fill-opacity: 0;"/>
<path d="M 556.9779986657921 295.4932220367393 L 427.7477814290296 444.6328430398087 L 367.6316552527072 351.09032480382706 Z" style="stroke:#F7B4C3; stroke-opacity: 0;fill:#F7B4C3; fill-opacity: 0;"/>
<path d="M 556.9779986657921 295.4932220367393 L 367.6316552527072 351.09032480382706 L 367.6316552527072 239.89611926965162 Z" style="stroke:#F7B4C3; stroke-opacity: 0;fill:#F7B4C3; fill-opacity: 0;"/>
<path d="M 556.9779986657921 295.4932220367393 L 367.6316552527072 239.89611926965162 L 427.7477814290296 146.35360103367003 Z" style="stroke:#F7B4C3; stroke-opacity: 0;fill:#F7B4C3; fill-opacity: 0;"/>
<path d="M 556.9779986657921 295.4932220367393 L 427.7477814290296 146.35360103367003 L 528.8935884809421 100.16185869595611 Z" style="stroke:#F7B4C3; stroke-opacity: 0;fill:#F7B4C3; fill-opacity: 0;"/>
<path d="M 556.9779986657921 295.4932220367393 L 528.8935884809421 100.16185869595611 L 638.9559973315843 115.98644407347862 Z" style="stroke:#F7B4C3; stroke-opacity: 0;fill:#F7B4C3; fill-opacity: 0;"/>
<path d="M 556.9779986657921 295.4932220367393 L 638.9559973315843 115.98644407347862 L 722.9909708346976 188.8031631200518 Z" style="stroke:#F7B4C3; stroke-opacity: 0;fill:#F7B4C3; fill-opacity: 0;"/>
<path d="M 556.9779986657921 295.4932220367393 L 722.9909708346976 188.8031631200518 L 754.3179986657922 295.4932220367393 Z" style="stroke:#F7B4C3; stroke-opacity: 0;fill:#F7B4C3; fill-opacity: 0;"/>
<path d="M 556.9779986657921 295.4932220367393 L 754.3179986657922 295.4932220367393 L 722.9909708346976 402.183280953427 Z" style="stroke:#F7B4C3; stroke-opacity: 0;fill:#F7B4C3; fill-opacity: 0;"/>
<path d="M 639.9844847502447 348.8382514950832 C 639.6416556106913 390.8921676633887 639.6416556106913 390.8921676633887 597.9669979986883 385.24661101836955 C 574.9425281594395 420.43926913808724 574.9425281594395 420.43926913808724 542.9357935733672 393.158903707131 C 504.5397895252546 410.31688348469015 504.5397895252546 410.31688348469015 492.3628900474108 370.0630325382739 C 450.78581178250965 363.73879662679167 450.78581178250965 363.73879662679167 462.3048269592497 323.2917734202832 C 430.74710305706884 295.4932220367393 430.74710305706884 295.4932220367393 462.3048269592497 267.6946706531955 C 450.7858117825097 227.24764744668698 450.7858117825097 227.24764744668698 492.36289004741093 220.92341153520468 C 504.5397895252546 180.6695605887885 504.5397895252546 180.6695605887885 542.9357935733672 197.82754036634776 C 574.9425281594395 170.54717493539138 574.9425281594395 170.54717493539138 597.9669979986882 205.73983305510896 C 639.6416556106913 200.09427641008998 639.6416556106913 200.09427641008998 639.9844847502447 242.14819257839557 C 678.0956560554273 259.92986906451017 678.0956560554273 259.92986906451017 655.6479986657922 295.4932220367394 C 678.0956560554273 331.0565750089685 678.0956560554273 331.0565750089685 639.9844847502447 348.8382514950831 M 655.6479986657922 295.4932220367393 Z" style="stroke:#298FF8; stroke-opacity: 1;fill:#A54AFC; fill-opacity: 0.37272727272727274;"/>
<path d="M 710.0129721689054 368.3099410833125 Z" style="stroke:#B82C3A; stroke-opacity: 0;fill:#B82C3A; fill-opacity: 0;"/>
<circle cx="641.0129721689054" cy="368.3099410833125" r="69" style="stroke:#B82C3A; stroke-opacity: 0;fill:#B82C3A; fill-opacity: 0;"/>
<path d="M 907.3529721689055 368.3099410833125 Z" style="stroke:#554F50; stroke-opacity: 0.3;fill:#554F50; fill-opacity: 0.05454545454545454;"/>
<circle cx="838.3529721689055" cy="368.3099410833125" r="69" style="stroke:#554F50; stroke-opacity: 0.3;fill:#554F50; fill-opacity: 0.05454545454545454;"/>
<path d="M 876.0259443378109 261.61988216662496 Z" style="stroke:#554F50; stroke-opacity: 0.3;fill:#554F50; fill-opacity: 0.05454545454545454;"/>
<circle cx="807.0259443378109" cy="261.61988216662496" r="69" style="stroke:#554F50; stroke-opacity: 0.3;fill:#554F50; fill-opacity: 0.05454545454545454;"/>
<path d="M 791.9909708346976 188.80316312005175 Z" style="stroke:#554F50; stroke-opacity: 0.3;fill:#554F50; fill-opacity: 0.05454545454545454;"/>
<circle cx="722.9909708346976" cy="188.80316312005178" r="69" style="stroke:#554F50; stroke-opacity: 0.3;fill:#554F50; fill-opacity: 0.05454545454545454;"/>
<path d="M 681.9285619840554 172.97857774252924 Z" style="stroke:#554F50; stroke-opacity: 0.3;fill:#554F50; fill-opacity: 0.05454545454545454;"/>
<circle cx="612.9285619840554" cy="172.97857774252927" r="69" style="stroke:#554F50; stroke-opacity: 0.3;fill:#554F50; fill-opacity: 0.05454545454545454;"/>
<path d="M 580.7827549321429 219.17032008024324 Z" style="stroke:#554F50; stroke-opacity: 0.3;fill:#554F50; fill-opacity: 0.05454545454545454;"/>
<circle cx="511.7827549321429" cy="219.17032008024327" r="69" style="stroke:#554F50; stroke-opacity: 0.3;fill:#554F50; fill-opacity: 0.05454545454545454;"/>
<path d="M 520.6666287558205 312.71283831622475 Z" style="stroke:#554F50; stroke-opacity: 0.3;fill:#554F50; fill-opacity: 0.05454545454545454;"/>
<circle cx="451.6666287558205" cy="312.71283831622475" r="69" style="stroke:#554F50; stroke-opacity: 0.3;fill:#554F50; fill-opacity: 0.05454545454545454;"/>
<path d="M 520.6666287558205 423.9070438504002 Z" style="stroke:#554F50; stroke-opacity: 0.3;fill:#554F50; fill-opacity: 0.05454545454545454;"/>
<circle cx="451.6666287558205" cy="423.9070438504002" r="69" style="stroke:#554F50; stroke-opacity: 0.3;fill:#554F50; fill-opacity: 0.05454545454545454;"/>
<path d="M 580.7827549321429 517.4495620863819 Z" style="stroke:#554F50; stroke-opacity: 0.3;fill:#554F50; fill-opacity: 0.05454545454545454;"/>
<circle cx="511.7827549321429" cy="517.4495620863819" r="69" style="stroke:#554F50; stroke-opacity: 0.3;fill:#554F50; fill-opacity: 0.05454545454545454;"/>
<path d="M 681.9285619840554 563.6413044240957 Z" style="stroke:#554F50; stroke-opacity: 0.3;fill:#554F50; fill-opacity: 0.05454545454545454;"/>
<circle cx="612.9285619840554" cy="563.6413044240957" r="69" style="stroke:#554F50; stroke-opacity: 0.3;fill:#554F50; fill-opacity: 0.05454545454545454;"/>
<path d="M 791.9909708346976 547.8167190465732 Z" style="stroke:#554F50; stroke-opacity: 0.3;fill:#554F50; fill-opacity: 0.05454545454545454;"/>
<circle cx="722.9909708346976" cy="547.8167190465732" r="69" style="stroke:#554F50; stroke-opacity: 0.3;fill:#554F50; fill-opacity: 0.05454545454545454;"/>
<path d="M 876.0259443378109 475 Z" style="stroke:#554F50; stroke-opacity: 0.3;fill:#554F50; fill-opacity: 0.05454545454545454;"/>
<circle cx="807.0259443378109" cy="475" r="69" style="stroke:#554F50; stroke-opacity: 0.3;fill:#554F50; fill-opacity: 0.05454545454545454;"/>
<path d="M 641.0129721689054 368.3099410833125 L 807.0259443378109 475 L 722.9909708346976 547.8167190465732 Z" style="stroke:#F7B4C3; stroke-opacity: 0;fill:#F7B4C3; fill-opacity: 0;"/>
<path d="M 641.0129721689054 368.3099410833125 L 722.9909708346976 547.8167190465732 L 612.9285619840554 563.6413044240957 Z" style="stroke:#F7B4C3; stroke-opacity: 0;fill:#F7B4C3; fill-opacity: 0;"/>
<path d="M 641.0129721689054 368.3099410833125 L 612.9285619840554 563.6413044240957 L 511.7827549321429 517.4495620863819 Z" style="stroke:#F7B4C3; stroke-opacity: 0;fill:#F7B4C3; fill-opacity: 0;"/>
<path d="M 641.0129721689054 368.3099410833125 L 511.7827549321429 517.4495620863819 L 451.6666287558205 423.9070438504002 Z" style="stroke:#F7B4C3; stroke-opacity: 0;fill:#F7B4C3; fill-opacity: 0;"/>
<path d="M 641.0129721689054 368.3099410833125 L 451.6666287558205 423.9070438504002 L 451.6666287558205 312.71283831622475 Z" style="stroke:#F7B4C3; stroke-opacity: 0;fill:#F7B4C3; fill-opacity: 0;"/>
<path d="M 641.0129721689054 368.3099410833125 L 451.6666287558205 312.71283831622475 L 511.7827549321429 219.17032008024327 Z" style="stroke:#F7B4C3; stroke-opacity: 0;fill:#F7B4C3; fill-opacity: 0;"/>
<path d="M 641.0129721689054 368.3099410833125 L 511.7827549321429 219.17032008024327 L 612.9285619840554 172.97857774252927 Z" style="stroke:#F7B4C3; stroke-opacity: 0;fill:#F7B4C3; fill-opacity: 0;"/>
<path d="M 641.0129721689054 368.3099410833125 L 612.9285619840554 172.97857774252927 L 722.9909708346976 188.80316312005178 Z" style="stroke:#F7B4C3; stroke-opacity: 0;fill:#F7B4C3; fill-opacity: 0;"/>
<path d="M 641.0129721689054 368.3099410833125 L 722.9909708346976 188.80316312005178 L 807.0259443378109 261.61988216662496 Z" style="stroke:#F7B4C3; stroke-opacity: 0;fill:#F7B4C3; fill-opacity: 0;"/>
<path d="M 641.0129721689054 368.3099410833125 L 807.0259443378109 261.61988216662496 L 838.3529721689055 368.3099410833125 Z" style="stroke:#F7B4C3; stroke-opacity: 0;fill:#F7B4C3; fill-opacity: 0;"/>
<path d="M 641.0129721689054 368.3099410833125 L 838.3529721689055 368.3099410833125 L 807.0259443378109 475 Z" style="stroke:#F7B4C3; stroke-opacity: 0;fill:#F7B4C3; fill-opacity: 0;"/>
<path d="M 724.019458253358 421.6549705416563 C 723.6766291138046 463.7088867099619 723.6766291138046 463.7088867099619 682.0019715018016 458.0633300649429 C 658.9775016625529 493.2559881846606 658.9775016625529 493.2559881846606 626.9707670764802 465.9756227537041 C 588.5747630283679 483.13360253126336 588.5747630283679 483.13360253126336 576.3978635505242 442.8797515848472 C 534.8207852856231 436.5555156733649 534.8207852856231 436.5555156733649 546.3398004623631 396.1084924668563 C 514.7820765601821 368.3099410833125 514.7820765601821 368.3099410833125 546.339800462363 340.51138969976853 C 534.8207852856231 300.06436649326014 534.8207852856231 300.06436649326014 576.3978635505241 293.74013058177786 C 588.574763028368 253.48627963536165 588.574763028368 253.48627963536165 626.9707670764805 270.64425941292086 C 658.9775016625529 243.36389398196437 658.9775016625529 243.36389398196437 682.0019715018017 278.5565521016821 C 723.6766291138046 272.91099545666316 723.6766291138046 272.91099545666316 724.019458253358 314.96491162496875 C 762.1306295585406 332.7465881110833 762.1306295585406 332.7465881110833 739.6829721689055 368.30994108331254 C 762.1306295585406 403.87329405554163 762.1306295585406 403.87329405554163 724.019458253358 421.65497054165627 M 739.6829721689055 368.3099410833124 Z" style="stroke:#298FF8; stroke-opacity: 1;fill:#A54AFC; fill-opacity: 0.37272727272727274;"/>
<path d="M 741.34 475 Z" style="stroke:#B82C3A; stroke-opacity: 0;fill:#B82C3A; fill-opacity: 0;"/>
<circle cx="672.34" cy="475" r="69" style="stroke:#B82C3A; stroke-opacity: 0;fill:#B82C3A; fill-opacity: 0;"/>
<path d="M 938.6800000000001 475 Z" style="stroke:#554F50; stroke-opacity: 0.3;fill:#554F50; fill-opacity: 0.05454545454545454;"/>
<circle cx="869.6800000000001" cy="475" r="69" style="stroke:#554F50; stroke-opacity: 0.3;fill:#554F50; fill-opacity: 0.05454545454545454;"/>
<path d="M 907.3529721689055 368.3099410833125 Z" style="stroke:#554F50; stroke-opacity: 0.3;fill:#554F50; fill-opacity: 0.05454545454545454;"/>
<circle cx="838.3529721689055" cy="368.3099410833125" r="69" style="stroke:#554F50; stroke-opacity: 0.3;fill:#554F50; fill-opacity: 0.05454545454545454;"/>
<path d="M 823.3179986657922 295.4932220367393 Z" style="stroke:#554F50; stroke-opacity: 0.3;fill:#554F50; fill-opacity: 0.05454545454545454;"/>
<circle cx="754.3179986657922" cy="295.4932220367393" r="69" style="stroke:#554F50; stroke-opacity: 0.3;fill:#554F50; fill-opacity: 0.05454545454545454;"/>
<path d="M 713.25558981515 279.66863665921676 Z" style="stroke:#554F50; stroke-opacity: 0.3;fill:#554F50; fill-opacity: 0.05454545454545454;"/>
<circle cx="644.25558981515" cy="279.66863665921676" r="69" style="stroke:#554F50; stroke-opacity: 0.3;fill:#554F50; fill-opacity: 0.05454545454545454;"/>
<path d="M 612.1097827632375 325.86037899693065 Z" style="stroke:#554F50; stroke-opacity: 0.3;fill:#554F50; fill-opacity: 0.05454545454545454;"/>
<circle cx="543.1097827632375" cy="325.86037899693065" r="69" style="stroke:#554F50; stroke-opacity: 0.3;fill:#554F50; fill-opacity: 0.05454545454545454;"/>
<path d="M 551.9936565869151 419.40289723291227 Z" style="stroke:#554F50; stroke-opacity: 0.3;fill:#554F50; fill-opacity: 0.05454545454545454;"/>
<circle cx="482.9936565869151" cy="419.40289723291227" r="69" style="stroke:#554F50; stroke-opacity: 0.3;fill:#554F50; fill-opacity: 0.05454545454545454;"/>
<path d="M 551.9936565869151 530.5971027670877 Z" style="stroke:#554F50; stroke-opacity: 0.3;fill:#554F50; fill-opacity: 0.05454545454545454;"/>
<circle cx="482.9936565869151" cy="530.5971027670877" r="69" style="stroke:#554F50; stroke-opacity: 0.3;fill:#554F50; fill-opacity: 0.05454545454545454;"/>
<path d="M 612.1097827632375 624.1396210030694 Z" style="stroke:#554F50; stroke-opacity: 0.3;fill:#554F50; fill-opacity: 0.05454545454545454;"/>
<circle cx="543.1097827632375" cy="624.1396210030694" r="69" style="stroke:#554F50; stroke-opacity: 0.3;fill:#554F50; fill-opacity: 0.05454545454545454;"/>
<path d="M 713.25558981515 670.3313633407834 Z" style="stroke:#554F50; stroke-opacity: 0.3;fill:#554F50; fill-opacity: 0.05454545454545454;"/>
<circle cx="644.25558981515" cy="670.3313633407834" r="69" style="stroke:#554F50; stroke-opacity: 0.3;fill:#554F50; fill-opacity: 0.05454545454545454;"/>
<path d="M 823.3179986657922 654.5067779632606 Z" style="stroke:#554F50; stroke-opacity: 0.3;fill:#554F50; fill-opacity: 0.05454545454545454;"/>
<circle cx="754.3179986657922" cy="654.5067779632606" r="69" style="stroke:#554F50; stroke-opacity: 0.3;fill:#554F50; fill-opacity: 0.05454545454545454;"/>
<path d="M 907.3529721689055 581.6900589166877 Z" style="stroke:#554F50; stroke-opacity: 0.3;fill:#554F50; fill-opacity: 0.05454545454545454;"/>
<circle cx="838.3529721689055" cy="581.6900589166877" r="69" style="stroke:#554F50; stroke-opacity: 0.3;fill:#554F50; fill-opacity: 0.05454545454545454;"/>
<path d="M 672.34 475 L 838.3529721689055 581.6900589166877 L 754.3179986657922 654.5067779632606 Z" style="stroke:#F7B4C3; stroke-opacity: 0;fill:#F7B4C3; fill-opacity: 0;"/>
<path d="M 672.34 475 L 754.3179986657922 654.5067779632606 L 644.25558981515 670.3313633407834 Z" style="stroke:#F7B4C3; stroke-opacity: 0;fill:#F7B4C3; fill-opacity: 0;"/>
<path d="M 672.34 475 L 644.25558981515 670.3313633407834 L 543.1097827632375 624.1396210030694 Z" style="stroke:#F7B4C3; stroke-opacity: 0;fill:#F7B4C3; fill-opacity: 0;"/>
<path d="M 672.34 475 L 543.1097827632375 624.1396210030694 L 482.9936565869151 530.5971027670877 Z" style="stroke:#F7B4C3; stroke-opacity: 0;fill:#F7B4C3; fill-opacity: 0;"/>
<path d="M 672.34 475 L 482.9936565869151 530.5971027670877 L 482.9936565869151 419.40289723291227 Z" style="stroke:#F7B4C3; stroke-opacity: 0;fill:#F7B4C3; fill-opacity: 0;"/>
<path d="M 672.34 475 L 482.9936565869151 419.40289723291227 L 543.1097827632375 325.86037899693065 Z" style="stroke:#F7B4C3; stroke-opacity: 0;fill:#F7B4C3; fill-opacity: 0;"/>
<path d="M 672.34 475 L 543.1097827632375 325.86037899693065 L 644.25558981515 279.66863665921676 Z" style="stroke:#F7B4C3; stroke-opacity: 0;fill:#F7B4C3; fill-opacity: 0;"/>
<path d="M 672.34 475 L 644.25558981515 279.66863665921676 L 754.3179986657922 295.4932220367393 Z" style="stroke:#F7B4C3; stroke-opacity: 0;fill:#F7B4C3; fill-opacity: 0;"/>
<path d="M 672.34 475 L 754.3179986657922 295.4932220367393 L 838.3529721689055 368.3099410833125 Z" style="stroke:#F7B4C3; stroke-opacity: 0;fill:#F7B4C3; fill-opacity: 0;"/>
<path d="M 672.34 475 L 838.3529721689055 368.3099410833125 L 869.6800000000001 475 Z" style="stroke:#F7B4C3; stroke-opacity: 0;fill:#F7B4C3; fill-opacity: 0;"/>
<path d="M 672.34 475 L 869.6800000000001 475 L 838.3529721689055 581.6900589166877 Z" style="stroke:#F7B4C3; stroke-opacity: 0;fill:#F7B4C3; fill-opacity: 0;"/>
<path d="M 755.3464860844526 528.3450294583439 C 755.0036569448991 570.3989456266495 755.0036569448991 570.3989456266495 713.3289993328962 564.7533889816303 C 690.3045294936474 599.946047101348 690.3045294936474 599.946047101348 658.297794907575 572.6656816703918 C 619.9017908594625 589.8236614479509 619.9017908594625 589.8236614479509 607.7248913816188 549.5698105015347 C 566.1478131167175 543.2455745900525 566.1478131167175 543.2455745900525 577.6668282934577 502.7985513835438 C 546.1091043912768 475 546.1091043912768 475 577.6668282934576 447.2014486164561 C 566.1478131167177 406.75442540994766 566.1478131167177 406.75442540994766 607.7248913816187 400.4301894984654 C 619.9017908594625 360.1763385520492 619.9017908594625 360.1763385520492 658.297794907575 377.33431832960844 C 690.3045294936474 350.0539528986521 690.3045294936474 350.0539528986521 713.328999332896 385.24661101836966 C 755.0036569448991 379.6010543733507 755.0036569448991 379.6010543733507 755.3464860844526 421.6549705416562 C 793.4576573896352 439.43664702777085 793.4576573896352 439.43664702777085 771.0100000000001 475.00000000000006 C 793.4576573896352 510.56335297222915 793.4576573896352 510.56335297222915 755.3464860844526 528.3450294583438 M 771.0100000000001 474.9999999999999 Z" style="stroke:#298FF8; stroke-opacity: 1;fill:#A54AFC; fill-opacity: 0.37272727272727274;"/>
<path d="M 544 475 Z" style="stroke:#B82C3A; stroke-opacity: 0;fill:#B82C3A; fill-opacity: 0;"/>
<circle cx="475" cy="475" r="69" style="stroke:#B82C3A; stroke-opacity: 0;fill:#B82C3A; fill-opacity: 0;"/>
<path d="M 741.34 475 Z" style="stroke:#554F50; stroke-opacity: 0.3;fill:#554F50; fill-opacity: 0.05454545454545454;"/>
<circle cx="672.34" cy="475" r="69" style="stroke:#554F50; stroke-opacity: 0.3;fill:#554F50; fill-opacity: 0.05454545454545454;"/>
<path d="M 710.0129721689054 368.3099410833125 Z" style="stroke:#554F50; stroke-opacity: 0.3;fill:#554F50; fill-opacity: 0.05454545454545454;"/>
<circle cx="641.0129721689054" cy="368.3099410833125" r="69" style="stroke:#554F50; stroke-opacity: 0.3;fill:#554F50; fill-opacity: 0.05454545454545454;"/>
<path d="M 625.9779986657921 295.4932220367393 Z" style="stroke:#554F50; stroke-opacity: 0.3;fill:#554F50; fill-opacity: 0.05454545454545454;"/>
<circle cx="556.9779986657921" cy="295.4932220367393" r="69" style="stroke:#554F50; stroke-opacity: 0.3;fill:#554F50; fill-opacity: 0.05454545454545454;"/>
<path d="M 515.9155898151498 279.66863665921676 Z" style="stroke:#554F50; stroke-opacity: 0.3;fill:#554F50; fill-opacity: 0.05454545454545454;"/>
<circle cx="446.9155898151499" cy="279.66863665921676" r="69" style="stroke:#554F50; stroke-opacity: 0.3;fill:#554F50; fill-opacity: 0.05454545454545454;"/>
<path d="M 414.76978276323746 325.86037899693065 Z" style="stroke:#554F50; stroke-opacity: 0.3;fill:#554F50; fill-opacity: 0.05454545454545454;"/>
<circle cx="345.76978276323746" cy="325.86037899693065" r="69" style="stroke:#554F50; stroke-opacity: 0.3;fill:#554F50; fill-opacity: 0.05454545454545454;"/>
<path d="M 354.6536565869151 419.40289723291227 Z" style="stroke:#554F50; stroke-opacity: 0.3;fill:#554F50; fill-opacity: 0.05454545454545454;"/>
<circle cx="285.6536565869151" cy="419.40289723291227" r="69" style="stroke:#554F50; stroke-opacity: 0.3;fill:#554F50; fill-opacity: 0.05454545454545454;"/>
<path d="M 354.6536565869151 530.5971027670877 Z" style="stroke:#554F50; stroke-opacity: 0.3;fill:#554F50; fill-opacity: 0.05454545454545454;"/>
<circle cx="285.6536565869151" cy="530.5971027670877" r="69" style="stroke:#554F50; stroke-opacity: 0.3;fill:#554F50; fill-opacity: 0.05454545454545454;"/>
<path d="M 414.76978276323746 624.1396210030694 Z" style="stroke:#554F50; stroke-opacity: 0.3;fill:#554F50; fill-opacity: 0.05454545454545454;"/>
<circle cx="345.76978276323746" cy="624.1396210030694" r="69" style="stroke:#554F50; stroke-opacity: 0.3;fill:#554F50; fill-opacity: 0.05454545454545454;"/>
<path d="M 515.9155898151498 670.3313633407834 Z" style="stroke:#554F50; stroke-opacity: 0.3;fill:#554F50; fill-opacity: 0.05454545454545454;"/>
<circle cx="446.9155898151499" cy="670.3313633407834" r="69" style="stroke:#554F50; stroke-opacity: 0.3;fill:#554F50; fill-opacity: 0.05454545454545454;"/>
<path d="M 625.9779986657923 654.5067779632606 Z" style="stroke:#554F50; stroke-opacity: 0.3;fill:#554F50; fill-opacity: 0.05454545454545454;"/>
<circle cx="556.9779986657923" cy="654.5067779632606" r="69" style="stroke:#554F50; stroke-opacity: 0.3;fill:#554F50; fill-opacity: 0.05454545454545454;"/>
<path d="M 710.0129721689054 581.6900589166877 Z" style="stroke:#554F50; stroke-opacity: 0.3;fill:#554F50; fill-opacity: 0.05454545454545454;"/>
<circle cx="641.0129721689054" cy="581.6900589166877" r="69" style="stroke:#554F50; stroke-opacity: 0.3;fill:#554F50; fill-opacity: 0.05454545454545454;"/>
<path d="M 475 475 L 641.0129721689054 581.6900589166877 L 556.9779986657923 654.5067779632606 Z" style="stroke:#F7B4C3; stroke-opacity: 0;fill:#F7B4C3; fill-opacity: 0;"/>
<path d="M 475 475 L 556.9779986657923 654.5067779632606 L 446.9155898151499 670.3313633407834 Z" style="stroke:#F7B4C3; stroke-opacity: 0;fill:#F7B4C3; fill-opacity: 0;"/>
<path d="M 475 475 L 446.9155898151499 670.3313633407834 L 345.76978276323746 624.1396210030694 Z" style="stroke:#F7B4C3; stroke-opacity: 0;fill:#F7B4C3; fill-opacity: 0;"/>
<path d="M 475 475 L 345.76978276323746 624.1396210030694 L 285.6536565869151 530.5971027670877 Z" style="stroke:#F7B4C3; stroke-opacity: 0;fill:#F7B4C3; fill-opacity: 0;"/>
<path d="M 475 475 L 285.6536565869151 530.5971027670877 L 285.6536565869151 419.40289723291227 Z" style="stroke:#F7B4C3; stroke-opacity: 0;fill:#F7B4C3; fill-opacity: 0;"/>
<path d="M 475 475 L 285.6536565869151 419.40289723291227 L 345.76978276323746 325.86037899693065 Z" style="stroke:#F7B4C3; stroke-opacity: 0;fill:#F7B4C3; fill-opacity: 0;"/>
<path d="M 475 475 L 345.76978276323746 325.86037899693065 L 446.9155898151499 279.66863665921676 Z" style="stroke:#F7B4C3; stroke-opacity: 0;fill:#F7B4C3; fill-opacity: 0;"/>
<path d="M 475 475 L 446.9155898151499 279.66863665921676 L 556.9779986657921 295.4932220367393 Z" style="stroke:#F7B4C3; stroke-opacity: 0;fill:#F7B4C3; fill-opacity: 0;"/>
<path d="M 475 475 L 556.9779986657921 295.4932220367393 L 641.0129721689054 368.3099410833125 Z" style="stroke:#F7B4C3; stroke-opacity: 0;fill:#F7B4C3; fill-opacity: 0;"/>
<path d="M 475 475 L 641.0129721689054 368.3099410833125 L 672.34 475 Z" style="stroke:#F7B4C3; stroke-opacity: 0;fill:#F7B4C3; fill-opacity: 0;"/>
<path d="M 475 475 L 672.34 475 L 641.0129721689054 581.6900589166877 Z" style="stroke:#F7B4C3; stroke-opacity: 0;fill:#F7B4C3; fill-opacity: 0;"/>
<path d="M 558.0064860844527 528.3450294583439 C 557.6636569448992 570.3989456266495 557.6636569448992 570.3989456266495 515.9889993328961 564.7533889816303 C 492.9645294936473 599.946047101348 492.9645294936473 599.946047101348 460.9577949075749 572.6656816703918 C 422.56179085946246 589.8236614479509 422.56179085946246 589.8236614479509 410.38489138161873 549.5698105015347 C 368.8078131167175 543.2455745900525 368.8078131167175 543.2455745900525 380.32682829345754 502.7985513835438 C 348.7691043912767 475 348.7691043912767 475 380.32682829345754 447.2014486164561 C 368.80781311671757 406.75442540994766 368.80781311671757 406.75442540994766 410.3848913816187 400.4301894984654 C 422.56179085946246 360.1763385520492 422.56179085946246 360.1763385520492 460.957794907575 377.33431832960844 C 492.9645294936473 350.05395289865197 492.9645294936473 350.05395289865197 515.9889993328961 385.24661101836966 C 557.6636569448991 379.6010543733507 557.6636569448991 379.6010543733507 558.0064860844526 421.6549705416562 C 596.1176573896352 439.43664702777085 596.1176573896352 439.43664702777085 573.6700000000001 475.00000000000006 C 596.1176573896352 510.56335297222915 596.1176573896352 510.56335297222915 558.0064860844526 528.3450294583438 M 573.6700000000001 474.9999999999999 Z" style="stroke:#298FF8; stroke-opacity: 1;fill:#A54AFC; fill-opacity: 0.37272727272727274;"/>
</g>
</svg>