<?xml version="1.0"?><!DOCTYPE svg PUBLIC "-//W3C//DTD SVG 1.1//EN" "http://www.w3.org/Graphics/SVG/1.1/DTD/svg11.dtd"><svg xmlns="http://www.w3.org/2000/svg" width="950" height="950">
<title>PatternSeventyFive</title>
<desc>
Generated using the following configuration:

@implementation NewPattern : PatternSeventyFive
+ (CPDict) defaultConfig
{
 return [CPDictionary dictionaryWithObjectsAndKeys:[[GRColor alloc] initWithGradientColors:[] baseColor:[CPColor colorWith8BitRed:144 green:18 blue:169 alpha:0.47843137254901963]], "background_color", 0, "background_color_direction", 29, "number_of_points", 180, "rotation", 0, "recurse_depth", 0.8509803921568627, "factor_larger", [GRPoint pointWithX:475 Y:475], "center_point", 192, "radius", YES, "show_shapes", [[CPColor colorWith8BitRed:108 green:101 blue:91 alpha:0.3333333333333333],[CPColor colorWith8BitRed:103 green:93 blue:176 alpha:0.9058823529411765],[CPColor colorWith8BitRed:114 green:222 blue:156 alpha:0.9607843137254902],[CPColor colorWith8BitRed:166 green:127 blue:2 alpha:0.7450980392156863],[CPColor colorWith8BitRed:71 green:5 blue:151 alpha:0.38823529411764707],[CPColor colorWith8BitRed:93 green:112 blue:107 alpha:0.6509803921568628]], "stroke_colors", [[CPColor colorWith8BitRed:128 green:158 blue:167 alpha:0.1843137254901961],[CPColor colorWith8BitRed:189 green:230 blue:28 alpha:0.47058823529411764],[CPColor colorWith8BitRed:131 green:205 blue:44 alpha:0.8627450980392157],[CPColor colorWith8BitRed:197 green:226 blue:96 alpha:0.792156862745098],[CPColor colorWith8BitRed:4 green:113 blue:25 alpha:0.8745098039215686],[CPColor colorWith8BitRed:222 green:189 blue:82 alpha:0.1411764705882353]], "fill_colors"];
}
@end

</desc>
  <defs>
    <linearGradient id="grad1" x1="0%" y1="0%" x2="100%" y2="0%">
<stop offset="100%" style="stop-color:#9012A9;stop-opacity:0.47843137254901963;" />
    </linearGradient>
  </defs>
<rect id="background" width="100%" height="100%" fill="url(#grad1)"/>
<g id="rotatelayer" transform="rotate(180, 475, 475)">
<path d="M 667 474.99999999999994 Z" style="stroke:#6C655B; stroke-opacity: 0.3333333333333333;fill:#809EA7; fill-opacity: 0.1843137254901961;"/>
<circle cx="475" cy="475" r="192" style="stroke:#6C655B; stroke-opacity: 0.3333333333333333;fill:#809EA7; fill-opacity: 0.1843137254901961;"/>
<path d="M 830.3882352941176 474.9999999999999 Z" style="stroke:#675DB0; stroke-opacity: 0.9058823529411765;fill:#BDE61C; fill-opacity: 0.47058823529411764;"/>
<circle cx="638.3882352941176" cy="474.99999999999994" r="192" style="stroke:#675DB0; stroke-opacity: 0.9058823529411765;fill:#BDE61C; fill-opacity: 0.47058823529411764;"/>
<path d="M 826.5683091494316 439.876359133521 Z" style="stroke:#72DE9C; stroke-opacity: 0.9607843137254902;fill:#83CD2C; fill-opacity: 0.8627450980392157;"/>
<circle cx="634.5683091494316" cy="439.8763591335211" r="192" style="stroke:#72DE9C; stroke-opacity: 0.9607843137254902;fill:#83CD2C; fill-opacity: 0.8627450980392157;"/>
<path d="M 815.2871462163558 406.3950606768357 Z" style="stroke:#675DB0; stroke-opacity: 0.9058823529411765;fill:#BDE61C; fill-opacity: 0.47058823529411764;"/>
<circle cx="623.2871462163558" cy="406.3950606768358" r="192" style="stroke:#675DB0; stroke-opacity: 0.9058823529411765;fill:#BDE61C; fill-opacity: 0.47058823529411764;"/>
<path d="M 797.0722411355292 376.1216529339881 Z" style="stroke:#72DE9C; stroke-opacity: 0.9607843137254902;fill:#83CD2C; fill-opacity: 0.8627450980392157;"/>
<circle cx="605.0722411355292" cy="376.1216529339882" r="192" style="stroke:#72DE9C; stroke-opacity: 0.9607843137254902;fill:#83CD2C; fill-opacity: 0.8627450980392157;"/>
<path d="M 772.7753026241179 350.4716868045574 Z" style="stroke:#675DB0; stroke-opacity: 0.9058823529411765;fill:#BDE61C; fill-opacity: 0.47058823529411764;"/>
<circle cx="580.7753026241179" cy="350.47168680455746" r="192" style="stroke:#675DB0; stroke-opacity: 0.9058823529411765;fill:#BDE61C; fill-opacity: 0.47058823529411764;"/>
<path d="M 743.5324285228081 330.64452619686625 Z" style="stroke:#72DE9C; stroke-opacity: 0.9607843137254902;fill:#83CD2C; fill-opacity: 0.8627450980392157;"/>
<circle cx="551.5324285228081" cy="330.6445261968663" r="192" style="stroke:#72DE9C; stroke-opacity: 0.9607843137254902;fill:#83CD2C; fill-opacity: 0.8627450980392157;"/>
<path d="M 710.7109831234567 317.5672671046239 Z" style="stroke:#675DB0; stroke-opacity: 0.9058823529411765;fill:#BDE61C; fill-opacity: 0.47058823529411764;"/>
<circle cx="518.7109831234567" cy="317.56726710462397" r="192" style="stroke:#675DB0; stroke-opacity: 0.9058823529411765;fill:#BDE61C; fill-opacity: 0.47058823529411764;"/>
<path d="M 675.845660734521 311.851387628654 Z" style="stroke:#72DE9C; stroke-opacity: 0.9607843137254902;fill:#83CD2C; fill-opacity: 0.8627450980392157;"/>
<circle cx="483.84566073452095" cy="311.85138762865404" r="192" style="stroke:#72DE9C; stroke-opacity: 0.9607843137254902;fill:#83CD2C; fill-opacity: 0.8627450980392157;"/>
<path d="M 640.5667250808847 313.7641559405092 Z" style="stroke:#675DB0; stroke-opacity: 0.9058823529411765;fill:#BDE61C; fill-opacity: 0.47058823529411764;"/>
<circle cx="448.56672508088474" cy="313.7641559405093" r="192" style="stroke:#675DB0; stroke-opacity: 0.9058823529411765;fill:#BDE61C; fill-opacity: 0.47058823529411764;"/>
<path d="M 606.5237799839914 323.21613311981645 Z" style="stroke:#72DE9C; stroke-opacity: 0.9607843137254902;fill:#83CD2C; fill-opacity: 0.8627450980392157;"/>
<circle cx="414.5237799839914" cy="323.2161331198165" r="192" style="stroke:#72DE9C; stroke-opacity: 0.9607843137254902;fill:#83CD2C; fill-opacity: 0.8627450980392157;"/>
<path d="M 575.3086357205557 339.76535521878947 Z" style="stroke:#675DB0; stroke-opacity: 0.9058823529411765;fill:#BDE61C; fill-opacity: 0.47058823529411764;"/>
<circle cx="383.3086357205557" cy="339.7653552187895" r="192" style="stroke:#675DB0; stroke-opacity: 0.9058823529411765;fill:#BDE61C; fill-opacity: 0.47058823529411764;"/>
<path d="M 548.3808777431948 362.63799900521946 Z" style="stroke:#72DE9C; stroke-opacity: 0.9607843137254902;fill:#83CD2C; fill-opacity: 0.8627450980392157;"/>
<circle cx="356.3808777431948" cy="362.6379990052195" r="192" style="stroke:#72DE9C; stroke-opacity: 0.9607843137254902;fill:#83CD2C; fill-opacity: 0.8627450980392157;"/>
<path d="M 526.9996180868767 390.7645650767708 Z" style="stroke:#675DB0; stroke-opacity: 0.9058823529411765;fill:#BDE61C; fill-opacity: 0.47058823529411764;"/>
<circle cx="334.9996180868767" cy="390.76456507677085" r="192" style="stroke:#675DB0; stroke-opacity: 0.9058823529411765;fill:#BDE61C; fill-opacity: 0.47058823529411764;"/>
<path d="M 512.1646206895675 422.82988646437065 Z" style="stroke:#72DE9C; stroke-opacity: 0.9607843137254902;fill:#83CD2C; fill-opacity: 0.8627450980392157;"/>
<circle cx="320.1646206895675" cy="422.8298864643707" r="192" style="stroke:#72DE9C; stroke-opacity: 0.9607843137254902;fill:#83CD2C; fill-opacity: 0.8627450980392157;"/>
<path d="M 504.56955354165007 457.3346243779799 Z" style="stroke:#675DB0; stroke-opacity: 0.9058823529411765;fill:#BDE61C; fill-opacity: 0.47058823529411764;"/>
<circle cx="312.56955354165007" cy="457.33462437797994" r="192" style="stroke:#675DB0; stroke-opacity: 0.9058823529411765;fill:#BDE61C; fill-opacity: 0.47058823529411764;"/>
<path d="M 504.56955354165007 492.66537562202 Z" style="stroke:#72DE9C; stroke-opacity: 0.9607843137254902;fill:#83CD2C; fill-opacity: 0.8627450980392157;"/>
<circle cx="312.56955354165007" cy="492.66537562202006" r="192" style="stroke:#72DE9C; stroke-opacity: 0.9607843137254902;fill:#83CD2C; fill-opacity: 0.8627450980392157;"/>
<path d="M 512.1646206895675 527.1701135356292 Z" style="stroke:#675DB0; stroke-opacity: 0.9058823529411765;fill:#BDE61C; fill-opacity: 0.47058823529411764;"/>
<circle cx="320.1646206895675" cy="527.1701135356292" r="192" style="stroke:#675DB0; stroke-opacity: 0.9058823529411765;fill:#BDE61C; fill-opacity: 0.47058823529411764;"/>
<path d="M 526.9996180868767 559.2354349232291 Z" style="stroke:#72DE9C; stroke-opacity: 0.9607843137254902;fill:#83CD2C; fill-opacity: 0.8627450980392157;"/>
<circle cx="334.9996180868767" cy="559.2354349232291" r="192" style="stroke:#72DE9C; stroke-opacity: 0.9607843137254902;fill:#83CD2C; fill-opacity: 0.8627450980392157;"/>
<path d="M 548.3808777431948 587.3620009947805 Z" style="stroke:#675DB0; stroke-opacity: 0.9058823529411765;fill:#BDE61C; fill-opacity: 0.47058823529411764;"/>
<circle cx="356.3808777431948" cy="587.3620009947805" r="192" style="stroke:#675DB0; stroke-opacity: 0.9058823529411765;fill:#BDE61C; fill-opacity: 0.47058823529411764;"/>
<path d="M 575.3086357205557 610.2346447812106 Z" style="stroke:#72DE9C; stroke-opacity: 0.9607843137254902;fill:#83CD2C; fill-opacity: 0.8627450980392157;"/>
<circle cx="383.3086357205557" cy="610.2346447812106" r="192" style="stroke:#72DE9C; stroke-opacity: 0.9607843137254902;fill:#83CD2C; fill-opacity: 0.8627450980392157;"/>
<path d="M 606.5237799839914 626.7838668801835 Z" style="stroke:#675DB0; stroke-opacity: 0.9058823529411765;fill:#BDE61C; fill-opacity: 0.47058823529411764;"/>
<circle cx="414.5237799839914" cy="626.7838668801835" r="192" style="stroke:#675DB0; stroke-opacity: 0.9058823529411765;fill:#BDE61C; fill-opacity: 0.47058823529411764;"/>
<path d="M 640.5667250808847 636.2358440594908 Z" style="stroke:#72DE9C; stroke-opacity: 0.9607843137254902;fill:#83CD2C; fill-opacity: 0.8627450980392157;"/>
<circle cx="448.56672508088474" cy="636.2358440594908" r="192" style="stroke:#72DE9C; stroke-opacity: 0.9607843137254902;fill:#83CD2C; fill-opacity: 0.8627450980392157;"/>
<path d="M 675.845660734521 638.148612371346 Z" style="stroke:#675DB0; stroke-opacity: 0.9058823529411765;fill:#BDE61C; fill-opacity: 0.47058823529411764;"/>
<circle cx="483.84566073452095" cy="638.148612371346" r="192" style="stroke:#675DB0; stroke-opacity: 0.9058823529411765;fill:#BDE61C; fill-opacity: 0.47058823529411764;"/>
<path d="M 710.7109831234567 632.432732895376 Z" style="stroke:#72DE9C; stroke-opacity: 0.9607843137254902;fill:#83CD2C; fill-opacity: 0.8627450980392157;"/>
<circle cx="518.7109831234567" cy="632.432732895376" r="192" style="stroke:#72DE9C; stroke-opacity: 0.9607843137254902;fill:#83CD2C; fill-opacity: 0.8627450980392157;"/>
<path d="M 743.5324285228081 619.3554738031337 Z" style="stroke:#675DB0; stroke-opacity: 0.9058823529411765;fill:#BDE61C; fill-opacity: 0.47058823529411764;"/>
<circle cx="551.5324285228081" cy="619.3554738031337" r="192" style="stroke:#675DB0; stroke-opacity: 0.9058823529411765;fill:#BDE61C; fill-opacity: 0.47058823529411764;"/>
<path d="M 772.7753026241179 599.5283131954425 Z" style="stroke:#72DE9C; stroke-opacity: 0.9607843137254902;fill:#83CD2C; fill-opacity: 0.8627450980392157;"/>
<circle cx="580.7753026241179" cy="599.5283131954425" r="192" style="stroke:#72DE9C; stroke-opacity: 0.9607843137254902;fill:#83CD2C; fill-opacity: 0.8627450980392157;"/>
<path d="M 797.0722411355292 573.8783470660119 Z" style="stroke:#675DB0; stroke-opacity: 0.9058823529411765;fill:#BDE61C; fill-opacity: 0.47058823529411764;"/>
<circle cx="605.0722411355292" cy="573.8783470660119" r="192" style="stroke:#675DB0; stroke-opacity: 0.9058823529411765;fill:#BDE61C; fill-opacity: 0.47058823529411764;"/>
<path d="M 815.287146216356 543.6049393231641 Z" style="stroke:#72DE9C; stroke-opacity: 0.9607843137254902;fill:#83CD2C; fill-opacity: 0.8627450980392157;"/>
<circle cx="623.287146216356" cy="543.6049393231641" r="192" style="stroke:#72DE9C; stroke-opacity: 0.9607843137254902;fill:#83CD2C; fill-opacity: 0.8627450980392157;"/>
<path d="M 826.5683091494316 510.1236408664788 Z" style="stroke:#675DB0; stroke-opacity: 0.9058823529411765;fill:#BDE61C; fill-opacity: 0.47058823529411764;"/>
<circle cx="634.5683091494316" cy="510.12364086647887" r="192" style="stroke:#675DB0; stroke-opacity: 0.9058823529411765;fill:#BDE61C; fill-opacity: 0.47058823529411764;"/>
<path d="M 634.5683091494316 510.12364086647887 L 612.1870784545512 521.2237086282837 L 623.287146216356 543.6049393231641 L 645.6683769112364 532.5048715613593 Z" style="stroke:#A67F02; stroke-opacity: 0.7450980392156863;fill:#C5E260; fill-opacity: 0.792156862745098;"/>
<path d="M 623.287146216356 543.6049393231641 L 599.0429898045187 549.6341906541745 L 605.0722411355292 573.8783470660119 L 629.3163975473666 567.8490957350014 Z" style="stroke:#A67F02; stroke-opacity: 0.7450980392156863;fill:#C5E260; fill-opacity: 0.792156862745098;"/>
<path d="M 605.0722411355292 573.8783470660119 L 580.0987888151083 574.5548608750215 L 580.7753026241179 599.5283131954425 L 605.7487549445389 598.8517993864328 Z" style="stroke:#A67F02; stroke-opacity: 0.7450980392156863;fill:#C5E260; fill-opacity: 0.792156862745098;"/>
<path d="M 580.7753026241179 599.5283131954425 L 556.2402852696174 594.8204564486332 L 551.5324285228081 619.3554738031337 L 576.0674458773086 624.063330549943 Z" style="stroke:#A67F02; stroke-opacity: 0.7450980392156863;fill:#C5E260; fill-opacity: 0.792156862745098;"/>
<path d="M 551.5324285228081 619.3554738031337 L 528.5830762770113 609.4833806495792 L 518.7109831234567 632.432732895376 L 541.6603353692535 642.3048260489306 Z" style="stroke:#A67F02; stroke-opacity: 0.7450980392156863;fill:#C5E260; fill-opacity: 0.792156862745098;"/>
<path d="M 518.7109831234567 632.432732895376 L 498.42038219100385 617.8580114388932 L 483.84566073452095 638.148612371346 L 504.1362616669738 652.7233338278289 Z" style="stroke:#A67F02; stroke-opacity: 0.7450980392156863;fill:#C5E260; fill-opacity: 0.792156862745098;"/>
<path d="M 483.84566073452095 638.148612371346 L 467.16257706363047 619.5527603886003 L 448.56672508088474 636.2358440594908 L 465.2498087517753 654.8316960422364 Z" style="stroke:#A67F02; stroke-opacity: 0.7450980392156863;fill:#C5E260; fill-opacity: 0.792156862745098;"/>
<path d="M 448.56672508088474 636.2358440594908 L 436.27124112209174 614.4883829213904 L 414.5237799839914 626.7838668801835 L 426.81926394278446 648.5313280182838 Z" style="stroke:#A67F02; stroke-opacity: 0.7450980392156863;fill:#C5E260; fill-opacity: 0.792156862745098;"/>
<path d="M 414.5237799839914 626.7838668801835 L 407.19081890176 602.9016836989792 L 383.3086357205557 610.2346447812106 L 390.6415968027871 634.1168279624148 Z" style="stroke:#A67F02; stroke-opacity: 0.7450980392156863;fill:#C5E260; fill-opacity: 0.792156862745098;"/>
<path d="M 383.3086357205557 610.2346447812106 L 381.2810786250903 585.334443899315 L 356.3808777431948 587.3620009947805 L 358.4084348386602 612.2622018766759 Z" style="stroke:#A67F02; stroke-opacity: 0.7450980392156863;fill:#C5E260; fill-opacity: 0.792156862745098;"/>
<path d="M 356.3808777431948 587.3620009947805 L 359.7535309508114 562.6080881308458 L 334.9996180868767 559.2354349232291 L 331.6269648792601 583.9893477871638 Z" style="stroke:#A67F02; stroke-opacity: 0.7450980392156863;fill:#C5E260; fill-opacity: 0.792156862745098;"/>
<path d="M 334.9996180868767 559.2354349232291 L 343.6147800820221 535.7852755307746 L 320.1646206895675 527.1701135356292 L 311.5494586944221 550.6202729280839 Z" style="stroke:#A67F02; stroke-opacity: 0.7450980392156863;fill:#C5E260; fill-opacity: 0.792156862745098;"/>
<path d="M 320.1646206895675 527.1701135356292 L 333.61945607241336 506.1202110048659 L 312.56955354165007 492.66537562202006 L 299.11471815880424 513.7152781527834 Z" style="stroke:#A67F02; stroke-opacity: 0.7450980392156863;fill:#C5E260; fill-opacity: 0.792156862745098;"/>
<path d="M 312.56955354165007 492.66537562202006 L 330.23492916367013 475 L 312.56955354165007 457.33462437797994 L 294.90417791963 475 Z" style="stroke:#A67F02; stroke-opacity: 0.7450980392156863;fill:#C5E260; fill-opacity: 0.792156862745098;"/>
<path d="M 312.56955354165007 457.33462437797994 L 333.6194560724134 443.87978899513405 L 320.1646206895675 422.8298864643707 L 299.1147181588042 436.2847218472166 Z" style="stroke:#A67F02; stroke-opacity: 0.7450980392156863;fill:#C5E260; fill-opacity: 0.792156862745098;"/>
<path d="M 320.1646206895675 422.8298864643707 L 343.61478008202204 414.21472446922536 L 334.9996180868767 390.76456507677085 L 311.5494586944222 399.3797270719162 Z" style="stroke:#A67F02; stroke-opacity: 0.7450980392156863;fill:#C5E260; fill-opacity: 0.792156862745098;"/>
<path d="M 334.9996180868767 390.76456507677085 L 359.7535309508114 387.3919118691542 L 356.3808777431948 362.6379990052195 L 331.6269648792601 366.01065221283613 Z" style="stroke:#A67F02; stroke-opacity: 0.7450980392156863;fill:#C5E260; fill-opacity: 0.792156862745098;"/>
<path d="M 356.3808777431948 362.6379990052195 L 381.28107862509023 364.66555610068497 L 383.3086357205557 339.7653552187895 L 358.40843483866024 337.73779812332407 Z" style="stroke:#A67F02; stroke-opacity: 0.7450980392156863;fill:#C5E260; fill-opacity: 0.792156862745098;"/>
<path d="M 383.3086357205557 339.7653552187895 L 407.19081890176005 347.0983163010209 L 414.5237799839914 323.2161331198165 L 390.64159680278703 315.88317203758515 Z" style="stroke:#A67F02; stroke-opacity: 0.7450980392156863;fill:#C5E260; fill-opacity: 0.792156862745098;"/>
<path d="M 414.5237799839914 323.2161331198165 L 436.27124112209174 335.51161707860956 L 448.56672508088474 313.7641559405093 L 426.81926394278446 301.46867198171617 Z" style="stroke:#A67F02; stroke-opacity: 0.7450980392156863;fill:#C5E260; fill-opacity: 0.792156862745098;"/>
<path d="M 448.56672508088474 313.7641559405093 L 467.16257706363047 330.4472396113997 L 483.84566073452095 311.85138762865404 L 465.2498087517753 295.16830395776356 Z" style="stroke:#A67F02; stroke-opacity: 0.7450980392156863;fill:#C5E260; fill-opacity: 0.792156862745098;"/>
<path d="M 483.84566073452095 311.85138762865404 L 498.42038219100385 332.14198856110687 L 518.7109831234567 317.56726710462397 L 504.1362616669738 297.27666617217113 Z" style="stroke:#A67F02; stroke-opacity: 0.7450980392156863;fill:#C5E260; fill-opacity: 0.792156862745098;"/>
<path d="M 518.7109831234567 317.56726710462397 L 528.5830762770113 340.51661935042085 L 551.5324285228081 330.6445261968663 L 541.6603353692535 307.6951739510694 Z" style="stroke:#A67F02; stroke-opacity: 0.7450980392156863;fill:#C5E260; fill-opacity: 0.792156862745098;"/>
<path d="M 551.5324285228081 330.6445261968663 L 556.2402852696174 355.1795435513668 L 580.7753026241179 350.47168680455746 L 576.0674458773086 325.936669450057 Z" style="stroke:#A67F02; stroke-opacity: 0.7450980392156863;fill:#C5E260; fill-opacity: 0.792156862745098;"/>
<path d="M 580.7753026241179 350.47168680455746 L 580.0987888151082 375.4451391249785 L 605.0722411355292 376.1216529339882 L 605.748754944539 351.14820061356716 Z" style="stroke:#A67F02; stroke-opacity: 0.7450980392156863;fill:#C5E260; fill-opacity: 0.792156862745098;"/>
<path d="M 605.0722411355292 376.1216529339882 L 599.0429898045187 400.3658093458253 L 623.2871462163558 406.3950606768358 L 629.3163975473664 382.1509042649987 Z" style="stroke:#A67F02; stroke-opacity: 0.7450980392156863;fill:#C5E260; fill-opacity: 0.792156862745098;"/>
<path d="M 623.2871462163558 406.3950606768358 L 612.187078454551 428.7762913717163 L 634.5683091494316 439.8763591335211 L 645.6683769112362 417.49512843864056 Z" style="stroke:#A67F02; stroke-opacity: 0.7450980392156863;fill:#C5E260; fill-opacity: 0.792156862745098;"/>
<path d="M 634.5683091494316 439.8763591335211 L 618.9164517885351 459.3481426391035 L 638.3882352941176 474.99999999999994 L 654.040092655014 455.52821649441745 Z" style="stroke:#A67F02; stroke-opacity: 0.7450980392156863;fill:#C5E260; fill-opacity: 0.792156862745098;"/>
<path d="M 638.3882352941176 474.99999999999994 L 618.9164517885351 490.6518573608964 L 634.5683091494316 510.12364086647887 L 654.0400926550142 494.47178350558244 Z" style="stroke:#A67F02; stroke-opacity: 0.7450980392156863;fill:#C5E260; fill-opacity: 0.792156862745098;"/>
<path d="M 612.1870784545512 521.2237086282837 L 591.4097931165895 528.8569053162129 L 599.0429898045187 549.6341906541745 L 619.8202751424803 542.0009939662453 Z" style="stroke:#A67F16; stroke-opacity: 0.7450980392156863;fill:#C5E274; fill-opacity: 0.792156862745098;"/>
<path d="M 599.0429898045187 549.6341906541745 L 577.11055419939 552.6224252698928 L 580.0987888151083 574.5548608750215 L 602.0312244202371 571.5666262593033 Z" style="stroke:#A67F16; stroke-opacity: 0.7450980392156863;fill:#C5E274; fill-opacity: 0.792156862745098;"/>
<path d="M 580.0987888151083 574.5548608750215 L 558.0367392555571 572.7584068890819 L 556.2402852696174 594.8204564486332 L 578.3023348291687 596.6169104345727 Z" style="stroke:#A67F16; stroke-opacity: 0.7450980392156863;fill:#C5E274; fill-opacity: 0.792156862745098;"/>
<path d="M 556.2402852696174 594.8204564486332 L 535.0802186728414 588.3233140528031 L 528.5830762770113 609.4833806495792 L 549.7431428737874 615.9805230454093 Z" style="stroke:#A67F16; stroke-opacity: 0.7450980392156863;fill:#C5E274; fill-opacity: 0.792156862745098;"/>
<path d="M 528.5830762770113 609.4833806495792 L 509.3144138393506 598.5893490012324 L 498.42038219100385 617.8580114388932 L 517.6890446286646 628.7520430872398 Z" style="stroke:#A67F16; stroke-opacity: 0.7450980392156863;fill:#C5E274; fill-opacity: 0.792156862745098;"/>
<path d="M 498.42038219100385 617.8580114388932 L 481.9441051524636 603.0764833500601 L 467.16257706363047 619.5527603886003 L 483.6388541021707 634.3342884774335 Z" style="stroke:#A67F16; stroke-opacity: 0.7450980392156863;fill:#C5E274; fill-opacity: 0.792156862745098;"/>
<path d="M 467.16257706363047 619.5527603886003 L 454.249097826466 601.574903684226 L 436.27124112209174 614.4883829213904 L 449.1847203592562 632.4662396257647 Z" style="stroke:#A67F16; stroke-opacity: 0.7450980392156863;fill:#C5E274; fill-opacity: 0.792156862745098;"/>
<path d="M 436.27124112209174 614.4883829213904 L 427.5243796231315 594.154822200019 L 407.19081890176 602.9016836989792 L 415.9376804007203 623.2352444203507 Z" style="stroke:#A67F16; stroke-opacity: 0.7450980392156863;fill:#C5E274; fill-opacity: 0.792156862745098;"/>
<path d="M 407.19081890176 602.9016836989792 L 403.01956866325725 581.1631936608123 L 381.2810786250903 585.334443899315 L 385.45232886359304 607.072933937482 Z" style="stroke:#A67F16; stroke-opacity: 0.7450980392156863;fill:#C5E274; fill-opacity: 0.792156862745098;"/>
<path d="M 381.2810786250903 585.334443899315 L 381.88048267218545 563.2074921779409 L 359.7535309508114 562.6080881308458 L 359.1541269037162 584.7350398522198 Z" style="stroke:#A67F16; stroke-opacity: 0.7450980392156863;fill:#C5E274; fill-opacity: 0.792156862745098;"/>
<path d="M 359.7535309508114 562.6080881308458 L 365.09556181645235 541.1273063964154 L 343.6147800820221 535.7852755307746 L 338.27274921638116 557.2660572652048 Z" style="stroke:#A67F16; stroke-opacity: 0.7450980392156863;fill:#C5E274; fill-opacity: 0.792156862745098;"/>
<path d="M 343.6147800820221 535.7852755307746 L 353.44965034017207 515.9550812630158 L 333.61945607241336 506.1202110048659 L 323.7845858142633 525.9504052726246 Z" style="stroke:#A67F16; stroke-opacity: 0.7450980392156863;fill:#C5E274; fill-opacity: 0.792156862745098;"/>
<path d="M 333.61945607241336 506.1202110048659 L 347.4872981204747 488.8678420480614 L 330.23492916367013 475 L 316.36708711560885 492.25236895680456 Z" style="stroke:#A67F16; stroke-opacity: 0.7450980392156863;fill:#C5E274; fill-opacity: 0.792156862745098;"/>
<path d="M 330.23492916367013 475 L 347.48729812047475 461.13215795193867 L 333.6194560724134 443.87978899513405 L 316.3670871156088 457.7476310431954 Z" style="stroke:#A67F16; stroke-opacity: 0.7450980392156863;fill:#C5E274; fill-opacity: 0.792156862745098;"/>
<path d="M 333.6194560724134 443.87978899513405 L 353.44965034017207 434.04491873698396 L 343.61478008202204 414.21472446922536 L 323.7845858142633 424.0495947273754 Z" style="stroke:#A67F16; stroke-opacity: 0.7450980392156863;fill:#C5E274; fill-opacity: 0.792156862745098;"/>
<path d="M 343.61478008202204 414.21472446922536 L 365.09556181645223 408.8726936035844 L 359.7535309508114 387.3919118691542 L 338.27274921638116 392.7339427347951 Z" style="stroke:#A67F16; stroke-opacity: 0.7450980392156863;fill:#C5E274; fill-opacity: 0.792156862745098;"/>
<path d="M 359.7535309508114 387.3919118691542 L 381.88048267218545 386.792507822059 L 381.28107862509023 364.66555610068497 L 359.1541269037162 365.2649601477802 Z" style="stroke:#A67F16; stroke-opacity: 0.7450980392156863;fill:#C5E274; fill-opacity: 0.792156862745098;"/>
<path d="M 381.28107862509023 364.66555610068497 L 403.0195686632572 368.83680633918783 L 407.19081890176005 347.0983163010209 L 385.4523288635931 342.927066062518 Z" style="stroke:#A67F16; stroke-opacity: 0.7450980392156863;fill:#C5E274; fill-opacity: 0.792156862745098;"/>
<path d="M 407.19081890176005 347.0983163010209 L 427.52437962313155 355.84517779998106 L 436.27124112209174 335.51161707860956 L 415.93768040072024 326.7647555796494 Z" style="stroke:#A67F16; stroke-opacity: 0.7450980392156863;fill:#C5E274; fill-opacity: 0.792156862745098;"/>
<path d="M 436.27124112209174 335.51161707860956 L 454.249097826466 348.425096315774 L 467.16257706363047 330.4472396113997 L 449.1847203592562 317.53376037423527 Z" style="stroke:#A67F16; stroke-opacity: 0.7450980392156863;fill:#C5E274; fill-opacity: 0.792156862745098;"/>
<path d="M 467.16257706363047 330.4472396113997 L 481.9441051524635 346.92351664994 L 498.42038219100385 332.14198856110687 L 483.63885410217074 315.66571152256654 Z" style="stroke:#A67F16; stroke-opacity: 0.7450980392156863;fill:#C5E274; fill-opacity: 0.792156862745098;"/>
<path d="M 498.42038219100385 332.14198856110687 L 509.3144138393506 351.4106509987676 L 528.5830762770113 340.51661935042085 L 517.6890446286646 321.2479569127601 Z" style="stroke:#A67F16; stroke-opacity: 0.7450980392156863;fill:#C5E274; fill-opacity: 0.792156862745098;"/>
<path d="M 528.5830762770113 340.51661935042085 L 535.0802186728414 361.67668594719686 L 556.2402852696174 355.1795435513668 L 549.7431428737874 334.01947695459074 Z" style="stroke:#A67F16; stroke-opacity: 0.7450980392156863;fill:#C5E274; fill-opacity: 0.792156862745098;"/>
<path d="M 556.2402852696174 355.1795435513668 L 558.036739255557 377.241593110918 L 580.0987888151082 375.4451391249785 L 578.3023348291686 353.38308956542727 Z" style="stroke:#A67F16; stroke-opacity: 0.7450980392156863;fill:#C5E274; fill-opacity: 0.792156862745098;"/>
<path d="M 580.0987888151082 375.4451391249785 L 577.11055419939 397.3775747301072 L 599.0429898045187 400.3658093458253 L 602.0312244202369 378.43337374069665 Z" style="stroke:#A67F16; stroke-opacity: 0.7450980392156863;fill:#C5E274; fill-opacity: 0.792156862745098;"/>
<path d="M 599.0429898045187 400.3658093458253 L 591.4097931165894 421.14309468378696 L 612.187078454551 428.7762913717163 L 619.8202751424805 407.9990060337546 Z" style="stroke:#A67F16; stroke-opacity: 0.7450980392156863;fill:#C5E274; fill-opacity: 0.792156862745098;"/>
<path d="M 612.187078454551 428.7762913717163 L 600.2658394878495 447.426903672402 L 618.9164517885351 459.3481426391035 L 630.8376907552367 440.6975303384179 Z" style="stroke:#A67F16; stroke-opacity: 0.7450980392156863;fill:#C5E274; fill-opacity: 0.792156862745098;"/>
<path d="M 618.9164517885351 459.3481426391035 L 603.2645944276387 474.99999999999994 L 618.9164517885351 490.6518573608964 L 634.5683091494316 474.99999999999994 Z" style="stroke:#A67F16; stroke-opacity: 0.7450980392156863;fill:#C5E274; fill-opacity: 0.792156862745098;"/>
<path d="M 618.9164517885351 490.6518573608964 L 600.2658394878496 502.5730963275981 L 612.1870784545512 521.2237086282837 L 630.8376907552368 509.30246966158205 Z" style="stroke:#A67F16; stroke-opacity: 0.7450980392156863;fill:#C5E274; fill-opacity: 0.792156862745098;"/>
<path d="M 591.4097931165895 528.8569053162129 L 572.3774136811498 533.590045834453 L 577.11055419939 552.6224252698928 L 596.1429336348297 547.8892847516526 Z" style="stroke:#A67F2A; stroke-opacity: 0.7450980392156863;fill:#C5E288; fill-opacity: 0.792156862745098;"/>
<path d="M 577.11055419939 552.6224252698928 L 557.5056559178789 553.153508607571 L 558.0367392555571 572.7584068890819 L 577.641637537068 572.2273235514037 Z" style="stroke:#A67F2A; stroke-opacity: 0.7450980392156863;fill:#C5E288; fill-opacity: 0.792156862745098;"/>
<path d="M 558.0367392555571 572.7584068890819 L 538.7760253823387 569.0626001795846 L 535.0802186728414 588.3233140528031 L 554.3409325460598 592.0191207623003 Z" style="stroke:#A67F2A; stroke-opacity: 0.7450980392156863;fill:#C5E288; fill-opacity: 0.792156862745098;"/>
<path d="M 535.0802186728414 588.3233140528031 L 517.0642987818813 580.5734291102724 L 509.3144138393506 598.5893490012324 L 527.3303337303106 606.3392339437632 Z" style="stroke:#A67F2A; stroke-opacity: 0.7450980392156863;fill:#C5E288; fill-opacity: 0.792156862745098;"/>
<path d="M 509.3144138393506 598.5893490012324 L 493.38569232149325 587.1477618322027 L 481.9441051524636 603.0764833500601 L 497.87282667032093 614.5180705190897 Z" style="stroke:#A67F2A; stroke-opacity: 0.7450980392156863;fill:#C5E288; fill-opacity: 0.792156862745098;"/>
<path d="M 481.9441051524636 603.0764833500601 L 468.84739132238184 588.4781898541443 L 454.249097826466 601.574903684226 L 467.3458116565477 616.1731971801418 Z" style="stroke:#A67F2A; stroke-opacity: 0.7450980392156863;fill:#C5E288; fill-opacity: 0.792156862745098;"/>
<path d="M 454.249097826466 601.574903684226 L 444.59677946690226 584.5025038404552 L 427.5243796231315 594.154822200019 L 437.17669798269526 611.2272220437898 Z" style="stroke:#A67F2A; stroke-opacity: 0.7450980392156863;fill:#C5E288; fill-opacity: 0.792156862745098;"/>
<path d="M 427.5243796231315 594.154822200019 L 421.7677884127977 575.4066024504785 L 403.01956866325725 581.1631936608123 L 408.77615987359104 599.9114134103528 Z" style="stroke:#A67F2A; stroke-opacity: 0.7450980392156863;fill:#C5E288; fill-opacity: 0.792156862745098;"/>
<path d="M 403.01956866325725 581.1631936608123 L 401.427876409157 561.6157999238407 L 381.88048267218545 563.2074921779409 L 383.4721749262856 582.7548859149125 Z" style="stroke:#A67F2A; stroke-opacity: 0.7450980392156863;fill:#C5E288; fill-opacity: 0.792156862745098;"/>
<path d="M 381.88048267218545 563.2074921779409 L 384.5281151350817 543.7749388593115 L 365.09556181645235 541.1273063964154 L 362.44792935355616 560.5598597150447 Z" style="stroke:#A67F2A; stroke-opacity: 0.7450980392156863;fill:#C5E288; fill-opacity: 0.792156862745098;"/>
<path d="M 365.09556181645235 541.1273063964154 L 371.858718645012 522.7182380915756 L 353.44965034017207 515.9550812630158 L 346.6864935116124 534.3641495678557 Z" style="stroke:#A67F2A; stroke-opacity: 0.7450980392156863;fill:#C5E288; fill-opacity: 0.792156862745098;"/>
<path d="M 353.44965034017207 515.9550812630158 L 364.01209383780065 499.43028554568986 L 347.4872981204747 488.8678420480614 L 336.92485462284617 505.3926377653873 Z" style="stroke:#A67F2A; stroke-opacity: 0.7450980392156863;fill:#C5E288; fill-opacity: 0.792156862745098;"/>
<path d="M 347.4872981204747 488.8678420480614 L 361.3551401685361 475 L 347.48729812047475 461.13215795193867 L 333.6194560724134 475 Z" style="stroke:#A67F2A; stroke-opacity: 0.7450980392156863;fill:#C5E288; fill-opacity: 0.792156862745098;"/>
<path d="M 347.48729812047475 461.13215795193867 L 364.01209383780076 450.56971445431 L 353.44965034017207 434.04491873698396 L 336.92485462284606 444.60736223461265 Z" style="stroke:#A67F2A; stroke-opacity: 0.7450980392156863;fill:#C5E288; fill-opacity: 0.792156862745098;"/>
<path d="M 353.44965034017207 434.04491873698396 L 371.8587186450119 427.2817619084243 L 365.09556181645223 408.8726936035844 L 346.6864935116124 415.63585043214414 Z" style="stroke:#A67F2A; stroke-opacity: 0.7450980392156863;fill:#C5E288; fill-opacity: 0.792156862745098;"/>
<path d="M 365.09556181645223 408.8726936035844 L 384.5281151350815 406.2250611406883 L 381.88048267218545 386.792507822059 L 362.4479293535561 389.44014028495513 Z" style="stroke:#A67F2A; stroke-opacity: 0.7450980392156863;fill:#C5E288; fill-opacity: 0.792156862745098;"/>
<path d="M 381.88048267218545 386.792507822059 L 401.4278764091569 388.3842000761593 L 403.0195686632572 368.83680633918783 L 383.47217492628573 367.24511408508755 Z" style="stroke:#A67F2A; stroke-opacity: 0.7450980392156863;fill:#C5E288; fill-opacity: 0.792156862745098;"/>
<path d="M 403.0195686632572 368.83680633918783 L 421.76778841279776 374.5933975495216 L 427.52437962313155 355.84517779998106 L 408.776159873591 350.08858658964726 Z" style="stroke:#A67F2A; stroke-opacity: 0.7450980392156863;fill:#C5E288; fill-opacity: 0.792156862745098;"/>
<path d="M 427.52437962313155 355.84517779998106 L 444.59677946690226 365.49749615954477 L 454.249097826466 348.425096315774 L 437.17669798269526 338.77277795621023 Z" style="stroke:#A67F2A; stroke-opacity: 0.7450980392156863;fill:#C5E288; fill-opacity: 0.792156862745098;"/>
<path d="M 454.249097826466 348.425096315774 L 468.8473913223818 361.52181014585574 L 481.9441051524635 346.92351664994 L 467.34581165654777 333.82680281985824 Z" style="stroke:#A67F2A; stroke-opacity: 0.7450980392156863;fill:#C5E288; fill-opacity: 0.792156862745098;"/>
<path d="M 481.9441051524635 346.92351664994 L 493.38569232149325 362.8522381677973 L 509.3144138393506 351.4106509987676 L 497.8728266703208 335.48192948091025 Z" style="stroke:#A67F2A; stroke-opacity: 0.7450980392156863;fill:#C5E288; fill-opacity: 0.792156862745098;"/>
<path d="M 509.3144138393506 351.4106509987676 L 517.0642987818813 369.4265708897276 L 535.0802186728414 361.67668594719686 L 527.3303337303106 343.66076605623687 Z" style="stroke:#A67F2A; stroke-opacity: 0.7450980392156863;fill:#C5E288; fill-opacity: 0.792156862745098;"/>
<path d="M 535.0802186728414 361.67668594719686 L 538.7760253823385 380.93739982041524 L 558.036739255557 377.241593110918 L 554.3409325460598 357.98087923769964 Z" style="stroke:#A67F2A; stroke-opacity: 0.7450980392156863;fill:#C5E288; fill-opacity: 0.792156862745098;"/>
<path d="M 558.036739255557 377.241593110918 L 557.5056559178789 396.84649139242913 L 577.11055419939 397.3775747301072 L 577.641637537068 377.77267644859614 Z" style="stroke:#A67F2A; stroke-opacity: 0.7450980392156863;fill:#C5E288; fill-opacity: 0.792156862745098;"/>
<path d="M 577.11055419939 397.3775747301072 L 572.3774136811498 416.4099541655468 L 591.4097931165894 421.14309468378696 L 596.1429336348297 402.1107152483474 Z" style="stroke:#A67F2A; stroke-opacity: 0.7450980392156863;fill:#C5E288; fill-opacity: 0.792156862745098;"/>
<path d="M 591.4097931165894 421.14309468378696 L 582.6959118079119 438.7130223637245 L 600.2658394878495 447.426903672402 L 608.9797207965269 429.85697599246447 Z" style="stroke:#A67F2A; stroke-opacity: 0.7450980392156863;fill:#C5E288; fill-opacity: 0.792156862745098;"/>
<path d="M 600.2658394878495 447.426903672402 L 587.9786687939451 462.7128293060956 L 603.2645944276387 474.99999999999994 L 615.5517651215431 459.71407436630636 Z" style="stroke:#A67F2A; stroke-opacity: 0.7450980392156863;fill:#C5E288; fill-opacity: 0.792156862745098;"/>
<path d="M 603.2645944276387 474.99999999999994 L 587.978668793945 487.28717069390444 L 600.2658394878496 502.5730963275981 L 615.5517651215432 490.2859256336936 Z" style="stroke:#A67F2A; stroke-opacity: 0.7450980392156863;fill:#C5E288; fill-opacity: 0.792156862745098;"/>
<path d="M 600.2658394878496 502.5730963275981 L 582.6959118079122 511.2869776362755 L 591.4097931165895 528.8569053162129 L 608.979720796527 520.1430240075356 Z" style="stroke:#A67F2A; stroke-opacity: 0.7450980392156863;fill:#C5E288; fill-opacity: 0.792156862745098;"/>
<path d="M 572.3774136811498 533.590045834453 L 555.1598034129554 535.9358983393765 L 557.5056559178789 553.153508607571 L 574.7232661860733 550.8076561026476 Z" style="stroke:#A67F3E; stroke-opacity: 0.7450980392156863;fill:#C5E29C; fill-opacity: 0.792156862745098;"/>
<path d="M 557.5056559178789 553.153508607571 L 540.1862948641021 551.7432391258077 L 538.7760253823387 569.0626001795846 L 556.0953864361156 570.4728696613478 Z" style="stroke:#A67F3E; stroke-opacity: 0.7450980392156863;fill:#C5E29C; fill-opacity: 0.792156862745098;"/>
<path d="M 538.7760253823387 569.0626001795846 L 522.164747616766 563.9621513446998 L 517.0642987818813 580.5734291102724 L 533.6755765474539 585.6738779451573 Z" style="stroke:#A67F3E; stroke-opacity: 0.7450980392156863;fill:#C5E29C; fill-opacity: 0.792156862745098;"/>
<path d="M 517.0642987818813 580.5734291102724 L 501.93782919072214 572.0212922410434 L 493.38569232149325 587.1477618322027 L 508.51216191265246 595.6998987014316 Z" style="stroke:#A67F3E; stroke-opacity: 0.7450980392156863;fill:#C5E29C; fill-opacity: 0.792156862745098;"/>
<path d="M 493.38569232149325 587.1477618322027 L 480.45132781096675 575.5438253436178 L 468.84739132238184 588.4781898541443 L 481.7817558329083 600.0821263427292 Z" style="stroke:#A67F3E; stroke-opacity: 0.7450980392156863;fill:#C5E29C; fill-opacity: 0.792156862745098;"/>
<path d="M 468.84739132238184 588.4781898541443 L 458.7099284014866 574.36504091956 L 444.59677946690226 584.5025038404552 L 454.73424238779756 598.6156527750395 Z" style="stroke:#A67F3E; stroke-opacity: 0.7450980392156863;fill:#C5E29C; fill-opacity: 0.792156862745098;"/>
<path d="M 444.59677946690226 584.5025038404552 L 437.7302346348383 568.5400576184146 L 421.7677884127977 575.4066024504785 L 428.63433324486164 591.3690486725192 Z" style="stroke:#A67F3E; stroke-opacity: 0.7450980392156863;fill:#C5E29C; fill-opacity: 0.792156862745098;"/>
<path d="M 421.7677884127977 575.4066024504785 L 418.49323367429633 558.3412451853393 L 401.427876409157 561.6157999238407 L 404.70243114765844 578.6811571889799 Z" style="stroke:#A67F3E; stroke-opacity: 0.7450980392156863;fill:#C5E29C; fill-opacity: 0.792156862745098;"/>
<path d="M 401.427876409157 561.6157999238407 L 401.8984263043839 544.2454887545384 L 384.5281151350817 543.7749388593115 L 384.0575652398548 561.1452500286139 Z" style="stroke:#A67F3E; stroke-opacity: 0.7450980392156863;fill:#C5E29C; fill-opacity: 0.792156862745098;"/>
<path d="M 384.5281151350817 543.7749388593115 L 388.72176727391485 526.9118902304087 L 371.858718645012 522.7182380915756 L 367.6650665061789 539.5812867204784 Z" style="stroke:#A67F3E; stroke-opacity: 0.7450980392156863;fill:#C5E29C; fill-opacity: 0.792156862745098;"/>
<path d="M 371.858718645012 522.7182380915756 L 379.57938251434916 507.15094941502707 L 364.01209383780065 499.43028554568986 L 356.2914299684635 514.9975742222384 Z" style="stroke:#A67F3E; stroke-opacity: 0.7450980392156863;fill:#C5E29C; fill-opacity: 0.792156862745098;"/>
<path d="M 364.01209383780065 499.43028554568986 L 374.89875977601326 485.8866659382127 L 361.3551401685361 475 L 350.46847423032347 488.54361960747724 Z" style="stroke:#A67F3E; stroke-opacity: 0.7450980392156863;fill:#C5E29C; fill-opacity: 0.792156862745098;"/>
<path d="M 361.3551401685361 475 L 374.89875977601343 464.1133340617873 L 364.01209383780076 450.56971445431 L 350.4684742303234 461.45638039252265 Z" style="stroke:#A67F3E; stroke-opacity: 0.7450980392156863;fill:#C5E29C; fill-opacity: 0.792156862745098;"/>
<path d="M 364.01209383780076 450.56971445431 L 379.57938251434916 442.8490505849727 L 371.8587186450119 427.2817619084243 L 356.2914299684635 435.0024257777616 Z" style="stroke:#A67F3E; stroke-opacity: 0.7450980392156863;fill:#C5E29C; fill-opacity: 0.792156862745098;"/>
<path d="M 371.8587186450119 427.2817619084243 L 388.7217672739147 423.08810976959114 L 384.5281151350815 406.2250611406883 L 367.66506650617873 410.4187132795215 Z" style="stroke:#A67F3E; stroke-opacity: 0.7450980392156863;fill:#C5E29C; fill-opacity: 0.792156862745098;"/>
<path d="M 384.5281151350815 406.2250611406883 L 401.89842630438375 405.7545112454615 L 401.4278764091569 388.3842000761593 L 384.05756523985474 388.85474997138607 Z" style="stroke:#A67F3E; stroke-opacity: 0.7450980392156863;fill:#C5E29C; fill-opacity: 0.792156862745098;"/>
<path d="M 401.4278764091569 388.3842000761593 L 418.49323367429616 391.6587548146609 L 421.76778841279776 374.5933975495216 L 404.7024311476585 371.31884281102003 Z" style="stroke:#A67F3E; stroke-opacity: 0.7450980392156863;fill:#C5E29C; fill-opacity: 0.792156862745098;"/>
<path d="M 421.76778841279776 374.5933975495216 L 437.73023463483844 381.4599423815855 L 444.59677946690226 365.49749615954477 L 428.6343332448615 358.63095132748094 Z" style="stroke:#A67F3E; stroke-opacity: 0.7450980392156863;fill:#C5E29C; fill-opacity: 0.792156862745098;"/>
<path d="M 444.59677946690226 365.49749615954477 L 458.70992840148654 375.63495908044 L 468.8473913223818 361.52181014585574 L 454.7342423877975 351.3843472249605 Z" style="stroke:#A67F3E; stroke-opacity: 0.7450980392156863;fill:#C5E29C; fill-opacity: 0.792156862745098;"/>
<path d="M 468.8473913223818 361.52181014585574 L 480.45132781096675 374.45617465638225 L 493.38569232149325 362.8522381677973 L 481.7817558329083 349.9178736572708 Z" style="stroke:#A67F3E; stroke-opacity: 0.7450980392156863;fill:#C5E29C; fill-opacity: 0.792156862745098;"/>
<path d="M 493.38569232149325 362.8522381677973 L 501.93782919072214 377.9787077589565 L 517.0642987818813 369.4265708897276 L 508.51216191265246 354.3001012985684 Z" style="stroke:#A67F3E; stroke-opacity: 0.7450980392156863;fill:#C5E29C; fill-opacity: 0.792156862745098;"/>
<path d="M 517.0642987818813 369.4265708897276 L 522.164747616766 386.03784865529997 L 538.7760253823385 380.93739982041524 L 533.6755765474537 364.3261220548428 Z" style="stroke:#A67F3E; stroke-opacity: 0.7450980392156863;fill:#C5E29C; fill-opacity: 0.792156862745098;"/>
<path d="M 538.7760253823385 380.93739982041524 L 540.1862948641017 398.25676087419237 L 557.5056559178789 396.84649139242913 L 556.0953864361156 379.52713033865194 Z" style="stroke:#A67F3E; stroke-opacity: 0.7450980392156863;fill:#C5E29C; fill-opacity: 0.792156862745098;"/>
<path d="M 557.5056559178789 396.84649139242913 L 555.1598034129555 414.0641016606234 L 572.3774136811498 416.4099541655468 L 574.7232661860731 399.1923438973525 Z" style="stroke:#A67F3E; stroke-opacity: 0.7450980392156863;fill:#C5E29C; fill-opacity: 0.792156862745098;"/>
<path d="M 572.3774136811498 416.4099541655468 L 566.385128645442 432.7207373280167 L 582.6959118079119 438.7130223637245 L 588.6881968436197 422.40223920125464 Z" style="stroke:#A67F3E; stroke-opacity: 0.7450980392156863;fill:#C5E29C; fill-opacity: 0.792156862745098;"/>
<path d="M 582.6959118079119 438.7130223637245 L 573.337386829743 453.3543043279266 L 587.9786687939451 462.7128293060956 L 597.3371937721141 448.07154734189345 Z" style="stroke:#A67F3E; stroke-opacity: 0.7450980392156863;fill:#C5E29C; fill-opacity: 0.792156862745098;"/>
<path d="M 587.9786687939451 462.7128293060956 L 575.6914981000406 474.99999999999994 L 587.978668793945 487.28717069390444 L 600.2658394878493 475.00000000000006 Z" style="stroke:#A67F3E; stroke-opacity: 0.7450980392156863;fill:#C5E29C; fill-opacity: 0.792156862745098;"/>
<path d="M 587.978668793945 487.28717069390444 L 573.3373868297431 496.6456956720736 L 582.6959118079122 511.2869776362755 L 597.337193772114 501.9284526581063 Z" style="stroke:#A67F3E; stroke-opacity: 0.7450980392156863;fill:#C5E29C; fill-opacity: 0.792156862745098;"/>
<path d="M 582.6959118079122 511.2869776362755 L 566.3851286454424 517.279262671983 L 572.3774136811498 533.590045834453 L 588.6881968436198 527.5977607987455 Z" style="stroke:#A67F3E; stroke-opacity: 0.7450980392156863;fill:#C5E29C; fill-opacity: 0.792156862745098;"/>
<path d="M 555.1598034129554 535.9358983393765 L 539.7693787453131 536.3528144581655 L 540.1862948641021 551.7432391258077 L 555.5767195317444 551.3263230070188 Z" style="stroke:#A67F51; stroke-opacity: 0.7450980392156863;fill:#C5E2B0; fill-opacity: 0.792156862745098;"/>
<path d="M 540.1862948641021 551.7432391258077 L 525.0660651309881 548.8419216115858 L 522.164747616766 563.9621513446998 L 537.2849773498801 566.8634688589218 Z" style="stroke:#A67F51; stroke-opacity: 0.7450980392156863;fill:#C5E2B0; fill-opacity: 0.792156862745098;"/>
<path d="M 522.164747616766 563.9621513446998 L 508.02171795557234 557.8782625798497 L 501.93782919072214 572.0212922410434 L 516.080858851916 578.1051810058937 Z" style="stroke:#A67F51; stroke-opacity: 0.7450980392156863;fill:#C5E2B0; fill-opacity: 0.792156862745098;"/>
<path d="M 501.93782919072214 572.0212922410434 L 489.43331194955726 563.0393081024529 L 480.45132781096675 575.5438253436178 L 492.9558450521316 584.5258094822084 Z" style="stroke:#A67F51; stroke-opacity: 0.7450980392156863;fill:#C5E2B0; fill-opacity: 0.792156862745098;"/>
<path d="M 480.45132781096675 575.5438253436178 L 470.1700203182555 564.0837334268488 L 458.7099284014866 574.36504091956 L 468.99123589419776 585.825132836329 Z" style="stroke:#A67F51; stroke-opacity: 0.7450980392156863;fill:#C5E2B0; fill-opacity: 0.792156862745098;"/>
<path d="M 458.7099284014866 574.36504091956 L 451.1325731687352 560.9627023856631 L 437.7302346348383 568.5400576184146 L 445.3075898675898 581.9423961523114 Z" style="stroke:#A67F51; stroke-opacity: 0.7450980392156863;fill:#C5E2B0; fill-opacity: 0.792156862745098;"/>
<path d="M 437.7302346348383 568.5400576184146 L 433.211140371105 553.822150921606 L 418.49323367429633 558.3412451853393 L 423.01232793802967 573.059151882148 Z" style="stroke:#A67F51; stroke-opacity: 0.7450980392156863;fill:#C5E2B0; fill-opacity: 0.792156862745098;"/>
<path d="M 418.49323367429633 558.3412451853393 L 417.2437082047406 542.9959632849827 L 401.8984263043839 544.2454887545384 L 403.1479517739397 559.5907706548951 Z" style="stroke:#A67F51; stroke-opacity: 0.7450980392156863;fill:#C5E2B0; fill-opacity: 0.792156862745098;"/>
<path d="M 401.8984263043839 544.2454887545384 L 403.9768960512142 528.990359977239 L 388.72176727391485 526.9118902304087 L 386.64329752708454 542.1670190077082 Z" style="stroke:#A67F51; stroke-opacity: 0.7450980392156863;fill:#C5E2B0; fill-opacity: 0.792156862745098;"/>
<path d="M 388.72176727391485 526.9118902304087 L 394.0310453018228 512.4602274429351 L 379.57938251434916 507.15094941502707 L 374.27010448644114 521.6026122025007 Z" style="stroke:#A67F51; stroke-opacity: 0.7450980392156863;fill:#C5E2B0; fill-opacity: 0.792156862745098;"/>
<path d="M 379.57938251434916 507.15094941502707 L 387.87121288358844 494.17849630745195 L 374.89875977601326 485.8866659382127 L 366.60692940677404 498.8591190457878 Z" style="stroke:#A67F51; stroke-opacity: 0.7450980392156863;fill:#C5E2B0; fill-opacity: 0.792156862745098;"/>
<path d="M 374.89875977601326 485.8866659382127 L 385.785425714226 475.0000000000001 L 374.89875977601343 464.1133340617873 L 364.01209383780065 474.9999999999999 Z" style="stroke:#A67F51; stroke-opacity: 0.7450980392156863;fill:#C5E2B0; fill-opacity: 0.792156862745098;"/>
<path d="M 374.89875977601343 464.1133340617873 L 387.8712128835886 455.8215036925479 L 379.57938251434916 442.8490505849727 L 366.606929406774 451.14088095421215 Z" style="stroke:#A67F51; stroke-opacity: 0.7450980392156863;fill:#C5E2B0; fill-opacity: 0.792156862745098;"/>
<path d="M 379.57938251434916 442.8490505849727 L 394.0310453018227 437.5397725570647 L 388.7217672739147 423.08810976959114 L 374.27010448644114 428.39738779749916 Z" style="stroke:#A67F51; stroke-opacity: 0.7450980392156863;fill:#C5E2B0; fill-opacity: 0.792156862745098;"/>
<path d="M 388.7217672739147 423.08810976959114 L 403.976896051214 421.00964002276083 L 401.89842630438375 405.7545112454615 L 386.6432975270844 407.83298099229177 Z" style="stroke:#A67F51; stroke-opacity: 0.7450980392156863;fill:#C5E2B0; fill-opacity: 0.792156862745098;"/>
<path d="M 401.89842630438375 405.7545112454615 L 417.24370820474024 407.0040367150174 L 418.49323367429616 391.6587548146609 L 403.1479517739396 390.409229345105 Z" style="stroke:#A67F51; stroke-opacity: 0.7450980392156863;fill:#C5E2B0; fill-opacity: 0.792156862745098;"/>
<path d="M 418.49323367429616 391.6587548146609 L 433.211140371105 396.1778490783943 L 437.73023463483844 381.4599423815855 L 423.01232793802967 376.94084811785206 Z" style="stroke:#A67F51; stroke-opacity: 0.7450980392156863;fill:#C5E2B0; fill-opacity: 0.792156862745098;"/>
<path d="M 437.73023463483844 381.4599423815855 L 451.13257316873523 389.0372976143368 L 458.70992840148654 375.63495908044 L 445.30758986758974 368.0576038476887 Z" style="stroke:#A67F51; stroke-opacity: 0.7450980392156863;fill:#C5E2B0; fill-opacity: 0.792156862745098;"/>
<path d="M 458.70992840148654 375.63495908044 L 470.1700203182555 385.91626657315123 L 480.45132781096675 374.45617465638225 L 468.99123589419776 364.174867163671 Z" style="stroke:#A67F51; stroke-opacity: 0.7450980392156863;fill:#C5E2B0; fill-opacity: 0.792156862745098;"/>
<path d="M 480.45132781096675 374.45617465638225 L 489.4333119495573 386.96069189754706 L 501.93782919072214 377.9787077589565 L 492.95584505213156 365.47419051779167 Z" style="stroke:#A67F51; stroke-opacity: 0.7450980392156863;fill:#C5E2B0; fill-opacity: 0.792156862745098;"/>
<path d="M 501.93782919072214 377.9787077589565 L 508.0217179555724 392.12173742015017 L 522.164747616766 386.03784865529997 L 516.0808588519159 371.8948189941063 Z" style="stroke:#A67F51; stroke-opacity: 0.7450980392156863;fill:#C5E2B0; fill-opacity: 0.792156862745098;"/>
<path d="M 522.164747616766 386.03784865529997 L 525.0660651309877 401.158078388414 L 540.1862948641017 398.25676087419237 L 537.2849773498801 383.13653114107836 Z" style="stroke:#A67F51; stroke-opacity: 0.7450980392156863;fill:#C5E2B0; fill-opacity: 0.792156862745098;"/>
<path d="M 540.1862948641017 398.25676087419237 L 539.769378745313 413.6471855418348 L 555.1598034129555 414.0641016606234 L 555.5767195317441 398.673676992981 Z" style="stroke:#A67F51; stroke-opacity: 0.7450980392156863;fill:#C5E2B0; fill-opacity: 0.792156862745098;"/>
<path d="M 555.1598034129555 414.0641016606234 L 551.4441481955021 429.0050821105633 L 566.385128645442 432.7207373280167 L 570.1007838628955 417.7797568780768 Z" style="stroke:#A67F51; stroke-opacity: 0.7450980392156863;fill:#C5E2B0; fill-opacity: 0.792156862745098;"/>
<path d="M 566.385128645442 432.7207373280167 L 559.5444742376376 446.51364992012213 L 573.337386829743 453.3543043279266 L 580.1780412375474 439.5613917358212 Z" style="stroke:#A67F51; stroke-opacity: 0.7450980392156863;fill:#C5E2B0; fill-opacity: 0.792156862745098;"/>
<path d="M 573.337386829743 453.3543043279266 L 563.6915946288551 465.3542077991121 L 575.6914981000406 474.99999999999994 L 585.3372903009284 463.0000965288145 Z" style="stroke:#A67F51; stroke-opacity: 0.7450980392156863;fill:#C5E2B0; fill-opacity: 0.792156862745098;"/>
<path d="M 575.6914981000406 474.99999999999994 L 563.691594628855 484.645792200888 L 573.3373868297431 496.6456956720736 L 585.3372903009285 486.9999034711855 Z" style="stroke:#A67F51; stroke-opacity: 0.7450980392156863;fill:#C5E2B0; fill-opacity: 0.792156862745098;"/>
<path d="M 573.3373868297431 496.6456956720736 L 559.544474237638 503.486350079878 L 566.3851286454424 517.279262671983 L 580.1780412375474 510.4386082641787 Z" style="stroke:#A67F51; stroke-opacity: 0.7450980392156863;fill:#C5E2B0; fill-opacity: 0.792156862745098;"/>
<path d="M 566.3851286454424 517.279262671983 L 551.4441481955021 520.9949178894364 L 555.1598034129554 535.9358983393765 L 570.1007838628957 532.2202431219233 Z" style="stroke:#A67F51; stroke-opacity: 0.7450980392156863;fill:#C5E2B0; fill-opacity: 0.792156862745098;"/>
<path d="M 539.7693787453131 536.3528144581655 L 526.1731683614405 535.2457112277132 L 525.0660651309881 548.8419216115858 L 538.6622755148608 549.9490248420382 Z" style="stroke:#A67F66; stroke-opacity: 0.7450980392156863;fill:#C5E2C3; fill-opacity: 0.792156862745098;"/>
<path d="M 525.0660651309881 548.8419216115858 L 512.0257210591483 544.8379185080098 L 508.02171795557234 557.8782625798497 L 521.0620620274121 561.8822656834257 Z" style="stroke:#A67F66; stroke-opacity: 0.7450980392156863;fill:#C5E2C3; fill-opacity: 0.792156862745098;"/>
<path d="M 508.02171795557234 557.8782625798497 L 496.14699219126317 551.1645823381438 L 489.43331194955726 563.0393081024529 L 501.3080377138664 569.7529883441588 Z" style="stroke:#A67F66; stroke-opacity: 0.7450980392156863;fill:#C5E2C3; fill-opacity: 0.792156862745098;"/>
<path d="M 489.43331194955726 563.0393081024529 L 479.27945347170845 553.929874949 L 470.1700203182555 564.0837334268488 L 480.32387879610434 573.1931665803016 Z" style="stroke:#A67F66; stroke-opacity: 0.7450980392156863;fill:#C5E2C3; fill-opacity: 0.792156862745098;"/>
<path d="M 470.1700203182555 564.0837334268488 L 462.21181226408817 553.0044943314957 L 451.1325731687352 560.9627023856631 L 459.0907812229025 572.0419414810161 Z" style="stroke:#A67F66; stroke-opacity: 0.7450980392156863;fill:#C5E2C3; fill-opacity: 0.792156862745098;"/>
<path d="M 451.1325731687352 560.9627023856631 L 445.7421325019486 548.4317102548194 L 433.211140371105 553.822150921606 L 438.6015810378915 566.3531430524496 Z" style="stroke:#A67F66; stroke-opacity: 0.7450980392156863;fill:#C5E2C3; fill-opacity: 0.792156862745098;"/>
<path d="M 433.211140371105 553.822150921606 L 430.6405181062344 540.4253410201121 L 417.2437082047406 542.9959632849827 L 419.8143304696112 556.3927731864766 Z" style="stroke:#A67F66; stroke-opacity: 0.7450980392156863;fill:#C5E2C3; fill-opacity: 0.792156862745098;"/>
<path d="M 417.2437082047406 542.9959632849827 L 417.6131037818493 529.3597555543477 L 403.9768960512142 528.990359977239 L 403.60750047410556 542.6265677078741 Z" style="stroke:#A67F66; stroke-opacity: 0.7450980392156863;fill:#C5E2C3; fill-opacity: 0.792156862745098;"/>
<path d="M 403.9768960512142 528.990359977239 L 407.26903694367047 515.7523683353913 L 394.0310453018228 512.4602274429351 L 390.73890440936657 525.6982190847827 Z" style="stroke:#A67F66; stroke-opacity: 0.7450980392156863;fill:#C5E2C3; fill-opacity: 0.792156862745098;"/>
<path d="M 394.0310453018228 512.4602274429351 L 400.0919946604472 500.23944566607634 L 387.87121288358844 494.17849630745195 L 381.81026352496406 506.3992780843107 Z" style="stroke:#A67F66; stroke-opacity: 0.7450980392156863;fill:#C5E2C3; fill-opacity: 0.792156862745098;"/>
<path d="M 387.87121288358844 494.17849630745195 L 396.41756745263314 483.5463545690448 L 385.785425714226 475.0000000000001 L 377.2390711451813 485.63214173840726 Z" style="stroke:#A67F66; stroke-opacity: 0.7450980392156863;fill:#C5E2C3; fill-opacity: 0.792156862745098;"/>
<path d="M 385.785425714226 475.0000000000001 L 396.4175674526334 466.45364543095536 L 387.8712128835886 455.8215036925479 L 377.23907114518124 464.3678582615927 Z" style="stroke:#A67F66; stroke-opacity: 0.7450980392156863;fill:#C5E2C3; fill-opacity: 0.792156862745098;"/>
<path d="M 387.8712128835886 455.8215036925479 L 400.09199466044726 449.7605543339233 L 394.0310453018227 437.5397725570647 L 381.810263524964 443.6007219156892 Z" style="stroke:#A67F66; stroke-opacity: 0.7450980392156863;fill:#C5E2C3; fill-opacity: 0.792156862745098;"/>
<path d="M 394.0310453018227 437.5397725570647 L 407.26903694367024 434.2476316646084 L 403.976896051214 421.00964002276083 L 390.73890440936646 424.3017809152171 Z" style="stroke:#A67F66; stroke-opacity: 0.7450980392156863;fill:#C5E2C3; fill-opacity: 0.792156862745098;"/>
<path d="M 403.976896051214 421.00964002276083 L 417.61310378184885 420.64024444565223 L 417.24370820474024 407.0040367150174 L 403.60750047410534 407.3734322921259 Z" style="stroke:#A67F66; stroke-opacity: 0.7450980392156863;fill:#C5E2C3; fill-opacity: 0.792156862745098;"/>
<path d="M 417.24370820474024 407.0040367150174 L 430.6405181062342 409.5746589798882 L 433.211140371105 396.1778490783943 L 419.8143304696111 393.6072268135234 Z" style="stroke:#A67F66; stroke-opacity: 0.7450980392156863;fill:#C5E2C3; fill-opacity: 0.792156862745098;"/>
<path d="M 433.211140371105 396.1778490783943 L 445.74213250194884 401.56828974518066 L 451.13257316873523 389.0372976143368 L 438.6015810378914 383.6468569475504 Z" style="stroke:#A67F66; stroke-opacity: 0.7450980392156863;fill:#C5E2C3; fill-opacity: 0.792156862745098;"/>
<path d="M 451.13257316873523 389.0372976143368 L 462.21181226408817 396.99550566850417 L 470.1700203182555 385.91626657315123 L 459.0907812229026 377.9580585189839 Z" style="stroke:#A67F66; stroke-opacity: 0.7450980392156863;fill:#C5E2C3; fill-opacity: 0.792156862745098;"/>
<path d="M 470.1700203182555 385.91626657315123 L 479.2794534717085 396.0701250510001 L 489.4333119495573 386.96069189754706 L 480.3238787961044 376.80683341969825 Z" style="stroke:#A67F66; stroke-opacity: 0.7450980392156863;fill:#C5E2C3; fill-opacity: 0.792156862745098;"/>
<path d="M 489.4333119495573 386.96069189754706 L 496.14699219126334 398.8354176618562 L 508.0217179555724 392.12173742015017 L 501.30803771386644 380.24701165584105 Z" style="stroke:#A67F66; stroke-opacity: 0.7450980392156863;fill:#C5E2C3; fill-opacity: 0.792156862745098;"/>
<path d="M 508.0217179555724 392.12173742015017 L 512.0257210591482 405.16208149198974 L 525.0660651309877 401.158078388414 L 521.062062027412 388.11773431657446 Z" style="stroke:#A67F66; stroke-opacity: 0.7450980392156863;fill:#C5E2C3; fill-opacity: 0.792156862745098;"/>
<path d="M 525.0660651309877 401.158078388414 L 526.17316836144 414.7542887722871 L 539.769378745313 413.6471855418348 L 538.6622755148608 400.0509751579618 Z" style="stroke:#A67F66; stroke-opacity: 0.7450980392156863;fill:#C5E2C3; fill-opacity: 0.792156862745098;"/>
<path d="M 539.769378745313 413.6471855418348 L 537.9278151860432 427.1635185512936 L 551.4441481955021 429.0050821105633 L 553.2857117547718 415.48874910110453 Z" style="stroke:#A67F66; stroke-opacity: 0.7450980392156863;fill:#C5E2C3; fill-opacity: 0.792156862745098;"/>
<path d="M 551.4441481955021 429.0050821105633 L 546.7400273117904 441.8095290364105 L 559.5444742376376 446.51364992012213 L 564.2485951213492 433.70920299427496 Z" style="stroke:#A67F66; stroke-opacity: 0.7450980392156863;fill:#C5E2C3; fill-opacity: 0.792156862745098;"/>
<path d="M 559.5444742376376 446.51364992012213 L 552.1977554937513 458.0074890552259 L 563.6915946288551 465.3542077991121 L 571.0383133727413 453.8603686640084 Z" style="stroke:#A67F66; stroke-opacity: 0.7450980392156863;fill:#C5E2C3; fill-opacity: 0.792156862745098;"/>
<path d="M 563.6915946288551 465.3542077991121 L 554.045802427967 475 L 563.691594628855 484.645792200888 L 573.337386829743 475.0000000000001 Z" style="stroke:#A67F66; stroke-opacity: 0.7450980392156863;fill:#C5E2C3; fill-opacity: 0.792156862745098;"/>
<path d="M 563.691594628855 484.645792200888 L 552.1977554937515 491.9925109447745 L 559.544474237638 503.486350079878 L 571.0383133727415 496.13963133599145 Z" style="stroke:#A67F66; stroke-opacity: 0.7450980392156863;fill:#C5E2C3; fill-opacity: 0.792156862745098;"/>
<path d="M 559.544474237638 503.486350079878 L 546.7400273117909 508.1904709635892 L 551.4441481955021 520.9949178894364 L 564.2485951213492 516.2907970057252 Z" style="stroke:#A67F66; stroke-opacity: 0.7450980392156863;fill:#C5E2C3; fill-opacity: 0.792156862745098;"/>
<path d="M 551.4441481955021 520.9949178894364 L 537.9278151860431 522.8364814487064 L 539.7693787453131 536.3528144581655 L 553.2857117547721 534.5112508988954 Z" style="stroke:#A67F66; stroke-opacity: 0.7450980392156863;fill:#C5E2C3; fill-opacity: 0.792156862745098;"/>
<path d="M 526.1731683614405 535.2457112277132 L 514.3033410701461 532.9680912167154 L 512.0257210591483 544.8379185080098 L 523.8955483504427 547.1155385190076 Z" style="stroke:#A67F79; stroke-opacity: 0.7450980392156863;fill:#C5E2D8; fill-opacity: 0.792156862745098;"/>
<path d="M 512.0257210591483 544.8379185080098 L 500.92302471013875 540.0618859891342 L 496.14699219126317 551.1645823381438 L 507.2496885402727 555.9406148570192 Z" style="stroke:#A67F79; stroke-opacity: 0.7450980392156863;fill:#C5E2D8; fill-opacity: 0.792156862745098;"/>
<path d="M 496.14699219126317 551.1645823381438 L 486.3305765260577 544.1134592837946 L 479.27945347170845 553.929874949 L 489.09586913691396 560.9809980033492 Z" style="stroke:#A67F79; stroke-opacity: 0.7450980392156863;fill:#C5E2D8; fill-opacity: 0.792156862745098;"/>
<path d="M 479.27945347170845 553.929874949 L 471.2083231766504 544.9333640364378 L 462.21181226408817 553.0044943314957 L 470.28294255914614 562.001005244058 Z" style="stroke:#A67F79; stroke-opacity: 0.7450980392156863;fill:#C5E2D8; fill-opacity: 0.792156862745098;"/>
<path d="M 462.21181226408817 553.0044943314957 L 456.2633644213565 542.4832624120878 L 445.7421325019486 548.4317102548194 L 451.69058034468026 558.9529421742274 Z" style="stroke:#A67F79; stroke-opacity: 0.7450980392156863;fill:#C5E2D8; fill-opacity: 0.792156862745098;"/>
<path d="M 445.7421325019486 548.4317102548194 L 442.19450992144516 536.8777184396087 L 430.6405181062344 540.4253410201121 L 434.1881406867378 551.9793328353229 Z" style="stroke:#A67F79; stroke-opacity: 0.7450980392156863;fill:#C5E2D8; fill-opacity: 0.792156862745098;"/>
<path d="M 430.6405181062344 540.4253410201121 L 429.65960367692406 528.3788411250373 L 417.6131037818493 529.3597555543477 L 418.5940182111596 541.4062554494224 Z" style="stroke:#A67F79; stroke-opacity: 0.7450980392156863;fill:#C5E2D8; fill-opacity: 0.792156862745098;"/>
<path d="M 417.6131037818493 529.3597555543477 L 419.24476397223805 517.3840285257801 L 407.26903694367047 515.7523683353913 L 405.6373767532817 527.7280953639589 Z" style="stroke:#A67F79; stroke-opacity: 0.7450980392156863;fill:#C5E2D8; fill-opacity: 0.792156862745098;"/>
<path d="M 407.26903694367047 515.7523683353913 L 411.43697713671634 504.4073858591222 L 400.0919946604472 500.23944566607634 L 395.92405446740133 511.5844281423455 Z" style="stroke:#A67F79; stroke-opacity: 0.7450980392156863;fill:#C5E2D8; fill-opacity: 0.792156862745098;"/>
<path d="M 400.0919946604472 500.23944566607634 L 406.60132660505593 490.05568651365354 L 396.41756745263314 483.5463545690448 L 389.90823550802446 493.73011372146755 Z" style="stroke:#A67F79; stroke-opacity: 0.7450980392156863;fill:#C5E2D8; fill-opacity: 0.792156862745098;"/>
<path d="M 396.41756745263314 483.5463545690448 L 404.96392202167806 475.0000000000002 L 396.4175674526334 466.45364543095536 L 387.87121288358856 475 Z" style="stroke:#A67F79; stroke-opacity: 0.7450980392156863;fill:#C5E2D8; fill-opacity: 0.792156862745098;"/>
<path d="M 396.4175674526334 466.45364543095536 L 406.60132660505633 459.94431348634623 L 400.09199466044726 449.7605543339233 L 389.9082355080243 456.26988627853245 Z" style="stroke:#A67F79; stroke-opacity: 0.7450980392156863;fill:#C5E2D8; fill-opacity: 0.792156862745098;"/>
<path d="M 400.09199466044726 449.7605543339233 L 411.43697713671617 445.5926141408773 L 407.26903694367024 434.2476316646084 L 395.9240544674013 438.41557185765436 Z" style="stroke:#A67F79; stroke-opacity: 0.7450980392156863;fill:#C5E2D8; fill-opacity: 0.792156862745098;"/>
<path d="M 407.26903694367024 434.2476316646084 L 419.2447639722376 432.6159714742196 L 417.61310378184885 420.64024444565223 L 405.6373767532815 422.271904636041 Z" style="stroke:#A67F79; stroke-opacity: 0.7450980392156863;fill:#C5E2D8; fill-opacity: 0.792156862745098;"/>
<path d="M 417.61310378184885 420.64024444565223 L 429.6596036769235 421.62115887496293 L 430.6405181062342 409.5746589798882 L 418.5940182111595 408.5937445505775 Z" style="stroke:#A67F79; stroke-opacity: 0.7450980392156863;fill:#C5E2D8; fill-opacity: 0.792156862745098;"/>
<path d="M 430.6405181062342 409.5746589798882 L 442.19450992144533 413.1222815603918 L 445.74213250194884 401.56828974518066 L 434.18814068673777 398.0206671646771 Z" style="stroke:#A67F79; stroke-opacity: 0.7450980392156863;fill:#C5E2D8; fill-opacity: 0.792156862745098;"/>
<path d="M 445.74213250194884 401.56828974518066 L 456.26336442135675 407.5167375879121 L 462.21181226408817 396.99550566850417 L 451.69058034468026 391.04705782577275 Z" style="stroke:#A67F79; stroke-opacity: 0.7450980392156863;fill:#C5E2D8; fill-opacity: 0.792156862745098;"/>
<path d="M 462.21181226408817 396.99550566850417 L 471.20832317665037 405.0666359635623 L 479.2794534717085 396.0701250510001 L 470.2829425591463 387.99899475594196 Z" style="stroke:#A67F79; stroke-opacity: 0.7450980392156863;fill:#C5E2D8; fill-opacity: 0.792156862745098;"/>
<path d="M 479.2794534717085 396.0701250510001 L 486.33057652605794 405.88654071620556 L 496.14699219126334 398.8354176618562 L 489.09586913691396 389.0190019966507 Z" style="stroke:#A67F79; stroke-opacity: 0.7450980392156863;fill:#C5E2D8; fill-opacity: 0.792156862745098;"/>
<path d="M 496.14699219126334 398.8354176618562 L 500.923024710139 409.9381140108654 L 512.0257210591482 405.16208149198974 L 507.2496885402726 394.0593851429805 Z" style="stroke:#A67F79; stroke-opacity: 0.7450980392156863;fill:#C5E2D8; fill-opacity: 0.792156862745098;"/>
<path d="M 512.0257210591482 405.16208149198974 L 514.3033410701455 417.03190878328434 L 526.17316836144 414.7542887722871 L 523.8955483504428 402.88446148099246 Z" style="stroke:#A67F79; stroke-opacity: 0.7450980392156863;fill:#C5E2D8; fill-opacity: 0.792156862745098;"/>
<path d="M 526.17316836144 414.7542887722871 L 525.8458768842385 426.83622707409194 L 537.9278151860432 427.1635185512936 L 538.2551066632449 415.0815802494888 Z" style="stroke:#A67F79; stroke-opacity: 0.7450980392156863;fill:#C5E2D8; fill-opacity: 0.792156862745098;"/>
<path d="M 537.9278151860432 427.1635185512936 L 535.0109160063583 438.89262985672565 L 546.7400273117904 441.8095290364105 L 549.6569264914752 430.0804177309784 Z" style="stroke:#A67F79; stroke-opacity: 0.7450980392156863;fill:#C5E2D8; fill-opacity: 0.792156862745098;"/>
<path d="M 546.7400273117904 441.8095290364105 L 541.3699113933632 452.6373731367986 L 552.1977554937513 458.0074890552259 L 557.5678714121785 447.1796449548377 Z" style="stroke:#A67F79; stroke-opacity: 0.7450980392156863;fill:#C5E2D8; fill-opacity: 0.792156862745098;"/>
<path d="M 552.1977554937513 458.0074890552259 L 544.6255234884721 467.42776799472085 L 554.045802427967 475 L 561.6180344332462 465.5797210605051 Z" style="stroke:#A67F79; stroke-opacity: 0.7450980392156863;fill:#C5E2D8; fill-opacity: 0.792156862745098;"/>
<path d="M 554.045802427967 475 L 544.625523488472 482.5722320052795 L 552.1977554937515 491.9925109447745 L 561.6180344332465 484.420278939495 Z" style="stroke:#A67F79; stroke-opacity: 0.7450980392156863;fill:#C5E2D8; fill-opacity: 0.792156862745098;"/>
<path d="M 552.1977554937515 491.9925109447745 L 541.3699113933639 497.3626268632015 L 546.7400273117909 508.1904709635892 L 557.5678714121785 502.82035504516216 Z" style="stroke:#A67F79; stroke-opacity: 0.7450980392156863;fill:#C5E2D8; fill-opacity: 0.792156862745098;"/>
<path d="M 546.7400273117909 508.1904709635892 L 535.0109160063585 511.10737014327384 L 537.9278151860431 522.8364814487064 L 549.6569264914756 519.9195822690217 Z" style="stroke:#A67F79; stroke-opacity: 0.7450980392156863;fill:#C5E2D8; fill-opacity: 0.792156862745098;"/>
<path d="M 537.9278151860431 522.8364814487064 L 525.8458768842384 523.1637729259086 L 526.1731683614405 535.2457112277132 L 538.2551066632452 534.9184197505111 Z" style="stroke:#A67F79; stroke-opacity: 0.7450980392156863;fill:#C5E2D8; fill-opacity: 0.792156862745098;"/>
<path d="M 514.3033410701461 532.9680912167154 L 504.066285503933 529.8248304229212 L 500.92302471013875 540.0618859891342 L 511.16008027635183 543.2051467829285 Z" style="stroke:#A67F8E; stroke-opacity: 0.7450980392156863;fill:#C5E2EC; fill-opacity: 0.792156862745098;"/>
<path d="M 500.92302471013875 540.0618859891342 L 491.60101397076807 534.7914485444239 L 486.3305765260577 544.1134592837946 L 495.6525872654284 549.3838967285049 Z" style="stroke:#A67F8E; stroke-opacity: 0.7450980392156863;fill:#C5E2EC; fill-opacity: 0.792156862745098;"/>
<path d="M 486.3305765260577 544.1134592837946 L 478.35949747503247 536.9622849854125 L 471.2083231766504 544.9333640364378 L 479.17940222767567 552.0845383348199 Z" style="stroke:#A67F8E; stroke-opacity: 0.7450980392156863;fill:#C5E2EC; fill-opacity: 0.792156862745098;"/>
<path d="M 471.2083231766504 544.9333640364378 L 464.96089461117845 536.2358338466158 L 456.2633644213565 542.4832624120878 L 462.5107929868285 551.1807926019098 Z" style="stroke:#A67F8E; stroke-opacity: 0.7450980392156863;fill:#C5E2EC; fill-opacity: 0.792156862745098;"/>
<path d="M 456.2633644213565 542.4832624120878 L 452.0317091576404 532.6460631758926 L 442.19450992144516 536.8777184396087 L 446.42616518516127 546.7149176758039 Z" style="stroke:#A67F8E; stroke-opacity: 0.7450980392156863;fill:#C5E2EC; fill-opacity: 0.792156862745098;"/>
<path d="M 442.19450992144516 536.8777184396087 L 440.17649545647026 526.3608266600625 L 429.65960367692406 528.3788411250373 L 431.6776181418989 538.8957329045836 Z" style="stroke:#A67F8E; stroke-opacity: 0.7450980392156863;fill:#C5E2EC; fill-opacity: 0.792156862745098;"/>
<path d="M 429.65960367692406 528.3788411250373 L 429.9495901242097 517.6740149730656 L 419.24476397223805 517.3840285257801 L 418.9547775249525 528.0888546777517 Z" style="stroke:#A67F8E; stroke-opacity: 0.7450980392156863;fill:#C5E2EC; fill-opacity: 0.792156862745098;"/>
<path d="M 419.24476397223805 517.3840285257801 L 421.82919188780613 506.9918137746903 L 411.43697713671634 504.4073858591222 L 408.85254922114825 514.799600610212 Z" style="stroke:#A67F8E; stroke-opacity: 0.7450980392156863;fill:#C5E2EC; fill-opacity: 0.792156862745098;"/>
<path d="M 411.43697713671634 504.4073858591222 L 416.1950015436205 494.81371092055764 L 406.60132660505593 490.05568651365354 L 401.84330219815183 499.6493614522181 Z" style="stroke:#A67F8E; stroke-opacity: 0.7450980392156863;fill:#C5E2EC; fill-opacity: 0.792156862745098;"/>
<path d="M 406.60132660505593 490.05568651365354 L 413.3104675701936 481.7091409651379 L 404.96392202167806 475.0000000000002 L 398.2547810565403 483.34654554851585 Z" style="stroke:#A67F8E; stroke-opacity: 0.7450980392156863;fill:#C5E2EC; fill-opacity: 0.792156862745098;"/>
<path d="M 404.96392202167806 475.0000000000002 L 413.3104675701942 468.29085903486236 L 406.60132660505633 459.94431348634623 L 398.2547810565402 466.6534544514841 Z" style="stroke:#A67F8E; stroke-opacity: 0.7450980392156863;fill:#C5E2EC; fill-opacity: 0.792156862745098;"/>
<path d="M 406.60132660505633 459.94431348634623 L 416.1950015436207 455.1862890794417 L 411.43697713671617 445.5926141408773 L 401.84330219815183 450.3506385477819 Z" style="stroke:#A67F8E; stroke-opacity: 0.7450980392156863;fill:#C5E2EC; fill-opacity: 0.792156862745098;"/>
<path d="M 411.43697713671617 445.5926141408773 L 421.82919188780573 443.00818622530915 L 419.2447639722376 432.6159714742196 L 408.85254922114797 435.20039938978766 Z" style="stroke:#A67F8E; stroke-opacity: 0.7450980392156863;fill:#C5E2EC; fill-opacity: 0.792156862745098;"/>
<path d="M 419.2447639722376 432.6159714742196 L 429.94959012420884 432.3259850269342 L 429.6596036769235 421.62115887496293 L 418.9547775249522 421.91114532224833 Z" style="stroke:#A67F8E; stroke-opacity: 0.7450980392156863;fill:#C5E2EC; fill-opacity: 0.792156862745098;"/>
<path d="M 429.6596036769235 421.62115887496293 L 440.17649545647 423.6391733399383 L 442.19450992144533 413.1222815603918 L 431.67761814189885 411.10426709541645 Z" style="stroke:#A67F8E; stroke-opacity: 0.7450980392156863;fill:#C5E2EC; fill-opacity: 0.792156862745098;"/>
<path d="M 442.19450992144533 413.1222815603918 L 452.03170915764093 417.3539368241077 L 456.26336442135675 407.5167375879121 L 446.4261651851612 403.2850823241962 Z" style="stroke:#A67F8E; stroke-opacity: 0.7450980392156863;fill:#C5E2EC; fill-opacity: 0.792156862745098;"/>
<path d="M 456.26336442135675 407.5167375879121 L 464.9608946111784 413.76416615338394 L 471.20832317665037 405.0666359635623 L 462.5107929868287 398.8192073980904 Z" style="stroke:#A67F8E; stroke-opacity: 0.7450980392156863;fill:#C5E2EC; fill-opacity: 0.792156862745098;"/>
<path d="M 471.20832317665037 405.0666359635623 L 478.35949747503247 413.0377150145878 L 486.33057652605794 405.88654071620556 L 479.1794022276758 397.91546166518015 Z" style="stroke:#A67F8E; stroke-opacity: 0.7450980392156863;fill:#C5E2EC; fill-opacity: 0.792156862745098;"/>
<path d="M 486.33057652605794 405.88654071620556 L 491.6010139707686 415.208551455576 L 500.923024710139 409.9381140108654 L 495.65258726542834 400.616103271495 Z" style="stroke:#A67F8E; stroke-opacity: 0.7450980392156863;fill:#C5E2EC; fill-opacity: 0.792156862745098;"/>
<path d="M 500.923024710139 409.9381140108654 L 504.06628550393276 420.1751695770781 L 514.3033410701455 417.03190878328434 L 511.1600802763517 406.7948532170716 Z" style="stroke:#A67F8E; stroke-opacity: 0.7450980392156863;fill:#C5E2EC; fill-opacity: 0.792156862745098;"/>
<path d="M 514.3033410701455 417.03190878328434 L 515.1724498317881 427.7053358357346 L 525.8458768842385 426.83622707409194 L 524.9767681225958 416.16280002164166 Z" style="stroke:#A67F8E; stroke-opacity: 0.7450980392156863;fill:#C5E2EC; fill-opacity: 0.792156862745098;"/>
<path d="M 525.8458768842385 426.83622707409194 L 524.4001950539815 437.4469480264687 L 535.0109160063583 438.89262985672565 L 536.4565978366153 428.2819089043488 Z" style="stroke:#A67F8E; stroke-opacity: 0.7450980392156863;fill:#C5E2EC; fill-opacity: 0.792156862745098;"/>
<path d="M 535.0109160063583 438.89262985672565 L 531.3180420598243 448.94449919026454 L 541.3699113933632 452.6373731367986 L 545.0627853398972 442.5855038032597 Z" style="stroke:#A67F8E; stroke-opacity: 0.7450980392156863;fill:#C5E2EC; fill-opacity: 0.792156862745098;"/>
<path d="M 541.3699113933632 452.6373731367986 L 535.6025200119566 461.6603766133142 L 544.6255234884721 467.42776799472085 L 550.3929148698787 458.40476451820524 Z" style="stroke:#A67F8E; stroke-opacity: 0.7450980392156863;fill:#C5E2EC; fill-opacity: 0.792156862745098;"/>
<path d="M 544.6255234884721 467.42776799472085 L 537.0532914831927 475.0000000000001 L 544.625523488472 482.5722320052795 L 552.1977554937514 475.0000000000002 Z" style="stroke:#A67F8E; stroke-opacity: 0.7450980392156863;fill:#C5E2EC; fill-opacity: 0.792156862745098;"/>
<path d="M 544.625523488472 482.5722320052795 L 535.602520011957 488.3396233866864 L 541.3699113933639 497.3626268632015 L 550.392914869879 491.5952354817946 Z" style="stroke:#A67F8E; stroke-opacity: 0.7450980392156863;fill:#C5E2EC; fill-opacity: 0.792156862745098;"/>
<path d="M 541.3699113933639 497.3626268632015 L 531.3180420598251 501.05550080973495 L 535.0109160063585 511.10737014327384 L 545.0627853398973 507.41449619674034 Z" style="stroke:#A67F8E; stroke-opacity: 0.7450980392156863;fill:#C5E2EC; fill-opacity: 0.792156862745098;"/>
<path d="M 535.0109160063585 511.10737014327384 L 524.4001950539811 512.5530519735312 L 525.8458768842384 523.1637729259086 L 536.4565978366157 521.7180910956513 Z" style="stroke:#A67F8E; stroke-opacity: 0.7450980392156863;fill:#C5E2EC; fill-opacity: 0.792156862745098;"/>
<path d="M 525.8458768842384 523.1637729259086 L 515.1724498317888 522.2946641642658 L 514.3033410701461 532.9680912167154 L 524.9767681225956 533.8371999783582 Z" style="stroke:#A67F8E; stroke-opacity: 0.7450980392156863;fill:#C5E2EC; fill-opacity: 0.792156862745098;"/>
</g>
</svg>