<?xml version="1.0"?><!DOCTYPE svg PUBLIC "-//W3C//DTD SVG 1.1//EN" "http://www.w3.org/Graphics/SVG/1.1/DTD/svg11.dtd"><svg xmlns="http://www.w3.org/2000/svg" width="950" height="950">
<title>PatternSeventySeven</title>
<desc>
Generated using the following configuration:

@implementation NewPattern : PatternSeventySeven
+ (CPDict) defaultConfig
{
 return [CPDictionary dictionaryWithObjectsAndKeys:[[GRColor alloc] initWithGradientColors:[] baseColor:[CPColor colorWith8BitRed:211 green:177 blue:70 alpha:0.37254901960784315]], "background_color", 0, "background_color_direction", 19, "number_of_points", 166, "rotation", 0, "recurse_depth", 0.6352941176470588, "factor_larger", [GRPoint pointWithX:475 Y:475], "center_point", 208, "radius", NO, "show_shapes", [[CPColor colorWith8BitRed:106 green:211 blue:63 alpha:0.8392156862745098],[CPColor colorWith8BitRed:217 green:244 blue:107 alpha:0.3254901960784314],[CPColor colorWith8BitRed:243 green:90 blue:201 alpha:0.3803921568627451],[CPColor colorWith8BitRed:180 green:253 blue:2 alpha:0.39215686274509803],[CPColor colorWith8BitRed:166 green:36 blue:119 alpha:0.16862745098039217],[CPColor colorWith8BitRed:35 green:186 blue:236 alpha:0.09803921568627451]], "stroke_colors", [[CPColor colorWith8BitRed:176 green:36 blue:39 alpha:0.07058823529411765],[CPColor colorWith8BitRed:207 green:71 blue:172 alpha:0.17647058823529413],[CPColor colorWith8BitRed:208 green:215 blue:9 alpha:0.7176470588235294],[CPColor colorWith8BitRed:60 green:244 blue:2 alpha:0.8784313725490196],[CPColor colorWith8BitRed:179 green:222 blue:163 alpha:0.8784313725490196],[CPColor colorWith8BitRed:8 green:71 blue:175 alpha:0.5058823529411764]], "fill_colors"];
}
@end

</desc>
  <defs>
    <linearGradient id="grad1" x1="0%" y1="0%" x2="100%" y2="0%">
<stop offset="100%" style="stop-color:#D3B146;stop-opacity:0.37254901960784315;" />
    </linearGradient>
  </defs>
<rect id="background" width="100%" height="100%" fill="url(#grad1)"/>
<g id="rotatelayer" transform="rotate(166, 475, 475)">
<path d="M 475 475 L 599.9814030444886 517.9061698600824 L 579.2779553122388 556.1627904580041 Z" style="stroke:#A62477; stroke-opacity: 0.16862745098039217;fill:#B3DEA3; fill-opacity: 0.8784313725490196;"/>
<path d="M 475 475 L 579.2779553122388 556.1627904580041 L 547.2743730827189 585.6241633393496 Z" style="stroke:#23BAEC; stroke-opacity: 0.09803921568627451;fill:#0847AF; fill-opacity: 0.5058823529411764;"/>
<path d="M 475 475 L 547.2743730827189 585.6241633393496 L 507.43874107724065 603.0976916121242 Z" style="stroke:#A62477; stroke-opacity: 0.16862745098039217;fill:#B3DEA3; fill-opacity: 0.8784313725490196;"/>
<path d="M 475 475 L 507.43874107724065 603.0976916121242 L 464.08786813711487 606.689847358246 Z" style="stroke:#23BAEC; stroke-opacity: 0.09803921568627451;fill:#0847AF; fill-opacity: 0.5058823529411764;"/>
<path d="M 475 475 L 464.08786813711487 606.689847358246 L 421.9194940035041 596.0113647645836 Z" style="stroke:#A62477; stroke-opacity: 0.16862745098039217;fill:#B3DEA3; fill-opacity: 0.8784313725490196;"/>
<path d="M 475 475 L 421.9194940035041 596.0113647645836 L 385.50321632352563 572.2194231138895 Z" style="stroke:#23BAEC; stroke-opacity: 0.09803921568627451;fill:#0847AF; fill-opacity: 0.5058823529411764;"/>
<path d="M 475 475 L 385.50321632352563 572.2194231138895 L 358.78530384057314 537.8922484540284 Z" style="stroke:#A62477; stroke-opacity: 0.16862745098039217;fill:#B3DEA3; fill-opacity: 0.8784313725490196;"/>
<path d="M 475 475 L 358.78530384057314 537.8922484540284 L 344.66105694330145 496.7497228003906 Z" style="stroke:#23BAEC; stroke-opacity: 0.09803921568627451;fill:#0847AF; fill-opacity: 0.5058823529411764;"/>
<path d="M 475 475 L 344.66105694330145 496.7497228003906 L 344.66105694330145 453.2502771996094 Z" style="stroke:#A62477; stroke-opacity: 0.16862745098039217;fill:#B3DEA3; fill-opacity: 0.8784313725490196;"/>
<path d="M 475 475 L 344.66105694330145 453.2502771996094 L 358.78530384057314 412.10775154597167 Z" style="stroke:#23BAEC; stroke-opacity: 0.09803921568627451;fill:#0847AF; fill-opacity: 0.5058823529411764;"/>
<path d="M 475 475 L 358.78530384057314 412.10775154597167 L 385.5032163235255 377.78057688611045 Z" style="stroke:#A62477; stroke-opacity: 0.16862745098039217;fill:#B3DEA3; fill-opacity: 0.8784313725490196;"/>
<path d="M 475 475 L 385.5032163235255 377.78057688611045 L 421.91949400350404 353.98863523541644 Z" style="stroke:#23BAEC; stroke-opacity: 0.09803921568627451;fill:#0847AF; fill-opacity: 0.5058823529411764;"/>
<path d="M 475 475 L 421.91949400350404 353.98863523541644 L 464.0878681371148 343.3101526417539 Z" style="stroke:#A62477; stroke-opacity: 0.16862745098039217;fill:#B3DEA3; fill-opacity: 0.8784313725490196;"/>
<path d="M 475 475 L 464.0878681371148 343.3101526417539 L 507.4387410772406 346.9023083878758 Z" style="stroke:#23BAEC; stroke-opacity: 0.09803921568627451;fill:#0847AF; fill-opacity: 0.5058823529411764;"/>
<path d="M 475 475 L 507.4387410772406 346.9023083878758 L 547.2743730827187 364.3758366606503 Z" style="stroke:#A62477; stroke-opacity: 0.16862745098039217;fill:#B3DEA3; fill-opacity: 0.8784313725490196;"/>
<path d="M 475 475 L 547.2743730827187 364.3758366606503 L 579.2779553122388 393.8372095419959 Z" style="stroke:#23BAEC; stroke-opacity: 0.09803921568627451;fill:#0847AF; fill-opacity: 0.5058823529411764;"/>
<path d="M 475 475 L 579.2779553122388 393.8372095419959 L 599.9814030444886 432.0938301399176 Z" style="stroke:#A62477; stroke-opacity: 0.16862745098039217;fill:#B3DEA3; fill-opacity: 0.8784313725490196;"/>
<path d="M 475 475 L 599.9814030444886 432.0938301399176 L 607.1411764705882 474.99999999999994 Z" style="stroke:#23BAEC; stroke-opacity: 0.09803921568627451;fill:#0847AF; fill-opacity: 0.5058823529411764;"/>
<path d="M 475 475 L 607.1411764705882 474.99999999999994 L 599.9814030444886 517.9061698600824 Z" style="stroke:#A62477; stroke-opacity: 0.16862745098039217;fill:#B3DEA3; fill-opacity: 0.8784313725490196;"/>
<path d="M 579.2779553122388 556.1627904580041 C 602.4598051448063 556.3429886653693 602.4598051448063 556.3429886653693 589.6296791783636 537.0344801590433 Z" style="stroke:#A62477; stroke-opacity: 0.16862745098039217;fill:#B3DEA3; fill-opacity: 0.8784313725490196;"/>
<path d="M 599.9814030444886 517.9061698600824 C 562.048858754509 497.6243127906791 562.048858754509 497.6243127906791 537.4907015222443 496.4530849300412 Z" style="stroke:#A62477; stroke-opacity: 0.16862745098039217;fill:#B3DEA3; fill-opacity: 0.8784313725490196;"/>
<path d="M 599.9814030444886 517.9061698600824 L 537.4907015222443 496.4530849300412 Z" style="stroke:#6AD33F; stroke-opacity: 0.8392156862745098;fill:#B02427; fill-opacity: 0.07058823529411765;"/>
<path d="M 579.2779553122388 556.1627904580041 L 589.6296791783636 537.0344801590433 Z" style="stroke:#6AD33F; stroke-opacity: 0.8392156862745098;fill:#B02427; fill-opacity: 0.07058823529411765;"/>
<path d="M 475 475 C 512.9325442899797 495.2818570694033 512.9325442899797 495.2818570694033 537.4907015222443 496.4530849300412 Z" style="stroke:#23BAEC; stroke-opacity: 0.09803921568627451;fill:#0847AF; fill-opacity: 0.5058823529411764;"/>
<path d="M 599.9814030444886 517.9061698600824 C 576.799553211921 517.7259716527172 576.799553211921 517.7259716527172 589.6296791783636 537.0344801590433 Z" style="stroke:#23BAEC; stroke-opacity: 0.09803921568627451;fill:#0847AF; fill-opacity: 0.5058823529411764;"/>
<path d="M 475 475 L 537.4907015222443 496.4530849300412 Z" style="stroke:#D9F46B; stroke-opacity: 0.3254901960784314;fill:#CF47AC; fill-opacity: 0.17647058823529413;"/>
<path d="M 599.9814030444886 517.9061698600824 L 589.6296791783636 537.0344801590433 Z" style="stroke:#D9F46B; stroke-opacity: 0.3254901960784314;fill:#CF47AC; fill-opacity: 0.17647058823529413;"/>
<path d="M 547.2743730827189 585.6241633393496 C 569.1416560865931 593.3217322466166 569.1416560865931 593.3217322466166 563.2761641974788 570.8934768986769 Z" style="stroke:#23BAEC; stroke-opacity: 0.09803921568627451;fill:#0847AF; fill-opacity: 0.5058823529411764;"/>
<path d="M 579.2779553122388 556.1627904580041 C 549.9862091261235 524.6631833515153 549.9862091261235 524.6631833515153 527.1389776561193 515.581395229002 Z" style="stroke:#23BAEC; stroke-opacity: 0.09803921568627451;fill:#0847AF; fill-opacity: 0.5058823529411764;"/>
<path d="M 579.2779553122388 556.1627904580041 L 527.1389776561193 515.581395229002 Z" style="stroke:#D9F46B; stroke-opacity: 0.3254901960784314;fill:#CF47AC; fill-opacity: 0.17647058823529413;"/>
<path d="M 547.2743730827189 585.6241633393496 L 563.2761641974788 570.8934768986769 Z" style="stroke:#D9F46B; stroke-opacity: 0.3254901960784314;fill:#CF47AC; fill-opacity: 0.17647058823529413;"/>
<path d="M 475 475 C 504.2917461861151 506.4996071064889 504.2917461861151 506.4996071064889 527.1389776561193 515.581395229002 Z" style="stroke:#A62477; stroke-opacity: 0.16862745098039217;fill:#B3DEA3; fill-opacity: 0.8784313725490196;"/>
<path d="M 579.2779553122388 556.1627904580041 C 557.4106723083645 548.4652215507372 557.4106723083645 548.4652215507372 563.2761641974788 570.8934768986769 Z" style="stroke:#A62477; stroke-opacity: 0.16862745098039217;fill:#B3DEA3; fill-opacity: 0.8784313725490196;"/>
<path d="M 475 475 L 527.1389776561193 515.581395229002 Z" style="stroke:#6AD33F; stroke-opacity: 0.8392156862745098;fill:#B02427; fill-opacity: 0.07058823529411765;"/>
<path d="M 579.2779553122388 556.1627904580041 L 563.2761641974788 570.8934768986769 Z" style="stroke:#6AD33F; stroke-opacity: 0.8392156862745098;fill:#B02427; fill-opacity: 0.07058823529411765;"/>
<path d="M 507.43874107724065 603.0976916121242 C 525.6217978330963 617.4784801881024 525.6217978330963 617.4784801881024 527.3565570799798 594.3609274757368 Z" style="stroke:#A62477; stroke-opacity: 0.16862745098039217;fill:#B3DEA3; fill-opacity: 0.8784313725490196;"/>
<path d="M 547.2743730827189 585.6241633393496 C 529.7976402080053 546.3202773925267 529.7976402080053 546.3202773925267 511.1371865413594 530.3120816696749 Z" style="stroke:#A62477; stroke-opacity: 0.16862745098039217;fill:#B3DEA3; fill-opacity: 0.8784313725490196;"/>
<path d="M 547.2743730827189 585.6241633393496 L 511.1371865413594 530.3120816696749 Z" style="stroke:#6AD33F; stroke-opacity: 0.8392156862745098;fill:#B02427; fill-opacity: 0.07058823529411765;"/>
<path d="M 507.43874107724065 603.0976916121242 L 527.3565570799798 594.3609274757368 Z" style="stroke:#6AD33F; stroke-opacity: 0.8392156862745098;fill:#B02427; fill-opacity: 0.07058823529411765;"/>
<path d="M 475 475 C 492.4767328747135 514.303885946823 492.4767328747135 514.303885946823 511.1371865413594 530.3120816696749 Z" style="stroke:#23BAEC; stroke-opacity: 0.09803921568627451;fill:#0847AF; fill-opacity: 0.5058823529411764;"/>
<path d="M 547.2743730827189 585.6241633393496 C 529.0913163268633 571.2433747633713 529.0913163268633 571.2433747633713 527.3565570799798 594.3609274757368 Z" style="stroke:#23BAEC; stroke-opacity: 0.09803921568627451;fill:#0847AF; fill-opacity: 0.5058823529411764;"/>
<path d="M 475 475 L 511.1371865413594 530.3120816696749 Z" style="stroke:#D9F46B; stroke-opacity: 0.3254901960784314;fill:#CF47AC; fill-opacity: 0.17647058823529413;"/>
<path d="M 547.2743730827189 585.6241633393496 L 527.3565570799798 594.3609274757368 Z" style="stroke:#D9F46B; stroke-opacity: 0.3254901960784314;fill:#CF47AC; fill-opacity: 0.17647058823529413;"/>
<path d="M 464.08786813711487 606.689847358246 C 476.6162823062593 626.1954740198028 476.6162823062593 626.1954740198028 485.76330460717776 604.8937694851851 Z" style="stroke:#23BAEC; stroke-opacity: 0.09803921568627451;fill:#0847AF; fill-opacity: 0.5058823529411764;"/>
<path d="M 507.43874107724065 603.0976916121242 C 503.6708967003552 560.2487127299322 503.6708967003552 560.2487127299322 491.2193705386203 539.0488458060621 Z" style="stroke:#23BAEC; stroke-opacity: 0.09803921568627451;fill:#0847AF; fill-opacity: 0.5058823529411764;"/>
<path d="M 507.43874107724065 603.0976916121242 L 491.2193705386203 539.0488458060621 Z" style="stroke:#D9F46B; stroke-opacity: 0.3254901960784314;fill:#CF47AC; fill-opacity: 0.17647058823529413;"/>
<path d="M 464.08786813711487 606.689847358246 L 485.76330460717776 604.8937694851851 Z" style="stroke:#D9F46B; stroke-opacity: 0.3254901960784314;fill:#CF47AC; fill-opacity: 0.17647058823529413;"/>
<path d="M 475 475 C 478.7678443768854 517.848978882192 478.7678443768854 517.848978882192 491.2193705386203 539.0488458060621 Z" style="stroke:#A62477; stroke-opacity: 0.16862745098039217;fill:#B3DEA3; fill-opacity: 0.8784313725490196;"/>
<path d="M 507.43874107724065 603.0976916121242 C 494.91032690809624 583.5920649505674 494.91032690809624 583.5920649505674 485.76330460717776 604.8937694851851 Z" style="stroke:#A62477; stroke-opacity: 0.16862745098039217;fill:#B3DEA3; fill-opacity: 0.8784313725490196;"/>
<path d="M 475 475 L 491.2193705386203 539.0488458060621 Z" style="stroke:#6AD33F; stroke-opacity: 0.8392156862745098;fill:#B02427; fill-opacity: 0.07058823529411765;"/>
<path d="M 507.43874107724065 603.0976916121242 L 485.76330460717776 604.8937694851851 Z" style="stroke:#6AD33F; stroke-opacity: 0.8392156862745098;fill:#B02427; fill-opacity: 0.07058823529411765;"/>
<path d="M 421.9194940035041 596.0113647645836 C 427.4356175123352 618.5280922019571 427.4356175123352 618.5280922019571 443.0036810703095 601.3506060614147 Z" style="stroke:#A62477; stroke-opacity: 0.16862745098039217;fill:#B3DEA3; fill-opacity: 0.8784313725490196;"/>
<path d="M 464.08786813711487 606.689847358246 C 474.4372166604223 564.9391272729818 474.4372166604223 564.9391272729818 469.5439340685574 540.844923679123 Z" style="stroke:#A62477; stroke-opacity: 0.16862745098039217;fill:#B3DEA3; fill-opacity: 0.8784313725490196;"/>
<path d="M 464.08786813711487 606.689847358246 L 469.5439340685574 540.844923679123 Z" style="stroke:#6AD33F; stroke-opacity: 0.8392156862745098;fill:#B02427; fill-opacity: 0.07058823529411765;"/>
<path d="M 421.9194940035041 596.0113647645836 L 443.0036810703095 601.3506060614147 Z" style="stroke:#6AD33F; stroke-opacity: 0.8392156862745098;fill:#B02427; fill-opacity: 0.07058823529411765;"/>
<path d="M 475 475 C 464.65065147669253 516.7507200852642 464.65065147669253 516.7507200852642 469.5439340685574 540.844923679123 Z" style="stroke:#23BAEC; stroke-opacity: 0.09803921568627451;fill:#0847AF; fill-opacity: 0.5058823529411764;"/>
<path d="M 464.08786813711487 606.689847358246 C 458.57174462828374 584.1731199208724 458.57174462828374 584.1731199208724 443.0036810703095 601.3506060614147 Z" style="stroke:#23BAEC; stroke-opacity: 0.09803921568627451;fill:#0847AF; fill-opacity: 0.5058823529411764;"/>
<path d="M 475 475 L 469.5439340685574 540.844923679123 Z" style="stroke:#D9F46B; stroke-opacity: 0.3254901960784314;fill:#CF47AC; fill-opacity: 0.17647058823529413;"/>
<path d="M 464.08786813711487 606.689847358246 L 443.0036810703095 601.3506060614147 Z" style="stroke:#D9F46B; stroke-opacity: 0.3254901960784314;fill:#CF47AC; fill-opacity: 0.17647058823529413;"/>
<path d="M 385.50321632352563 572.2194231138895 C 383.40929159838663 595.3072145262162 383.40929159838663 595.3072145262162 403.7113551635149 584.1153939392366 Z" style="stroke:#23BAEC; stroke-opacity: 0.09803921568627451;fill:#0847AF; fill-opacity: 0.5058823529411764;"/>
<path d="M 421.9194940035041 596.0113647645836 C 445.26452292781585 559.8832418266558 445.26452292781585 559.8832418266558 448.459747001752 535.5056823822918 Z" style="stroke:#23BAEC; stroke-opacity: 0.09803921568627451;fill:#0847AF; fill-opacity: 0.5058823529411764;"/>
<path d="M 421.9194940035041 596.0113647645836 L 448.459747001752 535.5056823822918 Z" style="stroke:#D9F46B; stroke-opacity: 0.3254901960784314;fill:#CF47AC; fill-opacity: 0.17647058823529413;"/>
<path d="M 385.50321632352563 572.2194231138895 L 403.7113551635149 584.1153939392366 Z" style="stroke:#D9F46B; stroke-opacity: 0.3254901960784314;fill:#CF47AC; fill-opacity: 0.17647058823529413;"/>
<path d="M 475 475 C 451.6549710756882 511.12812293792774 451.6549710756882 511.12812293792774 448.459747001752 535.5056823822918 Z" style="stroke:#A62477; stroke-opacity: 0.16862745098039217;fill:#B3DEA3; fill-opacity: 0.8784313725490196;"/>
<path d="M 421.9194940035041 596.0113647645836 C 424.01341872864316 572.923573352257 424.01341872864316 572.923573352257 403.7113551635149 584.1153939392366 Z" style="stroke:#A62477; stroke-opacity: 0.16862745098039217;fill:#B3DEA3; fill-opacity: 0.8784313725490196;"/>
<path d="M 475 475 L 448.459747001752 535.5056823822918 Z" style="stroke:#6AD33F; stroke-opacity: 0.8392156862745098;fill:#B02427; fill-opacity: 0.07058823529411765;"/>
<path d="M 421.9194940035041 596.0113647645836 L 403.7113551635149 584.1153939392366 Z" style="stroke:#6AD33F; stroke-opacity: 0.8392156862745098;fill:#B02427; fill-opacity: 0.07058823529411765;"/>
<path d="M 358.78530384057314 537.8922484540284 C 349.3082401160225 559.0491833977875 349.3082401160225 559.0491833977875 372.1442600820494 555.055835783959 Z" style="stroke:#A62477; stroke-opacity: 0.16862745098039217;fill:#B3DEA3; fill-opacity: 0.8784313725490196;"/>
<path d="M 385.50321632352563 572.2194231138895 C 419.31412952944623 545.6289400292096 419.31412952944623 545.6289400292096 430.2516081617628 523.6097115569448 Z" style="stroke:#A62477; stroke-opacity: 0.16862745098039217;fill:#B3DEA3; fill-opacity: 0.8784313725490196;"/>
<path d="M 385.50321632352563 572.2194231138895 L 430.2516081617628 523.6097115569448 Z" style="stroke:#6AD33F; stroke-opacity: 0.8392156862745098;fill:#B02427; fill-opacity: 0.07058823529411765;"/>
<path d="M 358.78530384057314 537.8922484540284 L 372.1442600820494 555.055835783959 Z" style="stroke:#6AD33F; stroke-opacity: 0.8392156862745098;fill:#B02427; fill-opacity: 0.07058823529411765;"/>
<path d="M 475 475 C 441.1890867940794 501.5904830846801 441.1890867940794 501.5904830846801 430.2516081617628 523.6097115569448 Z" style="stroke:#23BAEC; stroke-opacity: 0.09803921568627451;fill:#0847AF; fill-opacity: 0.5058823529411764;"/>
<path d="M 385.50321632352563 572.2194231138895 C 394.98028004807634 551.0624881701305 394.98028004807634 551.0624881701305 372.1442600820494 555.055835783959 Z" style="stroke:#23BAEC; stroke-opacity: 0.09803921568627451;fill:#0847AF; fill-opacity: 0.5058823529411764;"/>
<path d="M 475 475 L 430.2516081617628 523.6097115569448 Z" style="stroke:#D9F46B; stroke-opacity: 0.3254901960784314;fill:#CF47AC; fill-opacity: 0.17647058823529413;"/>
<path d="M 385.50321632352563 572.2194231138895 L 372.1442600820494 555.055835783959 Z" style="stroke:#D9F46B; stroke-opacity: 0.3254901960784314;fill:#CF47AC; fill-opacity: 0.17647058823529413;"/>
<path d="M 344.66105694330145 496.7497228003906 C 328.82784112568913 513.683119090756 328.82784112568913 513.683119090756 351.72318039193726 517.3209856272094 Z" style="stroke:#23BAEC; stroke-opacity: 0.09803921568627451;fill:#0847AF; fill-opacity: 0.5058823529411764;"/>
<path d="M 358.78530384057314 537.8922484540284 C 399.39816425186837 523.7208966586769 399.39816425186837 523.7208966586769 416.89265192028654 506.4461242270142 Z" style="stroke:#23BAEC; stroke-opacity: 0.09803921568627451;fill:#0847AF; fill-opacity: 0.5058823529411764;"/>
<path d="M 358.78530384057314 537.8922484540284 L 416.89265192028654 506.4461242270142 Z" style="stroke:#D9F46B; stroke-opacity: 0.3254901960784314;fill:#CF47AC; fill-opacity: 0.17647058823529413;"/>
<path d="M 344.66105694330145 496.7497228003906 L 351.72318039193726 517.3209856272094 Z" style="stroke:#D9F46B; stroke-opacity: 0.3254901960784314;fill:#CF47AC; fill-opacity: 0.17647058823529413;"/>
<path d="M 475 475 C 434.3871395887047 489.1713517953515 434.3871395887047 489.1713517953515 416.89265192028654 506.4461242270142 Z" style="stroke:#A62477; stroke-opacity: 0.16862745098039217;fill:#B3DEA3; fill-opacity: 0.8784313725490196;"/>
<path d="M 358.78530384057314 537.8922484540284 C 374.6185196581854 520.9588521636629 374.6185196581854 520.9588521636629 351.72318039193726 517.3209856272094 Z" style="stroke:#A62477; stroke-opacity: 0.16862745098039217;fill:#B3DEA3; fill-opacity: 0.8784313725490196;"/>
<path d="M 475 475 L 416.89265192028654 506.4461242270142 Z" style="stroke:#6AD33F; stroke-opacity: 0.8392156862745098;fill:#B02427; fill-opacity: 0.07058823529411765;"/>
<path d="M 358.78530384057314 537.8922484540284 L 351.72318039193726 517.3209856272094 Z" style="stroke:#6AD33F; stroke-opacity: 0.8392156862745098;fill:#B02427; fill-opacity: 0.07058823529411765;"/>
<path d="M 344.66105694330145 453.2502771996094 C 324.1874636441223 464.1251385998047 324.1874636441223 464.1251385998047 344.66105694330145 475 Z" style="stroke:#A62477; stroke-opacity: 0.16862745098039217;fill:#B3DEA3; fill-opacity: 0.8784313725490196;"/>
<path d="M 344.66105694330145 496.7497228003906 C 387.6748309609491 496.5331881525734 387.6748309609491 496.5331881525734 409.8305284716507 485.8748614001953 Z" style="stroke:#A62477; stroke-opacity: 0.16862745098039217;fill:#B3DEA3; fill-opacity: 0.8784313725490196;"/>
<path d="M 344.66105694330145 496.7497228003906 L 409.8305284716507 485.8748614001953 Z" style="stroke:#6AD33F; stroke-opacity: 0.8392156862745098;fill:#B02427; fill-opacity: 0.07058823529411765;"/>
<path d="M 344.66105694330145 453.2502771996094 L 344.66105694330145 475 Z" style="stroke:#6AD33F; stroke-opacity: 0.8392156862745098;fill:#B02427; fill-opacity: 0.07058823529411765;"/>
<path d="M 475 475 C 431.9862259823523 475.2165346478172 431.9862259823523 475.2165346478172 409.8305284716507 485.8748614001953 Z" style="stroke:#23BAEC; stroke-opacity: 0.09803921568627451;fill:#0847AF; fill-opacity: 0.5058823529411764;"/>
<path d="M 344.66105694330145 496.7497228003906 C 365.1346502424806 485.8748614001953 365.1346502424806 485.8748614001953 344.66105694330145 475 Z" style="stroke:#23BAEC; stroke-opacity: 0.09803921568627451;fill:#0847AF; fill-opacity: 0.5058823529411764;"/>
<path d="M 475 475 L 409.8305284716507 485.8748614001953 Z" style="stroke:#D9F46B; stroke-opacity: 0.3254901960784314;fill:#CF47AC; fill-opacity: 0.17647058823529413;"/>
<path d="M 344.66105694330145 496.7497228003906 L 344.66105694330145 475 Z" style="stroke:#D9F46B; stroke-opacity: 0.3254901960784314;fill:#CF47AC; fill-opacity: 0.17647058823529413;"/>
<path d="M 358.78530384057314 412.10775154597167 C 335.88996457432495 415.7456180824251 335.88996457432495 415.7456180824251 351.72318039193726 432.67901437279056 Z" style="stroke:#23BAEC; stroke-opacity: 0.09803921568627451;fill:#0847AF; fill-opacity: 0.5058823529411764;"/>
<path d="M 344.66105694330145 453.2502771996094 C 385.4145347250181 467.01202458829874 385.4145347250181 467.01202458829874 409.8305284716507 464.1251385998047 Z" style="stroke:#23BAEC; stroke-opacity: 0.09803921568627451;fill:#0847AF; fill-opacity: 0.5058823529411764;"/>
<path d="M 344.66105694330145 453.2502771996094 L 409.8305284716507 464.1251385998047 Z" style="stroke:#D9F46B; stroke-opacity: 0.3254901960784314;fill:#CF47AC; fill-opacity: 0.17647058823529413;"/>
<path d="M 358.78530384057314 412.10775154597167 L 351.72318039193726 432.67901437279056 Z" style="stroke:#D9F46B; stroke-opacity: 0.3254901960784314;fill:#CF47AC; fill-opacity: 0.17647058823529413;"/>
<path d="M 475 475 C 434.24652221828336 461.23825261131066 434.24652221828336 461.23825261131066 409.8305284716507 464.1251385998047 Z" style="stroke:#A62477; stroke-opacity: 0.16862745098039217;fill:#B3DEA3; fill-opacity: 0.8784313725490196;"/>
<path d="M 344.66105694330145 453.2502771996094 C 367.5563962095496 449.612410663156 367.5563962095496 449.612410663156 351.72318039193726 432.67901437279056 Z" style="stroke:#A62477; stroke-opacity: 0.16862745098039217;fill:#B3DEA3; fill-opacity: 0.8784313725490196;"/>
<path d="M 475 475 L 409.8305284716507 464.1251385998047 Z" style="stroke:#6AD33F; stroke-opacity: 0.8392156862745098;fill:#B02427; fill-opacity: 0.07058823529411765;"/>
<path d="M 344.66105694330145 453.2502771996094 L 351.72318039193726 432.67901437279056 Z" style="stroke:#6AD33F; stroke-opacity: 0.8392156862745098;fill:#B02427; fill-opacity: 0.07058823529411765;"/>
<path d="M 385.5032163235255 377.78057688611045 C 362.66719635749854 373.78722927228193 362.66719635749854 373.78722927228193 372.1442600820493 394.94416421604103 Z" style="stroke:#A62477; stroke-opacity: 0.16862745098039217;fill:#B3DEA3; fill-opacity: 0.8784313725490196;"/>
<path d="M 358.78530384057314 412.10775154597167 C 392.8622137133481 438.3564821060911 392.8622137133481 438.3564821060911 416.89265192028654 443.55387577298586 Z" style="stroke:#A62477; stroke-opacity: 0.16862745098039217;fill:#B3DEA3; fill-opacity: 0.8784313725490196;"/>
<path d="M 358.78530384057314 412.10775154597167 L 416.89265192028654 443.55387577298586 Z" style="stroke:#6AD33F; stroke-opacity: 0.8392156862745098;fill:#B02427; fill-opacity: 0.07058823529411765;"/>
<path d="M 385.5032163235255 377.78057688611045 L 372.1442600820493 394.94416421604103 Z" style="stroke:#6AD33F; stroke-opacity: 0.8392156862745098;fill:#B02427; fill-opacity: 0.07058823529411765;"/>
<path d="M 475 475 C 440.92309012722495 448.7512694398806 440.92309012722495 448.7512694398806 416.89265192028654 443.55387577298586 Z" style="stroke:#23BAEC; stroke-opacity: 0.09803921568627451;fill:#0847AF; fill-opacity: 0.5058823529411764;"/>
<path d="M 358.78530384057314 412.10775154597167 C 381.62132380660006 416.1010991598001 381.62132380660006 416.1010991598001 372.1442600820493 394.94416421604103 Z" style="stroke:#23BAEC; stroke-opacity: 0.09803921568627451;fill:#0847AF; fill-opacity: 0.5058823529411764;"/>
<path d="M 475 475 L 416.89265192028654 443.55387577298586 Z" style="stroke:#D9F46B; stroke-opacity: 0.3254901960784314;fill:#CF47AC; fill-opacity: 0.17647058823529413;"/>
<path d="M 358.78530384057314 412.10775154597167 L 372.1442600820493 394.94416421604103 Z" style="stroke:#D9F46B; stroke-opacity: 0.3254901960784314;fill:#CF47AC; fill-opacity: 0.17647058823529413;"/>
<path d="M 421.91949400350404 353.98863523541644 C 401.6174304383757 342.7968146484368 401.6174304383757 342.7968146484368 403.7113551635148 365.8846060607634 Z" style="stroke:#23BAEC; stroke-opacity: 0.09803921568627451;fill:#0847AF; fill-opacity: 0.5058823529411764;"/>
<path d="M 385.5032163235255 377.78057688611045 C 409.2107963449071 413.6718333704514 409.2107963449071 413.6718333704514 430.25160816176276 426.3902884430552 Z" style="stroke:#23BAEC; stroke-opacity: 0.09803921568627451;fill:#0847AF; fill-opacity: 0.5058823529411764;"/>
<path d="M 385.5032163235255 377.78057688611045 L 430.25160816176276 426.3902884430552 Z" style="stroke:#D9F46B; stroke-opacity: 0.3254901960784314;fill:#CF47AC; fill-opacity: 0.17647058823529413;"/>
<path d="M 421.91949400350404 353.98863523541644 L 403.7113551635148 365.8846060607634 Z" style="stroke:#D9F46B; stroke-opacity: 0.3254901960784314;fill:#CF47AC; fill-opacity: 0.17647058823529413;"/>
<path d="M 475 475 C 451.2924199786184 439.10874351565906 451.2924199786184 439.10874351565906 430.25160816176276 426.3902884430552 Z" style="stroke:#A62477; stroke-opacity: 0.16862745098039217;fill:#B3DEA3; fill-opacity: 0.8784313725490196;"/>
<path d="M 385.5032163235255 377.78057688611045 C 405.80527988865384 388.97239747309004 405.80527988865384 388.97239747309004 403.7113551635148 365.8846060607634 Z" style="stroke:#A62477; stroke-opacity: 0.16862745098039217;fill:#B3DEA3; fill-opacity: 0.8784313725490196;"/>
<path d="M 475 475 L 430.25160816176276 426.3902884430552 Z" style="stroke:#6AD33F; stroke-opacity: 0.8392156862745098;fill:#B02427; fill-opacity: 0.07058823529411765;"/>
<path d="M 385.5032163235255 377.78057688611045 L 403.7113551635148 365.8846060607634 Z" style="stroke:#6AD33F; stroke-opacity: 0.8392156862745098;fill:#B02427; fill-opacity: 0.07058823529411765;"/>
<path d="M 464.0878681371148 343.3101526417539 C 448.5198045791405 326.1326665012116 448.5198045791405 326.1326665012116 443.0036810703094 348.64939393858515 Z" style="stroke:#A62477; stroke-opacity: 0.16862745098039217;fill:#B3DEA3; fill-opacity: 0.8784313725490196;"/>
<path d="M 421.91949400350404 353.98863523541644 C 432.68866001716964 395.6330430936761 432.68866001716964 395.6330430936761 448.459747001752 414.49431761770825 Z" style="stroke:#A62477; stroke-opacity: 0.16862745098039217;fill:#B3DEA3; fill-opacity: 0.8784313725490196;"/>
<path d="M 421.91949400350404 353.98863523541644 L 448.459747001752 414.49431761770825 Z" style="stroke:#6AD33F; stroke-opacity: 0.8392156862745098;fill:#B02427; fill-opacity: 0.07058823529411765;"/>
<path d="M 464.0878681371148 343.3101526417539 L 443.0036810703094 348.64939393858515 Z" style="stroke:#6AD33F; stroke-opacity: 0.8392156862745098;fill:#B02427; fill-opacity: 0.07058823529411765;"/>
<path d="M 475 475 C 464.2308339863344 433.3555921417404 464.2308339863344 433.3555921417404 448.459747001752 414.49431761770825 Z" style="stroke:#23BAEC; stroke-opacity: 0.09803921568627451;fill:#0847AF; fill-opacity: 0.5058823529411764;"/>
<path d="M 421.91949400350404 353.98863523541644 C 437.48755756147835 371.1661213759587 437.48755756147835 371.1661213759587 443.0036810703094 348.64939393858515 Z" style="stroke:#23BAEC; stroke-opacity: 0.09803921568627451;fill:#0847AF; fill-opacity: 0.5058823529411764;"/>
<path d="M 475 475 L 448.459747001752 414.49431761770825 Z" style="stroke:#D9F46B; stroke-opacity: 0.3254901960784314;fill:#CF47AC; fill-opacity: 0.17647058823529413;"/>
<path d="M 421.91949400350404 353.98863523541644 L 443.0036810703094 348.64939393858515 Z" style="stroke:#D9F46B; stroke-opacity: 0.3254901960784314;fill:#CF47AC; fill-opacity: 0.17647058823529413;"/>
<path d="M 507.4387410772406 346.9023083878758 C 498.29171877632206 325.6006038532581 498.29171877632206 325.6006038532581 485.7633046071777 345.10623051481485 Z" style="stroke:#23BAEC; stroke-opacity: 0.09803921568627451;fill:#0847AF; fill-opacity: 0.5058823529411764;"/>
<path d="M 464.0878681371148 343.3101526417539 C 460.7516139046559 386.1948941029236 460.7516139046559 386.1948941029236 469.5439340685574 409.15507632087696 Z" style="stroke:#23BAEC; stroke-opacity: 0.09803921568627451;fill:#0847AF; fill-opacity: 0.5058823529411764;"/>
<path d="M 464.0878681371148 343.3101526417539 L 469.5439340685574 409.15507632087696 Z" style="stroke:#D9F46B; stroke-opacity: 0.3254901960784314;fill:#CF47AC; fill-opacity: 0.17647058823529413;"/>
<path d="M 507.4387410772406 346.9023083878758 L 485.7633046071777 345.10623051481485 Z" style="stroke:#D9F46B; stroke-opacity: 0.3254901960784314;fill:#CF47AC; fill-opacity: 0.17647058823529413;"/>
<path d="M 475 475 C 478.3362542324589 432.1152585388303 478.3362542324589 432.1152585388303 469.5439340685574 409.15507632087696 Z" style="stroke:#A62477; stroke-opacity: 0.16862745098039217;fill:#B3DEA3; fill-opacity: 0.8784313725490196;"/>
<path d="M 464.0878681371148 343.3101526417539 C 473.23489043803335 364.6118571763716 473.23489043803335 364.6118571763716 485.7633046071777 345.10623051481485 Z" style="stroke:#A62477; stroke-opacity: 0.16862745098039217;fill:#B3DEA3; fill-opacity: 0.8784313725490196;"/>
<path d="M 475 475 L 469.5439340685574 409.15507632087696 Z" style="stroke:#6AD33F; stroke-opacity: 0.8392156862745098;fill:#B02427; fill-opacity: 0.07058823529411765;"/>
<path d="M 464.0878681371148 343.3101526417539 L 485.7633046071777 345.10623051481485 Z" style="stroke:#6AD33F; stroke-opacity: 0.8392156862745098;fill:#B02427; fill-opacity: 0.07058823529411765;"/>
<path d="M 547.2743730827187 364.3758366606503 C 545.5396138358351 341.2582839482847 545.5396138358351 341.2582839482847 527.3565570799797 355.63907252426304 Z" style="stroke:#A62477; stroke-opacity: 0.16862745098039217;fill:#B3DEA3; fill-opacity: 0.8784313725490196;"/>
<path d="M 507.4387410772406 346.9023083878758 C 490.3586015120624 386.3801562893129 490.3586015120624 386.3801562893129 491.2193705386203 410.9511541939379 Z" style="stroke:#A62477; stroke-opacity: 0.16862745098039217;fill:#B3DEA3; fill-opacity: 0.8784313725490196;"/>
<path d="M 507.4387410772406 346.9023083878758 L 491.2193705386203 410.9511541939379 Z" style="stroke:#6AD33F; stroke-opacity: 0.8392156862745098;fill:#B02427; fill-opacity: 0.07058823529411765;"/>
<path d="M 547.2743730827187 364.3758366606503 L 527.3565570799797 355.63907252426304 Z" style="stroke:#6AD33F; stroke-opacity: 0.8392156862745098;fill:#B02427; fill-opacity: 0.07058823529411765;"/>
<path d="M 475 475 C 492.0801395651782 435.5221520985629 492.0801395651782 435.5221520985629 491.2193705386203 410.9511541939379 Z" style="stroke:#23BAEC; stroke-opacity: 0.09803921568627451;fill:#0847AF; fill-opacity: 0.5058823529411764;"/>
<path d="M 507.4387410772406 346.9023083878758 C 509.1735003241242 370.01986110024137 509.1735003241242 370.01986110024137 527.3565570799797 355.63907252426304 Z" style="stroke:#23BAEC; stroke-opacity: 0.09803921568627451;fill:#0847AF; fill-opacity: 0.5058823529411764;"/>
<path d="M 475 475 L 491.2193705386203 410.9511541939379 Z" style="stroke:#D9F46B; stroke-opacity: 0.3254901960784314;fill:#CF47AC; fill-opacity: 0.17647058823529413;"/>
<path d="M 507.4387410772406 346.9023083878758 L 527.3565570799797 355.63907252426304 Z" style="stroke:#D9F46B; stroke-opacity: 0.3254901960784314;fill:#CF47AC; fill-opacity: 0.17647058823529413;"/>
<path d="M 579.2779553122388 393.8372095419959 C 585.143447201353 371.4089541940562 585.143447201353 371.4089541940562 563.2761641974787 379.1065231013231 Z" style="stroke:#23BAEC; stroke-opacity: 0.09803921568627451;fill:#0847AF; fill-opacity: 0.5058823529411764;"/>
<path d="M 547.2743730827187 364.3758366606503 C 518.3012463323802 396.1687536203094 518.3012463323802 396.1687536203094 511.13718654135937 419.68791833032515 Z" style="stroke:#23BAEC; stroke-opacity: 0.09803921568627451;fill:#0847AF; fill-opacity: 0.5058823529411764;"/>
<path d="M 547.2743730827187 364.3758366606503 L 511.13718654135937 419.68791833032515 Z" style="stroke:#D9F46B; stroke-opacity: 0.3254901960784314;fill:#CF47AC; fill-opacity: 0.17647058823529413;"/>
<path d="M 579.2779553122388 393.8372095419959 L 563.2761641974787 379.1065231013231 Z" style="stroke:#D9F46B; stroke-opacity: 0.3254901960784314;fill:#CF47AC; fill-opacity: 0.17647058823529413;"/>
<path d="M 475 475 C 503.97312675033857 443.2070830403409 503.97312675033857 443.2070830403409 511.13718654135937 419.68791833032515 Z" style="stroke:#A62477; stroke-opacity: 0.16862745098039217;fill:#B3DEA3; fill-opacity: 0.8784313725490196;"/>
<path d="M 547.2743730827187 364.3758366606503 C 541.4088811936044 386.80409200859 541.4088811936044 386.80409200859 563.2761641974787 379.1065231013231 Z" style="stroke:#A62477; stroke-opacity: 0.16862745098039217;fill:#B3DEA3; fill-opacity: 0.8784313725490196;"/>
<path d="M 475 475 L 511.13718654135937 419.68791833032515 Z" style="stroke:#6AD33F; stroke-opacity: 0.8392156862745098;fill:#B02427; fill-opacity: 0.07058823529411765;"/>
<path d="M 547.2743730827187 364.3758366606503 L 563.2761641974787 379.1065231013231 Z" style="stroke:#6AD33F; stroke-opacity: 0.8392156862745098;fill:#B02427; fill-opacity: 0.07058823529411765;"/>
<path d="M 599.9814030444886 432.0938301399176 C 612.8115290109312 412.7853216335916 612.8115290109312 412.7853216335916 589.6296791783636 412.96551984095674 Z" style="stroke:#A62477; stroke-opacity: 0.16862745098039217;fill:#B3DEA3; fill-opacity: 0.8784313725490196;"/>
<path d="M 579.2779553122388 393.8372095419959 C 541.5515292245206 414.4999396893631 541.5515292245206 414.4999396893631 527.1389776561193 434.41860477099794 Z" style="stroke:#A62477; stroke-opacity: 0.16862745098039217;fill:#B3DEA3; fill-opacity: 0.8784313725490196;"/>
<path d="M 579.2779553122388 393.8372095419959 L 527.1389776561193 434.41860477099794 Z" style="stroke:#6AD33F; stroke-opacity: 0.8392156862745098;fill:#B02427; fill-opacity: 0.07058823529411765;"/>
<path d="M 599.9814030444886 432.0938301399176 L 589.6296791783636 412.96551984095674 Z" style="stroke:#6AD33F; stroke-opacity: 0.8392156862745098;fill:#B02427; fill-opacity: 0.07058823529411765;"/>
<path d="M 475 475 C 512.7264260877181 454.3372698526328 512.7264260877181 454.3372698526328 527.1389776561193 434.41860477099794 Z" style="stroke:#23BAEC; stroke-opacity: 0.09803921568627451;fill:#0847AF; fill-opacity: 0.5058823529411764;"/>
<path d="M 579.2779553122388 393.8372095419959 C 566.4478293457961 413.1457180483219 566.4478293457961 413.1457180483219 589.6296791783636 412.96551984095674 Z" style="stroke:#23BAEC; stroke-opacity: 0.09803921568627451;fill:#0847AF; fill-opacity: 0.5058823529411764;"/>
<path d="M 475 475 L 527.1389776561193 434.41860477099794 Z" style="stroke:#D9F46B; stroke-opacity: 0.3254901960784314;fill:#CF47AC; fill-opacity: 0.17647058823529413;"/>
<path d="M 579.2779553122388 393.8372095419959 L 589.6296791783636 412.96551984095674 Z" style="stroke:#D9F46B; stroke-opacity: 0.3254901960784314;fill:#CF47AC; fill-opacity: 0.17647058823529413;"/>
<path d="M 607.1411764705882 474.99999999999994 C 625.5455932859788 460.9036148343266 625.5455932859788 460.9036148343266 603.5612897575384 453.5469150699588 Z" style="stroke:#23BAEC; stroke-opacity: 0.09803921568627451;fill:#0847AF; fill-opacity: 0.5058823529411764;"/>
<path d="M 599.9814030444886 432.0938301399176 C 557.5899212718106 439.38724604823324 557.5899212718106 439.38724604823324 537.4907015222443 453.5469150699588 Z" style="stroke:#23BAEC; stroke-opacity: 0.09803921568627451;fill:#0847AF; fill-opacity: 0.5058823529411764;"/>
<path d="M 599.9814030444886 432.0938301399176 L 537.4907015222443 453.5469150699588 Z" style="stroke:#D9F46B; stroke-opacity: 0.3254901960784314;fill:#CF47AC; fill-opacity: 0.17647058823529413;"/>
<path d="M 607.1411764705882 474.99999999999994 L 603.5612897575384 453.5469150699588 Z" style="stroke:#D9F46B; stroke-opacity: 0.3254901960784314;fill:#CF47AC; fill-opacity: 0.17647058823529413;"/>
<path d="M 475 475 C 517.391481772678 467.70658409168436 517.391481772678 467.70658409168436 537.4907015222443 453.5469150699588 Z" style="stroke:#A62477; stroke-opacity: 0.16862745098039217;fill:#B3DEA3; fill-opacity: 0.8784313725490196;"/>
<path d="M 599.9814030444886 432.0938301399176 C 581.5769862290979 446.190215305591 581.5769862290979 446.190215305591 603.5612897575384 453.5469150699588 Z" style="stroke:#A62477; stroke-opacity: 0.16862745098039217;fill:#B3DEA3; fill-opacity: 0.8784313725490196;"/>
<path d="M 475 475 L 537.4907015222443 453.5469150699588 Z" style="stroke:#6AD33F; stroke-opacity: 0.8392156862745098;fill:#B02427; fill-opacity: 0.07058823529411765;"/>
<path d="M 599.9814030444886 432.0938301399176 L 603.5612897575384 453.5469150699588 Z" style="stroke:#6AD33F; stroke-opacity: 0.8392156862745098;fill:#B02427; fill-opacity: 0.07058823529411765;"/>
<path d="M 599.9814030444886 517.9061698600824 C 621.9657065729291 510.5494700957146 621.9657065729291 510.5494700957146 603.5612897575384 496.4530849300412 Z" style="stroke:#A62477; stroke-opacity: 0.16862745098039217;fill:#B3DEA3; fill-opacity: 0.8784313725490196;"/>
<path d="M 607.1411764705882 474.99999999999994 C 564.6784138346319 468.13374688659 564.6784138346319 468.13374688659 541.070588235294 475 Z" style="stroke:#A62477; stroke-opacity: 0.16862745098039217;fill:#B3DEA3; fill-opacity: 0.8784313725490196;"/>
<path d="M 607.1411764705882 474.99999999999994 L 541.070588235294 475 Z" style="stroke:#6AD33F; stroke-opacity: 0.8392156862745098;fill:#B02427; fill-opacity: 0.07058823529411765;"/>
<path d="M 599.9814030444886 517.9061698600824 L 603.5612897575384 496.4530849300412 Z" style="stroke:#6AD33F; stroke-opacity: 0.8392156862745098;fill:#B02427; fill-opacity: 0.07058823529411765;"/>
<path d="M 475 475 C 517.4627626359562 481.86625311341 517.4627626359562 481.86625311341 541.070588235294 475 Z" style="stroke:#23BAEC; stroke-opacity: 0.09803921568627451;fill:#0847AF; fill-opacity: 0.5058823529411764;"/>
<path d="M 607.1411764705882 474.99999999999994 C 585.1568729421476 482.3566997643678 585.1568729421476 482.3566997643678 603.5612897575384 496.4530849300412 Z" style="stroke:#23BAEC; stroke-opacity: 0.09803921568627451;fill:#0847AF; fill-opacity: 0.5058823529411764;"/>
<path d="M 475 475 L 541.070588235294 475 Z" style="stroke:#D9F46B; stroke-opacity: 0.3254901960784314;fill:#CF47AC; fill-opacity: 0.17647058823529413;"/>
<path d="M 607.1411764705882 474.99999999999994 L 603.5612897575384 496.4530849300412 Z" style="stroke:#D9F46B; stroke-opacity: 0.3254901960784314;fill:#CF47AC; fill-opacity: 0.17647058823529413;"/>
<path d="M 558.3843284172416 526.3079376940226 L 577.4892749469694 536.6470177205304 L 570.5247326486367 526.6954001325363 L 582.6651368800318 527.08286257105 L 563.560190350304 516.7437825445422 L 556.5956480519712 506.79216495654816 L 544.455243820577 506.4047025180354 L 525.3502972908501 496.06562249152853 L 532.3148395891819 506.0172400795217 L 520.1744353577868 505.629777641008 L 539.2793818875147 515.9688576675157 L 546.2439241858474 525.9204752555098 Z" style="stroke:#B4FD02; stroke-opacity: 0.39215686274509803;fill:#3CF402; fill-opacity: 0.8784313725490196;"/>
<path d="M 537.2066753694191 550.6027792841759 L 551.9193694023321 566.5850254339549 L 548.5634701645656 554.9112307488972 L 559.9202649597121 559.2196822136185 L 545.2075709267991 543.2374360638395 L 541.8516716890326 531.5636413787818 L 530.4948768938859 527.2551899140598 L 515.7821828609727 511.27294376428006 L 519.1380820987395 522.9467384493385 L 507.781287303593 518.6382869846171 L 522.493981336506 534.6205331343962 L 525.8498805742724 546.2943278194539 Z" style="stroke:#B4FD02; stroke-opacity: 0.39215686274509803;fill:#3CF402; fill-opacity: 0.8784313725490196;"/>
<path d="M 509.28796380930004 566.7048866408994 L 518.0140566559633 586.5983745535219 L 518.6304642333164 574.4674395631139 L 527.9729646573328 582.2299924853284 L 519.2468718106695 562.3365045727058 L 519.8632793880226 550.2055695822978 L 510.5207789640063 542.4430166600829 L 501.7946861173431 522.5495287474599 L 501.1782785399899 534.6804637378684 L 491.8357781159735 526.917910815654 L 500.5618709626368 546.8113987282765 L 499.94546338528374 558.9423337186845 Z" style="stroke:#B4FD02; stroke-opacity: 0.39215686274509803;fill:#3CF402; fill-opacity: 0.8784313725490196;"/>
<path d="M 477.6536193378676 572.869346582154 L 479.4475034390638 594.5183081630183 L 483.9694205059814 583.244807904321 L 490.2852216740952 593.620269226488 L 488.49133757289906 571.9713076456236 L 493.0132546398167 560.6978073869262 L 486.69745347170266 550.3223460647595 L 484.90356937050626 528.6733844838953 L 480.38165230358885 539.9468847425925 L 474.06585113547504 529.5714234204255 L 475.8597352366712 551.2203850012899 L 471.3378181697536 562.4938852599872 Z" style="stroke:#B4FD02; stroke-opacity: 0.39215686274509803;fill:#3CF402; fill-opacity: 0.8784313725490196;"/>
<path d="M 445.7317140360308 568.4281442218534 L 440.39899421441527 589.4865785654234 L 448.33640089192437 580.2921717178461 L 450.94108774781796 592.1561992138389 L 456.2738075694335 571.0977648702689 L 464.2112142469426 561.9033580226916 L 461.6065273910483 550.0393305267002 L 466.93924721266313 528.9808961831314 L 459.0018405351547 538.1753030307074 L 456.3971536792611 526.3112755347146 L 451.0644338576456 547.3697098782847 L 443.1270271801365 556.5641167258619 Z" style="stroke:#B4FD02; stroke-opacity: 0.39215686274509803;fill:#3CF402; fill-opacity: 0.8784313725490196;"/>
<path d="M 416.9814816626389 553.8625527480907 L 405.1000408565573 572.0484517379642 L 415.5927959695954 565.9294949493642 L 414.2041102765519 577.9964371506377 L 426.08555108263346 559.8105381607642 L 436.57830619567153 553.6915813721641 L 437.9669918887139 541.6246391708918 L 449.8484326947943 523.4387401810194 L 439.3556775817574 529.5576969696183 L 440.7443632748009 517.4907547683448 L 428.8629224687193 535.6766537582183 L 418.37016735568125 541.7956105468184 Z" style="stroke:#B4FD02; stroke-opacity: 0.39215686274509803;fill:#3CF402; fill-opacity: 0.8784313725490196;"/>
<path d="M 394.518456001168 530.7509800054866 L 377.3758326815103 544.0936193028128 L 389.2868834017082 541.7131964866323 L 384.05531080224847 552.6754129677781 L 401.19793412190614 539.3327736704518 L 413.10898484210406 536.9523508542713 L 418.34055744156495 525.9901343731253 L 435.48318076122376 512.6474950757988 L 423.5721300410247 515.0279178919795 L 428.80370264048446 504.06570141083375 L 411.6610793208268 517.40834070816 L 399.75002860062887 519.7887635243405 Z" style="stroke:#B4FD02; stroke-opacity: 0.39215686274509803;fill:#3CF402; fill-opacity: 0.8784313725490196;"/>
<path d="M 380.776854431794 501.59792351370237 L 360.23071783045094 508.6514211182372 L 372.26931699328145 510.2674880226745 L 363.7617795547689 518.9370525316467 L 384.30791615611196 511.88355492711185 L 396.34651531894247 513.4996218315491 L 404.85405275745615 504.8300573225769 L 425.40018935880033 497.776559718042 L 413.3615901959687 496.1604928136048 L 421.86912763448123 487.49092830463263 L 401.3229910331382 494.54442590916744 L 389.2843918703077 492.9283590047301 Z" style="stroke:#B4FD02; stroke-opacity: 0.39215686274509803;fill:#3CF402; fill-opacity: 0.8784313725490196;"/>
<path d="M 377.2457927074761 469.56256929990235 L 355.5226355313596 469.56256929990235 L 366.38421411941783 475 L 355.5226355313596 480.43743070009765 L 377.2457927074761 480.43743070009765 L 388.10737129553434 485.8748614001953 L 398.9689498835925 480.43743070009765 L 420.69210705970886 480.43743070009765 L 409.8305284716507 475 L 420.692107059709 469.56256929990235 L 398.9689498835925 469.56256929990235 L 388.1073712955342 464.1251385998047 Z" style="stroke:#B4FD02; stroke-opacity: 0.39215686274509803;fill:#3CF402; fill-opacity: 0.8784313725490196;"/>
<path d="M 384.3079161561119 438.11644507288815 L 363.761779554768 431.06294746835323 L 372.269316993281 439.73251197732543 L 360.2307178304501 441.3485788817627 L 380.776854431794 448.40207648629763 L 389.284391870307 457.07164099526983 L 401.3229910331378 455.45557409083256 L 421.8691276344816 462.5090716953675 L 413.3615901959687 453.8395071863953 L 425.4001893587996 452.223440281958 L 404.8540527574557 445.1699426774231 L 396.3465153189427 436.5003781684509 Z" style="stroke:#B4FD02; stroke-opacity: 0.39215686274509803;fill:#3CF402; fill-opacity: 0.8784313725490196;"/>
<path d="M 401.19793412190603 410.66722632954816 L 384.05531080224756 397.3245870322214 L 389.28688340170777 408.28680351336743 L 377.3758326815095 405.9063806971867 L 394.518456001168 419.24901999451345 L 399.7500286006282 430.21123647565946 L 411.66107932082633 432.59165929183973 L 428.8037026404847 445.934298589166 L 423.5721300410246 434.97208210802046 L 435.48318076122285 437.3525049242012 L 418.3405574415644 424.00986562687444 L 413.1089848421042 413.0476491457284 Z" style="stroke:#B4FD02; stroke-opacity: 0.39215686274509803;fill:#3CF402; fill-opacity: 0.8784313725490196;"/>
<path d="M 426.0855510826334 390.18946183923583 L 414.20411027655246 372.0035628493633 L 415.5927959695956 384.0705050506363 L 405.1000408565578 377.9515482620368 L 416.98148166263877 396.13744725190935 L 418.37016735568193 408.2043894531824 L 428.8629224687196 414.32334624178225 L 440.74436327480043 432.50924523165514 L 439.3556775817574 420.44230303038177 L 449.8484326947952 426.5612598189813 L 437.96699188871423 408.37536082910873 L 436.5783061956711 396.3084186278357 Z" style="stroke:#B4FD02; stroke-opacity: 0.39215686274509803;fill:#3CF402; fill-opacity: 0.8784313725490196;"/>
<path d="M 456.2738075694334 378.902235129731 L 450.94108774781824 357.8438007861619 L 448.3364008919245 369.7078282821543 L 440.39899421441555 360.5134214345776 L 445.7317140360307 381.5718557781467 L 443.12702718013696 393.4358832741391 L 451.0644338576458 402.6302901217159 L 456.39715367926084 423.68872446528513 L 459.0018405351547 411.82469696929263 L 466.93924721266364 421.01910381686935 L 461.6065273910485 399.96066947330024 L 464.21121424694223 388.09664197730785 Z" style="stroke:#B4FD02; stroke-opacity: 0.39215686274509803;fill:#3CF402; fill-opacity: 0.8784313725490196;"/>
<path d="M 488.491337572899 378.0286923543764 L 490.2852216740953 356.3797307735123 L 483.9694205059814 366.7551920956791 L 479.44750343906384 355.4816918369818 L 477.65361933786755 377.1306534178459 L 471.3378181697537 387.5061147400127 L 475.85973523667127 398.77961499871014 L 474.065851135475 420.4285765795744 L 480.38165230358885 410.05311525740746 L 484.90356937050643 421.32661551610477 L 486.6974534717027 399.67765393524064 L 493.0132546398166 389.3021926130738 Z" style="stroke:#B4FD02; stroke-opacity: 0.39215686274509803;fill:#3CF402; fill-opacity: 0.8784313725490196;"/>
<path d="M 519.2468718106695 387.6634954272941 L 527.9729646573328 367.7700075146712 L 518.6304642333164 375.53256043688583 L 518.0140566559633 363.40162544647757 L 509.2879638093 383.29511335910047 L 499.9454633852836 391.0576662813151 L 500.5618709626367 403.18860127172326 L 491.8357781159734 423.08208918434605 L 501.17827853998983 415.3195362621315 L 501.79468611734296 427.4504712525398 L 510.52077896400624 407.5569833399169 L 519.8632793880226 399.79443041770224 Z" style="stroke:#B4FD02; stroke-opacity: 0.39215686274509803;fill:#3CF402; fill-opacity: 0.8784313725490196;"/>
<path d="M 545.2075709267991 406.7625639361605 L 559.9202649597117 390.7803177863814 L 548.5634701645654 395.08876925110275 L 551.9193694023317 383.414974566045 L 537.206675369419 399.3972207158241 L 525.8498805742727 403.7056721805455 L 522.4939813365055 415.37946686560383 L 507.78128730359197 431.36171301538354 L 519.1380820987392 427.0532615506616 L 515.782182860973 438.7270562357194 L 530.4948768938856 422.74481008594023 L 541.851671689032 418.43635862121886 Z" style="stroke:#B4FD02; stroke-opacity: 0.39215686274509803;fill:#3CF402; fill-opacity: 0.8784313725490196;"/>
<path d="M 563.560190350304 433.2562174554578 L 582.6651368800314 422.91713742895064 L 570.5247326486365 423.304599867464 L 577.489274946969 413.3529822794702 L 558.3843284172416 423.69206230597734 L 546.2439241858467 424.0795247444907 L 539.2793818875144 434.0311423324846 L 520.1744353577873 444.37022235899184 L 532.3148395891819 443.9827599204784 L 525.3502972908494 453.93437750847215 L 544.4552438205768 443.595297481965 L 556.5956480519717 443.20783504345167 Z" style="stroke:#B4FD02; stroke-opacity: 0.39215686274509803;fill:#3CF402; fill-opacity: 0.8784313725490196;"/>
<path d="M 572.3159389964163 464.27345753497934 L 593.7428206226732 460.69794337997246 L 582.1344081312823 457.12242922496563 L 591.9528772661482 449.9714009149519 L 570.5259956398913 453.5469150699588 L 558.9175831485004 449.97140091495197 L 549.0991140136351 457.1224292249657 L 527.6722323873789 460.69794337997257 L 539.2806448787692 464.2734575349794 L 529.4621757439032 471.4244858449931 L 550.8890573701601 467.84897168998623 L 562.497469861551 471.42448584499306 Z" style="stroke:#B4FD02; stroke-opacity: 0.39215686274509803;fill:#3CF402; fill-opacity: 0.8784313725490196;"/>
<path d="M 570.5259956398913 496.4530849300412 L 591.952877266148 500.0285990850482 L 582.1344081312822 492.87757077503437 L 593.742820622673 489.30205662002754 L 572.3159389964163 485.72654246502054 L 562.4974698615505 478.5755141550067 L 550.8890573701599 482.15102831001377 L 529.4621757439035 478.575514155007 L 539.2806448787691 485.7265424650206 L 527.6722323873782 489.30205662002743 L 549.0991140136349 492.8775707750344 L 558.9175831485007 500.02859908504826 Z" style="stroke:#B4FD02; stroke-opacity: 0.39215686274509803;fill:#3CF402; fill-opacity: 0.8784313725490196;"/>
<path d="M 506.24535076112215 485.7265424650206 L 584.4538172453013 546.5986353085236 Z" style="stroke:#D9F46B; stroke-opacity: 0.3254901960784314;fill:#CF47AC; fill-opacity: 0.17647058823529413;"/>
<path d="M 594.8055411114261 527.4703250095629 L 501.06948882805966 495.290697614501 Z" style="stroke:#D9F46B; stroke-opacity: 0.3254901960784314;fill:#CF47AC; fill-opacity: 0.17647058823529413;"/>
<path d="M 553.2084664841791 535.8720928435031 L 568.7360522833665 507.1796273950618 Z" style="stroke:#D9F46B; stroke-opacity: 0.3254901960784314;fill:#CF47AC; fill-opacity: 0.17647058823529413;"/>
<path d="M 501.06948882805966 495.290697614501 L 555.2752686400988 578.2588201190132 Z" style="stroke:#D9F46B; stroke-opacity: 0.3254901960784314;fill:#CF47AC; fill-opacity: 0.17647058823529413;"/>
<path d="M 571.2770597548588 563.5281336783405 L 493.0685932706797 502.6560408348374 Z" style="stroke:#D9F46B; stroke-opacity: 0.3254901960784314;fill:#CF47AC; fill-opacity: 0.17647058823529413;"/>
<path d="M 529.2057798120392 557.9681225045122 L 553.2084664841791 535.8720928435031 Z" style="stroke:#D9F46B; stroke-opacity: 0.3254901960784314;fill:#CF47AC; fill-opacity: 0.17647058823529413;"/>
<path d="M 493.0685932706797 502.6560408348374 L 517.3976490786102 598.7293095439305 Z" style="stroke:#D9F46B; stroke-opacity: 0.3254901960784314;fill:#CF47AC; fill-opacity: 0.17647058823529413;"/>
<path d="M 537.3154650813493 589.9925454075433 L 483.10968526931015 507.02442290303105 Z" style="stroke:#D9F46B; stroke-opacity: 0.3254901960784314;fill:#CF47AC; fill-opacity: 0.17647058823529413;"/>
<path d="M 499.3290558079305 571.0732687090931 L 529.2057798120392 557.9681225045122 Z" style="stroke:#D9F46B; stroke-opacity: 0.3254901960784314;fill:#CF47AC; fill-opacity: 0.17647058823529413;"/>
<path d="M 483.10968526931015 507.02442290303105 L 474.9255863721463 605.7918084217156 Z" style="stroke:#D9F46B; stroke-opacity: 0.3254901960784314;fill:#CF47AC; fill-opacity: 0.17647058823529413;"/>
<path d="M 496.6010228422092 603.9957305486546 L 472.2719670342787 507.9224618395615 Z" style="stroke:#D9F46B; stroke-opacity: 0.3254901960784314;fill:#CF47AC; fill-opacity: 0.17647058823529413;"/>
<path d="M 466.81590110283616 573.7673855186845 L 499.3290558079305 571.0732687090931 Z" style="stroke:#D9F46B; stroke-opacity: 0.3254901960784314;fill:#CF47AC; fill-opacity: 0.17647058823529413;"/>
<path d="M 472.2719670342787 507.9224618395615 L 432.4615875369068 598.6809854129992 Z" style="stroke:#D9F46B; stroke-opacity: 0.3254901960784314;fill:#CF47AC; fill-opacity: 0.17647058823529413;"/>
<path d="M 453.5457746037122 604.0202267098304 L 461.729873500876 505.2528411911459 Z" style="stroke:#D9F46B; stroke-opacity: 0.3254901960784314;fill:#CF47AC; fill-opacity: 0.17647058823529413;"/>
<path d="M 435.1896205026281 565.7585235734377 L 466.81590110283616 573.7673855186845 Z" style="stroke:#D9F46B; stroke-opacity: 0.3254901960784314;fill:#CF47AC; fill-opacity: 0.17647058823529413;"/>
<path d="M 461.729873500876 505.2528411911459 L 394.60728574352026 578.1674085265631 Z" style="stroke:#D9F46B; stroke-opacity: 0.3254901960784314;fill:#CF47AC; fill-opacity: 0.17647058823529413;"/>
<path d="M 412.81542458350947 590.06337935191 L 452.6258040808814 499.3048557784724 Z" style="stroke:#D9F46B; stroke-opacity: 0.3254901960784314;fill:#CF47AC; fill-opacity: 0.17647058823529413;"/>
<path d="M 407.87741224264425 547.9145673354171 L 435.1896205026281 565.7585235734377 Z" style="stroke:#D9F46B; stroke-opacity: 0.3254901960784314;fill:#CF47AC; fill-opacity: 0.17647058823529413;"/>
<path d="M 452.6258040808814 499.3048557784724 L 365.46478196131125 546.4740421189937 Z" style="stroke:#D9F46B; stroke-opacity: 0.3254901960784314;fill:#CF47AC; fill-opacity: 0.17647058823529413;"/>
<path d="M 378.8237382027875 563.6376294489243 L 445.94632596014327 490.7230621135071 Z" style="stroke:#D9F46B; stroke-opacity: 0.3254901960784314;fill:#CF47AC; fill-opacity: 0.17647058823529413;"/>
<path d="M 387.83897788042987 522.1691863405213 L 407.87741224264425 547.9145673354171 Z" style="stroke:#D9F46B; stroke-opacity: 0.3254901960784314;fill:#CF47AC; fill-opacity: 0.17647058823529413;"/>
<path d="M 445.94632596014327 490.7230621135071 L 348.19211866761935 507.0353542138 Z" style="stroke:#D9F46B; stroke-opacity: 0.3254901960784314;fill:#CF47AC; fill-opacity: 0.17647058823529413;"/>
<path d="M 355.2542421162552 527.606617040619 L 442.41526423582536 480.43743070009765 Z" style="stroke:#D9F46B; stroke-opacity: 0.3254901960784314;fill:#CF47AC; fill-opacity: 0.17647058823529413;"/>
<path d="M 377.2457927074761 491.31229210029295 L 387.83897788042987 522.1691863405213 Z" style="stroke:#D9F46B; stroke-opacity: 0.3254901960784314;fill:#CF47AC; fill-opacity: 0.17647058823529413;"/>
<path d="M 442.41526423582536 480.43743070009765 L 344.66105694330145 464.1251385998047 Z" style="stroke:#D9F46B; stroke-opacity: 0.3254901960784314;fill:#CF47AC; fill-opacity: 0.17647058823529413;"/>
<path d="M 344.66105694330145 485.8748614001953 L 442.41526423582536 469.56256929990235 Z" style="stroke:#D9F46B; stroke-opacity: 0.3254901960784314;fill:#CF47AC; fill-opacity: 0.17647058823529413;"/>
<path d="M 377.2457927074761 458.68770789970705 L 377.2457927074761 491.31229210029295 Z" style="stroke:#D9F46B; stroke-opacity: 0.3254901960784314;fill:#CF47AC; fill-opacity: 0.17647058823529413;"/>
<path d="M 442.41526423582536 469.56256929990235 L 355.2542421162552 422.3933829593811 Z" style="stroke:#D9F46B; stroke-opacity: 0.3254901960784314;fill:#CF47AC; fill-opacity: 0.17647058823529413;"/>
<path d="M 348.19211866761935 442.9646457862 L 445.94632596014327 459.27693788649293 Z" style="stroke:#D9F46B; stroke-opacity: 0.3254901960784314;fill:#CF47AC; fill-opacity: 0.17647058823529413;"/>
<path d="M 387.83897788042987 427.83081365947874 L 377.2457927074761 458.68770789970705 Z" style="stroke:#D9F46B; stroke-opacity: 0.3254901960784314;fill:#CF47AC; fill-opacity: 0.17647058823529413;"/>
<path d="M 445.94632596014327 459.27693788649293 L 378.8237382027874 386.36237055107574 Z" style="stroke:#D9F46B; stroke-opacity: 0.3254901960784314;fill:#CF47AC; fill-opacity: 0.17647058823529413;"/>
<path d="M 365.46478196131125 403.5259578810064 L 452.6258040808814 450.6951442215276 Z" style="stroke:#D9F46B; stroke-opacity: 0.3254901960784314;fill:#CF47AC; fill-opacity: 0.17647058823529413;"/>
<path d="M 407.87741224264414 402.08543266458287 L 387.83897788042987 427.83081365947874 Z" style="stroke:#D9F46B; stroke-opacity: 0.3254901960784314;fill:#CF47AC; fill-opacity: 0.17647058823529413;"/>
<path d="M 452.6258040808814 450.6951442215276 L 412.8154245835094 359.93662064808996 Z" style="stroke:#D9F46B; stroke-opacity: 0.3254901960784314;fill:#CF47AC; fill-opacity: 0.17647058823529413;"/>
<path d="M 394.60728574352015 371.83259147343693 L 461.729873500876 444.7471588088541 Z" style="stroke:#D9F46B; stroke-opacity: 0.3254901960784314;fill:#CF47AC; fill-opacity: 0.17647058823529413;"/>
<path d="M 435.18962050262803 384.2414764265623 L 407.87741224264414 402.08543266458287 Z" style="stroke:#D9F46B; stroke-opacity: 0.3254901960784314;fill:#CF47AC; fill-opacity: 0.17647058823529413;"/>
<path d="M 461.729873500876 444.7471588088541 L 453.5457746037121 345.97977329016953 Z" style="stroke:#D9F46B; stroke-opacity: 0.3254901960784314;fill:#CF47AC; fill-opacity: 0.17647058823529413;"/>
<path d="M 432.46158753690673 351.3190145870008 L 472.2719670342787 442.0775381604385 Z" style="stroke:#D9F46B; stroke-opacity: 0.3254901960784314;fill:#CF47AC; fill-opacity: 0.17647058823529413;"/>
<path d="M 466.8159011028361 376.2326144813154 L 435.18962050262803 384.2414764265623 Z" style="stroke:#D9F46B; stroke-opacity: 0.3254901960784314;fill:#CF47AC; fill-opacity: 0.17647058823529413;"/>
<path d="M 472.2719670342787 442.0775381604385 L 496.60102284220915 346.0042694513453 Z" style="stroke:#D9F46B; stroke-opacity: 0.3254901960784314;fill:#CF47AC; fill-opacity: 0.17647058823529413;"/>
<path d="M 474.92558637214626 344.2081915782844 L 483.10968526931015 442.97557709696895 Z" style="stroke:#D9F46B; stroke-opacity: 0.3254901960784314;fill:#CF47AC; fill-opacity: 0.17647058823529413;"/>
<path d="M 499.32905580793044 378.92673129090684 L 466.8159011028361 376.2326144813154 Z" style="stroke:#D9F46B; stroke-opacity: 0.3254901960784314;fill:#CF47AC; fill-opacity: 0.17647058823529413;"/>
<path d="M 483.10968526931015 442.97557709696895 L 537.3154650813492 360.00745459245667 Z" style="stroke:#D9F46B; stroke-opacity: 0.3254901960784314;fill:#CF47AC; fill-opacity: 0.17647058823529413;"/>
<path d="M 517.3976490786101 351.2706904560694 L 493.0685932706797 447.3439591651626 Z" style="stroke:#D9F46B; stroke-opacity: 0.3254901960784314;fill:#CF47AC; fill-opacity: 0.17647058823529413;"/>
<path d="M 529.205779812039 392.0318774954877 L 499.32905580793044 378.92673129090684 Z" style="stroke:#D9F46B; stroke-opacity: 0.3254901960784314;fill:#CF47AC; fill-opacity: 0.17647058823529413;"/>
<path d="M 493.0685932706797 447.3439591651626 L 571.2770597548588 386.4718663216595 Z" style="stroke:#D9F46B; stroke-opacity: 0.3254901960784314;fill:#CF47AC; fill-opacity: 0.17647058823529413;"/>
<path d="M 555.2752686400987 371.7411798809867 L 501.06948882805966 454.709302385499 Z" style="stroke:#D9F46B; stroke-opacity: 0.3254901960784314;fill:#CF47AC; fill-opacity: 0.17647058823529413;"/>
<path d="M 553.2084664841791 414.1279071564969 L 529.205779812039 392.0318774954877 Z" style="stroke:#D9F46B; stroke-opacity: 0.3254901960784314;fill:#CF47AC; fill-opacity: 0.17647058823529413;"/>
<path d="M 501.06948882805966 454.709302385499 L 594.8055411114261 422.5296749904372 Z" style="stroke:#D9F46B; stroke-opacity: 0.3254901960784314;fill:#CF47AC; fill-opacity: 0.17647058823529413;"/>
<path d="M 584.4538172453013 403.4013646914763 L 506.24535076112215 464.2734575349794 Z" style="stroke:#D9F46B; stroke-opacity: 0.3254901960784314;fill:#CF47AC; fill-opacity: 0.17647058823529413;"/>
<path d="M 568.7360522833665 442.8203726049382 L 553.2084664841791 414.1279071564969 Z" style="stroke:#D9F46B; stroke-opacity: 0.3254901960784314;fill:#CF47AC; fill-opacity: 0.17647058823529413;"/>
<path d="M 506.24535076112215 464.2734575349794 L 605.3512331140633 464.27345753497934 Z" style="stroke:#D9F46B; stroke-opacity: 0.3254901960784314;fill:#CF47AC; fill-opacity: 0.17647058823529413;"/>
<path d="M 601.7713464010135 442.8203726049382 L 508.035294117647 475 Z" style="stroke:#D9F46B; stroke-opacity: 0.3254901960784314;fill:#CF47AC; fill-opacity: 0.17647058823529413;"/>
<path d="M 574.1058823529412 474.99999999999994 L 568.7360522833665 442.8203726049382 Z" style="stroke:#D9F46B; stroke-opacity: 0.3254901960784314;fill:#CF47AC; fill-opacity: 0.17647058823529413;"/>
<path d="M 508.035294117647 475 L 601.7713464010135 507.1796273950618 Z" style="stroke:#D9F46B; stroke-opacity: 0.3254901960784314;fill:#CF47AC; fill-opacity: 0.17647058823529413;"/>
<path d="M 605.3512331140633 485.72654246502054 L 506.24535076112215 485.7265424650206 Z" style="stroke:#D9F46B; stroke-opacity: 0.3254901960784314;fill:#CF47AC; fill-opacity: 0.17647058823529413;"/>
<path d="M 568.7360522833665 507.1796273950618 L 574.1058823529412 474.99999999999994 Z" style="stroke:#D9F46B; stroke-opacity: 0.3254901960784314;fill:#CF47AC; fill-opacity: 0.17647058823529413;"/>
<path d="M 683 474.99999999999994 Z" style="stroke:#6AD33F; stroke-opacity: 0.8392156862745098;fill:#B02427; fill-opacity: 0.07058823529411765;"/>
<circle cx="475" cy="475" r="208" style="stroke:#6AD33F; stroke-opacity: 0.8392156862745098;fill:#B02427; fill-opacity: 0.07058823529411765;"/>
<path d="M 815.1411764705882 474.9999999999999 Z" style="stroke:#6AD33F; stroke-opacity: 0.8392156862745098;fill:#B02427; fill-opacity: 0.07058823529411765;"/>
<circle cx="607.1411764705882" cy="474.99999999999994" r="208" style="stroke:#6AD33F; stroke-opacity: 0.8392156862745098;fill:#B02427; fill-opacity: 0.07058823529411765;"/>
<path d="M 807.9814030444886 432.09383013991754 Z" style="stroke:#6AD33F; stroke-opacity: 0.8392156862745098;fill:#B02427; fill-opacity: 0.07058823529411765;"/>
<circle cx="599.9814030444886" cy="432.0938301399176" r="208" style="stroke:#6AD33F; stroke-opacity: 0.8392156862745098;fill:#B02427; fill-opacity: 0.07058823529411765;"/>
<path d="M 787.2779553122388 393.83720954199583 Z" style="stroke:#6AD33F; stroke-opacity: 0.8392156862745098;fill:#B02427; fill-opacity: 0.07058823529411765;"/>
<circle cx="579.2779553122388" cy="393.8372095419959" r="208" style="stroke:#6AD33F; stroke-opacity: 0.8392156862745098;fill:#B02427; fill-opacity: 0.07058823529411765;"/>
<path d="M 755.2743730827187 364.37583666065024 Z" style="stroke:#6AD33F; stroke-opacity: 0.8392156862745098;fill:#B02427; fill-opacity: 0.07058823529411765;"/>
<circle cx="547.2743730827187" cy="364.3758366606503" r="208" style="stroke:#6AD33F; stroke-opacity: 0.8392156862745098;fill:#B02427; fill-opacity: 0.07058823529411765;"/>
<path d="M 715.4387410772406 346.90230838787573 Z" style="stroke:#6AD33F; stroke-opacity: 0.8392156862745098;fill:#B02427; fill-opacity: 0.07058823529411765;"/>
<circle cx="507.4387410772406" cy="346.9023083878758" r="208" style="stroke:#6AD33F; stroke-opacity: 0.8392156862745098;fill:#B02427; fill-opacity: 0.07058823529411765;"/>
<path d="M 672.0878681371148 343.31015264175386 Z" style="stroke:#6AD33F; stroke-opacity: 0.8392156862745098;fill:#B02427; fill-opacity: 0.07058823529411765;"/>
<circle cx="464.0878681371148" cy="343.3101526417539" r="208" style="stroke:#6AD33F; stroke-opacity: 0.8392156862745098;fill:#B02427; fill-opacity: 0.07058823529411765;"/>
<path d="M 629.919494003504 353.9886352354164 Z" style="stroke:#6AD33F; stroke-opacity: 0.8392156862745098;fill:#B02427; fill-opacity: 0.07058823529411765;"/>
<circle cx="421.91949400350404" cy="353.98863523541644" r="208" style="stroke:#6AD33F; stroke-opacity: 0.8392156862745098;fill:#B02427; fill-opacity: 0.07058823529411765;"/>
<path d="M 593.5032163235255 377.7805768861104 Z" style="stroke:#6AD33F; stroke-opacity: 0.8392156862745098;fill:#B02427; fill-opacity: 0.07058823529411765;"/>
<circle cx="385.5032163235255" cy="377.78057688611045" r="208" style="stroke:#6AD33F; stroke-opacity: 0.8392156862745098;fill:#B02427; fill-opacity: 0.07058823529411765;"/>
<path d="M 566.7853038405731 412.1077515459716 Z" style="stroke:#6AD33F; stroke-opacity: 0.8392156862745098;fill:#B02427; fill-opacity: 0.07058823529411765;"/>
<circle cx="358.78530384057314" cy="412.10775154597167" r="208" style="stroke:#6AD33F; stroke-opacity: 0.8392156862745098;fill:#B02427; fill-opacity: 0.07058823529411765;"/>
<path d="M 552.6610569433014 453.25027719960934 Z" style="stroke:#6AD33F; stroke-opacity: 0.8392156862745098;fill:#B02427; fill-opacity: 0.07058823529411765;"/>
<circle cx="344.66105694330145" cy="453.2502771996094" r="208" style="stroke:#6AD33F; stroke-opacity: 0.8392156862745098;fill:#B02427; fill-opacity: 0.07058823529411765;"/>
<path d="M 552.6610569433014 496.74972280039054 Z" style="stroke:#6AD33F; stroke-opacity: 0.8392156862745098;fill:#B02427; fill-opacity: 0.07058823529411765;"/>
<circle cx="344.66105694330145" cy="496.7497228003906" r="208" style="stroke:#6AD33F; stroke-opacity: 0.8392156862745098;fill:#B02427; fill-opacity: 0.07058823529411765;"/>
<path d="M 566.7853038405731 537.8922484540284 Z" style="stroke:#6AD33F; stroke-opacity: 0.8392156862745098;fill:#B02427; fill-opacity: 0.07058823529411765;"/>
<circle cx="358.78530384057314" cy="537.8922484540284" r="208" style="stroke:#6AD33F; stroke-opacity: 0.8392156862745098;fill:#B02427; fill-opacity: 0.07058823529411765;"/>
<path d="M 593.5032163235256 572.2194231138895 Z" style="stroke:#6AD33F; stroke-opacity: 0.8392156862745098;fill:#B02427; fill-opacity: 0.07058823529411765;"/>
<circle cx="385.50321632352563" cy="572.2194231138895" r="208" style="stroke:#6AD33F; stroke-opacity: 0.8392156862745098;fill:#B02427; fill-opacity: 0.07058823529411765;"/>
<path d="M 629.919494003504 596.0113647645836 Z" style="stroke:#6AD33F; stroke-opacity: 0.8392156862745098;fill:#B02427; fill-opacity: 0.07058823529411765;"/>
<circle cx="421.9194940035041" cy="596.0113647645836" r="208" style="stroke:#6AD33F; stroke-opacity: 0.8392156862745098;fill:#B02427; fill-opacity: 0.07058823529411765;"/>
<path d="M 672.0878681371148 606.689847358246 Z" style="stroke:#6AD33F; stroke-opacity: 0.8392156862745098;fill:#B02427; fill-opacity: 0.07058823529411765;"/>
<circle cx="464.08786813711487" cy="606.689847358246" r="208" style="stroke:#6AD33F; stroke-opacity: 0.8392156862745098;fill:#B02427; fill-opacity: 0.07058823529411765;"/>
<path d="M 715.4387410772406 603.0976916121242 Z" style="stroke:#6AD33F; stroke-opacity: 0.8392156862745098;fill:#B02427; fill-opacity: 0.07058823529411765;"/>
<circle cx="507.43874107724065" cy="603.0976916121242" r="208" style="stroke:#6AD33F; stroke-opacity: 0.8392156862745098;fill:#B02427; fill-opacity: 0.07058823529411765;"/>
<path d="M 755.2743730827189 585.6241633393496 Z" style="stroke:#6AD33F; stroke-opacity: 0.8392156862745098;fill:#B02427; fill-opacity: 0.07058823529411765;"/>
<circle cx="547.2743730827189" cy="585.6241633393496" r="208" style="stroke:#6AD33F; stroke-opacity: 0.8392156862745098;fill:#B02427; fill-opacity: 0.07058823529411765;"/>
<path d="M 787.2779553122388 556.1627904580041 Z" style="stroke:#6AD33F; stroke-opacity: 0.8392156862745098;fill:#B02427; fill-opacity: 0.07058823529411765;"/>
<circle cx="579.2779553122388" cy="556.1627904580041" r="208" style="stroke:#6AD33F; stroke-opacity: 0.8392156862745098;fill:#B02427; fill-opacity: 0.07058823529411765;"/>
<path d="M 807.9814030444886 517.9061698600824 Z" style="stroke:#6AD33F; stroke-opacity: 0.8392156862745098;fill:#B02427; fill-opacity: 0.07058823529411765;"/>
<circle cx="599.9814030444886" cy="517.9061698600824" r="208" style="stroke:#6AD33F; stroke-opacity: 0.8392156862745098;fill:#B02427; fill-opacity: 0.07058823529411765;"/>
</g>
</svg>