<?xml version="1.0"?><!DOCTYPE svg PUBLIC "-//W3C//DTD SVG 1.1//EN" "http://www.w3.org/Graphics/SVG/1.1/DTD/svg11.dtd"><svg xmlns="http://www.w3.org/2000/svg" width="950" height="950">
<title>PatternSix</title>
<desc>
Generated using the following configuration:

@implementation NewPattern : PatternSix
+ (CPDict) defaultConfig
{
 return [CPDictionary dictionaryWithObjectsAndKeys:[[GRColor alloc] initWithGradientColors:[] baseColor:[CPColor colorWith8BitRed:132 green:132 blue:132 alpha:1]], "background_color", 0, "background_color_direction", 50, "number_of_points", 0, "rotation", 0, "recurse_depth", 0.88, "factor_larger", [GRPoint pointWithX:475 Y:475], "center_point", 181, "radius", YES, "show_shapes", [[CPColor colorWith8BitRed:0 green:221 blue:88 alpha:1],[CPColor colorWith8BitRed:37 green:15 blue:255 alpha:0.7727272727272727],[CPColor colorWith8BitRed:0 green:255 blue:0 alpha:1],[CPColor colorWith8BitRed:2 green:13 blue:2 alpha:0.20909090909090908],[CPColor colorWith8BitRed:146 green:26 blue:255 alpha:0.9363636363636364],[CPColor colorWith8BitRed:0 green:0 blue:0 alpha:0]], "stroke_colors", [[CPColor colorWith8BitRed:51 green:32 blue:255 alpha:0],[CPColor colorWith8BitRed:198 green:157 blue:165 alpha:0],[CPColor colorWith8BitRed:200 green:23 blue:10 alpha:0.02727272727272727],[CPColor colorWith8BitRed:201 green:8 blue:37 alpha:0.39545454545454545],[CPColor colorWith8BitRed:23 green:200 blue:10 alpha:0.4],[CPColor colorWith8BitRed:200 green:23 blue:10 alpha:0]], "fill_colors"];
}
@end

</desc>
  <defs>
    <linearGradient id="grad1" x1="0%" y1="0%" x2="100%" y2="0%">
<stop offset="100%" style="stop-color:#848484;stop-opacity:1;" />
    </linearGradient>
  </defs>
<rect id="background" width="100%" height="100%" fill="url(#grad1)"/>
<g id="rotatelayer" transform="rotate(0, 475, 475)">
<path d="M 656 474.99999999999994 Z" style="stroke:#00DD58; stroke-opacity: 1;fill:#3320FF; fill-opacity: 0;"/>
<circle cx="475" cy="475" r="181" style="stroke:#00DD58; stroke-opacity: 1;fill:#3320FF; fill-opacity: 0;"/>
<path d="M 815.28 475.00000000000006 Z" style="stroke:#00FF00; stroke-opacity: 1;fill:#C8170A; fill-opacity: 0.02727272727272727;"/>
<circle cx="634.28" cy="475.0000000000001" r="181" style="stroke:#00FF00; stroke-opacity: 1;fill:#C8170A; fill-opacity: 0.02727272727272727;"/>
<path d="M 814.0240296253701 455.03692255787763 Z" style="stroke:#250FFF; stroke-opacity: 0.7727272727272727;fill:#C69DA5; fill-opacity: 0;"/>
<circle cx="633.0240296253701" cy="455.0369225578777" r="181" style="stroke:#250FFF; stroke-opacity: 0.7727272727272727;fill:#C69DA5; fill-opacity: 0;"/>
<path d="M 810.2759259045683 435.3886747723819 Z" style="stroke:#00FF00; stroke-opacity: 1;fill:#C8170A; fill-opacity: 0.02727272727272727;"/>
<circle cx="629.2759259045683" cy="435.38867477238193" r="181" style="stroke:#00FF00; stroke-opacity: 1;fill:#C8170A; fill-opacity: 0.02727272727272727;"/>
<path d="M 804.0947986722807 416.36512124838447 Z" style="stroke:#250FFF; stroke-opacity: 0.7727272727272727;fill:#C69DA5; fill-opacity: 0;"/>
<circle cx="623.0947986722807" cy="416.3651212483845" r="181" style="stroke:#250FFF; stroke-opacity: 0.7727272727272727;fill:#C69DA5; fill-opacity: 0;"/>
<path d="M 795.5781279973867 398.2662747890787 Z" style="stroke:#00FF00; stroke-opacity: 1;fill:#C8170A; fill-opacity: 0.02727272727272727;"/>
<circle cx="614.5781279973867" cy="398.26627478907875" r="181" style="stroke:#00FF00; stroke-opacity: 1;fill:#C8170A; fill-opacity: 0.02727272727272727;"/>
<path d="M 784.8602268640418 381.37756501485495 Z" style="stroke:#250FFF; stroke-opacity: 0.7727272727272727;fill:#C69DA5; fill-opacity: 0;"/>
<circle cx="603.8602268640418" cy="381.377565014855" r="181" style="stroke:#250FFF; stroke-opacity: 0.7727272727272727;fill:#C69DA5; fill-opacity: 0;"/>
<path d="M 772.1101229756824 365.96533696767847 Z" style="stroke:#00FF00; stroke-opacity: 1;fill:#C8170A; fill-opacity: 0.02727272727272727;"/>
<circle cx="591.1101229756824" cy="365.9653369676785" r="181" style="stroke:#00FF00; stroke-opacity: 1;fill:#C8170A; fill-opacity: 0.02727272727272727;"/>
<path d="M 757.5288930871714 352.27265069067226 Z" style="stroke:#250FFF; stroke-opacity: 0.7727272727272727;fill:#C69DA5; fill-opacity: 0;"/>
<circle cx="576.5288930871714" cy="352.2726506906723" r="181" style="stroke:#250FFF; stroke-opacity: 0.7727272727272727;fill:#C69DA5; fill-opacity: 0;"/>
<path d="M 741.3464919042545 340.515448026039 Z" style="stroke:#00FF00; stroke-opacity: 1;fill:#C8170A; fill-opacity: 0.02727272727272727;"/>
<circle cx="560.3464919042545" cy="340.51544802603905" r="181" style="stroke:#00FF00; stroke-opacity: 1;fill:#C8170A; fill-opacity: 0.02727272727272727;"/>
<path d="M 723.8181255604848 330.87914708321233 Z" style="stroke:#250FFF; stroke-opacity: 0.7727272727272727;fill:#C69DA5; fill-opacity: 0;"/>
<circle cx="542.8181255604848" cy="330.8791470832124" r="181" style="stroke:#250FFF; stroke-opacity: 0.7727272727272727;fill:#C69DA5; fill-opacity: 0;"/>
<path d="M 705.2202268640416 323.5157180845079 Z" style="stroke:#00FF00; stroke-opacity: 1;fill:#C8170A; fill-opacity: 0.02727272727272727;"/>
<circle cx="524.2202268640416" cy="323.51571808450797" r="181" style="stroke:#00FF00; stroke-opacity: 1;fill:#C8170A; fill-opacity: 0.02727272727272727;"/>
<path d="M 685.8460957872143 318.5412867039344 Z" style="stroke:#250FFF; stroke-opacity: 0.7727272727272727;fill:#C69DA5; fill-opacity: 0;"/>
<circle cx="504.84609578721427" cy="318.5412867039345" r="181" style="stroke:#250FFF; stroke-opacity: 0.7727272727272727;fill:#C69DA5; fill-opacity: 0;"/>
<path d="M 666.0012739506291 316.0343026959448 Z" style="stroke:#00FF00; stroke-opacity: 1;fill:#C8170A; fill-opacity: 0.02727272727272727;"/>
<circle cx="485.00127395062907" cy="316.03430269594486" r="181" style="stroke:#00FF00; stroke-opacity: 1;fill:#C8170A; fill-opacity: 0.02727272727272727;"/>
<path d="M 645.998726049371 316.0343026959448 Z" style="stroke:#250FFF; stroke-opacity: 0.7727272727272727;fill:#C69DA5; fill-opacity: 0;"/>
<circle cx="464.998726049371" cy="316.03430269594486" r="181" style="stroke:#250FFF; stroke-opacity: 0.7727272727272727;fill:#C69DA5; fill-opacity: 0;"/>
<path d="M 626.1539042127858 318.5412867039344 Z" style="stroke:#00FF00; stroke-opacity: 1;fill:#C8170A; fill-opacity: 0.02727272727272727;"/>
<circle cx="445.1539042127858" cy="318.5412867039345" r="181" style="stroke:#00FF00; stroke-opacity: 1;fill:#C8170A; fill-opacity: 0.02727272727272727;"/>
<path d="M 606.7797731359583 323.5157180845079 Z" style="stroke:#250FFF; stroke-opacity: 0.7727272727272727;fill:#C69DA5; fill-opacity: 0;"/>
<circle cx="425.77977313595835" cy="323.51571808450797" r="181" style="stroke:#250FFF; stroke-opacity: 0.7727272727272727;fill:#C69DA5; fill-opacity: 0;"/>
<path d="M 588.1818744395152 330.87914708321233 Z" style="stroke:#00FF00; stroke-opacity: 1;fill:#C8170A; fill-opacity: 0.02727272727272727;"/>
<circle cx="407.1818744395153" cy="330.8791470832124" r="181" style="stroke:#00FF00; stroke-opacity: 1;fill:#C8170A; fill-opacity: 0.02727272727272727;"/>
<path d="M 570.6535080957455 340.51544802603894 Z" style="stroke:#250FFF; stroke-opacity: 0.7727272727272727;fill:#C69DA5; fill-opacity: 0;"/>
<circle cx="389.65350809574545" cy="340.515448026039" r="181" style="stroke:#250FFF; stroke-opacity: 0.7727272727272727;fill:#C69DA5; fill-opacity: 0;"/>
<path d="M 554.4711069128288 352.27265069067226 Z" style="stroke:#00FF00; stroke-opacity: 1;fill:#C8170A; fill-opacity: 0.02727272727272727;"/>
<circle cx="373.47110691282876" cy="352.2726506906723" r="181" style="stroke:#00FF00; stroke-opacity: 1;fill:#C8170A; fill-opacity: 0.02727272727272727;"/>
<path d="M 539.8898770243176 365.9653369676784 Z" style="stroke:#250FFF; stroke-opacity: 0.7727272727272727;fill:#C69DA5; fill-opacity: 0;"/>
<circle cx="358.88987702431757" cy="365.96533696767847" r="181" style="stroke:#250FFF; stroke-opacity: 0.7727272727272727;fill:#C69DA5; fill-opacity: 0;"/>
<path d="M 527.1397731359584 381.3775650148548 Z" style="stroke:#00FF00; stroke-opacity: 1;fill:#C8170A; fill-opacity: 0.02727272727272727;"/>
<circle cx="346.1397731359584" cy="381.37756501485484" r="181" style="stroke:#00FF00; stroke-opacity: 1;fill:#C8170A; fill-opacity: 0.02727272727272727;"/>
<path d="M 516.4218720026134 398.2662747890787 Z" style="stroke:#250FFF; stroke-opacity: 0.7727272727272727;fill:#C69DA5; fill-opacity: 0;"/>
<circle cx="335.42187200261344" cy="398.26627478907875" r="181" style="stroke:#250FFF; stroke-opacity: 0.7727272727272727;fill:#C69DA5; fill-opacity: 0;"/>
<path d="M 507.9052013277194 416.36512124838436 Z" style="stroke:#00FF00; stroke-opacity: 1;fill:#C8170A; fill-opacity: 0.02727272727272727;"/>
<circle cx="326.9052013277194" cy="416.3651212483844" r="181" style="stroke:#00FF00; stroke-opacity: 1;fill:#C8170A; fill-opacity: 0.02727272727272727;"/>
<path d="M 501.72407409543166 435.3886747723819 Z" style="stroke:#250FFF; stroke-opacity: 0.7727272727272727;fill:#C69DA5; fill-opacity: 0;"/>
<circle cx="320.72407409543166" cy="435.38867477238193" r="181" style="stroke:#250FFF; stroke-opacity: 0.7727272727272727;fill:#C69DA5; fill-opacity: 0;"/>
<path d="M 497.9759703746299 455.0369225578775 Z" style="stroke:#00FF00; stroke-opacity: 1;fill:#C8170A; fill-opacity: 0.02727272727272727;"/>
<circle cx="316.9759703746299" cy="455.0369225578776" r="181" style="stroke:#00FF00; stroke-opacity: 1;fill:#C8170A; fill-opacity: 0.02727272727272727;"/>
<path d="M 496.72 474.9999999999999 Z" style="stroke:#250FFF; stroke-opacity: 0.7727272727272727;fill:#C69DA5; fill-opacity: 0;"/>
<circle cx="315.72" cy="474.99999999999994" r="181" style="stroke:#250FFF; stroke-opacity: 0.7727272727272727;fill:#C69DA5; fill-opacity: 0;"/>
<path d="M 497.9759703746299 494.9630774421223 Z" style="stroke:#00FF00; stroke-opacity: 1;fill:#C8170A; fill-opacity: 0.02727272727272727;"/>
<circle cx="316.9759703746299" cy="494.96307744212237" r="181" style="stroke:#00FF00; stroke-opacity: 1;fill:#C8170A; fill-opacity: 0.02727272727272727;"/>
<path d="M 501.72407409543166 514.6113252276181 Z" style="stroke:#250FFF; stroke-opacity: 0.7727272727272727;fill:#C69DA5; fill-opacity: 0;"/>
<circle cx="320.72407409543166" cy="514.6113252276181" r="181" style="stroke:#250FFF; stroke-opacity: 0.7727272727272727;fill:#C69DA5; fill-opacity: 0;"/>
<path d="M 507.9052013277193 533.6348787516155 Z" style="stroke:#00FF00; stroke-opacity: 1;fill:#C8170A; fill-opacity: 0.02727272727272727;"/>
<circle cx="326.9052013277193" cy="533.6348787516155" r="181" style="stroke:#00FF00; stroke-opacity: 1;fill:#C8170A; fill-opacity: 0.02727272727272727;"/>
<path d="M 516.4218720026133 551.7337252109212 Z" style="stroke:#250FFF; stroke-opacity: 0.7727272727272727;fill:#C69DA5; fill-opacity: 0;"/>
<circle cx="335.4218720026134" cy="551.7337252109212" r="181" style="stroke:#250FFF; stroke-opacity: 0.7727272727272727;fill:#C69DA5; fill-opacity: 0;"/>
<path d="M 527.1397731359584 568.6224349851451 Z" style="stroke:#00FF00; stroke-opacity: 1;fill:#C8170A; fill-opacity: 0.02727272727272727;"/>
<circle cx="346.1397731359584" cy="568.6224349851451" r="181" style="stroke:#00FF00; stroke-opacity: 1;fill:#C8170A; fill-opacity: 0.02727272727272727;"/>
<path d="M 539.8898770243176 584.0346630323215 Z" style="stroke:#250FFF; stroke-opacity: 0.7727272727272727;fill:#C69DA5; fill-opacity: 0;"/>
<circle cx="358.88987702431757" cy="584.0346630323215" r="181" style="stroke:#250FFF; stroke-opacity: 0.7727272727272727;fill:#C69DA5; fill-opacity: 0;"/>
<path d="M 554.4711069128288 597.7273493093277 Z" style="stroke:#00FF00; stroke-opacity: 1;fill:#C8170A; fill-opacity: 0.02727272727272727;"/>
<circle cx="373.47110691282876" cy="597.7273493093277" r="181" style="stroke:#00FF00; stroke-opacity: 1;fill:#C8170A; fill-opacity: 0.02727272727272727;"/>
<path d="M 570.6535080957455 609.484551973961 Z" style="stroke:#250FFF; stroke-opacity: 0.7727272727272727;fill:#C69DA5; fill-opacity: 0;"/>
<circle cx="389.65350809574545" cy="609.484551973961" r="181" style="stroke:#250FFF; stroke-opacity: 0.7727272727272727;fill:#C69DA5; fill-opacity: 0;"/>
<path d="M 588.1818744395152 619.1208529167876 Z" style="stroke:#00FF00; stroke-opacity: 1;fill:#C8170A; fill-opacity: 0.02727272727272727;"/>
<circle cx="407.18187443951524" cy="619.1208529167876" r="181" style="stroke:#00FF00; stroke-opacity: 1;fill:#C8170A; fill-opacity: 0.02727272727272727;"/>
<path d="M 606.7797731359583 626.484281915492 Z" style="stroke:#250FFF; stroke-opacity: 0.7727272727272727;fill:#C69DA5; fill-opacity: 0;"/>
<circle cx="425.77977313595835" cy="626.484281915492" r="181" style="stroke:#250FFF; stroke-opacity: 0.7727272727272727;fill:#C69DA5; fill-opacity: 0;"/>
<path d="M 626.1539042127857 631.4587132960655 Z" style="stroke:#00FF00; stroke-opacity: 1;fill:#C8170A; fill-opacity: 0.02727272727272727;"/>
<circle cx="445.15390421278573" cy="631.4587132960655" r="181" style="stroke:#00FF00; stroke-opacity: 1;fill:#C8170A; fill-opacity: 0.02727272727272727;"/>
<path d="M 645.998726049371 633.9656973040551 Z" style="stroke:#250FFF; stroke-opacity: 0.7727272727272727;fill:#C69DA5; fill-opacity: 0;"/>
<circle cx="464.998726049371" cy="633.9656973040551" r="181" style="stroke:#250FFF; stroke-opacity: 0.7727272727272727;fill:#C69DA5; fill-opacity: 0;"/>
<path d="M 666.001273950629 633.9656973040551 Z" style="stroke:#00FF00; stroke-opacity: 1;fill:#C8170A; fill-opacity: 0.02727272727272727;"/>
<circle cx="485.001273950629" cy="633.9656973040551" r="181" style="stroke:#00FF00; stroke-opacity: 1;fill:#C8170A; fill-opacity: 0.02727272727272727;"/>
<path d="M 685.8460957872142 631.4587132960655 Z" style="stroke:#250FFF; stroke-opacity: 0.7727272727272727;fill:#C69DA5; fill-opacity: 0;"/>
<circle cx="504.8460957872142" cy="631.4587132960655" r="181" style="stroke:#250FFF; stroke-opacity: 0.7727272727272727;fill:#C69DA5; fill-opacity: 0;"/>
<path d="M 705.2202268640417 626.484281915492 Z" style="stroke:#00FF00; stroke-opacity: 1;fill:#C8170A; fill-opacity: 0.02727272727272727;"/>
<circle cx="524.2202268640417" cy="626.484281915492" r="181" style="stroke:#00FF00; stroke-opacity: 1;fill:#C8170A; fill-opacity: 0.02727272727272727;"/>
<path d="M 723.8181255604848 619.1208529167876 Z" style="stroke:#250FFF; stroke-opacity: 0.7727272727272727;fill:#C69DA5; fill-opacity: 0;"/>
<circle cx="542.8181255604848" cy="619.1208529167876" r="181" style="stroke:#250FFF; stroke-opacity: 0.7727272727272727;fill:#C69DA5; fill-opacity: 0;"/>
<path d="M 741.3464919042545 609.484551973961 Z" style="stroke:#00FF00; stroke-opacity: 1;fill:#C8170A; fill-opacity: 0.02727272727272727;"/>
<circle cx="560.3464919042545" cy="609.484551973961" r="181" style="stroke:#00FF00; stroke-opacity: 1;fill:#C8170A; fill-opacity: 0.02727272727272727;"/>
<path d="M 757.5288930871712 597.7273493093277 Z" style="stroke:#250FFF; stroke-opacity: 0.7727272727272727;fill:#C69DA5; fill-opacity: 0;"/>
<circle cx="576.5288930871712" cy="597.7273493093277" r="181" style="stroke:#250FFF; stroke-opacity: 0.7727272727272727;fill:#C69DA5; fill-opacity: 0;"/>
<path d="M 772.1101229756824 584.0346630323215 Z" style="stroke:#00FF00; stroke-opacity: 1;fill:#C8170A; fill-opacity: 0.02727272727272727;"/>
<circle cx="591.1101229756824" cy="584.0346630323215" r="181" style="stroke:#00FF00; stroke-opacity: 1;fill:#C8170A; fill-opacity: 0.02727272727272727;"/>
<path d="M 784.8602268640417 568.6224349851451 Z" style="stroke:#250FFF; stroke-opacity: 0.7727272727272727;fill:#C69DA5; fill-opacity: 0;"/>
<circle cx="603.8602268640417" cy="568.6224349851451" r="181" style="stroke:#250FFF; stroke-opacity: 0.7727272727272727;fill:#C69DA5; fill-opacity: 0;"/>
<path d="M 795.5781279973867 551.7337252109212 Z" style="stroke:#00FF00; stroke-opacity: 1;fill:#C8170A; fill-opacity: 0.02727272727272727;"/>
<circle cx="614.5781279973867" cy="551.7337252109212" r="181" style="stroke:#00FF00; stroke-opacity: 1;fill:#C8170A; fill-opacity: 0.02727272727272727;"/>
<path d="M 804.0947986722807 533.6348787516155 Z" style="stroke:#250FFF; stroke-opacity: 0.7727272727272727;fill:#C69DA5; fill-opacity: 0;"/>
<circle cx="623.0947986722807" cy="533.6348787516155" r="181" style="stroke:#250FFF; stroke-opacity: 0.7727272727272727;fill:#C69DA5; fill-opacity: 0;"/>
<path d="M 810.2759259045683 514.6113252276181 Z" style="stroke:#00FF00; stroke-opacity: 1;fill:#C8170A; fill-opacity: 0.02727272727272727;"/>
<circle cx="629.2759259045683" cy="514.6113252276181" r="181" style="stroke:#00FF00; stroke-opacity: 1;fill:#C8170A; fill-opacity: 0.02727272727272727;"/>
<path d="M 814.0240296253701 494.96307744212237 Z" style="stroke:#250FFF; stroke-opacity: 0.7727272727272727;fill:#C69DA5; fill-opacity: 0;"/>
<circle cx="633.0240296253701" cy="494.9630774421224" r="181" style="stroke:#250FFF; stroke-opacity: 0.7727272727272727;fill:#C69DA5; fill-opacity: 0;"/>
<path d="M 633.0240296253701 494.9630774421224 L 809.3200019034805 496.0336316759973 L 810.2551665366509 517.3525768094217 L 804.0475757603739 537.769182091578 Z" style="stroke:#020D02; stroke-opacity: 0.20909090909090908;fill:#C90825; fill-opacity: 0.39545454545454545;"/>
<path d="M 629.2759259045683 514.6113252276181 L 804.0475757603739 537.769182091578 L 802.3033940113397 559.0372281823558 L 793.5858727840324 578.5148250090831 Z" style="stroke:#020D02; stroke-opacity: 0.20909090909090908;fill:#C90825; fill-opacity: 0.39545454545454545;"/>
<path d="M 623.0947986722807 533.6348787516155 L 793.5858727840324 578.5148250090832 L 789.1898514408994 599.3965622654466 L 778.0998802799111 617.6279772994355 Z" style="stroke:#020D02; stroke-opacity: 0.20909090909090908;fill:#C90825; fill-opacity: 0.39545454545454545;"/>
<path d="M 614.5781279973867 551.7337252109212 L 778.0998802799111 617.6279772994355 L 771.1213472253162 637.794088250708 L 757.8338216006835 654.4918011859526 Z" style="stroke:#020D02; stroke-opacity: 0.20909090909090908;fill:#C90825; fill-opacity: 0.39545454545454545;"/>
<path d="M 603.8602268640417 568.6224349851451 L 757.8338216006835 654.4918011859527 L 748.382832469671 673.6242542157812 L 733.1073045980775 688.5249321445625 Z" style="stroke:#020D02; stroke-opacity: 0.20909090909090908;fill:#C90825; fill-opacity: 0.39545454545454545;"/>
<path d="M 591.1101229756824 584.0346630323215 L 733.1073045980773 688.5249321445625 L 721.3329071349913 706.3219970394932 L 704.31028121613 719.1906473696405 Z" style="stroke:#020D02; stroke-opacity: 0.20909090909090908;fill:#C90825; fill-opacity: 0.39545454545454545;"/>
<path d="M 576.5288930871712 597.7273493093277 L 704.31028121613 719.1906473696405 L 690.398164702647 735.371653784829 L 671.8968977160821 746.0053302132771 Z" style="stroke:#020D02; stroke-opacity: 0.20909090909090908;fill:#C90825; fill-opacity: 0.39545454545454545;"/>
<path d="M 560.3464919042545 609.484551973961 L 671.8968977160821 746.0053302132771 L 656.0664645403157 760.3150940114914 L 636.3783325185461 768.5460971087135 Z" style="stroke:#020D02; stroke-opacity: 0.20909090909090908;fill:#C90825; fill-opacity: 0.39545454545454545;"/>
<path d="M 542.8181255604848 619.1208529167876 L 636.3783325185461 768.5460971087135 L 618.8792380683199 780.7589447666171 L 598.3147346144494 786.457466696807 Z" style="stroke:#020D02; stroke-opacity: 0.20909090909090908;fill:#C90825; fill-opacity: 0.39545454545454545;"/>
<path d="M 524.2202268640417 626.484281915492 L 598.3147346144494 786.457466696807 L 579.4229500626959 796.3807943112332 L 558.306389680831 799.4569659794196 Z" style="stroke:#020D02; stroke-opacity: 0.20909090909090908;fill:#C90825; fill-opacity: 0.39545454545454545;"/>
<path d="M 504.8460957872142 631.4587132960655 L 558.306389680831 799.4569659794196 L 538.3198497553369 806.9342767459805 L 516.9842532171212 807.3395850873401 Z" style="stroke:#020D02; stroke-opacity: 0.20909090909090908;fill:#C90825; fill-opacity: 0.39545454545454545;"/>
<path d="M 485.001273950629 633.9656973040551 L 516.9842532171212 807.3395850873401 L 496.2181575918913 812.2529573485178 L 475 809.9810104083883 Z" style="stroke:#020D02; stroke-opacity: 0.20909090909090908;fill:#C90825; fill-opacity: 0.39545454545454545;"/>
<path d="M 464.998726049371 633.9656973040551 L 474.99999999999994 809.9810104083883 L 453.7818424081087 812.2529573485178 L 433.01574678287875 807.3395850873401 Z" style="stroke:#020D02; stroke-opacity: 0.20909090909090908;fill:#C90825; fill-opacity: 0.39545454545454545;"/>
<path d="M 445.15390421278573 631.4587132960655 L 433.01574678287875 807.3395850873401 L 411.680150244663 806.9342767459802 L 391.693610319169 799.4569659794196 Z" style="stroke:#020D02; stroke-opacity: 0.20909090909090908;fill:#C90825; fill-opacity: 0.39545454545454545;"/>
<path d="M 425.77977313595835 626.484281915492 L 391.693610319169 799.4569659794196 L 370.57704993730397 796.3807943112332 L 351.6852653855505 786.457466696807 Z" style="stroke:#020D02; stroke-opacity: 0.20909090909090908;fill:#C90825; fill-opacity: 0.39545454545454545;"/>
<path d="M 407.18187443951524 619.1208529167876 L 351.6852653855505 786.457466696807 L 331.12076193168025 780.7589447666172 L 313.621667481454 768.5460971087135 Z" style="stroke:#020D02; stroke-opacity: 0.20909090909090908;fill:#C90825; fill-opacity: 0.39545454545454545;"/>
<path d="M 389.65350809574545 609.484551973961 L 313.62166748145387 768.5460971087135 L 293.93353545968444 760.3150940114914 L 278.1031022839179 746.0053302132771 Z" style="stroke:#020D02; stroke-opacity: 0.20909090909090908;fill:#C90825; fill-opacity: 0.39545454545454545;"/>
<path d="M 373.47110691282876 597.7273493093277 L 278.1031022839179 746.0053302132771 L 259.601835297353 735.371653784829 L 245.6897187838699 719.1906473696404 Z" style="stroke:#020D02; stroke-opacity: 0.20909090909090908;fill:#C90825; fill-opacity: 0.39545454545454545;"/>
<path d="M 358.88987702431757 584.0346630323215 L 245.6897187838699 719.1906473696404 L 228.6670928650085 706.3219970394929 L 216.8926954019225 688.5249321445624 Z" style="stroke:#020D02; stroke-opacity: 0.20909090909090908;fill:#C90825; fill-opacity: 0.39545454545454545;"/>
<path d="M 346.1397731359584 568.6224349851451 L 216.89269540192245 688.5249321445624 L 201.6171675303288 673.624254215781 L 192.16617839931658 654.4918011859527 Z" style="stroke:#020D02; stroke-opacity: 0.20909090909090908;fill:#C90825; fill-opacity: 0.39545454545454545;"/>
<path d="M 335.4218720026134 551.7337252109212 L 192.16617839931658 654.4918011859526 L 178.87865277468413 637.7940882507083 L 171.9001197200891 617.6279772994359 Z" style="stroke:#020D02; stroke-opacity: 0.20909090909090908;fill:#C90825; fill-opacity: 0.39545454545454545;"/>
<path d="M 326.9052013277193 533.6348787516155 L 171.9001197200891 617.6279772994359 L 160.81014855910075 599.3965622654468 L 156.41412721596762 578.5148250090831 Z" style="stroke:#020D02; stroke-opacity: 0.20909090909090908;fill:#C90825; fill-opacity: 0.39545454545454545;"/>
<path d="M 320.72407409543166 514.6113252276181 L 156.41412721596762 578.5148250090831 L 147.69660598866037 559.0372281823556 L 145.952424239626 537.7691820915778 Z" style="stroke:#020D02; stroke-opacity: 0.20909090909090908;fill:#C90825; fill-opacity: 0.39545454545454545;"/>
<path d="M 316.9759703746299 494.96307744212237 L 145.952424239626 537.7691820915778 L 139.74483346334907 517.3525768094215 L 140.67999809651945 496.03363167599724 Z" style="stroke:#020D02; stroke-opacity: 0.20909090909090908;fill:#C90825; fill-opacity: 0.39545454545454545;"/>
<path d="M 315.72 474.99999999999994 L 140.67999809651945 496.03363167599724 L 137.08023518604958 475 L 140.67999809651945 453.96636832400276 Z" style="stroke:#020D02; stroke-opacity: 0.20909090909090908;fill:#C90825; fill-opacity: 0.39545454545454545;"/>
<path d="M 316.9759703746299 455.0369225578776 L 140.67999809651945 453.96636832400276 L 139.74483346334907 432.6474231905783 L 145.9524242396261 412.2308179084217 Z" style="stroke:#020D02; stroke-opacity: 0.20909090909090908;fill:#C90825; fill-opacity: 0.39545454545454545;"/>
<path d="M 320.72407409543166 435.38867477238193 L 145.9524242396261 412.23081790842167 L 147.6966059886605 390.96277181764384 L 156.4141272159677 371.48517499091656 Z" style="stroke:#020D02; stroke-opacity: 0.20909090909090908;fill:#C90825; fill-opacity: 0.39545454545454545;"/>
<path d="M 326.9052013277194 416.3651212483844 L 156.4141272159677 371.48517499091656 L 160.81014855910084 350.6034377345529 L 171.90011972008904 332.37202270056423 Z" style="stroke:#020D02; stroke-opacity: 0.20909090909090908;fill:#C90825; fill-opacity: 0.39545454545454545;"/>
<path d="M 335.42187200261344 398.26627478907875 L 171.90011972008904 332.37202270056423 L 178.878652774684 312.20591174929183 L 192.16617839931664 295.50819881404743 Z" style="stroke:#020D02; stroke-opacity: 0.20909090909090908;fill:#C90825; fill-opacity: 0.39545454545454545;"/>
<path d="M 346.1397731359584 381.37756501485484 L 192.16617839931664 295.50819881404743 L 201.61716753032874 276.375745784219 L 216.8926954019225 261.4750678554376 Z" style="stroke:#020D02; stroke-opacity: 0.20909090909090908;fill:#C90825; fill-opacity: 0.39545454545454545;"/>
<path d="M 358.88987702431757 365.96533696767847 L 216.8926954019225 261.4750678554376 L 228.66709286500864 243.678002960507 L 245.6897187838699 230.8093526303596 Z" style="stroke:#020D02; stroke-opacity: 0.20909090909090908;fill:#C90825; fill-opacity: 0.39545454545454545;"/>
<path d="M 373.47110691282876 352.2726506906723 L 245.6897187838699 230.8093526303596 L 259.60183529735286 214.62834621517106 L 278.1031022839181 203.9946697867227 Z" style="stroke:#020D02; stroke-opacity: 0.20909090909090908;fill:#C90825; fill-opacity: 0.39545454545454545;"/>
<path d="M 389.65350809574545 340.515448026039 L 278.103102283918 203.9946697867227 L 293.9335354596846 189.68490598850858 L 313.62166748145387 181.45390289128645 Z" style="stroke:#020D02; stroke-opacity: 0.20909090909090908;fill:#C90825; fill-opacity: 0.39545454545454545;"/>
<path d="M 407.1818744395153 330.8791470832124 L 313.621667481454 181.45390289128645 L 331.1207619316804 169.24105523338267 L 351.6852653855508 163.54253330319287 Z" style="stroke:#020D02; stroke-opacity: 0.20909090909090908;fill:#C90825; fill-opacity: 0.39545454545454545;"/>
<path d="M 425.77977313595835 323.51571808450797 L 351.6852653855507 163.54253330319287 L 370.577049937304 153.61920568876673 L 391.6936103191688 150.54303402058034 Z" style="stroke:#020D02; stroke-opacity: 0.20909090909090908;fill:#C90825; fill-opacity: 0.39545454545454545;"/>
<path d="M 445.1539042127858 318.5412867039345 L 391.6936103191688 150.54303402058034 L 411.6801502446628 143.06572325401964 L 433.0157467828787 142.66041491265983 Z" style="stroke:#020D02; stroke-opacity: 0.20909090909090908;fill:#C90825; fill-opacity: 0.39545454545454545;"/>
<path d="M 464.998726049371 316.03430269594486 L 433.0157467828787 142.6604149126599 L 453.78184240810845 137.74704265148216 L 475 140.01898959161173 Z" style="stroke:#020D02; stroke-opacity: 0.20909090909090908;fill:#C90825; fill-opacity: 0.39545454545454545;"/>
<path d="M 485.00127395062907 316.03430269594486 L 475.00000000000006 140.01898959161173 L 496.21815759189155 137.74704265148216 L 516.9842532171214 142.66041491265986 Z" style="stroke:#020D02; stroke-opacity: 0.20909090909090908;fill:#C90825; fill-opacity: 0.39545454545454545;"/>
<path d="M 504.84609578721427 318.5412867039345 L 516.9842532171214 142.66041491265986 L 538.3198497553373 143.06572325401962 L 558.3063896808312 150.54303402058034 Z" style="stroke:#020D02; stroke-opacity: 0.20909090909090908;fill:#C90825; fill-opacity: 0.39545454545454545;"/>
<path d="M 524.2202268640416 323.51571808450797 L 558.3063896808312 150.54303402058034 L 579.422950062696 153.61920568876673 L 598.3147346144494 163.54253330319304 Z" style="stroke:#020D02; stroke-opacity: 0.20909090909090908;fill:#C90825; fill-opacity: 0.39545454545454545;"/>
<path d="M 542.8181255604848 330.8791470832124 L 598.3147346144494 163.54253330319304 L 618.8792380683196 169.24105523338275 L 636.3783325185458 181.45390289128633 Z" style="stroke:#020D02; stroke-opacity: 0.20909090909090908;fill:#C90825; fill-opacity: 0.39545454545454545;"/>
<path d="M 560.3464919042545 340.51544802603905 L 636.3783325185458 181.45390289128633 L 656.0664645403153 189.68490598850846 L 671.8968977160823 203.99466978672288 Z" style="stroke:#020D02; stroke-opacity: 0.20909090909090908;fill:#C90825; fill-opacity: 0.39545454545454545;"/>
<path d="M 576.5288930871714 352.2726506906723 L 671.8968977160823 203.99466978672288 L 690.3981647026471 214.62834621517118 L 704.3102812161301 230.8093526303596 Z" style="stroke:#020D02; stroke-opacity: 0.20909090909090908;fill:#C90825; fill-opacity: 0.39545454545454545;"/>
<path d="M 591.1101229756824 365.9653369676785 L 704.3102812161301 230.8093526303596 L 721.3329071349916 243.67800296050714 L 733.1073045980776 261.4750678554376 Z" style="stroke:#020D02; stroke-opacity: 0.20909090909090908;fill:#C90825; fill-opacity: 0.39545454545454545;"/>
<path d="M 603.8602268640418 381.377565014855 L 733.1073045980776 261.4750678554376 L 748.3828324696709 276.37574578421857 L 757.8338216006833 295.5081988140474 Z" style="stroke:#020D02; stroke-opacity: 0.20909090909090908;fill:#C90825; fill-opacity: 0.39545454545454545;"/>
<path d="M 614.5781279973867 398.26627478907875 L 757.8338216006833 295.5081988140474 L 771.1213472253163 312.2059117492923 L 778.0998802799112 332.3720227005646 Z" style="stroke:#020D02; stroke-opacity: 0.20909090909090908;fill:#C90825; fill-opacity: 0.39545454545454545;"/>
<path d="M 623.0947986722807 416.3651212483845 L 778.0998802799112 332.3720227005646 L 789.1898514408995 350.6034377345534 L 793.5858727840325 371.48517499091713 Z" style="stroke:#020D02; stroke-opacity: 0.20909090909090908;fill:#C90825; fill-opacity: 0.39545454545454545;"/>
<path d="M 629.2759259045683 435.38867477238193 L 793.5858727840325 371.48517499091713 L 802.3033940113397 390.96277181764447 L 804.0475757603739 412.2308179084222 Z" style="stroke:#020D02; stroke-opacity: 0.20909090909090908;fill:#C90825; fill-opacity: 0.39545454545454545;"/>
<path d="M 633.0240296253701 455.0369225578777 L 804.0475757603739 412.2308179084222 L 810.2551665366509 432.64742319057854 L 809.3200019034805 453.96636832400276 Z" style="stroke:#020D02; stroke-opacity: 0.20909090909090908;fill:#C90825; fill-opacity: 0.39545454545454545;"/>
<path d="M 634.28 475.0000000000001 L 809.3200019034805 453.96636832400276 L 812.9197648139505 475.00000000000006 L 809.3200019034805 496.0336316759973 Z" style="stroke:#020D02; stroke-opacity: 0.20909090909090908;fill:#C90825; fill-opacity: 0.39545454545454545;"/>
<path d="M 653.0265775266281 494.9630774421224 Z" style="stroke:#250FFF; stroke-opacity: 0.7727272727272727;fill:#C69DA5; fill-opacity: 0;"/>
<circle cx="633.0240296253701" cy="494.9630774421224" r="20.002547901258033" style="stroke:#250FFF; stroke-opacity: 0.7727272727272727;fill:#C69DA5; fill-opacity: 0;"/>
<path d="M 633.0240296253701 494.9630774421224 L 614.1340960428786 501.541248296637 L 629.2759259045683 514.6113252276181 L 648.1658594870598 508.0331543731035 Z" style="stroke:#921AFF; stroke-opacity: 0.9363636363636364;fill:#17C80A; fill-opacity: 0.4;"/>
<path d="M 649.2784738058264 514.6113252276181 Z" style="stroke:#250FFF; stroke-opacity: 0.7727272727272727;fill:#C69DA5; fill-opacity: 0;"/>
<circle cx="629.2759259045683" cy="514.6113252276181" r="20.002547901258023" style="stroke:#250FFF; stroke-opacity: 0.7727272727272727;fill:#C69DA5; fill-opacity: 0;"/>
<path d="M 629.2759259045683 514.6113252276181 L 609.7104816663898 518.7700887824319 L 623.0947986722807 533.6348787516155 L 642.6602429104594 529.4761151968016 Z" style="stroke:#921AFF; stroke-opacity: 0.9363636363636364;fill:#17C80A; fill-opacity: 0.4;"/>
<path d="M 643.0973465735387 533.6348787516155 Z" style="stroke:#250FFF; stroke-opacity: 0.7727272727272727;fill:#C69DA5; fill-opacity: 0;"/>
<circle cx="623.0947986722807" cy="533.6348787516155" r="20.002547901258062" style="stroke:#250FFF; stroke-opacity: 0.7727272727272727;fill:#C69DA5; fill-opacity: 0;"/>
<path d="M 623.0947986722807 533.6348787516155 L 603.162402521881 535.3086488211442 L 614.5781279973867 551.7337252109212 L 634.5105241477866 550.0599551413926 Z" style="stroke:#921AFF; stroke-opacity: 0.9363636363636364;fill:#17C80A; fill-opacity: 0.4;"/>
<path d="M 634.5806758986447 551.7337252109212 Z" style="stroke:#250FFF; stroke-opacity: 0.7727272727272727;fill:#C69DA5; fill-opacity: 0;"/>
<circle cx="614.5781279973867" cy="551.7337252109212" r="20.002547901258076" style="stroke:#250FFF; stroke-opacity: 0.7727272727272727;fill:#C69DA5; fill-opacity: 0;"/>
<path d="M 614.5781279973867 551.7337252109212 L 594.5931257290937 550.8961054413064 L 603.8602268640417 568.6224349851451 L 623.8452291323346 569.46005475476 Z" style="stroke:#921AFF; stroke-opacity: 0.9363636363636364;fill:#17C80A; fill-opacity: 0.4;"/>
<path d="M 623.8627747652998 568.6224349851451 Z" style="stroke:#250FFF; stroke-opacity: 0.7727272727272727;fill:#C69DA5; fill-opacity: 0;"/>
<circle cx="603.8602268640417" cy="568.6224349851451" r="20.002547901258122" style="stroke:#250FFF; stroke-opacity: 0.7727272727272727;fill:#C69DA5; fill-opacity: 0;"/>
<path d="M 603.8602268640417 568.6224349851451 L 584.1377939020882 565.2866351405235 L 591.1101229756824 584.0346630323215 L 610.8325559376359 587.3704628769433 Z" style="stroke:#921AFF; stroke-opacity: 0.9363636363636364;fill:#17C80A; fill-opacity: 0.4;"/>
<path d="M 611.1126708769406 584.0346630323215 Z" style="stroke:#250FFF; stroke-opacity: 0.7727272727272727;fill:#C69DA5; fill-opacity: 0;"/>
<circle cx="591.1101229756824" cy="584.0346630323215" r="20.00254790125809" style="stroke:#250FFF; stroke-opacity: 0.7727272727272727;fill:#C69DA5; fill-opacity: 0;"/>
<path d="M 591.1101229756824 584.0346630323215 L 571.9612938694889 578.2532906689529 L 576.5288930871712 597.7273493093277 L 595.6777221933647 603.5087216726962 Z" style="stroke:#921AFF; stroke-opacity: 0.9363636363636364;fill:#17C80A; fill-opacity: 0.4;"/>
<path d="M 596.5314409884293 597.7273493093277 Z" style="stroke:#250FFF; stroke-opacity: 0.7727272727272727;fill:#C69DA5; fill-opacity: 0;"/>
<circle cx="576.5288930871712" cy="597.7273493093277" r="20.002547901258062" style="stroke:#250FFF; stroke-opacity: 0.7727272727272727;fill:#C69DA5; fill-opacity: 0;"/>
<path d="M 576.5288930871712 597.7273493093277 L 558.2556563106984 589.5915801230071 L 560.3464919042545 609.484551973961 L 578.6197286807273 617.6203211602815 Z" style="stroke:#921AFF; stroke-opacity: 0.9363636363636364;fill:#17C80A; fill-opacity: 0.4;"/>
<path d="M 580.3490398055126 609.484551973961 Z" style="stroke:#250FFF; stroke-opacity: 0.7727272727272727;fill:#C69DA5; fill-opacity: 0;"/>
<circle cx="560.3464919042545" cy="609.484551973961" r="20.00254790125807" style="stroke:#250FFF; stroke-opacity: 0.7727272727272727;fill:#C69DA5; fill-opacity: 0;"/>
<path d="M 560.3464919042545 609.484551973961 L 543.2370273173699 599.1226919048295 L 542.8181255604848 619.1208529167876 L 559.9275901473695 629.4827129859191 Z" style="stroke:#921AFF; stroke-opacity: 0.9363636363636364;fill:#17C80A; fill-opacity: 0.4;"/>
<path d="M 562.8206734617427 619.1208529167876 Z" style="stroke:#250FFF; stroke-opacity: 0.7727272727272727;fill:#C69DA5; fill-opacity: 0;"/>
<circle cx="542.8181255604848" cy="619.1208529167876" r="20.002547901257966" style="stroke:#250FFF; stroke-opacity: 0.7727272727272727;fill:#C69DA5; fill-opacity: 0;"/>
<path d="M 542.8181255604848 619.1208529167876 L 527.1422596404221 606.6963146880106 L 524.2202268640417 626.484281915492 L 539.8960927841043 638.908820144269 Z" style="stroke:#921AFF; stroke-opacity: 0.9363636363636364;fill:#17C80A; fill-opacity: 0.4;"/>
<path d="M 544.2227747652998 626.484281915492 Z" style="stroke:#250FFF; stroke-opacity: 0.7727272727272727;fill:#C69DA5; fill-opacity: 0;"/>
<circle cx="524.2202268640417" cy="626.484281915492" r="20.00254790125816" style="stroke:#250FFF; stroke-opacity: 0.7727272727272727;fill:#C69DA5; fill-opacity: 0;"/>
<path d="M 524.2202268640417 626.484281915492 L 510.2251773806688 612.1930079169965 L 504.8460957872142 631.4587132960655 L 518.841145270587 645.7499872945609 Z" style="stroke:#921AFF; stroke-opacity: 0.9363636363636364;fill:#17C80A; fill-opacity: 0.4;"/>
<path d="M 524.8486436884723 631.4587132960655 Z" style="stroke:#250FFF; stroke-opacity: 0.7727272727272727;fill:#C69DA5; fill-opacity: 0;"/>
<circle cx="504.8460957872142" cy="631.4587132960655" r="20.00254790125808" style="stroke:#250FFF; stroke-opacity: 0.7727272727272727;fill:#C69DA5; fill-opacity: 0;"/>
<path d="M 504.8460957872142 631.4587132960655 L 492.7525730311213 615.5260854560014 L 485.001273950629 633.9656973040551 L 497.0947967067219 649.8983251441192 Z" style="stroke:#921AFF; stroke-opacity: 0.9363636363636364;fill:#17C80A; fill-opacity: 0.4;"/>
<path d="M 505.00382185188704 633.9656973040551 Z" style="stroke:#250FFF; stroke-opacity: 0.7727272727272727;fill:#C69DA5; fill-opacity: 0;"/>
<circle cx="485.001273950629" cy="633.9656973040551" r="20.002547901258026" style="stroke:#250FFF; stroke-opacity: 0.7727272727272727;fill:#C69DA5; fill-opacity: 0;"/>
<path d="M 485.001273950629 633.9656973040551 L 475 616.6429826811506 L 464.998726049371 633.9656973040551 L 475 651.2884119269596 Z" style="stroke:#921AFF; stroke-opacity: 0.9363636363636364;fill:#17C80A; fill-opacity: 0.4;"/>
<path d="M 485.0012739506291 633.9656973040551 Z" style="stroke:#250FFF; stroke-opacity: 0.7727272727272727;fill:#C69DA5; fill-opacity: 0;"/>
<circle cx="464.998726049371" cy="633.9656973040551" r="20.002547901258136" style="stroke:#250FFF; stroke-opacity: 0.7727272727272727;fill:#C69DA5; fill-opacity: 0;"/>
<path d="M 464.998726049371 633.9656973040551 L 457.24742696887864 615.5260854560013 L 445.15390421278573 631.4587132960655 L 452.905203293278 649.8983251441193 Z" style="stroke:#921AFF; stroke-opacity: 0.9363636363636364;fill:#17C80A; fill-opacity: 0.4;"/>
<path d="M 465.15645211404376 631.4587132960655 Z" style="stroke:#250FFF; stroke-opacity: 0.7727272727272727;fill:#C69DA5; fill-opacity: 0;"/>
<circle cx="445.15390421278573" cy="631.4587132960655" r="20.00254790125805" style="stroke:#250FFF; stroke-opacity: 0.7727272727272727;fill:#C69DA5; fill-opacity: 0;"/>
<path d="M 445.15390421278573 631.4587132960655 L 439.7748226193312 612.1930079169966 L 425.77977313595835 626.484281915492 L 431.15885472941295 645.7499872945608 Z" style="stroke:#921AFF; stroke-opacity: 0.9363636363636364;fill:#17C80A; fill-opacity: 0.4;"/>
<path d="M 445.7823210372164 626.484281915492 Z" style="stroke:#250FFF; stroke-opacity: 0.7727272727272727;fill:#C69DA5; fill-opacity: 0;"/>
<circle cx="425.77977313595835" cy="626.484281915492" r="20.00254790125802" style="stroke:#250FFF; stroke-opacity: 0.7727272727272727;fill:#C69DA5; fill-opacity: 0;"/>
<path d="M 425.77977313595835 626.484281915492 L 422.8577403595778 606.6963146880106 L 407.18187443951524 619.1208529167876 L 410.10390721589573 638.908820144269 Z" style="stroke:#921AFF; stroke-opacity: 0.9363636363636364;fill:#17C80A; fill-opacity: 0.4;"/>
<path d="M 427.1844223407733 619.1208529167876 Z" style="stroke:#250FFF; stroke-opacity: 0.7727272727272727;fill:#C69DA5; fill-opacity: 0;"/>
<circle cx="407.18187443951524" cy="619.1208529167876" r="20.00254790125807" style="stroke:#250FFF; stroke-opacity: 0.7727272727272727;fill:#C69DA5; fill-opacity: 0;"/>
<path d="M 407.18187443951524 619.1208529167876 L 406.76297268263016 599.1226919048295 L 389.65350809574545 609.484551973961 L 390.0724098526305 629.4827129859191 Z" style="stroke:#921AFF; stroke-opacity: 0.9363636363636364;fill:#17C80A; fill-opacity: 0.4;"/>
<path d="M 409.65605599700353 609.484551973961 Z" style="stroke:#250FFF; stroke-opacity: 0.7727272727272727;fill:#C69DA5; fill-opacity: 0;"/>
<circle cx="389.65350809574545" cy="609.484551973961" r="20.002547901258062" style="stroke:#250FFF; stroke-opacity: 0.7727272727272727;fill:#C69DA5; fill-opacity: 0;"/>
<path d="M 389.65350809574545 609.484551973961 L 391.7443436893016 589.5915801230071 L 373.47110691282876 597.7273493093277 L 371.3802713192726 617.6203211602815 Z" style="stroke:#921AFF; stroke-opacity: 0.9363636363636364;fill:#17C80A; fill-opacity: 0.4;"/>
<path d="M 393.47365481408684 597.7273493093277 Z" style="stroke:#250FFF; stroke-opacity: 0.7727272727272727;fill:#C69DA5; fill-opacity: 0;"/>
<circle cx="373.47110691282876" cy="597.7273493093277" r="20.00254790125809" style="stroke:#250FFF; stroke-opacity: 0.7727272727272727;fill:#C69DA5; fill-opacity: 0;"/>
<path d="M 373.47110691282876 597.7273493093277 L 378.03870613051106 578.2532906689529 L 358.88987702431757 584.0346630323215 L 354.32227780663527 603.5087216726962 Z" style="stroke:#921AFF; stroke-opacity: 0.9363636363636364;fill:#17C80A; fill-opacity: 0.4;"/>
<path d="M 378.8924249255756 584.0346630323215 Z" style="stroke:#250FFF; stroke-opacity: 0.7727272727272727;fill:#C69DA5; fill-opacity: 0;"/>
<circle cx="358.88987702431757" cy="584.0346630323215" r="20.002547901258048" style="stroke:#250FFF; stroke-opacity: 0.7727272727272727;fill:#C69DA5; fill-opacity: 0;"/>
<path d="M 358.88987702431757 584.0346630323215 L 365.86220609791184 565.2866351405235 L 346.1397731359584 568.6224349851451 L 339.16744406236415 587.3704628769431 Z" style="stroke:#921AFF; stroke-opacity: 0.9363636363636364;fill:#17C80A; fill-opacity: 0.4;"/>
<path d="M 366.1423210372165 568.6224349851451 Z" style="stroke:#250FFF; stroke-opacity: 0.7727272727272727;fill:#C69DA5; fill-opacity: 0;"/>
<circle cx="346.1397731359584" cy="568.6224349851451" r="20.002547901258108" style="stroke:#250FFF; stroke-opacity: 0.7727272727272727;fill:#C69DA5; fill-opacity: 0;"/>
<path d="M 346.1397731359584 568.6224349851451 L 355.4068742709063 550.8961054413064 L 335.4218720026134 551.7337252109212 L 326.15477086766543 569.46005475476 Z" style="stroke:#921AFF; stroke-opacity: 0.9363636363636364;fill:#17C80A; fill-opacity: 0.4;"/>
<path d="M 355.42441990387147 551.7337252109212 Z" style="stroke:#250FFF; stroke-opacity: 0.7727272727272727;fill:#C69DA5; fill-opacity: 0;"/>
<circle cx="335.4218720026134" cy="551.7337252109212" r="20.002547901258087" style="stroke:#250FFF; stroke-opacity: 0.7727272727272727;fill:#C69DA5; fill-opacity: 0;"/>
<path d="M 335.4218720026134 551.7337252109212 L 346.83759747811916 535.3086488211442 L 326.9052013277193 533.6348787516155 L 315.48947585221356 550.0599551413926 Z" style="stroke:#921AFF; stroke-opacity: 0.9363636363636364;fill:#17C80A; fill-opacity: 0.4;"/>
<path d="M 346.9077492289773 533.6348787516155 Z" style="stroke:#250FFF; stroke-opacity: 0.7727272727272727;fill:#C69DA5; fill-opacity: 0;"/>
<circle cx="326.9052013277193" cy="533.6348787516155" r="20.002547901258023" style="stroke:#250FFF; stroke-opacity: 0.7727272727272727;fill:#C69DA5; fill-opacity: 0;"/>
<path d="M 326.9052013277193 533.6348787516155 L 340.2895183336102 518.7700887824319 L 320.72407409543166 514.6113252276181 L 307.33975708954074 529.4761151968016 Z" style="stroke:#921AFF; stroke-opacity: 0.9363636363636364;fill:#17C80A; fill-opacity: 0.4;"/>
<path d="M 340.72662199668974 514.6113252276181 Z" style="stroke:#250FFF; stroke-opacity: 0.7727272727272727;fill:#C69DA5; fill-opacity: 0;"/>
<circle cx="320.72407409543166" cy="514.6113252276181" r="20.00254790125809" style="stroke:#250FFF; stroke-opacity: 0.7727272727272727;fill:#C69DA5; fill-opacity: 0;"/>
<path d="M 320.72407409543166 514.6113252276181 L 335.8659039571214 501.541248296637 L 316.9759703746299 494.96307744212237 L 301.83414051294017 508.0331543731035 Z" style="stroke:#921AFF; stroke-opacity: 0.9363636363636364;fill:#17C80A; fill-opacity: 0.4;"/>
<path d="M 336.978518275888 494.96307744212237 Z" style="stroke:#250FFF; stroke-opacity: 0.7727272727272727;fill:#C69DA5; fill-opacity: 0;"/>
<circle cx="316.9759703746299" cy="494.96307744212237" r="20.002547901258108" style="stroke:#250FFF; stroke-opacity: 0.7727272727272727;fill:#C69DA5; fill-opacity: 0;"/>
<path d="M 316.9759703746299 494.96307744212237 L 333.63651738990905 483.893836470231 L 315.72 474.99999999999994 L 299.0594529847209 486.0692409718913 Z" style="stroke:#921AFF; stroke-opacity: 0.9363636363636364;fill:#17C80A; fill-opacity: 0.4;"/>
<path d="M 335.72254790125805 474.99999999999994 Z" style="stroke:#250FFF; stroke-opacity: 0.7727272727272727;fill:#C69DA5; fill-opacity: 0;"/>
<circle cx="315.72" cy="474.99999999999994" r="20.002547901258055" style="stroke:#250FFF; stroke-opacity: 0.7727272727272727;fill:#C69DA5; fill-opacity: 0;"/>
<path d="M 315.72 474.99999999999994 L 333.63651738990905 466.1061635297689 L 316.9759703746299 455.0369225578776 L 299.0594529847209 463.9307590281086 Z" style="stroke:#921AFF; stroke-opacity: 0.9363636363636364;fill:#17C80A; fill-opacity: 0.4;"/>
<path d="M 336.97851827588795 455.0369225578776 Z" style="stroke:#250FFF; stroke-opacity: 0.7727272727272727;fill:#C69DA5; fill-opacity: 0;"/>
<circle cx="316.9759703746299" cy="455.0369225578776" r="20.002547901258033" style="stroke:#250FFF; stroke-opacity: 0.7727272727272727;fill:#C69DA5; fill-opacity: 0;"/>
<path d="M 316.9759703746299 455.0369225578776 L 335.86590395712136 448.458751703363 L 320.72407409543166 435.38867477238193 L 301.8341405129402 441.9668456268965 Z" style="stroke:#921AFF; stroke-opacity: 0.9363636363636364;fill:#17C80A; fill-opacity: 0.4;"/>
<path d="M 340.7266219966898 435.38867477238193 Z" style="stroke:#250FFF; stroke-opacity: 0.7727272727272727;fill:#C69DA5; fill-opacity: 0;"/>
<circle cx="320.72407409543166" cy="435.38867477238193" r="20.00254790125817" style="stroke:#250FFF; stroke-opacity: 0.7727272727272727;fill:#C69DA5; fill-opacity: 0;"/>
<path d="M 320.72407409543166 435.38867477238193 L 340.2895183336104 431.22991121756814 L 326.9052013277194 416.3651212483844 L 307.3397570895407 420.5238848031982 Z" style="stroke:#921AFF; stroke-opacity: 0.9363636363636364;fill:#17C80A; fill-opacity: 0.4;"/>
<path d="M 346.9077492289774 416.3651212483844 Z" style="stroke:#250FFF; stroke-opacity: 0.7727272727272727;fill:#C69DA5; fill-opacity: 0;"/>
<circle cx="326.9052013277194" cy="416.3651212483844" r="20.002547901258012" style="stroke:#250FFF; stroke-opacity: 0.7727272727272727;fill:#C69DA5; fill-opacity: 0;"/>
<path d="M 326.9052013277194 416.3651212483844 L 346.83759747811916 414.6913511788558 L 335.42187200261344 398.26627478907875 L 315.4894758522137 399.9400448586074 Z" style="stroke:#921AFF; stroke-opacity: 0.9363636363636364;fill:#17C80A; fill-opacity: 0.4;"/>
<path d="M 355.4244199038715 398.26627478907875 Z" style="stroke:#250FFF; stroke-opacity: 0.7727272727272727;fill:#C69DA5; fill-opacity: 0;"/>
<circle cx="335.42187200261344" cy="398.26627478907875" r="20.002547901258076" style="stroke:#250FFF; stroke-opacity: 0.7727272727272727;fill:#C69DA5; fill-opacity: 0;"/>
<path d="M 335.42187200261344 398.26627478907875 L 355.40687427090637 399.1038945586936 L 346.1397731359584 381.37756501485484 L 326.1547708676655 380.53994524524 Z" style="stroke:#921AFF; stroke-opacity: 0.9363636363636364;fill:#17C80A; fill-opacity: 0.4;"/>
<path d="M 366.14232103721645 381.37756501485484 Z" style="stroke:#250FFF; stroke-opacity: 0.7727272727272727;fill:#C69DA5; fill-opacity: 0;"/>
<circle cx="346.1397731359584" cy="381.37756501485484" r="20.002547901258005" style="stroke:#250FFF; stroke-opacity: 0.7727272727272727;fill:#C69DA5; fill-opacity: 0;"/>
<path d="M 346.1397731359584 381.37756501485484 L 365.8622060979118 384.71336485947637 L 358.88987702431757 365.96533696767847 L 339.1674440623642 362.6295371230569 Z" style="stroke:#921AFF; stroke-opacity: 0.9363636363636364;fill:#17C80A; fill-opacity: 0.4;"/>
<path d="M 378.89242492557565 365.96533696767847 Z" style="stroke:#250FFF; stroke-opacity: 0.7727272727272727;fill:#C69DA5; fill-opacity: 0;"/>
<circle cx="358.88987702431757" cy="365.96533696767847" r="20.00254790125809" style="stroke:#250FFF; stroke-opacity: 0.7727272727272727;fill:#C69DA5; fill-opacity: 0;"/>
<path d="M 358.88987702431757 365.96533696767847 L 378.03870613051106 371.74670933104704 L 373.47110691282876 352.2726506906723 L 354.32227780663527 346.49127832730375 Z" style="stroke:#921AFF; stroke-opacity: 0.9363636363636364;fill:#17C80A; fill-opacity: 0.4;"/>
<path d="M 393.47365481408684 352.2726506906723 Z" style="stroke:#250FFF; stroke-opacity: 0.7727272727272727;fill:#C69DA5; fill-opacity: 0;"/>
<circle cx="373.47110691282876" cy="352.2726506906723" r="20.002547901258094" style="stroke:#250FFF; stroke-opacity: 0.7727272727272727;fill:#C69DA5; fill-opacity: 0;"/>
<path d="M 373.47110691282876 352.2726506906723 L 391.7443436893017 360.40841987699287 L 389.65350809574545 340.515448026039 L 371.38027131927254 332.3796788397185 Z" style="stroke:#921AFF; stroke-opacity: 0.9363636363636364;fill:#17C80A; fill-opacity: 0.4;"/>
<path d="M 409.65605599700353 340.515448026039 Z" style="stroke:#250FFF; stroke-opacity: 0.7727272727272727;fill:#C69DA5; fill-opacity: 0;"/>
<circle cx="389.65350809574545" cy="340.515448026039" r="20.00254790125809" style="stroke:#250FFF; stroke-opacity: 0.7727272727272727;fill:#C69DA5; fill-opacity: 0;"/>
<path d="M 389.65350809574545 340.515448026039 L 406.76297268263016 350.8773080951706 L 407.1818744395153 330.8791470832124 L 390.07240985263064 320.51728701408086 Z" style="stroke:#921AFF; stroke-opacity: 0.9363636363636364;fill:#17C80A; fill-opacity: 0.4;"/>
<path d="M 427.18442234077327 330.8791470832124 Z" style="stroke:#250FFF; stroke-opacity: 0.7727272727272727;fill:#C69DA5; fill-opacity: 0;"/>
<circle cx="407.1818744395153" cy="330.8791470832124" r="20.002547901257966" style="stroke:#250FFF; stroke-opacity: 0.7727272727272727;fill:#C69DA5; fill-opacity: 0;"/>
<path d="M 407.1818744395153 330.8791470832124 L 422.85774035957786 343.30368531198934 L 425.77977313595835 323.51571808450797 L 410.1039072158958 311.091179855731 Z" style="stroke:#921AFF; stroke-opacity: 0.9363636363636364;fill:#17C80A; fill-opacity: 0.4;"/>
<path d="M 445.78232103721643 323.51571808450797 Z" style="stroke:#250FFF; stroke-opacity: 0.7727272727272727;fill:#C69DA5; fill-opacity: 0;"/>
<circle cx="425.77977313595835" cy="323.51571808450797" r="20.002547901258104" style="stroke:#250FFF; stroke-opacity: 0.7727272727272727;fill:#C69DA5; fill-opacity: 0;"/>
<path d="M 425.77977313595835 323.51571808450797 L 439.7748226193312 337.80699208300337 L 445.1539042127858 318.5412867039345 L 431.15885472941295 304.2500127054391 Z" style="stroke:#921AFF; stroke-opacity: 0.9363636363636364;fill:#17C80A; fill-opacity: 0.4;"/>
<path d="M 465.1564521140439 318.5412867039345 Z" style="stroke:#250FFF; stroke-opacity: 0.7727272727272727;fill:#C69DA5; fill-opacity: 0;"/>
<circle cx="445.1539042127858" cy="318.5412867039345" r="20.002547901258087" style="stroke:#250FFF; stroke-opacity: 0.7727272727272727;fill:#C69DA5; fill-opacity: 0;"/>
<path d="M 445.1539042127858 318.5412867039345 L 457.2474269688787 334.47391454399866 L 464.998726049371 316.03430269594486 L 452.9052032932781 300.10167485588073 Z" style="stroke:#921AFF; stroke-opacity: 0.9363636363636364;fill:#17C80A; fill-opacity: 0.4;"/>
<path d="M 485.00127395062907 316.03430269594486 Z" style="stroke:#250FFF; stroke-opacity: 0.7727272727272727;fill:#C69DA5; fill-opacity: 0;"/>
<circle cx="464.998726049371" cy="316.03430269594486" r="20.002547901258083" style="stroke:#250FFF; stroke-opacity: 0.7727272727272727;fill:#C69DA5; fill-opacity: 0;"/>
<path d="M 464.998726049371 316.03430269594486 L 475 333.35701731884944 L 485.00127395062907 316.03430269594486 L 475 298.7115880730403 Z" style="stroke:#921AFF; stroke-opacity: 0.9363636363636364;fill:#17C80A; fill-opacity: 0.4;"/>
<path d="M 505.00382185188715 316.03430269594486 Z" style="stroke:#250FFF; stroke-opacity: 0.7727272727272727;fill:#C69DA5; fill-opacity: 0;"/>
<circle cx="485.00127395062907" cy="316.03430269594486" r="20.002547901258087" style="stroke:#250FFF; stroke-opacity: 0.7727272727272727;fill:#C69DA5; fill-opacity: 0;"/>
<path d="M 485.00127395062907 316.03430269594486 L 492.75257303112136 334.47391454399866 L 504.84609578721427 318.5412867039345 L 497.094796706722 300.10167485588073 Z" style="stroke:#921AFF; stroke-opacity: 0.9363636363636364;fill:#17C80A; fill-opacity: 0.4;"/>
<path d="M 524.8486436884723 318.5412867039345 Z" style="stroke:#250FFF; stroke-opacity: 0.7727272727272727;fill:#C69DA5; fill-opacity: 0;"/>
<circle cx="504.84609578721427" cy="318.5412867039345" r="20.002547901257994" style="stroke:#250FFF; stroke-opacity: 0.7727272727272727;fill:#C69DA5; fill-opacity: 0;"/>
<path d="M 504.84609578721427 318.5412867039345 L 510.2251773806688 337.80699208300325 L 524.2202268640416 323.51571808450797 L 518.841145270587 304.2500127054392 Z" style="stroke:#921AFF; stroke-opacity: 0.9363636363636364;fill:#17C80A; fill-opacity: 0.4;"/>
<path d="M 544.2227747652996 323.51571808450797 Z" style="stroke:#250FFF; stroke-opacity: 0.7727272727272727;fill:#C69DA5; fill-opacity: 0;"/>
<circle cx="524.2202268640416" cy="323.51571808450797" r="20.00254790125807" style="stroke:#250FFF; stroke-opacity: 0.7727272727272727;fill:#C69DA5; fill-opacity: 0;"/>
<path d="M 524.2202268640416 323.51571808450797 L 527.142259640422 343.30368531198945 L 542.8181255604848 330.8791470832124 L 539.8960927841042 311.0911798557309 Z" style="stroke:#921AFF; stroke-opacity: 0.9363636363636364;fill:#17C80A; fill-opacity: 0.4;"/>
<path d="M 562.8206734617428 330.8791470832124 Z" style="stroke:#250FFF; stroke-opacity: 0.7727272727272727;fill:#C69DA5; fill-opacity: 0;"/>
<circle cx="542.8181255604848" cy="330.8791470832124" r="20.00254790125807" style="stroke:#250FFF; stroke-opacity: 0.7727272727272727;fill:#C69DA5; fill-opacity: 0;"/>
<path d="M 542.8181255604848 330.8791470832124 L 543.2370273173699 350.8773080951705 L 560.3464919042545 340.51544802603905 L 559.9275901473695 320.5172870140809 Z" style="stroke:#921AFF; stroke-opacity: 0.9363636363636364;fill:#17C80A; fill-opacity: 0.4;"/>
<path d="M 580.3490398055127 340.51544802603905 Z" style="stroke:#250FFF; stroke-opacity: 0.7727272727272727;fill:#C69DA5; fill-opacity: 0;"/>
<circle cx="560.3464919042545" cy="340.51544802603905" r="20.00254790125815" style="stroke:#250FFF; stroke-opacity: 0.7727272727272727;fill:#C69DA5; fill-opacity: 0;"/>
<path d="M 560.3464919042545 340.51544802603905 L 558.2556563106986 360.408419876993 L 576.5288930871714 352.2726506906723 L 578.6197286807275 332.3796788397184 Z" style="stroke:#921AFF; stroke-opacity: 0.9363636363636364;fill:#17C80A; fill-opacity: 0.4;"/>
<path d="M 596.5314409884294 352.2726506906723 Z" style="stroke:#250FFF; stroke-opacity: 0.7727272727272727;fill:#C69DA5; fill-opacity: 0;"/>
<circle cx="576.5288930871714" cy="352.2726506906723" r="20.002547901258048" style="stroke:#250FFF; stroke-opacity: 0.7727272727272727;fill:#C69DA5; fill-opacity: 0;"/>
<path d="M 576.5288930871714 352.2726506906723 L 571.961293869489 371.746709331047 L 591.1101229756824 365.9653369676785 L 595.6777221933648 346.4912783273039 Z" style="stroke:#921AFF; stroke-opacity: 0.9363636363636364;fill:#17C80A; fill-opacity: 0.4;"/>
<path d="M 611.1126708769407 365.9653369676785 Z" style="stroke:#250FFF; stroke-opacity: 0.7727272727272727;fill:#C69DA5; fill-opacity: 0;"/>
<circle cx="591.1101229756824" cy="365.9653369676785" r="20.00254790125824" style="stroke:#250FFF; stroke-opacity: 0.7727272727272727;fill:#C69DA5; fill-opacity: 0;"/>
<path d="M 591.1101229756824 365.9653369676785 L 584.1377939020883 384.7133648594767 L 603.8602268640418 381.377565014855 L 610.832555937636 362.62953712305676 Z" style="stroke:#921AFF; stroke-opacity: 0.9363636363636364;fill:#17C80A; fill-opacity: 0.4;"/>
<path d="M 623.8627747652997 381.377565014855 Z" style="stroke:#250FFF; stroke-opacity: 0.7727272727272727;fill:#C69DA5; fill-opacity: 0;"/>
<circle cx="603.8602268640418" cy="381.377565014855" r="20.002547901257874" style="stroke:#250FFF; stroke-opacity: 0.7727272727272727;fill:#C69DA5; fill-opacity: 0;"/>
<path d="M 603.8602268640418 381.377565014855 L 594.5931257290939 399.1038945586936 L 614.5781279973867 398.26627478907875 L 623.8452291323346 380.53994524524023 Z" style="stroke:#921AFF; stroke-opacity: 0.9363636363636364;fill:#17C80A; fill-opacity: 0.4;"/>
<path d="M 634.5806758986448 398.26627478907875 Z" style="stroke:#250FFF; stroke-opacity: 0.7727272727272727;fill:#C69DA5; fill-opacity: 0;"/>
<circle cx="614.5781279973867" cy="398.26627478907875" r="20.002547901258115" style="stroke:#250FFF; stroke-opacity: 0.7727272727272727;fill:#C69DA5; fill-opacity: 0;"/>
<path d="M 614.5781279973867 398.26627478907875 L 603.162402521881 414.6913511788558 L 623.0947986722807 416.3651212483845 L 634.5105241477866 399.9400448586074 Z" style="stroke:#921AFF; stroke-opacity: 0.9363636363636364;fill:#17C80A; fill-opacity: 0.4;"/>
<path d="M 643.0973465735387 416.3651212483845 Z" style="stroke:#250FFF; stroke-opacity: 0.7727272727272727;fill:#C69DA5; fill-opacity: 0;"/>
<circle cx="623.0947986722807" cy="416.3651212483845" r="20.002547901258023" style="stroke:#250FFF; stroke-opacity: 0.7727272727272727;fill:#C69DA5; fill-opacity: 0;"/>
<path d="M 623.0947986722807 416.3651212483845 L 609.7104816663898 431.2299112175681 L 629.2759259045683 435.38867477238193 L 642.6602429104594 420.52388480319837 Z" style="stroke:#921AFF; stroke-opacity: 0.9363636363636364;fill:#17C80A; fill-opacity: 0.4;"/>
<path d="M 649.2784738058265 435.38867477238193 Z" style="stroke:#250FFF; stroke-opacity: 0.7727272727272727;fill:#C69DA5; fill-opacity: 0;"/>
<circle cx="629.2759259045683" cy="435.38867477238193" r="20.002547901258147" style="stroke:#250FFF; stroke-opacity: 0.7727272727272727;fill:#C69DA5; fill-opacity: 0;"/>
<path d="M 629.2759259045683 435.38867477238193 L 614.1340960428786 448.4587517033631 L 633.0240296253701 455.0369225578777 L 648.1658594870598 441.96684562689654 Z" style="stroke:#921AFF; stroke-opacity: 0.9363636363636364;fill:#17C80A; fill-opacity: 0.4;"/>
<path d="M 653.0265775266282 455.0369225578777 Z" style="stroke:#250FFF; stroke-opacity: 0.7727272727272727;fill:#C69DA5; fill-opacity: 0;"/>
<circle cx="633.0240296253701" cy="455.0369225578777" r="20.002547901258108" style="stroke:#250FFF; stroke-opacity: 0.7727272727272727;fill:#C69DA5; fill-opacity: 0;"/>
<path d="M 633.0240296253701 455.0369225578777 L 616.363482610091 466.10616352976905 L 634.28 475.0000000000001 L 650.9405470152791 463.93075902810875 Z" style="stroke:#921AFF; stroke-opacity: 0.9363636363636364;fill:#17C80A; fill-opacity: 0.4;"/>
<path d="M 654.282547901258 475.0000000000001 Z" style="stroke:#250FFF; stroke-opacity: 0.7727272727272727;fill:#C69DA5; fill-opacity: 0;"/>
<circle cx="634.28" cy="475.0000000000001" r="20.002547901257998" style="stroke:#250FFF; stroke-opacity: 0.7727272727272727;fill:#C69DA5; fill-opacity: 0;"/>
<path d="M 634.28 475.0000000000001 L 616.3634826100911 483.8938364702311 L 633.0240296253701 494.9630774421224 L 650.940547015279 486.0692409718914 Z" style="stroke:#921AFF; stroke-opacity: 0.9363636363636364;fill:#17C80A; fill-opacity: 0.4;"/>
</g>
</svg>