<?xml version="1.0"?><!DOCTYPE svg PUBLIC "-//W3C//DTD SVG 1.1//EN" "http://www.w3.org/Graphics/SVG/1.1/DTD/svg11.dtd"><svg xmlns="http://www.w3.org/2000/svg" width="950" height="950">
<title>PatternFourteen</title>
<desc>
Generated using the following configuration:

@implementation NewPattern : PatternFourteen
+ (CPDict) defaultConfig
{
 return [CPDictionary dictionaryWithObjectsAndKeys:[[GRColor alloc] initWithGradientColors:[[CPColor colorWith8BitRed:17 green:3 blue:93 alpha:1],[CPColor colorWith8BitRed:85 green:85 blue:85 alpha:1],[CPColor colorWith8BitRed:158 green:150 blue:255 alpha:1]] baseColor:[CPColor colorWith8BitRed:255 green:255 blue:255 alpha:1]], "background_color", 1, "background_color_direction", 24, "number_of_points", 0, "rotation", 0, "recurse_depth", 0.44, "factor_larger", [GRPoint pointWithX:475 Y:475], "center_point", 200, "radius", YES, "show_shapes", [[CPColor colorWith8BitRed:174 green:174 blue:174 alpha:0],[CPColor colorWith8BitRed:0 green:0 blue:0 alpha:0.6181818181818182],[CPColor colorWith8BitRed:0 green:0 blue:0 alpha:0.39090909090909093],[CPColor colorWith8BitRed:0 green:0 blue:0 alpha:0.39090909090909093],[CPColor colorWith8BitRed:255 green:2 blue:10 alpha:1],[CPColor colorWith8BitRed:255 green:23 blue:10 alpha:1]], "stroke_colors", [[CPColor colorWith8BitRed:255 green:255 blue:0 alpha:0],[CPColor colorWith8BitRed:255 green:255 blue:0 alpha:0],[CPColor colorWith8BitRed:255 green:255 blue:0 alpha:0],[CPColor colorWith8BitRed:200 green:96 blue:175 alpha:0],[CPColor colorWith8BitRed:23 green:200 blue:10 alpha:0],[CPColor colorWith8BitRed:200 green:23 blue:10 alpha:0]], "fill_colors"];
}
@end

</desc>
  <defs>
    <linearGradient id="grad1" x1="0%" y1="0%" x2="0%" y2="100%">
<stop offset="0%" style="stop-color:#11035D;stop-opacity:1;" />
<stop offset="50%" style="stop-color:#555555;stop-opacity:1;" />
<stop offset="100%" style="stop-color:#9E96FF;stop-opacity:1;" />
    </linearGradient>
  </defs>
<rect id="background" width="100%" height="100%" fill="url(#grad1)"/>
<g id="rotatelayer" transform="rotate(0, 475, 475)">
<path d="M 675 474.99999999999994 Z" style="stroke:#AEAEAE; stroke-opacity: 0;fill:#FFFF00; fill-opacity: 0;"/>
<circle cx="475" cy="475" r="200" style="stroke:#AEAEAE; stroke-opacity: 0;fill:#FFFF00; fill-opacity: 0;"/>
<path d="M 763 474.99999999999994 Z" style="stroke:#000000; stroke-opacity: 0.39090909090909093;fill:#FFFF00; fill-opacity: 0;"/>
<circle cx="563" cy="475" r="200" style="stroke:#000000; stroke-opacity: 0.39090909090909093;fill:#FFFF00; fill-opacity: 0;"/>
<path d="M 760.001472713438 452.223924030978 Z" style="stroke:#000000; stroke-opacity: 0.6181818181818182;fill:#FFFF00; fill-opacity: 0;"/>
<circle cx="560.001472713438" cy="452.2239240309781" r="200" style="stroke:#000000; stroke-opacity: 0.6181818181818182;fill:#FFFF00; fill-opacity: 0;"/>
<path d="M 751.2102355330305 430.9999999999999 Z" style="stroke:#000000; stroke-opacity: 0.39090909090909093;fill:#FFFF00; fill-opacity: 0;"/>
<circle cx="551.2102355330305" cy="430.99999999999994" r="200" style="stroke:#000000; stroke-opacity: 0.39090909090909093;fill:#FFFF00; fill-opacity: 0;"/>
<path d="M 737.2253967444162 412.77460325558377 Z" style="stroke:#000000; stroke-opacity: 0.6181818181818182;fill:#FFFF00; fill-opacity: 0;"/>
<circle cx="537.2253967444162" cy="412.7746032555838" r="200" style="stroke:#000000; stroke-opacity: 0.6181818181818182;fill:#FFFF00; fill-opacity: 0;"/>
<path d="M 719 398.7897644669693 Z" style="stroke:#000000; stroke-opacity: 0.39090909090909093;fill:#FFFF00; fill-opacity: 0;"/>
<circle cx="519" cy="398.78976446696936" r="200" style="stroke:#000000; stroke-opacity: 0.39090909090909093;fill:#FFFF00; fill-opacity: 0;"/>
<path d="M 697.7760759690218 389.9985272865619 Z" style="stroke:#000000; stroke-opacity: 0.6181818181818182;fill:#FFFF00; fill-opacity: 0;"/>
<circle cx="497.77607596902175" cy="389.99852728656197" r="200" style="stroke:#000000; stroke-opacity: 0.6181818181818182;fill:#FFFF00; fill-opacity: 0;"/>
<path d="M 675 386.99999999999994 Z" style="stroke:#000000; stroke-opacity: 0.39090909090909093;fill:#FFFF00; fill-opacity: 0;"/>
<circle cx="475" cy="387" r="200" style="stroke:#000000; stroke-opacity: 0.39090909090909093;fill:#FFFF00; fill-opacity: 0;"/>
<path d="M 652.2239240309781 389.9985272865619 Z" style="stroke:#000000; stroke-opacity: 0.6181818181818182;fill:#FFFF00; fill-opacity: 0;"/>
<circle cx="452.2239240309781" cy="389.99852728656197" r="200" style="stroke:#000000; stroke-opacity: 0.6181818181818182;fill:#FFFF00; fill-opacity: 0;"/>
<path d="M 631 398.78976446696936 Z" style="stroke:#000000; stroke-opacity: 0.39090909090909093;fill:#FFFF00; fill-opacity: 0;"/>
<circle cx="430.99999999999994" cy="398.7897644669694" r="200" style="stroke:#000000; stroke-opacity: 0.39090909090909093;fill:#FFFF00; fill-opacity: 0;"/>
<path d="M 612.7746032555838 412.7746032555838 Z" style="stroke:#000000; stroke-opacity: 0.6181818181818182;fill:#FFFF00; fill-opacity: 0;"/>
<circle cx="412.77460325558377" cy="412.7746032555839" r="200" style="stroke:#000000; stroke-opacity: 0.6181818181818182;fill:#FFFF00; fill-opacity: 0;"/>
<path d="M 598.7897644669694 430.99999999999994 Z" style="stroke:#000000; stroke-opacity: 0.39090909090909093;fill:#FFFF00; fill-opacity: 0;"/>
<circle cx="398.78976446696936" cy="431" r="200" style="stroke:#000000; stroke-opacity: 0.39090909090909093;fill:#FFFF00; fill-opacity: 0;"/>
<path d="M 589.998527286562 452.22392403097814 Z" style="stroke:#000000; stroke-opacity: 0.6181818181818182;fill:#FFFF00; fill-opacity: 0;"/>
<circle cx="389.99852728656197" cy="452.2239240309782" r="200" style="stroke:#000000; stroke-opacity: 0.6181818181818182;fill:#FFFF00; fill-opacity: 0;"/>
<path d="M 587 474.99999999999994 Z" style="stroke:#000000; stroke-opacity: 0.39090909090909093;fill:#FFFF00; fill-opacity: 0;"/>
<circle cx="387" cy="475" r="200" style="stroke:#000000; stroke-opacity: 0.39090909090909093;fill:#FFFF00; fill-opacity: 0;"/>
<path d="M 589.998527286562 497.7760759690218 Z" style="stroke:#000000; stroke-opacity: 0.6181818181818182;fill:#FFFF00; fill-opacity: 0;"/>
<circle cx="389.99852728656197" cy="497.77607596902186" r="200" style="stroke:#000000; stroke-opacity: 0.6181818181818182;fill:#FFFF00; fill-opacity: 0;"/>
<path d="M 598.7897644669695 519 Z" style="stroke:#000000; stroke-opacity: 0.39090909090909093;fill:#FFFF00; fill-opacity: 0;"/>
<circle cx="398.7897644669694" cy="519" r="200" style="stroke:#000000; stroke-opacity: 0.39090909090909093;fill:#FFFF00; fill-opacity: 0;"/>
<path d="M 612.7746032555838 537.2253967444162 Z" style="stroke:#000000; stroke-opacity: 0.6181818181818182;fill:#FFFF00; fill-opacity: 0;"/>
<circle cx="412.7746032555838" cy="537.2253967444162" r="200" style="stroke:#000000; stroke-opacity: 0.6181818181818182;fill:#FFFF00; fill-opacity: 0;"/>
<path d="M 631 551.2102355330306 Z" style="stroke:#000000; stroke-opacity: 0.39090909090909093;fill:#FFFF00; fill-opacity: 0;"/>
<circle cx="431" cy="551.2102355330306" r="200" style="stroke:#000000; stroke-opacity: 0.39090909090909093;fill:#FFFF00; fill-opacity: 0;"/>
<path d="M 652.2239240309782 560.001472713438 Z" style="stroke:#000000; stroke-opacity: 0.6181818181818182;fill:#FFFF00; fill-opacity: 0;"/>
<circle cx="452.2239240309782" cy="560.001472713438" r="200" style="stroke:#000000; stroke-opacity: 0.6181818181818182;fill:#FFFF00; fill-opacity: 0;"/>
<path d="M 675 563 Z" style="stroke:#000000; stroke-opacity: 0.39090909090909093;fill:#FFFF00; fill-opacity: 0;"/>
<circle cx="475" cy="563" r="200" style="stroke:#000000; stroke-opacity: 0.39090909090909093;fill:#FFFF00; fill-opacity: 0;"/>
<path d="M 697.7760759690218 560.001472713438 Z" style="stroke:#000000; stroke-opacity: 0.6181818181818182;fill:#FFFF00; fill-opacity: 0;"/>
<circle cx="497.7760759690218" cy="560.001472713438" r="200" style="stroke:#000000; stroke-opacity: 0.6181818181818182;fill:#FFFF00; fill-opacity: 0;"/>
<path d="M 719 551.2102355330305 Z" style="stroke:#000000; stroke-opacity: 0.39090909090909093;fill:#FFFF00; fill-opacity: 0;"/>
<circle cx="519" cy="551.2102355330305" r="200" style="stroke:#000000; stroke-opacity: 0.39090909090909093;fill:#FFFF00; fill-opacity: 0;"/>
<path d="M 737.2253967444162 537.2253967444162 Z" style="stroke:#000000; stroke-opacity: 0.6181818181818182;fill:#FFFF00; fill-opacity: 0;"/>
<circle cx="537.2253967444162" cy="537.2253967444162" r="200" style="stroke:#000000; stroke-opacity: 0.6181818181818182;fill:#FFFF00; fill-opacity: 0;"/>
<path d="M 751.2102355330306 519 Z" style="stroke:#000000; stroke-opacity: 0.39090909090909093;fill:#FFFF00; fill-opacity: 0;"/>
<circle cx="551.2102355330306" cy="519" r="200" style="stroke:#000000; stroke-opacity: 0.39090909090909093;fill:#FFFF00; fill-opacity: 0;"/>
<path d="M 760.001472713438 497.77607596902175 Z" style="stroke:#000000; stroke-opacity: 0.6181818181818182;fill:#FFFF00; fill-opacity: 0;"/>
<circle cx="560.001472713438" cy="497.7760759690218" r="200" style="stroke:#000000; stroke-opacity: 0.6181818181818182;fill:#FFFF00; fill-opacity: 0;"/>
<path d="M 560.001472713438 497.7760759690218 L 544.9938921077453 503.9924193943072 L 551.2102355330306 519 L 566.2178161387235 512.7836565747145 Z" style="stroke:#000000; stroke-opacity: 0.39090909090909093;fill:#C860AF; fill-opacity: 0;"/>
<path d="M 551.2102355330306 519 L 535.1051177665154 521.120278977901 L 537.2253967444162 537.2253967444162 L 553.3305145109316 535.1051177665153 Z" style="stroke:#000000; stroke-opacity: 0.39090909090909093;fill:#C860AF; fill-opacity: 0;"/>
<path d="M 537.2253967444162 537.2253967444162 L 521.120278977901 535.1051177665153 L 519 551.2102355330305 L 535.1051177665153 553.3305145109315 Z" style="stroke:#000000; stroke-opacity: 0.39090909090909093;fill:#C860AF; fill-opacity: 0;"/>
<path d="M 519 551.2102355330305 L 503.99241939430715 544.9938921077452 L 497.7760759690218 560.001472713438 L 512.7836565747147 566.2178161387234 Z" style="stroke:#000000; stroke-opacity: 0.39090909090909093;fill:#C860AF; fill-opacity: 0;"/>
<path d="M 497.7760759690218 560.001472713438 L 484.8887743412299 550.1126983722081 L 475 563 L 487.8873016277919 572.8887743412299 Z" style="stroke:#000000; stroke-opacity: 0.39090909090909093;fill:#C860AF; fill-opacity: 0;"/>
<path d="M 475 563 L 465.1112256587701 550.1126983722081 L 452.2239240309782 560.001472713438 L 462.1126983722081 572.8887743412299 Z" style="stroke:#000000; stroke-opacity: 0.39090909090909093;fill:#C860AF; fill-opacity: 0;"/>
<path d="M 452.2239240309782 560.001472713438 L 446.0075806056928 544.9938921077453 L 431 551.2102355330306 L 437.2163434252854 566.2178161387235 Z" style="stroke:#000000; stroke-opacity: 0.39090909090909093;fill:#C860AF; fill-opacity: 0;"/>
<path d="M 431 551.2102355330306 L 428.8797210220991 535.1051177665154 L 412.7746032555838 537.2253967444162 L 414.8948822334847 553.3305145109316 Z" style="stroke:#000000; stroke-opacity: 0.39090909090909093;fill:#C860AF; fill-opacity: 0;"/>
<path d="M 412.7746032555838 537.2253967444162 L 414.89488223348474 521.120278977901 L 398.7897644669694 519 L 396.6694854890685 535.1051177665153 Z" style="stroke:#000000; stroke-opacity: 0.39090909090909093;fill:#C860AF; fill-opacity: 0;"/>
<path d="M 398.7897644669694 519 L 405.0061078922548 503.99241939430715 L 389.99852728656197 497.77607596902186 L 383.7821838612766 512.7836565747147 Z" style="stroke:#000000; stroke-opacity: 0.39090909090909093;fill:#C860AF; fill-opacity: 0;"/>
<path d="M 389.99852728656197 497.77607596902186 L 399.8873016277919 484.88877434123 L 387 475 L 377.1112256587701 487.88730162779194 Z" style="stroke:#000000; stroke-opacity: 0.39090909090909093;fill:#C860AF; fill-opacity: 0;"/>
<path d="M 387 475 L 399.8873016277919 465.1112256587701 L 389.99852728656197 452.2239240309782 L 377.1112256587701 462.1126983722081 Z" style="stroke:#000000; stroke-opacity: 0.39090909090909093;fill:#C860AF; fill-opacity: 0;"/>
<path d="M 389.99852728656197 452.2239240309782 L 405.00610789225476 446.0075806056928 L 398.78976446696936 431 L 383.78218386127656 437.2163434252854 Z" style="stroke:#000000; stroke-opacity: 0.39090909090909093;fill:#C860AF; fill-opacity: 0;"/>
<path d="M 398.78976446696936 431 L 414.8948822334846 428.87972102209915 L 412.77460325558377 412.7746032555839 L 396.6694854890685 414.89488223348474 Z" style="stroke:#000000; stroke-opacity: 0.39090909090909093;fill:#C860AF; fill-opacity: 0;"/>
<path d="M 412.77460325558377 412.7746032555839 L 428.87972102209915 414.89488223348474 L 430.99999999999994 398.7897644669694 L 414.8948822334846 396.6694854890685 Z" style="stroke:#000000; stroke-opacity: 0.39090909090909093;fill:#C860AF; fill-opacity: 0;"/>
<path d="M 430.99999999999994 398.7897644669694 L 446.00758060569274 405.0061078922548 L 452.2239240309781 389.99852728656197 L 437.21634342528523 383.7821838612766 Z" style="stroke:#000000; stroke-opacity: 0.39090909090909093;fill:#C860AF; fill-opacity: 0;"/>
<path d="M 452.2239240309781 389.99852728656197 L 465.11122565877 399.88730162779194 L 475 387 L 462.11269837220806 377.11122565877 Z" style="stroke:#000000; stroke-opacity: 0.39090909090909093;fill:#C860AF; fill-opacity: 0;"/>
<path d="M 475 387 L 484.8887743412299 399.8873016277919 L 497.77607596902175 389.99852728656197 L 487.8873016277919 377.1112256587701 Z" style="stroke:#000000; stroke-opacity: 0.39090909090909093;fill:#C860AF; fill-opacity: 0;"/>
<path d="M 497.77607596902175 389.99852728656197 L 503.9924193943072 405.0061078922548 L 519 398.78976446696936 L 512.7836565747145 383.7821838612765 Z" style="stroke:#000000; stroke-opacity: 0.39090909090909093;fill:#C860AF; fill-opacity: 0;"/>
<path d="M 519 398.78976446696936 L 521.1202789779009 414.89488223348474 L 537.2253967444162 412.7746032555838 L 535.1051177665154 396.6694854890685 Z" style="stroke:#000000; stroke-opacity: 0.39090909090909093;fill:#C860AF; fill-opacity: 0;"/>
<path d="M 537.2253967444162 412.7746032555838 L 535.1051177665154 428.87972102209903 L 551.2102355330305 430.99999999999994 L 553.3305145109314 414.89488223348474 Z" style="stroke:#000000; stroke-opacity: 0.39090909090909093;fill:#C860AF; fill-opacity: 0;"/>
<path d="M 551.2102355330305 430.99999999999994 L 544.9938921077452 446.00758060569274 L 560.001472713438 452.2239240309781 L 566.2178161387234 437.21634342528523 Z" style="stroke:#000000; stroke-opacity: 0.39090909090909093;fill:#C860AF; fill-opacity: 0;"/>
<path d="M 560.001472713438 452.2239240309781 L 550.1126983722081 465.11122565877 L 563 475 L 572.8887743412299 462.11269837220806 Z" style="stroke:#000000; stroke-opacity: 0.39090909090909093;fill:#C860AF; fill-opacity: 0;"/>
<path d="M 563 475 L 550.1126983722081 484.8887743412299 L 560.001472713438 497.7760759690218 L 572.8887743412299 487.8873016277919 Z" style="stroke:#000000; stroke-opacity: 0.39090909090909093;fill:#C860AF; fill-opacity: 0;"/>
<path d="M 544.9938921077453 503.9924193943072 L 531.4855751453334 507.6119620154891 L 535.1051177665154 521.120278977901 L 548.6134347289272 517.500736356719 Z" style="stroke:#000014; stroke-opacity: 0.39090909090909093;fill:#C860C3; fill-opacity: 0;"/>
<path d="M 535.1051177665154 521.120278977901 L 521.120278977901 521.1202789779009 L 521.120278977901 535.1051177665153 L 535.1051177665153 535.1051177665154 Z" style="stroke:#000014; stroke-opacity: 0.39090909090909093;fill:#C860C3; fill-opacity: 0;"/>
<path d="M 521.120278977901 535.1051177665153 L 507.6119620154891 531.4855751453333 L 503.99241939430715 544.9938921077452 L 517.500736356719 548.6134347289271 Z" style="stroke:#000014; stroke-opacity: 0.39090909090909093;fill:#C860C3; fill-opacity: 0;"/>
<path d="M 503.99241939430715 544.9938921077452 L 491.88119373553707 538.0014727134381 L 484.8887743412299 550.1126983722081 L 497 557.1051177665153 Z" style="stroke:#000014; stroke-opacity: 0.39090909090909093;fill:#C860C3; fill-opacity: 0;"/>
<path d="M 484.8887743412299 550.1126983722081 L 475 540.2239240309782 L 465.1112256587701 550.1126983722081 L 475 560.001472713438 Z" style="stroke:#000014; stroke-opacity: 0.39090909090909093;fill:#C860C3; fill-opacity: 0;"/>
<path d="M 465.1112256587701 550.1126983722081 L 458.1188062644628 538.001472713438 L 446.0075806056928 544.9938921077453 L 453 557.1051177665154 Z" style="stroke:#000014; stroke-opacity: 0.39090909090909093;fill:#C860C3; fill-opacity: 0;"/>
<path d="M 446.0075806056928 544.9938921077453 L 442.3880379845109 531.4855751453335 L 428.8797210220991 535.1051177665154 L 432.499263643281 548.6134347289271 Z" style="stroke:#000014; stroke-opacity: 0.39090909090909093;fill:#C860C3; fill-opacity: 0;"/>
<path d="M 428.8797210220991 535.1051177665154 L 428.8797210220991 521.1202789779011 L 414.89488223348474 521.120278977901 L 414.8948822334847 535.1051177665154 Z" style="stroke:#000014; stroke-opacity: 0.39090909090909093;fill:#C860C3; fill-opacity: 0;"/>
<path d="M 414.89488223348474 521.120278977901 L 418.5144248546667 507.6119620154891 L 405.0061078922548 503.99241939430715 L 401.38656527107287 517.500736356719 Z" style="stroke:#000014; stroke-opacity: 0.39090909090909093;fill:#C860C3; fill-opacity: 0;"/>
<path d="M 405.0061078922548 503.99241939430715 L 411.99852728656197 491.8811937355371 L 399.8873016277919 484.88877434123 L 392.89488223348474 497.00000000000006 Z" style="stroke:#000014; stroke-opacity: 0.39090909090909093;fill:#C860C3; fill-opacity: 0;"/>
<path d="M 399.8873016277919 484.88877434123 L 409.77607596902186 475 L 399.8873016277919 465.1112256587701 L 389.9985272865619 475 Z" style="stroke:#000014; stroke-opacity: 0.39090909090909093;fill:#C860C3; fill-opacity: 0;"/>
<path d="M 399.8873016277919 465.1112256587701 L 411.99852728656197 458.1188062644629 L 405.00610789225476 446.0075806056928 L 392.8948822334846 452.99999999999994 Z" style="stroke:#000014; stroke-opacity: 0.39090909090909093;fill:#C860C3; fill-opacity: 0;"/>
<path d="M 405.00610789225476 446.0075806056928 L 418.5144248546665 442.3880379845109 L 414.8948822334846 428.87972102209915 L 401.3865652710728 432.499263643281 Z" style="stroke:#000014; stroke-opacity: 0.39090909090909093;fill:#C860C3; fill-opacity: 0;"/>
<path d="M 414.8948822334846 428.87972102209915 L 428.8797210220991 428.8797210220992 L 428.87972102209915 414.89488223348474 L 414.8948822334847 414.8948822334847 Z" style="stroke:#000014; stroke-opacity: 0.39090909090909093;fill:#C860C3; fill-opacity: 0;"/>
<path d="M 428.87972102209915 414.89488223348474 L 442.3880379845109 418.5144248546666 L 446.00758060569274 405.0061078922548 L 432.499263643281 401.386565271073 Z" style="stroke:#000014; stroke-opacity: 0.39090909090909093;fill:#C860C3; fill-opacity: 0;"/>
<path d="M 446.00758060569274 405.0061078922548 L 458.1188062644629 411.9985272865621 L 465.11122565877 399.88730162779194 L 452.99999999999994 392.89488223348474 Z" style="stroke:#000014; stroke-opacity: 0.39090909090909093;fill:#C860C3; fill-opacity: 0;"/>
<path d="M 465.11122565877 399.88730162779194 L 475.00000000000006 409.77607596902186 L 484.8887743412299 399.8873016277919 L 474.99999999999994 389.9985272865619 Z" style="stroke:#000014; stroke-opacity: 0.39090909090909093;fill:#C860C3; fill-opacity: 0;"/>
<path d="M 484.8887743412299 399.8873016277919 L 491.8811937355371 411.99852728656197 L 503.9924193943072 405.0061078922548 L 497.00000000000006 392.89488223348474 Z" style="stroke:#000014; stroke-opacity: 0.39090909090909093;fill:#C860C3; fill-opacity: 0;"/>
<path d="M 503.9924193943072 405.0061078922548 L 507.6119620154891 418.5144248546666 L 521.1202789779009 414.89488223348474 L 517.500736356719 401.386565271073 Z" style="stroke:#000014; stroke-opacity: 0.39090909090909093;fill:#C860C3; fill-opacity: 0;"/>
<path d="M 521.1202789779009 414.89488223348474 L 521.120278977901 428.87972102209915 L 535.1051177665154 428.87972102209903 L 535.1051177665153 414.8948822334846 Z" style="stroke:#000014; stroke-opacity: 0.39090909090909093;fill:#C860C3; fill-opacity: 0;"/>
<path d="M 535.1051177665154 428.87972102209903 L 531.4855751453333 442.3880379845108 L 544.9938921077452 446.00758060569274 L 548.6134347289271 432.499263643281 Z" style="stroke:#000014; stroke-opacity: 0.39090909090909093;fill:#C860C3; fill-opacity: 0;"/>
<path d="M 544.9938921077452 446.00758060569274 L 538.001472713438 458.1188062644629 L 550.1126983722081 465.11122565877 L 557.1051177665154 452.99999999999994 Z" style="stroke:#000014; stroke-opacity: 0.39090909090909093;fill:#C860C3; fill-opacity: 0;"/>
<path d="M 550.1126983722081 465.11122565877 L 540.2239240309782 475 L 550.1126983722081 484.8887743412299 L 560.001472713438 475 Z" style="stroke:#000014; stroke-opacity: 0.39090909090909093;fill:#C860C3; fill-opacity: 0;"/>
<path d="M 550.1126983722081 484.8887743412299 L 538.001472713438 491.8811937355372 L 544.9938921077453 503.9924193943072 L 557.1051177665154 497 Z" style="stroke:#000014; stroke-opacity: 0.39090909090909093;fill:#C860C3; fill-opacity: 0;"/>
<path d="M 531.4855751453334 507.6119620154891 L 519.5487685804113 509.18347241297874 L 521.120278977901 521.1202789779009 L 533.0570855428231 519.5487685804112 Z" style="stroke:#000028; stroke-opacity: 0.39090909090909093;fill:#C860D7; fill-opacity: 0;"/>
<path d="M 521.120278977901 521.1202789779009 L 509.18347241297874 519.5487685804111 L 507.6119620154891 531.4855751453333 L 519.5487685804112 533.0570855428231 Z" style="stroke:#000028; stroke-opacity: 0.39090909090909093;fill:#C860D7; fill-opacity: 0;"/>
<path d="M 507.6119620154891 531.4855751453333 L 496.48862909146067 526.8781397894097 L 491.88119373553707 538.0014727134381 L 503.0045266595655 542.6089080693616 Z" style="stroke:#000028; stroke-opacity: 0.39090909090909093;fill:#C860D7; fill-opacity: 0;"/>
<path d="M 491.88119373553707 538.0014727134381 L 482.3293712089985 530.6721015044395 L 475 540.2239240309782 L 484.55182252653856 547.5532952399767 Z" style="stroke:#000028; stroke-opacity: 0.39090909090909093;fill:#C860D7; fill-opacity: 0;"/>
<path d="M 475 540.2239240309782 L 467.6706287910015 530.6721015044395 L 458.1188062644628 538.001472713438 L 465.4481774734613 547.5532952399767 Z" style="stroke:#000028; stroke-opacity: 0.39090909090909093;fill:#C860D7; fill-opacity: 0;"/>
<path d="M 458.1188062644628 538.001472713438 L 453.5113709085391 526.8781397894098 L 442.3880379845109 531.4855751453335 L 446.9954733404346 542.6089080693617 Z" style="stroke:#000028; stroke-opacity: 0.39090909090909093;fill:#C860D7; fill-opacity: 0;"/>
<path d="M 442.3880379845109 531.4855751453335 L 440.81652758702126 519.5487685804114 L 428.8797210220991 521.1202789779011 L 430.4512314195888 533.0570855428232 Z" style="stroke:#000028; stroke-opacity: 0.39090909090909093;fill:#C860D7; fill-opacity: 0;"/>
<path d="M 428.8797210220991 521.1202789779011 L 430.4512314195889 509.18347241297886 L 418.5144248546667 507.6119620154891 L 416.9429144571769 519.5487685804113 Z" style="stroke:#000028; stroke-opacity: 0.39090909090909093;fill:#C860D7; fill-opacity: 0;"/>
<path d="M 418.5144248546667 507.6119620154891 L 423.1218602105903 496.4886290914607 L 411.99852728656197 491.8811937355371 L 407.39109193063837 503.00452665956544 Z" style="stroke:#000028; stroke-opacity: 0.39090909090909093;fill:#C860D7; fill-opacity: 0;"/>
<path d="M 411.99852728656197 491.8811937355371 L 419.3278984955605 482.3293712089985 L 409.77607596902186 475 L 402.4467047600233 484.5518225265387 Z" style="stroke:#000028; stroke-opacity: 0.39090909090909093;fill:#C860D7; fill-opacity: 0;"/>
<path d="M 409.77607596902186 475 L 419.3278984955605 467.6706287910015 L 411.99852728656197 458.1188062644629 L 402.4467047600233 465.4481774734613 Z" style="stroke:#000028; stroke-opacity: 0.39090909090909093;fill:#C860D7; fill-opacity: 0;"/>
<path d="M 411.99852728656197 458.1188062644629 L 423.12186021059017 453.5113709085391 L 418.5144248546665 442.3880379845109 L 407.39109193063825 446.9954733404346 Z" style="stroke:#000028; stroke-opacity: 0.39090909090909093;fill:#C860D7; fill-opacity: 0;"/>
<path d="M 418.5144248546665 442.3880379845109 L 430.4512314195886 440.8165275870213 L 428.8797210220991 428.8797210220992 L 416.942914457177 430.45123141958874 Z" style="stroke:#000028; stroke-opacity: 0.39090909090909093;fill:#C860D7; fill-opacity: 0;"/>
<path d="M 428.8797210220991 428.8797210220992 L 440.81652758702137 430.4512314195888 L 442.3880379845109 418.5144248546666 L 430.4512314195887 416.94291445717704 Z" style="stroke:#000028; stroke-opacity: 0.39090909090909093;fill:#C860D7; fill-opacity: 0;"/>
<path d="M 442.3880379845109 418.5144248546666 L 453.5113709085391 423.1218602105903 L 458.1188062644629 411.9985272865621 L 446.9954733404346 407.39109193063837 Z" style="stroke:#000028; stroke-opacity: 0.39090909090909093;fill:#C860D7; fill-opacity: 0;"/>
<path d="M 458.1188062644629 411.9985272865621 L 467.6706287910016 419.3278984955606 L 475.00000000000006 409.77607596902186 L 465.4481774734613 402.4467047600234 Z" style="stroke:#000028; stroke-opacity: 0.39090909090909093;fill:#C860D7; fill-opacity: 0;"/>
<path d="M 475.00000000000006 409.77607596902186 L 482.32937120899857 419.3278984955604 L 491.8811937355371 411.99852728656197 L 484.5518225265386 402.44670476002335 Z" style="stroke:#000028; stroke-opacity: 0.39090909090909093;fill:#C860D7; fill-opacity: 0;"/>
<path d="M 491.8811937355371 411.99852728656197 L 496.48862909146084 423.1218602105903 L 507.6119620154891 418.5144248546666 L 503.00452665956544 407.39109193063825 Z" style="stroke:#000028; stroke-opacity: 0.39090909090909093;fill:#C860D7; fill-opacity: 0;"/>
<path d="M 507.6119620154891 418.5144248546666 L 509.1834724129787 430.4512314195888 L 521.120278977901 428.87972102209915 L 519.5487685804112 416.9429144571769 Z" style="stroke:#000028; stroke-opacity: 0.39090909090909093;fill:#C860D7; fill-opacity: 0;"/>
<path d="M 521.120278977901 428.87972102209915 L 519.5487685804112 440.81652758702114 L 531.4855751453333 442.3880379845108 L 533.057085542823 430.4512314195888 Z" style="stroke:#000028; stroke-opacity: 0.39090909090909093;fill:#C860D7; fill-opacity: 0;"/>
<path d="M 531.4855751453333 442.3880379845108 L 526.8781397894096 453.5113709085392 L 538.001472713438 458.1188062644629 L 542.6089080693617 446.9954733404345 Z" style="stroke:#000028; stroke-opacity: 0.39090909090909093;fill:#C860D7; fill-opacity: 0;"/>
<path d="M 538.001472713438 458.1188062644629 L 530.6721015044395 467.6706287910015 L 540.2239240309782 475 L 547.5532952399767 465.4481774734613 Z" style="stroke:#000028; stroke-opacity: 0.39090909090909093;fill:#C860D7; fill-opacity: 0;"/>
<path d="M 540.2239240309782 475 L 530.6721015044395 482.3293712089985 L 538.001472713438 491.8811937355372 L 547.5532952399767 484.5518225265387 Z" style="stroke:#000028; stroke-opacity: 0.39090909090909093;fill:#C860D7; fill-opacity: 0;"/>
<path d="M 538.001472713438 491.8811937355372 L 526.8781397894097 496.48862909146084 L 531.4855751453334 507.6119620154891 L 542.6089080693616 503.00452665956544 Z" style="stroke:#000028; stroke-opacity: 0.39090909090909093;fill:#C860D7; fill-opacity: 0;"/>
<path d="M 519.5487685804113 509.18347241297874 L 509.1834724129788 509.1834724129787 L 509.18347241297874 519.5487685804111 L 519.5487685804111 519.5487685804112 Z" style="stroke:#00003C; stroke-opacity: 0.39090909090909093;fill:#C860EB; fill-opacity: 0;"/>
<path d="M 509.18347241297874 519.5487685804111 L 499.1713651477204 516.8660325241514 L 496.48862909146067 526.8781397894097 L 506.500736356719 529.5608758456696 Z" style="stroke:#00003C; stroke-opacity: 0.39090909090909093;fill:#C860EB; fill-opacity: 0;"/>
<path d="M 496.48862909146067 526.8781397894097 L 487.5120192927147 521.6954917056935 L 482.3293712089985 530.6721015044395 L 491.3059810077445 535.8547495881558 Z" style="stroke:#00003C; stroke-opacity: 0.39090909090909093;fill:#C860EB; fill-opacity: 0;"/>
<path d="M 482.3293712089985 530.6721015044395 L 475 523.342730295441 L 467.6706287910015 530.6721015044395 L 475 538.001472713438 Z" style="stroke:#00003C; stroke-opacity: 0.39090909090909093;fill:#C860EB; fill-opacity: 0;"/>
<path d="M 467.6706287910015 530.6721015044395 L 462.48798070728515 521.6954917056935 L 453.5113709085391 526.8781397894098 L 458.69401899225545 535.854749588156 Z" style="stroke:#00003C; stroke-opacity: 0.39090909090909093;fill:#C860EB; fill-opacity: 0;"/>
<path d="M 453.5113709085391 526.8781397894098 L 450.8286348522794 516.8660325241517 L 440.81652758702126 519.5487685804114 L 443.499263643281 529.5608758456697 Z" style="stroke:#00003C; stroke-opacity: 0.39090909090909093;fill:#C860EB; fill-opacity: 0;"/>
<path d="M 440.81652758702126 519.5487685804114 L 440.81652758702137 509.1834724129789 L 430.4512314195889 509.18347241297886 L 430.4512314195888 519.5487685804112 Z" style="stroke:#00003C; stroke-opacity: 0.39090909090909093;fill:#C860EB; fill-opacity: 0;"/>
<path d="M 430.4512314195889 509.18347241297886 L 433.13396747584864 499.17136514772045 L 423.1218602105903 496.4886290914607 L 420.43912415433056 506.5007363567191 Z" style="stroke:#00003C; stroke-opacity: 0.39090909090909093;fill:#C860EB; fill-opacity: 0;"/>
<path d="M 423.1218602105903 496.4886290914607 L 428.3045082943065 487.51201929271474 L 419.3278984955605 482.3293712089985 L 414.14525041184424 491.30598100774455 Z" style="stroke:#00003C; stroke-opacity: 0.39090909090909093;fill:#C860EB; fill-opacity: 0;"/>
<path d="M 419.3278984955605 482.3293712089985 L 426.657269704559 475 L 419.3278984955605 467.6706287910015 L 411.99852728656197 475 Z" style="stroke:#00003C; stroke-opacity: 0.39090909090909093;fill:#C860EB; fill-opacity: 0;"/>
<path d="M 419.3278984955605 467.6706287910015 L 428.3045082943065 462.48798070728515 L 423.12186021059017 453.5113709085391 L 414.14525041184413 458.69401899225545 Z" style="stroke:#00003C; stroke-opacity: 0.39090909090909093;fill:#C860EB; fill-opacity: 0;"/>
<path d="M 423.12186021059017 453.5113709085391 L 433.1339674758483 450.8286348522795 L 430.4512314195886 440.8165275870213 L 420.43912415433056 443.499263643281 Z" style="stroke:#00003C; stroke-opacity: 0.39090909090909093;fill:#C860EB; fill-opacity: 0;"/>
<path d="M 430.4512314195886 440.8165275870213 L 440.8165275870213 440.8165275870214 L 440.81652758702137 430.4512314195888 L 430.45123141958874 430.4512314195886 Z" style="stroke:#00003C; stroke-opacity: 0.39090909090909093;fill:#C860EB; fill-opacity: 0;"/>
<path d="M 440.81652758702137 430.4512314195888 L 450.8286348522795 433.1339674758484 L 453.5113709085391 423.1218602105903 L 443.499263643281 420.43912415433067 Z" style="stroke:#00003C; stroke-opacity: 0.39090909090909093;fill:#C860EB; fill-opacity: 0;"/>
<path d="M 453.5113709085391 423.1218602105903 L 462.4879807072852 428.3045082943067 L 467.6706287910016 419.3278984955606 L 458.6940189922555 414.1452504118442 Z" style="stroke:#00003C; stroke-opacity: 0.39090909090909093;fill:#C860EB; fill-opacity: 0;"/>
<path d="M 467.6706287910016 419.3278984955606 L 475.0000000000001 426.657269704559 L 482.32937120899857 419.3278984955604 L 475 411.9985272865621 Z" style="stroke:#00003C; stroke-opacity: 0.39090909090909093;fill:#C860EB; fill-opacity: 0;"/>
<path d="M 482.32937120899857 419.3278984955604 L 487.51201929271474 428.3045082943065 L 496.48862909146084 423.1218602105903 L 491.30598100774466 414.14525041184424 Z" style="stroke:#00003C; stroke-opacity: 0.39090909090909093;fill:#C860EB; fill-opacity: 0;"/>
<path d="M 496.48862909146084 423.1218602105903 L 499.1713651477205 433.13396747584846 L 509.1834724129787 430.4512314195888 L 506.500736356719 420.4391241543306 Z" style="stroke:#00003C; stroke-opacity: 0.39090909090909093;fill:#C860EB; fill-opacity: 0;"/>
<path d="M 509.1834724129787 430.4512314195888 L 509.1834724129788 440.8165275870212 L 519.5487685804112 440.81652758702114 L 519.5487685804111 430.45123141958874 Z" style="stroke:#00003C; stroke-opacity: 0.39090909090909093;fill:#C860EB; fill-opacity: 0;"/>
<path d="M 519.5487685804112 440.81652758702114 L 516.8660325241515 450.8286348522794 L 526.8781397894096 453.5113709085392 L 529.5608758456694 443.499263643281 Z" style="stroke:#00003C; stroke-opacity: 0.39090909090909093;fill:#C860EB; fill-opacity: 0;"/>
<path d="M 526.8781397894096 453.5113709085392 L 521.6954917056934 462.4879807072853 L 530.6721015044395 467.6706287910015 L 535.8547495881556 458.6940189922554 Z" style="stroke:#00003C; stroke-opacity: 0.39090909090909093;fill:#C860EB; fill-opacity: 0;"/>
<path d="M 530.6721015044395 467.6706287910015 L 523.342730295441 475 L 530.6721015044395 482.3293712089985 L 538.001472713438 475 Z" style="stroke:#00003C; stroke-opacity: 0.39090909090909093;fill:#C860EB; fill-opacity: 0;"/>
<path d="M 530.6721015044395 482.3293712089985 L 521.6954917056935 487.51201929271474 L 526.8781397894097 496.48862909146084 L 535.8547495881558 491.30598100774455 Z" style="stroke:#00003C; stroke-opacity: 0.39090909090909093;fill:#C860EB; fill-opacity: 0;"/>
<path d="M 526.8781397894097 496.48862909146084 L 516.8660325241515 499.17136514772056 L 519.5487685804113 509.18347241297874 L 529.5608758456694 506.50073635671896 Z" style="stroke:#00003C; stroke-opacity: 0.39090909090909093;fill:#C860EB; fill-opacity: 0;"/>
<path d="M 509.1834724129788 509.1834724129787 L 500.33613872476326 508.01869883593577 L 499.1713651477204 516.8660325241514 L 508.018698835936 518.0308061011942 Z" style="stroke:#000050; stroke-opacity: 0.39090909090909093;fill:#C860FF; fill-opacity: 0;"/>
<path d="M 499.1713651477204 516.8660325241514 L 490.92696262944645 513.4510891874196 L 487.5120192927147 521.6954917056935 L 495.75642181098857 525.1104350424254 Z" style="stroke:#000050; stroke-opacity: 0.39090909090909093;fill:#C860FF; fill-opacity: 0;"/>
<path d="M 487.5120192927147 521.6954917056935 L 480.43239035148355 516.2631013542099 L 475 523.342730295441 L 482.0796289412311 528.7751206469246 Z" style="stroke:#000050; stroke-opacity: 0.39090909090909093;fill:#C860FF; fill-opacity: 0;"/>
<path d="M 475 523.342730295441 L 469.56760964851634 516.2631013542098 L 462.48798070728515 521.6954917056935 L 467.9203710587688 528.7751206469247 Z" style="stroke:#000050; stroke-opacity: 0.39090909090909093;fill:#C860FF; fill-opacity: 0;"/>
<path d="M 462.48798070728515 521.6954917056935 L 459.07303737055315 513.4510891874197 L 450.8286348522794 516.8660325241517 L 454.2435781890114 525.1104350424255 Z" style="stroke:#000050; stroke-opacity: 0.39090909090909093;fill:#C860FF; fill-opacity: 0;"/>
<path d="M 450.8286348522794 516.8660325241517 L 449.66386127523674 508.01869883593633 L 440.81652758702137 509.1834724129789 L 441.981301164064 518.0308061011943 Z" style="stroke:#000050; stroke-opacity: 0.39090909090909093;fill:#C860FF; fill-opacity: 0;"/>
<path d="M 440.81652758702137 509.1834724129789 L 441.98130116406423 500.3361387247633 L 433.13396747584864 499.17136514772045 L 431.96919389880577 508.01869883593605 Z" style="stroke:#000050; stroke-opacity: 0.39090909090909093;fill:#C860FF; fill-opacity: 0;"/>
<path d="M 433.13396747584864 499.17136514772045 L 436.54891081258046 490.92696262944656 L 428.3045082943065 487.51201929271474 L 424.8895649575747 495.7564218109887 Z" style="stroke:#000050; stroke-opacity: 0.39090909090909093;fill:#C860FF; fill-opacity: 0;"/>
<path d="M 428.3045082943065 487.51201929271474 L 433.7368986457901 480.4323903514836 L 426.657269704559 475 L 421.2248793530754 482.07962894123114 Z" style="stroke:#000050; stroke-opacity: 0.39090909090909093;fill:#C860FF; fill-opacity: 0;"/>
<path d="M 426.657269704559 475 L 433.7368986457902 469.56760964851634 L 428.3045082943065 462.48798070728515 L 421.2248793530753 467.9203710587688 Z" style="stroke:#000050; stroke-opacity: 0.39090909090909093;fill:#C860FF; fill-opacity: 0;"/>
<path d="M 428.3045082943065 462.48798070728515 L 436.54891081258023 459.0730373705532 L 433.1339674758483 450.8286348522795 L 424.8895649575746 454.24357818901143 Z" style="stroke:#000050; stroke-opacity: 0.39090909090909093;fill:#C860FF; fill-opacity: 0;"/>
<path d="M 433.1339674758483 450.8286348522795 L 441.9813011640638 449.66386127523697 L 440.8165275870213 440.8165275870214 L 431.96919389880577 441.981301164064 Z" style="stroke:#000050; stroke-opacity: 0.39090909090909093;fill:#C860FF; fill-opacity: 0;"/>
<path d="M 440.8165275870213 440.8165275870214 L 449.66386127523685 441.981301164064 L 450.8286348522795 433.1339674758484 L 441.9813011640639 431.96919389880577 Z" style="stroke:#000050; stroke-opacity: 0.39090909090909093;fill:#C860FF; fill-opacity: 0;"/>
<path d="M 450.8286348522795 433.1339674758484 L 459.07303737055327 436.5489108125804 L 462.4879807072852 428.3045082943067 L 454.2435781890115 424.88956495757463 Z" style="stroke:#000050; stroke-opacity: 0.39090909090909093;fill:#C860FF; fill-opacity: 0;"/>
<path d="M 462.4879807072852 428.3045082943067 L 469.5676096485165 433.73689864579035 L 475.0000000000001 426.657269704559 L 467.92037105876875 421.2248793530754 Z" style="stroke:#000050; stroke-opacity: 0.39090909090909093;fill:#C860FF; fill-opacity: 0;"/>
<path d="M 475.0000000000001 426.657269704559 L 480.43239035148366 433.73689864579006 L 487.51201929271474 428.3045082943065 L 482.0796289412312 421.22487935307544 Z" style="stroke:#000050; stroke-opacity: 0.39090909090909093;fill:#C860FF; fill-opacity: 0;"/>
<path d="M 487.51201929271474 428.3045082943065 L 490.9269626294466 436.5489108125804 L 499.1713651477205 433.13396747584846 L 495.7564218109886 424.88956495757463 Z" style="stroke:#000050; stroke-opacity: 0.39090909090909093;fill:#C860FF; fill-opacity: 0;"/>
<path d="M 499.1713651477205 433.13396747584846 L 500.3361387247633 441.981301164064 L 509.1834724129788 440.8165275870212 L 508.01869883593605 431.96919389880566 Z" style="stroke:#000050; stroke-opacity: 0.39090909090909093;fill:#C860FF; fill-opacity: 0;"/>
<path d="M 509.1834724129788 440.8165275870212 L 508.01869883593605 449.6638612752366 L 516.8660325241515 450.8286348522794 L 518.0308061011942 441.981301164064 Z" style="stroke:#000050; stroke-opacity: 0.39090909090909093;fill:#C860FF; fill-opacity: 0;"/>
<path d="M 516.8660325241515 450.8286348522794 L 513.4510891874194 459.07303737055327 L 521.6954917056934 462.4879807072853 L 525.1104350424254 454.2435781890114 Z" style="stroke:#000050; stroke-opacity: 0.39090909090909093;fill:#C860FF; fill-opacity: 0;"/>
<path d="M 521.6954917056934 462.4879807072853 L 516.2631013542098 469.56760964851645 L 523.342730295441 475 L 528.7751206469245 467.9203710587688 Z" style="stroke:#000050; stroke-opacity: 0.39090909090909093;fill:#C860FF; fill-opacity: 0;"/>
<path d="M 523.342730295441 475 L 516.2631013542099 480.4323903514836 L 521.6954917056935 487.51201929271474 L 528.7751206469246 482.07962894123114 Z" style="stroke:#000050; stroke-opacity: 0.39090909090909093;fill:#C860FF; fill-opacity: 0;"/>
<path d="M 521.6954917056935 487.51201929271474 L 513.4510891874196 490.9269626294466 L 516.8660325241515 499.17136514772056 L 525.1104350424254 495.7564218109886 Z" style="stroke:#000050; stroke-opacity: 0.39090909090909093;fill:#C860FF; fill-opacity: 0;"/>
<path d="M 516.8660325241515 499.17136514772056 L 508.01869883593605 500.3361387247633 L 509.1834724129788 509.1834724129787 L 518.0308061011941 508.01869883593594 Z" style="stroke:#000050; stroke-opacity: 0.39090909090909093;fill:#C860FF; fill-opacity: 0;"/>
<path d="M 500.33613872476326 508.01869883593577 L 492.91535550136297 506.0303059640193 L 490.92696262944645 513.4510891874196 L 498.3477458528468 515.4394820593361 Z" style="stroke:#000064; stroke-opacity: 0.39090909090909093;fill:#C860FF; fill-opacity: 0;"/>
<path d="M 490.92696262944645 513.4510891874196 L 484.27367040706986 509.6098091318333 L 480.43239035148355 516.2631013542099 L 487.08568257386014 520.1043814097961 Z" style="stroke:#000064; stroke-opacity: 0.39090909090909093;fill:#C860FF; fill-opacity: 0;"/>
<path d="M 480.43239035148355 516.2631013542099 L 475 510.83071100272616 L 469.56760964851634 516.2631013542098 L 474.9999999999999 521.6954917056934 Z" style="stroke:#000064; stroke-opacity: 0.39090909090909093;fill:#C860FF; fill-opacity: 0;"/>
<path d="M 469.56760964851634 516.2631013542098 L 465.7263295929298 509.6098091318332 L 459.07303737055315 513.4510891874197 L 462.91431742613975 520.1043814097964 Z" style="stroke:#000064; stroke-opacity: 0.39090909090909093;fill:#C860FF; fill-opacity: 0;"/>
<path d="M 459.07303737055315 513.4510891874197 L 457.08464449863664 506.0303059640198 L 449.66386127523674 508.01869883593633 L 451.65225414715326 515.4394820593362 Z" style="stroke:#000064; stroke-opacity: 0.39090909090909093;fill:#C860FF; fill-opacity: 0;"/>
<path d="M 449.66386127523674 508.01869883593633 L 449.663861275237 500.3361387247636 L 441.98130116406423 500.3361387247633 L 441.98130116406395 508.0186988359361 Z" style="stroke:#000064; stroke-opacity: 0.39090909090909093;fill:#C860FF; fill-opacity: 0;"/>
<path d="M 441.98130116406423 500.3361387247633 L 443.96969403598075 492.915355501363 L 436.54891081258046 490.92696262944656 L 434.560517940664 498.34774585284686 Z" style="stroke:#000064; stroke-opacity: 0.39090909090909093;fill:#C860FF; fill-opacity: 0;"/>
<path d="M 436.54891081258046 490.92696262944656 L 440.3901908681667 484.27367040707 L 433.7368986457901 480.4323903514836 L 429.8956185902038 487.08568257386025 Z" style="stroke:#000064; stroke-opacity: 0.39090909090909093;fill:#C860FF; fill-opacity: 0;"/>
<path d="M 433.7368986457901 480.4323903514836 L 439.1692889972738 475.00000000000006 L 433.7368986457902 469.56760964851634 L 428.30450829430646 474.99999999999994 Z" style="stroke:#000064; stroke-opacity: 0.39090909090909093;fill:#C860FF; fill-opacity: 0;"/>
<path d="M 433.7368986457902 469.56760964851634 L 440.39019086816677 465.7263295929298 L 436.54891081258023 459.0730373705532 L 429.89561859020364 462.91431742613975 Z" style="stroke:#000064; stroke-opacity: 0.39090909090909093;fill:#C860FF; fill-opacity: 0;"/>
<path d="M 436.54891081258023 459.0730373705532 L 443.9696940359801 457.08464449863686 L 441.9813011640638 449.66386127523697 L 434.56051794066394 451.65225414715337 Z" style="stroke:#000064; stroke-opacity: 0.39090909090909093;fill:#C860FF; fill-opacity: 0;"/>
<path d="M 441.9813011640638 449.66386127523697 L 449.6638612752368 449.663861275237 L 449.66386127523685 441.981301164064 L 441.98130116406384 441.98130116406395 Z" style="stroke:#000064; stroke-opacity: 0.39090909090909093;fill:#C860FF; fill-opacity: 0;"/>
<path d="M 449.66386127523685 441.981301164064 L 457.08464449863686 443.9696940359804 L 459.07303737055327 436.5489108125804 L 451.65225414715326 434.560517940664 Z" style="stroke:#000064; stroke-opacity: 0.39090909090909093;fill:#C860FF; fill-opacity: 0;"/>
<path d="M 459.07303737055327 436.5489108125804 L 465.7263295929299 440.390190868167 L 469.5676096485165 433.73689864579035 L 462.91431742613986 429.89561859020375 Z" style="stroke:#000064; stroke-opacity: 0.39090909090909093;fill:#C860FF; fill-opacity: 0;"/>
<path d="M 469.5676096485165 433.73689864579035 L 475.0000000000002 439.16928899727384 L 480.43239035148366 433.73689864579006 L 475 428.30450829430663 Z" style="stroke:#000064; stroke-opacity: 0.39090909090909093;fill:#C860FF; fill-opacity: 0;"/>
<path d="M 480.43239035148366 433.73689864579006 L 484.27367040707 440.3901908681667 L 490.9269626294466 436.5489108125804 L 487.08568257386025 429.8956185902038 Z" style="stroke:#000064; stroke-opacity: 0.39090909090909093;fill:#C860FF; fill-opacity: 0;"/>
<path d="M 490.9269626294466 436.5489108125804 L 492.9153555013632 443.9696940359806 L 500.3361387247633 441.981301164064 L 498.3477458528468 434.56051794066383 Z" style="stroke:#000064; stroke-opacity: 0.39090909090909093;fill:#C860FF; fill-opacity: 0;"/>
<path d="M 500.3361387247633 441.981301164064 L 500.3361387247634 449.6638612752367 L 508.01869883593605 449.6638612752366 L 508.018698835936 441.98130116406395 Z" style="stroke:#000064; stroke-opacity: 0.39090909090909093;fill:#C860FF; fill-opacity: 0;"/>
<path d="M 508.01869883593605 449.6638612752366 L 506.0303059640194 457.08464449863664 L 513.4510891874194 459.07303737055327 L 515.4394820593361 451.65225414715326 Z" style="stroke:#000064; stroke-opacity: 0.39090909090909093;fill:#C860FF; fill-opacity: 0;"/>
<path d="M 513.4510891874194 459.07303737055327 L 509.609809131833 465.7263295929301 L 516.2631013542098 469.56760964851645 L 520.1043814097962 462.9143174261397 Z" style="stroke:#000064; stroke-opacity: 0.39090909090909093;fill:#C860FF; fill-opacity: 0;"/>
<path d="M 516.2631013542098 469.56760964851645 L 510.83071100272616 475.00000000000006 L 516.2631013542099 480.4323903514836 L 521.6954917056934 474.99999999999994 Z" style="stroke:#000064; stroke-opacity: 0.39090909090909093;fill:#C860FF; fill-opacity: 0;"/>
<path d="M 516.2631013542099 480.4323903514836 L 509.60980913183323 484.27367040707 L 513.4510891874196 490.9269626294466 L 520.1043814097962 487.08568257386025 Z" style="stroke:#000064; stroke-opacity: 0.39090909090909093;fill:#C860FF; fill-opacity: 0;"/>
<path d="M 513.4510891874196 490.9269626294466 L 506.03030596401953 492.91535550136325 L 508.01869883593605 500.3361387247633 L 515.4394820593362 498.34774585284674 Z" style="stroke:#000064; stroke-opacity: 0.39090909090909093;fill:#C860FF; fill-opacity: 0;"/>
<path d="M 508.01869883593605 500.3361387247633 L 500.3361387247634 500.3361387247631 L 500.33613872476326 508.01869883593577 L 508.0186988359359 508.01869883593594 Z" style="stroke:#000064; stroke-opacity: 0.39090909090909093;fill:#C860FF; fill-opacity: 0;"/>
<path d="M 492.91535550136297 506.0303059640193 L 486.8047613703094 503.4992150007797 L 484.27367040706986 509.6098091318333 L 490.3842645381234 512.1409000950729 Z" style="stroke:#000078; stroke-opacity: 0.39090909090909093;fill:#C860FF; fill-opacity: 0;"/>
<path d="M 484.27367040706986 509.6098091318333 L 479.02638426808846 505.58342486374477 L 475 510.83071100272616 L 480.2472861389814 514.8570952708146 Z" style="stroke:#000078; stroke-opacity: 0.39090909090909093;fill:#C860FF; fill-opacity: 0;"/>
<path d="M 475 510.83071100272616 L 470.97361573191137 505.5834248637446 L 465.7263295929298 509.6098091318332 L 469.75271386101844 514.8570952708147 Z" style="stroke:#000078; stroke-opacity: 0.39090909090909093;fill:#C860FF; fill-opacity: 0;"/>
<path d="M 465.7263295929298 509.6098091318332 L 463.1952386296899 503.4992150007799 L 457.08464449863664 506.0303059640198 L 459.6157354618765 512.140900095073 Z" style="stroke:#000078; stroke-opacity: 0.39090909090909093;fill:#C860FF; fill-opacity: 0;"/>
<path d="M 457.08464449863664 506.0303059640198 L 456.2213365065649 499.47283073269193 L 449.663861275237 500.3361387247636 L 450.5271692673087 506.8936139560915 Z" style="stroke:#000078; stroke-opacity: 0.39090909090909093;fill:#C860FF; fill-opacity: 0;"/>
<path d="M 449.663861275237 500.3361387247636 L 450.5271692673092 493.77866349343515 L 443.96969403598075 492.915355501363 L 443.1063860439086 499.4728307326915 Z" style="stroke:#000078; stroke-opacity: 0.39090909090909093;fill:#C860FF; fill-opacity: 0;"/>
<path d="M 443.96969403598075 492.915355501363 L 446.5007849992203 486.8047613703095 L 440.3901908681667 484.27367040707 L 437.85909990492723 490.3842645381235 Z" style="stroke:#000078; stroke-opacity: 0.39090909090909093;fill:#C860FF; fill-opacity: 0;"/>
<path d="M 440.3901908681667 484.27367040707 L 444.41657513625523 479.0263842680886 L 439.1692889972738 475.00000000000006 L 435.14290472918526 480.2472861389815 Z" style="stroke:#000078; stroke-opacity: 0.39090909090909093;fill:#C860FF; fill-opacity: 0;"/>
<path d="M 439.1692889972738 475.00000000000006 L 444.41657513625546 470.9736157319114 L 440.39019086816677 465.7263295929298 L 435.14290472918515 469.7527138610185 Z" style="stroke:#000078; stroke-opacity: 0.39090909090909093;fill:#C860FF; fill-opacity: 0;"/>
<path d="M 440.39019086816677 465.7263295929298 L 446.5007849992199 463.19523862969004 L 443.9696940359801 457.08464449863686 L 437.85909990492695 459.6157354618766 Z" style="stroke:#000078; stroke-opacity: 0.39090909090909093;fill:#C860FF; fill-opacity: 0;"/>
<path d="M 443.9696940359801 457.08464449863686 L 450.52716926730835 456.22133650656525 L 449.6638612752368 449.663861275237 L 443.10638604390857 450.5271692673086 Z" style="stroke:#000078; stroke-opacity: 0.39090909090909093;fill:#C860FF; fill-opacity: 0;"/>
<path d="M 449.6638612752368 449.663861275237 L 456.2213365065652 450.52716926730875 L 457.08464449863686 443.9696940359804 L 450.5271692673085 443.1063860439086 Z" style="stroke:#000078; stroke-opacity: 0.39090909090909093;fill:#C860FF; fill-opacity: 0;"/>
<path d="M 457.08464449863686 443.9696940359804 L 463.1952386296901 446.50078499922023 L 465.7263295929299 440.390190868167 L 459.6157354618767 437.8590999049272 Z" style="stroke:#000078; stroke-opacity: 0.39090909090909093;fill:#C860FF; fill-opacity: 0;"/>
<path d="M 465.7263295929299 440.390190868167 L 470.97361573191165 444.4165751362556 L 475.0000000000002 439.16928899727384 L 469.7527138610185 435.14290472918526 Z" style="stroke:#000078; stroke-opacity: 0.39090909090909093;fill:#C860FF; fill-opacity: 0;"/>
<path d="M 475.0000000000002 439.16928899727384 L 479.0263842680887 444.4165751362552 L 484.27367040707 440.3901908681667 L 480.2472861389815 435.14290472918543 Z" style="stroke:#000078; stroke-opacity: 0.39090909090909093;fill:#C860FF; fill-opacity: 0;"/>
<path d="M 484.27367040707 440.3901908681667 L 486.8047613703097 446.5007849992203 L 492.9153555013632 443.9696940359806 L 490.38426453812355 437.859099904927 Z" style="stroke:#000078; stroke-opacity: 0.39090909090909093;fill:#C860FF; fill-opacity: 0;"/>
<path d="M 492.9153555013632 443.9696940359806 L 493.7786634934352 450.5271692673087 L 500.3361387247634 449.6638612752367 L 499.4728307326913 443.10638604390857 Z" style="stroke:#000078; stroke-opacity: 0.39090909090909093;fill:#C860FF; fill-opacity: 0;"/>
<path d="M 500.3361387247634 449.6638612752367 L 499.4728307326915 456.2213365065646 L 506.0303059640194 457.08464449863664 L 506.8936139560914 450.52716926730864 Z" style="stroke:#000078; stroke-opacity: 0.39090909090909093;fill:#C860FF; fill-opacity: 0;"/>
<path d="M 506.0303059640194 457.08464449863664 L 503.4992150007795 463.19523862969015 L 509.609809131833 465.7263295929301 L 512.1409000950729 459.6157354618766 Z" style="stroke:#000078; stroke-opacity: 0.39090909090909093;fill:#C860FF; fill-opacity: 0;"/>
<path d="M 509.609809131833 465.7263295929301 L 505.5834248637446 470.97361573191165 L 510.83071100272616 475.00000000000006 L 514.8570952708146 469.7527138610185 Z" style="stroke:#000078; stroke-opacity: 0.39090909090909093;fill:#C860FF; fill-opacity: 0;"/>
<path d="M 510.83071100272616 475.00000000000006 L 505.58342486374477 479.0263842680886 L 509.60980913183323 484.27367040707 L 514.8570952708146 480.2472861389815 Z" style="stroke:#000078; stroke-opacity: 0.39090909090909093;fill:#C860FF; fill-opacity: 0;"/>
<path d="M 509.60980913183323 484.27367040707 L 503.4992150007797 486.80476137030973 L 506.03030596401953 492.91535550136325 L 512.140900095073 490.3842645381235 Z" style="stroke:#000078; stroke-opacity: 0.39090909090909093;fill:#C860FF; fill-opacity: 0;"/>
<path d="M 506.03030596401953 492.91535550136325 L 499.4728307326915 493.77866349343515 L 500.3361387247634 500.3361387247631 L 506.8936139560914 499.47283073269125 Z" style="stroke:#000078; stroke-opacity: 0.39090909090909093;fill:#C860FF; fill-opacity: 0;"/>
<path d="M 500.3361387247634 500.3361387247631 L 493.7786634934351 499.472830732691 L 492.91535550136297 506.0303059640193 L 499.4728307326913 506.8936139560914 Z" style="stroke:#000078; stroke-opacity: 0.39090909090909093;fill:#C860FF; fill-opacity: 0;"/>
<path d="M 486.8047613703094 503.4992150007797 L 481.8734678877164 500.6521313811518 L 479.02638426808846 505.58342486374477 L 483.95767775068146 508.4305084833727 Z" style="stroke:#00008C; stroke-opacity: 0.39090909090909093;fill:#C860FF; fill-opacity: 0;"/>
<path d="M 479.02638426808846 505.58342486374477 L 475 501.5570405956561 L 470.97361573191137 505.5834248637446 L 474.9999999999998 509.60980913183323 Z" style="stroke:#00008C; stroke-opacity: 0.39090909090909093;fill:#C860FF; fill-opacity: 0;"/>
<path d="M 470.97361573191137 505.5834248637446 L 468.126532112283 500.65213138115155 L 463.1952386296899 503.4992150007799 L 466.04232224931826 508.43050848337293 Z" style="stroke:#00008C; stroke-opacity: 0.39090909090909093;fill:#C860FF; fill-opacity: 0;"/>
<path d="M 463.1952386296899 503.4992150007799 L 461.7214797021714 497.99907180517334 L 456.2213365065649 499.47283073269193 L 457.6950954340834 504.9729739282984 Z" style="stroke:#00008C; stroke-opacity: 0.39090909090909093;fill:#C860FF; fill-opacity: 0;"/>
<path d="M 456.2213365065649 499.47283073269193 L 456.2213365065654 493.7786634934357 L 450.5271692673092 493.77866349343515 L 450.52716926730864 499.47283073269136 Z" style="stroke:#00008C; stroke-opacity: 0.39090909090909093;fill:#C860FF; fill-opacity: 0;"/>
<path d="M 450.5271692673092 493.77866349343515 L 452.00092819482757 488.27852029782787 L 446.5007849992203 486.8047613703095 L 445.0270260717019 492.3049045659168 Z" style="stroke:#00008C; stroke-opacity: 0.39090909090909093;fill:#C860FF; fill-opacity: 0;"/>
<path d="M 446.5007849992203 486.8047613703095 L 449.3478686188482 481.8734678877165 L 444.41657513625523 479.0263842680886 L 441.5694915166273 483.95767775068157 Z" style="stroke:#00008C; stroke-opacity: 0.39090909090909093;fill:#C860FF; fill-opacity: 0;"/>
<path d="M 444.41657513625523 479.0263842680886 L 448.4429594043439 475.0000000000001 L 444.41657513625546 470.9736157319114 L 440.39019086816677 474.9999999999999 Z" style="stroke:#00008C; stroke-opacity: 0.39090909090909093;fill:#C860FF; fill-opacity: 0;"/>
<path d="M 444.41657513625546 470.9736157319114 L 449.34786861884834 468.1265321122829 L 446.5007849992199 463.19523862969004 L 441.56949151662695 466.04232224931854 Z" style="stroke:#00008C; stroke-opacity: 0.39090909090909093;fill:#C860FF; fill-opacity: 0;"/>
<path d="M 446.5007849992199 463.19523862969004 L 452.00092819482654 461.72147970217185 L 450.52716926730835 456.22133650656525 L 445.0270260717017 457.6950954340834 Z" style="stroke:#00008C; stroke-opacity: 0.39090909090909093;fill:#C860FF; fill-opacity: 0;"/>
<path d="M 450.52716926730835 456.22133650656525 L 456.2213365065651 456.2213365065654 L 456.2213365065652 450.52716926730875 L 450.5271692673085 450.52716926730864 Z" style="stroke:#00008C; stroke-opacity: 0.39090909090909093;fill:#C860FF; fill-opacity: 0;"/>
<path d="M 456.2213365065652 450.52716926730875 L 461.72147970217185 452.0009281948269 L 463.1952386296901 446.50078499922023 L 457.6950954340834 445.02702607170204 Z" style="stroke:#00008C; stroke-opacity: 0.39090909090909093;fill:#C860FF; fill-opacity: 0;"/>
<path d="M 463.1952386296901 446.50078499922023 L 468.12653211228314 449.3478686188487 L 470.97361573191165 444.4165751362556 L 466.04232224931854 441.56949151662707 Z" style="stroke:#00008C; stroke-opacity: 0.39090909090909093;fill:#C860FF; fill-opacity: 0;"/>
<path d="M 470.97361573191165 444.4165751362556 L 475.00000000000034 448.44295940434387 L 479.0263842680887 444.4165751362552 L 475 440.3901908681668 Z" style="stroke:#00008C; stroke-opacity: 0.39090909090909093;fill:#C860FF; fill-opacity: 0;"/>
<path d="M 479.0263842680887 444.4165751362552 L 481.8734678877166 449.3478686188483 L 486.8047613703097 446.5007849992203 L 483.95767775068174 441.56949151662724 Z" style="stroke:#00008C; stroke-opacity: 0.39090909090909093;fill:#C860FF; fill-opacity: 0;"/>
<path d="M 486.8047613703097 446.5007849992203 L 488.2785202978282 452.0009281948272 L 493.7786634934352 450.5271692673087 L 492.3049045659167 445.0270260717017 Z" style="stroke:#00008C; stroke-opacity: 0.39090909090909093;fill:#C860FF; fill-opacity: 0;"/>
<path d="M 493.7786634934352 450.5271692673087 L 493.7786634934353 456.22133650656485 L 499.4728307326915 456.2213365065646 L 499.4728307326913 450.5271692673085 Z" style="stroke:#00008C; stroke-opacity: 0.39090909090909093;fill:#C860FF; fill-opacity: 0;"/>
<path d="M 499.4728307326915 456.2213365065646 L 497.9990718051727 461.7214797021714 L 503.4992150007795 463.19523862969015 L 504.97297392829825 457.6950954340834 Z" style="stroke:#00008C; stroke-opacity: 0.39090909090909093;fill:#C860FF; fill-opacity: 0;"/>
<path d="M 503.4992150007795 463.19523862969015 L 500.65213138115126 468.1265321122835 L 505.5834248637446 470.97361573191165 L 508.43050848337276 466.0423222493183 Z" style="stroke:#00008C; stroke-opacity: 0.39090909090909093;fill:#C860FF; fill-opacity: 0;"/>
<path d="M 505.5834248637446 470.97361573191165 L 501.5570405956562 475.0000000000002 L 505.58342486374477 479.0263842680886 L 509.6098091318331 475 Z" style="stroke:#00008C; stroke-opacity: 0.39090909090909093;fill:#C860FF; fill-opacity: 0;"/>
<path d="M 505.58342486374477 479.0263842680886 L 500.65213138115166 481.87346788771663 L 503.4992150007797 486.80476137030973 L 508.4305084833728 483.9576777506817 Z" style="stroke:#00008C; stroke-opacity: 0.39090909090909093;fill:#C860FF; fill-opacity: 0;"/>
<path d="M 503.4992150007797 486.80476137030973 L 497.9990718051729 488.2785202978283 L 499.4728307326915 493.77866349343515 L 504.9729739282983 492.30490456591656 Z" style="stroke:#00008C; stroke-opacity: 0.39090909090909093;fill:#C860FF; fill-opacity: 0;"/>
<path d="M 499.4728307326915 493.77866349343515 L 493.7786634934354 493.77866349343486 L 493.7786634934351 499.472830732691 L 499.47283073269125 499.4728307326913 Z" style="stroke:#00008C; stroke-opacity: 0.39090909090909093;fill:#C860FF; fill-opacity: 0;"/>
<path d="M 493.7786634934351 499.472830732691 L 488.2785202978279 497.9990718051725 L 486.8047613703094 503.4992150007797 L 492.3049045659166 504.97297392829825 Z" style="stroke:#00008C; stroke-opacity: 0.39090909090909093;fill:#C860FF; fill-opacity: 0;"/>
</g>
</svg>