<?xml version="1.0"?><!DOCTYPE svg PUBLIC "-//W3C//DTD SVG 1.1//EN" "http://www.w3.org/Graphics/SVG/1.1/DTD/svg11.dtd"><svg xmlns="http://www.w3.org/2000/svg" width="950" height="950">
<title>PatternFourty</title>
<desc>
Generated using the following configuration:

@implementation NewPattern : PatternFourty
+ (CPDict) defaultConfig
{
 return [CPDictionary dictionaryWithObjectsAndKeys:[[GRColor alloc] initWithGradientColors:[,[CPColor colorWith8BitRed:0 green:0 blue:255 alpha:0.6454545454545455],[CPColor colorWith8BitRed:255 green:116 blue:127 alpha:1]] baseColor:[CPColor colorWith8BitRed:255 green:255 blue:255 alpha:1]], "background_color", 0, "background_color_direction", 16, "number_of_points", 0, "rotation", 0, "recurse_depth", 1.14, "factor_larger", [GRPoint pointWithX:475 Y:475], "center_point", 186, "radius", YES, "show_shapes", [[CPColor colorWith8BitRed:0 green:255 blue:100 alpha:1],[CPColor colorWith8BitRed:0 green:0 blue:0 alpha:0.33636363636363636],[CPColor colorWith8BitRed:0 green:0 blue:0 alpha:0.3],[CPColor colorWith8BitRed:0 green:0 blue:0 alpha:0.3],[CPColor colorWith8BitRed:255 green:2 blue:10 alpha:1],[CPColor colorWith8BitRed:255 green:23 blue:10 alpha:1]], "stroke_colors", [[CPColor colorWith8BitRed:51 green:32 blue:255 alpha:0.5363636363636364],[CPColor colorWith8BitRed:255 green:255 blue:0 alpha:0.16363636363636364],[CPColor colorWith8BitRed:255 green:255 blue:0 alpha:0.16363636363636364],[CPColor colorWith8BitRed:200 green:96 blue:175 alpha:0.2545454545454545],[CPColor colorWith8BitRed:23 green:200 blue:10 alpha:0],[CPColor colorWith8BitRed:200 green:23 blue:10 alpha:0]], "fill_colors"];
}
@end

</desc>
  <defs>
    <linearGradient id="grad1" x1="0%" y1="0%" x2="100%" y2="0%">
<stop offset="0%" style="stop-color:#null;stop-opacity:null;" />
<stop offset="50%" style="stop-color:#0000FF;stop-opacity:0.6454545454545455;" />
<stop offset="100%" style="stop-color:#FF747F;stop-opacity:1;" />
    </linearGradient>
  </defs>
<rect id="background" width="100%" height="100%" fill="url(#grad1)"/>
<g id="rotatelayer" transform="rotate(0, 475, 475)">
<path d="M 661 474.99999999999994 Z" style="stroke:#00FF64; stroke-opacity: 1;fill:#3320FF; fill-opacity: 0.5363636363636364;"/>
<circle cx="475" cy="475" r="186" style="stroke:#00FF64; stroke-opacity: 1;fill:#3320FF; fill-opacity: 0.5363636363636364;"/>
<path d="M 873.04 474.9999999999999 Z" style="stroke:#000000; stroke-opacity: 0.3;fill:#FFFF00; fill-opacity: 0.16363636363636364;"/>
<circle cx="687.04" cy="474.99999999999994" r="186" style="stroke:#000000; stroke-opacity: 0.3;fill:#FFFF00; fill-opacity: 0.16363636363636364;"/>
<path d="M 856.8994160736931 393.85580500130624 Z" style="stroke:#000000; stroke-opacity: 0.33636363636363636;fill:#FFFF00; fill-opacity: 0.16363636363636364;"/>
<circle cx="670.8994160736931" cy="393.8558050013063" r="186" style="stroke:#000000; stroke-opacity: 0.33636363636363636;fill:#FFFF00; fill-opacity: 0.16363636363636364;"/>
<path d="M 810.9349218827954 325.06507811720434 Z" style="stroke:#000000; stroke-opacity: 0.3;fill:#FFFF00; fill-opacity: 0.16363636363636364;"/>
<circle cx="624.9349218827954" cy="325.0650781172044" r="186" style="stroke:#000000; stroke-opacity: 0.3;fill:#FFFF00; fill-opacity: 0.16363636363636364;"/>
<path d="M 742.1441949986937 279.10058392630674 Z" style="stroke:#000000; stroke-opacity: 0.33636363636363636;fill:#FFFF00; fill-opacity: 0.16363636363636364;"/>
<circle cx="556.1441949986937" cy="279.1005839263068" r="186" style="stroke:#000000; stroke-opacity: 0.33636363636363636;fill:#FFFF00; fill-opacity: 0.16363636363636364;"/>
<path d="M 661 262.96 Z" style="stroke:#000000; stroke-opacity: 0.3;fill:#FFFF00; fill-opacity: 0.16363636363636364;"/>
<circle cx="474.99999999999994" cy="262.96000000000004" r="186" style="stroke:#000000; stroke-opacity: 0.3;fill:#FFFF00; fill-opacity: 0.16363636363636364;"/>
<path d="M 579.8558050013063 279.10058392630674 Z" style="stroke:#000000; stroke-opacity: 0.33636363636363636;fill:#FFFF00; fill-opacity: 0.16363636363636364;"/>
<circle cx="393.8558050013063" cy="279.1005839263068" r="186" style="stroke:#000000; stroke-opacity: 0.33636363636363636;fill:#FFFF00; fill-opacity: 0.16363636363636364;"/>
<path d="M 511.0650781172044 325.06507811720445 Z" style="stroke:#000000; stroke-opacity: 0.3;fill:#FFFF00; fill-opacity: 0.16363636363636364;"/>
<circle cx="325.0650781172044" cy="325.0650781172045" r="186" style="stroke:#000000; stroke-opacity: 0.3;fill:#FFFF00; fill-opacity: 0.16363636363636364;"/>
<path d="M 465.1005839263068 393.85580500130635 Z" style="stroke:#000000; stroke-opacity: 0.33636363636363636;fill:#FFFF00; fill-opacity: 0.16363636363636364;"/>
<circle cx="279.1005839263068" cy="393.8558050013064" r="186" style="stroke:#000000; stroke-opacity: 0.33636363636363636;fill:#FFFF00; fill-opacity: 0.16363636363636364;"/>
<path d="M 448.96000000000004 474.99999999999994 Z" style="stroke:#000000; stroke-opacity: 0.3;fill:#FFFF00; fill-opacity: 0.16363636363636364;"/>
<circle cx="262.96000000000004" cy="475" r="186" style="stroke:#000000; stroke-opacity: 0.3;fill:#FFFF00; fill-opacity: 0.16363636363636364;"/>
<path d="M 465.1005839263068 556.1441949986936 Z" style="stroke:#000000; stroke-opacity: 0.33636363636363636;fill:#FFFF00; fill-opacity: 0.16363636363636364;"/>
<circle cx="279.1005839263068" cy="556.1441949986936" r="186" style="stroke:#000000; stroke-opacity: 0.33636363636363636;fill:#FFFF00; fill-opacity: 0.16363636363636364;"/>
<path d="M 511.0650781172045 624.9349218827956 Z" style="stroke:#000000; stroke-opacity: 0.3;fill:#FFFF00; fill-opacity: 0.16363636363636364;"/>
<circle cx="325.0650781172045" cy="624.9349218827956" r="186" style="stroke:#000000; stroke-opacity: 0.3;fill:#FFFF00; fill-opacity: 0.16363636363636364;"/>
<path d="M 579.8558050013064 670.8994160736931 Z" style="stroke:#000000; stroke-opacity: 0.33636363636363636;fill:#FFFF00; fill-opacity: 0.16363636363636364;"/>
<circle cx="393.8558050013064" cy="670.8994160736931" r="186" style="stroke:#000000; stroke-opacity: 0.33636363636363636;fill:#FFFF00; fill-opacity: 0.16363636363636364;"/>
<path d="M 661 687.04 Z" style="stroke:#000000; stroke-opacity: 0.3;fill:#FFFF00; fill-opacity: 0.16363636363636364;"/>
<circle cx="475" cy="687.04" r="186" style="stroke:#000000; stroke-opacity: 0.3;fill:#FFFF00; fill-opacity: 0.16363636363636364;"/>
<path d="M 742.1441949986936 670.8994160736931 Z" style="stroke:#000000; stroke-opacity: 0.33636363636363636;fill:#FFFF00; fill-opacity: 0.16363636363636364;"/>
<circle cx="556.1441949986936" cy="670.8994160736931" r="186" style="stroke:#000000; stroke-opacity: 0.33636363636363636;fill:#FFFF00; fill-opacity: 0.16363636363636364;"/>
<path d="M 810.9349218827956 624.9349218827954 Z" style="stroke:#000000; stroke-opacity: 0.3;fill:#FFFF00; fill-opacity: 0.16363636363636364;"/>
<circle cx="624.9349218827956" cy="624.9349218827954" r="186" style="stroke:#000000; stroke-opacity: 0.3;fill:#FFFF00; fill-opacity: 0.16363636363636364;"/>
<path d="M 856.8994160736931 556.1441949986936 Z" style="stroke:#000000; stroke-opacity: 0.33636363636363636;fill:#FFFF00; fill-opacity: 0.16363636363636364;"/>
<circle cx="670.8994160736931" cy="556.1441949986936" r="186" style="stroke:#000000; stroke-opacity: 0.33636363636363636;fill:#FFFF00; fill-opacity: 0.16363636363636364;"/>
<path d="M 670.8994160736931 556.1441949986936 L 613.5218055361935 567.5573113452957 L 624.9349218827956 624.9349218827954 L 682.3125324202953 613.5218055361933 Z" style="stroke:#000000; stroke-opacity: 0.3;fill:#C860AF; fill-opacity: 0.2545454545454545;"/>
<path d="M 624.9349218827956 624.9349218827954 L 567.5573113452957 613.5218055361933 L 556.1441949986936 670.8994160736931 L 613.5218055361935 682.3125324202953 Z" style="stroke:#000000; stroke-opacity: 0.3;fill:#C860AF; fill-opacity: 0.2545454545454545;"/>
<path d="M 556.1441949986936 670.8994160736931 L 507.5018055361934 638.3976105374998 L 475 687.04 L 523.6423894625002 719.5418055361934 Z" style="stroke:#000000; stroke-opacity: 0.3;fill:#C860AF; fill-opacity: 0.2545454545454545;"/>
<path d="M 475 687.04 L 442.4981944638066 638.3976105374998 L 393.8558050013064 670.8994160736931 L 426.3576105374998 719.5418055361934 Z" style="stroke:#000000; stroke-opacity: 0.3;fill:#C860AF; fill-opacity: 0.2545454545454545;"/>
<path d="M 393.8558050013064 670.8994160736931 L 382.4426886547042 613.5218055361935 L 325.0650781172045 624.9349218827956 L 336.4781944638067 682.3125324202953 Z" style="stroke:#000000; stroke-opacity: 0.3;fill:#C860AF; fill-opacity: 0.2545454545454545;"/>
<path d="M 325.0650781172045 624.9349218827956 L 336.47819446380663 567.5573113452957 L 279.1005839263068 556.1441949986936 L 267.6874675797046 613.5218055361935 Z" style="stroke:#000000; stroke-opacity: 0.3;fill:#C860AF; fill-opacity: 0.2545454545454545;"/>
<path d="M 279.1005839263068 556.1441949986936 L 311.60238946250024 507.5018055361934 L 262.96000000000004 475 L 230.45819446380665 523.6423894625002 Z" style="stroke:#000000; stroke-opacity: 0.3;fill:#C860AF; fill-opacity: 0.2545454545454545;"/>
<path d="M 262.96000000000004 475 L 311.60238946250024 442.4981944638066 L 279.1005839263068 393.8558050013064 L 230.45819446380665 426.3576105374998 Z" style="stroke:#000000; stroke-opacity: 0.3;fill:#C860AF; fill-opacity: 0.2545454545454545;"/>
<path d="M 279.1005839263068 393.8558050013064 L 336.4781944638066 382.4426886547043 L 325.0650781172044 325.0650781172045 L 267.6874675797047 336.47819446380663 Z" style="stroke:#000000; stroke-opacity: 0.3;fill:#C860AF; fill-opacity: 0.2545454545454545;"/>
<path d="M 325.0650781172044 325.0650781172045 L 382.44268865470417 336.4781944638066 L 393.8558050013063 279.1005839263068 L 336.4781944638065 267.6874675797047 Z" style="stroke:#000000; stroke-opacity: 0.3;fill:#C860AF; fill-opacity: 0.2545454545454545;"/>
<path d="M 393.8558050013063 279.1005839263068 L 442.4981944638065 311.60238946250024 L 474.99999999999994 262.96000000000004 L 426.3576105374997 230.45819446380662 Z" style="stroke:#000000; stroke-opacity: 0.3;fill:#C860AF; fill-opacity: 0.2545454545454545;"/>
<path d="M 474.99999999999994 262.96000000000004 L 507.5018055361934 311.60238946250035 L 556.1441949986937 279.1005839263068 L 523.6423894625002 230.45819446380656 Z" style="stroke:#000000; stroke-opacity: 0.3;fill:#C860AF; fill-opacity: 0.2545454545454545;"/>
<path d="M 556.1441949986937 279.1005839263068 L 567.5573113452957 336.47819446380646 L 624.9349218827954 325.0650781172044 L 613.5218055361933 267.6874675797048 Z" style="stroke:#000000; stroke-opacity: 0.3;fill:#C860AF; fill-opacity: 0.2545454545454545;"/>
<path d="M 624.9349218827954 325.0650781172044 L 613.5218055361934 382.4426886547042 L 670.8994160736931 393.8558050013063 L 682.3125324202952 336.47819446380646 Z" style="stroke:#000000; stroke-opacity: 0.3;fill:#C860AF; fill-opacity: 0.2545454545454545;"/>
<path d="M 670.8994160736931 393.8558050013063 L 638.3976105374998 442.4981944638065 L 687.04 474.99999999999994 L 719.5418055361934 426.3576105374997 Z" style="stroke:#000000; stroke-opacity: 0.3;fill:#C860AF; fill-opacity: 0.2545454545454545;"/>
<path d="M 687.04 474.99999999999994 L 638.3976105374998 507.5018055361934 L 670.8994160736931 556.1441949986936 L 719.5418055361934 523.6423894625002 Z" style="stroke:#000000; stroke-opacity: 0.3;fill:#C860AF; fill-opacity: 0.2545454545454545;"/>
<path d="M 613.5218055361935 567.5573113452957 L 567.5573113452958 567.5573113452956 L 567.5573113452957 613.5218055361933 L 613.5218055361934 613.5218055361934 Z" style="stroke:#000014; stroke-opacity: 0.3;fill:#C860C3; fill-opacity: 0.2545454545454545;"/>
<path d="M 567.5573113452957 613.5218055361933 L 525.0916559400913 595.9319551322953 L 507.5018055361934 638.3976105374998 L 549.9674609413977 655.9874609413976 Z" style="stroke:#000014; stroke-opacity: 0.3;fill:#C860C3; fill-opacity: 0.2545454545454545;"/>
<path d="M 507.5018055361934 638.3976105374998 L 475 605.8958050013064 L 442.4981944638066 638.3976105374998 L 475 670.8994160736931 Z" style="stroke:#000014; stroke-opacity: 0.3;fill:#C860C3; fill-opacity: 0.2545454545454545;"/>
<path d="M 442.4981944638066 638.3976105374998 L 424.90834405990853 595.9319551322955 L 382.4426886547042 613.5218055361935 L 400.03253905860225 655.9874609413979 Z" style="stroke:#000014; stroke-opacity: 0.3;fill:#C860C3; fill-opacity: 0.2545454545454545;"/>
<path d="M 382.4426886547042 613.5218055361935 L 382.4426886547043 567.5573113452958 L 336.47819446380663 567.5573113452957 L 336.4781944638065 613.5218055361934 Z" style="stroke:#000014; stroke-opacity: 0.3;fill:#C860C3; fill-opacity: 0.2545454545454545;"/>
<path d="M 336.47819446380663 567.5573113452957 L 354.0680448677046 525.0916559400913 L 311.60238946250024 507.5018055361934 L 294.0125390586023 549.9674609413977 Z" style="stroke:#000014; stroke-opacity: 0.3;fill:#C860C3; fill-opacity: 0.2545454545454545;"/>
<path d="M 311.60238946250024 507.5018055361934 L 344.10419499869363 475 L 311.60238946250024 442.4981944638066 L 279.10058392630685 475 Z" style="stroke:#000014; stroke-opacity: 0.3;fill:#C860C3; fill-opacity: 0.2545454545454545;"/>
<path d="M 311.60238946250024 442.4981944638066 L 354.0680448677046 424.9083440599086 L 336.4781944638066 382.4426886547043 L 294.0125390586023 400.0325390586023 Z" style="stroke:#000014; stroke-opacity: 0.3;fill:#C860C3; fill-opacity: 0.2545454545454545;"/>
<path d="M 336.4781944638066 382.4426886547043 L 382.4426886547043 382.44268865470417 L 382.44268865470417 336.4781944638066 L 336.4781944638065 336.47819446380663 Z" style="stroke:#000014; stroke-opacity: 0.3;fill:#C860C3; fill-opacity: 0.2545454545454545;"/>
<path d="M 382.44268865470417 336.4781944638066 L 424.9083440599085 354.0680448677046 L 442.4981944638065 311.60238946250024 L 400.0325390586022 294.0125390586023 Z" style="stroke:#000014; stroke-opacity: 0.3;fill:#C860C3; fill-opacity: 0.2545454545454545;"/>
<path d="M 442.4981944638065 311.60238946250024 L 474.9999999999999 344.10419499869374 L 507.5018055361934 311.60238946250035 L 475 279.10058392630685 Z" style="stroke:#000014; stroke-opacity: 0.3;fill:#C860C3; fill-opacity: 0.2545454545454545;"/>
<path d="M 507.5018055361934 311.60238946250035 L 525.0916559400914 354.0680448677046 L 567.5573113452957 336.47819446380646 L 549.9674609413976 294.0125390586023 Z" style="stroke:#000014; stroke-opacity: 0.3;fill:#C860C3; fill-opacity: 0.2545454545454545;"/>
<path d="M 567.5573113452957 336.47819446380646 L 567.5573113452956 382.44268865470417 L 613.5218055361934 382.4426886547042 L 613.5218055361934 336.4781944638065 Z" style="stroke:#000014; stroke-opacity: 0.3;fill:#C860C3; fill-opacity: 0.2545454545454545;"/>
<path d="M 613.5218055361934 382.4426886547042 L 595.9319551322955 424.9083440599086 L 638.3976105374998 442.4981944638065 L 655.9874609413977 400.0325390586022 Z" style="stroke:#000014; stroke-opacity: 0.3;fill:#C860C3; fill-opacity: 0.2545454545454545;"/>
<path d="M 638.3976105374998 442.4981944638065 L 605.8958050013064 474.99999999999994 L 638.3976105374998 507.5018055361934 L 670.8994160736931 474.99999999999994 Z" style="stroke:#000014; stroke-opacity: 0.3;fill:#C860C3; fill-opacity: 0.2545454545454545;"/>
<path d="M 638.3976105374998 507.5018055361934 L 595.9319551322956 525.0916559400914 L 613.5218055361935 567.5573113452957 L 655.9874609413978 549.9674609413976 Z" style="stroke:#000014; stroke-opacity: 0.3;fill:#C860C3; fill-opacity: 0.2545454545454545;"/>
<path d="M 567.5573113452958 567.5573113452956 L 532.1371617491938 560.5118055361933 L 525.0916559400913 595.9319551322953 L 560.5118055361935 602.9774609413977 Z" style="stroke:#000028; stroke-opacity: 0.3;fill:#C860D7; fill-opacity: 0.2545454545454545;"/>
<path d="M 525.0916559400913 595.9319551322953 L 495.06390303554014 575.8680520967553 L 475 605.8958050013064 L 505.02775290455116 625.9597080368465 Z" style="stroke:#000028; stroke-opacity: 0.3;fill:#C860D7; fill-opacity: 0.2545454545454545;"/>
<path d="M 475 605.8958050013064 L 454.93609696445975 575.8680520967552 L 424.90834405990853 595.9319551322955 L 444.97224709544884 625.9597080368466 Z" style="stroke:#000028; stroke-opacity: 0.3;fill:#C860D7; fill-opacity: 0.2545454545454545;"/>
<path d="M 424.90834405990853 595.9319551322955 L 417.8628382508062 560.5118055361935 L 382.4426886547043 567.5573113452958 L 389.48819446380656 602.9774609413977 Z" style="stroke:#000028; stroke-opacity: 0.3;fill:#C860D7; fill-opacity: 0.2545454545454545;"/>
<path d="M 382.4426886547043 567.5573113452958 L 389.4881944638067 532.1371617491938 L 354.0680448677046 525.0916559400913 L 347.02253905860215 560.5118055361935 Z" style="stroke:#000028; stroke-opacity: 0.3;fill:#C860D7; fill-opacity: 0.2545454545454545;"/>
<path d="M 354.0680448677046 525.0916559400913 L 374.13194790324474 495.0639030355402 L 344.10419499869363 475 L 324.04029196315344 505.0277529045511 Z" style="stroke:#000028; stroke-opacity: 0.3;fill:#C860D7; fill-opacity: 0.2545454545454545;"/>
<path d="M 344.10419499869363 475 L 374.13194790324485 454.9360969644598 L 354.0680448677046 424.9083440599086 L 324.04029196315344 444.9722470954488 Z" style="stroke:#000028; stroke-opacity: 0.3;fill:#C860D7; fill-opacity: 0.2545454545454545;"/>
<path d="M 354.0680448677046 424.9083440599086 L 389.4881944638066 417.8628382508062 L 382.4426886547043 382.44268865470417 L 347.0225390586022 389.48819446380656 Z" style="stroke:#000028; stroke-opacity: 0.3;fill:#C860D7; fill-opacity: 0.2545454545454545;"/>
<path d="M 382.4426886547043 382.44268865470417 L 417.86283825080613 389.4881944638065 L 424.9083440599085 354.0680448677046 L 389.4881944638066 347.0225390586023 Z" style="stroke:#000028; stroke-opacity: 0.3;fill:#C860D7; fill-opacity: 0.2545454545454545;"/>
<path d="M 424.9083440599085 354.0680448677046 L 454.9360969644596 374.13194790324485 L 474.9999999999999 344.10419499869374 L 444.9722470954488 324.04029196315344 Z" style="stroke:#000028; stroke-opacity: 0.3;fill:#C860D7; fill-opacity: 0.2545454545454545;"/>
<path d="M 474.9999999999999 344.10419499869374 L 495.0639030355402 374.1319479032449 L 525.0916559400914 354.0680448677046 L 505.0277529045511 324.0402919631534 Z" style="stroke:#000028; stroke-opacity: 0.3;fill:#C860D7; fill-opacity: 0.2545454545454545;"/>
<path d="M 525.0916559400914 354.0680448677046 L 532.1371617491938 389.4881944638065 L 567.5573113452956 382.44268865470417 L 560.5118055361933 347.0225390586023 Z" style="stroke:#000028; stroke-opacity: 0.3;fill:#C860D7; fill-opacity: 0.2545454545454545;"/>
<path d="M 567.5573113452956 382.44268865470417 L 560.5118055361934 417.8628382508063 L 595.9319551322955 424.9083440599086 L 602.9774609413978 389.48819446380645 Z" style="stroke:#000028; stroke-opacity: 0.3;fill:#C860D7; fill-opacity: 0.2545454545454545;"/>
<path d="M 595.9319551322955 424.9083440599086 L 575.8680520967552 454.9360969644597 L 605.8958050013064 474.99999999999994 L 625.9597080368466 444.9722470954488 Z" style="stroke:#000028; stroke-opacity: 0.3;fill:#C860D7; fill-opacity: 0.2545454545454545;"/>
<path d="M 605.8958050013064 474.99999999999994 L 575.8680520967553 495.0639030355403 L 595.9319551322956 525.0916559400914 L 625.9597080368467 505.0277529045511 Z" style="stroke:#000028; stroke-opacity: 0.3;fill:#C860D7; fill-opacity: 0.2545454545454545;"/>
<path d="M 595.9319551322956 525.0916559400914 L 560.5118055361936 532.1371617491936 L 567.5573113452958 567.5573113452956 L 602.9774609413978 560.5118055361934 Z" style="stroke:#000028; stroke-opacity: 0.3;fill:#C860D7; fill-opacity: 0.2545454545454545;"/>
<path d="M 532.1371617491938 560.5118055361933 L 505.922409112086 549.6532994596475 L 495.06390303554014 575.8680520967553 L 521.278655672648 586.7265581733011 Z" style="stroke:#00003C; stroke-opacity: 0.3;fill:#C860EB; fill-opacity: 0.2545454545454545;"/>
<path d="M 495.06390303554014 575.8680520967553 L 475 555.8041490612151 L 454.93609696445975 575.8680520967552 L 474.9999999999999 595.9319551322955 Z" style="stroke:#00003C; stroke-opacity: 0.3;fill:#C860EB; fill-opacity: 0.2545454545454545;"/>
<path d="M 454.93609696445975 575.8680520967552 L 444.0775908879138 549.6532994596475 L 417.8628382508062 560.5118055361935 L 428.72134432735214 586.7265581733011 Z" style="stroke:#00003C; stroke-opacity: 0.3;fill:#C860EB; fill-opacity: 0.2545454545454545;"/>
<path d="M 417.8628382508062 560.5118055361935 L 417.8628382508063 532.1371617491939 L 389.4881944638067 532.1371617491938 L 389.48819446380656 560.5118055361934 Z" style="stroke:#00003C; stroke-opacity: 0.3;fill:#C860EB; fill-opacity: 0.2545454545454545;"/>
<path d="M 389.4881944638067 532.1371617491938 L 400.34670054035246 505.92240911208603 L 374.13194790324474 495.0639030355402 L 363.2734418266989 521.2786556726479 Z" style="stroke:#00003C; stroke-opacity: 0.3;fill:#C860EB; fill-opacity: 0.2545454545454545;"/>
<path d="M 374.13194790324474 495.0639030355402 L 394.195850938785 475.00000000000006 L 374.13194790324485 454.9360969644598 L 354.0680448677046 474.99999999999994 Z" style="stroke:#00003C; stroke-opacity: 0.3;fill:#C860EB; fill-opacity: 0.2545454545454545;"/>
<path d="M 374.13194790324485 454.9360969644598 L 400.3467005403526 444.0775908879139 L 389.4881944638066 417.8628382508062 L 363.2734418266989 428.72134432735214 Z" style="stroke:#00003C; stroke-opacity: 0.3;fill:#C860EB; fill-opacity: 0.2545454545454545;"/>
<path d="M 389.4881944638066 417.8628382508062 L 417.86283825080625 417.86283825080613 L 417.86283825080613 389.4881944638065 L 389.4881944638065 389.4881944638066 Z" style="stroke:#00003C; stroke-opacity: 0.3;fill:#C860EB; fill-opacity: 0.2545454545454545;"/>
<path d="M 417.86283825080613 389.4881944638065 L 444.0775908879137 400.3467005403524 L 454.9360969644596 374.13194790324485 L 428.721344327352 363.27344182669896 Z" style="stroke:#00003C; stroke-opacity: 0.3;fill:#C860EB; fill-opacity: 0.2545454545454545;"/>
<path d="M 454.9360969644596 374.13194790324485 L 474.9999999999999 394.19585093878516 L 495.0639030355402 374.1319479032449 L 474.9999999999999 354.06804486770454 Z" style="stroke:#00003C; stroke-opacity: 0.3;fill:#C860EB; fill-opacity: 0.2545454545454545;"/>
<path d="M 495.0639030355402 374.1319479032449 L 505.92240911208614 400.34670054035246 L 532.1371617491938 389.4881944638065 L 521.2786556726478 363.2734418266989 Z" style="stroke:#00003C; stroke-opacity: 0.3;fill:#C860EB; fill-opacity: 0.2545454545454545;"/>
<path d="M 532.1371617491938 389.4881944638065 L 532.1371617491938 417.8628382508062 L 560.5118055361934 417.8628382508063 L 560.5118055361935 389.48819446380656 Z" style="stroke:#00003C; stroke-opacity: 0.3;fill:#C860EB; fill-opacity: 0.2545454545454545;"/>
<path d="M 560.5118055361934 417.8628382508063 L 549.6532994596477 444.0775908879139 L 575.8680520967552 454.9360969644597 L 586.726558173301 428.72134432735214 Z" style="stroke:#00003C; stroke-opacity: 0.3;fill:#C860EB; fill-opacity: 0.2545454545454545;"/>
<path d="M 575.8680520967552 454.9360969644597 L 555.804149061215 475.00000000000006 L 575.8680520967553 495.0639030355403 L 595.9319551322956 474.99999999999994 Z" style="stroke:#00003C; stroke-opacity: 0.3;fill:#C860EB; fill-opacity: 0.2545454545454545;"/>
<path d="M 575.8680520967553 495.0639030355403 L 549.6532994596478 505.92240911208614 L 560.5118055361936 532.1371617491936 L 586.7265581733011 521.2786556726478 Z" style="stroke:#00003C; stroke-opacity: 0.3;fill:#C860EB; fill-opacity: 0.2545454545454545;"/>
<path d="M 560.5118055361936 532.1371617491936 L 532.1371617491939 532.1371617491934 L 532.1371617491938 560.5118055361933 L 560.5118055361934 560.5118055361934 Z" style="stroke:#00003C; stroke-opacity: 0.3;fill:#C860EB; fill-opacity: 0.2545454545454545;"/>
<path d="M 505.922409112086 549.6532994596475 L 487.3857797552592 537.2675197043884 L 475 555.8041490612151 L 493.5366293568267 568.1899288164743 Z" style="stroke:#000050; stroke-opacity: 0.3;fill:#C860FF; fill-opacity: 0.2545454545454545;"/>
<path d="M 475 555.8041490612151 L 462.6142202447407 537.2675197043883 L 444.0775908879138 549.6532994596475 L 456.46337064317316 568.1899288164744 Z" style="stroke:#000050; stroke-opacity: 0.3;fill:#C860FF; fill-opacity: 0.2545454545454545;"/>
<path d="M 444.0775908879138 549.6532994596475 L 439.7282834245869 527.787854285867 L 417.8628382508063 532.1371617491939 L 422.2121457141332 554.0026069229745 Z" style="stroke:#000050; stroke-opacity: 0.3;fill:#C860FF; fill-opacity: 0.2545454545454545;"/>
<path d="M 417.8628382508063 532.1371617491939 L 422.2121457141333 510.27171657541305 L 400.34670054035246 505.92240911208603 L 395.9973930770255 527.787854285867 Z" style="stroke:#000050; stroke-opacity: 0.3;fill:#C860FF; fill-opacity: 0.2545454545454545;"/>
<path d="M 400.34670054035246 505.92240911208603 L 412.73248029561177 487.3857797552593 L 394.195850938785 475.00000000000006 L 381.81007118352574 493.53662935682684 Z" style="stroke:#000050; stroke-opacity: 0.3;fill:#C860FF; fill-opacity: 0.2545454545454545;"/>
<path d="M 394.195850938785 475.00000000000006 L 412.7324802956118 462.61422024474075 L 400.3467005403526 444.0775908879139 L 381.8100711835257 456.4633706431732 Z" style="stroke:#000050; stroke-opacity: 0.3;fill:#C860FF; fill-opacity: 0.2545454545454545;"/>
<path d="M 400.3467005403526 444.0775908879139 L 422.21214571413327 439.72828342458683 L 417.86283825080625 417.86283825080613 L 395.99739307702555 422.21214571413316 Z" style="stroke:#000050; stroke-opacity: 0.3;fill:#C860FF; fill-opacity: 0.2545454545454545;"/>
<path d="M 417.86283825080625 417.86283825080613 L 439.72828342458683 422.21214571413304 L 444.0775908879137 400.3467005403524 L 422.21214571413316 395.99739307702555 Z" style="stroke:#000050; stroke-opacity: 0.3;fill:#C860FF; fill-opacity: 0.2545454545454545;"/>
<path d="M 444.0775908879137 400.3467005403524 L 462.6142202447404 412.7324802956118 L 474.9999999999999 394.19585093878516 L 456.4633706431732 381.8100711835257 Z" style="stroke:#000050; stroke-opacity: 0.3;fill:#C860FF; fill-opacity: 0.2545454545454545;"/>
<path d="M 474.9999999999999 394.19585093878516 L 487.38577975525936 412.73248029561194 L 505.92240911208614 400.34670054035246 L 493.53662935682667 381.8100711835257 Z" style="stroke:#000050; stroke-opacity: 0.3;fill:#C860FF; fill-opacity: 0.2545454545454545;"/>
<path d="M 505.92240911208614 400.34670054035246 L 510.2717165754131 422.2121457141331 L 532.1371617491938 417.8628382508062 L 527.7878542858668 395.9973930770255 Z" style="stroke:#000050; stroke-opacity: 0.3;fill:#C860FF; fill-opacity: 0.2545454545454545;"/>
<path d="M 532.1371617491938 417.8628382508062 L 527.7878542858668 439.728283424587 L 549.6532994596477 444.0775908879139 L 554.0026069229746 422.2121457141331 Z" style="stroke:#000050; stroke-opacity: 0.3;fill:#C860FF; fill-opacity: 0.2545454545454545;"/>
<path d="M 549.6532994596477 444.0775908879139 L 537.2675197043883 462.61422024474064 L 555.804149061215 475.00000000000006 L 568.1899288164744 456.46337064317333 Z" style="stroke:#000050; stroke-opacity: 0.3;fill:#C860FF; fill-opacity: 0.2545454545454545;"/>
<path d="M 555.804149061215 475.00000000000006 L 537.2675197043883 487.3857797552595 L 549.6532994596478 505.92240911208614 L 568.1899288164744 493.53662935682667 Z" style="stroke:#000050; stroke-opacity: 0.3;fill:#C860FF; fill-opacity: 0.2545454545454545;"/>
<path d="M 549.6532994596478 505.92240911208614 L 527.7878542858672 510.2717165754128 L 532.1371617491939 532.1371617491934 L 554.0026069229745 527.7878542858667 Z" style="stroke:#000050; stroke-opacity: 0.3;fill:#C860FF; fill-opacity: 0.2545454545454545;"/>
<path d="M 532.1371617491939 532.1371617491934 L 510.2717165754128 527.7878542858665 L 505.922409112086 549.6532994596475 L 527.787854285867 554.0026069229745 Z" style="stroke:#000050; stroke-opacity: 0.3;fill:#C860FF; fill-opacity: 0.2545454545454545;"/>
<path d="M 487.3857797552592 537.2675197043884 L 475 524.8817399491292 L 462.6142202447407 537.2675197043883 L 474.9999999999999 549.6532994596477 Z" style="stroke:#000064; stroke-opacity: 0.3;fill:#C860FF; fill-opacity: 0.2545454545454545;"/>
<path d="M 462.6142202447407 537.2675197043883 L 455.91108454392446 521.0847185850507 L 439.7282834245869 527.787854285867 L 446.4314191254031 543.9706554052045 Z" style="stroke:#000064; stroke-opacity: 0.3;fill:#C860FF; fill-opacity: 0.2545454545454545;"/>
<path d="M 439.7282834245869 527.787854285867 L 439.72828342458706 510.2717165754132 L 422.2121457141333 510.27171657541305 L 422.21214571413316 527.7878542858668 Z" style="stroke:#000064; stroke-opacity: 0.3;fill:#C860FF; fill-opacity: 0.2545454545454545;"/>
<path d="M 422.2121457141333 510.27171657541305 L 428.9152814149494 494.08891545607537 L 412.73248029561177 487.3857797552593 L 406.0293445947957 503.56858087459693 Z" style="stroke:#000064; stroke-opacity: 0.3;fill:#C860FF; fill-opacity: 0.2545454545454545;"/>
<path d="M 412.73248029561177 487.3857797552593 L 425.11826005087113 475.00000000000006 L 412.7324802956118 462.61422024474075 L 400.3467005403525 474.99999999999994 Z" style="stroke:#000064; stroke-opacity: 0.3;fill:#C860FF; fill-opacity: 0.2545454545454545;"/>
<path d="M 412.7324802956118 462.61422024474075 L 428.9152814149495 455.9110845439245 L 422.21214571413327 439.72828342458683 L 406.0293445947956 446.43141912540307 Z" style="stroke:#000064; stroke-opacity: 0.3;fill:#C860FF; fill-opacity: 0.2545454545454545;"/>
<path d="M 422.21214571413327 439.72828342458683 L 439.72828342458695 439.7282834245867 L 439.72828342458683 422.21214571413304 L 422.21214571413316 422.21214571413316 Z" style="stroke:#000064; stroke-opacity: 0.3;fill:#C860FF; fill-opacity: 0.2545454545454545;"/>
<path d="M 439.72828342458683 422.21214571413304 L 455.91108454392423 428.9152814149492 L 462.6142202447404 412.7324802956118 L 446.431419125403 406.02934459479565 Z" style="stroke:#000064; stroke-opacity: 0.3;fill:#C860FF; fill-opacity: 0.2545454545454545;"/>
<path d="M 462.6142202447404 412.7324802956118 L 474.99999999999983 425.11826005087136 L 487.38577975525936 412.73248029561194 L 474.99999999999994 400.3467005403524 Z" style="stroke:#000064; stroke-opacity: 0.3;fill:#C860FF; fill-opacity: 0.2545454545454545;"/>
<path d="M 487.38577975525936 412.73248029561194 L 494.0889154560757 428.9152814149494 L 510.2717165754131 422.2121457141331 L 503.5685808745968 406.0293445947956 Z" style="stroke:#000064; stroke-opacity: 0.3;fill:#C860FF; fill-opacity: 0.2545454545454545;"/>
<path d="M 510.2717165754131 422.2121457141331 L 510.27171657541305 439.72828342458695 L 527.7878542858668 439.728283424587 L 527.787854285867 422.21214571413316 Z" style="stroke:#000064; stroke-opacity: 0.3;fill:#C860FF; fill-opacity: 0.2545454545454545;"/>
<path d="M 527.7878542858668 439.728283424587 L 521.0847185850508 455.9110845439246 L 537.2675197043883 462.61422024474064 L 543.9706554052044 446.4314191254031 Z" style="stroke:#000064; stroke-opacity: 0.3;fill:#C860FF; fill-opacity: 0.2545454545454545;"/>
<path d="M 537.2675197043883 462.61422024474064 L 524.8817399491288 475.00000000000006 L 537.2675197043883 487.3857797552595 L 549.6532994596478 475.00000000000006 Z" style="stroke:#000064; stroke-opacity: 0.3;fill:#C860FF; fill-opacity: 0.2545454545454545;"/>
<path d="M 537.2675197043883 487.3857797552595 L 521.0847185850511 494.0889154560756 L 527.7878542858672 510.2717165754128 L 543.9706554052044 503.5685808745967 Z" style="stroke:#000064; stroke-opacity: 0.3;fill:#C860FF; fill-opacity: 0.2545454545454545;"/>
<path d="M 527.7878542858672 510.2717165754128 L 510.27171657541317 510.2717165754125 L 510.2717165754128 527.7878542858665 L 527.7878542858668 527.7878542858668 Z" style="stroke:#000064; stroke-opacity: 0.3;fill:#C860FF; fill-opacity: 0.2545454545454545;"/>
<path d="M 510.2717165754128 527.7878542858665 L 494.0889154560751 521.0847185850506 L 487.3857797552592 537.2675197043884 L 503.568580874597 543.9706554052042 Z" style="stroke:#000064; stroke-opacity: 0.3;fill:#C860FF; fill-opacity: 0.2545454545454545;"/>
<path d="M 475 524.8817399491292 L 467.3540529540015 513.4387715390521 L 455.91108454392446 521.0847185850507 L 463.55703158992304 532.5276869951276 Z" style="stroke:#000078; stroke-opacity: 0.3;fill:#C860FF; fill-opacity: 0.2545454545454545;"/>
<path d="M 455.91108454392446 521.0847185850507 L 453.22618498907457 507.5868170205632 L 439.72828342458706 510.2717165754132 L 442.413182979437 523.7696181399007 Z" style="stroke:#000078; stroke-opacity: 0.3;fill:#C860FF; fill-opacity: 0.2545454545454545;"/>
<path d="M 439.72828342458706 510.2717165754132 L 442.4131829794371 496.7738150109255 L 428.9152814149494 494.08891545607537 L 426.2303818600993 507.58681702056316 Z" style="stroke:#000078; stroke-opacity: 0.3;fill:#C860FF; fill-opacity: 0.2545454545454545;"/>
<path d="M 428.9152814149494 494.08891545607537 L 436.56122846094786 482.6459470459986 L 425.11826005087113 475.00000000000006 L 417.4723130048726 486.4429684100769 Z" style="stroke:#000078; stroke-opacity: 0.3;fill:#C860FF; fill-opacity: 0.2545454545454545;"/>
<path d="M 425.11826005087113 475.00000000000006 L 436.56122846094803 467.3540529540014 L 428.9152814149495 455.9110845439245 L 417.47231300487255 463.5570315899231 Z" style="stroke:#000078; stroke-opacity: 0.3;fill:#C860FF; fill-opacity: 0.2545454545454545;"/>
<path d="M 428.9152814149495 455.9110845439245 L 442.4131829794371 453.22618498907434 L 439.72828342458695 439.7282834245867 L 426.2303818600993 442.4131829794369 Z" style="stroke:#000078; stroke-opacity: 0.3;fill:#C860FF; fill-opacity: 0.2545454545454545;"/>
<path d="M 439.72828342458695 439.7282834245867 L 453.22618498907434 442.41318297943656 L 455.91108454392423 428.9152814149492 L 442.4131829794368 426.2303818600993 Z" style="stroke:#000078; stroke-opacity: 0.3;fill:#C860FF; fill-opacity: 0.2545454545454545;"/>
<path d="M 455.91108454392423 428.9152814149492 L 467.35405295400096 436.5612284609481 L 474.99999999999983 425.11826005087136 L 463.5570315899231 417.4723130048725 Z" style="stroke:#000078; stroke-opacity: 0.3;fill:#C860FF; fill-opacity: 0.2545454545454545;"/>
<path d="M 474.99999999999983 425.11826005087136 L 482.6459470459987 436.5612284609483 L 494.0889154560757 428.9152814149494 L 486.4429684100768 417.4723130048724 Z" style="stroke:#000078; stroke-opacity: 0.3;fill:#C860FF; fill-opacity: 0.2545454545454545;"/>
<path d="M 494.0889154560757 428.9152814149494 L 496.7738150109256 442.41318297943684 L 510.27171657541305 439.72828342458695 L 507.58681702056316 426.2303818600995 Z" style="stroke:#000078; stroke-opacity: 0.3;fill:#C860FF; fill-opacity: 0.2545454545454545;"/>
<path d="M 510.27171657541305 439.72828342458695 L 507.5868170205631 453.2261849890747 L 521.0847185850508 455.9110845439246 L 523.7696181399008 442.4131829794369 Z" style="stroke:#000078; stroke-opacity: 0.3;fill:#C860FF; fill-opacity: 0.2545454545454545;"/>
<path d="M 521.0847185850508 455.9110845439246 L 513.4387715390521 467.3540529540013 L 524.8817399491288 475.00000000000006 L 532.5276869951276 463.5570315899233 Z" style="stroke:#000078; stroke-opacity: 0.3;fill:#C860FF; fill-opacity: 0.2545454545454545;"/>
<path d="M 524.8817399491288 475.00000000000006 L 513.4387715390521 482.645947045999 L 521.0847185850511 494.0889154560756 L 532.5276869951276 486.44296841007673 Z" style="stroke:#000078; stroke-opacity: 0.3;fill:#C860FF; fill-opacity: 0.2545454545454545;"/>
<path d="M 521.0847185850511 494.0889154560756 L 507.5868170205636 496.7738150109251 L 510.27171657541317 510.2717165754125 L 523.7696181399004 507.586817020563 Z" style="stroke:#000078; stroke-opacity: 0.3;fill:#C860FF; fill-opacity: 0.2545454545454545;"/>
<path d="M 510.27171657541317 510.2717165754125 L 496.77381501092503 507.58681702056253 L 494.0889154560751 521.0847185850506 L 507.58681702056316 523.7696181399007 Z" style="stroke:#000078; stroke-opacity: 0.3;fill:#C860FF; fill-opacity: 0.2545454545454545;"/>
<path d="M 494.0889154560751 521.0847185850506 L 482.64594704599824 513.4387715390524 L 475 524.8817399491292 L 486.4429684100768 532.5276869951274 Z" style="stroke:#000078; stroke-opacity: 0.3;fill:#C860FF; fill-opacity: 0.2545454545454545;"/>
<path d="M 467.3540529540015 513.4387715390521 L 463.2160962307825 503.44886029734425 L 453.22618498907457 507.5868170205632 L 457.3641417122936 517.5767282622711 Z" style="stroke:#00008C; stroke-opacity: 0.3;fill:#C860FF; fill-opacity: 0.2545454545454545;"/>
<path d="M 453.22618498907457 507.5868170205632 L 453.2261849890747 496.7738150109256 L 442.4131829794371 496.7738150109255 L 442.413182979437 507.58681702056305 Z" style="stroke:#00008C; stroke-opacity: 0.3;fill:#C860FF; fill-opacity: 0.2545454545454545;"/>
<path d="M 442.4131829794371 496.7738150109255 L 446.551139702656 486.78390376921743 L 436.56122846094786 482.6459470459986 L 432.423271737729 492.6358582877067 Z" style="stroke:#00008C; stroke-opacity: 0.3;fill:#C860FF; fill-opacity: 0.2545454545454545;"/>
<path d="M 436.56122846094786 482.6459470459986 L 444.20717550694656 475.00000000000006 L 436.56122846094803 467.3540529540014 L 428.9152814149494 474.99999999999994 Z" style="stroke:#00008C; stroke-opacity: 0.3;fill:#C860FF; fill-opacity: 0.2545454545454545;"/>
<path d="M 436.56122846094803 467.3540529540014 L 446.55113970265614 463.21609623078245 L 442.4131829794371 453.22618498907434 L 432.42327173772907 457.3641417122933 Z" style="stroke:#00008C; stroke-opacity: 0.3;fill:#C860FF; fill-opacity: 0.2545454545454545;"/>
<path d="M 442.4131829794371 453.22618498907434 L 453.2261849890746 453.22618498907406 L 453.22618498907434 442.41318297943656 L 442.41318297943684 442.41318297943684 Z" style="stroke:#00008C; stroke-opacity: 0.3;fill:#C860FF; fill-opacity: 0.2545454545454545;"/>
<path d="M 453.22618498907434 442.41318297943656 L 463.2160962307819 446.55113970265563 L 467.35405295400096 436.5612284609481 L 457.3641417122934 432.423271737729 Z" style="stroke:#00008C; stroke-opacity: 0.3;fill:#C860FF; fill-opacity: 0.2545454545454545;"/>
<path d="M 467.35405295400096 436.5612284609481 L 474.9999999999997 444.20717550694707 L 482.6459470459987 436.5612284609483 L 474.99999999999994 428.91528141494933 Z" style="stroke:#00008C; stroke-opacity: 0.3;fill:#C860FF; fill-opacity: 0.2545454545454545;"/>
<path d="M 482.6459470459987 436.5612284609483 L 486.7839037692179 446.5511397026561 L 496.7738150109256 442.41318297943684 L 492.63585828770647 432.4232717377291 Z" style="stroke:#00008C; stroke-opacity: 0.3;fill:#C860FF; fill-opacity: 0.2545454545454545;"/>
<path d="M 496.7738150109256 442.41318297943684 L 496.7738150109254 453.22618498907457 L 507.5868170205631 453.2261849890747 L 507.5868170205633 442.413182979437 Z" style="stroke:#00008C; stroke-opacity: 0.3;fill:#C860FF; fill-opacity: 0.2545454545454545;"/>
<path d="M 507.5868170205631 453.2261849890747 L 503.4488602973443 463.2160962307825 L 513.4387715390521 467.3540529540013 L 517.576728262271 457.3641417122935 Z" style="stroke:#00008C; stroke-opacity: 0.3;fill:#C860FF; fill-opacity: 0.2545454545454545;"/>
<path d="M 513.4387715390521 467.3540529540013 L 505.7928244930533 475.0000000000001 L 513.4387715390521 482.645947045999 L 521.084718585051 475.0000000000001 Z" style="stroke:#00008C; stroke-opacity: 0.3;fill:#C860FF; fill-opacity: 0.2545454545454545;"/>
<path d="M 513.4387715390521 482.645947045999 L 503.4488602973448 486.7839037692178 L 507.5868170205636 496.7738150109251 L 517.5767282622709 492.63585828770636 Z" style="stroke:#00008C; stroke-opacity: 0.3;fill:#C860FF; fill-opacity: 0.2545454545454545;"/>
<path d="M 507.5868170205636 496.7738150109251 L 496.7738150109256 496.7738150109245 L 496.77381501092503 507.58681702056253 L 507.58681702056305 507.5868170205631 Z" style="stroke:#00008C; stroke-opacity: 0.3;fill:#C860FF; fill-opacity: 0.2545454545454545;"/>
<path d="M 496.77381501092503 507.58681702056253 L 486.7839037692167 503.4488602973441 L 482.64594704599824 513.4387715390524 L 492.6358582877065 517.5767282622709 Z" style="stroke:#00008C; stroke-opacity: 0.3;fill:#C860FF; fill-opacity: 0.2545454545454545;"/>
<path d="M 482.64594704599824 513.4387715390524 L 475 505.7928244930539 L 467.3540529540015 513.4387715390521 L 474.9999999999998 521.0847185850506 Z" style="stroke:#00008C; stroke-opacity: 0.3;fill:#C860FF; fill-opacity: 0.2545454545454545;"/>
</g>
</svg>