<?xml version="1.0"?><!DOCTYPE svg PUBLIC "-//W3C//DTD SVG 1.1//EN" "http://www.w3.org/Graphics/SVG/1.1/DTD/svg11.dtd"><svg xmlns="http://www.w3.org/2000/svg" width="950" height="950">
<title>PatternSeven</title>
<desc>
Generated using the following configuration:

@implementation NewPattern : PatternSeven
+ (CPDict) defaultConfig
{
 return [CPDictionary dictionaryWithObjectsAndKeys:[[GRColor alloc] initWithGradientColors:[] baseColor:[CPColor colorWith8BitRed:255 green:255 blue:255 alpha:1]], "background_color", 0, "background_color_direction", 12, "number_of_points", 0, "rotation", 0, "recurse_depth", 1.14, "factor_larger", [GRPoint pointWithX:475 Y:475], "center_point", 150, "radius", YES, "show_shapes", [[CPColor colorWith8BitRed:0 green:255 blue:100 alpha:0.16363636363636364],[CPColor colorWith8BitRed:0 green:0 blue:0 alpha:0.33636363636363636],[CPColor colorWith8BitRed:0 green:0 blue:0 alpha:0.3],[CPColor colorWith8BitRed:0 green:0 blue:0 alpha:0.3],[CPColor colorWith8BitRed:255 green:2 blue:10 alpha:1],[CPColor colorWith8BitRed:255 green:23 blue:10 alpha:1]], "stroke_colors", [[CPColor colorWith8BitRed:255 green:247 blue:211 alpha:0.7],[CPColor colorWith8BitRed:255 green:255 blue:0 alpha:0.16363636363636364],[CPColor colorWith8BitRed:255 green:255 blue:0 alpha:0.16363636363636364],[CPColor colorWith8BitRed:200 green:96 blue:175 alpha:1],[CPColor colorWith8BitRed:23 green:200 blue:10 alpha:0],[CPColor colorWith8BitRed:200 green:23 blue:10 alpha:0]], "fill_colors"];
}
@end

</desc>
  <defs>
    <linearGradient id="grad1" x1="0%" y1="0%" x2="100%" y2="0%">
<stop offset="100%" style="stop-color:#FFFFFF;stop-opacity:1;" />
    </linearGradient>
  </defs>
<rect id="background" width="100%" height="100%" fill="url(#grad1)"/>
<g id="rotatelayer" transform="rotate(0, 475, 475)">
<path d="M 625 474.99999999999994 Z" style="stroke:#00FF64; stroke-opacity: 0.16363636363636364;fill:#FFF7D3; fill-opacity: 0.7;"/>
<circle cx="475" cy="475" r="150" style="stroke:#00FF64; stroke-opacity: 0.16363636363636364;fill:#FFF7D3; fill-opacity: 0.7;"/>
<path d="M 796 474.9999999999999 Z" style="stroke:#000000; stroke-opacity: 0.3;fill:#FFFF00; fill-opacity: 0.16363636363636364;"/>
<circle cx="646" cy="474.99999999999994" r="150" style="stroke:#000000; stroke-opacity: 0.3;fill:#FFFF00; fill-opacity: 0.16363636363636364;"/>
<path d="M 773.0903440471388 389.4999999999999 Z" style="stroke:#000000; stroke-opacity: 0.33636363636363636;fill:#FFFF00; fill-opacity: 0.16363636363636364;"/>
<circle cx="623.0903440471388" cy="389.49999999999994" r="150" style="stroke:#000000; stroke-opacity: 0.33636363636363636;fill:#FFFF00; fill-opacity: 0.16363636363636364;"/>
<path d="M 710.4999999999999 326.9096559528609 Z" style="stroke:#000000; stroke-opacity: 0.3;fill:#FFFF00; fill-opacity: 0.16363636363636364;"/>
<circle cx="560.4999999999999" cy="326.90965595286093" r="150" style="stroke:#000000; stroke-opacity: 0.3;fill:#FFFF00; fill-opacity: 0.16363636363636364;"/>
<path d="M 625 303.99999999999994 Z" style="stroke:#000000; stroke-opacity: 0.33636363636363636;fill:#FFFF00; fill-opacity: 0.16363636363636364;"/>
<circle cx="475" cy="304" r="150" style="stroke:#000000; stroke-opacity: 0.33636363636363636;fill:#FFFF00; fill-opacity: 0.16363636363636364;"/>
<path d="M 539.5 326.909655952861 Z" style="stroke:#000000; stroke-opacity: 0.3;fill:#FFFF00; fill-opacity: 0.16363636363636364;"/>
<circle cx="389.49999999999994" cy="326.90965595286104" r="150" style="stroke:#000000; stroke-opacity: 0.3;fill:#FFFF00; fill-opacity: 0.16363636363636364;"/>
<path d="M 476.909655952861 389.49999999999994 Z" style="stroke:#000000; stroke-opacity: 0.33636363636363636;fill:#FFFF00; fill-opacity: 0.16363636363636364;"/>
<circle cx="326.909655952861" cy="389.5" r="150" style="stroke:#000000; stroke-opacity: 0.33636363636363636;fill:#FFFF00; fill-opacity: 0.16363636363636364;"/>
<path d="M 454 474.99999999999994 Z" style="stroke:#000000; stroke-opacity: 0.3;fill:#FFFF00; fill-opacity: 0.16363636363636364;"/>
<circle cx="304" cy="475" r="150" style="stroke:#000000; stroke-opacity: 0.3;fill:#FFFF00; fill-opacity: 0.16363636363636364;"/>
<path d="M 476.909655952861 560.5 Z" style="stroke:#000000; stroke-opacity: 0.33636363636363636;fill:#FFFF00; fill-opacity: 0.16363636363636364;"/>
<circle cx="326.909655952861" cy="560.5" r="150" style="stroke:#000000; stroke-opacity: 0.33636363636363636;fill:#FFFF00; fill-opacity: 0.16363636363636364;"/>
<path d="M 539.5 623.0903440471391 Z" style="stroke:#000000; stroke-opacity: 0.3;fill:#FFFF00; fill-opacity: 0.16363636363636364;"/>
<circle cx="389.5" cy="623.0903440471391" r="150" style="stroke:#000000; stroke-opacity: 0.3;fill:#FFFF00; fill-opacity: 0.16363636363636364;"/>
<path d="M 625 646 Z" style="stroke:#000000; stroke-opacity: 0.33636363636363636;fill:#FFFF00; fill-opacity: 0.16363636363636364;"/>
<circle cx="475" cy="646" r="150" style="stroke:#000000; stroke-opacity: 0.33636363636363636;fill:#FFFF00; fill-opacity: 0.16363636363636364;"/>
<path d="M 710.5 623.0903440471391 Z" style="stroke:#000000; stroke-opacity: 0.3;fill:#FFFF00; fill-opacity: 0.16363636363636364;"/>
<circle cx="560.5" cy="623.0903440471391" r="150" style="stroke:#000000; stroke-opacity: 0.3;fill:#FFFF00; fill-opacity: 0.16363636363636364;"/>
<path d="M 773.0903440471391 560.5 Z" style="stroke:#000000; stroke-opacity: 0.33636363636363636;fill:#FFFF00; fill-opacity: 0.16363636363636364;"/>
<circle cx="623.0903440471391" cy="560.5" r="150" style="stroke:#000000; stroke-opacity: 0.33636363636363636;fill:#FFFF00; fill-opacity: 0.16363636363636364;"/>
<path d="M 623.0903440471391 560.5 L 560.5 560.5 L 560.5 623.0903440471391 L 623.0903440471391 623.0903440471391 Z" style="stroke:#000000; stroke-opacity: 0.3;fill:#C860AF; fill-opacity: 1;"/>
<path d="M 560.5 623.0903440471391 L 506.29517202356953 591.7951720235695 L 475 646 L 529.2048279764305 677.2951720235695 Z" style="stroke:#000000; stroke-opacity: 0.3;fill:#C860AF; fill-opacity: 1;"/>
<path d="M 475 646 L 443.70482797643047 591.7951720235695 L 389.5 623.0903440471391 L 420.79517202356953 677.2951720235695 Z" style="stroke:#000000; stroke-opacity: 0.3;fill:#C860AF; fill-opacity: 1;"/>
<path d="M 389.5 623.0903440471391 L 389.5 560.5 L 326.909655952861 560.5 L 326.90965595286093 623.0903440471391 Z" style="stroke:#000000; stroke-opacity: 0.3;fill:#C860AF; fill-opacity: 1;"/>
<path d="M 326.909655952861 560.5 L 358.20482797643047 506.2951720235695 L 304 475 L 272.70482797643047 529.2048279764305 Z" style="stroke:#000000; stroke-opacity: 0.3;fill:#C860AF; fill-opacity: 1;"/>
<path d="M 304 475 L 358.20482797643047 443.7048279764305 L 326.909655952861 389.5 L 272.70482797643047 420.7951720235695 Z" style="stroke:#000000; stroke-opacity: 0.3;fill:#C860AF; fill-opacity: 1;"/>
<path d="M 326.909655952861 389.5 L 389.49999999999994 389.5 L 389.49999999999994 326.90965595286104 L 326.909655952861 326.90965595286104 Z" style="stroke:#000000; stroke-opacity: 0.3;fill:#C860AF; fill-opacity: 1;"/>
<path d="M 389.49999999999994 326.90965595286104 L 443.7048279764305 358.2048279764305 L 475 304 L 420.7951720235695 272.7048279764305 Z" style="stroke:#000000; stroke-opacity: 0.3;fill:#C860AF; fill-opacity: 1;"/>
<path d="M 475 304 L 506.29517202356953 358.2048279764304 L 560.4999999999999 326.90965595286093 L 529.2048279764305 272.7048279764305 Z" style="stroke:#000000; stroke-opacity: 0.3;fill:#C860AF; fill-opacity: 1;"/>
<path d="M 560.4999999999999 326.90965595286093 L 560.4999999999999 389.49999999999994 L 623.0903440471388 389.49999999999994 L 623.090344047139 326.909655952861 Z" style="stroke:#000000; stroke-opacity: 0.3;fill:#C860AF; fill-opacity: 1;"/>
<path d="M 623.0903440471388 389.49999999999994 L 591.7951720235694 443.7048279764305 L 646 474.99999999999994 L 677.2951720235694 420.79517202356936 Z" style="stroke:#000000; stroke-opacity: 0.3;fill:#C860AF; fill-opacity: 1;"/>
<path d="M 646 474.99999999999994 L 591.7951720235695 506.29517202356953 L 623.0903440471391 560.5 L 677.2951720235695 529.2048279764305 Z" style="stroke:#000000; stroke-opacity: 0.3;fill:#C860AF; fill-opacity: 1;"/>
<path d="M 560.5 560.5 L 517.75 549.0451720235696 L 506.29517202356953 591.7951720235695 L 549.0451720235696 603.25 Z" style="stroke:#000014; stroke-opacity: 0.3;fill:#C860C3; fill-opacity: 1;"/>
<path d="M 506.29517202356953 591.7951720235695 L 475 560.5 L 443.70482797643047 591.7951720235695 L 475 623.0903440471391 Z" style="stroke:#000014; stroke-opacity: 0.3;fill:#C860C3; fill-opacity: 1;"/>
<path d="M 443.70482797643047 591.7951720235695 L 432.25 549.0451720235696 L 389.5 560.5 L 400.95482797643047 603.25 Z" style="stroke:#000014; stroke-opacity: 0.3;fill:#C860C3; fill-opacity: 1;"/>
<path d="M 389.5 560.5 L 400.9548279764305 517.7499999999999 L 358.20482797643047 506.2951720235695 L 346.74999999999994 549.0451720235695 Z" style="stroke:#000014; stroke-opacity: 0.3;fill:#C860C3; fill-opacity: 1;"/>
<path d="M 358.20482797643047 506.2951720235695 L 389.49999999999994 475 L 358.20482797643047 443.7048279764305 L 326.909655952861 475 Z" style="stroke:#000014; stroke-opacity: 0.3;fill:#C860C3; fill-opacity: 1;"/>
<path d="M 358.20482797643047 443.7048279764305 L 400.95482797643047 432.25 L 389.49999999999994 389.5 L 346.7499999999999 400.9548279764306 Z" style="stroke:#000014; stroke-opacity: 0.3;fill:#C860C3; fill-opacity: 1;"/>
<path d="M 389.49999999999994 389.5 L 432.24999999999994 400.9548279764306 L 443.7048279764305 358.2048279764305 L 400.9548279764305 346.75 Z" style="stroke:#000014; stroke-opacity: 0.3;fill:#C860C3; fill-opacity: 1;"/>
<path d="M 443.7048279764305 358.2048279764305 L 475.00000000000006 389.5 L 506.29517202356953 358.2048279764304 L 474.99999999999994 326.90965595286093 Z" style="stroke:#000014; stroke-opacity: 0.3;fill:#C860C3; fill-opacity: 1;"/>
<path d="M 506.29517202356953 358.2048279764304 L 517.75 400.95482797643035 L 560.4999999999999 389.49999999999994 L 549.0451720235694 346.75 Z" style="stroke:#000014; stroke-opacity: 0.3;fill:#C860C3; fill-opacity: 1;"/>
<path d="M 560.4999999999999 389.49999999999994 L 549.0451720235693 432.25 L 591.7951720235694 443.7048279764305 L 603.2499999999999 400.95482797643047 Z" style="stroke:#000014; stroke-opacity: 0.3;fill:#C860C3; fill-opacity: 1;"/>
<path d="M 591.7951720235694 443.7048279764305 L 560.4999999999999 475.00000000000006 L 591.7951720235695 506.29517202356953 L 623.090344047139 474.99999999999994 Z" style="stroke:#000014; stroke-opacity: 0.3;fill:#C860C3; fill-opacity: 1;"/>
<path d="M 591.7951720235695 506.29517202356953 L 549.0451720235696 517.75 L 560.5 560.5 L 603.25 549.0451720235696 Z" style="stroke:#000014; stroke-opacity: 0.3;fill:#C860C3; fill-opacity: 1;"/>
<path d="M 517.75 549.0451720235696 L 490.6475860117848 533.3975860117848 L 475 560.5 L 502.1024139882152 576.1475860117848 Z" style="stroke:#000028; stroke-opacity: 0.3;fill:#C860D7; fill-opacity: 1;"/>
<path d="M 475 560.5 L 459.3524139882152 533.3975860117848 L 432.25 549.0451720235696 L 447.8975860117848 576.1475860117848 Z" style="stroke:#000028; stroke-opacity: 0.3;fill:#C860D7; fill-opacity: 1;"/>
<path d="M 432.25 549.0451720235696 L 432.2500000000001 517.7500000000001 L 400.9548279764305 517.7499999999999 L 400.95482797643035 549.0451720235695 Z" style="stroke:#000028; stroke-opacity: 0.3;fill:#C860D7; fill-opacity: 1;"/>
<path d="M 400.9548279764305 517.7499999999999 L 416.6024139882152 490.64758601178465 L 389.49999999999994 475 L 373.8524139882153 502.10241398821523 Z" style="stroke:#000028; stroke-opacity: 0.3;fill:#C860D7; fill-opacity: 1;"/>
<path d="M 389.49999999999994 475 L 416.6024139882152 459.3524139882153 L 400.95482797643047 432.25 L 373.8524139882152 447.8975860117847 Z" style="stroke:#000028; stroke-opacity: 0.3;fill:#C860D7; fill-opacity: 1;"/>
<path d="M 400.95482797643047 432.25 L 432.2499999999999 432.25 L 432.24999999999994 400.9548279764306 L 400.95482797643047 400.9548279764306 Z" style="stroke:#000028; stroke-opacity: 0.3;fill:#C860D7; fill-opacity: 1;"/>
<path d="M 432.24999999999994 400.9548279764306 L 459.3524139882153 416.60241398821535 L 475.00000000000006 389.5 L 447.8975860117847 373.85241398821523 Z" style="stroke:#000028; stroke-opacity: 0.3;fill:#C860D7; fill-opacity: 1;"/>
<path d="M 475.00000000000006 389.5 L 490.6475860117848 416.6024139882151 L 517.75 400.95482797643035 L 502.1024139882152 373.85241398821523 Z" style="stroke:#000028; stroke-opacity: 0.3;fill:#C860D7; fill-opacity: 1;"/>
<path d="M 517.75 400.95482797643035 L 517.7499999999998 432.24999999999983 L 549.0451720235693 432.25 L 549.0451720235694 400.9548279764305 Z" style="stroke:#000028; stroke-opacity: 0.3;fill:#C860D7; fill-opacity: 1;"/>
<path d="M 549.0451720235693 432.25 L 533.3975860117846 459.3524139882153 L 560.4999999999999 475.00000000000006 L 576.1475860117846 447.8975860117847 Z" style="stroke:#000028; stroke-opacity: 0.3;fill:#C860D7; fill-opacity: 1;"/>
<path d="M 560.4999999999999 475.00000000000006 L 533.3975860117848 490.6475860117849 L 549.0451720235696 517.75 L 576.1475860117848 502.1024139882151 Z" style="stroke:#000028; stroke-opacity: 0.3;fill:#C860D7; fill-opacity: 1;"/>
<path d="M 549.0451720235696 517.75 L 517.75 517.75 L 517.75 549.0451720235696 L 549.0451720235696 549.0451720235696 Z" style="stroke:#000028; stroke-opacity: 0.3;fill:#C860D7; fill-opacity: 1;"/>
<path d="M 490.6475860117848 533.3975860117848 L 475 517.75 L 459.3524139882152 533.3975860117848 L 475 549.0451720235696 Z" style="stroke:#00003C; stroke-opacity: 0.3;fill:#C860EB; fill-opacity: 1;"/>
<path d="M 459.3524139882152 533.3975860117848 L 453.625 512.0225860117849 L 432.2500000000001 517.7500000000001 L 437.9774139882153 539.1249999999999 Z" style="stroke:#00003C; stroke-opacity: 0.3;fill:#C860EB; fill-opacity: 1;"/>
<path d="M 432.2500000000001 517.7500000000001 L 437.9774139882154 496.37499999999994 L 416.6024139882152 490.64758601178465 L 410.8749999999999 512.0225860117849 Z" style="stroke:#00003C; stroke-opacity: 0.3;fill:#C860EB; fill-opacity: 1;"/>
<path d="M 416.6024139882152 490.64758601178465 L 432.2499999999999 475 L 416.6024139882152 459.3524139882153 L 400.95482797643047 475 Z" style="stroke:#00003C; stroke-opacity: 0.3;fill:#C860EB; fill-opacity: 1;"/>
<path d="M 416.6024139882152 459.3524139882153 L 437.9774139882152 453.625 L 432.2499999999999 432.25 L 410.8749999999999 437.9774139882153 Z" style="stroke:#00003C; stroke-opacity: 0.3;fill:#C860EB; fill-opacity: 1;"/>
<path d="M 432.2499999999999 432.25 L 453.62499999999994 437.9774139882154 L 459.3524139882153 416.60241398821535 L 437.97741398821523 410.875 Z" style="stroke:#00003C; stroke-opacity: 0.3;fill:#C860EB; fill-opacity: 1;"/>
<path d="M 459.3524139882153 416.60241398821535 L 475.00000000000017 432.25 L 490.6475860117848 416.6024139882151 L 474.99999999999994 400.95482797643047 Z" style="stroke:#00003C; stroke-opacity: 0.3;fill:#C860EB; fill-opacity: 1;"/>
<path d="M 490.6475860117848 416.6024139882151 L 496.37499999999994 437.97741398821495 L 517.7499999999998 432.24999999999983 L 512.0225860117846 410.875 Z" style="stroke:#00003C; stroke-opacity: 0.3;fill:#C860EB; fill-opacity: 1;"/>
<path d="M 517.7499999999998 432.24999999999983 L 512.0225860117845 453.625 L 533.3975860117846 459.3524139882153 L 539.1249999999999 437.9774139882152 Z" style="stroke:#00003C; stroke-opacity: 0.3;fill:#C860EB; fill-opacity: 1;"/>
<path d="M 533.3975860117846 459.3524139882153 L 517.7499999999999 475.0000000000002 L 533.3975860117848 490.6475860117849 L 549.0451720235695 475 Z" style="stroke:#00003C; stroke-opacity: 0.3;fill:#C860EB; fill-opacity: 1;"/>
<path d="M 533.3975860117848 490.6475860117849 L 512.0225860117848 496.375 L 517.75 517.75 L 539.125 512.0225860117848 Z" style="stroke:#00003C; stroke-opacity: 0.3;fill:#C860EB; fill-opacity: 1;"/>
<path d="M 517.75 517.75 L 496.375 512.0225860117848 L 490.6475860117848 533.3975860117848 L 512.0225860117848 539.125 Z" style="stroke:#00003C; stroke-opacity: 0.3;fill:#C860EB; fill-opacity: 1;"/>
<path d="M 475 517.75 L 467.17620699410753 504.1987930058924 L 453.625 512.0225860117849 L 461.44879300589247 525.5737930058924 Z" style="stroke:#000050; stroke-opacity: 0.3;fill:#C860FF; fill-opacity: 1;"/>
<path d="M 453.625 512.0225860117849 L 453.6250000000002 496.3750000000001 L 437.9774139882154 496.37499999999994 L 437.9774139882152 512.0225860117847 Z" style="stroke:#000050; stroke-opacity: 0.3;fill:#C860FF; fill-opacity: 1;"/>
<path d="M 437.9774139882154 496.37499999999994 L 445.8012069941076 482.82379300589224 L 432.2499999999999 475 L 424.4262069941077 488.55120699410776 Z" style="stroke:#000050; stroke-opacity: 0.3;fill:#C860FF; fill-opacity: 1;"/>
<path d="M 432.2499999999999 475 L 445.80120699410753 467.17620699410764 L 437.9774139882152 453.625 L 424.42620699410753 461.44879300589236 Z" style="stroke:#000050; stroke-opacity: 0.3;fill:#C860FF; fill-opacity: 1;"/>
<path d="M 437.9774139882152 453.625 L 453.6249999999999 453.6250000000001 L 453.62499999999994 437.9774139882154 L 437.9774139882153 437.9774139882153 Z" style="stroke:#000050; stroke-opacity: 0.3;fill:#C860FF; fill-opacity: 1;"/>
<path d="M 453.62499999999994 437.9774139882154 L 467.17620699410776 445.8012069941078 L 475.00000000000017 432.25 L 461.44879300589236 424.4262069941076 Z" style="stroke:#000050; stroke-opacity: 0.3;fill:#C860FF; fill-opacity: 1;"/>
<path d="M 475.00000000000017 432.25 L 482.8237930058926 445.80120699410736 L 496.37499999999994 437.97741398821495 L 488.55120699410753 424.4262069941076 Z" style="stroke:#000050; stroke-opacity: 0.3;fill:#C860FF; fill-opacity: 1;"/>
<path d="M 496.37499999999994 437.97741398821495 L 496.37499999999966 453.6249999999998 L 512.0225860117845 453.625 L 512.0225860117847 437.9774139882152 Z" style="stroke:#000050; stroke-opacity: 0.3;fill:#C860FF; fill-opacity: 1;"/>
<path d="M 512.0225860117845 453.625 L 504.19879300589207 467.1762069941078 L 517.7499999999999 475.0000000000002 L 525.5737930058923 461.4487930058924 Z" style="stroke:#000050; stroke-opacity: 0.3;fill:#C860FF; fill-opacity: 1;"/>
<path d="M 517.7499999999999 475.0000000000002 L 504.1987930058925 482.8237930058926 L 512.0225860117848 496.375 L 525.5737930058923 488.55120699410764 Z" style="stroke:#000050; stroke-opacity: 0.3;fill:#C860FF; fill-opacity: 1;"/>
<path d="M 512.0225860117848 496.375 L 496.375 496.375 L 496.375 512.0225860117848 L 512.0225860117848 512.0225860117848 Z" style="stroke:#000050; stroke-opacity: 0.3;fill:#C860FF; fill-opacity: 1;"/>
<path d="M 496.375 512.0225860117848 L 482.8237930058924 504.1987930058924 L 475 517.75 L 488.5512069941076 525.5737930058924 Z" style="stroke:#000050; stroke-opacity: 0.3;fill:#C860FF; fill-opacity: 1;"/>
<path d="M 467.17620699410753 504.1987930058924 L 464.31250000000006 493.5112930058926 L 453.6250000000002 496.3750000000001 L 456.48870699410776 507.06249999999994 Z" style="stroke:#000064; stroke-opacity: 0.3;fill:#C860FF; fill-opacity: 1;"/>
<path d="M 453.6250000000002 496.3750000000001 L 456.4887069941078 485.6874999999999 L 445.8012069941076 482.82379300589224 L 442.9375 493.5112930058925 Z" style="stroke:#000064; stroke-opacity: 0.3;fill:#C860FF; fill-opacity: 1;"/>
<path d="M 445.8012069941076 482.82379300589224 L 453.6249999999999 474.9999999999999 L 445.80120699410753 467.17620699410764 L 437.9774139882153 475 Z" style="stroke:#000064; stroke-opacity: 0.3;fill:#C860FF; fill-opacity: 1;"/>
<path d="M 445.80120699410753 467.17620699410764 L 456.4887069941074 464.31250000000006 L 453.6249999999999 453.6250000000001 L 442.93749999999994 456.48870699410776 Z" style="stroke:#000064; stroke-opacity: 0.3;fill:#C860FF; fill-opacity: 1;"/>
<path d="M 453.6249999999999 453.6250000000001 L 464.31249999999994 456.48870699410793 L 467.17620699410776 445.8012069941078 L 456.48870699410764 442.9375 Z" style="stroke:#000064; stroke-opacity: 0.3;fill:#C860FF; fill-opacity: 1;"/>
<path d="M 467.17620699410776 445.8012069941078 L 475.0000000000004 453.625 L 482.8237930058926 445.80120699410736 L 474.99999999999994 437.9774139882152 Z" style="stroke:#000064; stroke-opacity: 0.3;fill:#C860FF; fill-opacity: 1;"/>
<path d="M 482.8237930058926 445.80120699410736 L 485.6874999999999 456.48870699410713 L 496.37499999999966 453.6249999999998 L 493.5112930058923 442.9375 Z" style="stroke:#000064; stroke-opacity: 0.3;fill:#C860FF; fill-opacity: 1;"/>
<path d="M 496.37499999999966 453.6249999999998 L 493.51129300589184 464.3125 L 504.19879300589207 467.1762069941078 L 507.0624999999999 456.4887069941076 Z" style="stroke:#000064; stroke-opacity: 0.3;fill:#C860FF; fill-opacity: 1;"/>
<path d="M 504.19879300589207 467.1762069941078 L 496.3749999999999 475.00000000000045 L 504.1987930058925 482.8237930058926 L 512.0225860117847 475 Z" style="stroke:#000064; stroke-opacity: 0.3;fill:#C860FF; fill-opacity: 1;"/>
<path d="M 504.1987930058925 482.8237930058926 L 493.5112930058925 485.68750000000006 L 496.375 496.375 L 507.0625 493.5112930058926 Z" style="stroke:#000064; stroke-opacity: 0.3;fill:#C860FF; fill-opacity: 1;"/>
<path d="M 496.375 496.375 L 485.6875 493.5112930058924 L 482.8237930058924 504.1987930058924 L 493.5112930058924 507.0625 Z" style="stroke:#000064; stroke-opacity: 0.3;fill:#C860FF; fill-opacity: 1;"/>
<path d="M 482.8237930058924 504.1987930058924 L 475 496.375 L 467.17620699410753 504.1987930058924 L 475 512.0225860117848 Z" style="stroke:#000064; stroke-opacity: 0.3;fill:#C860FF; fill-opacity: 1;"/>
<path d="M 464.31250000000006 493.5112930058926 L 464.3125000000002 485.6875000000001 L 456.4887069941078 485.6874999999999 L 456.4887069941076 493.5112930058923 Z" style="stroke:#000078; stroke-opacity: 0.3;fill:#C860FF; fill-opacity: 1;"/>
<path d="M 456.4887069941078 485.6874999999999 L 460.40060349705385 478.9118965029459 L 453.6249999999999 474.9999999999999 L 449.71310349705385 481.77560349705385 Z" style="stroke:#000078; stroke-opacity: 0.3;fill:#C860FF; fill-opacity: 1;"/>
<path d="M 453.6249999999999 474.9999999999999 L 460.40060349705357 471.08810349705374 L 456.4887069941074 464.31250000000006 L 449.7131034970538 468.22439650294626 Z" style="stroke:#000078; stroke-opacity: 0.3;fill:#C860FF; fill-opacity: 1;"/>
<path d="M 456.4887069941074 464.31250000000006 L 464.3124999999998 464.3125000000003 L 464.31249999999994 456.48870699410793 L 456.4887069941076 456.48870699410776 Z" style="stroke:#000078; stroke-opacity: 0.3;fill:#C860FF; fill-opacity: 1;"/>
<path d="M 464.31249999999994 456.48870699410793 L 471.08810349705414 460.4006034970542 L 475.0000000000004 453.625 L 468.2243965029462 449.71310349705374 Z" style="stroke:#000078; stroke-opacity: 0.3;fill:#C860FF; fill-opacity: 1;"/>
<path d="M 475.0000000000004 453.625 L 478.91189650294655 460.40060349705334 L 485.6874999999999 456.48870699410713 L 481.7756034970537 449.7131034970538 Z" style="stroke:#000078; stroke-opacity: 0.3;fill:#C860FF; fill-opacity: 1;"/>
<path d="M 485.6874999999999 456.48870699410713 L 485.68749999999943 464.31249999999955 L 493.51129300589184 464.3125 L 493.5112930058923 456.4887069941076 Z" style="stroke:#000078; stroke-opacity: 0.3;fill:#C860FF; fill-opacity: 1;"/>
<path d="M 493.51129300589184 464.3125 L 489.59939650294564 471.08810349705425 L 496.3749999999999 475.00000000000045 L 500.2868965029461 468.2243965029462 Z" style="stroke:#000078; stroke-opacity: 0.3;fill:#C860FF; fill-opacity: 1;"/>
<path d="M 496.3749999999999 475.00000000000045 L 489.59939650294643 478.91189650294655 L 493.5112930058925 485.68750000000006 L 500.286896502946 481.7756034970539 Z" style="stroke:#000078; stroke-opacity: 0.3;fill:#C860FF; fill-opacity: 1;"/>
<path d="M 493.5112930058925 485.68750000000006 L 485.6875000000001 485.68749999999994 L 485.6875 493.5112930058924 L 493.5112930058924 493.51129300589247 Z" style="stroke:#000078; stroke-opacity: 0.3;fill:#C860FF; fill-opacity: 1;"/>
<path d="M 485.6875 493.5112930058924 L 478.9118965029462 489.5993965029462 L 475 496.375 L 481.7756034970538 500.2868965029462 Z" style="stroke:#000078; stroke-opacity: 0.3;fill:#C860FF; fill-opacity: 1;"/>
<path d="M 475 496.375 L 471.0881034970537 489.5993965029464 L 464.31250000000006 493.5112930058926 L 468.2243965029463 500.28689650294626 Z" style="stroke:#000078; stroke-opacity: 0.3;fill:#C860FF; fill-opacity: 1;"/>
<path d="M 464.3125000000002 485.6875000000001 L 465.74435349705414 480.3437499999999 L 460.40060349705385 478.9118965029459 L 458.96875 484.2556465029462 Z" style="stroke:#00008C; stroke-opacity: 0.3;fill:#C860FF; fill-opacity: 1;"/>
<path d="M 460.40060349705385 478.9118965029459 L 464.3124999999998 474.99999999999966 L 460.40060349705357 471.08810349705374 L 456.4887069941076 475 Z" style="stroke:#00008C; stroke-opacity: 0.3;fill:#C860FF; fill-opacity: 1;"/>
<path d="M 460.40060349705357 471.08810349705374 L 465.7443534970534 469.6562500000001 L 464.3124999999998 464.3125000000003 L 458.96874999999994 465.7443534970539 Z" style="stroke:#00008C; stroke-opacity: 0.3;fill:#C860FF; fill-opacity: 1;"/>
<path d="M 464.3124999999998 464.3125000000003 L 469.65625 465.7443534970544 L 471.08810349705414 460.4006034970542 L 465.7443534970539 458.96875000000006 Z" style="stroke:#00008C; stroke-opacity: 0.3;fill:#C860FF; fill-opacity: 1;"/>
<path d="M 471.08810349705414 460.4006034970542 L 475.0000000000008 464.3125 L 478.91189650294655 460.40060349705334 L 474.9999999999999 456.4887069941076 Z" style="stroke:#00008C; stroke-opacity: 0.3;fill:#C860FF; fill-opacity: 1;"/>
<path d="M 478.91189650294655 460.40060349705334 L 480.3437499999999 465.7443534970529 L 485.68749999999943 464.31249999999955 L 484.2556465029461 458.96875 Z" style="stroke:#00008C; stroke-opacity: 0.3;fill:#C860FF; fill-opacity: 1;"/>
<path d="M 485.68749999999943 464.31249999999955 L 484.2556465029452 469.65625 L 489.59939650294564 471.08810349705425 L 491.0312499999999 465.7443534970538 Z" style="stroke:#00008C; stroke-opacity: 0.3;fill:#C860FF; fill-opacity: 1;"/>
<path d="M 489.59939650294564 471.08810349705425 L 485.6874999999999 475.0000000000008 L 489.59939650294643 478.91189650294655 L 493.5112930058922 475 Z" style="stroke:#00008C; stroke-opacity: 0.3;fill:#C860FF; fill-opacity: 1;"/>
<path d="M 489.59939650294643 478.91189650294655 L 484.25564650294655 480.3437500000001 L 485.6875000000001 485.68749999999994 L 491.03125 484.25564650294643 Z" style="stroke:#00008C; stroke-opacity: 0.3;fill:#C860FF; fill-opacity: 1;"/>
<path d="M 485.6875000000001 485.68749999999994 L 480.34375 484.2556465029461 L 478.9118965029462 489.5993965029462 L 484.2556465029463 491.03125 Z" style="stroke:#00008C; stroke-opacity: 0.3;fill:#C860FF; fill-opacity: 1;"/>
<path d="M 478.9118965029462 489.5993965029462 L 474.9999999999999 485.68750000000006 L 471.0881034970537 489.5993965029464 L 475 493.5112930058926 Z" style="stroke:#00008C; stroke-opacity: 0.3;fill:#C860FF; fill-opacity: 1;"/>
<path d="M 471.0881034970537 489.5993965029464 L 469.6562500000001 484.25564650294655 L 464.3125000000002 485.6875000000001 L 465.7443534970538 491.03125 Z" style="stroke:#00008C; stroke-opacity: 0.3;fill:#C860FF; fill-opacity: 1;"/>
</g>
</svg>