<?xml version="1.0"?><!DOCTYPE svg PUBLIC "-//W3C//DTD SVG 1.1//EN" "http://www.w3.org/Graphics/SVG/1.1/DTD/svg11.dtd"><svg xmlns="http://www.w3.org/2000/svg" width="950" height="950">
<title>PatternSixtySeven</title>
<desc>
Generated using the following configuration:

@implementation NewPattern : PatternSixtySeven
+ (CPDict) defaultConfig
{
 return [CPDictionary dictionaryWithObjectsAndKeys:[[GRColor alloc] initWithGradientColors:[] baseColor:[CPColor colorWith8BitRed:255 green:16 blue:29 alpha:1]], "background_color", 0, "background_color_direction", 18, "number_of_points", 0, "rotation", 0, "recurse_depth", 2.78, "factor_larger", [GRPoint pointWithX:475 Y:475], "center_point", 120, "radius", YES, "show_shapes", [[CPColor colorWith8BitRed:249 green:142 blue:21 alpha:1],[CPColor colorWith8BitRed:249 green:14 blue:191 alpha:1],[CPColor colorWith8BitRed:209 green:40 blue:128 alpha:1],[CPColor colorWith8BitRed:226 green:123 blue:20 alpha:1],[CPColor colorWith8BitRed:42 green:38 blue:247 alpha:1],[CPColor colorWith8BitRed:255 green:23 blue:10 alpha:1]], "stroke_colors", [[CPColor colorWith8BitRed:0 green:0 blue:127 alpha:1],[CPColor colorWith8BitRed:0 green:0 blue:127 alpha:1],[CPColor colorWith8BitRed:0 green:0 blue:127 alpha:1],[CPColor colorWith8BitRed:0 green:0 blue:127 alpha:1],[CPColor colorWith8BitRed:0 green:0 blue:127 alpha:1],[CPColor colorWith8BitRed:0 green:0 blue:127 alpha:1]], "fill_colors"];
}
@end

</desc>
  <defs>
    <linearGradient id="grad1" x1="0%" y1="0%" x2="100%" y2="0%">
<stop offset="100%" style="stop-color:#FF101D;stop-opacity:1;" />
    </linearGradient>
  </defs>
<rect id="background" width="100%" height="100%" fill="url(#grad1)"/>
<g id="rotatelayer" transform="rotate(0, 475, 475)">
<path d="M 788.481458294179 589.097919813443 L 709.3489288703419 610.3014171675921 L 730.5524262244911 689.4339465914294 L 809.6849556483284 668.2304492372801 Z" style="stroke:#F98E15; stroke-opacity: 1;fill:#00007F; fill-opacity: 1;"/>
<path d="M 730.5524262244911 689.4339465914294 L 648.9401490567159 682.2937975347136 L 641.8 763.9060747024887 L 723.4122771677751 771.0462237592046 Z" style="stroke:#F98E15; stroke-opacity: 1;fill:#00007F; fill-opacity: 1;"/>
<path d="M 641.8 763.9060747024887 L 567.551620183652 729.2834865885247 L 532.929032069688 803.5318664048727 L 607.177411886036 838.1544545188367 Z" style="stroke:#F98E15; stroke-opacity: 1;fill:#00007F; fill-opacity: 1;"/>
<path d="M 532.929032069688 803.5318664048727 L 475 745.6028343351848 L 417.07096793031207 803.5318664048727 L 475 861.4608984745607 Z" style="stroke:#F98E15; stroke-opacity: 1;fill:#00007F; fill-opacity: 1;"/>
<path d="M 417.07096793031207 803.5318664048727 L 382.44837981634805 729.2834865885247 L 308.20000000000005 763.9060747024887 L 342.822588113964 838.1544545188367 Z" style="stroke:#F98E15; stroke-opacity: 1;fill:#00007F; fill-opacity: 1;"/>
<path d="M 308.20000000000005 763.9060747024887 L 301.059850943284 682.2937975347137 L 219.447573775509 689.4339465914297 L 226.58772283222504 771.0462237592047 Z" style="stroke:#F98E15; stroke-opacity: 1;fill:#00007F; fill-opacity: 1;"/>
<path d="M 219.447573775509 689.4339465914297 L 240.65107112965828 610.3014171675925 L 161.51854170582106 589.0979198134432 L 140.3150443516718 668.2304492372805 Z" style="stroke:#F98E15; stroke-opacity: 1;fill:#00007F; fill-opacity: 1;"/>
<path d="M 161.51854170582106 589.0979198134432 L 208.50823075963217 521.989689053811 L 141.40000000000003 475 L 94.41031094618891 542.1082307596322 Z" style="stroke:#F98E15; stroke-opacity: 1;fill:#00007F; fill-opacity: 1;"/>
<path d="M 141.40000000000003 475 L 208.5082307596321 428.01031094618895 L 161.51854170582106 360.9020801865569 L 94.41031094618899 407.8917692403679 Z" style="stroke:#F98E15; stroke-opacity: 1;fill:#00007F; fill-opacity: 1;"/>
<path d="M 161.51854170582106 360.9020801865569 L 240.65107112965808 339.6985828324076 L 219.44757377550886 260.5660534085706 L 140.31504435167182 281.76955076271986 Z" style="stroke:#F98E15; stroke-opacity: 1;fill:#00007F; fill-opacity: 1;"/>
<path d="M 219.44757377550886 260.5660534085706 L 301.059850943284 267.7062024652864 L 308.1999999999998 186.0939252975113 L 226.5877228322247 178.9537762407955 Z" style="stroke:#F98E15; stroke-opacity: 1;fill:#00007F; fill-opacity: 1;"/>
<path d="M 308.1999999999998 186.0939252975113 L 382.44837981634794 220.71651341147543 L 417.07096793031207 146.4681335951273 L 342.8225881139639 111.84554548116319 Z" style="stroke:#F98E15; stroke-opacity: 1;fill:#00007F; fill-opacity: 1;"/>
<path d="M 417.07096793031207 146.4681335951273 L 474.9999999999999 204.39716566481516 L 532.9290320696878 146.4681335951273 L 474.9999999999999 88.53910152543946 Z" style="stroke:#F98E15; stroke-opacity: 1;fill:#00007F; fill-opacity: 1;"/>
<path d="M 532.9290320696878 146.4681335951273 L 567.5516201836518 220.7165134114754 L 641.8 186.0939252975113 L 607.1774118860359 111.84554548116321 Z" style="stroke:#F98E15; stroke-opacity: 1;fill:#00007F; fill-opacity: 1;"/>
<path d="M 641.8 186.0939252975113 L 648.9401490567158 267.7062024652863 L 730.5524262244908 260.56605340857044 L 723.412277167775 178.95377624079546 Z" style="stroke:#F98E15; stroke-opacity: 1;fill:#00007F; fill-opacity: 1;"/>
<path d="M 730.5524262244908 260.56605340857044 L 709.3489288703418 339.6985828324077 L 788.481458294179 360.9020801865567 L 809.684955648328 281.76955076271946 Z" style="stroke:#F98E15; stroke-opacity: 1;fill:#00007F; fill-opacity: 1;"/>
<path d="M 788.481458294179 360.9020801865567 L 741.491769240368 428.0103109461887 L 808.5999999999999 474.99999999999983 L 855.589689053811 407.8917692403678 Z" style="stroke:#F98E15; stroke-opacity: 1;fill:#00007F; fill-opacity: 1;"/>
<path d="M 808.5999999999999 474.99999999999983 L 741.4917692403678 521.9896890538109 L 788.481458294179 589.097919813443 L 855.5896890538111 542.1082307596319 Z" style="stroke:#F98E15; stroke-opacity: 1;fill:#00007F; fill-opacity: 1;"/>
<path d="M 709.3489288703419 610.3014171675921 L 643.1483487799683 616.09321744434 L 648.9401490567159 682.2937975347136 L 715.1407291470896 676.5019972579659 Z" style="stroke:#F90EB5; stroke-opacity: 1;fill:#000075; fill-opacity: 1;"/>
<path d="M 648.9401490567159 682.2937975347136 L 584.7510400932783 665.0943776250872 L 567.551620183652 729.2834865885247 L 631.7407291470895 746.4829064981511 Z" style="stroke:#F90EB5; stroke-opacity: 1;fill:#000075; fill-opacity: 1;"/>
<path d="M 567.551620183652 729.2834865885247 L 513.116136218496 691.1673503700288 L 475 745.6028343351848 L 529.435483965156 783.7189705536807 Z" style="stroke:#F90EB5; stroke-opacity: 1;fill:#000075; fill-opacity: 1;"/>
<path d="M 475 745.6028343351848 L 436.88386378150403 691.1673503700288 L 382.44837981634805 729.2834865885247 L 420.564516034844 783.7189705536807 Z" style="stroke:#F90EB5; stroke-opacity: 1;fill:#000075; fill-opacity: 1;"/>
<path d="M 382.44837981634805 729.2834865885247 L 365.24895990672155 665.0943776250872 L 301.059850943284 682.2937975347137 L 318.2592708529105 746.4829064981511 Z" style="stroke:#F90EB5; stroke-opacity: 1;fill:#000075; fill-opacity: 1;"/>
<path d="M 301.059850943284 682.2937975347137 L 306.8516512200317 616.0932174443402 L 240.65107112965828 610.3014171675925 L 234.85927085291053 676.5019972579659 Z" style="stroke:#F90EB5; stroke-opacity: 1;fill:#000075; fill-opacity: 1;"/>
<path d="M 240.65107112965828 610.3014171675925 L 268.73551500153593 550.0741329256887 L 208.50823075963217 521.989689053811 L 180.4237868877545 582.2169732957148 Z" style="stroke:#F90EB5; stroke-opacity: 1;fill:#000075; fill-opacity: 1;"/>
<path d="M 208.50823075963217 521.989689053811 L 255.4979198134432 475 L 208.5082307596321 428.01031094618895 L 161.5185417058211 475 Z" style="stroke:#F90EB5; stroke-opacity: 1;fill:#000075; fill-opacity: 1;"/>
<path d="M 208.5082307596321 428.01031094618895 L 268.73551500153576 399.92586707431127 L 240.65107112965808 339.6985828324076 L 180.42378688775443 367.7830267042853 Z" style="stroke:#F90EB5; stroke-opacity: 1;fill:#000075; fill-opacity: 1;"/>
<path d="M 240.65107112965808 339.6985828324076 L 306.85165122003167 333.90678255566 L 301.059850943284 267.7062024652864 L 234.85927085291047 273.49800274203403 Z" style="stroke:#F90EB5; stroke-opacity: 1;fill:#000075; fill-opacity: 1;"/>
<path d="M 301.059850943284 267.7062024652864 L 365.2489599067215 284.9056223749129 L 382.44837981634794 220.71651341147543 L 318.25927085291045 203.51709350184896 Z" style="stroke:#F90EB5; stroke-opacity: 1;fill:#000075; fill-opacity: 1;"/>
<path d="M 382.44837981634794 220.71651341147543 L 436.88386378150403 258.8326496299713 L 474.9999999999999 204.39716566481516 L 420.5645160348438 166.28102944631934 Z" style="stroke:#F90EB5; stroke-opacity: 1;fill:#000075; fill-opacity: 1;"/>
<path d="M 474.9999999999999 204.39716566481516 L 513.1161362184957 258.83264962997123 L 567.5516201836518 220.7165134114754 L 529.435483965156 166.2810294463193 Z" style="stroke:#F90EB5; stroke-opacity: 1;fill:#000075; fill-opacity: 1;"/>
<path d="M 567.5516201836518 220.7165134114754 L 584.7510400932783 284.9056223749128 L 648.9401490567158 267.7062024652863 L 631.7407291470893 203.51709350184888 Z" style="stroke:#F90EB5; stroke-opacity: 1;fill:#000075; fill-opacity: 1;"/>
<path d="M 648.9401490567158 267.7062024652863 L 643.148348779968 333.90678255565996 L 709.3489288703418 339.6985828324077 L 715.1407291470894 273.498002742034 Z" style="stroke:#F90EB5; stroke-opacity: 1;fill:#000075; fill-opacity: 1;"/>
<path d="M 709.3489288703418 339.6985828324077 L 681.2644849984642 399.9258670743113 L 741.491769240368 428.0103109461887 L 769.5762131122453 367.78302670428513 Z" style="stroke:#F90EB5; stroke-opacity: 1;fill:#000075; fill-opacity: 1;"/>
<path d="M 741.491769240368 428.0103109461887 L 694.5020801865567 474.9999999999998 L 741.4917692403678 521.9896890538109 L 788.481458294179 474.9999999999999 Z" style="stroke:#F90EB5; stroke-opacity: 1;fill:#000075; fill-opacity: 1;"/>
<path d="M 741.4917692403678 521.9896890538109 L 681.2644849984642 550.0741329256884 L 709.3489288703419 610.3014171675921 L 769.5762131122453 582.2169732957145 Z" style="stroke:#F90EB5; stroke-opacity: 1;fill:#000075; fill-opacity: 1;"/>
<path d="M 643.1483487799683 616.09321744434 L 589.4491143462498 611.3951431913686 L 584.7510400932783 665.0943776250872 L 638.4502745269968 669.7924518780585 Z" style="stroke:#D1286C; stroke-opacity: 1;fill:#00006B; fill-opacity: 1;"/>
<path d="M 584.7510400932783 665.0943776250872 L 535.8971017834164 642.3134120601668 L 513.116136218496 691.1673503700288 L 561.9700745283579 713.9483159349492 Z" style="stroke:#D1286C; stroke-opacity: 1;fill:#00006B; fill-opacity: 1;"/>
<path d="M 513.116136218496 691.1673503700288 L 475 653.0512141515328 L 436.88386378150403 691.1673503700288 L 475 729.2834865885247 Z" style="stroke:#D1286C; stroke-opacity: 1;fill:#00006B; fill-opacity: 1;"/>
<path d="M 436.88386378150403 691.1673503700288 L 414.1028982165836 642.3134120601668 L 365.24895990672155 665.0943776250872 L 388.029925471642 713.9483159349492 Z" style="stroke:#D1286C; stroke-opacity: 1;fill:#00006B; fill-opacity: 1;"/>
<path d="M 365.24895990672155 665.0943776250872 L 360.55088565375013 611.3951431913688 L 306.8516512200317 616.0932174443402 L 311.54972547300315 669.7924518780587 Z" style="stroke:#D1286C; stroke-opacity: 1;fill:#00006B; fill-opacity: 1;"/>
<path d="M 306.8516512200317 616.0932174443402 L 320.8031253701096 564.0256070757666 L 268.73551500153593 550.0741329256887 L 254.7840408514581 602.1417432942624 Z" style="stroke:#D1286C; stroke-opacity: 1;fill:#00006B; fill-opacity: 1;"/>
<path d="M 268.73551500153593 550.0741329256887 L 299.6537838703339 505.91826886879795 L 255.4979198134432 475 L 224.5796509446452 519.1558640568907 Z" style="stroke:#D1286C; stroke-opacity: 1;fill:#00006B; fill-opacity: 1;"/>
<path d="M 255.4979198134432 475 L 299.6537838703338 444.08173113120193 L 268.73551500153576 399.92586707431127 L 224.57965094464512 430.8441359431094 Z" style="stroke:#D1286C; stroke-opacity: 1;fill:#00006B; fill-opacity: 1;"/>
<path d="M 268.73551500153576 399.92586707431127 L 320.80312537010934 385.9743929242336 L 306.85165122003167 333.90678255566 L 254.78404085145812 347.85825670573763 Z" style="stroke:#D1286C; stroke-opacity: 1;fill:#00006B; fill-opacity: 1;"/>
<path d="M 306.85165122003167 333.90678255566 L 360.55088565375013 338.6048568086314 L 365.2489599067215 284.9056223749129 L 311.54972547300304 280.20754812194156 Z" style="stroke:#D1286C; stroke-opacity: 1;fill:#00006B; fill-opacity: 1;"/>
<path d="M 365.2489599067215 284.9056223749129 L 414.1028982165836 307.68658793983343 L 436.88386378150403 258.8326496299713 L 388.0299254716419 236.05168406505086 Z" style="stroke:#D1286C; stroke-opacity: 1;fill:#00006B; fill-opacity: 1;"/>
<path d="M 436.88386378150403 258.8326496299713 L 474.99999999999994 296.9487858484671 L 513.1161362184957 258.83264962997123 L 474.99999999999983 220.71651341147538 Z" style="stroke:#D1286C; stroke-opacity: 1;fill:#00006B; fill-opacity: 1;"/>
<path d="M 513.1161362184957 258.83264962997123 L 535.8971017834162 307.6865879398333 L 584.7510400932783 284.9056223749128 L 561.9700745283578 236.05168406505072 Z" style="stroke:#D1286C; stroke-opacity: 1;fill:#00006B; fill-opacity: 1;"/>
<path d="M 584.7510400932783 284.9056223749128 L 589.4491143462496 338.6048568086312 L 643.148348779968 333.90678255565996 L 638.4502745269967 280.2075481219415 Z" style="stroke:#D1286C; stroke-opacity: 1;fill:#00006B; fill-opacity: 1;"/>
<path d="M 643.148348779968 333.90678255565996 L 629.1968746298904 385.9743929242337 L 681.2644849984642 399.9258670743113 L 695.2159591485419 347.8582567057375 Z" style="stroke:#D1286C; stroke-opacity: 1;fill:#00006B; fill-opacity: 1;"/>
<path d="M 681.2644849984642 399.9258670743113 L 650.3462161296662 444.08173113120176 L 694.5020801865567 474.9999999999998 L 725.4203490553547 430.84413594310934 Z" style="stroke:#D1286C; stroke-opacity: 1;fill:#00006B; fill-opacity: 1;"/>
<path d="M 694.5020801865567 474.9999999999998 L 650.3462161296661 505.9182688687979 L 681.2644849984642 550.0741329256884 L 725.4203490553548 519.1558640568903 Z" style="stroke:#D1286C; stroke-opacity: 1;fill:#00006B; fill-opacity: 1;"/>
<path d="M 681.2644849984642 550.0741329256884 L 629.1968746298905 564.0256070757663 L 643.1483487799683 616.09321744434 L 695.215959148542 602.1417432942623 Z" style="stroke:#D1286C; stroke-opacity: 1;fill:#00006B; fill-opacity: 1;"/>
<path d="M 589.4491143462498 611.3951431913686 L 547.213973630434 600.078271344351 L 535.8971017834164 642.3134120601668 L 578.1322424992321 653.6302839071844 Z" style="stroke:#D12861; stroke-opacity: 1;fill:#000061; fill-opacity: 1;"/>
<path d="M 535.8971017834164 642.3134120601668 L 500.0796498460252 617.2337622141415 L 475 653.0512141515328 L 510.8174519373912 678.130863997558 Z" style="stroke:#D12861; stroke-opacity: 1;fill:#000061; fill-opacity: 1;"/>
<path d="M 475 653.0512141515328 L 449.92035015397477 617.2337622141415 L 414.1028982165836 642.3134120601668 L 439.18254806260876 678.130863997558 Z" style="stroke:#D12861; stroke-opacity: 1;fill:#000061; fill-opacity: 1;"/>
<path d="M 414.1028982165836 642.3134120601668 L 402.78602636956583 600.078271344351 L 360.55088565375013 611.3951431913688 L 371.8677575007678 653.6302839071844 Z" style="stroke:#D12861; stroke-opacity: 1;fill:#000061; fill-opacity: 1;"/>
<path d="M 360.55088565375013 611.3951431913688 L 364.361773569731 567.8364949917475 L 320.8031253701096 564.0256070757666 L 316.9922374541288 607.5842552753879 Z" style="stroke:#D12861; stroke-opacity: 1;fill:#000061; fill-opacity: 1;"/>
<path d="M 320.8031253701096 564.0256070757666 L 339.28212372370615 524.3972672223944 L 299.6537838703339 505.91826886879795 L 281.1747855167374 545.5466087221702 Z" style="stroke:#D12861; stroke-opacity: 1;fill:#000061; fill-opacity: 1;"/>
<path d="M 299.6537838703339 505.91826886879795 L 330.5720527391319 474.9999999999999 L 299.6537838703338 444.08173113120193 L 268.7355150015359 475 Z" style="stroke:#D12861; stroke-opacity: 1;fill:#000061; fill-opacity: 1;"/>
<path d="M 299.6537838703338 444.08173113120193 L 339.2821237237057 425.60273277760547 L 320.80312537010934 385.9743929242336 L 281.1747855167374 404.45339127783 Z" style="stroke:#D12861; stroke-opacity: 1;fill:#000061; fill-opacity: 1;"/>
<path d="M 320.80312537010934 385.9743929242336 L 364.3617735697309 382.1635050082529 L 360.55088565375013 338.6048568086314 L 316.9922374541286 342.4157447246121 Z" style="stroke:#D12861; stroke-opacity: 1;fill:#000061; fill-opacity: 1;"/>
<path d="M 360.55088565375013 338.6048568086314 L 402.78602636956583 349.9217286556492 L 414.1028982165836 307.68658793983343 L 371.8677575007678 296.3697160928157 Z" style="stroke:#D12861; stroke-opacity: 1;fill:#000061; fill-opacity: 1;"/>
<path d="M 414.1028982165836 307.68658793983343 L 449.92035015397494 332.76623778585844 L 474.99999999999994 296.9487858484671 L 439.1825480626086 271.8691360024421 Z" style="stroke:#D12861; stroke-opacity: 1;fill:#000061; fill-opacity: 1;"/>
<path d="M 474.99999999999994 296.9487858484671 L 500.079649846025 332.7662377858583 L 535.8971017834162 307.6865879398333 L 510.81745193739124 271.8691360024421 Z" style="stroke:#D12861; stroke-opacity: 1;fill:#000061; fill-opacity: 1;"/>
<path d="M 535.8971017834162 307.6865879398333 L 547.213973630434 349.92172865564896 L 589.4491143462496 338.6048568086312 L 578.1322424992319 296.36971609281557 Z" style="stroke:#D12861; stroke-opacity: 1;fill:#000061; fill-opacity: 1;"/>
<path d="M 589.4491143462496 338.6048568086312 L 585.6382264302688 382.16350500825286 L 629.1968746298904 385.9743929242337 L 633.0077625458712 342.41574472461207 Z" style="stroke:#D12861; stroke-opacity: 1;fill:#000061; fill-opacity: 1;"/>
<path d="M 629.1968746298904 385.9743929242337 L 610.7178762762943 425.60273277760564 L 650.3462161296662 444.08173113120176 L 668.8252144832624 404.45339127782984 Z" style="stroke:#D12861; stroke-opacity: 1;fill:#000061; fill-opacity: 1;"/>
<path d="M 650.3462161296662 444.08173113120176 L 619.427947260868 474.9999999999998 L 650.3462161296661 505.9182688687979 L 681.2644849984642 474.9999999999999 Z" style="stroke:#D12861; stroke-opacity: 1;fill:#000061; fill-opacity: 1;"/>
<path d="M 650.3462161296661 505.9182688687979 L 610.7178762762942 524.3972672223944 L 629.1968746298905 564.0256070757663 L 668.8252144832625 545.5466087221699 Z" style="stroke:#D12861; stroke-opacity: 1;fill:#000061; fill-opacity: 1;"/>
<path d="M 629.1968746298905 564.0256070757663 L 585.6382264302691 567.836494991747 L 589.4491143462498 611.3951431913686 L 633.0077625458713 607.5842552753877 Z" style="stroke:#D12861; stroke-opacity: 1;fill:#000061; fill-opacity: 1;"/>
<path d="M 547.213973630434 600.078271344351 L 515.0690663033345 585.0888548870419 L 500.0796498460252 617.2337622141415 L 532.2245571731248 632.2231786714508 Z" style="stroke:#E27B00; stroke-opacity: 1;fill:#000057; fill-opacity: 1;"/>
<path d="M 500.0796498460252 617.2337622141415 L 475 592.1541123681163 L 449.92035015397477 617.2337622141415 L 475 642.3134120601667 Z" style="stroke:#E27B00; stroke-opacity: 1;fill:#000057; fill-opacity: 1;"/>
<path d="M 449.92035015397477 617.2337622141415 L 434.93093369666553 585.0888548870419 L 402.78602636956583 600.078271344351 L 417.77544282687506 632.2231786714508 Z" style="stroke:#E27B00; stroke-opacity: 1;fill:#000057; fill-opacity: 1;"/>
<path d="M 402.78602636956583 600.078271344351 L 399.6947881459502 564.7452567681319 L 364.361773569731 567.8364949917475 L 367.45301179334666 603.1695095679668 Z" style="stroke:#E27B00; stroke-opacity: 1;fill:#000057; fill-opacity: 1;"/>
<path d="M 364.361773569731 567.8364949917475 L 373.54156253139513 533.5770561840585 L 339.28212372370615 524.3972672223944 L 330.102334762042 558.6567060300832 Z" style="stroke:#E27B00; stroke-opacity: 1;fill:#000057; fill-opacity: 1;"/>
<path d="M 339.28212372370615 524.3972672223944 L 359.62572184261626 495.34359811891 L 330.5720527391319 474.9999999999999 L 310.2284546202218 504.05366910348425 Z" style="stroke:#E27B00; stroke-opacity: 1;fill:#000057; fill-opacity: 1;"/>
<path d="M 330.5720527391319 474.9999999999999 L 359.62572184261603 454.6564018810896 L 339.2821237237057 425.60273277760547 L 310.22845462022156 445.9463308965158 Z" style="stroke:#E27B00; stroke-opacity: 1;fill:#000057; fill-opacity: 1;"/>
<path d="M 339.2821237237057 425.60273277760547 L 373.54156253139456 416.4229438159418 L 364.3617735697309 382.1635050082529 L 330.102334762042 391.3432939699166 Z" style="stroke:#E27B00; stroke-opacity: 1;fill:#000057; fill-opacity: 1;"/>
<path d="M 364.3617735697309 382.1635050082529 L 399.69478814595016 385.2547432318685 L 402.78602636956583 349.9217286556492 L 367.4530117933465 346.83049043203357 Z" style="stroke:#E27B00; stroke-opacity: 1;fill:#000057; fill-opacity: 1;"/>
<path d="M 402.78602636956583 349.9217286556492 L 434.93093369666576 364.9111451129583 L 449.92035015397494 332.76623778585844 L 417.77544282687506 317.77682132854926 Z" style="stroke:#E27B00; stroke-opacity: 1;fill:#000057; fill-opacity: 1;"/>
<path d="M 449.92035015397494 332.76623778585844 L 475.00000000000006 357.84588763188344 L 500.079649846025 332.7662377858583 L 474.99999999999994 307.6865879398333 Z" style="stroke:#E27B00; stroke-opacity: 1;fill:#000057; fill-opacity: 1;"/>
<path d="M 500.079649846025 332.7662377858583 L 515.0690663033342 364.91114511295814 L 547.213973630434 349.92172865564896 L 532.2245571731248 317.7768213285492 Z" style="stroke:#E27B00; stroke-opacity: 1;fill:#000057; fill-opacity: 1;"/>
<path d="M 547.213973630434 349.92172865564896 L 550.3052118540494 385.2547432318683 L 585.6382264302688 382.16350500825286 L 582.5469882066533 346.8304904320335 Z" style="stroke:#E27B00; stroke-opacity: 1;fill:#000057; fill-opacity: 1;"/>
<path d="M 585.6382264302688 382.16350500825286 L 576.4584374686051 416.422943815942 L 610.7178762762943 425.60273277760564 L 619.8976652379579 391.3432939699165 Z" style="stroke:#E27B00; stroke-opacity: 1;fill:#000057; fill-opacity: 1;"/>
<path d="M 610.7178762762943 425.60273277760564 L 590.3742781573842 454.65640188108955 L 619.427947260868 474.9999999999998 L 639.7715453797782 445.94633089651586 Z" style="stroke:#E27B00; stroke-opacity: 1;fill:#000057; fill-opacity: 1;"/>
<path d="M 619.427947260868 474.9999999999998 L 590.3742781573839 495.34359811891017 L 610.7178762762942 524.3972672223944 L 639.7715453797783 504.05366910348397 Z" style="stroke:#E27B00; stroke-opacity: 1;fill:#000057; fill-opacity: 1;"/>
<path d="M 610.7178762762942 524.3972672223944 L 576.4584374686053 533.5770561840582 L 585.6382264302691 567.836494991747 L 619.8976652379579 558.6567060300833 Z" style="stroke:#E27B00; stroke-opacity: 1;fill:#000057; fill-opacity: 1;"/>
<path d="M 585.6382264302691 567.836494991747 L 550.3052118540496 564.7452567681315 L 547.213973630434 600.078271344351 L 582.5469882066535 603.1695095679667 Z" style="stroke:#E27B00; stroke-opacity: 1;fill:#000057; fill-opacity: 1;"/>
<path d="M 515.0690663033345 585.0888548870419 L 491.50190441113 568.5869504759119 L 475 592.1541123681163 L 498.56716189220447 608.6560167792463 Z" style="stroke:#E27B00; stroke-opacity: 1;fill:#00004D; fill-opacity: 1;"/>
<path d="M 475 592.1541123681163 L 458.49809558887 568.5869504759119 L 434.93093369666553 585.0888548870419 L 451.43283810779553 608.6560167792463 Z" style="stroke:#E27B00; stroke-opacity: 1;fill:#00004D; fill-opacity: 1;"/>
<path d="M 434.93093369666553 585.0888548870419 L 427.4846599807629 557.2989830522292 L 399.6947881459502 564.7452567681319 L 407.1410618618529 592.5351286029445 Z" style="stroke:#E27B00; stroke-opacity: 1;fill:#00004D; fill-opacity: 1;"/>
<path d="M 399.6947881459502 564.7452567681319 L 402.2022756307094 536.0845436688176 L 373.54156253139513 533.5770561840585 L 371.034075046636 562.2377692833727 Z" style="stroke:#E27B00; stroke-opacity: 1;fill:#00004D; fill-opacity: 1;"/>
<path d="M 373.54156253139513 533.5770561840585 L 385.70037121957995 507.50240680709487 L 359.62572184261626 495.34359811891 L 347.46691315443144 521.4182474958737 Z" style="stroke:#E27B00; stroke-opacity: 1;fill:#00004D; fill-opacity: 1;"/>
<path d="M 359.62572184261626 495.34359811891 L 379.96931996152637 474.99999999999966 L 359.62572184261603 454.6564018810896 L 339.2821237237059 474.9999999999999 Z" style="stroke:#E27B00; stroke-opacity: 1;fill:#00004D; fill-opacity: 1;"/>
<path d="M 359.62572184261603 454.6564018810896 L 385.7003712195792 442.49759319290496 L 373.54156253139456 416.4229438159418 L 347.4669131544314 428.5817525041264 Z" style="stroke:#E27B00; stroke-opacity: 1;fill:#00004D; fill-opacity: 1;"/>
<path d="M 373.54156253139456 416.4229438159418 L 402.202275630709 413.9154563311829 L 399.69478814595016 385.2547432318685 L 371.03407504663573 387.7622307166273 Z" style="stroke:#E27B00; stroke-opacity: 1;fill:#00004D; fill-opacity: 1;"/>
<path d="M 399.69478814595016 385.2547432318685 L 427.484659980763 392.70101694777117 L 434.93093369666576 364.9111451129583 L 407.1410618618529 357.46487139705556 Z" style="stroke:#E27B00; stroke-opacity: 1;fill:#00004D; fill-opacity: 1;"/>
<path d="M 434.93093369666576 364.9111451129583 L 458.4980955888703 381.413049524088 L 475.00000000000006 357.84588763188344 L 451.4328381077955 341.3439832207538 Z" style="stroke:#E27B00; stroke-opacity: 1;fill:#00004D; fill-opacity: 1;"/>
<path d="M 475.00000000000006 357.84588763188344 L 491.5019044111298 381.4130495240879 L 515.0690663033342 364.91114511295814 L 498.56716189220447 341.34398322075367 Z" style="stroke:#E27B00; stroke-opacity: 1;fill:#00004D; fill-opacity: 1;"/>
<path d="M 515.0690663033342 364.91114511295814 L 522.5153400192368 392.7010169477708 L 550.3052118540494 385.2547432318683 L 542.858938138147 357.4648713970557 Z" style="stroke:#E27B00; stroke-opacity: 1;fill:#00004D; fill-opacity: 1;"/>
<path d="M 550.3052118540494 385.2547432318683 L 547.7977243692904 413.915456331183 L 576.4584374686051 416.422943815942 L 578.9659249533642 387.7622307166273 Z" style="stroke:#E27B00; stroke-opacity: 1;fill:#00004D; fill-opacity: 1;"/>
<path d="M 576.4584374686051 416.422943815942 L 564.2996287804209 442.49759319290536 L 590.3742781573842 454.65640188108955 L 602.5330868455684 428.58175250412626 Z" style="stroke:#E27B00; stroke-opacity: 1;fill:#00004D; fill-opacity: 1;"/>
<path d="M 590.3742781573842 454.65640188108955 L 570.0306800384736 474.9999999999997 L 590.3742781573839 495.34359811891017 L 610.7178762762943 475.00000000000006 Z" style="stroke:#E27B00; stroke-opacity: 1;fill:#00004D; fill-opacity: 1;"/>
<path d="M 590.3742781573839 495.34359811891017 L 564.2996287804207 507.5024068070949 L 576.4584374686053 533.5770561840582 L 602.5330868455686 521.4182474958734 Z" style="stroke:#E27B00; stroke-opacity: 1;fill:#00004D; fill-opacity: 1;"/>
<path d="M 576.4584374686053 533.5770561840582 L 547.7977243692908 536.0845436688171 L 550.3052118540496 564.7452567681315 L 578.965924953364 562.2377692833727 Z" style="stroke:#E27B00; stroke-opacity: 1;fill:#00004D; fill-opacity: 1;"/>
<path d="M 550.3052118540496 564.7452567681315 L 522.515340019237 557.2989830522291 L 515.0690663033345 585.0888548870419 L 542.8589381381472 592.5351286029442 Z" style="stroke:#E27B00; stroke-opacity: 1;fill:#00004D; fill-opacity: 1;"/>
<path d="M 491.50190441113 568.5869504759119 L 475 552.0850460647819 L 458.49809558887 568.5869504759119 L 475 585.0888548870419 Z" style="stroke:#2A26BB; stroke-opacity: 1;fill:#000043; fill-opacity: 1;"/>
<path d="M 458.49809558887 568.5869504759119 L 448.63536149665777 547.436248960017 L 427.4846599807629 557.2989830522292 L 437.34739407297513 578.4496845681241 Z" style="stroke:#2A26BB; stroke-opacity: 1;fill:#000043; fill-opacity: 1;"/>
<path d="M 427.4846599807629 557.2989830522292 L 425.450687497442 534.0505711854967 L 402.2022756307094 536.0845436688176 L 404.23624811403033 559.3329555355501 Z" style="stroke:#2A26BB; stroke-opacity: 1;fill:#000043; fill-opacity: 1;"/>
<path d="M 402.2022756307094 536.0845436688176 L 408.242391856006 513.5425230323915 L 385.70037121957995 507.50240680709487 L 379.6602549942833 530.044427443521 Z" style="stroke:#2A26BB; stroke-opacity: 1;fill:#000043; fill-opacity: 1;"/>
<path d="M 385.70037121957995 507.50240680709487 L 399.0860489941008 488.38567777452045 L 379.96931996152637 474.99999999999966 L 366.5836421870056 494.1167290325741 Z" style="stroke:#2A26BB; stroke-opacity: 1;fill:#000043; fill-opacity: 1;"/>
<path d="M 379.96931996152637 474.99999999999966 L 399.0860489941001 461.6143222254787 L 385.7003712195792 442.49759319290496 L 366.58364218700547 455.88327096742586 Z" style="stroke:#2A26BB; stroke-opacity: 1;fill:#000043; fill-opacity: 1;"/>
<path d="M 385.7003712195792 442.49759319290496 L 408.24239185600516 436.45747696760884 L 402.202275630709 413.9154563311829 L 379.66025499428304 419.95557255647907 Z" style="stroke:#2A26BB; stroke-opacity: 1;fill:#000043; fill-opacity: 1;"/>
<path d="M 402.202275630709 413.9154563311829 L 425.4506874974419 415.9494288145041 L 427.484659980763 392.70101694777117 L 404.2362481140301 390.66704446445004 Z" style="stroke:#2A26BB; stroke-opacity: 1;fill:#000043; fill-opacity: 1;"/>
<path d="M 427.484659980763 392.70101694777117 L 448.6353614966582 402.56375103998323 L 458.4980955888703 381.413049524088 L 437.34739407297513 371.5503154318759 Z" style="stroke:#2A26BB; stroke-opacity: 1;fill:#000043; fill-opacity: 1;"/>
<path d="M 458.4980955888703 381.413049524088 L 475.00000000000006 397.9149539352177 L 491.5019044111298 381.4130495240879 L 474.99999999999994 364.91114511295825 Z" style="stroke:#2A26BB; stroke-opacity: 1;fill:#000043; fill-opacity: 1;"/>
<path d="M 491.5019044111298 381.4130495240879 L 501.3646385033418 402.56375103998283 L 522.5153400192368 392.7010169477708 L 512.6526059270248 371.55031543187584 Z" style="stroke:#2A26BB; stroke-opacity: 1;fill:#000043; fill-opacity: 1;"/>
<path d="M 522.5153400192368 392.7010169477708 L 524.5493125025575 415.9494288145038 L 547.7977243692904 413.915456331183 L 545.7637518859697 390.6670444644501 Z" style="stroke:#2A26BB; stroke-opacity: 1;fill:#000043; fill-opacity: 1;"/>
<path d="M 547.7977243692904 413.915456331183 L 541.7576081439945 436.4574769676094 L 564.2996287804209 442.49759319290536 L 570.3397450057168 419.95557255647896 Z" style="stroke:#2A26BB; stroke-opacity: 1;fill:#000043; fill-opacity: 1;"/>
<path d="M 564.2996287804209 442.49759319290536 L 550.9139510059001 461.6143222254789 L 570.0306800384736 474.9999999999997 L 583.4163578129944 455.88327096742614 Z" style="stroke:#2A26BB; stroke-opacity: 1;fill:#000043; fill-opacity: 1;"/>
<path d="M 570.0306800384736 474.9999999999997 L 550.9139510058995 488.38567777452084 L 564.2996287804207 507.5024068070949 L 583.4163578129948 494.1167290325738 Z" style="stroke:#2A26BB; stroke-opacity: 1;fill:#000043; fill-opacity: 1;"/>
<path d="M 564.2996287804207 507.5024068070949 L 541.7576081439947 513.542523032391 L 547.7977243692908 536.0845436688171 L 570.3397450057168 530.044427443521 Z" style="stroke:#2A26BB; stroke-opacity: 1;fill:#000043; fill-opacity: 1;"/>
<path d="M 547.7977243692908 536.0845436688171 L 524.549312502558 534.0505711854962 L 522.515340019237 557.2989830522291 L 545.7637518859699 559.3329555355499 Z" style="stroke:#2A26BB; stroke-opacity: 1;fill:#000043; fill-opacity: 1;"/>
<path d="M 522.515340019237 557.2989830522291 L 501.3646385033421 547.4362489600169 L 491.50190441113 568.5869504759119 L 512.6526059270249 578.449684568124 Z" style="stroke:#2A26BB; stroke-opacity: 1;fill:#000043; fill-opacity: 1;"/>
<path d="M 475 552.0850460647819 L 464.1420793007113 536.5783282607283 L 448.63536149665777 547.436248960017 L 459.49328219594645 562.9429667640704 Z" style="stroke:#2A26B1; stroke-opacity: 1;fill:#000038; fill-opacity: 1;"/>
<path d="M 448.63536149665777 547.436248960017 L 443.73586338431005 529.151073073149 L 425.450687497442 534.0505711854967 L 430.3501856097897 552.3357470723648 Z" style="stroke:#2A26B1; stroke-opacity: 1;fill:#000038; fill-opacity: 1;"/>
<path d="M 425.450687497442 534.0505711854967 L 427.10056375327656 515.192399288226 L 408.242391856006 513.5425230323915 L 406.5925156001714 532.4006949296621 Z" style="stroke:#2A26B1; stroke-opacity: 1;fill:#000038; fill-opacity: 1;"/>
<path d="M 408.242391856006 513.5425230323915 L 416.2426430539889 496.3859289725034 L 399.0860489941008 488.38567777452045 L 391.08579779611784 505.54227183440855 Z" style="stroke:#2A26B1; stroke-opacity: 1;fill:#000038; fill-opacity: 1;"/>
<path d="M 399.0860489941008 488.38567777452045 L 412.4717267686213 474.9999999999992 L 399.0860489941001 461.6143222254787 L 385.7003712195796 474.9999999999999 Z" style="stroke:#2A26B1; stroke-opacity: 1;fill:#000038; fill-opacity: 1;"/>
<path d="M 399.0860489941001 461.6143222254787 L 416.24264305398754 453.61407102749627 L 408.24239185600516 436.45747696760884 L 391.08579779611773 444.4577281655912 Z" style="stroke:#2A26B1; stroke-opacity: 1;fill:#000038; fill-opacity: 1;"/>
<path d="M 408.24239185600516 436.45747696760884 L 427.1005637532759 434.8076007117748 L 425.4506874974419 415.9494288145041 L 406.59251560017117 417.59930507033806 Z" style="stroke:#2A26B1; stroke-opacity: 1;fill:#000038; fill-opacity: 1;"/>
<path d="M 425.4506874974419 415.9494288145041 L 443.7358633843105 420.84892692685185 L 448.6353614966582 402.56375103998323 L 430.3501856097896 397.6642529276355 Z" style="stroke:#2A26B1; stroke-opacity: 1;fill:#000038; fill-opacity: 1;"/>
<path d="M 448.6353614966582 402.56375103998323 L 464.14207930071194 413.4216717392714 L 475.00000000000006 397.9149539352177 L 459.4932821959464 387.0570332359295 Z" style="stroke:#2A26B1; stroke-opacity: 1;fill:#000038; fill-opacity: 1;"/>
<path d="M 475.00000000000006 397.9149539352177 L 485.85792069928834 413.4216717392711 L 501.3646385033418 402.56375103998283 L 490.50671780405355 387.05703323592945 Z" style="stroke:#2A26B1; stroke-opacity: 1;fill:#000038; fill-opacity: 1;"/>
<path d="M 501.3646385033418 402.56375103998283 L 506.2641366156891 420.8489269268512 L 524.5493125025575 415.9494288145038 L 519.64981439021 397.66425292763546 Z" style="stroke:#2A26B1; stroke-opacity: 1;fill:#000038; fill-opacity: 1;"/>
<path d="M 524.5493125025575 415.9494288145038 L 522.8994362467232 434.8076007117751 L 541.7576081439945 436.4574769676094 L 543.4074843998288 417.5993050703381 Z" style="stroke:#2A26B1; stroke-opacity: 1;fill:#000038; fill-opacity: 1;"/>
<path d="M 541.7576081439945 436.4574769676094 L 533.7573569460126 453.61407102749695 L 550.9139510059001 461.6143222254789 L 558.914202203882 444.45772816559133 Z" style="stroke:#2A26B1; stroke-opacity: 1;fill:#000038; fill-opacity: 1;"/>
<path d="M 550.9139510059001 461.6143222254789 L 537.5282732313789 474.9999999999996 L 550.9139510058995 488.38567777452084 L 564.2996287804209 475.00000000000017 Z" style="stroke:#2A26B1; stroke-opacity: 1;fill:#000038; fill-opacity: 1;"/>
<path d="M 550.9139510058995 488.38567777452084 L 533.757356946012 496.38592897250356 L 541.7576081439947 513.542523032391 L 558.9142022038822 505.5422718344084 Z" style="stroke:#2A26B1; stroke-opacity: 1;fill:#000038; fill-opacity: 1;"/>
<path d="M 541.7576081439947 513.542523032391 L 522.8994362467238 515.1923992882253 L 524.549312502558 534.0505711854962 L 543.407484399829 532.400694929662 Z" style="stroke:#2A26B1; stroke-opacity: 1;fill:#000038; fill-opacity: 1;"/>
<path d="M 524.549312502558 534.0505711854962 L 506.2641366156897 529.1510730731486 L 501.3646385033421 547.4362489600169 L 519.6498143902104 552.3357470723645 Z" style="stroke:#2A26B1; stroke-opacity: 1;fill:#000038; fill-opacity: 1;"/>
<path d="M 501.3646385033421 547.4362489600169 L 485.85792069928857 536.5783282607283 L 475 552.0850460647819 L 490.50671780405355 562.9429667640704 Z" style="stroke:#2A26B1; stroke-opacity: 1;fill:#000038; fill-opacity: 1;"/>
<path d="M 464.1420793007113 536.5783282607283 L 457.65259893630036 522.661592708738 L 443.73586338431005 529.151073073149 L 450.225343748721 543.0678086251394 Z" style="stroke:#FF1700; stroke-opacity: 1;fill:#00002F; fill-opacity: 1;"/>
<path d="M 443.73586338431005 529.151073073149 L 442.39755046125475 513.8540863651708 L 427.10056375327656 515.192399288226 L 428.43887667633186 530.4893859962042 Z" style="stroke:#FF1700; stroke-opacity: 1;fill:#00002F; fill-opacity: 1;"/>
<path d="M 427.10056375327656 515.192399288226 L 431.07483856149406 500.3602037807209 L 416.2426430539889 496.3859289725034 L 412.2683682457714 511.21812448000856 Z" style="stroke:#FF1700; stroke-opacity: 1;fill:#00002F; fill-opacity: 1;"/>
<path d="M 416.2426430539889 496.3859289725034 L 425.0501493975572 483.8075063435675 L 412.4717267686213 474.9999999999992 L 403.66422042505303 487.5784226289351 Z" style="stroke:#FF1700; stroke-opacity: 1;fill:#00002F; fill-opacity: 1;"/>
<path d="M 412.4717267686213 474.9999999999992 L 425.05014939755586 466.1924936564309 L 416.24264305398754 453.61407102749627 L 403.6642204250529 462.4215773710646 Z" style="stroke:#FF1700; stroke-opacity: 1;fill:#00002F; fill-opacity: 1;"/>
<path d="M 416.24264305398754 453.61407102749627 L 431.0748385614924 449.6397962192797 L 427.1005637532759 434.8076007117748 L 412.268368245771 438.78187551999133 Z" style="stroke:#FF1700; stroke-opacity: 1;fill:#00002F; fill-opacity: 1;"/>
<path d="M 427.1005637532759 434.8076007117748 L 442.3975504612547 436.1459136348306 L 443.7358633843105 420.84892692685185 L 428.4388766763317 419.510614003796 Z" style="stroke:#FF1700; stroke-opacity: 1;fill:#00002F; fill-opacity: 1;"/>
<path d="M 443.7358633843105 420.84892692685185 L 457.65259893630144 427.3384072912624 L 464.14207930071194 413.4216717392714 L 450.22534374872095 406.9321913748609 Z" style="stroke:#FF1700; stroke-opacity: 1;fill:#00002F; fill-opacity: 1;"/>
<path d="M 464.14207930071194 413.4216717392714 L 475.0000000000002 424.27959243855946 L 485.85792069928834 413.4216717392711 L 475 402.563751039983 Z" style="stroke:#FF1700; stroke-opacity: 1;fill:#00002F; fill-opacity: 1;"/>
<path d="M 485.85792069928834 413.4216717392711 L 492.3474010636986 427.3384072912616 L 506.2641366156891 420.8489269268512 L 499.77465625127877 406.9321913748608 Z" style="stroke:#FF1700; stroke-opacity: 1;fill:#00002F; fill-opacity: 1;"/>
<path d="M 506.2641366156891 420.8489269268512 L 507.6024495387443 436.1459136348302 L 522.8994362467232 434.8076007117751 L 521.5611233236681 419.51061400379615 Z" style="stroke:#FF1700; stroke-opacity: 1;fill:#00002F; fill-opacity: 1;"/>
<path d="M 522.8994362467232 434.8076007117751 L 518.9251614385068 449.6397962192807 L 533.7573569460126 453.61407102749695 L 537.7316317542288 438.78187551999133 Z" style="stroke:#FF1700; stroke-opacity: 1;fill:#00002F; fill-opacity: 1;"/>
<path d="M 533.7573569460126 453.61407102749695 L 524.9498506024445 466.1924936564314 L 537.5282732313789 474.9999999999996 L 546.3357795749471 462.4215773710651 Z" style="stroke:#FF1700; stroke-opacity: 1;fill:#00002F; fill-opacity: 1;"/>
<path d="M 537.5282732313789 474.9999999999996 L 524.9498506024435 483.80750634356815 L 533.757356946012 496.38592897250356 L 546.3357795749474 487.578422628935 Z" style="stroke:#FF1700; stroke-opacity: 1;fill:#00002F; fill-opacity: 1;"/>
<path d="M 533.757356946012 496.38592897250356 L 518.925161438507 500.36020378072027 L 522.8994362467238 515.1923992882253 L 537.7316317542287 511.2181244800085 Z" style="stroke:#FF1700; stroke-opacity: 1;fill:#00002F; fill-opacity: 1;"/>
<path d="M 522.8994362467238 515.1923992882253 L 507.6024495387451 513.8540863651699 L 506.2641366156897 529.1510730731486 L 521.5611233236684 530.489385996204 Z" style="stroke:#FF1700; stroke-opacity: 1;fill:#00002F; fill-opacity: 1;"/>
<path d="M 506.2641366156897 529.1510730731486 L 492.3474010636993 522.6615927087379 L 485.85792069928857 536.5783282607283 L 499.774656251279 543.067808625139 Z" style="stroke:#FF1700; stroke-opacity: 1;fill:#00002F; fill-opacity: 1;"/>
<path d="M 485.85792069928857 536.5783282607283 L 474.99999999999994 525.7204075614397 L 464.1420793007113 536.5783282607283 L 474.99999999999994 547.4362489600169 Z" style="stroke:#FF1700; stroke-opacity: 1;fill:#00002F; fill-opacity: 1;"/>
<path d="M 457.65259893630036 522.661592708738 L 454.4288278705611 510.6303152994316 L 442.39755046125475 513.8540863651708 L 445.62132152699394 525.8853637744772 Z" style="stroke:#FF1700; stroke-opacity: 1;fill:#000024; fill-opacity: 1;"/>
<path d="M 442.39755046125475 513.8540863651708 L 443.48313580359934 501.44578912306554 L 431.07483856149406 500.3602037807209 L 429.9892532191494 512.7685010228262 Z" style="stroke:#FF1700; stroke-opacity: 1;fill:#000024; fill-opacity: 1;"/>
<path d="M 431.07483856149406 500.3602037807209 L 436.3388426981023 489.0715104801758 L 425.0501493975572 483.8075063435675 L 419.78614526094896 495.09619964411263 Z" style="stroke:#FF1700; stroke-opacity: 1;fill:#000024; fill-opacity: 1;"/>
<path d="M 425.0501493975572 483.8075063435675 L 433.85765574112486 474.9999999999985 L 425.05014939755586 466.1924936564309 L 416.2426430539882 474.9999999999999 Z" style="stroke:#FF1700; stroke-opacity: 1;fill:#000024; fill-opacity: 1;"/>
<path d="M 425.05014939755586 466.1924936564309 L 436.3388426980997 460.92848951982353 L 431.0748385614924 449.6397962192797 L 419.7861452609485 454.90380035588703 Z" style="stroke:#FF1700; stroke-opacity: 1;fill:#000024; fill-opacity: 1;"/>
<path d="M 431.0748385614924 449.6397962192797 L 443.4831358035981 448.5542108769363 L 442.3975504612547 436.1459136348306 L 429.9892532191491 437.23149897717406 Z" style="stroke:#FF1700; stroke-opacity: 1;fill:#000024; fill-opacity: 1;"/>
<path d="M 442.3975504612547 436.1459136348306 L 454.4288278705622 439.3696847005699 L 457.65259893630144 427.3384072912624 L 445.621321526994 424.1146362255231 Z" style="stroke:#FF1700; stroke-opacity: 1;fill:#000024; fill-opacity: 1;"/>
<path d="M 457.65259893630144 427.3384072912624 L 467.8557068945023 434.48270039676026 L 475.0000000000002 424.27959243855946 L 464.7968920417994 417.13529933306154 Z" style="stroke:#FF1700; stroke-opacity: 1;fill:#000024; fill-opacity: 1;"/>
<path d="M 475.0000000000002 424.27959243855946 L 482.1442931054984 434.48270039675975 L 492.3474010636986 427.3384072912616 L 485.20310795820046 417.13529933306137 Z" style="stroke:#FF1700; stroke-opacity: 1;fill:#000024; fill-opacity: 1;"/>
<path d="M 492.3474010636986 427.3384072912616 L 495.5711721294372 439.36968470056877 L 507.6024495387443 436.1459136348302 L 504.3786784730057 424.1146362255231 Z" style="stroke:#FF1700; stroke-opacity: 1;fill:#000024; fill-opacity: 1;"/>
<path d="M 507.6024495387443 436.1459136348302 L 506.5168641964004 448.55421087693674 L 518.9251614385068 449.6397962192807 L 520.0107467808508 437.23149897717417 Z" style="stroke:#FF1700; stroke-opacity: 1;fill:#000024; fill-opacity: 1;"/>
<path d="M 518.9251614385068 449.6397962192807 L 513.6611573019003 460.9284895198249 L 524.9498506024445 466.1924936564314 L 530.213854739051 454.90380035588726 Z" style="stroke:#FF1700; stroke-opacity: 1;fill:#000024; fill-opacity: 1;"/>
<path d="M 524.9498506024445 466.1924936564314 L 516.1423442588756 474.99999999999926 L 524.9498506024435 483.80750634356815 L 533.7573569460125 475.0000000000003 Z" style="stroke:#FF1700; stroke-opacity: 1;fill:#000024; fill-opacity: 1;"/>
<path d="M 524.9498506024435 483.80750634356815 L 513.6611573018992 489.07151048017596 L 518.925161438507 500.36020378072027 L 530.2138547390513 495.09619964411246 Z" style="stroke:#FF1700; stroke-opacity: 1;fill:#000024; fill-opacity: 1;"/>
<path d="M 518.925161438507 500.36020378072027 L 506.51686419640123 501.4457891230641 L 507.6024495387451 513.8540863651699 L 520.0107467808509 512.7685010228261 Z" style="stroke:#FF1700; stroke-opacity: 1;fill:#000024; fill-opacity: 1;"/>
<path d="M 507.6024495387451 513.8540863651699 L 495.5711721294382 510.63031529943106 L 492.3474010636993 522.6615927087379 L 504.3786784730062 525.8853637744769 Z" style="stroke:#FF1700; stroke-opacity: 1;fill:#000024; fill-opacity: 1;"/>
<path d="M 492.3474010636993 522.6615927087379 L 482.14429310549866 515.5172996032392 L 474.99999999999994 525.7204075614397 L 485.2031079582005 532.8647006669386 Z" style="stroke:#FF1700; stroke-opacity: 1;fill:#000024; fill-opacity: 1;"/>
<path d="M 474.99999999999994 525.7204075614397 L 467.85570689450105 515.517299603239 L 457.65259893630036 522.661592708738 L 464.7968920417993 532.8647006669387 Z" style="stroke:#FF1700; stroke-opacity: 1;fill:#000024; fill-opacity: 1;"/>
<path d="M 454.4288278705611 510.6303152994316 L 453.54824492526325 500.56520617776766 L 443.48313580359934 501.44578912306554 L 444.3637187488972 511.51089824472945 Z" style="stroke:#F98E00; stroke-opacity: 1;fill:#00001B; fill-opacity: 1;"/>
<path d="M 443.48313580359934 501.44578912306554 L 446.0981285722957 491.68650324887216 L 436.3388426981023 489.0715104801758 L 433.72384992940596 498.83079635436917 Z" style="stroke:#F98E00; stroke-opacity: 1;fill:#00001B; fill-opacity: 1;"/>
<path d="M 436.3388426981023 489.0715104801758 L 442.1340044597022 480.7951617615984 L 433.85765574112486 474.9999999999985 L 428.06249397952496 483.2763487185759 Z" style="stroke:#F98E00; stroke-opacity: 1;fill:#00001B; fill-opacity: 1;"/>
<path d="M 433.85765574112486 474.9999999999985 L 442.1340044596998 469.20483823839845 L 436.3388426980997 460.92848951982353 L 428.0624939795248 466.7236512814236 Z" style="stroke:#F98E00; stroke-opacity: 1;fill:#00001B; fill-opacity: 1;"/>
<path d="M 436.3388426980997 460.92848951982353 L 446.0981285722925 458.3134967511291 L 443.4831358035981 448.5542108769363 L 433.7238499294053 451.1692036456307 Z" style="stroke:#F98E00; stroke-opacity: 1;fill:#00001B; fill-opacity: 1;"/>
<path d="M 443.4831358035981 448.5542108769363 L 453.5482449252633 449.4347938222352 L 454.4288278705622 439.3696847005699 L 444.36371874889693 438.489101755271 Z" style="stroke:#F98E00; stroke-opacity: 1;fill:#00001B; fill-opacity: 1;"/>
<path d="M 454.4288278705622 439.3696847005699 L 463.5857595344371 443.63963206063517 L 467.8557068945023 434.48270039676026 L 458.69877523062746 430.212753036695 Z" style="stroke:#F98E00; stroke-opacity: 1;fill:#00001B; fill-opacity: 1;"/>
<path d="M 467.8557068945023 434.48270039676026 L 475.00000000000057 441.6269935022581 L 482.1442931054984 434.48270039675975 L 475.0000000000001 427.338407291262 Z" style="stroke:#F98E00; stroke-opacity: 1;fill:#00001B; fill-opacity: 1;"/>
<path d="M 482.1442931054984 434.48270039675975 L 486.41424046556324 443.6396320606337 L 495.5711721294372 439.36968470056877 L 491.3012247693723 430.2127530366949 Z" style="stroke:#F98E00; stroke-opacity: 1;fill:#00001B; fill-opacity: 1;"/>
<path d="M 495.5711721294372 439.36968470056877 L 496.45175507473476 449.4347938222344 L 506.5168641964004 448.55421087693674 L 505.63628125110273 438.4891017552711 Z" style="stroke:#F98E00; stroke-opacity: 1;fill:#00001B; fill-opacity: 1;"/>
<path d="M 506.5168641964004 448.55421087693674 L 503.9018714277063 458.31349675113074 L 513.6611573019003 460.9284895198249 L 516.2761500705944 451.1692036456309 Z" style="stroke:#F98E00; stroke-opacity: 1;fill:#00001B; fill-opacity: 1;"/>
<path d="M 513.6611573019003 460.9284895198249 L 507.8659955403008 469.2048382383997 L 516.1423442588756 474.99999999999926 L 521.9375060204751 466.7236512814244 Z" style="stroke:#F98E00; stroke-opacity: 1;fill:#00001B; fill-opacity: 1;"/>
<path d="M 516.1423442588756 474.99999999999926 L 507.865995540299 480.7951617615994 L 513.6611573018992 489.07151048017596 L 521.9375060204757 483.27634871857583 Z" style="stroke:#F98E00; stroke-opacity: 1;fill:#00001B; fill-opacity: 1;"/>
<path d="M 513.6611573018992 489.07151048017596 L 503.9018714277061 491.6865032488711 L 506.51686419640123 501.4457891230641 L 516.2761500705942 498.830796354369 Z" style="stroke:#F98E00; stroke-opacity: 1;fill:#00001B; fill-opacity: 1;"/>
<path d="M 506.51686419640123 501.4457891230641 L 496.45175507473624 500.5652061777661 L 495.5711721294382 510.63031529943106 L 505.6362812511032 511.5108982447291 Z" style="stroke:#F98E00; stroke-opacity: 1;fill:#00001B; fill-opacity: 1;"/>
<path d="M 495.5711721294382 510.63031529943106 L 486.4142404655644 506.3603679393654 L 482.14429310549866 515.5172996032392 L 491.3012247693724 519.7872469633049 Z" style="stroke:#F98E00; stroke-opacity: 1;fill:#00001B; fill-opacity: 1;"/>
<path d="M 482.14429310549866 515.5172996032392 L 474.99999999999994 508.3730064977402 L 467.85570689450105 515.517299603239 L 474.99999999999983 522.6615927087379 Z" style="stroke:#F98E00; stroke-opacity: 1;fill:#00001B; fill-opacity: 1;"/>
<path d="M 467.85570689450105 515.517299603239 L 463.5857595344348 506.3603679393654 L 454.4288278705611 510.6303152994316 L 458.69877523062735 519.7872469633053 Z" style="stroke:#F98E00; stroke-opacity: 1;fill:#00001B; fill-opacity: 1;"/>
<path d="M 453.54824492526325 500.56520617776766 L 454.26253821322723 492.4007965368361 L 446.0981285722957 491.68650324887216 L 445.38383528433167 499.8509128898037 Z" style="stroke:#F98E00; stroke-opacity: 1;fill:#000010; fill-opacity: 1;"/>
<path d="M 446.0981285722957 491.68650324887216 L 449.56173725963583 484.25877044893855 L 442.1340044597022 480.7951617615984 L 438.6703957723621 488.22289456153203 Z" style="stroke:#F98E00; stroke-opacity: 1;fill:#000010; fill-opacity: 1;"/>
<path d="M 442.1340044597022 480.7951617615984 L 447.929166221301 474.9999999999972 L 442.1340044596998 469.20483823839845 L 436.3388426981011 474.9999999999996 Z" style="stroke:#F98E00; stroke-opacity: 1;fill:#000010; fill-opacity: 1;"/>
<path d="M 442.1340044596998 469.20483823839845 L 449.56173725963083 465.7412295510601 L 446.0981285722925 458.3134967511291 L 438.67039577236153 461.7771054384674 Z" style="stroke:#F98E00; stroke-opacity: 1;fill:#000010; fill-opacity: 1;"/>
<path d="M 446.0981285722925 458.3134967511291 L 454.26253821322484 457.59920346316756 L 453.5482449252633 449.4347938222352 L 445.383835284331 450.1490871101968 Z" style="stroke:#F98E00; stroke-opacity: 1;fill:#000010; fill-opacity: 1;"/>
<path d="M 453.5482449252633 449.4347938222352 L 461.46458311065015 451.55597024602207 L 463.5857595344371 443.63963206063517 L 455.6694213490502 441.51845563684833 Z" style="stroke:#F98E00; stroke-opacity: 1;fill:#000010; fill-opacity: 1;"/>
<path d="M 463.5857595344371 443.63963206063517 L 470.29919904640735 448.3404330142284 L 475.00000000000057 441.6269935022581 L 468.2865604880303 436.9261925486649 Z" style="stroke:#F98E00; stroke-opacity: 1;fill:#000010; fill-opacity: 1;"/>
<path d="M 475.00000000000057 441.6269935022581 L 479.7008009535941 448.3404330142272 L 486.41424046556324 443.6396320606337 L 481.7134395119697 436.9261925486645 Z" style="stroke:#F98E00; stroke-opacity: 1;fill:#000010; fill-opacity: 1;"/>
<path d="M 486.41424046556324 443.6396320606337 L 488.53541688934865 451.5559702460198 L 496.45175507473476 449.4347938222344 L 494.3305786509493 441.5184556368482 Z" style="stroke:#F98E00; stroke-opacity: 1;fill:#000010; fill-opacity: 1;"/>
<path d="M 496.45175507473476 449.4347938222344 L 495.73746178677237 457.59920346316835 L 503.9018714277063 458.31349675113074 L 504.61616471566873 450.1490871101968 Z" style="stroke:#F98E00; stroke-opacity: 1;fill:#000010; fill-opacity: 1;"/>
<path d="M 503.9018714277063 458.31349675113074 L 500.43826274036905 465.7412295510625 L 507.8659955403008 469.2048382383997 L 511.329604227638 461.77710543846797 Z" style="stroke:#F98E00; stroke-opacity: 1;fill:#000010; fill-opacity: 1;"/>
<path d="M 507.8659955403008 469.2048382383997 L 502.07083377870003 474.9999999999987 L 507.865995540299 480.7951617615994 L 513.6611573018997 475.0000000000004 Z" style="stroke:#F98E00; stroke-opacity: 1;fill:#000010; fill-opacity: 1;"/>
<path d="M 507.865995540299 480.7951617615994 L 500.4382627403667 484.2587704489388 L 503.9018714277061 491.6865032488711 L 511.3296042276384 488.2228945615317 Z" style="stroke:#F98E00; stroke-opacity: 1;fill:#000010; fill-opacity: 1;"/>
<path d="M 503.9018714277061 491.6865032488711 L 495.7374617867737 492.40079653683364 L 496.45175507473624 500.5652061777661 L 504.6161647156687 499.8509128898035 Z" style="stroke:#F98E00; stroke-opacity: 1;fill:#000010; fill-opacity: 1;"/>
<path d="M 496.45175507473624 500.5652061777661 L 488.5354168893507 498.44402975397975 L 486.4142404655644 506.3603679393654 L 494.33057865095 508.48154436315167 Z" style="stroke:#F98E00; stroke-opacity: 1;fill:#000010; fill-opacity: 1;"/>
<path d="M 486.4142404655644 506.3603679393654 L 479.70080095359475 501.6595669857706 L 474.99999999999994 508.3730064977402 L 481.7134395119695 513.073807451335 Z" style="stroke:#F98E00; stroke-opacity: 1;fill:#000010; fill-opacity: 1;"/>
<path d="M 474.99999999999994 508.3730064977402 L 470.29919904640485 501.6595669857702 L 463.5857595344348 506.3603679393654 L 468.28656048803 513.0738074513354 Z" style="stroke:#F98E00; stroke-opacity: 1;fill:#000010; fill-opacity: 1;"/>
<path d="M 463.5857595344348 506.3603679393654 L 461.46458311064794 498.4440297539807 L 453.54824492526325 500.56520617776766 L 455.66942134905014 508.4815443631523 Z" style="stroke:#F98E00; stroke-opacity: 1;fill:#000010; fill-opacity: 1;"/>
<path d="M 454.26253821322723 492.4007965368361 L 455.9831507803803 485.9793830160916 L 449.56173725963583 484.25877044893855 L 447.84112469248277 490.680183969683 Z" style="stroke:#F90E47; stroke-opacity: 1;fill:#000007; fill-opacity: 1;"/>
<path d="M 449.56173725963583 484.25877044893855 L 453.37483696493905 478.8130997053005 L 447.929166221301 474.9999999999972 L 444.1160665159978 480.44567074363533 Z" style="stroke:#F90E47; stroke-opacity: 1;fill:#000007; fill-opacity: 1;"/>
<path d="M 447.929166221301 474.9999999999972 L 453.3748369649345 471.1869002946936 L 449.56173725963083 465.7412295510601 L 444.1160665159973 469.55432925636376 Z" style="stroke:#F90E47; stroke-opacity: 1;fill:#000007; fill-opacity: 1;"/>
<path d="M 449.56173725963083 465.7412295510601 L 455.9831507803741 464.0206169839108 L 454.26253821322484 457.59920346316756 L 447.84112469248157 459.3198160303168 Z" style="stroke:#F90E47; stroke-opacity: 1;fill:#000007; fill-opacity: 1;"/>
<path d="M 454.26253821322484 457.59920346316756 L 460.8851772705102 458.17860930330744 L 461.46458311065015 451.55597024602207 L 454.8419440533647 450.9765644058822 Z" style="stroke:#F90E47; stroke-opacity: 1;fill:#000007; fill-opacity: 1;"/>
<path d="M 461.46458311065015 451.55597024602207 L 467.48965969442554 454.3655095980039 L 470.29919904640735 448.3404330142284 L 464.2741224626319 445.5308936622466 Z" style="stroke:#F90E47; stroke-opacity: 1;fill:#000007; fill-opacity: 1;"/>
<path d="M 470.29919904640735 448.3404330142284 L 475.00000000000136 453.04123396782114 L 479.7008009535941 448.3404330142272 L 475.0000000000001 443.63963206063437 Z" style="stroke:#F90E47; stroke-opacity: 1;fill:#000007; fill-opacity: 1;"/>
<path d="M 479.7008009535941 448.3404330142272 L 482.5103403055751 454.36550959800076 L 488.53541688934865 451.5559702460198 L 485.7258775373677 445.5308936622462 Z" style="stroke:#F90E47; stroke-opacity: 1;fill:#000007; fill-opacity: 1;"/>
<path d="M 488.53541688934865 451.5559702460198 L 489.11482272948626 458.17860930330596 L 495.73746178677237 457.59920346316835 L 495.1580559466348 450.9765644058822 Z" style="stroke:#F90E47; stroke-opacity: 1;fill:#000007; fill-opacity: 1;"/>
<path d="M 495.73746178677237 457.59920346316835 L 494.0168492196237 464.0206169839138 L 500.43826274036905 465.7412295510625 L 502.1588753075178 459.31981603031704 Z" style="stroke:#F90E47; stroke-opacity: 1;fill:#000007; fill-opacity: 1;"/>
<path d="M 500.43826274036905 465.7412295510625 L 496.6251630350664 471.1869002946961 L 502.07083377870003 474.9999999999987 L 505.8839334840027 469.5543292563651 Z" style="stroke:#F90E47; stroke-opacity: 1;fill:#000007; fill-opacity: 1;"/>
<path d="M 502.07083377870003 474.9999999999987 L 496.62516303506334 478.8130997053021 L 500.4382627403667 484.2587704489388 L 505.8839334840035 480.44567074363533 Z" style="stroke:#F90E47; stroke-opacity: 1;fill:#000007; fill-opacity: 1;"/>
<path d="M 500.4382627403667 484.2587704489388 L 494.0168492196227 485.9793830160897 L 495.7374617867737 492.40079653683364 L 502.15887530751763 490.6801839696828 Z" style="stroke:#F90E47; stroke-opacity: 1;fill:#000007; fill-opacity: 1;"/>
<path d="M 495.7374617867737 492.40079653683364 L 489.11482272948916 491.82139069669523 L 488.5354168893507 498.44402975397975 L 495.1580559466352 499.0234355941182 Z" style="stroke:#F90E47; stroke-opacity: 1;fill:#000007; fill-opacity: 1;"/>
<path d="M 488.5354168893507 498.44402975397975 L 482.51034030557736 495.63449040199725 L 479.70080095359475 501.6595669857706 L 485.72587753736815 504.46910633775315 Z" style="stroke:#F90E47; stroke-opacity: 1;fill:#000007; fill-opacity: 1;"/>
<path d="M 479.70080095359475 501.6595669857706 L 475 496.9587660321755 L 470.29919904640485 501.6595669857702 L 474.99999999999955 506.36036793936535 Z" style="stroke:#F90E47; stroke-opacity: 1;fill:#000007; fill-opacity: 1;"/>
<path d="M 470.29919904640485 501.6595669857702 L 467.4896596944211 495.63449040199697 L 461.46458311064794 498.4440297539807 L 464.2741224626317 504.4691063377539 Z" style="stroke:#F90E47; stroke-opacity: 1;fill:#000007; fill-opacity: 1;"/>
<path d="M 461.46458311064794 498.4440297539807 L 460.88517727050987 491.8213906966981 L 454.26253821322723 492.4007965368361 L 454.8419440533653 499.0234355941188 Z" style="stroke:#F90E47; stroke-opacity: 1;fill:#000007; fill-opacity: 1;"/>
<path d="M 455.9831507803803 485.9793830160916 L 458.2621355280553 481.0920844529754 L 453.37483696493905 478.8130997053005 L 451.0958522172641 483.70039826841673 Z" style="stroke:#F90E3D; stroke-opacity: 1;fill:#000000; fill-opacity: 1;"/>
<path d="M 453.37483696493905 478.8130997053005 L 457.1879366702402 474.99999999999477 L 453.3748369649345 471.1869002946936 L 449.56173725963333 474.9999999999993 Z" style="stroke:#F90E3D; stroke-opacity: 1;fill:#000000; fill-opacity: 1;"/>
<path d="M 453.3748369649345 471.1869002946936 L 458.2621355280457 468.907915547022 L 455.9831507803741 464.0206169839108 L 451.0958522172629 466.2996017315824 Z" style="stroke:#F90E3D; stroke-opacity: 1;fill:#000000; fill-opacity: 1;"/>
<path d="M 455.9831507803741 464.0206169839108 L 461.35516786574385 463.5506263886772 L 460.8851772705102 458.17860930330744 L 455.51316018514046 458.6485998985411 Z" style="stroke:#F90E3D; stroke-opacity: 1;fill:#000000; fill-opacity: 1;"/>
<path d="M 460.8851772705102 458.17860930330744 L 466.09396833511965 459.5743006626133 L 467.48965969442554 454.3655095980039 L 462.2808686298161 452.969818238698 Z" style="stroke:#F90E3D; stroke-opacity: 1;fill:#000000; fill-opacity: 1;"/>
<path d="M 467.48965969442554 454.3655095980039 L 471.90696766230485 457.45854193570045 L 475.00000000000136 453.04123396782114 L 470.58269203212205 449.94820163012463 Z" style="stroke:#F90E3D; stroke-opacity: 1;fill:#000000; fill-opacity: 1;"/>
<path d="M 475.00000000000136 453.04123396782114 L 478.0930323376984 457.4585419356978 L 482.5103403055751 454.36550959800076 L 479.417307967878 449.9482016301241 Z" style="stroke:#F90E3D; stroke-opacity: 1;fill:#000000; fill-opacity: 1;"/>
<path d="M 482.5103403055751 454.36550959800076 L 483.9060316648781 459.57430066260895 L 489.11482272948626 458.17860930330596 L 487.7191313701833 452.9698182386978 Z" style="stroke:#F90E3D; stroke-opacity: 1;fill:#000000; fill-opacity: 1;"/>
<path d="M 489.11482272948626 458.17860930330596 L 488.64483213425103 463.55062638867855 L 494.0168492196237 464.0206169839138 L 494.48683981485885 458.6485998985412 Z" style="stroke:#F90E3D; stroke-opacity: 1;fill:#000000; fill-opacity: 1;"/>
<path d="M 494.0168492196237 464.0206169839138 L 491.7378644719539 468.9079155470263 L 496.6251630350664 471.1869002946961 L 498.90414778273623 466.2996017315836 Z" style="stroke:#F90E3D; stroke-opacity: 1;fill:#000000; fill-opacity: 1;"/>
<path d="M 496.6251630350664 471.1869002946961 L 492.8120633297619 474.99999999999756 L 496.62516303506334 478.8130997053021 L 500.43826274036786 475.0000000000006 Z" style="stroke:#F90E3D; stroke-opacity: 1;fill:#000000; fill-opacity: 1;"/>
<path d="M 496.62516303506334 478.8130997053021 L 491.7378644719492 481.09208445297554 L 494.0168492196227 485.9793830160897 L 498.90414778273686 483.70039826841617 Z" style="stroke:#F90E3D; stroke-opacity: 1;fill:#000000; fill-opacity: 1;"/>
<path d="M 494.0168492196227 485.9793830160897 L 488.6448321342532 486.4493736113257 L 489.11482272948916 491.82139069669523 L 494.48683981485874 491.3514001014592 Z" style="stroke:#F90E3D; stroke-opacity: 1;fill:#000000; fill-opacity: 1;"/>
<path d="M 489.11482272948916 491.82139069669523 L 483.9060316648822 490.42569933739037 L 482.51034030557736 495.63449040199725 L 487.7191313701843 497.0301817613022 Z" style="stroke:#F90E3D; stroke-opacity: 1;fill:#000000; fill-opacity: 1;"/>
<path d="M 482.51034030557736 495.63449040199725 L 478.0930323376995 492.5414580642977 L 475 496.9587660321755 L 479.4173079678778 500.0517983698751 Z" style="stroke:#F90E3D; stroke-opacity: 1;fill:#000000; fill-opacity: 1;"/>
<path d="M 475 496.9587660321755 L 471.9069676622998 492.54145806429676 L 467.4896596944211 495.63449040199697 L 470.5826920321213 500.05179836987566 Z" style="stroke:#F90E3D; stroke-opacity: 1;fill:#000000; fill-opacity: 1;"/>
<path d="M 467.4896596944211 495.63449040199697 L 466.09396833511494 490.4256993373919 L 460.88517727050987 491.8213906966981 L 462.28086862981604 497.03018176130314 Z" style="stroke:#F90E3D; stroke-opacity: 1;fill:#000000; fill-opacity: 1;"/>
<path d="M 460.88517727050987 491.8213906966981 L 461.3551678657483 486.4493736113301 L 455.9831507803803 485.9793830160916 L 455.5131601851418 491.3514001014596 Z" style="stroke:#F90E3D; stroke-opacity: 1;fill:#000000; fill-opacity: 1;"/>
<path d="M 458.2621355280553 481.0920844529754 L 460.7710783256381 477.50894279757756 L 457.1879366702402 474.99999999999477 L 454.67899387265743 478.58314165539264 Z" style="stroke:#D12800; stroke-opacity: 1;fill:#000000; fill-opacity: 1;"/>
<path d="M 457.1879366702402 474.99999999999477 L 460.77107832562933 472.4910572024111 L 458.2621355280457 468.907915547022 L 454.6789938726565 471.4168583446056 Z" style="stroke:#D12800; stroke-opacity: 1;fill:#000000; fill-opacity: 1;"/>
<path d="M 458.2621355280457 468.907915547022 L 462.48729627606724 467.7757871366987 L 461.35516786574385 463.5506263886772 L 457.13000711772236 464.6827547990006 Z" style="stroke:#D12800; stroke-opacity: 1;fill:#000000; fill-opacity: 1;"/>
<path d="M 461.35516786574385 463.5506263886772 L 465.7127309634636 463.93186376033316 L 466.09396833511965 459.5743006626133 L 461.7364052373998 459.1930632909574 Z" style="stroke:#D12800; stroke-opacity: 1;fill:#000000; fill-opacity: 1;"/>
<path d="M 466.09396833511965 459.5743006626133 L 470.0583473621687 461.42292096274946 L 471.90696766230485 457.45854193570045 L 467.94258863525585 455.6099216355643 Z" style="stroke:#D12800; stroke-opacity: 1;fill:#000000; fill-opacity: 1;"/>
<path d="M 471.90696766230485 457.45854193570045 L 475.00000000000296 460.5515742733959 L 478.0930323376984 457.4585419356978 L 475.0000000000002 454.3655095980024 Z" style="stroke:#D12800; stroke-opacity: 1;fill:#000000; fill-opacity: 1;"/>
<path d="M 478.0930323376984 457.4585419356978 L 479.94165263783265 461.4229209627432 L 483.9060316648781 459.57430066260895 L 482.0574113647438 455.6099216355635 Z" style="stroke:#D12800; stroke-opacity: 1;fill:#000000; fill-opacity: 1;"/>
<path d="M 483.9060316648781 459.57430066260895 L 484.2872690365298 463.9318637603302 L 488.64483213425103 463.55062638867855 L 488.2635947625994 459.1930632909573 Z" style="stroke:#D12800; stroke-opacity: 1;fill:#000000; fill-opacity: 1;"/>
<path d="M 488.64483213425103 463.55062638867855 L 487.5127037239286 467.77578713670385 L 491.7378644719539 468.9079155470263 L 492.86999288227634 464.682754799001 Z" style="stroke:#D12800; stroke-opacity: 1;fill:#000000; fill-opacity: 1;"/>
<path d="M 491.7378644719539 468.9079155470263 L 489.2289216743722 472.49105720241596 L 492.8120633297619 474.99999999999756 L 495.32100612734354 471.41685834460793 Z" style="stroke:#D12800; stroke-opacity: 1;fill:#000000; fill-opacity: 1;"/>
<path d="M 492.8120633297619 474.99999999999756 L 489.2289216743666 477.5089427975802 L 491.7378644719492 481.09208445297554 L 495.3210061273445 478.58314165539286 Z" style="stroke:#D12800; stroke-opacity: 1;fill:#000000; fill-opacity: 1;"/>
<path d="M 491.7378644719492 481.09208445297554 L 487.51270372392605 482.2242128633027 L 488.6448321342532 486.4493736113257 L 492.8699928822763 485.3172452009986 Z" style="stroke:#D12800; stroke-opacity: 1;fill:#000000; fill-opacity: 1;"/>
<path d="M 488.6448321342532 486.4493736113257 L 484.28726903653535 486.0681362396725 L 483.9060316648822 490.42569933739037 L 488.26359476260006 490.8069367090435 Z" style="stroke:#D12800; stroke-opacity: 1;fill:#000000; fill-opacity: 1;"/>
<path d="M 483.9060316648822 490.42569933739037 L 479.9416526378372 488.5770790372527 L 478.0930323376995 492.5414580642977 L 482.0574113647445 494.39007836443534 Z" style="stroke:#D12800; stroke-opacity: 1;fill:#000000; fill-opacity: 1;"/>
<path d="M 478.0930323376995 492.5414580642977 L 475.0000000000001 489.44842572659735 L 471.9069676622998 492.54145806429676 L 474.9999999999992 495.6344904019971 Z" style="stroke:#D12800; stroke-opacity: 1;fill:#000000; fill-opacity: 1;"/>
<path d="M 471.9069676622998 492.54145806429676 L 470.0583473621598 488.57707903725185 L 466.09396833511494 490.4256993373919 L 467.9425886352549 494.39007836443676 Z" style="stroke:#D12800; stroke-opacity: 1;fill:#000000; fill-opacity: 1;"/>
<path d="M 466.09396833511494 490.4256993373919 L 465.7127309634625 486.06813623967764 L 461.3551678657483 486.4493736113301 L 461.73640523740073 490.8069367090443 Z" style="stroke:#D12800; stroke-opacity: 1;fill:#000000; fill-opacity: 1;"/>
<path d="M 461.3551678657483 486.4493736113301 L 462.4872962760791 482.22421286330626 L 458.2621355280553 481.0920844529754 L 457.13000711772446 485.31724520099925 Z" style="stroke:#D12800; stroke-opacity: 1;fill:#000000; fill-opacity: 1;"/>
<path d="M 460.7710783256381 477.50894279757756 L 463.2800211232169 474.99999999998994 L 460.77107832562933 472.4910572024111 L 458.2621355280505 474.9999999999987 Z" style="stroke:#D12800; stroke-opacity: 1;fill:#000000; fill-opacity: 1;"/>
<path d="M 460.77107832562933 472.4910572024111 L 463.9868223337045 470.9915311447739 L 462.48729627606724 467.7757871366987 L 459.2715522679921 469.275313194336 Z" style="stroke:#D12800; stroke-opacity: 1;fill:#000000; fill-opacity: 1;"/>
<path d="M 462.48729627606724 467.7757871366987 L 466.0219753079482 467.4665427922141 L 465.7127309634636 463.93186376033316 L 462.1780519315827 464.2411081048177 Z" style="stroke:#D12800; stroke-opacity: 1;fill:#000000; fill-opacity: 1;"/>
<path d="M 465.7127309634636 463.93186376033316 L 469.140010561608 464.8502005608939 L 470.0583473621687 461.42292096274946 L 466.6310677640243 460.50458416218873 Z" style="stroke:#D12800; stroke-opacity: 1;fill:#000000; fill-opacity: 1;"/>
<path d="M 470.0583473621687 461.42292096274946 L 472.9648470257626 463.4580739369898 L 475.00000000000296 460.5515742733959 L 472.093500336409 458.5164212991555 Z" style="stroke:#D12800; stroke-opacity: 1;fill:#000000; fill-opacity: 1;"/>
<path d="M 475.00000000000296 460.5515742733959 L 477.03515297424417 463.45807393698436 L 479.94165263783265 461.4229209627432 L 477.9064996635915 458.51642129915473 Z" style="stroke:#D12800; stroke-opacity: 1;fill:#000000; fill-opacity: 1;"/>
<path d="M 479.94165263783265 461.4229209627432 L 480.85998943838774 464.85020056088524 L 484.2872690365298 463.9318637603302 L 483.36893223597474 460.50458416218817 Z" style="stroke:#D12800; stroke-opacity: 1;fill:#000000; fill-opacity: 1;"/>
<path d="M 484.2872690365298 463.9318637603302 L 483.97802469204237 467.4665427922164 L 487.5127037239286 467.77578713670385 L 487.8219480684161 464.2411081048176 Z" style="stroke:#D12800; stroke-opacity: 1;fill:#000000; fill-opacity: 1;"/>
<path d="M 487.5127037239286 467.77578713670385 L 486.0131776662944 470.99153114478173 L 489.2289216743722 472.49105720241596 L 490.72844773200643 469.27531319433814 Z" style="stroke:#D12800; stroke-opacity: 1;fill:#000000; fill-opacity: 1;"/>
<path d="M 489.2289216743722 472.49105720241596 L 486.7199788767873 474.9999999999952 L 489.2289216743666 477.5089427975802 L 491.7378644719515 475.0000000000009 Z" style="stroke:#D12800; stroke-opacity: 1;fill:#000000; fill-opacity: 1;"/>
<path d="M 489.2289216743666 477.5089427975802 L 486.01317766628506 479.00846885522117 L 487.51270372392605 482.2242128633027 L 490.72844773200757 480.7246868056617 Z" style="stroke:#D12800; stroke-opacity: 1;fill:#000000; fill-opacity: 1;"/>
<path d="M 487.51270372392605 482.2242128633027 L 483.9780246920458 482.53345720779225 L 484.28726903653535 486.0681362396725 L 487.8219480684156 485.75889189518296 Z" style="stroke:#D12800; stroke-opacity: 1;fill:#000000; fill-opacity: 1;"/>
<path d="M 484.28726903653535 486.0681362396725 L 480.85998943839616 485.1497994391135 L 479.9416526378372 488.5770790372527 L 483.36893223597633 489.4954158378117 Z" style="stroke:#D12800; stroke-opacity: 1;fill:#000000; fill-opacity: 1;"/>
<path d="M 479.9416526378372 488.5770790372527 L 477.03515297424633 486.5419260630065 L 475.0000000000001 489.44842572659735 L 477.9064996635909 491.4835787008435 Z" style="stroke:#D12800; stroke-opacity: 1;fill:#000000; fill-opacity: 1;"/>
<path d="M 475.0000000000001 489.44842572659735 L 472.9648470257527 486.54192606300444 L 470.0583473621598 488.57707903725185 L 472.0935003364072 491.48357870084476 Z" style="stroke:#D12800; stroke-opacity: 1;fill:#000000; fill-opacity: 1;"/>
<path d="M 470.0583473621598 488.57707903725185 L 469.1400105615982 485.1497994391161 L 465.7127309634625 486.06813623967764 L 466.63106776402407 489.4954158378134 Z" style="stroke:#D12800; stroke-opacity: 1;fill:#000000; fill-opacity: 1;"/>
<path d="M 465.7127309634625 486.06813623967764 L 466.02197530795655 482.53345720780027 L 462.4872962760791 482.22421286330626 L 462.1780519315851 485.7588918951837 Z" style="stroke:#D12800; stroke-opacity: 1;fill:#000000; fill-opacity: 1;"/>
<path d="M 462.4872962760791 482.22421286330626 L 463.986822333723 479.0084688552214 L 460.7710783256381 477.50894279757756 L 459.27155226799425 480.7246868056624 Z" style="stroke:#D12800; stroke-opacity: 1;fill:#000000; fill-opacity: 1;"/>
<path d="M 463.2800211232169 474.99999999998994 L 465.6376561560687 473.3491661776257 L 463.9868223337045 470.9915311447739 L 461.62918730085266 472.6423649671381 Z" style="stroke:#E27B00; stroke-opacity: 1;fill:#000000; fill-opacity: 1;"/>
<path d="M 463.9868223337045 470.9915311447739 L 466.7668929971062 470.2466134556159 L 466.0219753079482 467.4665427922141 L 463.2419046445465 468.21146048137217 Z" style="stroke:#E27B00; stroke-opacity: 1;fill:#000000; fill-opacity: 1;"/>
<path d="M 466.0219753079482 467.4665427922141 L 468.88916405043824 467.7173893033839 L 469.140010561608 464.8502005608939 L 466.272821819118 464.59935404972407 Z" style="stroke:#E27B00; stroke-opacity: 1;fill:#000000; fill-opacity: 1;"/>
<path d="M 469.140010561608 464.8502005608939 L 471.7484921056373 466.0665554810192 L 472.9648470257626 463.4580739369898 L 470.3563654817333 462.2417190168646 Z" style="stroke:#E27B00; stroke-opacity: 1;fill:#000000; fill-opacity: 1;"/>
<path d="M 472.9648470257626 463.4580739369898 L 475.00000000000614 465.4932269112279 L 477.03515297424417 463.45807393698436 L 475.0000000000007 461.4229209627463 Z" style="stroke:#E27B00; stroke-opacity: 1;fill:#000000; fill-opacity: 1;"/>
<path d="M 477.03515297424417 463.45807393698436 L 478.25150789436555 466.0665554810066 L 480.85998943838774 464.85020056088524 L 479.64363451826637 462.24171901686304 Z" style="stroke:#E27B00; stroke-opacity: 1;fill:#000000; fill-opacity: 1;"/>
<path d="M 480.85998943838774 464.85020056088524 L 481.1108359495495 467.7173893033781 L 483.97802469204237 467.4665427922164 L 483.7271781808806 464.5993540497235 Z" style="stroke:#E27B00; stroke-opacity: 1;fill:#000000; fill-opacity: 1;"/>
<path d="M 483.97802469204237 467.4665427922164 L 483.23310700288573 470.24661345562504 L 486.0131776662944 470.99153114478173 L 486.758095355451 468.211460481373 Z" style="stroke:#E27B00; stroke-opacity: 1;fill:#000000; fill-opacity: 1;"/>
<path d="M 486.0131776662944 470.99153114478173 L 484.36234384393407 473.3491661776349 L 486.7199788767873 474.9999999999952 L 488.3708126991476 472.642364967142 Z" style="stroke:#E27B00; stroke-opacity: 1;fill:#000000; fill-opacity: 1;"/>
<path d="M 486.7199788767873 474.9999999999952 L 484.3623438439232 476.6508338223571 L 486.01317766628506 479.00846885522117 L 488.37081269914916 477.3576350328593 Z" style="stroke:#E27B00; stroke-opacity: 1;fill:#000000; fill-opacity: 1;"/>
<path d="M 486.01317766628506 479.00846885522117 L 483.2331070028799 479.75338654438707 L 483.9780246920458 482.53345720779225 L 486.75809535545096 481.78853951862635 Z" style="stroke:#E27B00; stroke-opacity: 1;fill:#000000; fill-opacity: 1;"/>
<path d="M 483.9780246920458 482.53345720779225 L 481.11083594956034 482.28261069662807 L 480.85998943839616 485.1497994391135 L 483.7271781808816 485.4006459502777 Z" style="stroke:#E27B00; stroke-opacity: 1;fill:#000000; fill-opacity: 1;"/>
<path d="M 480.85998943839616 485.1497994391135 L 478.25150789437475 483.9334445189851 L 477.03515297424633 486.5419260630065 L 479.64363451826773 487.7582809831349 Z" style="stroke:#E27B00; stroke-opacity: 1;fill:#000000; fill-opacity: 1;"/>
<path d="M 477.03515297424633 486.5419260630065 L 475.00000000000057 484.5067730887587 L 472.9648470257527 486.54192606300444 L 474.9999999999985 488.57707903725225 Z" style="stroke:#E27B00; stroke-opacity: 1;fill:#000000; fill-opacity: 1;"/>
<path d="M 472.9648470257527 486.54192606300444 L 471.7484921056196 483.93344451898304 L 469.1400105615982 485.1497994391161 L 470.3563654817313 487.7582809831375 Z" style="stroke:#E27B00; stroke-opacity: 1;fill:#000000; fill-opacity: 1;"/>
<path d="M 469.1400105615982 485.1497994391161 L 468.88916405043534 482.28261069663733 L 466.02197530795655 482.53345720780027 L 466.27282181911943 485.400645950279 Z" style="stroke:#E27B00; stroke-opacity: 1;fill:#000000; fill-opacity: 1;"/>
<path d="M 466.02197530795655 482.53345720780027 L 466.7668929971293 479.75338654439406 L 463.986822333723 479.0084688552214 L 463.24190464455035 481.78853951862766 Z" style="stroke:#E27B00; stroke-opacity: 1;fill:#000000; fill-opacity: 1;"/>
<path d="M 463.986822333723 479.0084688552214 L 465.63765615608565 476.6508338223526 L 463.2800211232169 474.99999999998994 L 461.62918730085426 477.3576350328587 Z" style="stroke:#E27B00; stroke-opacity: 1;fill:#000000; fill-opacity: 1;"/>
<path d="M 465.6376561560687 473.3491661776257 L 467.75355093759237 472.36250823713954 L 466.7668929971062 470.2466134556159 L 464.65099821558255 471.23327139610205 Z" style="stroke:#E27B00; stroke-opacity: 1;fill:#000000; fill-opacity: 1;"/>
<path d="M 466.7668929971062 470.2466134556159 L 469.0926405998882 470.04313690616596 L 468.88916405043824 467.7173893033839 L 466.5634164476562 467.9208658528339 Z" style="stroke:#E27B00; stroke-opacity: 1;fill:#000000; fill-opacity: 1;"/>
<path d="M 468.88916405043824 467.7173893033839 L 471.14424498922017 468.3216364198011 L 471.7484921056373 466.0665554810192 L 469.49341116685537 465.46230836460205 Z" style="stroke:#E27B00; stroke-opacity: 1;fill:#000000; fill-opacity: 1;"/>
<path d="M 471.7484921056373 466.0665554810192 L 473.6609103377174 467.405645143308 L 475.00000000000614 465.4932269112279 L 473.08758176792605 464.15413724893915 Z" style="stroke:#E27B00; stroke-opacity: 1;fill:#000000; fill-opacity: 1;"/>
<path d="M 475.00000000000614 465.4932269112279 L 476.3390896622965 467.40564514329697 L 478.25150789436555 466.0665554810066 L 476.9124182320752 464.15413724893756 Z" style="stroke:#E27B00; stroke-opacity: 1;fill:#000000; fill-opacity: 1;"/>
<path d="M 478.25150789436555 466.0665554810066 L 478.85575501077176 468.32163641978434 L 481.1108359495495 467.7173893033781 L 480.50658883314327 465.4623083646004 Z" style="stroke:#E27B00; stroke-opacity: 1;fill:#000000; fill-opacity: 1;"/>
<path d="M 481.1108359495495 467.7173893033781 L 480.90735940009415 470.0431369061697 L 483.23310700288573 470.24661345562504 L 483.43658355234106 467.92086585283346 Z" style="stroke:#E27B00; stroke-opacity: 1;fill:#000000; fill-opacity: 1;"/>
<path d="M 483.23310700288573 470.24661345562504 L 482.24644906240496 472.3625082371542 L 484.36234384393407 473.3491661776349 L 485.3490017844149 471.2332713961058 Z" style="stroke:#E27B00; stroke-opacity: 1;fill:#000000; fill-opacity: 1;"/>
<path d="M 484.36234384393407 473.3491661776349 L 482.7115100215675 474.99999999999056 L 484.3623438439232 476.6508338223571 L 486.0131776662897 475.0000000000015 Z" style="stroke:#E27B00; stroke-opacity: 1;fill:#000000; fill-opacity: 1;"/>
<path d="M 484.3623438439232 476.6508338223571 L 482.24644906238655 477.63749176285035 L 483.2331070028799 479.75338654438707 L 485.3490017844165 478.76672860389374 Z" style="stroke:#E27B00; stroke-opacity: 1;fill:#000000; fill-opacity: 1;"/>
<path d="M 483.2331070028799 479.75338654438707 L 480.9073594000996 479.9568630938478 L 481.11083594956034 482.28261069662807 L 483.4365835523406 482.07913414716734 Z" style="stroke:#E27B00; stroke-opacity: 1;fill:#000000; fill-opacity: 1;"/>
<path d="M 481.11083594956034 482.28261069662807 L 478.855755010789 481.6783635802137 L 478.25150789437475 483.9334445189851 L 480.50658883314605 484.53769163539937 Z" style="stroke:#E27B00; stroke-opacity: 1;fill:#000000; fill-opacity: 1;"/>
<path d="M 478.25150789437475 483.9334445189851 L 476.33908966230086 482.5943548566848 L 475.00000000000057 484.5067730887587 L 476.91241823207446 485.845862751059 Z" style="stroke:#E27B00; stroke-opacity: 1;fill:#000000; fill-opacity: 1;"/>
<path d="M 475.00000000000057 484.5067730887587 L 473.66091033769794 482.5943548566804 L 471.7484921056196 483.93344451898304 L 473.0875817679223 485.8458627510613 Z" style="stroke:#E27B00; stroke-opacity: 1;fill:#000000; fill-opacity: 1;"/>
<path d="M 471.7484921056196 483.93344451898304 L 471.14424498920033 481.67836358021805 L 468.88916405043534 482.28261069663733 L 469.4934111668546 484.5376916354023 Z" style="stroke:#E27B00; stroke-opacity: 1;fill:#000000; fill-opacity: 1;"/>
<path d="M 468.88916405043534 482.28261069663733 L 469.092640599904 479.9568630938627 L 466.7668929971293 479.75338654439406 L 466.5634164476607 482.0791341471687 Z" style="stroke:#E27B00; stroke-opacity: 1;fill:#000000; fill-opacity: 1;"/>
<path d="M 466.7668929971293 479.75338654439406 L 467.75355093762823 477.6374917628515 L 465.63765615608565 476.6508338223526 L 464.6509982155867 478.7667286038951 Z" style="stroke:#E27B00; stroke-opacity: 1;fill:#000000; fill-opacity: 1;"/>
<path d="M 465.63765615608565 476.6508338223526 L 467.2884899784406 474.9999999999807 L 465.6376561560687 473.3491661776257 L 463.98682233371375 474.9999999999976 Z" style="stroke:#E27B00; stroke-opacity: 1;fill:#000000; fill-opacity: 1;"/>
<path d="M 467.75355093759237 472.36250823713954 L 469.58278143422706 471.87236740280065 L 469.0926405998882 470.04313690616596 L 467.2634101032535 470.53327774050484 Z" style="stroke:#2A2642; stroke-opacity: 1;fill:#000000; fill-opacity: 1;"/>
<path d="M 469.0926405998882 470.04313690616596 L 470.97919303773665 470.2081888576495 L 471.14424498922017 468.3216364198011 L 469.25769255137175 468.15658446831753 Z" style="stroke:#2A2642; stroke-opacity: 1;fill:#000000; fill-opacity: 1;"/>
<path d="M 471.14424498922017 468.3216364198011 L 472.86057330171536 469.12197345580313 L 473.6609103377174 467.405645143308 L 471.9445820252222 466.6053081073059 Z" style="stroke:#2A2642; stroke-opacity: 1;fill:#000000; fill-opacity: 1;"/>
<path d="M 473.6609103377174 467.405645143308 L 475.00000000001245 468.74473480559203 L 476.3390896622965 467.40564514329697 L 475.0000000000014 466.0665554810129 Z" style="stroke:#2A2642; stroke-opacity: 1;fill:#000000; fill-opacity: 1;"/>
<path d="M 476.3390896622965 467.40564514329697 L 477.13942669829044 469.1219734557783 L 478.85575501077176 468.32163641978434 L 478.0554179747778 466.605308107303 Z" style="stroke:#2A2642; stroke-opacity: 1;fill:#000000; fill-opacity: 1;"/>
<path d="M 478.85575501077176 468.32163641978434 L 479.0208069622403 470.2081888576382 L 480.90735940009415 470.0431369061697 L 480.74230744862564 468.1565844683158 Z" style="stroke:#2A2642; stroke-opacity: 1;fill:#000000; fill-opacity: 1;"/>
<path d="M 480.90735940009415 470.0431369061697 L 480.4172185657573 471.87236740281736 L 482.24644906240496 472.3625082371542 L 482.7365898967418 470.53327774050655 Z" style="stroke:#2A2642; stroke-opacity: 1;fill:#000000; fill-opacity: 1;"/>
<path d="M 482.24644906240496 472.3625082371542 L 481.16023366056805 473.91378459815365 L 482.7115100215675 474.99999999999056 L 483.7977254234044 473.4487236389911 Z" style="stroke:#2A2642; stroke-opacity: 1;fill:#000000; fill-opacity: 1;"/>
<path d="M 482.7115100215675 474.99999999999056 L 481.16023366054714 476.08621540183 L 482.24644906238655 477.63749176285035 L 483.7977254234069 476.55127636101093 Z" style="stroke:#2A2642; stroke-opacity: 1;fill:#000000; fill-opacity: 1;"/>
<path d="M 482.24644906238655 477.63749176285035 L 480.41721856574435 478.1276325972056 L 480.9073594000996 479.9568630938478 L 482.7365898967418 479.46672225949254 Z" style="stroke:#2A2642; stroke-opacity: 1;fill:#000000; fill-opacity: 1;"/>
<path d="M 480.9073594000996 479.9568630938478 L 479.02080696226136 479.7918111423754 L 478.855755010789 481.6783635802137 L 480.7423074486273 481.8434155316861 Z" style="stroke:#2A2642; stroke-opacity: 1;fill:#000000; fill-opacity: 1;"/>
<path d="M 478.855755010789 481.6783635802137 L 477.13942669830936 480.8780265442052 L 476.33908966230086 482.5943548566848 L 478.0554179747805 483.39469189269334 Z" style="stroke:#2A2642; stroke-opacity: 1;fill:#000000; fill-opacity: 1;"/>
<path d="M 476.33908966230086 482.5943548566848 L 475.00000000000165 481.2552651943811 L 473.66091033769794 482.5943548566804 L 474.9999999999972 483.93344451898406 Z" style="stroke:#2A2642; stroke-opacity: 1;fill:#000000; fill-opacity: 1;"/>
<path d="M 473.66091033769794 482.5943548566804 L 472.86057330168035 480.87802654420045 L 471.14424498920033 481.67836358021805 L 471.944582025218 483.394691892698 Z" style="stroke:#2A2642; stroke-opacity: 1;fill:#000000; fill-opacity: 1;"/>
<path d="M 471.14424498920033 481.67836358021805 L 470.97919303772983 479.7918111423922 L 469.092640599904 479.9568630938627 L 469.2576925513745 481.84341553168855 Z" style="stroke:#2A2642; stroke-opacity: 1;fill:#000000; fill-opacity: 1;"/>
<path d="M 469.092640599904 479.9568630938627 L 469.5827814342717 478.1276325972192 L 467.75355093762823 477.6374917628515 L 467.26341010326047 479.466722259495 Z" style="stroke:#2A2642; stroke-opacity: 1;fill:#000000; fill-opacity: 1;"/>
<path d="M 467.75355093762823 477.6374917628515 L 468.8397663394698 476.0862154018223 L 467.2884899784406 474.9999999999807 L 466.202274576599 476.55127636100985 Z" style="stroke:#2A2642; stroke-opacity: 1;fill:#000000; fill-opacity: 1;"/>
<path d="M 467.2884899784406 474.9999999999807 L 468.83976633943706 473.913784598136 L 467.75355093759237 472.36250823713954 L 466.2022745765959 473.44872363898423 Z" style="stroke:#2A2642; stroke-opacity: 1;fill:#000000; fill-opacity: 1;"/>
<path d="M 469.58278143422706 471.87236740280065 L 471.11307650855747 471.73848393197983 L 470.97919303773665 470.2081888576495 L 469.44889796340624 470.34207232847024 Z" style="stroke:#2A2638; stroke-opacity: 1;fill:#000000; fill-opacity: 1;"/>
<path d="M 470.97919303773665 470.2081888576495 L 472.46299087064915 470.60577128871563 L 472.86057330171536 469.12197345580313 L 471.37677546880286 468.7243910247369 Z" style="stroke:#2A2638; stroke-opacity: 1;fill:#000000; fill-opacity: 1;"/>
<path d="M 472.86057330171536 469.12197345580313 L 474.1189059759694 470.0030674798461 L 475.00000000001245 468.74473480559203 L 473.7416673257583 467.86364078154907 Z" style="stroke:#2A2638; stroke-opacity: 1;fill:#000000; fill-opacity: 1;"/>
<path d="M 475.00000000001245 468.74473480559203 L 475.88109402405837 470.00306747982415 L 477.13942669829044 469.1219734557783 L 476.25833267424457 467.8636407815462 Z" style="stroke:#2A2638; stroke-opacity: 1;fill:#000000; fill-opacity: 1;"/>
<path d="M 477.13942669829044 469.1219734557783 L 477.5370091293354 470.6057712886832 L 479.0208069622403 470.2081888576382 L 478.6232245311953 468.72439102473334 Z" style="stroke:#2A2638; stroke-opacity: 1;fill:#000000; fill-opacity: 1;"/>
<path d="M 479.0208069622403 470.2081888576382 L 478.8869234914092 471.73848393198625 L 480.4172185657573 471.87236740281736 L 480.5511020365883 470.34207232846927 Z" style="stroke:#2A2638; stroke-opacity: 1;fill:#000000; fill-opacity: 1;"/>
<path d="M 480.4172185657573 471.87236740281736 L 479.76801751549453 473.2645835478909 L 481.16023366056805 473.91378459815365 L 481.8094347108308 472.52156845308014 Z" style="stroke:#2A2638; stroke-opacity: 1;fill:#000000; fill-opacity: 1;"/>
<path d="M 481.16023366056805 473.91378459815365 L 480.07401825871943 474.99999999998136 L 481.16023366054714 476.08621540183 L 482.24644906239575 475.0000000000023 Z" style="stroke:#2A2638; stroke-opacity: 1;fill:#000000; fill-opacity: 1;"/>
<path d="M 481.16023366054714 476.08621540183 L 479.7680175154579 476.7354164521164 L 480.41721856574435 478.1276325972056 L 481.80943471083356 477.4784315469192 Z" style="stroke:#2A2638; stroke-opacity: 1;fill:#000000; fill-opacity: 1;"/>
<path d="M 480.41721856574435 478.1276325972056 L 478.886923491418 478.26151606804905 L 479.02080696226136 479.7918111423754 L 480.55110203658774 479.65792767153204 Z" style="stroke:#2A2638; stroke-opacity: 1;fill:#000000; fill-opacity: 1;"/>
<path d="M 479.02080696226136 479.7918111423754 L 477.53700912937046 479.3942287113143 L 477.13942669830936 480.8780265442052 L 478.62322453120026 481.2756089752663 Z" style="stroke:#2A2638; stroke-opacity: 1;fill:#000000; fill-opacity: 1;"/>
<path d="M 477.13942669830936 480.8780265442052 L 475.8810940240676 479.9969325201393 L 475.00000000000165 481.2552651943811 L 476.25833267424343 482.136359218447 Z" style="stroke:#2A2638; stroke-opacity: 1;fill:#000000; fill-opacity: 1;"/>
<path d="M 475.00000000000165 481.2552651943811 L 474.11890597593134 479.99693252013014 L 472.86057330168035 480.87802654420045 L 473.7416673257507 482.1363592184514 Z" style="stroke:#2A2638; stroke-opacity: 1;fill:#000000; fill-opacity: 1;"/>
<path d="M 472.86057330168035 480.87802654420045 L 472.46299087060925 479.3942287113211 L 470.97919303772983 479.7918111423922 L 471.37677546880093 481.2756089752716 Z" style="stroke:#2A2638; stroke-opacity: 1;fill:#000000; fill-opacity: 1;"/>
<path d="M 470.97919303772983 479.7918111423922 L 471.11307650858726 478.2615160680766 L 469.5827814342717 478.1276325972192 L 469.4488979634143 479.6579276715347 Z" style="stroke:#2A2638; stroke-opacity: 1;fill:#000000; fill-opacity: 1;"/>
<path d="M 469.5827814342717 478.1276325972192 L 470.2319824845692 476.7354164521198 L 468.8397663394698 476.0862154018223 L 468.1905652891723 477.4784315469217 Z" style="stroke:#2A2638; stroke-opacity: 1;fill:#000000; fill-opacity: 1;"/>
<path d="M 468.8397663394698 476.0862154018223 L 469.9259817412966 474.99999999996277 L 468.83976633943706 473.913784598136 L 467.75355093761027 474.9999999999955 Z" style="stroke:#2A2638; stroke-opacity: 1;fill:#000000; fill-opacity: 1;"/>
<path d="M 468.83976633943706 473.913784598136 L 470.23198248449967 473.26458354786337 L 469.58278143422706 471.87236740280065 L 468.1905652891644 472.5215684530733 Z" style="stroke:#2A2638; stroke-opacity: 1;fill:#000000; fill-opacity: 1;"/>
</g>
</svg>