<?xml version="1.0"?><!DOCTYPE svg PUBLIC "-//W3C//DTD SVG 1.1//EN" "http://www.w3.org/Graphics/SVG/1.1/DTD/svg11.dtd"><svg xmlns="http://www.w3.org/2000/svg" width="950" height="950">
<title>PatternFourtyOne</title>
<desc>
Generated using the following configuration:

@implementation NewPattern : PatternFourtyOne
+ (CPDict) defaultConfig
{
 return [CPDictionary dictionaryWithObjectsAndKeys:[[GRColor alloc] initWithGradientColors:[] baseColor:[CPColor colorWith8BitRed:255 green:255 blue:255 alpha:1]], "background_color", 0, "background_color_direction", 12, "number_of_points", 0, "rotation", 0, "recurse_depth", 2, "factor_larger", [GRPoint pointWithX:475 Y:475], "center_point", 150, "radius", YES, "show_shapes", [[CPColor colorWith8BitRed:0 green:255 blue:100 alpha:0],[CPColor colorWith8BitRed:0 green:0 blue:0 alpha:0],[CPColor colorWith8BitRed:0 green:0 blue:0 alpha:0],[CPColor colorWith8BitRed:62 green:24 blue:255 alpha:0.34545454545454546],[CPColor colorWith8BitRed:255 green:2 blue:10 alpha:0],[CPColor colorWith8BitRed:255 green:23 blue:10 alpha:0]], "stroke_colors", [[CPColor colorWith8BitRed:255 green:247 blue:211 alpha:0],[CPColor colorWith8BitRed:255 green:255 blue:0 alpha:0],[CPColor colorWith8BitRed:255 green:255 blue:0 alpha:0],[CPColor colorWith8BitRed:198 green:83 blue:123 alpha:1],[CPColor colorWith8BitRed:23 green:200 blue:10 alpha:0],[CPColor colorWith8BitRed:200 green:23 blue:10 alpha:0]], "fill_colors"];
}
@end

</desc>
  <defs>
    <linearGradient id="grad1" x1="0%" y1="0%" x2="100%" y2="0%">
<stop offset="100%" style="stop-color:#FFFFFF;stop-opacity:1;" />
    </linearGradient>
  </defs>
<rect id="background" width="100%" height="100%" fill="url(#grad1)"/>
<g id="rotatelayer" transform="rotate(0, 475, 475)">
<path d="M 625 474.99999999999994 Z" style="stroke:#00FF64; stroke-opacity: 0;fill:#FFF7D3; fill-opacity: 0;"/>
<circle cx="475" cy="475" r="150" style="stroke:#00FF64; stroke-opacity: 0;fill:#FFF7D3; fill-opacity: 0;"/>
<path d="M 925 474.99999999999983 Z" style="stroke:#000000; stroke-opacity: 0;fill:#FFFF00; fill-opacity: 0;"/>
<circle cx="775" cy="474.9999999999999" r="150" style="stroke:#000000; stroke-opacity: 0;fill:#FFFF00; fill-opacity: 0;"/>
<path d="M 884.8076211353314 324.99999999999983 Z" style="stroke:#000000; stroke-opacity: 0;fill:#FFFF00; fill-opacity: 0;"/>
<circle cx="734.8076211353314" cy="324.9999999999999" r="150" style="stroke:#000000; stroke-opacity: 0;fill:#FFFF00; fill-opacity: 0;"/>
<path d="M 774.9999999999998 215.19237886466826 Z" style="stroke:#000000; stroke-opacity: 0;fill:#FFFF00; fill-opacity: 0;"/>
<circle cx="624.9999999999998" cy="215.19237886466829" r="150" style="stroke:#000000; stroke-opacity: 0;fill:#FFFF00; fill-opacity: 0;"/>
<path d="M 625 174.99999999999997 Z" style="stroke:#000000; stroke-opacity: 0;fill:#FFFF00; fill-opacity: 0;"/>
<circle cx="475" cy="175" r="150" style="stroke:#000000; stroke-opacity: 0;fill:#FFFF00; fill-opacity: 0;"/>
<path d="M 474.9999999999999 215.19237886466848 Z" style="stroke:#000000; stroke-opacity: 0;fill:#FFFF00; fill-opacity: 0;"/>
<circle cx="324.9999999999999" cy="215.1923788646685" r="150" style="stroke:#000000; stroke-opacity: 0;fill:#FFFF00; fill-opacity: 0;"/>
<path d="M 365.1923788646684 324.99999999999994 Z" style="stroke:#000000; stroke-opacity: 0;fill:#FFFF00; fill-opacity: 0;"/>
<circle cx="215.1923788646684" cy="325" r="150" style="stroke:#000000; stroke-opacity: 0;fill:#FFFF00; fill-opacity: 0;"/>
<path d="M 325 474.99999999999994 Z" style="stroke:#000000; stroke-opacity: 0;fill:#FFFF00; fill-opacity: 0;"/>
<circle cx="175" cy="475" r="150" style="stroke:#000000; stroke-opacity: 0;fill:#FFFF00; fill-opacity: 0;"/>
<path d="M 365.1923788646684 625 Z" style="stroke:#000000; stroke-opacity: 0;fill:#FFFF00; fill-opacity: 0;"/>
<circle cx="215.1923788646684" cy="625" r="150" style="stroke:#000000; stroke-opacity: 0;fill:#FFFF00; fill-opacity: 0;"/>
<path d="M 475 734.8076211353316 Z" style="stroke:#000000; stroke-opacity: 0;fill:#FFFF00; fill-opacity: 0;"/>
<circle cx="325" cy="734.8076211353316" r="150" style="stroke:#000000; stroke-opacity: 0;fill:#FFFF00; fill-opacity: 0;"/>
<path d="M 625 775 Z" style="stroke:#000000; stroke-opacity: 0;fill:#FFFF00; fill-opacity: 0;"/>
<circle cx="475" cy="775" r="150" style="stroke:#000000; stroke-opacity: 0;fill:#FFFF00; fill-opacity: 0;"/>
<path d="M 775 734.8076211353316 Z" style="stroke:#000000; stroke-opacity: 0;fill:#FFFF00; fill-opacity: 0;"/>
<circle cx="625" cy="734.8076211353316" r="150" style="stroke:#000000; stroke-opacity: 0;fill:#FFFF00; fill-opacity: 0;"/>
<path d="M 884.8076211353316 625 Z" style="stroke:#000000; stroke-opacity: 0;fill:#FFFF00; fill-opacity: 0;"/>
<circle cx="734.8076211353316" cy="625" r="150" style="stroke:#000000; stroke-opacity: 0;fill:#FFFF00; fill-opacity: 0;"/>
<path d="M 734.8076211353316 625 L 625 625 L 625 734.8076211353316 L 734.8076211353316 734.8076211353316 Z" style="stroke:#3E18FF; stroke-opacity: 0.34545454545454546;fill:#C6537B; fill-opacity: 1;"/>
<path d="M 625 734.8076211353316 L 529.9038105676658 679.9038105676658 L 475 775 L 570.0961894323342 829.9038105676658 Z" style="stroke:#3E18FF; stroke-opacity: 0.34545454545454546;fill:#C6537B; fill-opacity: 1;"/>
<path d="M 475 775 L 420.0961894323342 679.9038105676658 L 325 734.8076211353316 L 379.9038105676658 829.9038105676658 Z" style="stroke:#3E18FF; stroke-opacity: 0.34545454545454546;fill:#C6537B; fill-opacity: 1;"/>
<path d="M 325 734.8076211353316 L 325 625 L 215.1923788646684 625 L 215.1923788646684 734.8076211353316 Z" style="stroke:#3E18FF; stroke-opacity: 0.34545454545454546;fill:#C6537B; fill-opacity: 1;"/>
<path d="M 215.1923788646684 625 L 270.0961894323342 529.9038105676658 L 175 475 L 120.0961894323342 570.0961894323342 Z" style="stroke:#3E18FF; stroke-opacity: 0.34545454545454546;fill:#C6537B; fill-opacity: 1;"/>
<path d="M 175 475 L 270.0961894323342 420.0961894323342 L 215.1923788646684 325 L 120.0961894323342 379.9038105676658 Z" style="stroke:#3E18FF; stroke-opacity: 0.34545454545454546;fill:#C6537B; fill-opacity: 1;"/>
<path d="M 215.1923788646684 325 L 324.9999999999999 325 L 324.9999999999999 215.1923788646685 L 215.1923788646684 215.1923788646685 Z" style="stroke:#3E18FF; stroke-opacity: 0.34545454545454546;fill:#C6537B; fill-opacity: 1;"/>
<path d="M 324.9999999999999 215.1923788646685 L 420.0961894323342 270.0961894323343 L 475 175 L 379.9038105676657 120.0961894323342 Z" style="stroke:#3E18FF; stroke-opacity: 0.34545454545454546;fill:#C6537B; fill-opacity: 1;"/>
<path d="M 475 175 L 529.9038105676657 270.09618943233403 L 624.9999999999998 215.19237886466829 L 570.0961894323341 120.09618943233426 Z" style="stroke:#3E18FF; stroke-opacity: 0.34545454545454546;fill:#C6537B; fill-opacity: 1;"/>
<path d="M 624.9999999999998 215.19237886466829 L 624.9999999999998 324.9999999999999 L 734.8076211353314 324.9999999999999 L 734.8076211353314 215.19237886466829 Z" style="stroke:#3E18FF; stroke-opacity: 0.34545454545454546;fill:#C6537B; fill-opacity: 1;"/>
<path d="M 734.8076211353314 324.9999999999999 L 679.9038105676657 420.0961894323342 L 775 474.9999999999999 L 829.9038105676657 379.9038105676656 Z" style="stroke:#3E18FF; stroke-opacity: 0.34545454545454546;fill:#C6537B; fill-opacity: 1;"/>
<path d="M 775 474.9999999999999 L 679.9038105676657 529.9038105676658 L 734.8076211353316 625 L 829.9038105676659 570.0961894323342 Z" style="stroke:#3E18FF; stroke-opacity: 0.34545454545454546;fill:#C6537B; fill-opacity: 1;"/>
<path d="M 625 625 L 550 604.9038105676659 L 529.9038105676658 679.9038105676658 L 604.9038105676659 700 Z" style="stroke:#3E18FF; stroke-opacity: 0.34545454545454546;fill:#C6538F; fill-opacity: 1;"/>
<path d="M 529.9038105676658 679.9038105676658 L 475 625 L 420.0961894323342 679.9038105676658 L 475 734.8076211353316 Z" style="stroke:#3E18FF; stroke-opacity: 0.34545454545454546;fill:#C6538F; fill-opacity: 1;"/>
<path d="M 420.0961894323342 679.9038105676658 L 400 604.9038105676659 L 325 625 L 345.0961894323342 700 Z" style="stroke:#3E18FF; stroke-opacity: 0.34545454545454546;fill:#C6538F; fill-opacity: 1;"/>
<path d="M 325 625 L 345.0961894323342 550 L 270.0961894323342 529.9038105676658 L 250 604.9038105676659 Z" style="stroke:#3E18FF; stroke-opacity: 0.34545454545454546;fill:#C6538F; fill-opacity: 1;"/>
<path d="M 270.0961894323342 529.9038105676658 L 325 475 L 270.0961894323342 420.0961894323342 L 215.1923788646684 475 Z" style="stroke:#3E18FF; stroke-opacity: 0.34545454545454546;fill:#C6538F; fill-opacity: 1;"/>
<path d="M 270.0961894323342 420.0961894323342 L 345.09618943233414 399.99999999999994 L 324.9999999999999 325 L 249.99999999999994 345.09618943233426 Z" style="stroke:#3E18FF; stroke-opacity: 0.34545454545454546;fill:#C6538F; fill-opacity: 1;"/>
<path d="M 324.9999999999999 325 L 399.9999999999999 345.0961894323343 L 420.0961894323342 270.0961894323343 L 345.0961894323342 250 Z" style="stroke:#3E18FF; stroke-opacity: 0.34545454545454546;fill:#C6538F; fill-opacity: 1;"/>
<path d="M 420.0961894323342 270.0961894323343 L 475.0000000000001 324.99999999999994 L 529.9038105676657 270.09618943233403 L 474.9999999999998 215.19237886466846 Z" style="stroke:#3E18FF; stroke-opacity: 0.34545454545454546;fill:#C6538F; fill-opacity: 1;"/>
<path d="M 529.9038105676657 270.09618943233403 L 549.9999999999998 345.096189432334 L 624.9999999999998 324.9999999999999 L 604.9038105676657 249.9999999999999 Z" style="stroke:#3E18FF; stroke-opacity: 0.34545454545454546;fill:#C6538F; fill-opacity: 1;"/>
<path d="M 624.9999999999998 324.9999999999999 L 604.9038105676656 400 L 679.9038105676657 420.0961894323342 L 699.9999999999999 345.0961894323341 Z" style="stroke:#3E18FF; stroke-opacity: 0.34545454545454546;fill:#C6538F; fill-opacity: 1;"/>
<path d="M 679.9038105676657 420.0961894323342 L 624.9999999999999 475 L 679.9038105676657 529.9038105676658 L 734.8076211353315 475 Z" style="stroke:#3E18FF; stroke-opacity: 0.34545454545454546;fill:#C6538F; fill-opacity: 1;"/>
<path d="M 679.9038105676657 529.9038105676658 L 604.9038105676657 550.0000000000001 L 625 625 L 700 604.9038105676658 Z" style="stroke:#3E18FF; stroke-opacity: 0.34545454545454546;fill:#C6538F; fill-opacity: 1;"/>
<path d="M 550 604.9038105676659 L 502.45190528383296 577.451905283833 L 475 625 L 522.548094716167 652.451905283833 Z" style="stroke:#3E18FF; stroke-opacity: 0.34545454545454546;fill:#C653A3; fill-opacity: 1;"/>
<path d="M 475 625 L 447.54809471616704 577.451905283833 L 400 604.9038105676659 L 427.45190528383296 652.451905283833 Z" style="stroke:#3E18FF; stroke-opacity: 0.34545454545454546;fill:#C653A3; fill-opacity: 1;"/>
<path d="M 400 604.9038105676659 L 400.00000000000006 550 L 345.0961894323342 550 L 345.09618943233414 604.9038105676659 Z" style="stroke:#3E18FF; stroke-opacity: 0.34545454545454546;fill:#C653A3; fill-opacity: 1;"/>
<path d="M 345.0961894323342 550 L 372.5480947161671 502.4519052838329 L 325 475 L 297.5480947161671 522.548094716167 Z" style="stroke:#3E18FF; stroke-opacity: 0.34545454545454546;fill:#C653A3; fill-opacity: 1;"/>
<path d="M 325 475 L 372.54809471616704 447.54809471616704 L 345.09618943233414 399.99999999999994 L 297.54809471616704 427.45190528383296 Z" style="stroke:#3E18FF; stroke-opacity: 0.34545454545454546;fill:#C653A3; fill-opacity: 1;"/>
<path d="M 345.09618943233414 399.99999999999994 L 399.99999999999983 400 L 399.9999999999999 345.0961894323343 L 345.09618943233426 345.0961894323343 Z" style="stroke:#3E18FF; stroke-opacity: 0.34545454545454546;fill:#C653A3; fill-opacity: 1;"/>
<path d="M 399.9999999999999 345.0961894323343 L 447.54809471616716 372.54809471616727 L 475.0000000000001 324.99999999999994 L 427.45190528383284 297.54809471616704 Z" style="stroke:#3E18FF; stroke-opacity: 0.34545454545454546;fill:#C653A3; fill-opacity: 1;"/>
<path d="M 475.0000000000001 324.99999999999994 L 502.451905283833 372.54809471616676 L 549.9999999999998 345.096189432334 L 522.548094716167 297.5480947161671 Z" style="stroke:#3E18FF; stroke-opacity: 0.34545454545454546;fill:#C653A3; fill-opacity: 1;"/>
<path d="M 549.9999999999998 345.096189432334 L 549.9999999999998 399.9999999999999 L 604.9038105676656 400 L 604.9038105676657 345.0961894323341 Z" style="stroke:#3E18FF; stroke-opacity: 0.34545454545454546;fill:#C653A3; fill-opacity: 1;"/>
<path d="M 604.9038105676656 400 L 577.4519052838327 447.54809471616716 L 624.9999999999999 475 L 652.4519052838327 427.45190528383284 Z" style="stroke:#3E18FF; stroke-opacity: 0.34545454545454546;fill:#C653A3; fill-opacity: 1;"/>
<path d="M 624.9999999999999 475 L 577.4519052838327 502.4519052838329 L 604.9038105676657 550.0000000000001 L 652.4519052838327 522.548094716167 Z" style="stroke:#3E18FF; stroke-opacity: 0.34545454545454546;fill:#C653A3; fill-opacity: 1;"/>
<path d="M 604.9038105676657 550.0000000000001 L 550 550.0000000000002 L 550 604.9038105676659 L 604.9038105676657 604.9038105676659 Z" style="stroke:#3E18FF; stroke-opacity: 0.34545454545454546;fill:#C653A3; fill-opacity: 1;"/>
<path d="M 502.45190528383296 577.451905283833 L 475 550 L 447.54809471616704 577.451905283833 L 475 604.9038105676659 Z" style="stroke:#3E18FF; stroke-opacity: 0.34545454545454546;fill:#C653B7; fill-opacity: 1;"/>
<path d="M 447.54809471616704 577.451905283833 L 437.5 539.951905283833 L 400.00000000000006 550 L 410.04809471616704 587.5 Z" style="stroke:#3E18FF; stroke-opacity: 0.34545454545454546;fill:#C653B7; fill-opacity: 1;"/>
<path d="M 400.00000000000006 550 L 410.04809471616716 512.5 L 372.5480947161671 502.4519052838329 L 362.5 539.951905283833 Z" style="stroke:#3E18FF; stroke-opacity: 0.34545454545454546;fill:#C653B7; fill-opacity: 1;"/>
<path d="M 372.5480947161671 502.4519052838329 L 400 475 L 372.54809471616704 447.54809471616704 L 345.0961894323341 475 Z" style="stroke:#3E18FF; stroke-opacity: 0.34545454545454546;fill:#C653B7; fill-opacity: 1;"/>
<path d="M 372.54809471616704 447.54809471616704 L 410.04809471616693 437.4999999999999 L 399.99999999999983 400 L 362.4999999999999 410.04809471616716 Z" style="stroke:#3E18FF; stroke-opacity: 0.34545454545454546;fill:#C653B7; fill-opacity: 1;"/>
<path d="M 399.99999999999983 400 L 437.4999999999999 410.04809471616727 L 447.54809471616716 372.54809471616727 L 410.04809471616716 362.5 Z" style="stroke:#3E18FF; stroke-opacity: 0.34545454545454546;fill:#C653B7; fill-opacity: 1;"/>
<path d="M 447.54809471616716 372.54809471616727 L 475.00000000000034 400 L 502.451905283833 372.54809471616676 L 474.9999999999999 345.0961894323341 Z" style="stroke:#3E18FF; stroke-opacity: 0.34545454545454546;fill:#C653B7; fill-opacity: 1;"/>
<path d="M 502.451905283833 372.54809471616676 L 512.4999999999998 410.04809471616664 L 549.9999999999998 399.9999999999999 L 539.951905283833 362.49999999999994 Z" style="stroke:#3E18FF; stroke-opacity: 0.34545454545454546;fill:#C653B7; fill-opacity: 1;"/>
<path d="M 549.9999999999998 399.9999999999999 L 539.9519052838326 437.5 L 577.4519052838327 447.54809471616716 L 587.4999999999999 410.04809471616704 Z" style="stroke:#3E18FF; stroke-opacity: 0.34545454545454546;fill:#C653B7; fill-opacity: 1;"/>
<path d="M 577.4519052838327 447.54809471616716 L 549.9999999999999 475 L 577.4519052838327 502.4519052838329 L 604.9038105676656 475 Z" style="stroke:#3E18FF; stroke-opacity: 0.34545454545454546;fill:#C653B7; fill-opacity: 1;"/>
<path d="M 577.4519052838327 502.4519052838329 L 539.9519052838327 512.5000000000002 L 550 550.0000000000002 L 587.5 539.951905283833 Z" style="stroke:#3E18FF; stroke-opacity: 0.34545454545454546;fill:#C653B7; fill-opacity: 1;"/>
<path d="M 550 550.0000000000002 L 512.5000000000001 539.9519052838331 L 502.45190528383296 577.451905283833 L 539.9519052838328 587.5000000000001 Z" style="stroke:#3E18FF; stroke-opacity: 0.34545454545454546;fill:#C653B7; fill-opacity: 1;"/>
<path d="M 475 550 L 461.2740473580835 526.2259526419165 L 437.5 539.951905283833 L 451.2259526419165 563.7259526419165 Z" style="stroke:#3E18FF; stroke-opacity: 0.34545454545454546;fill:#C653CB; fill-opacity: 1;"/>
<path d="M 437.5 539.951905283833 L 437.50000000000006 512.5 L 410.04809471616716 512.5 L 410.0480947161671 539.951905283833 Z" style="stroke:#3E18FF; stroke-opacity: 0.34545454545454546;fill:#C653CB; fill-opacity: 1;"/>
<path d="M 410.04809471616716 512.5 L 423.7740473580836 488.7259526419164 L 400 475 L 386.2740473580836 498.7740473580836 Z" style="stroke:#3E18FF; stroke-opacity: 0.34545454545454546;fill:#C653CB; fill-opacity: 1;"/>
<path d="M 400 475 L 423.7740473580835 461.2740473580834 L 410.04809471616693 437.4999999999999 L 386.2740473580834 451.2259526419165 Z" style="stroke:#3E18FF; stroke-opacity: 0.34545454545454546;fill:#C653CB; fill-opacity: 1;"/>
<path d="M 410.04809471616693 437.4999999999999 L 437.4999999999997 437.50000000000006 L 437.4999999999999 410.04809471616727 L 410.0480947161671 410.0480947161671 Z" style="stroke:#3E18FF; stroke-opacity: 0.34545454545454546;fill:#C653CB; fill-opacity: 1;"/>
<path d="M 437.4999999999999 410.04809471616727 L 461.27404735808375 423.77404735808386 L 475.00000000000034 400 L 451.2259526419165 386.2740473580834 Z" style="stroke:#3E18FF; stroke-opacity: 0.34545454545454546;fill:#C653CB; fill-opacity: 1;"/>
<path d="M 475.00000000000034 400 L 488.7259526419167 423.774047358083 L 512.4999999999998 410.04809471616664 L 498.7740473580834 386.2740473580836 Z" style="stroke:#3E18FF; stroke-opacity: 0.34545454545454546;fill:#C653CB; fill-opacity: 1;"/>
<path d="M 512.4999999999998 410.04809471616664 L 512.4999999999995 437.4999999999997 L 539.9519052838326 437.5 L 539.951905283833 410.0480947161669 Z" style="stroke:#3E18FF; stroke-opacity: 0.34545454545454546;fill:#C653CB; fill-opacity: 1;"/>
<path d="M 539.9519052838326 437.5 L 526.2259526419163 461.27404735808364 L 549.9999999999999 475 L 563.7259526419163 451.22595264191636 Z" style="stroke:#3E18FF; stroke-opacity: 0.34545454545454546;fill:#C653CB; fill-opacity: 1;"/>
<path d="M 549.9999999999999 475 L 526.2259526419163 488.72595264191654 L 539.9519052838327 512.5000000000002 L 563.7259526419165 498.7740473580837 Z" style="stroke:#3E18FF; stroke-opacity: 0.34545454545454546;fill:#C653CB; fill-opacity: 1;"/>
<path d="M 539.9519052838327 512.5000000000002 L 512.5 512.5000000000003 L 512.5000000000001 539.9519052838331 L 539.9519052838327 539.9519052838328 Z" style="stroke:#3E18FF; stroke-opacity: 0.34545454545454546;fill:#C653CB; fill-opacity: 1;"/>
<path d="M 512.5000000000001 539.9519052838331 L 488.7259526419166 526.2259526419166 L 475 550 L 498.7740473580835 563.7259526419166 Z" style="stroke:#3E18FF; stroke-opacity: 0.34545454545454546;fill:#C653CB; fill-opacity: 1;"/>
<path d="M 461.2740473580835 526.2259526419165 L 456.25 507.4759526419166 L 437.50000000000006 512.5 L 442.5240473580835 531.25 Z" style="stroke:#3E18FF; stroke-opacity: 0.34545454545454546;fill:#C653DF; fill-opacity: 1;"/>
<path d="M 437.50000000000006 512.5 L 442.52404735808364 493.74999999999994 L 423.7740473580836 488.7259526419164 L 418.75 507.4759526419164 Z" style="stroke:#3E18FF; stroke-opacity: 0.34545454545454546;fill:#C653DF; fill-opacity: 1;"/>
<path d="M 423.7740473580836 488.7259526419164 L 437.5000000000001 474.9999999999999 L 423.7740473580835 461.2740473580834 L 410.04809471616704 475 Z" style="stroke:#3E18FF; stroke-opacity: 0.34545454545454546;fill:#C653DF; fill-opacity: 1;"/>
<path d="M 423.7740473580835 461.2740473580834 L 442.5240473580833 456.24999999999983 L 437.4999999999997 437.50000000000006 L 418.7499999999999 442.5240473580836 Z" style="stroke:#3E18FF; stroke-opacity: 0.34545454545454546;fill:#C653DF; fill-opacity: 1;"/>
<path d="M 437.4999999999997 437.50000000000006 L 456.2499999999999 442.524047358084 L 461.27404735808375 423.77404735808386 L 442.52404735808364 418.7499999999999 Z" style="stroke:#3E18FF; stroke-opacity: 0.34545454545454546;fill:#C653DF; fill-opacity: 1;"/>
<path d="M 461.27404735808375 423.77404735808386 L 475.0000000000007 437.4999999999999 L 488.7259526419167 423.774047358083 L 474.9999999999998 410.04809471616693 Z" style="stroke:#3E18FF; stroke-opacity: 0.34545454545454546;fill:#C653DF; fill-opacity: 1;"/>
<path d="M 488.7259526419167 423.774047358083 L 493.7499999999998 442.5240473580828 L 512.4999999999995 437.4999999999997 L 507.4759526419165 418.74999999999994 Z" style="stroke:#3E18FF; stroke-opacity: 0.34545454545454546;fill:#C653DF; fill-opacity: 1;"/>
<path d="M 512.4999999999995 437.4999999999997 L 507.4759526419159 456.25000000000006 L 526.2259526419163 461.27404735808364 L 531.2499999999998 442.52404735808335 Z" style="stroke:#3E18FF; stroke-opacity: 0.34545454545454546;fill:#C653DF; fill-opacity: 1;"/>
<path d="M 526.2259526419163 461.27404735808364 L 512.4999999999998 475.0000000000001 L 526.2259526419163 488.72595264191654 L 539.9519052838327 475.0000000000001 Z" style="stroke:#3E18FF; stroke-opacity: 0.34545454545454546;fill:#C653DF; fill-opacity: 1;"/>
<path d="M 526.2259526419163 488.72595264191654 L 507.47595264191614 493.7500000000003 L 512.5 512.5000000000003 L 531.25 507.47595264191654 Z" style="stroke:#3E18FF; stroke-opacity: 0.34545454545454546;fill:#C653DF; fill-opacity: 1;"/>
<path d="M 512.5 512.5000000000003 L 493.75000000000017 507.4759526419168 L 488.7259526419166 526.2259526419166 L 507.4759526419164 531.2500000000002 Z" style="stroke:#3E18FF; stroke-opacity: 0.34545454545454546;fill:#C653DF; fill-opacity: 1;"/>
<path d="M 488.7259526419166 526.2259526419166 L 475.0000000000001 512.5 L 461.2740473580835 526.2259526419165 L 475 539.9519052838332 Z" style="stroke:#3E18FF; stroke-opacity: 0.34545454545454546;fill:#C653DF; fill-opacity: 1;"/>
<path d="M 456.25 507.4759526419166 L 456.2500000000001 493.75000000000006 L 442.52404735808364 493.74999999999994 L 442.5240473580835 507.4759526419164 Z" style="stroke:#3E18FF; stroke-opacity: 0.34545454545454546;fill:#C653F3; fill-opacity: 1;"/>
<path d="M 442.52404735808364 493.74999999999994 L 449.38702367904193 481.8629763209581 L 437.5000000000001 474.9999999999999 L 430.6370236790418 486.88702367904165 Z" style="stroke:#3E18FF; stroke-opacity: 0.34545454545454546;fill:#C653F3; fill-opacity: 1;"/>
<path d="M 437.5000000000001 474.9999999999999 L 449.3870236790417 468.1370236790415 L 442.5240473580833 456.24999999999983 L 430.6370236790417 463.1129763209583 Z" style="stroke:#3E18FF; stroke-opacity: 0.34545454545454546;fill:#C653F3; fill-opacity: 1;"/>
<path d="M 442.5240473580833 456.24999999999983 L 456.24999999999955 456.2500000000002 L 456.2499999999999 442.524047358084 L 442.52404735808364 442.52404735808364 Z" style="stroke:#3E18FF; stroke-opacity: 0.34545454545454546;fill:#C653F3; fill-opacity: 1;"/>
<path d="M 456.2499999999999 442.524047358084 L 468.13702367904233 449.38702367904233 L 475.0000000000007 437.4999999999999 L 463.11297632095824 430.63702367904153 Z" style="stroke:#3E18FF; stroke-opacity: 0.34545454545454546;fill:#C653F3; fill-opacity: 1;"/>
<path d="M 475.0000000000007 437.4999999999999 L 481.86297632095875 449.3870236790409 L 493.7499999999998 442.5240473580828 L 486.8870236790417 430.6370236790418 Z" style="stroke:#3E18FF; stroke-opacity: 0.34545454545454546;fill:#C653F3; fill-opacity: 1;"/>
<path d="M 493.7499999999998 442.5240473580828 L 493.7499999999992 456.2499999999995 L 507.4759526419159 456.25000000000006 L 507.4759526419165 442.52404735808335 Z" style="stroke:#3E18FF; stroke-opacity: 0.34545454545454546;fill:#C653F3; fill-opacity: 1;"/>
<path d="M 507.4759526419159 456.25000000000006 L 500.61297632095784 468.13702367904204 L 512.4999999999998 475.0000000000001 L 519.3629763209578 463.1129763209582 Z" style="stroke:#3E18FF; stroke-opacity: 0.34545454545454546;fill:#C653F3; fill-opacity: 1;"/>
<path d="M 512.4999999999998 475.0000000000001 L 500.61297632095784 481.8629763209584 L 507.47595264191614 493.7500000000003 L 519.3629763209581 486.88702367904204 Z" style="stroke:#3E18FF; stroke-opacity: 0.34545454545454546;fill:#C653F3; fill-opacity: 1;"/>
<path d="M 507.47595264191614 493.7500000000003 L 493.7499999999999 493.75000000000057 L 493.75000000000017 507.4759526419168 L 507.4759526419165 507.4759526419165 Z" style="stroke:#3E18FF; stroke-opacity: 0.34545454545454546;fill:#C653F3; fill-opacity: 1;"/>
<path d="M 493.75000000000017 507.4759526419168 L 481.8629763209585 500.6129763209584 L 475.0000000000001 512.5 L 486.8870236790417 519.3629763209584 Z" style="stroke:#3E18FF; stroke-opacity: 0.34545454545454546;fill:#C653F3; fill-opacity: 1;"/>
<path d="M 475.0000000000001 512.5 L 468.13702367904176 500.61297632095824 L 456.25 507.4759526419166 L 463.11297632095835 519.3629763209583 Z" style="stroke:#3E18FF; stroke-opacity: 0.34545454545454546;fill:#C653F3; fill-opacity: 1;"/>
<path d="M 456.2500000000001 493.75000000000006 L 458.762023679042 484.375 L 449.38702367904193 481.8629763209581 L 446.87500000000006 491.2379763209582 Z" style="stroke:#3E18FF; stroke-opacity: 0.34545454545454546;fill:#C653FF; fill-opacity: 1;"/>
<path d="M 449.38702367904193 481.8629763209581 L 456.2500000000001 474.99999999999966 L 449.3870236790417 468.1370236790415 L 442.5240473580835 474.9999999999999 Z" style="stroke:#3E18FF; stroke-opacity: 0.34545454545454546;fill:#C653FF; fill-opacity: 1;"/>
<path d="M 449.3870236790417 468.1370236790415 L 458.76202367904125 465.6249999999998 L 456.24999999999955 456.2500000000002 L 446.875 458.76202367904193 Z" style="stroke:#3E18FF; stroke-opacity: 0.34545454545454546;fill:#C653FF; fill-opacity: 1;"/>
<path d="M 456.24999999999955 456.2500000000002 L 465.62499999999994 458.7620236790427 L 468.13702367904233 449.38702367904233 L 458.762023679042 446.8749999999999 Z" style="stroke:#3E18FF; stroke-opacity: 0.34545454545454546;fill:#C653FF; fill-opacity: 1;"/>
<path d="M 468.13702367904233 449.38702367904233 L 475.00000000000125 456.2499999999998 L 481.86297632095875 449.3870236790409 L 474.9999999999999 442.5240473580834 Z" style="stroke:#3E18FF; stroke-opacity: 0.34545454545454546;fill:#C653FF; fill-opacity: 1;"/>
<path d="M 481.86297632095875 449.3870236790409 L 484.37499999999966 458.7620236790404 L 493.7499999999992 456.2499999999995 L 491.2379763209583 446.87499999999994 Z" style="stroke:#3E18FF; stroke-opacity: 0.34545454545454546;fill:#C653FF; fill-opacity: 1;"/>
<path d="M 493.7499999999992 456.2499999999995 L 491.2379763209573 465.62500000000006 L 500.61297632095784 468.13702367904204 L 503.1249999999998 458.7620236790414 Z" style="stroke:#3E18FF; stroke-opacity: 0.34545454545454546;fill:#C653FF; fill-opacity: 1;"/>
<path d="M 500.61297632095784 468.13702367904204 L 493.74999999999966 475.0000000000002 L 500.61297632095784 481.8629763209584 L 507.475952641916 475.0000000000002 Z" style="stroke:#3E18FF; stroke-opacity: 0.34545454545454546;fill:#C653FF; fill-opacity: 1;"/>
<path d="M 500.61297632095784 481.8629763209584 L 491.2379763209578 484.3750000000005 L 493.7499999999999 493.75000000000057 L 503.12499999999994 491.23797632095847 Z" style="stroke:#3E18FF; stroke-opacity: 0.34545454545454546;fill:#C653FF; fill-opacity: 1;"/>
<path d="M 493.7499999999999 493.75000000000057 L 484.3750000000003 491.2379763209588 L 481.8629763209585 500.6129763209584 L 491.2379763209581 503.12500000000017 Z" style="stroke:#3E18FF; stroke-opacity: 0.34545454545454546;fill:#C653FF; fill-opacity: 1;"/>
<path d="M 481.8629763209585 500.6129763209584 L 475.00000000000017 493.74999999999994 L 468.13702367904176 500.61297632095824 L 475.00000000000006 507.47595264191665 Z" style="stroke:#3E18FF; stroke-opacity: 0.34545454545454546;fill:#C653FF; fill-opacity: 1;"/>
<path d="M 468.13702367904176 500.61297632095824 L 465.62500000000006 491.2379763209583 L 456.2500000000001 493.75000000000006 L 458.7620236790419 503.125 Z" style="stroke:#3E18FF; stroke-opacity: 0.34545454545454546;fill:#C653FF; fill-opacity: 1;"/>
</g>
</svg>