<?xml version="1.0"?><!DOCTYPE svg PUBLIC "-//W3C//DTD SVG 1.1//EN" "http://www.w3.org/Graphics/SVG/1.1/DTD/svg11.dtd"><svg xmlns="http://www.w3.org/2000/svg" width="950" height="950">
<title>PatternTwenty</title>
<desc>
Generated using the following configuration:

@implementation NewPattern : PatternTwenty
+ (CPDict) defaultConfig
{
 return [CPDictionary dictionaryWithObjectsAndKeys:[[GRColor alloc] initWithGradientColors:[] baseColor:[CPColor colorWith8BitRed:94 green:59 blue:255 alpha:1]], "background_color", 0, "background_color_direction", 40, "number_of_points", 0, "rotation", 0, "recurse_depth", 0.48, "factor_larger", [GRPoint pointWithX:475 Y:475], "center_point", 184, "radius", YES, "show_shapes", [[CPColor colorWith8BitRed:0 green:255 blue:100 alpha:0],[CPColor colorWith8BitRed:0 green:0 blue:0 alpha:0.33636363636363636],[CPColor colorWith8BitRed:0 green:0 blue:0 alpha:0.3],[CPColor colorWith8BitRed:0 green:0 blue:0 alpha:0.3],[CPColor colorWith8BitRed:255 green:2 blue:10 alpha:1],[CPColor colorWith8BitRed:255 green:23 blue:10 alpha:1]], "stroke_colors", [[CPColor colorWith8BitRed:51 green:32 blue:255 alpha:0.5363636363636364],[CPColor colorWith8BitRed:255 green:255 blue:0 alpha:0.1],[CPColor colorWith8BitRed:255 green:255 blue:0 alpha:0],[CPColor colorWith8BitRed:200 green:96 blue:175 alpha:0.6454545454545455],[CPColor colorWith8BitRed:23 green:200 blue:10 alpha:0],[CPColor colorWith8BitRed:200 green:23 blue:10 alpha:0]], "fill_colors"];
}
@end

</desc>
  <defs>
    <linearGradient id="grad1" x1="0%" y1="0%" x2="100%" y2="0%">
<stop offset="100%" style="stop-color:#5E3BFF;stop-opacity:1;" />
    </linearGradient>
  </defs>
<rect id="background" width="100%" height="100%" fill="url(#grad1)"/>
<g id="rotatelayer" transform="rotate(0, 475, 475)">
<path d="M 659 474.99999999999994 Z" style="stroke:#00FF64; stroke-opacity: 0;fill:#3320FF; fill-opacity: 0.5363636363636364;"/>
<circle cx="475" cy="475" r="184" style="stroke:#00FF64; stroke-opacity: 0;fill:#3320FF; fill-opacity: 0.5363636363636364;"/>
<path d="M 747.3199999999999 474.99999999999994 Z" style="stroke:#000000; stroke-opacity: 0.3;fill:#FFFF00; fill-opacity: 0;"/>
<circle cx="563.3199999999999" cy="475" r="184" style="stroke:#000000; stroke-opacity: 0.3;fill:#FFFF00; fill-opacity: 0;"/>
<path d="M 746.2326342413626 461.18370804764675 Z" style="stroke:#000000; stroke-opacity: 0.33636363636363636;fill:#FFFF00; fill-opacity: 0.1;"/>
<circle cx="562.2326342413626" cy="461.1837080476468" r="184" style="stroke:#000000; stroke-opacity: 0.33636363636363636;fill:#FFFF00; fill-opacity: 0.1;"/>
<path d="M 742.997311519188 447.70761905680456 Z" style="stroke:#000000; stroke-opacity: 0.3;fill:#FFFF00; fill-opacity: 0;"/>
<circle cx="558.997311519188" cy="447.7076190568046" r="184" style="stroke:#000000; stroke-opacity: 0.3;fill:#FFFF00; fill-opacity: 0;"/>
<path d="M 737.6936962163167 434.9035590630032 Z" style="stroke:#000000; stroke-opacity: 0.33636363636363636;fill:#FFFF00; fill-opacity: 0.1;"/>
<circle cx="553.6936962163167" cy="434.90355906300323" r="184" style="stroke:#000000; stroke-opacity: 0.33636363636363636;fill:#FFFF00; fill-opacity: 0.1;"/>
<path d="M 730.4523809431953 423.0868065175287 Z" style="stroke:#000000; stroke-opacity: 0.3;fill:#FFFF00; fill-opacity: 0;"/>
<circle cx="546.4523809431953" cy="423.08680651752877" r="184" style="stroke:#000000; stroke-opacity: 0.3;fill:#FFFF00; fill-opacity: 0;"/>
<path d="M 721.4516709143959 412.54832908560405 Z" style="stroke:#000000; stroke-opacity: 0.33636363636363636;fill:#FFFF00; fill-opacity: 0.1;"/>
<circle cx="537.4516709143959" cy="412.5483290856041" r="184" style="stroke:#000000; stroke-opacity: 0.33636363636363636;fill:#FFFF00; fill-opacity: 0.1;"/>
<path d="M 710.9131934824712 403.5476190568046 Z" style="stroke:#000000; stroke-opacity: 0.3;fill:#FFFF00; fill-opacity: 0;"/>
<circle cx="526.9131934824712" cy="403.54761905680465" r="184" style="stroke:#000000; stroke-opacity: 0.3;fill:#FFFF00; fill-opacity: 0;"/>
<path d="M 699.0964409369967 396.3063037836833 Z" style="stroke:#000000; stroke-opacity: 0.33636363636363636;fill:#FFFF00; fill-opacity: 0.1;"/>
<circle cx="515.0964409369967" cy="396.30630378368335" r="184" style="stroke:#000000; stroke-opacity: 0.33636363636363636;fill:#FFFF00; fill-opacity: 0.1;"/>
<path d="M 686.2923809431953 391.00268848081197 Z" style="stroke:#000000; stroke-opacity: 0.3;fill:#FFFF00; fill-opacity: 0;"/>
<circle cx="502.2923809431953" cy="391.002688480812" r="184" style="stroke:#000000; stroke-opacity: 0.3;fill:#FFFF00; fill-opacity: 0;"/>
<path d="M 672.8162919523531 387.76736575863737 Z" style="stroke:#000000; stroke-opacity: 0.33636363636363636;fill:#FFFF00; fill-opacity: 0.1;"/>
<circle cx="488.8162919523532" cy="387.7673657586374" r="184" style="stroke:#000000; stroke-opacity: 0.33636363636363636;fill:#FFFF00; fill-opacity: 0.1;"/>
<path d="M 659 386.67999999999995 Z" style="stroke:#000000; stroke-opacity: 0.3;fill:#FFFF00; fill-opacity: 0;"/>
<circle cx="475" cy="386.68" r="184" style="stroke:#000000; stroke-opacity: 0.3;fill:#FFFF00; fill-opacity: 0;"/>
<path d="M 645.1837080476469 387.7673657586374 Z" style="stroke:#000000; stroke-opacity: 0.33636363636363636;fill:#FFFF00; fill-opacity: 0.1;"/>
<circle cx="461.1837080476468" cy="387.7673657586375" r="184" style="stroke:#000000; stroke-opacity: 0.33636363636363636;fill:#FFFF00; fill-opacity: 0.1;"/>
<path d="M 631.7076190568046 391.00268848081197 Z" style="stroke:#000000; stroke-opacity: 0.3;fill:#FFFF00; fill-opacity: 0;"/>
<circle cx="447.7076190568046" cy="391.002688480812" r="184" style="stroke:#000000; stroke-opacity: 0.3;fill:#FFFF00; fill-opacity: 0;"/>
<path d="M 618.9035590630033 396.3063037836833 Z" style="stroke:#000000; stroke-opacity: 0.33636363636363636;fill:#FFFF00; fill-opacity: 0.1;"/>
<circle cx="434.90355906300323" cy="396.30630378368335" r="184" style="stroke:#000000; stroke-opacity: 0.33636363636363636;fill:#FFFF00; fill-opacity: 0.1;"/>
<path d="M 607.0868065175288 403.5476190568046 Z" style="stroke:#000000; stroke-opacity: 0.3;fill:#FFFF00; fill-opacity: 0;"/>
<circle cx="423.08680651752877" cy="403.54761905680465" r="184" style="stroke:#000000; stroke-opacity: 0.3;fill:#FFFF00; fill-opacity: 0;"/>
<path d="M 596.5483290856041 412.54832908560405 Z" style="stroke:#000000; stroke-opacity: 0.33636363636363636;fill:#FFFF00; fill-opacity: 0.1;"/>
<circle cx="412.5483290856041" cy="412.5483290856041" r="184" style="stroke:#000000; stroke-opacity: 0.33636363636363636;fill:#FFFF00; fill-opacity: 0.1;"/>
<path d="M 587.5476190568047 423.0868065175287 Z" style="stroke:#000000; stroke-opacity: 0.3;fill:#FFFF00; fill-opacity: 0;"/>
<circle cx="403.54761905680465" cy="423.08680651752877" r="184" style="stroke:#000000; stroke-opacity: 0.3;fill:#FFFF00; fill-opacity: 0;"/>
<path d="M 580.3063037836833 434.9035590630032 Z" style="stroke:#000000; stroke-opacity: 0.33636363636363636;fill:#FFFF00; fill-opacity: 0.1;"/>
<circle cx="396.30630378368335" cy="434.90355906300323" r="184" style="stroke:#000000; stroke-opacity: 0.33636363636363636;fill:#FFFF00; fill-opacity: 0.1;"/>
<path d="M 575.002688480812 447.7076190568046 Z" style="stroke:#000000; stroke-opacity: 0.3;fill:#FFFF00; fill-opacity: 0;"/>
<circle cx="391.002688480812" cy="447.7076190568047" r="184" style="stroke:#000000; stroke-opacity: 0.3;fill:#FFFF00; fill-opacity: 0;"/>
<path d="M 571.7673657586374 461.18370804764675 Z" style="stroke:#000000; stroke-opacity: 0.33636363636363636;fill:#FFFF00; fill-opacity: 0.1;"/>
<circle cx="387.7673657586374" cy="461.1837080476468" r="184" style="stroke:#000000; stroke-opacity: 0.33636363636363636;fill:#FFFF00; fill-opacity: 0.1;"/>
<path d="M 570.6800000000001 474.99999999999994 Z" style="stroke:#000000; stroke-opacity: 0.3;fill:#FFFF00; fill-opacity: 0;"/>
<circle cx="386.68" cy="475" r="184" style="stroke:#000000; stroke-opacity: 0.3;fill:#FFFF00; fill-opacity: 0;"/>
<path d="M 571.7673657586374 488.81629195235314 Z" style="stroke:#000000; stroke-opacity: 0.33636363636363636;fill:#FFFF00; fill-opacity: 0.1;"/>
<circle cx="387.7673657586375" cy="488.8162919523532" r="184" style="stroke:#000000; stroke-opacity: 0.33636363636363636;fill:#FFFF00; fill-opacity: 0.1;"/>
<path d="M 575.002688480812 502.29238094319527 Z" style="stroke:#000000; stroke-opacity: 0.3;fill:#FFFF00; fill-opacity: 0;"/>
<circle cx="391.002688480812" cy="502.2923809431953" r="184" style="stroke:#000000; stroke-opacity: 0.3;fill:#FFFF00; fill-opacity: 0;"/>
<path d="M 580.3063037836833 515.0964409369967 Z" style="stroke:#000000; stroke-opacity: 0.33636363636363636;fill:#FFFF00; fill-opacity: 0.1;"/>
<circle cx="396.30630378368335" cy="515.0964409369967" r="184" style="stroke:#000000; stroke-opacity: 0.33636363636363636;fill:#FFFF00; fill-opacity: 0.1;"/>
<path d="M 587.5476190568047 526.9131934824712 Z" style="stroke:#000000; stroke-opacity: 0.3;fill:#FFFF00; fill-opacity: 0;"/>
<circle cx="403.54761905680465" cy="526.9131934824712" r="184" style="stroke:#000000; stroke-opacity: 0.3;fill:#FFFF00; fill-opacity: 0;"/>
<path d="M 596.5483290856041 537.4516709143959 Z" style="stroke:#000000; stroke-opacity: 0.33636363636363636;fill:#FFFF00; fill-opacity: 0.1;"/>
<circle cx="412.5483290856041" cy="537.4516709143959" r="184" style="stroke:#000000; stroke-opacity: 0.33636363636363636;fill:#FFFF00; fill-opacity: 0.1;"/>
<path d="M 607.0868065175288 546.4523809431953 Z" style="stroke:#000000; stroke-opacity: 0.3;fill:#FFFF00; fill-opacity: 0;"/>
<circle cx="423.08680651752877" cy="546.4523809431953" r="184" style="stroke:#000000; stroke-opacity: 0.3;fill:#FFFF00; fill-opacity: 0;"/>
<path d="M 618.9035590630033 553.6936962163167 Z" style="stroke:#000000; stroke-opacity: 0.33636363636363636;fill:#FFFF00; fill-opacity: 0.1;"/>
<circle cx="434.90355906300323" cy="553.6936962163167" r="184" style="stroke:#000000; stroke-opacity: 0.33636363636363636;fill:#FFFF00; fill-opacity: 0.1;"/>
<path d="M 631.7076190568047 558.997311519188 Z" style="stroke:#000000; stroke-opacity: 0.3;fill:#FFFF00; fill-opacity: 0;"/>
<circle cx="447.7076190568047" cy="558.997311519188" r="184" style="stroke:#000000; stroke-opacity: 0.3;fill:#FFFF00; fill-opacity: 0;"/>
<path d="M 645.1837080476469 562.2326342413626 Z" style="stroke:#000000; stroke-opacity: 0.33636363636363636;fill:#FFFF00; fill-opacity: 0.1;"/>
<circle cx="461.1837080476468" cy="562.2326342413626" r="184" style="stroke:#000000; stroke-opacity: 0.33636363636363636;fill:#FFFF00; fill-opacity: 0.1;"/>
<path d="M 659 563.3199999999999 Z" style="stroke:#000000; stroke-opacity: 0.3;fill:#FFFF00; fill-opacity: 0;"/>
<circle cx="475" cy="563.3199999999999" r="184" style="stroke:#000000; stroke-opacity: 0.3;fill:#FFFF00; fill-opacity: 0;"/>
<path d="M 672.8162919523531 562.2326342413626 Z" style="stroke:#000000; stroke-opacity: 0.33636363636363636;fill:#FFFF00; fill-opacity: 0.1;"/>
<circle cx="488.8162919523532" cy="562.2326342413626" r="184" style="stroke:#000000; stroke-opacity: 0.33636363636363636;fill:#FFFF00; fill-opacity: 0.1;"/>
<path d="M 686.2923809431953 558.997311519188 Z" style="stroke:#000000; stroke-opacity: 0.3;fill:#FFFF00; fill-opacity: 0;"/>
<circle cx="502.2923809431953" cy="558.997311519188" r="184" style="stroke:#000000; stroke-opacity: 0.3;fill:#FFFF00; fill-opacity: 0;"/>
<path d="M 699.0964409369967 553.6936962163167 Z" style="stroke:#000000; stroke-opacity: 0.33636363636363636;fill:#FFFF00; fill-opacity: 0.1;"/>
<circle cx="515.0964409369967" cy="553.6936962163167" r="184" style="stroke:#000000; stroke-opacity: 0.33636363636363636;fill:#FFFF00; fill-opacity: 0.1;"/>
<path d="M 710.9131934824712 546.4523809431953 Z" style="stroke:#000000; stroke-opacity: 0.3;fill:#FFFF00; fill-opacity: 0;"/>
<circle cx="526.9131934824712" cy="546.4523809431953" r="184" style="stroke:#000000; stroke-opacity: 0.3;fill:#FFFF00; fill-opacity: 0;"/>
<path d="M 721.4516709143959 537.4516709143959 Z" style="stroke:#000000; stroke-opacity: 0.33636363636363636;fill:#FFFF00; fill-opacity: 0.1;"/>
<circle cx="537.4516709143959" cy="537.4516709143959" r="184" style="stroke:#000000; stroke-opacity: 0.33636363636363636;fill:#FFFF00; fill-opacity: 0.1;"/>
<path d="M 730.4523809431953 526.9131934824712 Z" style="stroke:#000000; stroke-opacity: 0.3;fill:#FFFF00; fill-opacity: 0;"/>
<circle cx="546.4523809431953" cy="526.9131934824712" r="184" style="stroke:#000000; stroke-opacity: 0.3;fill:#FFFF00; fill-opacity: 0;"/>
<path d="M 737.6936962163167 515.0964409369967 Z" style="stroke:#000000; stroke-opacity: 0.33636363636363636;fill:#FFFF00; fill-opacity: 0.1;"/>
<circle cx="553.6936962163167" cy="515.0964409369967" r="184" style="stroke:#000000; stroke-opacity: 0.33636363636363636;fill:#FFFF00; fill-opacity: 0.1;"/>
<path d="M 742.997311519188 502.29238094319527 Z" style="stroke:#000000; stroke-opacity: 0.3;fill:#FFFF00; fill-opacity: 0;"/>
<circle cx="558.997311519188" cy="502.2923809431953" r="184" style="stroke:#000000; stroke-opacity: 0.3;fill:#FFFF00; fill-opacity: 0;"/>
<path d="M 746.2326342413626 488.81629195235314 Z" style="stroke:#000000; stroke-opacity: 0.33636363636363636;fill:#FFFF00; fill-opacity: 0.1;"/>
<circle cx="562.2326342413626" cy="488.8162919523532" r="184" style="stroke:#000000; stroke-opacity: 0.33636363636363636;fill:#FFFF00; fill-opacity: 0.1;"/>
<path d="M 562.2326342413626 488.8162919523532 L 553.8769283848542 493.936675086687 L 558.997311519188 502.2923809431953 L 567.3530173756963 497.1719978088616 Z" style="stroke:#000000; stroke-opacity: 0.3;fill:#C860AF; fill-opacity: 0.6454545454545455;"/>
<path d="M 558.997311519188 502.2923809431953 L 549.9434738708517 506.04260328866036 L 553.6936962163167 515.0964409369967 L 562.747533864653 511.3462185915317 Z" style="stroke:#000000; stroke-opacity: 0.3;fill:#C860AF; fill-opacity: 0.6454545454545455;"/>
<path d="M 553.6936962163167 515.0964409369967 L 544.1646623070188 517.3841595731734 L 546.4523809431953 526.9131934824712 L 555.9814148524932 524.6254748462947 Z" style="stroke:#000000; stroke-opacity: 0.3;fill:#C860AF; fill-opacity: 0.6454545454545455;"/>
<path d="M 546.4523809431953 526.9131934824712 L 536.6827872128332 527.6820771840339 L 537.4516709143959 537.4516709143959 L 547.221264644758 536.6827872128333 Z" style="stroke:#000000; stroke-opacity: 0.3;fill:#C860AF; fill-opacity: 0.6454545454545455;"/>
<path d="M 537.4516709143959 537.4516709143959 L 527.6820771840339 536.6827872128332 L 526.9131934824712 546.4523809431953 L 536.6827872128333 547.221264644758 Z" style="stroke:#000000; stroke-opacity: 0.3;fill:#C860AF; fill-opacity: 0.6454545454545455;"/>
<path d="M 526.9131934824712 546.4523809431953 L 517.3841595731734 544.1646623070188 L 515.0964409369967 553.6936962163167 L 524.6254748462947 555.9814148524932 Z" style="stroke:#000000; stroke-opacity: 0.3;fill:#C860AF; fill-opacity: 0.6454545454545455;"/>
<path d="M 515.0964409369967 553.6936962163167 L 506.04260328866036 549.9434738708517 L 502.2923809431953 558.997311519188 L 511.3462185915317 562.747533864653 Z" style="stroke:#000000; stroke-opacity: 0.3;fill:#C860AF; fill-opacity: 0.6454545454545455;"/>
<path d="M 502.2923809431953 558.997311519188 L 493.936675086687 553.8769283848542 L 488.8162919523532 562.2326342413626 L 497.1719978088616 567.3530173756963 Z" style="stroke:#000000; stroke-opacity: 0.3;fill:#C860AF; fill-opacity: 0.6454545454545455;"/>
<path d="M 488.8162919523532 562.2326342413626 L 481.3644630968579 555.8681711445047 L 475 563.3199999999999 L 482.45182885549525 569.6844630968578 Z" style="stroke:#000000; stroke-opacity: 0.3;fill:#C860AF; fill-opacity: 0.6454545454545455;"/>
<path d="M 475 563.3199999999999 L 468.6355369031421 555.8681711445047 L 461.1837080476468 562.2326342413626 L 467.54817114450475 569.6844630968578 Z" style="stroke:#000000; stroke-opacity: 0.3;fill:#C860AF; fill-opacity: 0.6454545454545455;"/>
<path d="M 461.1837080476468 562.2326342413626 L 456.063324913313 553.8769283848542 L 447.7076190568047 558.997311519188 L 452.8280021911384 567.3530173756963 Z" style="stroke:#000000; stroke-opacity: 0.3;fill:#C860AF; fill-opacity: 0.6454545454545455;"/>
<path d="M 447.7076190568047 558.997311519188 L 443.9573967113396 549.9434738708516 L 434.90355906300323 553.6936962163167 L 438.65378140846826 562.7475338646531 Z" style="stroke:#000000; stroke-opacity: 0.3;fill:#C860AF; fill-opacity: 0.6454545454545455;"/>
<path d="M 434.90355906300323 553.6936962163167 L 432.61584042682665 544.1646623070187 L 423.08680651752877 546.4523809431953 L 425.3745251537053 555.9814148524931 Z" style="stroke:#000000; stroke-opacity: 0.3;fill:#C860AF; fill-opacity: 0.6454545454545455;"/>
<path d="M 423.08680651752877 546.4523809431953 L 422.31792281596614 536.6827872128332 L 412.5483290856041 537.4516709143959 L 413.31721278716674 547.221264644758 Z" style="stroke:#000000; stroke-opacity: 0.3;fill:#C860AF; fill-opacity: 0.6454545454545455;"/>
<path d="M 412.5483290856041 537.4516709143959 L 413.31721278716674 527.6820771840339 L 403.54761905680465 526.9131934824712 L 402.7787353552421 536.6827872128333 Z" style="stroke:#000000; stroke-opacity: 0.3;fill:#C860AF; fill-opacity: 0.6454545454545455;"/>
<path d="M 403.54761905680465 526.9131934824712 L 405.8353376929812 517.3841595731734 L 396.30630378368335 515.0964409369967 L 394.0185851475067 524.6254748462947 Z" style="stroke:#000000; stroke-opacity: 0.3;fill:#C860AF; fill-opacity: 0.6454545454545455;"/>
<path d="M 396.30630378368335 515.0964409369967 L 400.0565261291484 506.04260328866036 L 391.002688480812 502.2923809431953 L 387.252466135347 511.3462185915317 Z" style="stroke:#000000; stroke-opacity: 0.3;fill:#C860AF; fill-opacity: 0.6454545454545455;"/>
<path d="M 391.002688480812 502.2923809431953 L 396.1230716151458 493.93667508668705 L 387.7673657586375 488.8162919523532 L 382.64698262430375 497.17199780886153 Z" style="stroke:#000000; stroke-opacity: 0.3;fill:#C860AF; fill-opacity: 0.6454545454545455;"/>
<path d="M 387.7673657586375 488.8162919523532 L 394.13182885549537 481.36446309685783 L 386.68 475 L 380.3155369031421 482.4518288554953 Z" style="stroke:#000000; stroke-opacity: 0.3;fill:#C860AF; fill-opacity: 0.6454545454545455;"/>
<path d="M 386.68 475 L 394.13182885549537 468.63553690314217 L 387.7673657586374 461.1837080476468 L 380.3155369031421 467.5481711445047 Z" style="stroke:#000000; stroke-opacity: 0.3;fill:#C860AF; fill-opacity: 0.6454545454545455;"/>
<path d="M 387.7673657586374 461.1837080476468 L 396.12307161514576 456.063324913313 L 391.002688480812 447.7076190568047 L 382.6469826243037 452.8280021911384 Z" style="stroke:#000000; stroke-opacity: 0.3;fill:#C860AF; fill-opacity: 0.6454545454545455;"/>
<path d="M 391.002688480812 447.7076190568047 L 400.0565261291484 443.9573967113396 L 396.30630378368335 434.90355906300323 L 387.252466135347 438.65378140846826 Z" style="stroke:#000000; stroke-opacity: 0.3;fill:#C860AF; fill-opacity: 0.6454545454545455;"/>
<path d="M 396.30630378368335 434.90355906300323 L 405.83533769298117 432.6158404268266 L 403.54761905680465 423.08680651752877 L 394.01858514750677 425.37452515370535 Z" style="stroke:#000000; stroke-opacity: 0.3;fill:#C860AF; fill-opacity: 0.6454545454545455;"/>
<path d="M 403.54761905680465 423.08680651752877 L 413.31721278716674 422.3179228159662 L 412.5483290856041 412.5483290856041 L 402.7787353552421 413.3172127871667 Z" style="stroke:#000000; stroke-opacity: 0.3;fill:#C860AF; fill-opacity: 0.6454545454545455;"/>
<path d="M 412.5483290856041 412.5483290856041 L 422.3179228159662 413.31721278716674 L 423.08680651752877 403.54761905680465 L 413.3172127871667 402.7787353552421 Z" style="stroke:#000000; stroke-opacity: 0.3;fill:#C860AF; fill-opacity: 0.6454545454545455;"/>
<path d="M 423.08680651752877 403.54761905680465 L 432.6158404268266 405.83533769298117 L 434.90355906300323 396.30630378368335 L 425.37452515370535 394.01858514750677 Z" style="stroke:#000000; stroke-opacity: 0.3;fill:#C860AF; fill-opacity: 0.6454545454545455;"/>
<path d="M 434.90355906300323 396.30630378368335 L 443.9573967113396 400.0565261291484 L 447.7076190568046 391.002688480812 L 438.65378140846826 387.252466135347 Z" style="stroke:#000000; stroke-opacity: 0.3;fill:#C860AF; fill-opacity: 0.6454545454545455;"/>
<path d="M 447.7076190568046 391.002688480812 L 456.06332491331295 396.1230716151458 L 461.1837080476468 387.7673657586375 L 452.82800219113847 382.64698262430363 Z" style="stroke:#000000; stroke-opacity: 0.3;fill:#C860AF; fill-opacity: 0.6454545454545455;"/>
<path d="M 461.1837080476468 387.7673657586375 L 468.63553690314217 394.13182885549537 L 475 386.68 L 467.5481711445047 380.3155369031421 Z" style="stroke:#000000; stroke-opacity: 0.3;fill:#C860AF; fill-opacity: 0.6454545454545455;"/>
<path d="M 475 386.68 L 481.36446309685783 394.13182885549537 L 488.8162919523532 387.7673657586374 L 482.4518288554953 380.3155369031421 Z" style="stroke:#000000; stroke-opacity: 0.3;fill:#C860AF; fill-opacity: 0.6454545454545455;"/>
<path d="M 488.8162919523532 387.7673657586374 L 493.936675086687 396.12307161514576 L 502.2923809431953 391.002688480812 L 497.1719978088616 382.6469826243037 Z" style="stroke:#000000; stroke-opacity: 0.3;fill:#C860AF; fill-opacity: 0.6454545454545455;"/>
<path d="M 502.2923809431953 391.002688480812 L 506.04260328866036 400.0565261291484 L 515.0964409369967 396.30630378368335 L 511.3462185915317 387.252466135347 Z" style="stroke:#000000; stroke-opacity: 0.3;fill:#C860AF; fill-opacity: 0.6454545454545455;"/>
<path d="M 515.0964409369967 396.30630378368335 L 517.3841595731734 405.8353376929812 L 526.9131934824712 403.54761905680465 L 524.6254748462947 394.0185851475067 Z" style="stroke:#000000; stroke-opacity: 0.3;fill:#C860AF; fill-opacity: 0.6454545454545455;"/>
<path d="M 526.9131934824712 403.54761905680465 L 527.6820771840339 413.31721278716674 L 537.4516709143959 412.5483290856041 L 536.6827872128333 402.7787353552421 Z" style="stroke:#000000; stroke-opacity: 0.3;fill:#C860AF; fill-opacity: 0.6454545454545455;"/>
<path d="M 537.4516709143959 412.5483290856041 L 536.6827872128332 422.31792281596614 L 546.4523809431953 423.08680651752877 L 547.221264644758 413.31721278716674 Z" style="stroke:#000000; stroke-opacity: 0.3;fill:#C860AF; fill-opacity: 0.6454545454545455;"/>
<path d="M 546.4523809431953 423.08680651752877 L 544.1646623070188 432.6158404268267 L 553.6936962163167 434.90355906300323 L 555.9814148524932 425.37452515370535 Z" style="stroke:#000000; stroke-opacity: 0.3;fill:#C860AF; fill-opacity: 0.6454545454545455;"/>
<path d="M 553.6936962163167 434.90355906300323 L 549.9434738708517 443.9573967113396 L 558.997311519188 447.7076190568046 L 562.747533864653 438.65378140846826 Z" style="stroke:#000000; stroke-opacity: 0.3;fill:#C860AF; fill-opacity: 0.6454545454545455;"/>
<path d="M 558.997311519188 447.7076190568046 L 553.8769283848542 456.063324913313 L 562.2326342413626 461.1837080476468 L 567.3530173756963 452.8280021911384 Z" style="stroke:#000000; stroke-opacity: 0.3;fill:#C860AF; fill-opacity: 0.6454545454545455;"/>
<path d="M 562.2326342413626 461.1837080476468 L 555.8681711445047 468.6355369031421 L 563.3199999999999 475 L 569.6844630968578 467.54817114450475 Z" style="stroke:#000000; stroke-opacity: 0.3;fill:#C860AF; fill-opacity: 0.6454545454545455;"/>
<path d="M 563.3199999999999 475 L 555.8681711445047 481.3644630968579 L 562.2326342413626 488.8162919523532 L 569.6844630968578 482.45182885549525 Z" style="stroke:#000000; stroke-opacity: 0.3;fill:#C860AF; fill-opacity: 0.6454545454545455;"/>
<path d="M 553.8769283848542 493.936675086687 L 545.8572370268662 498.0229119306724 L 549.9434738708517 506.04260328866036 L 557.9631652288397 501.9563664446749 Z" style="stroke:#000014; stroke-opacity: 0.3;fill:#C860C3; fill-opacity: 0.6454545454545455;"/>
<path d="M 549.9434738708517 506.04260328866036 L 541.3832899466788 508.8239756490005 L 544.1646623070188 517.3841595731734 L 552.7248462311918 514.6027872128334 Z" style="stroke:#000014; stroke-opacity: 0.3;fill:#C860C3; fill-opacity: 0.6454545454545455;"/>
<path d="M 544.1646623070188 517.3841595731734 L 535.2747659544957 518.7921808315108 L 536.6827872128332 527.6820771840339 L 545.5726835653563 526.2740559256964 Z" style="stroke:#000014; stroke-opacity: 0.3;fill:#C860C3; fill-opacity: 0.6454545454545455;"/>
<path d="M 536.6827872128332 527.6820771840339 L 527.6820771840339 527.6820771840339 L 527.6820771840339 536.6827872128332 L 536.6827872128333 536.6827872128333 Z" style="stroke:#000014; stroke-opacity: 0.3;fill:#C860C3; fill-opacity: 0.6454545454545455;"/>
<path d="M 527.6820771840339 536.6827872128332 L 518.7921808315109 535.2747659544957 L 517.3841595731734 544.1646623070188 L 526.2740559256965 545.5726835653563 Z" style="stroke:#000014; stroke-opacity: 0.3;fill:#C860C3; fill-opacity: 0.6454545454545455;"/>
<path d="M 517.3841595731734 544.1646623070188 L 508.8239756490005 541.3832899466788 L 506.04260328866036 549.9434738708517 L 514.6027872128334 552.7248462311918 Z" style="stroke:#000014; stroke-opacity: 0.3;fill:#C860C3; fill-opacity: 0.6454545454545455;"/>
<path d="M 506.04260328866036 549.9434738708517 L 498.0229119306724 545.8572370268662 L 493.936675086687 553.8769283848542 L 501.9563664446749 557.9631652288397 Z" style="stroke:#000014; stroke-opacity: 0.3;fill:#C860C3; fill-opacity: 0.6454545454545455;"/>
<path d="M 493.936675086687 553.8769283848542 L 486.6549477119472 548.5864437697649 L 481.3644630968579 555.8681711445047 L 488.6461904715977 561.158655759594 Z" style="stroke:#000014; stroke-opacity: 0.3;fill:#C860C3; fill-opacity: 0.6454545454545455;"/>
<path d="M 481.3644630968579 555.8681711445047 L 475 549.5037080476468 L 468.6355369031421 555.8681711445047 L 475 562.2326342413626 Z" style="stroke:#000014; stroke-opacity: 0.3;fill:#C860C3; fill-opacity: 0.6454545454545455;"/>
<path d="M 468.6355369031421 555.8681711445047 L 463.34505228805284 548.5864437697649 L 456.063324913313 553.8769283848542 L 461.35380952840234 561.158655759594 Z" style="stroke:#000014; stroke-opacity: 0.3;fill:#C860C3; fill-opacity: 0.6454545454545455;"/>
<path d="M 456.063324913313 553.8769283848542 L 451.97708806932764 545.8572370268661 L 443.9573967113396 549.9434738708516 L 448.043633555325 557.9631652288396 Z" style="stroke:#000014; stroke-opacity: 0.3;fill:#C860C3; fill-opacity: 0.6454545454545455;"/>
<path d="M 443.9573967113396 549.9434738708516 L 441.1760243509995 541.3832899466786 L 432.61584042682665 544.1646623070187 L 435.39721278716667 552.7248462311916 Z" style="stroke:#000014; stroke-opacity: 0.3;fill:#C860C3; fill-opacity: 0.6454545454545455;"/>
<path d="M 432.61584042682665 544.1646623070187 L 431.20781916848915 535.2747659544957 L 422.31792281596614 536.6827872128332 L 423.72594407430364 545.5726835653563 Z" style="stroke:#000014; stroke-opacity: 0.3;fill:#C860C3; fill-opacity: 0.6454545454545455;"/>
<path d="M 422.31792281596614 536.6827872128332 L 422.3179228159661 527.6820771840339 L 413.31721278716674 527.6820771840339 L 413.3172127871668 536.6827872128333 Z" style="stroke:#000014; stroke-opacity: 0.3;fill:#C860C3; fill-opacity: 0.6454545454545455;"/>
<path d="M 413.31721278716674 527.6820771840339 L 414.72523404550424 518.7921808315109 L 405.8353376929812 517.3841595731734 L 404.4273164346437 526.2740559256963 Z" style="stroke:#000014; stroke-opacity: 0.3;fill:#C860C3; fill-opacity: 0.6454545454545455;"/>
<path d="M 405.8353376929812 517.3841595731734 L 408.61671005332136 508.8239756490005 L 400.0565261291484 506.04260328866036 L 397.27515376880825 514.6027872128334 Z" style="stroke:#000014; stroke-opacity: 0.3;fill:#C860C3; fill-opacity: 0.6454545454545455;"/>
<path d="M 400.0565261291484 506.04260328866036 L 404.14276297313376 498.0229119306724 L 396.1230716151458 493.93667508668705 L 392.0368347711605 501.9563664446749 Z" style="stroke:#000014; stroke-opacity: 0.3;fill:#C860C3; fill-opacity: 0.6454545454545455;"/>
<path d="M 396.1230716151458 493.93667508668705 L 401.41355623023514 486.6549477119473 L 394.13182885549537 481.36446309685783 L 388.841344240406 488.64619047159766 Z" style="stroke:#000014; stroke-opacity: 0.3;fill:#C860C3; fill-opacity: 0.6454545454545455;"/>
<path d="M 394.13182885549537 481.36446309685783 L 400.4962919523532 475 L 394.13182885549537 468.63553690314217 L 387.76736575863754 475 Z" style="stroke:#000014; stroke-opacity: 0.3;fill:#C860C3; fill-opacity: 0.6454545454545455;"/>
<path d="M 394.13182885549537 468.63553690314217 L 401.41355623023514 463.3450522880528 L 396.12307161514576 456.063324913313 L 388.841344240406 461.3538095284024 Z" style="stroke:#000014; stroke-opacity: 0.3;fill:#C860C3; fill-opacity: 0.6454545454545455;"/>
<path d="M 396.12307161514576 456.063324913313 L 404.1427629731338 451.97708806932764 L 400.0565261291484 443.9573967113396 L 392.03683477116033 448.043633555325 Z" style="stroke:#000014; stroke-opacity: 0.3;fill:#C860C3; fill-opacity: 0.6454545454545455;"/>
<path d="M 400.0565261291484 443.9573967113396 L 408.6167100533213 441.1760243509995 L 405.83533769298117 432.6158404268266 L 397.2751537688083 435.39721278716667 Z" style="stroke:#000014; stroke-opacity: 0.3;fill:#C860C3; fill-opacity: 0.6454545454545455;"/>
<path d="M 405.83533769298117 432.6158404268266 L 414.7252340455042 431.2078191684892 L 413.31721278716674 422.3179228159662 L 404.4273164346438 423.7259440743036 Z" style="stroke:#000014; stroke-opacity: 0.3;fill:#C860C3; fill-opacity: 0.6454545454545455;"/>
<path d="M 413.31721278716674 422.3179228159662 L 422.3179228159662 422.31792281596626 L 422.3179228159662 413.31721278716674 L 413.3172127871667 413.31721278716674 Z" style="stroke:#000014; stroke-opacity: 0.3;fill:#C860C3; fill-opacity: 0.6454545454545455;"/>
<path d="M 422.3179228159662 413.31721278716674 L 431.2078191684892 414.7252340455042 L 432.6158404268266 405.83533769298117 L 423.7259440743036 404.4273164346438 Z" style="stroke:#000014; stroke-opacity: 0.3;fill:#C860C3; fill-opacity: 0.6454545454545455;"/>
<path d="M 432.6158404268266 405.83533769298117 L 441.1760243509995 408.61671005332124 L 443.9573967113396 400.0565261291484 L 435.39721278716667 397.27515376880825 Z" style="stroke:#000014; stroke-opacity: 0.3;fill:#C860C3; fill-opacity: 0.6454545454545455;"/>
<path d="M 443.9573967113396 400.0565261291484 L 451.9770880693276 404.14276297313376 L 456.06332491331295 396.1230716151458 L 448.04363355532496 392.0368347711604 Z" style="stroke:#000014; stroke-opacity: 0.3;fill:#C860C3; fill-opacity: 0.6454545454545455;"/>
<path d="M 456.06332491331295 396.1230716151458 L 463.3450522880527 401.41355623023514 L 468.63553690314217 394.13182885549537 L 461.35380952840234 388.841344240406 Z" style="stroke:#000014; stroke-opacity: 0.3;fill:#C860C3; fill-opacity: 0.6454545454545455;"/>
<path d="M 468.63553690314217 394.13182885549537 L 475 400.4962919523532 L 481.36446309685783 394.13182885549537 L 475 387.76736575863754 Z" style="stroke:#000014; stroke-opacity: 0.3;fill:#C860C3; fill-opacity: 0.6454545454545455;"/>
<path d="M 481.36446309685783 394.13182885549537 L 486.6549477119472 401.41355623023514 L 493.936675086687 396.12307161514576 L 488.6461904715976 388.841344240406 Z" style="stroke:#000014; stroke-opacity: 0.3;fill:#C860C3; fill-opacity: 0.6454545454545455;"/>
<path d="M 493.936675086687 396.12307161514576 L 498.02291193067236 404.14276297313376 L 506.04260328866036 400.0565261291484 L 501.956366444675 392.0368347711604 Z" style="stroke:#000014; stroke-opacity: 0.3;fill:#C860C3; fill-opacity: 0.6454545454545455;"/>
<path d="M 506.04260328866036 400.0565261291484 L 508.8239756490005 408.61671005332136 L 517.3841595731734 405.8353376929812 L 514.6027872128334 397.27515376880825 Z" style="stroke:#000014; stroke-opacity: 0.3;fill:#C860C3; fill-opacity: 0.6454545454545455;"/>
<path d="M 517.3841595731734 405.8353376929812 L 518.7921808315109 414.72523404550424 L 527.6820771840339 413.31721278716674 L 526.2740559256965 404.4273164346437 Z" style="stroke:#000014; stroke-opacity: 0.3;fill:#C860C3; fill-opacity: 0.6454545454545455;"/>
<path d="M 527.6820771840339 413.31721278716674 L 527.6820771840339 422.3179228159661 L 536.6827872128332 422.31792281596614 L 536.6827872128333 413.3172127871668 Z" style="stroke:#000014; stroke-opacity: 0.3;fill:#C860C3; fill-opacity: 0.6454545454545455;"/>
<path d="M 536.6827872128332 422.31792281596614 L 535.2747659544957 431.2078191684892 L 544.1646623070188 432.6158404268267 L 545.5726835653563 423.7259440743036 Z" style="stroke:#000014; stroke-opacity: 0.3;fill:#C860C3; fill-opacity: 0.6454545454545455;"/>
<path d="M 544.1646623070188 432.6158404268267 L 541.3832899466788 441.17602435099957 L 549.9434738708517 443.9573967113396 L 552.7248462311918 435.3972127871667 Z" style="stroke:#000014; stroke-opacity: 0.3;fill:#C860C3; fill-opacity: 0.6454545454545455;"/>
<path d="M 549.9434738708517 443.9573967113396 L 545.8572370268662 451.9770880693276 L 553.8769283848542 456.063324913313 L 557.9631652288397 448.0436335553251 Z" style="stroke:#000014; stroke-opacity: 0.3;fill:#C860C3; fill-opacity: 0.6454545454545455;"/>
<path d="M 553.8769283848542 456.063324913313 L 548.5864437697649 463.3450522880528 L 555.8681711445047 468.6355369031421 L 561.158655759594 461.3538095284023 Z" style="stroke:#000014; stroke-opacity: 0.3;fill:#C860C3; fill-opacity: 0.6454545454545455;"/>
<path d="M 555.8681711445047 468.6355369031421 L 549.5037080476468 475 L 555.8681711445047 481.3644630968579 L 562.2326342413626 475 Z" style="stroke:#000014; stroke-opacity: 0.3;fill:#C860C3; fill-opacity: 0.6454545454545455;"/>
<path d="M 555.8681711445047 481.3644630968579 L 548.5864437697649 486.65494771194716 L 553.8769283848542 493.936675086687 L 561.158655759594 488.64619047159766 Z" style="stroke:#000014; stroke-opacity: 0.3;fill:#C860C3; fill-opacity: 0.6454545454545455;"/>
<path d="M 545.8572370268662 498.0229119306724 L 538.2197316276084 501.1864702497428 L 541.3832899466788 508.8239756490005 L 549.0207953459366 505.66041732993017 Z" style="stroke:#000028; stroke-opacity: 0.3;fill:#C860D7; fill-opacity: 0.6454545454545455;"/>
<path d="M 541.3832899466788 508.8239756490005 L 533.3449253593321 510.7538162441641 L 535.2747659544957 518.7921808315108 L 543.3131305418424 516.8623402363472 Z" style="stroke:#000028; stroke-opacity: 0.3;fill:#C860D7; fill-opacity: 0.6454545454545455;"/>
<path d="M 535.2747659544957 518.7921808315108 L 527.0334733930033 519.4407846225414 L 527.6820771840339 527.6820771840339 L 535.9233697455263 527.0334733930032 Z" style="stroke:#000028; stroke-opacity: 0.3;fill:#C860D7; fill-opacity: 0.6454545454545455;"/>
<path d="M 527.6820771840339 527.6820771840339 L 519.4407846225415 527.0334733930033 L 518.7921808315109 535.2747659544957 L 527.0334733930033 535.9233697455263 Z" style="stroke:#000028; stroke-opacity: 0.3;fill:#C860D7; fill-opacity: 0.6454545454545455;"/>
<path d="M 518.7921808315109 535.2747659544957 L 510.7538162441641 533.344925359332 L 508.8239756490005 541.3832899466788 L 516.8623402363472 543.3131305418425 Z" style="stroke:#000028; stroke-opacity: 0.3;fill:#C860D7; fill-opacity: 0.6454545454545455;"/>
<path d="M 508.8239756490005 541.3832899466788 L 501.1864702497428 538.2197316276084 L 498.0229119306724 545.8572370268662 L 505.66041732993017 549.0207953459366 Z" style="stroke:#000028; stroke-opacity: 0.3;fill:#C860D7; fill-opacity: 0.6454545454545455;"/>
<path d="M 498.0229119306724 545.8572370268662 L 490.9743264498605 541.537858288953 L 486.6549477119472 548.5864437697649 L 493.70353319275915 552.9058225076781 Z" style="stroke:#000028; stroke-opacity: 0.3;fill:#C860D7; fill-opacity: 0.6454545454545455;"/>
<path d="M 486.6549477119472 548.5864437697649 L 480.36884171703264 543.2176020527322 L 475 549.5037080476468 L 481.2861059949146 554.8725497646794 Z" style="stroke:#000028; stroke-opacity: 0.3;fill:#C860D7; fill-opacity: 0.6454545454545455;"/>
<path d="M 475 549.5037080476468 L 469.63115828296736 543.2176020527322 L 463.34505228805284 548.5864437697649 L 468.7138940050854 554.8725497646794 Z" style="stroke:#000028; stroke-opacity: 0.3;fill:#C860D7; fill-opacity: 0.6454545454545455;"/>
<path d="M 463.34505228805284 548.5864437697649 L 459.02567355013963 541.5378582889529 L 451.97708806932764 545.8572370268661 L 456.29646680724085 552.905822507678 Z" style="stroke:#000028; stroke-opacity: 0.3;fill:#C860D7; fill-opacity: 0.6454545454545455;"/>
<path d="M 451.97708806932764 545.8572370268661 L 448.8135297502573 538.2197316276082 L 441.1760243509995 541.3832899466786 L 444.33958267006983 549.0207953459363 Z" style="stroke:#000028; stroke-opacity: 0.3;fill:#C860D7; fill-opacity: 0.6454545454545455;"/>
<path d="M 441.1760243509995 541.3832899466786 L 439.2461837558358 533.3449253593319 L 431.20781916848915 535.2747659544957 L 433.1376597636529 543.3131305418424 Z" style="stroke:#000028; stroke-opacity: 0.3;fill:#C860D7; fill-opacity: 0.6454545454545455;"/>
<path d="M 431.20781916848915 535.2747659544957 L 430.5592153774585 527.0334733930033 L 422.3179228159661 527.6820771840339 L 422.9665266069967 535.9233697455263 Z" style="stroke:#000028; stroke-opacity: 0.3;fill:#C860D7; fill-opacity: 0.6454545454545455;"/>
<path d="M 422.3179228159661 527.6820771840339 L 422.9665266069967 519.4407846225415 L 414.72523404550424 518.7921808315109 L 414.0766302544737 527.0334733930033 Z" style="stroke:#000028; stroke-opacity: 0.3;fill:#C860D7; fill-opacity: 0.6454545454545455;"/>
<path d="M 414.72523404550424 518.7921808315109 L 416.655074640668 510.7538162441642 L 408.61671005332136 508.8239756490005 L 406.6868694581576 516.8623402363471 Z" style="stroke:#000028; stroke-opacity: 0.3;fill:#C860D7; fill-opacity: 0.6454545454545455;"/>
<path d="M 408.61671005332136 508.8239756490005 L 411.7802683723916 501.1864702497427 L 404.14276297313376 498.0229119306724 L 400.9792046540635 505.6604173299303 Z" style="stroke:#000028; stroke-opacity: 0.3;fill:#C860D7; fill-opacity: 0.6454545454545455;"/>
<path d="M 404.14276297313376 498.0229119306724 L 408.4621417110471 490.97432644986054 L 401.41355623023514 486.6549477119473 L 397.0941774923219 493.7035331927592 Z" style="stroke:#000028; stroke-opacity: 0.3;fill:#C860D7; fill-opacity: 0.6454545454545455;"/>
<path d="M 401.41355623023514 486.6549477119473 L 406.7823979472678 480.3688417170327 L 400.4962919523532 475 L 395.12745023532057 481.28610599491464 Z" style="stroke:#000028; stroke-opacity: 0.3;fill:#C860D7; fill-opacity: 0.6454545454545455;"/>
<path d="M 400.4962919523532 475 L 406.7823979472678 469.63115828296736 L 401.41355623023514 463.3450522880528 L 395.12745023532057 468.7138940050854 Z" style="stroke:#000028; stroke-opacity: 0.3;fill:#C860D7; fill-opacity: 0.6454545454545455;"/>
<path d="M 401.41355623023514 463.3450522880528 L 408.462141711047 459.0256735501396 L 404.1427629731338 451.97708806932764 L 397.09417749232193 456.2964668072409 Z" style="stroke:#000028; stroke-opacity: 0.3;fill:#C860D7; fill-opacity: 0.6454545454545455;"/>
<path d="M 404.1427629731338 451.97708806932764 L 411.7802683723916 448.8135297502573 L 408.6167100533213 441.1760243509995 L 400.9792046540635 444.33958267006983 Z" style="stroke:#000028; stroke-opacity: 0.3;fill:#C860D7; fill-opacity: 0.6454545454545455;"/>
<path d="M 408.6167100533213 441.1760243509995 L 416.65507464066786 439.2461837558358 L 414.7252340455042 431.2078191684892 L 406.6868694581576 433.1376597636529 Z" style="stroke:#000028; stroke-opacity: 0.3;fill:#C860D7; fill-opacity: 0.6454545454545455;"/>
<path d="M 414.7252340455042 431.2078191684892 L 422.9665266069967 430.5592153774587 L 422.3179228159662 422.31792281596626 L 414.0766302544737 422.9665266069967 Z" style="stroke:#000028; stroke-opacity: 0.3;fill:#C860D7; fill-opacity: 0.6454545454545455;"/>
<path d="M 422.3179228159662 422.31792281596626 L 430.55921537745877 422.9665266069967 L 431.2078191684892 414.7252340455042 L 422.96652660699664 414.0766302544737 Z" style="stroke:#000028; stroke-opacity: 0.3;fill:#C860D7; fill-opacity: 0.6454545454545455;"/>
<path d="M 431.2078191684892 414.7252340455042 L 439.2461837558358 416.65507464066786 L 441.1760243509995 408.61671005332124 L 433.1376597636529 406.6868694581576 Z" style="stroke:#000028; stroke-opacity: 0.3;fill:#C860D7; fill-opacity: 0.6454545454545455;"/>
<path d="M 441.1760243509995 408.61671005332124 L 448.81352975025726 411.78026837239156 L 451.9770880693276 404.14276297313376 L 444.3395826700698 400.97920465406344 Z" style="stroke:#000028; stroke-opacity: 0.3;fill:#C860D7; fill-opacity: 0.6454545454545455;"/>
<path d="M 451.9770880693276 404.14276297313376 L 459.02567355013946 408.4621417110471 L 463.3450522880527 401.41355623023514 L 456.2964668072408 397.0941774923219 Z" style="stroke:#000028; stroke-opacity: 0.3;fill:#C860D7; fill-opacity: 0.6454545454545455;"/>
<path d="M 463.3450522880527 401.41355623023514 L 469.6311582829673 406.7823979472678 L 475 400.4962919523532 L 468.71389400508536 395.12745023532057 Z" style="stroke:#000028; stroke-opacity: 0.3;fill:#C860D7; fill-opacity: 0.6454545454545455;"/>
<path d="M 475 400.4962919523532 L 480.36884171703264 406.7823979472678 L 486.6549477119472 401.41355623023514 L 481.2861059949146 395.12745023532057 Z" style="stroke:#000028; stroke-opacity: 0.3;fill:#C860D7; fill-opacity: 0.6454545454545455;"/>
<path d="M 486.6549477119472 401.41355623023514 L 490.9743264498604 408.4621417110471 L 498.02291193067236 404.14276297313376 L 493.7035331927591 397.0941774923219 Z" style="stroke:#000028; stroke-opacity: 0.3;fill:#C860D7; fill-opacity: 0.6454545454545455;"/>
<path d="M 498.02291193067236 404.14276297313376 L 501.1864702497426 411.7802683723916 L 508.8239756490005 408.61671005332136 L 505.6604173299302 400.9792046540635 Z" style="stroke:#000028; stroke-opacity: 0.3;fill:#C860D7; fill-opacity: 0.6454545454545455;"/>
<path d="M 508.8239756490005 408.61671005332136 L 510.7538162441642 416.655074640668 L 518.7921808315109 414.72523404550424 L 516.8623402363471 406.6868694581576 Z" style="stroke:#000028; stroke-opacity: 0.3;fill:#C860D7; fill-opacity: 0.6454545454545455;"/>
<path d="M 518.7921808315109 414.72523404550424 L 519.4407846225415 422.96652660699664 L 527.6820771840339 422.3179228159661 L 527.0334733930033 414.0766302544736 Z" style="stroke:#000028; stroke-opacity: 0.3;fill:#C860D7; fill-opacity: 0.6454545454545455;"/>
<path d="M 527.6820771840339 422.3179228159661 L 527.0334733930033 430.55921537745854 L 535.2747659544957 431.2078191684892 L 535.9233697455263 422.96652660699675 Z" style="stroke:#000028; stroke-opacity: 0.3;fill:#C860D7; fill-opacity: 0.6454545454545455;"/>
<path d="M 535.2747659544957 431.2078191684892 L 533.3449253593321 439.24618375583594 L 541.3832899466788 441.17602435099957 L 543.3131305418424 433.13765976365283 Z" style="stroke:#000028; stroke-opacity: 0.3;fill:#C860D7; fill-opacity: 0.6454545454545455;"/>
<path d="M 541.3832899466788 441.17602435099957 L 538.2197316276086 448.81352975025726 L 545.8572370268662 451.9770880693276 L 549.0207953459364 444.3395826700699 Z" style="stroke:#000028; stroke-opacity: 0.3;fill:#C860D7; fill-opacity: 0.6454545454545455;"/>
<path d="M 545.8572370268662 451.9770880693276 L 541.537858288953 459.0256735501395 L 548.5864437697649 463.3450522880528 L 552.9058225076781 456.29646680724085 Z" style="stroke:#000028; stroke-opacity: 0.3;fill:#C860D7; fill-opacity: 0.6454545454545455;"/>
<path d="M 548.5864437697649 463.3450522880528 L 543.2176020527322 469.63115828296736 L 549.5037080476468 475 L 554.8725497646794 468.7138940050854 Z" style="stroke:#000028; stroke-opacity: 0.3;fill:#C860D7; fill-opacity: 0.6454545454545455;"/>
<path d="M 549.5037080476468 475 L 543.2176020527322 480.36884171703264 L 548.5864437697649 486.65494771194716 L 554.8725497646794 481.2861059949146 Z" style="stroke:#000028; stroke-opacity: 0.3;fill:#C860D7; fill-opacity: 0.6454545454545455;"/>
<path d="M 548.5864437697649 486.65494771194716 L 541.5378582889529 490.9743264498605 L 545.8572370268662 498.0229119306724 L 552.9058225076782 493.70353319275915 Z" style="stroke:#000028; stroke-opacity: 0.3;fill:#C860D7; fill-opacity: 0.6454545454545455;"/>
<path d="M 538.2197316276084 501.1864702497428 L 530.9986554962596 503.5327401128153 L 533.3449253593321 510.7538162441641 L 540.5660014906808 508.4075463810916 Z" style="stroke:#00003C; stroke-opacity: 0.3;fill:#C860EB; fill-opacity: 0.6454545454545455;"/>
<path d="M 533.3449253593321 510.7538162441641 L 525.8457151869791 511.94157445018834 L 527.0334733930033 519.4407846225414 L 534.5326835653564 518.2530264165172 Z" style="stroke:#00003C; stroke-opacity: 0.3;fill:#C860EB; fill-opacity: 0.6454545454545455;"/>
<path d="M 527.0334733930033 519.4407846225414 L 519.4407846225415 519.4407846225415 L 519.4407846225415 527.0334733930033 L 527.0334733930033 527.0334733930033 Z" style="stroke:#00003C; stroke-opacity: 0.3;fill:#C860EB; fill-opacity: 0.6454545454545455;"/>
<path d="M 519.4407846225415 527.0334733930033 L 511.9415744501884 525.8457151869789 L 510.7538162441641 533.344925359332 L 518.2530264165171 534.5326835653564 Z" style="stroke:#00003C; stroke-opacity: 0.3;fill:#C860EB; fill-opacity: 0.6454545454545455;"/>
<path d="M 510.7538162441641 533.344925359332 L 503.53274011281525 530.9986554962595 L 501.1864702497428 538.2197316276084 L 508.40754638109166 540.566001490681 Z" style="stroke:#00003C; stroke-opacity: 0.3;fill:#C860EB; fill-opacity: 0.6454545454545455;"/>
<path d="M 501.1864702497428 538.2197316276084 L 494.42133501912934 534.7727230583395 L 490.9743264498605 541.537858288953 L 497.7394616804739 544.9848668582218 Z" style="stroke:#00003C; stroke-opacity: 0.3;fill:#C860EB; fill-opacity: 0.6454545454545455;"/>
<path d="M 490.9743264498605 541.537858288953 L 484.8317122015569 537.0749878044287 L 480.36884171703264 543.2176020527322 L 486.51145596533615 547.6804725372565 Z" style="stroke:#00003C; stroke-opacity: 0.3;fill:#C860EB; fill-opacity: 0.6454545454545455;"/>
<path d="M 480.36884171703264 543.2176020527322 L 475 537.8487603356996 L 469.63115828296736 543.2176020527322 L 475 548.5864437697649 Z" style="stroke:#00003C; stroke-opacity: 0.3;fill:#C860EB; fill-opacity: 0.6454545454545455;"/>
<path d="M 469.63115828296736 543.2176020527322 L 465.16828779844315 537.0749878044287 L 459.02567355013963 541.5378582889529 L 463.4885440346638 547.6804725372565 Z" style="stroke:#00003C; stroke-opacity: 0.3;fill:#C860EB; fill-opacity: 0.6454545454545455;"/>
<path d="M 459.02567355013963 541.5378582889529 L 455.5786649808708 534.7727230583394 L 448.8135297502573 538.2197316276082 L 452.2605383195262 544.9848668582217 Z" style="stroke:#00003C; stroke-opacity: 0.3;fill:#C860EB; fill-opacity: 0.6454545454545455;"/>
<path d="M 448.8135297502573 538.2197316276082 L 446.4672598871847 530.9986554962592 L 439.2461837558358 533.3449253593319 L 441.5924536189084 540.5660014906808 Z" style="stroke:#00003C; stroke-opacity: 0.3;fill:#C860EB; fill-opacity: 0.6454545454545455;"/>
<path d="M 439.2461837558358 533.3449253593319 L 438.05842554981143 525.845715186979 L 430.5592153774585 527.0334733930033 L 431.7469735834828 534.5326835653563 Z" style="stroke:#00003C; stroke-opacity: 0.3;fill:#C860EB; fill-opacity: 0.6454545454545455;"/>
<path d="M 430.5592153774585 527.0334733930033 L 430.5592153774585 519.4407846225415 L 422.9665266069967 519.4407846225415 L 422.9665266069967 527.0334733930033 Z" style="stroke:#00003C; stroke-opacity: 0.3;fill:#C860EB; fill-opacity: 0.6454545454545455;"/>
<path d="M 422.9665266069967 519.4407846225415 L 424.154284813021 511.9415744501885 L 416.655074640668 510.7538162441642 L 415.4673164346437 518.2530264165173 Z" style="stroke:#00003C; stroke-opacity: 0.3;fill:#C860EB; fill-opacity: 0.6454545454545455;"/>
<path d="M 416.655074640668 510.7538162441642 L 419.00134450374054 503.5327401128153 L 411.7802683723916 501.1864702497427 L 409.433998509319 508.4075463810916 Z" style="stroke:#00003C; stroke-opacity: 0.3;fill:#C860EB; fill-opacity: 0.6454545454545455;"/>
<path d="M 411.7802683723916 501.1864702497427 L 415.2272769416604 494.42133501912934 L 408.4621417110471 490.97432644986054 L 405.0151331417783 497.7394616804739 Z" style="stroke:#00003C; stroke-opacity: 0.3;fill:#C860EB; fill-opacity: 0.6454545454545455;"/>
<path d="M 408.4621417110471 490.97432644986054 L 412.9250121955713 484.831712201557 L 406.7823979472678 480.3688417170327 L 402.3195274627435 486.51145596533627 Z" style="stroke:#00003C; stroke-opacity: 0.3;fill:#C860EB; fill-opacity: 0.6454545454545455;"/>
<path d="M 406.7823979472678 480.3688417170327 L 412.1512396643004 475 L 406.7823979472678 469.63115828296736 L 401.41355623023514 475 Z" style="stroke:#00003C; stroke-opacity: 0.3;fill:#C860EB; fill-opacity: 0.6454545454545455;"/>
<path d="M 406.7823979472678 469.63115828296736 L 412.9250121955713 465.1682877984431 L 408.462141711047 459.0256735501396 L 402.3195274627435 463.48854403466385 Z" style="stroke:#00003C; stroke-opacity: 0.3;fill:#C860EB; fill-opacity: 0.6454545454545455;"/>
<path d="M 408.462141711047 459.0256735501396 L 415.2272769416605 455.5786649808707 L 411.7802683723916 448.8135297502573 L 405.0151331417782 452.2605383195262 Z" style="stroke:#00003C; stroke-opacity: 0.3;fill:#C860EB; fill-opacity: 0.6454545454545455;"/>
<path d="M 411.7802683723916 448.8135297502573 L 419.00134450374054 446.4672598871847 L 416.65507464066786 439.2461837558358 L 409.433998509319 441.5924536189084 Z" style="stroke:#00003C; stroke-opacity: 0.3;fill:#C860EB; fill-opacity: 0.6454545454545455;"/>
<path d="M 416.65507464066786 439.2461837558358 L 424.1542848130208 438.05842554981166 L 422.9665266069967 430.5592153774587 L 415.46731643464375 431.7469735834828 Z" style="stroke:#00003C; stroke-opacity: 0.3;fill:#C860EB; fill-opacity: 0.6454545454545455;"/>
<path d="M 422.9665266069967 430.5592153774587 L 430.5592153774587 430.5592153774587 L 430.55921537745877 422.9665266069967 L 422.9665266069967 422.9665266069967 Z" style="stroke:#00003C; stroke-opacity: 0.3;fill:#C860EB; fill-opacity: 0.6454545454545455;"/>
<path d="M 430.55921537745877 422.9665266069967 L 438.05842554981166 424.1542848130208 L 439.2461837558358 416.65507464066786 L 431.7469735834828 415.46731643464375 Z" style="stroke:#00003C; stroke-opacity: 0.3;fill:#C860EB; fill-opacity: 0.6454545454545455;"/>
<path d="M 439.2461837558358 416.65507464066786 L 446.46725988718464 419.0013445037405 L 448.81352975025726 411.78026837239156 L 441.59245361890834 409.43399850931894 Z" style="stroke:#00003C; stroke-opacity: 0.3;fill:#C860EB; fill-opacity: 0.6454545454545455;"/>
<path d="M 448.81352975025726 411.78026837239156 L 455.57866498087066 415.2272769416605 L 459.02567355013946 408.4621417110471 L 452.2605383195261 405.0151331417782 Z" style="stroke:#00003C; stroke-opacity: 0.3;fill:#C860EB; fill-opacity: 0.6454545454545455;"/>
<path d="M 459.02567355013946 408.4621417110471 L 465.168287798443 412.9250121955713 L 469.6311582829673 406.7823979472678 L 463.48854403466373 402.3195274627435 Z" style="stroke:#00003C; stroke-opacity: 0.3;fill:#C860EB; fill-opacity: 0.6454545454545455;"/>
<path d="M 469.6311582829673 406.7823979472678 L 475 412.1512396643004 L 480.36884171703264 406.7823979472678 L 475 401.41355623023514 Z" style="stroke:#00003C; stroke-opacity: 0.3;fill:#C860EB; fill-opacity: 0.6454545454545455;"/>
<path d="M 480.36884171703264 406.7823979472678 L 484.83171220155685 412.9250121955713 L 490.9743264498604 408.4621417110471 L 486.5114559653362 402.3195274627435 Z" style="stroke:#00003C; stroke-opacity: 0.3;fill:#C860EB; fill-opacity: 0.6454545454545455;"/>
<path d="M 490.9743264498604 408.4621417110471 L 494.42133501912923 415.2272769416604 L 501.1864702497426 411.7802683723916 L 497.73946168047377 405.0151331417783 Z" style="stroke:#00003C; stroke-opacity: 0.3;fill:#C860EB; fill-opacity: 0.6454545454545455;"/>
<path d="M 501.1864702497426 411.7802683723916 L 503.5327401128152 419.0013445037406 L 510.7538162441642 416.655074640668 L 508.4075463810916 409.43399850931894 Z" style="stroke:#00003C; stroke-opacity: 0.3;fill:#C860EB; fill-opacity: 0.6454545454545455;"/>
<path d="M 510.7538162441642 416.655074640668 L 511.94157445018857 424.1542848130209 L 519.4407846225415 422.96652660699664 L 518.2530264165172 415.46731643464364 Z" style="stroke:#00003C; stroke-opacity: 0.3;fill:#C860EB; fill-opacity: 0.6454545454545455;"/>
<path d="M 519.4407846225415 422.96652660699664 L 519.4407846225415 430.5592153774585 L 527.0334733930033 430.55921537745854 L 527.0334733930033 422.9665266069967 Z" style="stroke:#00003C; stroke-opacity: 0.3;fill:#C860EB; fill-opacity: 0.6454545454545455;"/>
<path d="M 527.0334733930033 430.55921537745854 L 525.8457151869791 438.05842554981166 L 533.3449253593321 439.24618375583594 L 534.5326835653564 431.7469735834828 Z" style="stroke:#00003C; stroke-opacity: 0.3;fill:#C860EB; fill-opacity: 0.6454545454545455;"/>
<path d="M 533.3449253593321 439.24618375583594 L 530.9986554962597 446.4672598871848 L 538.2197316276086 448.81352975025726 L 540.566001490681 441.5924536189084 Z" style="stroke:#00003C; stroke-opacity: 0.3;fill:#C860EB; fill-opacity: 0.6454545454545455;"/>
<path d="M 538.2197316276086 448.81352975025726 L 534.7727230583396 455.5786649808706 L 541.537858288953 459.0256735501395 L 544.984866858222 452.2605383195262 Z" style="stroke:#00003C; stroke-opacity: 0.3;fill:#C860EB; fill-opacity: 0.6454545454545455;"/>
<path d="M 541.537858288953 459.0256735501395 L 537.0749878044287 465.1682877984431 L 543.2176020527322 469.63115828296736 L 547.6804725372565 463.48854403466385 Z" style="stroke:#00003C; stroke-opacity: 0.3;fill:#C860EB; fill-opacity: 0.6454545454545455;"/>
<path d="M 543.2176020527322 469.63115828296736 L 537.8487603356996 475 L 543.2176020527322 480.36884171703264 L 548.5864437697649 475 Z" style="stroke:#00003C; stroke-opacity: 0.3;fill:#C860EB; fill-opacity: 0.6454545454545455;"/>
<path d="M 543.2176020527322 480.36884171703264 L 537.0749878044287 484.83171220155685 L 541.5378582889529 490.9743264498605 L 547.6804725372565 486.5114559653362 Z" style="stroke:#00003C; stroke-opacity: 0.3;fill:#C860EB; fill-opacity: 0.6454545454545455;"/>
<path d="M 541.5378582889529 490.9743264498605 L 534.7727230583395 494.4213350191294 L 538.2197316276084 501.1864702497428 L 544.9848668582218 497.7394616804738 Z" style="stroke:#00003C; stroke-opacity: 0.3;fill:#C860EB; fill-opacity: 0.6454545454545455;"/>
<path d="M 530.9986554962596 503.5327401128153 L 524.2177681729328 505.16068712686155 L 525.8457151869791 511.94157445018834 L 532.6266025103058 510.3136274361421 Z" style="stroke:#000050; stroke-opacity: 0.3;fill:#C860FF; fill-opacity: 0.6454545454545455;"/>
<path d="M 525.8457151869791 511.94157445018834 L 518.8936448185837 512.4887142541461 L 519.4407846225415 519.4407846225415 L 526.3928549909369 518.8936448185837 Z" style="stroke:#000050; stroke-opacity: 0.3;fill:#C860FF; fill-opacity: 0.6454545454545455;"/>
<path d="M 519.4407846225415 519.4407846225415 L 512.4887142541463 518.8936448185837 L 511.9415744501884 525.8457151869789 L 518.8936448185837 526.3928549909367 Z" style="stroke:#000050; stroke-opacity: 0.3;fill:#C860FF; fill-opacity: 0.6454545454545455;"/>
<path d="M 511.9415744501884 525.8457151869789 L 505.1606871268615 524.2177681729327 L 503.53274011281525 530.9986554962595 L 510.31362743614216 532.6266025103057 Z" style="stroke:#000050; stroke-opacity: 0.3;fill:#C860FF; fill-opacity: 0.6454545454545455;"/>
<path d="M 503.53274011281525 530.9986554962595 L 497.0900037849323 528.3299867304564 L 494.42133501912934 534.7727230583395 L 500.86407134701227 537.4413918241424 Z" style="stroke:#000050; stroke-opacity: 0.3;fill:#C860FF; fill-opacity: 0.6454545454545455;"/>
<path d="M 494.42133501912934 534.7727230583395 L 488.47539123729854 531.1290440225978 L 484.8317122015569 537.0749878044287 L 490.7776559833878 540.7186668401703 Z" style="stroke:#000050; stroke-opacity: 0.3;fill:#C860FF; fill-opacity: 0.6454545454545455;"/>
<path d="M 484.8317122015569 537.0749878044287 L 479.528969835143 532.5460179692857 L 475 537.8487603356996 L 480.3027423664139 542.3777301708426 Z" style="stroke:#000050; stroke-opacity: 0.3;fill:#C860FF; fill-opacity: 0.6454545454545455;"/>
<path d="M 475 537.8487603356996 L 470.471030164857 532.5460179692857 L 465.16828779844315 537.0749878044287 L 469.6972576335861 542.3777301708426 Z" style="stroke:#000050; stroke-opacity: 0.3;fill:#C860FF; fill-opacity: 0.6454545454545455;"/>
<path d="M 465.16828779844315 537.0749878044287 L 461.52460876270163 531.1290440225979 L 455.5786649808708 534.7727230583394 L 459.2223440166123 540.7186668401702 Z" style="stroke:#000050; stroke-opacity: 0.3;fill:#C860FF; fill-opacity: 0.6454545454545455;"/>
<path d="M 455.5786649808708 534.7727230583394 L 452.90999621506785 528.3299867304561 L 446.4672598871847 530.9986554962592 L 449.1359286529877 537.4413918241423 Z" style="stroke:#000050; stroke-opacity: 0.3;fill:#C860FF; fill-opacity: 0.6454545454545455;"/>
<path d="M 446.4672598871847 530.9986554962592 L 444.83931287313817 524.2177681729324 L 438.05842554981143 525.845715186979 L 439.68637256385796 532.6266025103057 Z" style="stroke:#000050; stroke-opacity: 0.3;fill:#C860FF; fill-opacity: 0.6454545454545455;"/>
<path d="M 438.05842554981143 525.845715186979 L 437.5112857458537 518.8936448185839 L 430.5592153774585 519.4407846225415 L 431.10635518141623 526.3928549909367 Z" style="stroke:#000050; stroke-opacity: 0.3;fill:#C860FF; fill-opacity: 0.6454545454545455;"/>
<path d="M 430.5592153774585 519.4407846225415 L 431.10635518141623 512.4887142541462 L 424.154284813021 511.9415744501885 L 423.6071450090632 518.8936448185838 Z" style="stroke:#000050; stroke-opacity: 0.3;fill:#C860FF; fill-opacity: 0.6454545454545455;"/>
<path d="M 424.154284813021 511.9415744501885 L 425.78223182706733 505.1606871268617 L 419.00134450374054 503.5327401128153 L 417.3733974896942 510.31362743614216 Z" style="stroke:#000050; stroke-opacity: 0.3;fill:#C860FF; fill-opacity: 0.6454545454545455;"/>
<path d="M 419.00134450374054 503.5327401128153 L 421.67001326954346 497.09000378493226 L 415.2272769416604 494.42133501912934 L 412.55860817585756 500.8640713470123 Z" style="stroke:#000050; stroke-opacity: 0.3;fill:#C860FF; fill-opacity: 0.6454545454545455;"/>
<path d="M 415.2272769416604 494.42133501912934 L 418.870955977402 488.4753912372986 L 412.9250121955713 484.831712201557 L 409.2813331598297 490.7776559833877 Z" style="stroke:#000050; stroke-opacity: 0.3;fill:#C860FF; fill-opacity: 0.6454545454545455;"/>
<path d="M 412.9250121955713 484.831712201557 L 417.45398203071437 479.5289698351431 L 412.1512396643004 475 L 407.62226982915735 480.30274236641395 Z" style="stroke:#000050; stroke-opacity: 0.3;fill:#C860FF; fill-opacity: 0.6454545454545455;"/>
<path d="M 412.1512396643004 475 L 417.4539820307143 470.471030164857 L 412.9250121955713 465.1682877984431 L 407.6222698291574 469.6972576335861 Z" style="stroke:#000050; stroke-opacity: 0.3;fill:#C860FF; fill-opacity: 0.6454545454545455;"/>
<path d="M 412.9250121955713 465.1682877984431 L 418.87095597740205 461.5246087627015 L 415.2272769416605 455.5786649808707 L 409.28133315982967 459.2223440166123 Z" style="stroke:#000050; stroke-opacity: 0.3;fill:#C860FF; fill-opacity: 0.6454545454545455;"/>
<path d="M 415.2272769416605 455.5786649808707 L 421.6700132695435 452.90999621506774 L 419.00134450374054 446.4672598871847 L 412.5586081758575 449.1359286529877 Z" style="stroke:#000050; stroke-opacity: 0.3;fill:#C860FF; fill-opacity: 0.6454545454545455;"/>
<path d="M 419.00134450374054 446.4672598871847 L 425.7822318270672 444.8393128731383 L 424.1542848130208 438.05842554981166 L 417.3733974896942 439.6863725638581 Z" style="stroke:#000050; stroke-opacity: 0.3;fill:#C860FF; fill-opacity: 0.6454545454545455;"/>
<path d="M 424.1542848130208 438.05842554981166 L 431.10635518141623 437.51128574585414 L 430.5592153774587 430.5592153774587 L 423.6071450090633 431.10635518141623 Z" style="stroke:#000050; stroke-opacity: 0.3;fill:#C860FF; fill-opacity: 0.6454545454545455;"/>
<path d="M 430.5592153774587 430.5592153774587 L 437.51128574585414 431.10635518141623 L 438.05842554981166 424.1542848130208 L 431.10635518141623 423.6071450090633 Z" style="stroke:#000050; stroke-opacity: 0.3;fill:#C860FF; fill-opacity: 0.6454545454545455;"/>
<path d="M 438.05842554981166 424.1542848130208 L 444.83931287313834 425.7822318270671 L 446.46725988718464 419.0013445037405 L 439.686372563858 417.3733974896942 Z" style="stroke:#000050; stroke-opacity: 0.3;fill:#C860FF; fill-opacity: 0.6454545454545455;"/>
<path d="M 446.46725988718464 419.0013445037405 L 452.9099962150677 421.67001326954346 L 455.57866498087066 415.2272769416605 L 449.1359286529876 412.55860817585744 Z" style="stroke:#000050; stroke-opacity: 0.3;fill:#C860FF; fill-opacity: 0.6454545454545455;"/>
<path d="M 455.57866498087066 415.2272769416605 L 461.52460876270146 418.87095597740205 L 465.168287798443 412.9250121955713 L 459.2223440166122 409.28133315982967 Z" style="stroke:#000050; stroke-opacity: 0.3;fill:#C860FF; fill-opacity: 0.6454545454545455;"/>
<path d="M 465.168287798443 412.9250121955713 L 470.4710301648569 417.45398203071437 L 475 412.1512396643004 L 469.69725763358605 407.62226982915735 Z" style="stroke:#000050; stroke-opacity: 0.3;fill:#C860FF; fill-opacity: 0.6454545454545455;"/>
<path d="M 475 412.1512396643004 L 479.528969835143 417.4539820307143 L 484.83171220155685 412.9250121955713 L 480.3027423664139 407.6222698291574 Z" style="stroke:#000050; stroke-opacity: 0.3;fill:#C860FF; fill-opacity: 0.6454545454545455;"/>
<path d="M 484.83171220155685 412.9250121955713 L 488.4753912372985 418.87095597740205 L 494.42133501912923 415.2272769416604 L 490.7776559833876 409.28133315982967 Z" style="stroke:#000050; stroke-opacity: 0.3;fill:#C860FF; fill-opacity: 0.6454545454545455;"/>
<path d="M 494.42133501912923 415.2272769416604 L 497.0900037849321 421.67001326954346 L 503.5327401128152 419.0013445037406 L 500.86407134701227 412.55860817585756 Z" style="stroke:#000050; stroke-opacity: 0.3;fill:#C860FF; fill-opacity: 0.6454545454545455;"/>
<path d="M 503.5327401128152 419.0013445037406 L 505.1606871268617 425.78223182706745 L 511.94157445018857 424.1542848130209 L 510.31362743614204 417.37339748969407 Z" style="stroke:#000050; stroke-opacity: 0.3;fill:#C860FF; fill-opacity: 0.6454545454545455;"/>
<path d="M 511.94157445018857 424.1542848130209 L 512.4887142541463 431.1063551814162 L 519.4407846225415 430.5592153774585 L 518.8936448185839 423.60714500906323 Z" style="stroke:#000050; stroke-opacity: 0.3;fill:#C860FF; fill-opacity: 0.6454545454545455;"/>
<path d="M 519.4407846225415 430.5592153774585 L 518.8936448185837 437.51128574585385 L 525.8457151869791 438.05842554981166 L 526.3928549909369 431.1063551814163 Z" style="stroke:#000050; stroke-opacity: 0.3;fill:#C860FF; fill-opacity: 0.6454545454545455;"/>
<path d="M 525.8457151869791 438.05842554981166 L 524.2177681729329 444.83931287313857 L 530.9986554962597 446.4672598871848 L 532.6266025103059 439.6863725638579 Z" style="stroke:#000050; stroke-opacity: 0.3;fill:#C860FF; fill-opacity: 0.6454545454545455;"/>
<path d="M 530.9986554962597 446.4672598871848 L 528.3299867304568 452.9099962150676 L 534.7727230583396 455.5786649808706 L 537.4413918241426 449.1359286529878 Z" style="stroke:#000050; stroke-opacity: 0.3;fill:#C860FF; fill-opacity: 0.6454545454545455;"/>
<path d="M 534.7727230583396 455.5786649808706 L 531.1290440225979 461.5246087627014 L 537.0749878044287 465.1682877984431 L 540.7186668401704 459.2223440166123 Z" style="stroke:#000050; stroke-opacity: 0.3;fill:#C860FF; fill-opacity: 0.6454545454545455;"/>
<path d="M 537.0749878044287 465.1682877984431 L 532.5460179692857 470.471030164857 L 537.8487603356996 475 L 542.3777301708426 469.6972576335861 Z" style="stroke:#000050; stroke-opacity: 0.3;fill:#C860FF; fill-opacity: 0.6454545454545455;"/>
<path d="M 537.8487603356996 475 L 532.5460179692857 479.528969835143 L 537.0749878044287 484.83171220155685 L 542.3777301708426 480.3027423664139 Z" style="stroke:#000050; stroke-opacity: 0.3;fill:#C860FF; fill-opacity: 0.6454545454545455;"/>
<path d="M 537.0749878044287 484.83171220155685 L 531.1290440225978 488.47539123729854 L 534.7727230583395 494.4213350191294 L 540.7186668401703 490.7776559833878 Z" style="stroke:#000050; stroke-opacity: 0.3;fill:#C860FF; fill-opacity: 0.6454545454545455;"/>
<path d="M 534.7727230583395 494.4213350191294 L 528.3299867304565 497.09000378493243 L 530.9986554962596 503.5327401128153 L 537.4413918241426 500.86407134701227 Z" style="stroke:#000050; stroke-opacity: 0.3;fill:#C860FF; fill-opacity: 0.6454545454545455;"/>
<path d="M 524.2177681729328 505.16068712686155 L 517.8916929321159 506.1626390133293 L 518.8936448185837 512.4887142541461 L 525.2197200594004 511.4867623676784 Z" style="stroke:#000064; stroke-opacity: 0.3;fill:#C860FF; fill-opacity: 0.6454545454545455;"/>
<path d="M 518.8936448185837 512.4887142541461 L 512.4887142541462 512.4887142541462 L 512.4887142541463 518.8936448185837 L 518.8936448185838 518.8936448185835 Z" style="stroke:#000064; stroke-opacity: 0.3;fill:#C860FF; fill-opacity: 0.6454545454545455;"/>
<path d="M 512.4887142541463 518.8936448185837 L 506.1626390133294 517.8916929321158 L 505.1606871268615 524.2177681729327 L 511.4867623676784 525.2197200594005 Z" style="stroke:#000064; stroke-opacity: 0.3;fill:#C860FF; fill-opacity: 0.6454545454545455;"/>
<path d="M 505.1606871268615 524.2177681729327 L 499.069236177135 522.2385357807299 L 497.0900037849323 528.3299867304564 L 503.18145473465876 530.3092191226591 Z" style="stroke:#000064; stroke-opacity: 0.3;fill:#C860FF; fill-opacity: 0.6454545454545455;"/>
<path d="M 497.0900037849323 528.3299867304564 L 491.38316886504475 525.4222091027102 L 488.47539123729854 531.1290440225978 L 494.1822261571861 534.0368216503441 Z" style="stroke:#000064; stroke-opacity: 0.3;fill:#C860FF; fill-opacity: 0.6454545454545455;"/>
<path d="M 488.47539123729854 531.1290440225978 L 483.2936935628768 527.364320294864 L 479.528969835143 532.5460179692857 L 484.7106675095647 536.3107416970195 Z" style="stroke:#000064; stroke-opacity: 0.3;fill:#C860FF; fill-opacity: 0.6454545454545455;"/>
<path d="M 479.528969835143 532.5460179692857 L 475 528.0170481341427 L 470.471030164857 532.5460179692857 L 475 537.0749878044287 Z" style="stroke:#000064; stroke-opacity: 0.3;fill:#C860FF; fill-opacity: 0.6454545454545455;"/>
<path d="M 470.471030164857 532.5460179692857 L 466.7063064371232 527.3643202948641 L 461.52460876270163 531.1290440225979 L 465.2893324904354 536.3107416970194 Z" style="stroke:#000064; stroke-opacity: 0.3;fill:#C860FF; fill-opacity: 0.6454545454545455;"/>
<path d="M 461.52460876270163 531.1290440225979 L 458.61683113495565 525.42220910271 L 452.90999621506785 528.3299867304561 L 455.81777384281384 534.0368216503439 Z" style="stroke:#000064; stroke-opacity: 0.3;fill:#C860FF; fill-opacity: 0.6454545454545455;"/>
<path d="M 452.90999621506785 528.3299867304561 L 450.93076382286483 522.2385357807294 L 444.83931287313817 524.2177681729324 L 446.8185452653412 530.3092191226591 Z" style="stroke:#000064; stroke-opacity: 0.3;fill:#C860FF; fill-opacity: 0.6454545454545455;"/>
<path d="M 444.83931287313817 524.2177681729324 L 443.8373609866702 517.8916929321159 L 437.5112857458537 518.8936448185839 L 438.51323763232165 525.2197200594004 Z" style="stroke:#000064; stroke-opacity: 0.3;fill:#C860FF; fill-opacity: 0.6454545454545455;"/>
<path d="M 437.5112857458537 518.8936448185839 L 437.5112857458538 512.4887142541463 L 431.10635518141623 512.4887142541462 L 431.1063551814161 518.8936448185839 Z" style="stroke:#000064; stroke-opacity: 0.3;fill:#C860FF; fill-opacity: 0.6454545454545455;"/>
<path d="M 431.10635518141623 512.4887142541462 L 432.108307067884 506.1626390133295 L 425.78223182706733 505.1606871268617 L 424.78027994059954 511.4867623676784 Z" style="stroke:#000064; stroke-opacity: 0.3;fill:#C860FF; fill-opacity: 0.6454545454545455;"/>
<path d="M 425.78223182706733 505.1606871268617 L 427.7614642192701 499.06923617713505 L 421.67001326954346 497.09000378493226 L 419.69078087734067 503.1814547346589 Z" style="stroke:#000064; stroke-opacity: 0.3;fill:#C860FF; fill-opacity: 0.6454545454545455;"/>
<path d="M 421.67001326954346 497.09000378493226 L 424.57779089728956 491.3831688650447 L 418.870955977402 488.4753912372986 L 415.9631783496559 494.18222615718616 Z" style="stroke:#000064; stroke-opacity: 0.3;fill:#C860FF; fill-opacity: 0.6454545454545455;"/>
<path d="M 418.870955977402 488.4753912372986 L 422.63567970513594 483.293693562877 L 417.45398203071437 479.5289698351431 L 413.68925830298036 484.7106675095647 Z" style="stroke:#000064; stroke-opacity: 0.3;fill:#C860FF; fill-opacity: 0.6454545454545455;"/>
<path d="M 417.45398203071437 479.5289698351431 L 421.98295186585733 475 L 417.4539820307143 470.471030164857 L 412.9250121955713 475 Z" style="stroke:#000064; stroke-opacity: 0.3;fill:#C860FF; fill-opacity: 0.6454545454545455;"/>
<path d="M 417.4539820307143 470.471030164857 L 422.6356797051359 466.7063064371231 L 418.87095597740205 461.5246087627015 L 413.6892583029804 465.2893324904354 Z" style="stroke:#000064; stroke-opacity: 0.3;fill:#C860FF; fill-opacity: 0.6454545454545455;"/>
<path d="M 418.87095597740205 461.5246087627015 L 424.5777908972897 458.61683113495536 L 421.6700132695435 452.90999621506774 L 415.9631783496559 455.8177738428139 Z" style="stroke:#000064; stroke-opacity: 0.3;fill:#C860FF; fill-opacity: 0.6454545454545455;"/>
<path d="M 421.6700132695435 452.90999621506774 L 427.7614642192701 450.93076382286483 L 425.7822318270672 444.8393128731383 L 419.69078087734067 446.8185452653412 Z" style="stroke:#000064; stroke-opacity: 0.3;fill:#C860FF; fill-opacity: 0.6454545454545455;"/>
<path d="M 425.7822318270672 444.8393128731383 L 432.1083070678838 443.8373609866707 L 431.10635518141623 437.51128574585414 L 424.78027994059966 438.5132376323217 Z" style="stroke:#000064; stroke-opacity: 0.3;fill:#C860FF; fill-opacity: 0.6454545454545455;"/>
<path d="M 431.10635518141623 437.51128574585414 L 437.51128574585414 437.51128574585414 L 437.51128574585414 431.10635518141623 L 431.10635518141623 431.10635518141623 Z" style="stroke:#000064; stroke-opacity: 0.3;fill:#C860FF; fill-opacity: 0.6454545454545455;"/>
<path d="M 437.51128574585414 431.10635518141623 L 443.8373609866708 432.10830706788374 L 444.83931287313834 425.7822318270671 L 438.51323763232165 424.7802799405996 Z" style="stroke:#000064; stroke-opacity: 0.3;fill:#C860FF; fill-opacity: 0.6454545454545455;"/>
<path d="M 444.83931287313834 425.7822318270671 L 450.93076382286483 427.76146421926995 L 452.9099962150677 421.67001326954346 L 446.8185452653412 419.6907808773406 Z" style="stroke:#000064; stroke-opacity: 0.3;fill:#C860FF; fill-opacity: 0.6454545454545455;"/>
<path d="M 452.9099962150677 421.67001326954346 L 458.6168311349553 424.5777908972896 L 461.52460876270146 418.87095597740205 L 455.81777384281384 415.96317834965583 Z" style="stroke:#000064; stroke-opacity: 0.3;fill:#C860FF; fill-opacity: 0.6454545454545455;"/>
<path d="M 461.52460876270146 418.87095597740205 L 466.70630643712303 422.63567970513594 L 470.4710301648569 417.45398203071437 L 465.28933249043536 413.6892583029805 Z" style="stroke:#000064; stroke-opacity: 0.3;fill:#C860FF; fill-opacity: 0.6454545454545455;"/>
<path d="M 470.4710301648569 417.45398203071437 L 475 421.98295186585733 L 479.528969835143 417.4539820307143 L 475 412.9250121955713 Z" style="stroke:#000064; stroke-opacity: 0.3;fill:#C860FF; fill-opacity: 0.6454545454545455;"/>
<path d="M 479.528969835143 417.4539820307143 L 483.2936935628769 422.6356797051359 L 488.4753912372985 418.87095597740205 L 484.7106675095646 413.6892583029804 Z" style="stroke:#000064; stroke-opacity: 0.3;fill:#C860FF; fill-opacity: 0.6454545454545455;"/>
<path d="M 488.4753912372985 418.87095597740205 L 491.3831688650446 424.57779089728956 L 497.0900037849321 421.67001326954346 L 494.18222615718605 415.9631783496559 Z" style="stroke:#000064; stroke-opacity: 0.3;fill:#C860FF; fill-opacity: 0.6454545454545455;"/>
<path d="M 497.0900037849321 421.67001326954346 L 499.0692361771349 427.76146421927024 L 505.1606871268617 425.78223182706745 L 503.18145473465887 419.69078087734067 Z" style="stroke:#000064; stroke-opacity: 0.3;fill:#C860FF; fill-opacity: 0.6454545454545455;"/>
<path d="M 505.1606871268617 425.78223182706745 L 506.1626390133297 432.10830706788414 L 512.4887142541463 431.1063551814162 L 511.48676236767835 424.78027994059954 Z" style="stroke:#000064; stroke-opacity: 0.3;fill:#C860FF; fill-opacity: 0.6454545454545455;"/>
<path d="M 512.4887142541463 431.1063551814162 L 512.4887142541461 437.5112857458537 L 518.8936448185837 437.51128574585385 L 518.8936448185839 431.10635518141635 Z" style="stroke:#000064; stroke-opacity: 0.3;fill:#C860FF; fill-opacity: 0.6454545454545455;"/>
<path d="M 518.8936448185837 437.51128574585385 L 517.8916929321159 443.83736098667083 L 524.2177681729329 444.83931287313857 L 525.2197200594006 438.5132376323216 Z" style="stroke:#000064; stroke-opacity: 0.3;fill:#C860FF; fill-opacity: 0.6454545454545455;"/>
<path d="M 524.2177681729329 444.83931287313857 L 522.2385357807303 450.93076382286506 L 528.3299867304568 452.9099962150676 L 530.3092191226593 446.8185452653412 Z" style="stroke:#000064; stroke-opacity: 0.3;fill:#C860FF; fill-opacity: 0.6454545454545455;"/>
<path d="M 528.3299867304568 452.9099962150676 L 525.4222091027104 458.6168311349551 L 531.1290440225979 461.5246087627014 L 534.0368216503443 455.81777384281395 Z" style="stroke:#000064; stroke-opacity: 0.3;fill:#C860FF; fill-opacity: 0.6454545454545455;"/>
<path d="M 531.1290440225979 461.5246087627014 L 527.364320294864 466.7063064371231 L 532.5460179692857 470.471030164857 L 536.3107416970195 465.2893324904353 Z" style="stroke:#000064; stroke-opacity: 0.3;fill:#C860FF; fill-opacity: 0.6454545454545455;"/>
<path d="M 532.5460179692857 470.471030164857 L 528.0170481341427 475 L 532.5460179692857 479.528969835143 L 537.0749878044287 475 Z" style="stroke:#000064; stroke-opacity: 0.3;fill:#C860FF; fill-opacity: 0.6454545454545455;"/>
<path d="M 532.5460179692857 479.528969835143 L 527.364320294864 483.2936935628768 L 531.1290440225978 488.47539123729854 L 536.3107416970195 484.7106675095647 Z" style="stroke:#000064; stroke-opacity: 0.3;fill:#C860FF; fill-opacity: 0.6454545454545455;"/>
<path d="M 531.1290440225978 488.47539123729854 L 525.4222091027102 491.38316886504487 L 528.3299867304565 497.09000378493243 L 534.0368216503441 494.1822261571861 Z" style="stroke:#000064; stroke-opacity: 0.3;fill:#C860FF; fill-opacity: 0.6454545454545455;"/>
<path d="M 528.3299867304565 497.09000378493243 L 522.2385357807302 499.0692361771351 L 524.2177681729328 505.16068712686155 L 530.3092191226592 503.18145473465887 Z" style="stroke:#000064; stroke-opacity: 0.3;fill:#C860FF; fill-opacity: 0.6454545454545455;"/>
<path d="M 517.8916929321159 506.1626390133293 L 512.0271659727226 506.6241872947529 L 512.4887142541462 512.4887142541462 L 518.3532412135395 512.0271659727226 Z" style="stroke:#000078; stroke-opacity: 0.3;fill:#C860FF; fill-opacity: 0.6454545454545455;"/>
<path d="M 512.4887142541462 512.4887142541462 L 506.62418729475297 512.0271659727225 L 506.1626390133294 517.8916929321158 L 512.0271659727225 518.3532412135394 Z" style="stroke:#000078; stroke-opacity: 0.3;fill:#C860FF; fill-opacity: 0.6454545454545455;"/>
<path d="M 506.1626390133294 517.8916929321158 L 500.44251617092516 516.5184129383256 L 499.069236177135 522.2385357807299 L 504.78935901953923 523.61181577452 Z" style="stroke:#000078; stroke-opacity: 0.3;fill:#C860FF; fill-opacity: 0.6454545454545455;"/>
<path d="M 499.069236177135 522.2385357807299 L 493.6343658600997 519.987338785675 L 491.38316886504475 525.4222091027102 L 496.81803918208004 527.6734060977652 Z" style="stroke:#000078; stroke-opacity: 0.3;fill:#C860FF; fill-opacity: 0.6454545454545455;"/>
<path d="M 491.38316886504475 525.4222091027102 L 486.3673756178839 522.3485270477031 L 483.2936935628768 527.364320294864 L 488.3094868100377 530.4380023498711 Z" style="stroke:#000078; stroke-opacity: 0.3;fill:#C860FF; fill-opacity: 0.6454545454545455;"/>
<path d="M 483.2936935628768 527.364320294864 L 478.82048286179906 523.5438374330649 L 475 528.0170481341427 L 479.47321070107773 531.8375309959417 Z" style="stroke:#000078; stroke-opacity: 0.3;fill:#C860FF; fill-opacity: 0.6454545454545455;"/>
<path d="M 475 528.0170481341427 L 471.1795171382009 523.5438374330649 L 466.7063064371232 527.3643202948641 L 470.5267892989223 531.8375309959417 Z" style="stroke:#000078; stroke-opacity: 0.3;fill:#C860FF; fill-opacity: 0.6454545454545455;"/>
<path d="M 466.7063064371232 527.3643202948641 L 463.6326243821165 522.3485270477032 L 458.61683113495565 525.42220910271 L 461.69051318996236 530.4380023498708 Z" style="stroke:#000078; stroke-opacity: 0.3;fill:#C860FF; fill-opacity: 0.6454545454545455;"/>
<path d="M 458.61683113495565 525.42220910271 L 456.3656341399005 519.9873387856742 L 450.93076382286483 522.2385357807294 L 453.18196081791996 527.6734060977651 Z" style="stroke:#000078; stroke-opacity: 0.3;fill:#C860FF; fill-opacity: 0.6454545454545455;"/>
<path d="M 450.93076382286483 522.2385357807294 L 449.5574838290743 516.5184129383254 L 443.8373609866702 517.8916929321159 L 445.21064098046077 523.61181577452 Z" style="stroke:#000078; stroke-opacity: 0.3;fill:#C860FF; fill-opacity: 0.6454545454545455;"/>
<path d="M 443.8373609866702 517.8916929321159 L 443.3758127052468 512.027165972723 L 437.5112857458538 512.4887142541463 L 437.9728340272772 518.3532412135394 Z" style="stroke:#000078; stroke-opacity: 0.3;fill:#C860FF; fill-opacity: 0.6454545454545455;"/>
<path d="M 437.5112857458538 512.4887142541463 L 437.9728340272774 506.624187294753 L 432.108307067884 506.1626390133295 L 431.6467587864605 512.0271659727227 Z" style="stroke:#000078; stroke-opacity: 0.3;fill:#C860FF; fill-opacity: 0.6454545454545455;"/>
<path d="M 432.108307067884 506.1626390133295 L 433.4815870616743 500.4425161709253 L 427.7614642192701 499.06923617713505 L 426.3881842254799 504.78935901953923 Z" style="stroke:#000078; stroke-opacity: 0.3;fill:#C860FF; fill-opacity: 0.6454545454545455;"/>
<path d="M 427.7614642192701 499.06923617713505 L 430.012661214325 493.6343658600996 L 424.57779089728956 491.3831688650447 L 422.32659390223466 496.81803918208016 Z" style="stroke:#000078; stroke-opacity: 0.3;fill:#C860FF; fill-opacity: 0.6454545454545455;"/>
<path d="M 424.57779089728956 491.3831688650447 L 427.6514729522966 486.367375617884 L 422.63567970513594 483.293693562877 L 419.56199765012894 488.3094868100377 Z" style="stroke:#000078; stroke-opacity: 0.3;fill:#C860FF; fill-opacity: 0.6454545454545455;"/>
<path d="M 422.63567970513594 483.293693562877 L 426.4561625669352 478.8204828617992 L 421.98295186585733 475 L 418.16246900405815 479.47321070107785 Z" style="stroke:#000078; stroke-opacity: 0.3;fill:#C860FF; fill-opacity: 0.6454545454545455;"/>
<path d="M 421.98295186585733 475 L 426.45616256693506 471.1795171382008 L 422.6356797051359 466.7063064371231 L 418.16246900405815 470.52678929892227 Z" style="stroke:#000078; stroke-opacity: 0.3;fill:#C860FF; fill-opacity: 0.6454545454545455;"/>
<path d="M 422.6356797051359 466.7063064371231 L 427.6514729522967 463.6326243821161 L 424.5777908972897 458.61683113495536 L 419.5619976501289 461.6905131899623 Z" style="stroke:#000078; stroke-opacity: 0.3;fill:#C860FF; fill-opacity: 0.6454545454545455;"/>
<path d="M 424.5777908972897 458.61683113495536 L 430.01266121432514 456.3656341399003 L 427.7614642192701 450.93076382286483 L 422.32659390223466 453.18196081791984 Z" style="stroke:#000078; stroke-opacity: 0.3;fill:#C860FF; fill-opacity: 0.6454545454545455;"/>
<path d="M 427.7614642192701 450.93076382286483 L 433.4815870616741 449.5574838290746 L 432.1083070678838 443.8373609866707 L 426.3881842254799 445.2106409804609 Z" style="stroke:#000078; stroke-opacity: 0.3;fill:#C860FF; fill-opacity: 0.6454545454545455;"/>
<path d="M 432.1083070678838 443.8373609866707 L 437.9728340272772 443.3758127052476 L 437.51128574585414 437.51128574585414 L 431.6467587864607 437.9728340272773 Z" style="stroke:#000078; stroke-opacity: 0.3;fill:#C860FF; fill-opacity: 0.6454545454545455;"/>
<path d="M 437.51128574585414 437.51128574585414 L 443.37581270524765 437.97283402727726 L 443.8373609866708 432.10830706788374 L 437.97283402727726 431.6467587864606 Z" style="stroke:#000078; stroke-opacity: 0.3;fill:#C860FF; fill-opacity: 0.6454545454545455;"/>
<path d="M 443.8373609866708 432.10830706788374 L 449.55748382907467 433.4815870616739 L 450.93076382286483 427.76146421926995 L 445.21064098046094 426.38818422547985 Z" style="stroke:#000078; stroke-opacity: 0.3;fill:#C860FF; fill-opacity: 0.6454545454545455;"/>
<path d="M 450.93076382286483 427.76146421926995 L 456.36563413990024 430.012661214325 L 458.6168311349553 424.5777908972896 L 453.1819608179199 422.32659390223455 Z" style="stroke:#000078; stroke-opacity: 0.3;fill:#C860FF; fill-opacity: 0.6454545454545455;"/>
<path d="M 458.6168311349553 424.5777908972896 L 463.63262438211603 427.6514729522967 L 466.70630643712303 422.63567970513594 L 461.69051318996236 419.5619976501289 Z" style="stroke:#000078; stroke-opacity: 0.3;fill:#C860FF; fill-opacity: 0.6454545454545455;"/>
<path d="M 466.70630643712303 422.63567970513594 L 471.17951713820077 426.4561625669351 L 475 421.98295186585733 L 470.5267892989222 418.1624690040582 Z" style="stroke:#000078; stroke-opacity: 0.3;fill:#C860FF; fill-opacity: 0.6454545454545455;"/>
<path d="M 475 421.98295186585733 L 478.8204828617992 426.45616256693506 L 483.2936935628769 422.6356797051359 L 479.47321070107773 418.16246900405815 Z" style="stroke:#000078; stroke-opacity: 0.3;fill:#C860FF; fill-opacity: 0.6454545454545455;"/>
<path d="M 483.2936935628769 422.6356797051359 L 486.3673756178839 427.65147295229656 L 491.3831688650446 424.57779089728956 L 488.3094868100376 419.5619976501289 Z" style="stroke:#000078; stroke-opacity: 0.3;fill:#C860FF; fill-opacity: 0.6454545454545455;"/>
<path d="M 491.3831688650446 424.57779089728956 L 493.63436586009936 430.0126612143251 L 499.0692361771349 427.76146421927024 L 496.81803918208004 422.3265939022347 Z" style="stroke:#000078; stroke-opacity: 0.3;fill:#C860FF; fill-opacity: 0.6454545454545455;"/>
<path d="M 499.0692361771349 427.76146421927024 L 500.4425161709253 433.48158706167465 L 506.1626390133297 432.10830706788414 L 504.78935901953923 426.3881842254798 Z" style="stroke:#000078; stroke-opacity: 0.3;fill:#C860FF; fill-opacity: 0.6454545454545455;"/>
<path d="M 506.1626390133297 432.10830706788414 L 506.6241872947531 437.97283402727714 L 512.4887142541461 437.5112857458537 L 512.0271659727226 431.64675878646074 Z" style="stroke:#000078; stroke-opacity: 0.3;fill:#C860FF; fill-opacity: 0.6454545454545455;"/>
<path d="M 512.4887142541461 437.5112857458537 L 512.0271659727224 443.37581270524714 L 517.8916929321159 443.83736098667083 L 518.3532412135395 437.9728340272773 Z" style="stroke:#000078; stroke-opacity: 0.3;fill:#C860FF; fill-opacity: 0.6454545454545455;"/>
<path d="M 517.8916929321159 443.83736098667083 L 516.518412938326 449.5574838290752 L 522.2385357807303 450.93076382286506 L 523.6118157745202 445.21064098046077 Z" style="stroke:#000078; stroke-opacity: 0.3;fill:#C860FF; fill-opacity: 0.6454545454545455;"/>
<path d="M 522.2385357807303 450.93076382286506 L 519.9873387856753 456.3656341399001 L 525.4222091027104 458.6168311349551 L 527.6734060977653 453.18196081792 Z" style="stroke:#000078; stroke-opacity: 0.3;fill:#C860FF; fill-opacity: 0.6454545454545455;"/>
<path d="M 525.4222091027104 458.6168311349551 L 522.3485270477032 463.63262438211586 L 527.364320294864 466.7063064371231 L 530.4380023498712 461.6905131899623 Z" style="stroke:#000078; stroke-opacity: 0.3;fill:#C860FF; fill-opacity: 0.6454545454545455;"/>
<path d="M 527.364320294864 466.7063064371231 L 523.5438374330648 471.1795171382009 L 528.0170481341427 475 L 531.8375309959418 470.5267892989222 Z" style="stroke:#000078; stroke-opacity: 0.3;fill:#C860FF; fill-opacity: 0.6454545454545455;"/>
<path d="M 528.0170481341427 475 L 523.5438374330649 478.82048286179906 L 527.364320294864 483.2936935628768 L 531.8375309959417 479.47321070107773 Z" style="stroke:#000078; stroke-opacity: 0.3;fill:#C860FF; fill-opacity: 0.6454545454545455;"/>
<path d="M 527.364320294864 483.2936935628768 L 522.3485270477031 486.3673756178839 L 525.4222091027102 491.38316886504487 L 530.4380023498711 488.3094868100377 Z" style="stroke:#000078; stroke-opacity: 0.3;fill:#C860FF; fill-opacity: 0.6454545454545455;"/>
<path d="M 525.4222091027102 491.38316886504487 L 519.9873387856751 493.6343658601 L 522.2385357807302 499.0692361771351 L 527.6734060977653 496.81803918208 Z" style="stroke:#000078; stroke-opacity: 0.3;fill:#C860FF; fill-opacity: 0.6454545454545455;"/>
<path d="M 522.2385357807302 499.0692361771351 L 516.5184129383259 500.44251617092505 L 517.8916929321159 506.1626390133293 L 523.6118157745201 504.78935901953935 Z" style="stroke:#000078; stroke-opacity: 0.3;fill:#C860FF; fill-opacity: 0.6454545454545455;"/>
<path d="M 512.0271659727226 506.6241872947529 L 506.62418729475297 506.6241872947529 L 506.62418729475297 512.0271659727225 L 512.0271659727225 512.0271659727225 Z" style="stroke:#00008C; stroke-opacity: 0.3;fill:#C860FF; fill-opacity: 0.6454545454545455;"/>
<path d="M 506.62418729475297 512.0271659727225 L 501.2877282500375 511.18195389361017 L 500.44251617092516 516.5184129383256 L 505.77897521564057 517.3636250174379 Z" style="stroke:#00008C; stroke-opacity: 0.3;fill:#C860FF; fill-opacity: 0.6454545454545455;"/>
<path d="M 500.44251617092516 516.5184129383256 L 495.30397809183773 514.8488007065877 L 493.6343658600997 519.987338785675 L 498.77290393918713 521.656951017413 Z" style="stroke:#00008C; stroke-opacity: 0.3;fill:#C860FF; fill-opacity: 0.6454545454545455;"/>
<path d="M 493.6343658600997 519.987338785675 L 488.82027660797775 517.5344377955812 L 486.3673756178839 522.3485270477031 L 491.18146487000587 524.801428037797 Z" style="stroke:#00008C; stroke-opacity: 0.3;fill:#C860FF; fill-opacity: 0.6454545454545455;"/>
<path d="M 486.3673756178839 522.3485270477031 L 481.99627404716057 519.1727358623416 L 478.82048286179906 523.5438374330649 L 483.1915844325224 526.7196286184264 Z" style="stroke:#00008C; stroke-opacity: 0.3;fill:#C860FF; fill-opacity: 0.6454545454545455;"/>
<path d="M 478.82048286179906 523.5438374330649 L 475 519.7233545712659 L 471.1795171382009 523.5438374330649 L 475 527.364320294864 Z" style="stroke:#00008C; stroke-opacity: 0.3;fill:#C860FF; fill-opacity: 0.6454545454545455;"/>
<path d="M 471.1795171382009 523.5438374330649 L 468.00372595283955 519.1727358623419 L 463.6326243821165 522.3485270477032 L 466.8084155674778 526.7196286184263 Z" style="stroke:#00008C; stroke-opacity: 0.3;fill:#C860FF; fill-opacity: 0.6454545454545455;"/>
<path d="M 463.6326243821165 522.3485270477032 L 461.17972339202305 517.5344377955806 L 456.3656341399005 519.9873387856742 L 458.818535129994 524.8014280377967 Z" style="stroke:#00008C; stroke-opacity: 0.3;fill:#C860FF; fill-opacity: 0.6454545454545455;"/>
<path d="M 456.3656341399005 519.9873387856742 L 454.6960219081618 514.8488007065866 L 449.5574838290743 516.5184129383254 L 451.227096060813 521.6569510174129 Z" style="stroke:#00008C; stroke-opacity: 0.3;fill:#C860FF; fill-opacity: 0.6454545454545455;"/>
<path d="M 449.5574838290743 516.5184129383254 L 448.7122717499617 511.1819538936104 L 443.3758127052468 512.027165972723 L 444.2210247843593 517.3636250174379 Z" style="stroke:#00008C; stroke-opacity: 0.3;fill:#C860FF; fill-opacity: 0.6454545454545455;"/>
<path d="M 443.3758127052468 512.027165972723 L 443.3758127052471 506.62418729475326 L 437.9728340272774 506.624187294753 L 437.97283402727714 512.0271659727227 Z" style="stroke:#00008C; stroke-opacity: 0.3;fill:#C860FF; fill-opacity: 0.6454545454545455;"/>
<path d="M 437.9728340272774 506.624187294753 L 438.8180461063897 501.2877282500376 L 433.4815870616743 500.4425161709253 L 432.63637498256196 505.7789752156407 Z" style="stroke:#00008C; stroke-opacity: 0.3;fill:#C860FF; fill-opacity: 0.6454545454545455;"/>
<path d="M 433.4815870616743 500.4425161709253 L 435.1511992934125 495.3039780918378 L 430.012661214325 493.6343658600996 L 428.3430489825868 498.7729039391871 Z" style="stroke:#00008C; stroke-opacity: 0.3;fill:#C860FF; fill-opacity: 0.6454545454545455;"/>
<path d="M 430.012661214325 493.6343658600996 L 432.4655622044186 488.8202766079776 L 427.6514729522966 486.367375617884 L 425.198571962203 491.18146487000604 Z" style="stroke:#00008C; stroke-opacity: 0.3;fill:#C860FF; fill-opacity: 0.6454545454545455;"/>
<path d="M 427.6514729522966 486.367375617884 L 430.8272641376583 481.9962740471609 L 426.4561625669352 478.8204828617992 L 423.28037138157345 483.1915844325223 Z" style="stroke:#00008C; stroke-opacity: 0.3;fill:#C860FF; fill-opacity: 0.6454545454545455;"/>
<path d="M 426.4561625669352 478.8204828617992 L 430.2766454287343 474.99999999999994 L 426.45616256693506 471.1795171382008 L 422.63567970513594 475.00000000000006 Z" style="stroke:#00008C; stroke-opacity: 0.3;fill:#C860FF; fill-opacity: 0.6454545454545455;"/>
<path d="M 426.45616256693506 471.1795171382008 L 430.82726413765823 468.00372595283926 L 427.6514729522967 463.6326243821161 L 423.2803713815735 466.80841556747765 Z" style="stroke:#00008C; stroke-opacity: 0.3;fill:#C860FF; fill-opacity: 0.6454545454545455;"/>
<path d="M 427.6514729522967 463.6326243821161 L 432.4655622044188 461.1797233920224 L 430.01266121432514 456.3656341399003 L 425.198571962203 458.81853512999396 Z" style="stroke:#00008C; stroke-opacity: 0.3;fill:#C860FF; fill-opacity: 0.6454545454545455;"/>
<path d="M 430.01266121432514 456.3656341399003 L 435.15119929341245 454.6960219081619 L 433.4815870616741 449.5574838290746 L 428.34304898258677 451.227096060813 Z" style="stroke:#00008C; stroke-opacity: 0.3;fill:#C860FF; fill-opacity: 0.6454545454545455;"/>
<path d="M 433.4815870616741 449.5574838290746 L 438.8180461063891 448.7122717499626 L 437.9728340272772 443.3758127052476 L 432.63637498256213 444.22102478435954 Z" style="stroke:#00008C; stroke-opacity: 0.3;fill:#C860FF; fill-opacity: 0.6454545454545455;"/>
<path d="M 437.9728340272772 443.3758127052476 L 443.37581270524765 443.37581270524765 L 443.37581270524765 437.97283402727726 L 437.97283402727726 437.97283402727726 Z" style="stroke:#00008C; stroke-opacity: 0.3;fill:#C860FF; fill-opacity: 0.6454545454545455;"/>
<path d="M 443.37581270524765 437.97283402727726 L 448.71227174996284 438.8180461063891 L 449.55748382907467 433.4815870616739 L 444.22102478435954 432.63637498256213 Z" style="stroke:#00008C; stroke-opacity: 0.3;fill:#C860FF; fill-opacity: 0.6454545454545455;"/>
<path d="M 449.55748382907467 433.4815870616739 L 454.6960219081619 435.1511992934122 L 456.36563413990024 430.012661214325 L 451.227096060813 428.34304898258665 Z" style="stroke:#00008C; stroke-opacity: 0.3;fill:#C860FF; fill-opacity: 0.6454545454545455;"/>
<path d="M 456.36563413990024 430.012661214325 L 461.1797233920223 432.46556220441875 L 463.63262438211603 427.6514729522967 L 458.81853512999396 425.19857196220295 Z" style="stroke:#00008C; stroke-opacity: 0.3;fill:#C860FF; fill-opacity: 0.6454545454545455;"/>
<path d="M 463.63262438211603 427.6514729522967 L 468.0037259528392 430.82726413765823 L 471.17951713820077 426.4561625669351 L 466.8084155674776 423.2803713815735 Z" style="stroke:#00008C; stroke-opacity: 0.3;fill:#C860FF; fill-opacity: 0.6454545454545455;"/>
<path d="M 471.17951713820077 426.4561625669351 L 475 430.27664542873424 L 478.8204828617992 426.45616256693506 L 475 422.6356797051359 Z" style="stroke:#00008C; stroke-opacity: 0.3;fill:#C860FF; fill-opacity: 0.6454545454545455;"/>
<path d="M 478.8204828617992 426.45616256693506 L 481.9962740471608 430.8272641376582 L 486.3673756178839 427.65147295229656 L 483.1915844325223 423.28037138157345 Z" style="stroke:#00008C; stroke-opacity: 0.3;fill:#C860FF; fill-opacity: 0.6454545454545455;"/>
<path d="M 486.3673756178839 427.65147295229656 L 488.82027660797735 432.4655622044185 L 493.63436586009936 430.0126612143251 L 491.1814648700059 425.19857196220306 Z" style="stroke:#00008C; stroke-opacity: 0.3;fill:#C860FF; fill-opacity: 0.6454545454545455;"/>
<path d="M 493.63436586009936 430.0126612143251 L 495.30397809183756 435.15119929341284 L 500.4425161709253 433.48158706167465 L 498.7729039391871 428.34304898258694 Z" style="stroke:#00008C; stroke-opacity: 0.3;fill:#C860FF; fill-opacity: 0.6454545454545455;"/>
<path d="M 500.4425161709253 433.48158706167465 L 501.2877282500379 438.8180461063898 L 506.6241872947531 437.97283402727714 L 505.7789752156404 432.636374982562 Z" style="stroke:#00008C; stroke-opacity: 0.3;fill:#C860FF; fill-opacity: 0.6454545454545455;"/>
<path d="M 506.6241872947531 437.97283402727714 L 506.6241872947528 443.37581270524674 L 512.0271659727224 443.37581270524714 L 512.0271659727227 437.9728340272775 Z" style="stroke:#00008C; stroke-opacity: 0.3;fill:#C860FF; fill-opacity: 0.6454545454545455;"/>
<path d="M 512.0271659727224 443.37581270524714 L 511.18195389361017 448.71227174996295 L 516.518412938326 449.5574838290752 L 517.3636250174382 444.2210247843593 Z" style="stroke:#00008C; stroke-opacity: 0.3;fill:#C860FF; fill-opacity: 0.6454545454545455;"/>
<path d="M 516.518412938326 449.5574838290752 L 514.8488007065882 454.69602190816227 L 519.9873387856753 456.3656341399001 L 521.6569510174131 451.227096060813 Z" style="stroke:#00008C; stroke-opacity: 0.3;fill:#C860FF; fill-opacity: 0.6454545454545455;"/>
<path d="M 519.9873387856753 456.3656341399001 L 517.5344377955814 461.1797233920219 L 522.3485270477032 463.63262438211586 L 524.8014280377972 458.818535129994 Z" style="stroke:#00008C; stroke-opacity: 0.3;fill:#C860FF; fill-opacity: 0.6454545454545455;"/>
<path d="M 522.3485270477032 463.63262438211586 L 519.1727358623415 468.0037259528392 L 523.5438374330648 471.1795171382009 L 526.7196286184266 466.8084155674776 Z" style="stroke:#00008C; stroke-opacity: 0.3;fill:#C860FF; fill-opacity: 0.6454545454545455;"/>
<path d="M 523.5438374330648 471.1795171382009 L 519.7233545712659 475.00000000000006 L 523.5438374330649 478.82048286179906 L 527.364320294864 474.99999999999994 Z" style="stroke:#00008C; stroke-opacity: 0.3;fill:#C860FF; fill-opacity: 0.6454545454545455;"/>
<path d="M 523.5438374330649 478.82048286179906 L 519.1727358623416 481.99627404716057 L 522.3485270477031 486.3673756178839 L 526.7196286184264 483.1915844325224 Z" style="stroke:#00008C; stroke-opacity: 0.3;fill:#C860FF; fill-opacity: 0.6454545454545455;"/>
<path d="M 522.3485270477031 486.3673756178839 L 517.5344377955811 488.8202766079779 L 519.9873387856751 493.6343658601 L 524.8014280377971 491.1814648700059 Z" style="stroke:#00008C; stroke-opacity: 0.3;fill:#C860FF; fill-opacity: 0.6454545454545455;"/>
<path d="M 519.9873387856751 493.6343658601 L 514.8488007065879 495.3039780918379 L 516.5184129383259 500.44251617092505 L 521.656951017413 498.7729039391871 Z" style="stroke:#00008C; stroke-opacity: 0.3;fill:#C860FF; fill-opacity: 0.6454545454545455;"/>
<path d="M 516.5184129383259 500.44251617092505 L 511.18195389361034 501.28772825003733 L 512.0271659727226 506.6241872947529 L 517.3636250174382 505.7789752156406 Z" style="stroke:#00008C; stroke-opacity: 0.3;fill:#C860FF; fill-opacity: 0.6454545454545455;"/>
</g>
</svg>